<?xml version="1.0" encoding="utf-8"?>
<!-- Generator: Adobe Illustrator 19.0.0, SVG Export Plug-In . SVG Version: 6.00 Build 0)  -->
<svg version="1.1" id="Layer_1" xmlns="http://www.w3.org/2000/svg" xmlns:xlink="http://www.w3.org/1999/xlink" x="0px" y="0px"
	 viewBox="0 0 450 150" style="enable-background:new 0 0 450 150;" xml:space="preserve">
<style type="text/css">
	.st0{opacity:0.55;fill:#DC1D46;}
</style>
<path class="st0" d="M-0.6,0c0,0.1,54.3,0,58.1,0c25.4,0,50.8,0,76.3,0c30.1,0,60.2,0,90.3,0c30.1,0,60.3,0,90.4,0
	c25.5,0,51,0,76.6,0c16.3,0,32.5,0,48.8,0c3.4,0,6.8,0,10.2,0c0,0-0.7,57.3,0,72.3c0.7,15-16.1,28-26.8,33s-45.8,20.3-66.2,18
	c-20.4-2.3-21.1-5-45.5-14.7s-32.1-18.3-74.9,1.3s-57.9,28.7-89.3,34.3c-31.4,5.7-90.7,3.7-90.7,3.7c-16.6-0.9-35.3-5.9-44.7-20.9
	c-5.2-8.3-6.6-18.4-7.6-28.1C0.8,66.2-0.1,33-0.6,0z"/>
</svg>
