<?xml version="1.0" encoding="utf-8"?>
<!-- Generator: Adobe Illustrator 19.0.0, SVG Export Plug-In . SVG Version: 6.00 Build 0)  -->
<svg version="1.1" id="Layer_1" xmlns="http://www.w3.org/2000/svg" xmlns:xlink="http://www.w3.org/1999/xlink" x="0px" y="0px"
	 viewBox="0 0 450 400" style="enable-background:new 0 0 450 400;" xml:space="preserve">
<style type="text/css">
	.st0{opacity:0.53;fill:#7DD1EE;}
</style>
<path id="XMLID_3_" class="st0" d="M375,289.7c0.3,8.2,1.6,16.4,3.8,24.2c3,10.6,8.3,21.3,17.8,26.9c7.8,4.6,17.3,5,26.2,4
	c5.9-0.7,12.1-2.3,16.4-6.5c6.1-6.1,6.3-16.1,4-24.4c-3.8-14.1-12.9-26-22-37.3c-4.4-5.5-8.9-11-14.7-14.9
	c-13.5-9-28.7-5.7-30.8,11.1C375.1,278.4,374.8,284.1,375,289.7z"/>
<path id="XMLID_4_" class="st0" d="M42.1,242.9C3.5,218.9,4,183.6,4,183.3c0.1-9.5,8.1-13,16.5-13.4c9.4-0.4,13.5,3.7,19.7,10.2
	C51,191.5,70,225.8,70,239.1S42.1,242.9,42.1,242.9z"/>
</svg>
