<?xml version="1.0" encoding="utf-8"?>
<!-- Generator: Adobe Illustrator 19.0.0, SVG Export Plug-In . SVG Version: 6.00 Build 0)  -->
<svg version="1.1" id="Layer_1" xmlns="http://www.w3.org/2000/svg" xmlns:xlink="http://www.w3.org/1999/xlink" x="0px" y="0px"
	 viewBox="0 0 450 1000" style="enable-background:new 0 0 450 1000;" xml:space="preserve">
<style type="text/css">
	.st0{opacity:0.53;fill:#7DD1EE;}
</style>
<path id="XMLID_2_" class="st0" d="M0,128c64.8,9.1,139.5,32.5,133.9,87.1c-1.8,18.2-16.9,34.5-33.6,48.6C72.6,287,38.3,290.4,0,276
	C0,276,0,128,0,128z"/>
<path id="XMLID_3_" class="st0" d="M363,518.7c0.3,8.2,1.6,16.4,3.8,24.2c3,10.6,8.3,21.3,17.8,26.9c7.8,4.6,17.3,5,26.2,4
	c5.9-0.7,12.1-2.3,16.4-6.5c6.1-6.1,6.3-16.1,4-24.4c-3.8-14.1-12.9-26-22-37.3c-4.4-5.5-8.9-11-14.7-14.9
	c-13.5-9-28.7-5.7-30.8,11.1C363.1,507.4,362.8,513.1,363,518.7z"/>
<path id="XMLID_4_" class="st0" d="M74,961c-60.7-37.8-60-93.5-60-94c0.2-14.9,12.8-20.6,25.9-21.1c14.8-0.7,21.3,5.8,31.1,16.1
	c17,18,47,72,47,93S74,961,74,961z"/>
<path id="XMLID_1_" class="st0" d="M449.3,111.8c-20.1-26.1-31.8-59-33.8-91.8c-0.1-1.9-0.2-3.9,0.3-5.7c1.7-6.1,9.3-8.4,15.6-7.8
	c11.4,1.2,16.1,1.2,18.6,10.8c2.8,10.5,0,25.6,0,36.5C450,72,453.3,94.3,449.3,111.8z"/>
</svg>
