<?xml version="1.0" encoding="utf-8"?>
<!-- Generator: Adobe Illustrator 19.0.0, SVG Export Plug-In . SVG Version: 6.00 Build 0)  -->
<svg version="1.1" id="Layer_1" xmlns="http://www.w3.org/2000/svg" xmlns:xlink="http://www.w3.org/1999/xlink" x="0px" y="0px"
	 viewBox="0 0 450 400" style="enable-background:new 0 0 450 400;" xml:space="preserve">
<style type="text/css">
	.st0{opacity:0.53;fill:#7DD1EE;}
</style>
<path id="XMLID_2_" class="st0" d="M0,6c44.5,6.2,95.8,22.3,92,59.8c-1.3,12.5-11.6,23.7-23.1,33.4c-19,16-42.6,18.4-68.9,8.5
	C0,107.7,0,6,0,6z"/>
<path id="XMLID_4_" class="st0" d="M77,376c-60.7-37.8-60-93.5-60-94c0.2-14.9,12.8-20.6,25.9-21.1c14.8-0.7,21.3,5.8,31.1,16.1
	c17,18,47,72,47,93S77,376,77,376z"/>
<path id="XMLID_1_" class="st0" d="M448,114.8c-20.1-26.1-31.8-59-33.8-91.8c-0.1-1.9-0.2-3.9,0.3-5.7c1.7-6.1,9.3-8.4,15.6-7.8
	c11.4,1.2,16.1,1.2,18.6,10.8c2.8,10.5,0,25.6,0,36.5C448.7,75,452,97.3,448,114.8z"/>
</svg>
