<?xml version="1.0" encoding="utf-8"?>
<!-- Generator: Adobe Illustrator 19.0.0, SVG Export Plug-In . SVG Version: 6.00 Build 0)  -->
<svg version="1.1" id="Layer_1" xmlns="http://www.w3.org/2000/svg" xmlns:xlink="http://www.w3.org/1999/xlink" x="0px" y="0px"
	 viewBox="7 276.3 441.7 198.8" style="enable-background:new 7 276.3 441.7 198.8;" xml:space="preserve">
<style type="text/css">
	.st0{fill:#B5B5B5;}
	.st1{fill:#EFAD6C;}
	.st2{fill:#A2792C;}
	.st3{fill:#F2B450;}
	.st4{fill:#F68C33;}
	.st5{fill:#9F626B;}
	.st6{fill:#302E41;}
	.st7{fill:#6D5E32;}
	.st8{fill:#C05427;}
	.st9{fill:none;stroke:#545561;stroke-width:3;stroke-miterlimit:10;}
	.st10{fill:#6395CE;}
	.st11{opacity:0.1;fill:#010101;enable-background:new    ;}
	.st12{opacity:0.3;fill:#010101;enable-background:new    ;}
	.st13{fill:#3C6EA1;}
	.st14{opacity:0.5;fill:#DEE3F3;enable-background:new    ;}
	.st15{fill:url(#XMLID_14_);}
	.st16{fill:#3274A5;}
	.st17{fill:#599AC1;}
	.st18{fill:#F7C5A8;}
	.st19{fill:#4A5CA9;}
	.st20{opacity:0.1;}
	.st21{fill:#010101;}
	.st22{fill:#642753;}
	.st23{fill:#545561;}
	.st24{fill:#FFFFFF;}
	.st25{opacity:0.1;fill:none;stroke:#010101;stroke-miterlimit:10;enable-background:new    ;}
	.st26{fill:#6B5E9B;}
	.st27{fill:#FFD139;}
	.st28{fill:#D7D6E3;}
	.st29{fill:#E6E6E5;}
	.st30{fill:#328E4D;}
	.st31{fill:#403E56;}
	.st32{fill:#2D352D;}
	.st33{fill:#3F543F;}
	.st34{opacity:0.2;fill:#010101;enable-background:new    ;}
	.st35{fill:#F9B7B8;}
	.st36{fill:#D0E2C3;}
	.st37{fill:#F16584;}
	.st38{fill:#6466AF;}
	.st39{fill:#F9A924;}
	.st40{opacity:0.53;fill:#7CD1EF;}
	.st41{fill:#F9BFC0;}
	.st42{fill:url(#XMLID_15_);}
	.st43{fill:#F16262;}
	.st44{fill:#5B3837;}
	.st45{fill:#454154;}
	.st46{fill:#A2626B;}
	.st47{fill:#A91F23;}
	.st48{fill:#D1D2D5;}
	.st49{fill:#640D0D;}
	.st50{fill:url(#XMLID_16_);}
	.st51{fill:#F9BEBD;}
	.st52{opacity:0.67;fill:#DB4B4B;enable-background:new    ;}
	.st53{opacity:0.31;fill:#DB4B4B;enable-background:new    ;}
	.st54{opacity:0.73;fill:#DB4B4B;enable-background:new    ;}
</style>
<title>circles</title>
<g id="XMLID_305_">
	<path id="XMLID_315_" class="st0" d="M234.7,1086c0,3-1.2,5.3-3.7,7c-2.1,1.4-4.8,2.1-7.9,2.1c-2.4,0-4.5-0.2-6-0.5
		c-3.4-0.7-5.2-1.4-5.2-1.9c0-0.1,0-0.2,0.1-0.4c0.2-0.6,0.6-1.5,1-2.7c0.1-0.6,0.4-1.5,0.7-2.7c0.1-0.4,0.4-0.6,0.7-0.6
		c0,0,0.7,0.3,2.2,0.8s2.7,0.8,3.7,0.8c3.2,0,4.8-1.1,4.8-3.2c0-1.7-1.5-2.6-4.5-2.6c-0.4,0-0.9,0-1.6,0c-0.7,0-1.1,0-1.3,0
		c-1,0-1.5,0-1.6,0c-0.7-0.1-1.1-0.4-1.1-0.8c0-2.5,0.1-4.1,0.3-4.7c0.1-0.4,0.4-0.6,0.8-0.6c0.6,0,1.4,0.1,2.5,0.2s1.9,0.2,2.4,0.2
		c0.7,0,1.3-0.2,1.7-0.7c0.5-0.5,0.7-1.1,0.7-1.8c0-1.9-1.4-2.9-4.2-2.9c-1.2,0-2.8,0.3-4.8,1c-0.1,0-0.2,0-0.2,0
		c-0.2,0-0.4-0.2-0.5-0.7c0-0.7-0.1-1.5-0.1-2.3c0-0.2-0.1-0.6-0.1-1.2c-0.1-0.5-0.1-0.9-0.1-1.1c0-0.9,1.3-1.5,4-2
		c1.8-0.3,3.6-0.5,5.3-0.5c2.8,0,5.2,0.6,7.3,1.8c2.5,1.5,3.8,3.5,3.8,6.1c0,3-1.4,5.2-4.1,6.8c1.6,0.5,2.9,1.4,3.8,2.7
		C234.3,1082.9,234.7,1084.4,234.7,1086z"/>
	<path id="XMLID_341_" class="st0" d="M269.6,1077.1c0,4.8-1.5,8.9-4.6,12.5c-2.7,3.1-6.5,4.8-11.5,5c-0.9,0-3.5,0-7.8,0
		c-0.8,0-2,0-3.6-0.1c-1.6,0-2.8-0.1-3.6-0.1c-0.5,0-0.7-0.2-0.7-0.6c0-1.8,0.1-4.5,0.2-8.1c0.1-3.6,0.2-6.3,0.2-8.1
		c0-1.9-0.1-4.7-0.2-8.4c-0.1-3.7-0.2-6.5-0.2-8.4c0-0.3,0.2-0.5,0.7-0.6c1.2-0.1,3.1-0.2,5.7-0.2c5,0,8.3,0.1,9.7,0.2
		c3.9,0.4,6.9,1.4,9.1,2.9c2.1,1.5,3.7,3.5,4.9,6.2C269,1071.9,269.6,1074.4,269.6,1077.1z M260.3,1077.1c0-2.8-0.8-5-2.5-6.7
		c-1.7-1.8-3.9-2.7-6.6-2.7c-2.5,0-3.8,0.3-3.8,1c0,1,0,2.4,0,4.3s0,3.4,0,4.3c0,0.9,0,2.4,0,4.3s0,3.3,0,4.3c0,0.7,1.3,1,3.9,1
		c2.8,0,5-0.9,6.6-2.8C259.5,1082.3,260.3,1080,260.3,1077.1z"/>
	<path id="XMLID_344_" class="st0" d="M317.8,1077.1c0,4.8-1.5,8.9-4.6,12.5c-2.7,3.1-6.5,4.8-11.5,5c-0.9,0-3.5,0-7.8,0
		c-0.8,0-2,0-3.6-0.1c-1.6,0-2.8-0.1-3.6-0.1c-0.5,0-0.7-0.2-0.7-0.6c0-1.8,0.1-4.5,0.2-8.1s0.2-6.3,0.2-8.1c0-1.9-0.1-4.7-0.2-8.4
		c-0.1-3.7-0.2-6.5-0.2-8.4c0-0.3,0.2-0.5,0.7-0.6c1.2-0.1,3.1-0.2,5.7-0.2c5,0,8.3,0.1,9.7,0.2c3.9,0.4,6.9,1.4,9.1,2.9
		c2.1,1.5,3.7,3.5,4.9,6.2C317.2,1071.9,317.8,1074.4,317.8,1077.1z M308.4,1077.1c0-2.8-0.8-5-2.5-6.7c-1.7-1.8-3.9-2.7-6.6-2.7
		c-2.5,0-3.8,0.3-3.8,1c0,1,0,2.4,0,4.3s0,3.4,0,4.3c0,0.9,0,2.4,0,4.3s0,3.3,0,4.3c0,0.7,1.3,1,3.9,1c2.8,0,5-0.9,6.6-2.8
		C307.7,1082.3,308.4,1080,308.4,1077.1z"/>
	<path id="XMLID_347_" class="st0" d="M343.7,1081.1c0,1.6-0.5,2.6-1.6,2.8c-0.2,0-1.9,0.2-5.1,0.5c-1.9,0.2-4.8,0.5-8.6,0.8
		c0.2,1.1,0.9,1.9,2.1,2.4c0.9,0.5,2,0.7,3.2,0.7c1.4,0,2.9-0.4,4.4-1.2c0.6-0.4,1.2-0.8,1.9-1.2c0.3,0.2,0.9,1,1.7,2.5
		c0.8,1.5,1.2,2.5,1.2,2.9c0,0.1-0.1,0.3-0.4,0.6c-2,2.1-5.1,3.2-9.3,3.2c-3.9,0-7-1.1-9.4-3.4c-2.4-2.3-3.7-5.4-3.7-9.2
		c0-3.7,1.1-6.8,3.3-9.2c2.2-2.5,5.2-3.7,8.9-3.7c3.1,0,5.8,1.1,8,3.4C342.6,1075.3,343.7,1078,343.7,1081.1z M335.2,1079.6
		c0-1-0.4-1.9-1.1-2.7c-0.7-0.8-1.6-1.1-2.6-1.1s-1.9,0.4-2.5,1.3c-0.6,0.8-0.9,1.7-0.9,2.8c0,0.4,0.2,0.7,0.7,0.7
		c1.2,0,3.1-0.2,5.6-0.6C334.9,1080,335.2,1079.8,335.2,1079.6z"/>
	<path id="XMLID_350_" class="st0" d="M360.7,1074.6c0,0.2-0.1,0.4-0.4,0.7c-0.5-0.1-0.9-0.2-1.4-0.2c-1,0-1.8,0.2-2.4,0.6
		c-0.8,0.5-1.2,1.2-1.2,2.1c0,0.6,0.4,1.3,1.2,2.2c1.3,1.3,2,2.2,2.3,2.7c0.8,1.2,1.2,2.6,1.2,4c0,0.8-0.2,1.7-0.5,2.6
		c-0.4,1-0.8,1.8-1.4,2.2c-1.2,1-2.6,1.9-4.2,2.6c-1.7,0.7-3.3,1.1-4.8,1.1c-0.3,0-1.1-0.9-2.2-2.6c-1.1-1.8-1.7-2.8-1.7-3.2
		c0-0.1,0.1-0.2,0.3-0.3c1.1-0.2,2.3-0.4,3.4-0.6c1.4-0.5,2.1-1.2,2.1-2.2c0-0.7-0.4-1.5-1.2-2.5c-1.5-1.6-2.3-2.5-2.3-2.6
		c-0.8-1.2-1.2-2.4-1.2-3.7c0-2.4,1.2-4.5,3.7-6.2c2.2-1.5,4.6-2.3,7.1-2.3c0.3,0,0.9,0.9,1.9,2.6
		C360.2,1073.3,360.7,1074.3,360.7,1074.6z"/>
	<path id="XMLID_352_" class="st0" d="M373.3,1083.2c0,1.2,0,3,0.1,5.3c0,2.4,0.1,4.1,0.1,5.3c0,0.3-0.2,0.5-0.6,0.6
		c-0.6,0.1-1.8,0.1-3.7,0.1c-2,0-3.2,0-3.8-0.1c-0.4-0.1-0.6-0.2-0.7-0.3c0-0.1,0-0.3,0-0.7c0-1.1,0-2.8,0.1-5.1
		c0-2.3,0.1-4,0.1-5.1c0-4.6-0.2-8.3-0.5-11c0-0.3,0-0.4,0-0.5c0-0.3,0.2-0.5,0.7-0.5s1.2,0,2.1,0.1s1.6,0.1,2.1,0.1s1.2,0,2.1-0.1
		s1.7-0.1,2.1-0.1s0.6,0.2,0.6,0.5c0,0.1,0,0.2,0,0.5C373.4,1075.3,373.3,1079,373.3,1083.2z M373.9,1065c0,2.8-1.6,4.2-4.8,4.2
		c-1.4,0-2.5-0.4-3.4-1.1c-1-0.8-1.5-1.8-1.5-3.2c0-1.3,0.5-2.3,1.5-3.1c0.9-0.7,2-1.1,3.3-1.1s2.4,0.4,3.3,1.1
		C373.4,1062.8,373.9,1063.8,373.9,1065z"/>
	<path id="XMLID_355_" class="st0" d="M402.3,1088c0,4.6-1,8-2.9,10c-2,2.1-5.4,3.1-10.1,3.1c-1.4,0-3.2-0.2-5.6-0.7
		c-3-0.6-4.5-1.2-4.5-2c0-0.3,0.3-1.9,1-4.8c0.1-0.5,0.3-0.7,0.5-0.7c0.1,0,0.2,0,0.3,0.1c2.5,1.2,4.8,1.9,7,1.9
		c1.2,0,2.3-0.3,3.5-0.9c1.4-0.7,2.1-1.6,2.1-2.6v-1.6c-1.7,1.6-3.8,2.3-6.4,2.3c-3.1,0-5.6-1.1-7.5-3.3c-1.9-2.1-2.9-4.7-2.9-7.8
		s0.9-5.7,2.7-7.7c1.9-2.1,4.4-3.2,7.5-3.2c2.5,0,4.3,0.9,5.6,2.6c0.3,0.4,0.4,0.5,0.5,0.5s0.2-0.3,0.2-0.9c0-1.3,0.1-2,0.4-2
		s1.7,0.1,4.2,0.4c2.6,0.3,3.9,0.4,4,0.5c0.3,0.1,0.4,0.3,0.4,0.6c0,1.1,0,2.8-0.1,5c-0.1,2.2-0.1,3.9-0.1,5c0,0.7,0,1.7,0,3
		C402.3,1086.4,402.3,1087.4,402.3,1088z M393.8,1081.3c0-1.2-0.4-2.2-1.2-3.1c-0.8-0.9-1.8-1.3-3-1.3s-2.2,0.4-3,1.3
		s-1.2,1.9-1.2,3.1s0.4,2.2,1.2,3.1c0.8,0.9,1.8,1.3,2.9,1.3c1.2,0,2.2-0.4,3-1.3C393.4,1083.5,393.8,1082.5,393.8,1081.3z"/>
	<path id="XMLID_358_" class="st0" d="M430.8,1093.7c0,0.4-0.2,0.7-0.7,0.8s-1.6,0.1-3.6,0.1c-2.1,0-3.3,0-3.8-0.1s-0.7-0.4-0.7-1
		c0-0.8,0-1.9,0.1-3.5c0-1.5,0.1-2.7,0.1-3.5c0-0.6,0-1.5,0-2.7c0-1.2,0-2.1,0-2.7c0-2.2-1-3.3-2.9-3.3c-0.6,0-1.4,0.3-2.2,0.8
		c-0.9,0.6-1.4,1.2-1.4,1.8v13.2c0,0.5-0.3,0.8-0.8,0.9c-0.6,0.1-1.7,0.1-3.5,0.1c-1.9,0-3.1,0-3.7-0.1c-0.5-0.1-0.8-0.3-0.8-0.8
		c0-1.3,0-3.2,0-5.7c0-2.6,0-4.5,0-5.8c0-4.1-0.3-7.2-1-9.5c0-0.1,0-0.3,0-0.4c0-0.3,0.1-0.4,0.4-0.5c1-0.1,2.4-0.3,4.1-0.5
		c2.6-0.5,4-0.8,4.4-0.8c0.2,0,0.3,0.5,0.4,1.6s0.2,1.6,0.4,1.6c-0.2,0,0.7-0.6,2.6-1.7s3.6-1.7,5.1-1.7c2.1,0,3.8,0.5,5.2,1.5
		c1.5,1.1,2.3,2.7,2.3,4.7v7.8c0,1.1,0,2.6,0,4.7C430.8,1091,430.8,1092.6,430.8,1093.7z"/>
</g>
<g id="XMLID_168_">
	<path id="XMLID_171_" class="st0" d="M34.6,675.8c0,3.9-1,7.1-3.1,9.6c-2.2,2.6-5.3,3.9-9.2,3.9c-0.7,0-1.6,0-2.9-0.1
		c-1.3-0.1-2.3-0.1-2.9-0.1c-0.7,0-1,0.3-1,0.9c0,0.7,0.1,1.9,0.2,3.3c0.1,1.5,0.2,2.6,0.2,3.3c0,0.4-0.2,0.6-0.5,0.6
		c-1,0-2.5,0-4.5-0.1c-2-0.1-3.5-0.1-4.5-0.1c-0.5,0-0.7-0.2-0.7-0.7c0-1.8,0-4.5,0.1-8.1c0.1-3.6,0.1-6.3,0.1-8.1
		c0-5.1-0.2-10.5-0.7-16.1v-0.3c0-0.3,0.2-0.5,0.7-0.6c1.3-0.2,4.1-0.2,8.4-0.2c2.6,0,5,0,7.3,0.1c3.9,0.1,7,1.3,9.3,3.6
		C33.4,668.9,34.6,672,34.6,675.8z M24.9,676.2c0-3.8-1.8-5.7-5.5-5.7c-2.6,0-4,0.1-4.1,0.4c-0.1,0.2-0.2,2.1-0.2,5.6
		c0,0.5,0,1.2,0.1,2.2c0,1,0.1,1.7,0.1,2.2c0,0.3,1.5,0.5,4.4,0.5C23.1,681.5,24.9,679.8,24.9,676.2z"/>
	<path id="XMLID_179_" class="st0" d="M54,681.8c0,0.6-0.4,1-1,1c-0.3,0-0.8,0-1.4-0.1c-0.6,0-1-0.1-1.3-0.1c-1.4,0-2.3,0.2-2.8,0.6
		c-0.5,0.4-0.7,1.3-0.7,2.6c0,0.7,0,1.8,0,3.2s0,2.5,0,3.2c0,0.5,0,1.2,0.1,2.1c0.1,0.9,0.1,1.6,0.1,2.1c0,0.4-0.3,0.6-0.8,0.7
		c-0.8,0.1-2,0.1-3.6,0.1c-1.5,0-2.8,0-3.7-0.1c-0.5-0.1-0.8-0.3-0.8-0.8c0-1.3,0-3.3,0-5.8c0-2.6,0-4.5,0-5.8c0-3.8-0.4-7-1-9.4
		c0-0.1,0-0.3,0-0.4c0-0.2,0.1-0.4,0.4-0.5c0.9-0.1,2.2-0.3,3.9-0.5c2.6-0.5,3.9-0.8,4-0.8c0.3,0,0.5,0.5,0.6,1.5s0.2,1.5,0.4,1.5
		c-0.2,0,0.4-0.4,2-1.3c1.6-0.9,3.1-1.3,4.5-1.3c0.9,0,1.4,0.2,1.4,0.6c0,0.5,0,1.1-0.1,2c-0.1,0.9-0.2,1.6-0.2,2c0,0.5,0,1.1,0,1.9
		C54,680.8,54,681.5,54,681.8z"/>
	<path id="XMLID_181_" class="st0" d="M80.3,685c0,3.7-1.1,6.7-3.4,9s-5.3,3.5-8.9,3.5s-6.5-1.1-8.8-3.4s-3.5-5.2-3.5-8.8
		c0-3.8,1.1-6.8,3.3-9.2s5.2-3.5,9-3.5c3.7,0,6.7,1.2,8.9,3.5C79.2,678.3,80.3,681.3,80.3,685z M72.3,685c0-1.3-0.4-2.4-1.2-3.4
		c-0.8-1-1.8-1.5-3.1-1.5c-1.3,0-2.3,0.5-3.2,1.5c-0.8,0.9-1.2,2.1-1.2,3.4s0.4,2.5,1.2,3.4c0.8,1,1.9,1.5,3.2,1.5
		c1.3,0,2.3-0.5,3.1-1.5C72,687.4,72.3,686.3,72.3,685z"/>
	<path id="XMLID_186_" class="st0" d="M107.6,690.7c0,4.6-1,8-2.9,10c-2,2.1-5.4,3.1-10.1,3.1c-1.4,0-3.2-0.2-5.6-0.7
		c-3-0.6-4.5-1.2-4.5-2c0-0.3,0.3-1.9,1-4.8c0.1-0.5,0.3-0.7,0.5-0.7c0.1,0,0.2,0,0.3,0.1c2.5,1.2,4.8,1.9,7,1.9
		c1.2,0,2.3-0.3,3.5-0.9c1.4-0.7,2.1-1.6,2.1-2.6v-1.6c-1.7,1.6-3.8,2.3-6.4,2.3c-3.1,0-5.6-1.1-7.5-3.3c-1.9-2.1-2.9-4.7-2.9-7.8
		s0.9-5.7,2.7-7.7c1.9-2.1,4.4-3.2,7.5-3.2c2.5,0,4.3,0.9,5.6,2.6c0.3,0.4,0.4,0.5,0.5,0.5s0.2-0.3,0.2-0.9c0-1.3,0.1-2,0.4-2
		s1.7,0.1,4.2,0.4c2.6,0.3,3.9,0.4,4,0.5c0.3,0.1,0.4,0.3,0.4,0.6c0,1.1,0,2.8-0.1,5s-0.1,3.9-0.1,5c0,0.7,0,1.7,0,3
		C107.6,689,107.6,690,107.6,690.7z M99.2,683.9c0-1.2-0.4-2.2-1.2-3.1c-0.8-0.9-1.8-1.3-3-1.3s-2.2,0.4-3,1.3
		c-0.8,0.9-1.2,1.9-1.2,3.1s0.4,2.2,1.2,3.1c0.8,0.9,1.8,1.3,2.9,1.3c1.2,0,2.2-0.4,3-1.3C98.8,686.1,99.2,685.1,99.2,683.9z"/>
	<path id="XMLID_193_" class="st0" d="M128,681.8c0,0.6-0.4,1-1,1c-0.3,0-0.8,0-1.4-0.1c-0.6,0-1-0.1-1.3-0.1
		c-1.4,0-2.3,0.2-2.8,0.6c-0.5,0.4-0.7,1.3-0.7,2.6c0,0.7,0,1.8,0,3.2s0,2.5,0,3.2c0,0.5,0,1.2,0.1,2.1c0.1,0.9,0.1,1.6,0.1,2.1
		c0,0.4-0.3,0.6-0.8,0.7c-0.8,0.1-2,0.1-3.6,0.1c-1.5,0-2.8,0-3.7-0.1c-0.5-0.1-0.8-0.3-0.8-0.8c0-1.3,0-3.3,0-5.8
		c0-2.6,0-4.5,0-5.8c0-3.8-0.4-7-1-9.4c0-0.1,0-0.3,0-0.4c0-0.2,0.1-0.4,0.4-0.5c0.9-0.1,2.2-0.3,3.9-0.5c2.6-0.5,3.9-0.8,4-0.8
		c0.3,0,0.5,0.5,0.6,1.5s0.2,1.5,0.4,1.5c-0.2,0,0.4-0.4,2-1.3c1.6-0.9,3.1-1.3,4.5-1.3c0.9,0,1.4,0.2,1.4,0.6c0,0.5,0,1.1-0.1,2
		c-0.1,0.9-0.2,1.6-0.2,2c0,0.5,0,1.1,0,1.9C128,680.8,128,681.5,128,681.8z"/>
	<path id="XMLID_195_" class="st0" d="M155.4,684.8c0,1.3,0.1,3.1,0.2,5.6c0.1,2.5,0.2,4.3,0.2,5.6c0,0.7-0.3,1-0.9,1
		c-2,0.1-4.3,0.2-6.9,0.2c-0.3,0-0.5-0.5-0.6-1.4c-0.1-0.9-0.2-1.4-0.4-1.4c-0.1,0.1-0.3,0.2-0.5,0.4c-1.8,1.8-3.8,2.8-5.9,2.8
		c-3.2,0-5.8-1.3-7.9-3.8c-2-2.3-3-5.1-3-8.4c0-3.8,1-6.8,3.1-9.1c2.1-2.4,5-3.6,8.7-3.6c2.6,0,4.6,0.9,6.1,2.7
		c0.1,0.1,0.1,0.1,0.2,0.1c0.1,0,0.3-0.4,0.5-1.2s0.4-1.2,0.7-1.2c0.6,0,1.7,0.2,3.4,0.5c1.6,0.3,2.8,0.6,3.5,0.8
		c0.2,0.1,0.4,0.2,0.4,0.4c0,0.1,0,0.2-0.1,0.5C155.7,678.4,155.4,681.5,155.4,684.8z M147.6,684.9c0-1.4-0.4-2.5-1.3-3.4
		c-0.9-0.9-2-1.4-3.4-1.4s-2.5,0.4-3.4,1.3c-0.9,0.9-1.3,2-1.3,3.4c0,1.3,0.5,2.5,1.4,3.4c0.9,0.9,2,1.4,3.3,1.4
		c1.4,0,2.5-0.5,3.4-1.4C147.1,687.5,147.6,686.3,147.6,684.9z"/>
	<path id="XMLID_199_" class="st0" d="M199.3,696.1c0,0.6-0.2,0.9-0.7,1c-0.5,0.1-1.7,0.1-3.6,0.1c-2,0-3.2,0-3.7-0.1
		c-0.5-0.1-0.7-0.5-0.7-1.2s0-1.9,0.1-3.4c0-1.5,0.1-2.6,0.1-3.4c0-2.8,0-4.9-0.1-6.1c-0.1-1.9-1-2.9-2.8-2.9c-0.8,0-1.5,0.3-2.3,1
		c-0.8,0.6-1.2,1.4-1.3,2.1s-0.1,2.7-0.1,6c0,0.8,0,1.9,0.1,3.5c0,1.6,0.1,2.7,0.1,3.5c0,0.5-0.2,0.8-0.7,0.8h-7.4
		c-0.5,0-0.7-0.3-0.7-1c0-0.8,0-1.9,0.1-3.4c0-1.5,0.1-2.7,0.1-3.5c0-0.6,0-1.5,0-2.7s0-2.1,0-2.8c0-2.3-0.9-3.5-2.7-3.5
		c-0.7,0-1.5,0.3-2.3,0.8c-0.9,0.6-1.4,1.2-1.4,1.9c0,1.5,0,3.7,0,6.6c0,2.9,0,5.2,0,6.6c0,0.4,0,0.7-0.1,0.8s-0.4,0.2-0.8,0.2
		c-0.7,0.1-1.9,0.1-3.5,0.1c-1,0-2.2,0-3.5-0.1c-0.4,0-0.6-0.1-0.7-0.2c-0.1-0.1-0.1-0.3-0.1-0.7c0-1.3,0-3.3,0-5.8
		c0-2.6,0-4.5,0-5.8c0-2.7-0.2-5.7-0.6-9c0-0.2,0-0.3,0-0.4c0-0.3,0.1-0.5,0.3-0.6c0.4-0.1,1-0.3,2-0.4c1.2-0.1,1.9-0.2,2.2-0.2
		c0.2,0,0.8-0.2,1.9-0.5c0.8-0.2,1.4-0.3,1.9-0.3c0.3,0,0.5,0.6,0.5,1.7c0,1.1,0.1,1.7,0.2,1.7c0.2-0.1,0.3-0.2,0.6-0.3
		c1.5-1.1,2.6-1.9,3.5-2.3c1.3-0.6,2.6-0.9,4.1-0.9s2.8,0.3,4,1c1.3,0.7,2.2,1.8,2.6,3.1c0.9-1.2,2.1-2.2,3.6-3s3-1.2,4.4-1.2
		c2.1,0,3.9,0.5,5.2,1.5c1.5,1.1,2.3,2.7,2.3,4.8c0,0.9,0,2.2-0.1,3.9c0,1.7-0.1,3-0.1,3.9c0,1,0,2.6,0.1,4.6
		C199.3,693.5,199.3,695.1,199.3,696.1z"/>
	<path id="XMLID_219_" class="st0" d="M242.9,696.1c0,0.6-0.2,0.9-0.7,1c-0.5,0.1-1.7,0.1-3.6,0.1c-2,0-3.2,0-3.7-0.1
		c-0.5-0.1-0.7-0.5-0.7-1.2s0-1.9,0.1-3.4c0-1.5,0.1-2.6,0.1-3.4c0-2.8,0-4.9-0.1-6.1c-0.1-1.9-1-2.9-2.8-2.9c-0.8,0-1.5,0.3-2.3,1
		c-0.8,0.6-1.2,1.4-1.3,2.1s-0.1,2.7-0.1,6c0,0.8,0,1.9,0.1,3.5c0,1.6,0.1,2.7,0.1,3.5c0,0.5-0.2,0.8-0.7,0.8h-7.4
		c-0.5,0-0.7-0.3-0.7-1c0-0.8,0-1.9,0.1-3.4c0-1.5,0.1-2.7,0.1-3.5c0-0.6,0-1.5,0-2.7s0-2.1,0-2.8c0-2.3-0.9-3.5-2.7-3.5
		c-0.7,0-1.5,0.3-2.3,0.8c-0.9,0.6-1.4,1.2-1.4,1.9c0,1.5,0,3.7,0,6.6c0,2.9,0,5.2,0,6.6c0,0.4,0,0.7-0.1,0.8s-0.4,0.2-0.8,0.2
		c-0.7,0.1-1.9,0.1-3.5,0.1c-1,0-2.2,0-3.5-0.1c-0.4,0-0.6-0.1-0.7-0.2c-0.1-0.1-0.1-0.3-0.1-0.7c0-1.3,0-3.3,0-5.8
		c0-2.6,0-4.5,0-5.8c0-2.7-0.2-5.7-0.6-9c0-0.2,0-0.3,0-0.4c0-0.3,0.1-0.5,0.3-0.6c0.4-0.1,1-0.3,2-0.4c1.2-0.1,1.9-0.2,2.2-0.2
		c0.2,0,0.8-0.2,1.9-0.5c0.8-0.2,1.4-0.3,1.9-0.3c0.3,0,0.5,0.6,0.5,1.7c0,1.1,0.1,1.7,0.2,1.7c0.2-0.1,0.3-0.2,0.6-0.3
		c1.5-1.1,2.6-1.9,3.5-2.3c1.3-0.6,2.6-0.9,4.1-0.9s2.8,0.3,4,1c1.3,0.7,2.2,1.8,2.6,3.1c0.9-1.2,2.1-2.2,3.6-3s3-1.2,4.4-1.2
		c2.1,0,3.9,0.5,5.2,1.5c1.5,1.1,2.3,2.7,2.3,4.8c0,0.9,0,2.2-0.1,3.9c0,1.7-0.1,3-0.1,3.9c0,1,0,2.6,0.1,4.6
		C242.9,693.5,242.9,695.1,242.9,696.1z"/>
	<path id="XMLID_222_" class="st0" d="M256.6,685.8c0,1.2,0,3,0.1,5.3c0,2.4,0.1,4.1,0.1,5.3c0,0.3-0.2,0.5-0.6,0.6
		c-0.6,0.1-1.8,0.1-3.7,0.1c-2,0-3.2,0-3.8-0.1c-0.4-0.1-0.6-0.2-0.7-0.3c0-0.1,0-0.3,0-0.7c0-1.1,0-2.8,0.1-5.1
		c0-2.3,0.1-4,0.1-5.1c0-4.6-0.2-8.3-0.5-11c0-0.3,0-0.4,0-0.5c0-0.3,0.2-0.5,0.7-0.5s1.2,0,2.1,0.1c0.9,0.1,1.6,0.1,2.1,0.1
		s1.2,0,2.1-0.1c0.9-0.1,1.7-0.1,2.1-0.1s0.6,0.2,0.6,0.5c0,0.1,0,0.2,0,0.5C256.8,677.9,256.6,681.6,256.6,685.8z M257.2,667.7
		c0,2.8-1.6,4.2-4.8,4.2c-1.4,0-2.5-0.4-3.4-1.1c-1-0.8-1.5-1.8-1.5-3.2c0-1.3,0.5-2.3,1.5-3.1c0.9-0.7,2-1.1,3.3-1.1
		s2.4,0.4,3.3,1.1C256.7,665.4,257.2,666.4,257.2,667.7z"/>
	<path id="XMLID_227_" class="st0" d="M285.6,696.3c0,0.4-0.2,0.7-0.7,0.8c-0.5,0.1-1.6,0.1-3.6,0.1c-2.1,0-3.3,0-3.8-0.1
		c-0.5-0.1-0.7-0.4-0.7-1c0-0.8,0-1.9,0.1-3.5c0-1.5,0.1-2.7,0.1-3.5c0-0.6,0-1.5,0-2.7s0-2.1,0-2.7c0-2.2-1-3.3-2.9-3.3
		c-0.6,0-1.4,0.3-2.2,0.8c-0.9,0.6-1.4,1.2-1.4,1.8v13.2c0,0.5-0.3,0.8-0.8,0.9c-0.6,0.1-1.7,0.1-3.5,0.1c-1.9,0-3.1,0-3.7-0.1
		c-0.5-0.1-0.8-0.3-0.8-0.8c0-1.3,0-3.2,0-5.7c0-2.6,0-4.5,0-5.8c0-4.1-0.3-7.2-1-9.5c0-0.1,0-0.3,0-0.4c0-0.3,0.1-0.4,0.4-0.5
		c1-0.1,2.4-0.3,4.1-0.5c2.6-0.5,4-0.8,4.4-0.8c0.2,0,0.3,0.5,0.4,1.6c0.1,1.1,0.2,1.6,0.4,1.6c-0.2,0,0.7-0.6,2.6-1.7
		c1.9-1.1,3.6-1.7,5.1-1.7c2.1,0,3.8,0.5,5.2,1.5c1.5,1.1,2.3,2.7,2.3,4.7v7.8c0,1.1,0,2.6,0,4.7
		C285.6,693.7,285.6,695.2,285.6,696.3z"/>
	<path id="XMLID_229_" class="st0" d="M314,690.7c0,4.6-1,8-2.9,10c-2,2.1-5.4,3.1-10.1,3.1c-1.4,0-3.2-0.2-5.6-0.7
		c-3-0.6-4.5-1.2-4.5-2c0-0.3,0.3-1.9,1-4.8c0.1-0.5,0.3-0.7,0.5-0.7c0.1,0,0.2,0,0.3,0.1c2.5,1.2,4.8,1.9,7,1.9
		c1.2,0,2.3-0.3,3.5-0.9c1.4-0.7,2.1-1.6,2.1-2.6v-1.6c-1.7,1.6-3.8,2.3-6.4,2.3c-3.1,0-5.6-1.1-7.5-3.3c-1.9-2.1-2.9-4.7-2.9-7.8
		s0.9-5.7,2.7-7.7c1.9-2.1,4.4-3.2,7.5-3.2c2.5,0,4.3,0.9,5.6,2.6c0.3,0.4,0.4,0.5,0.5,0.5s0.2-0.3,0.2-0.9c0-1.3,0.1-2,0.4-2
		s1.7,0.1,4.2,0.4c2.6,0.3,3.9,0.4,4,0.5c0.3,0.1,0.4,0.3,0.4,0.6c0,1.1,0,2.8-0.1,5s-0.1,3.9-0.1,5c0,0.7,0,1.7,0,3
		C314,689,314,690,314,690.7z M305.5,683.9c0-1.2-0.4-2.2-1.2-3.1c-0.8-0.9-1.8-1.3-3-1.3s-2.2,0.4-3,1.3c-0.8,0.9-1.2,1.9-1.2,3.1
		s0.4,2.2,1.2,3.1c0.8,0.9,1.8,1.3,2.9,1.3c1.2,0,2.2-0.4,3-1.3C305.1,686.1,305.5,685.1,305.5,683.9z"/>
</g>
<g id="XMLID_87_">
	<path id="XMLID_88_" class="st0" d="M39.3,54.9c0,0.3-0.2,0.5-0.6,0.6c-0.5,0.1-2,0.2-4.5,0.2c-2.3,0-3.8-0.1-4.5-0.2
		c-0.6-0.1-0.9-0.5-1-1.1c-0.6-2.3-1-3.6-1.3-3.8c-0.3-0.1-2.4-0.2-6.5-0.2c-2.8,0-4.2,0.1-4.4,0.2c-0.3,0.3-0.6,1.1-0.9,2.6
		c-0.3,1.4-0.7,2.1-1.1,2.2c-0.6,0.1-2.4,0.2-5.6,0.2C6.2,55.7,5,55.4,5,55s1.8-5.6,5.5-15.6c4-10.8,6.2-16.7,6.5-17.8
		c0.2-0.6,0.4-0.9,0.7-0.9c0.4,0,1.1,0,2,0.1s1.6,0.1,2.1,0.1c0.4,0,1.1,0,1.9-0.1c0.9-0.1,1.5-0.1,1.9-0.1c0.3,0,0.6,0.3,0.9,0.8
		c0.8,1.7,3.1,7.6,7,17.6C37.3,49.2,39.3,54.4,39.3,54.9z M22,32.6c-0.3,0.7-0.9,2.3-1.7,4.7c-0.9,2.5-1.3,4-1.3,4.5
		c0,0.3,0.5,0.5,1.5,0.5c0.5,0,1.3,0,2.5,0c1.1,0,1.7-0.1,1.8-0.4c0-0.1,0-0.2,0-0.3c0-0.5-0.4-2-1.1-4.4
		C22.9,34.8,22.3,33.3,22,32.6z"/>
	<path id="XMLID_91_" class="st0" d="M65.9,54.8c0,0.4-0.2,0.7-0.7,0.8s-1.6,0.1-3.6,0.1c-2.1,0-3.3,0-3.8-0.1s-0.7-0.4-0.7-1
		c0-0.8,0-1.9,0.1-3.5c0-1.5,0.1-2.7,0.1-3.5c0-0.6,0-1.5,0-2.7s0-2.1,0-2.7c0-2.2-1-3.3-2.9-3.3c-0.6,0-1.4,0.3-2.2,0.8
		c-0.9,0.6-1.4,1.2-1.4,1.8v13.2c0,0.5-0.3,0.8-0.8,0.9c-0.6,0.1-1.7,0.1-3.5,0.1c-1.9,0-3.1,0-3.7-0.1c-0.5-0.1-0.8-0.3-0.8-0.8
		c0-1.3,0-3.2,0-5.7c0-2.6,0-4.5,0-5.8c0-4.1-0.3-7.2-1-9.5c0-0.1,0-0.3,0-0.4c0-0.3,0.1-0.4,0.4-0.5c1-0.1,2.4-0.3,4.1-0.5
		c2.6-0.5,4-0.8,4.4-0.8c0.2,0,0.3,0.5,0.4,1.6c0.1,1.1,0.2,1.6,0.4,1.6c-0.2,0,0.7-0.6,2.6-1.7c1.9-1.1,3.6-1.7,5.1-1.7
		c2.1,0,3.8,0.5,5.2,1.5c1.5,1.1,2.3,2.7,2.3,4.7v7.8c0,1.1,0,2.6,0,4.7C65.9,52.1,65.9,53.7,65.9,54.8z"/>
	<path id="XMLID_93_" class="st0" d="M79,44.3c0,1.2,0,3,0.1,5.3c0,2.4,0.1,4.1,0.1,5.3c0,0.3-0.2,0.5-0.6,0.6
		c-0.6,0.1-1.8,0.1-3.7,0.1c-2,0-3.2,0-3.8-0.1c-0.4-0.1-0.6-0.2-0.7-0.3c0-0.1,0-0.3,0-0.7c0-1.1,0-2.8,0.1-5.1
		c0-2.3,0.1-4,0.1-5.1c0-4.6-0.2-8.3-0.5-11c0-0.3,0-0.4,0-0.5c0-0.3,0.2-0.5,0.7-0.5s1.2,0,2.1,0.1s1.6,0.1,2.1,0.1s1.2,0,2.1-0.1
		s1.7-0.1,2.1-0.1s0.6,0.2,0.6,0.5c0,0.1,0,0.2,0,0.5C79.2,36.4,79,40.1,79,44.3z M79.6,26.1c0,2.8-1.6,4.2-4.8,4.2
		c-1.4,0-2.5-0.4-3.4-1.1c-1-0.8-1.5-1.8-1.5-3.2c0-1.3,0.5-2.3,1.5-3.1c0.9-0.7,2-1.1,3.3-1.1s2.4,0.4,3.3,1.1
		C79.1,23.8,79.6,24.9,79.6,26.1z"/>
	<path id="XMLID_96_" class="st0" d="M122.7,54.6c0,0.6-0.2,0.9-0.7,1s-1.7,0.1-3.6,0.1c-2,0-3.2,0-3.7-0.1s-0.7-0.5-0.7-1.2
		s0-1.9,0.1-3.4c0-1.5,0.1-2.6,0.1-3.4c0-2.8,0-4.9-0.1-6.1c-0.1-1.9-1-2.9-2.8-2.9c-0.8,0-1.5,0.3-2.3,1c-0.8,0.6-1.2,1.4-1.3,2.1
		c-0.1,0.7-0.1,2.7-0.1,6c0,0.8,0,1.9,0.1,3.5c0,1.6,0.1,2.7,0.1,3.5c0,0.5-0.2,0.8-0.7,0.8h-7.4c-0.5,0-0.7-0.3-0.7-1
		c0-0.8,0-1.9,0.1-3.4c0-1.5,0.1-2.7,0.1-3.5c0-0.6,0-1.5,0-2.7s0-2.1,0-2.8c0-2.3-0.9-3.5-2.7-3.5c-0.7,0-1.5,0.3-2.3,0.8
		c-0.9,0.6-1.4,1.2-1.4,1.9c0,1.5,0,3.7,0,6.6c0,2.9,0,5.2,0,6.6c0,0.4,0,0.7-0.1,0.8s-0.4,0.2-0.8,0.2c-0.7,0.1-1.9,0.1-3.5,0.1
		c-1,0-2.2,0-3.5-0.1c-0.4,0-0.6-0.1-0.7-0.2C84,55.2,84,55,84,54.6c0-1.3,0-3.3,0-5.8c0-2.6,0-4.5,0-5.8c0-2.7-0.2-5.7-0.6-9
		c0-0.2,0-0.3,0-0.4c0-0.3,0.1-0.5,0.3-0.6c0.4-0.1,1-0.3,2-0.4c1.2-0.1,1.9-0.2,2.2-0.2c0.2,0,0.8-0.2,1.9-0.5
		c0.8-0.2,1.4-0.3,1.9-0.3c0.3,0,0.5,0.6,0.5,1.7c0,1.1,0.1,1.7,0.2,1.7c0.2-0.1,0.3-0.2,0.6-0.3c1.5-1.1,2.6-1.9,3.5-2.3
		c1.3-0.6,2.6-0.9,4.1-0.9s2.8,0.3,4,1c1.3,0.7,2.2,1.8,2.6,3.1c0.9-1.2,2.1-2.2,3.6-3c1.5-0.8,3-1.2,4.4-1.2c2.1,0,3.9,0.5,5.2,1.5
		c1.5,1.1,2.3,2.7,2.3,4.8c0,0.9,0,2.2-0.1,3.9c0,1.7-0.1,3-0.1,3.9c0,1,0,2.6,0.1,4.6C122.7,52,122.7,53.6,122.7,54.6z"/>
	<path id="XMLID_98_" class="st0" d="M151.9,43.3c0,1.3,0.1,3.1,0.2,5.6c0.1,2.5,0.2,4.3,0.2,5.6c0,0.7-0.3,1-0.9,1
		c-2,0.1-4.3,0.2-6.9,0.2c-0.3,0-0.5-0.5-0.6-1.4s-0.2-1.4-0.4-1.4c-0.1,0.1-0.3,0.2-0.5,0.4c-1.8,1.8-3.8,2.8-5.9,2.8
		c-3.2,0-5.8-1.3-7.9-3.8c-2-2.3-3-5.1-3-8.4c0-3.8,1-6.8,3.1-9.1c2.1-2.4,5-3.6,8.7-3.6c2.6,0,4.6,0.9,6.1,2.7
		c0.1,0.1,0.1,0.1,0.2,0.1c0.1,0,0.3-0.4,0.5-1.2c0.2-0.8,0.4-1.2,0.7-1.2c0.6,0,1.7,0.2,3.4,0.5c1.6,0.3,2.8,0.6,3.5,0.8
		c0.2,0.1,0.4,0.2,0.4,0.4c0,0.1,0,0.2-0.1,0.5C152.1,36.9,151.9,40,151.9,43.3z M144,43.4c0-1.4-0.4-2.5-1.3-3.4
		c-0.9-0.9-2-1.4-3.4-1.4s-2.5,0.4-3.4,1.3c-0.9,0.9-1.3,2-1.3,3.4c0,1.3,0.5,2.5,1.4,3.4s2,1.4,3.3,1.4c1.4,0,2.5-0.5,3.4-1.4
		C143.6,46,144,44.8,144,43.4z"/>
	<path id="XMLID_101_" class="st0" d="M173.1,48.3c0,0.5-0.1,1.2-0.2,2.2c-0.1,1-0.2,1.7-0.2,2.2s0,0.8-0.1,0.9
		c-0.1,0.1-0.4,0.3-0.8,0.6c-2.1,1.2-4.4,1.7-7,1.7c-4.7,0-7.1-1.8-7.1-5.4c0-1.1,0-2.7,0.1-4.8c0.1-2.2,0.1-3.8,0.1-4.8
		c0-0.7-0.4-1.1-1.2-1.1c-0.1,0-0.2,0-0.3,0s-0.3,0-0.3,0c-0.6,0-0.9-0.2-0.9-0.7c0-0.3,0-0.7,0.1-1.2c0-0.5,0.1-0.9,0.1-1.2
		s0-0.9-0.1-1.6c0-0.7-0.1-1.2-0.1-1.6c0-0.3,0.5-0.5,1.6-0.5c0.6,0,0.9-0.2,1-0.5c0.1-0.6,0.1-1.6,0.1-2.9c-0.1-2.1-0.1-3.1-0.1-3
		c0-1.9,0.2-2.8,0.5-2.8c0.4,0,1.1,0.1,1.9,0.3c0.9,0.2,1.6,0.3,1.9,0.4c0.8,0.1,2.1,0.3,3.8,0.5c0.4,0,0.6,0.2,0.6,0.4
		c0,0.7-0.1,1.6-0.2,3c-0.1,1.3-0.2,2.3-0.2,3c0,0.8,0.2,1.2,0.7,1.2c0.6,0,1.4,0,2.6-0.1c1.2,0,2-0.1,2.6-0.1
		c0.4,0,0.5,0.1,0.5,0.4c0,0.4,0,0.9-0.1,1.7c-0.1,0.7-0.1,1.3-0.1,1.7s0,1,0,1.7s0,1.3,0,1.7c0,0.3-0.2,0.5-0.7,0.5
		c-0.3,0-0.9,0-1.6,0c-0.8,0-1.3,0-1.6,0h-1.8c-0.2,0-0.4,0.4-0.4,1.1c0,0.4,0,1,0,1.7c0,0.8,0,1.4,0,1.7c0,1.4,0.2,2.3,0.5,2.8
		c0.4,0.7,1.3,1,2.6,1c0.4,0,1-0.1,1.7-0.3c0.8-0.2,1.3-0.3,1.6-0.3C172.9,47.8,173.1,48,173.1,48.3z"/>
	<path id="XMLID_104_" class="st0" d="M184.7,44.3c0,1.2,0,3,0.1,5.3c0,2.4,0.1,4.1,0.1,5.3c0,0.3-0.2,0.5-0.6,0.6
		c-0.6,0.1-1.8,0.1-3.7,0.1c-2,0-3.2,0-3.8-0.1c-0.4-0.1-0.6-0.2-0.7-0.3c0-0.1,0-0.3,0-0.7c0-1.1,0-2.8,0.1-5.1
		c0-2.3,0.1-4,0.1-5.1c0-4.6-0.2-8.3-0.5-11c0-0.3,0-0.4,0-0.5c0-0.3,0.2-0.5,0.7-0.5s1.2,0,2.1,0.1c0.9,0.1,1.6,0.1,2.1,0.1
		s1.2,0,2.1-0.1c0.9-0.1,1.7-0.1,2.1-0.1c0.4,0,0.6,0.2,0.6,0.5c0,0.1,0,0.2,0,0.5C184.8,36.4,184.7,40.1,184.7,44.3z M185.3,26.1
		c0,2.8-1.6,4.2-4.8,4.2c-1.4,0-2.5-0.4-3.4-1.1c-1-0.8-1.5-1.8-1.5-3.2c0-1.3,0.5-2.3,1.5-3.1c0.9-0.7,2-1.1,3.3-1.1
		s2.4,0.4,3.3,1.1C184.8,23.8,185.3,24.9,185.3,26.1z"/>
	<path id="XMLID_107_" class="st0" d="M212.9,43.5c0,3.7-1.1,6.7-3.4,9c-2.3,2.3-5.3,3.5-8.9,3.5c-3.6,0-6.5-1.1-8.8-3.4
		c-2.3-2.3-3.5-5.2-3.5-8.8c0-3.8,1.1-6.8,3.3-9.2s5.2-3.5,9-3.5c3.7,0,6.7,1.2,8.9,3.5C211.7,36.8,212.9,39.8,212.9,43.5z
		 M204.9,43.5c0-1.3-0.4-2.4-1.2-3.4s-1.8-1.5-3.1-1.5s-2.3,0.5-3.2,1.5c-0.8,0.9-1.2,2.1-1.2,3.4c0,1.3,0.4,2.5,1.2,3.4
		c0.8,1,1.9,1.5,3.2,1.5s2.3-0.5,3.1-1.5S204.9,44.8,204.9,43.5z"/>
	<path id="XMLID_166_" class="st0" d="M240.1,54.8c0,0.4-0.2,0.7-0.7,0.8s-1.6,0.1-3.6,0.1c-2.1,0-3.3,0-3.8-0.1s-0.7-0.4-0.7-1
		c0-0.8,0-1.9,0.1-3.5c0-1.5,0.1-2.7,0.1-3.5c0-0.6,0-1.5,0-2.7s0-2.1,0-2.7c0-2.2-1-3.3-2.9-3.3c-0.6,0-1.4,0.3-2.2,0.8
		c-0.9,0.6-1.4,1.2-1.4,1.8v13.2c0,0.5-0.3,0.8-0.8,0.9c-0.6,0.1-1.7,0.1-3.5,0.1c-1.9,0-3.1,0-3.7-0.1c-0.5-0.1-0.8-0.3-0.8-0.8
		c0-1.3,0-3.2,0-5.7c0-2.6,0-4.5,0-5.8c0-4.1-0.3-7.2-1-9.5c0-0.1,0-0.3,0-0.4c0-0.3,0.1-0.4,0.4-0.5c1-0.1,2.4-0.3,4.1-0.5
		c2.6-0.5,4-0.8,4.4-0.8c0.2,0,0.3,0.5,0.4,1.6c0.1,1.1,0.2,1.6,0.4,1.6c-0.2,0,0.7-0.6,2.6-1.7c1.9-1.1,3.6-1.7,5.1-1.7
		c2.1,0,3.8,0.5,5.2,1.5c1.5,1.1,2.3,2.7,2.3,4.7v7.8c0,1.1,0,2.6,0,4.7C240.1,52.1,240.1,53.7,240.1,54.8z"/>
</g>
<g id="XMLID_164_">
	<circle id="XMLID_169_" class="st1" cx="409.8" cy="45.5" r="17"/>
	<ellipse id="XMLID_157_" class="st1" cx="403.4" cy="63.9" rx="5.6" ry="2"/>
	<circle id="XMLID_159_" class="st1" cx="431.7" cy="54.2" r="9.1"/>
	<circle id="XMLID_184_" class="st1" cx="329.6" cy="43.9" r="17"/>
	<circle id="XMLID_158_" class="st1" cx="384.6" cy="38.2" r="9.1"/>
	<rect id="XMLID_201_" x="231.5" y="65.1" class="st2" width="216.5" height="0.4"/>
	<path id="XMLID_200_" class="st3" d="M415.3,151c-3.1,4.1,0.5,11.9,0.5,11.9s8.5,1.3,11.6-2.7c3.1-4.1-0.5-11.9-0.5-11.9
		S418.3,146.9,415.3,151z"/>
	<path id="XMLID_155_" class="st2" d="M303.8,16.7c-7-7.4-22.4-4.5-22.5-4.5l-0.1-0.4c0.2,0,15.8-3,22.9,4.6L303.8,16.7z"/>
	<path id="XMLID_154_" class="st4" d="M305.6,18.7c-1.1-0.7-2.7-1.5-4-1.7l2.2-0.7l1.2-1.9C304.9,15.7,305.2,17.4,305.6,18.7z"/>
	<path id="XMLID_153_" class="st4" d="M374,28.8c-7-7.4-22.4-4.5-22.5-4.5l-0.1-0.4c0.2,0,15.8-3,22.9,4.6L374,28.8z"/>
	<path id="XMLID_152_" class="st2" d="M375.7,30.8c-1.1-0.7-2.7-1.5-4-1.7l2.2-0.7l1.2-1.9C375,27.8,375.3,29.5,375.7,30.8z"/>
	<path id="XMLID_151_" class="st5" d="M375.2,48.4c0,0-4.7,0-5.3,2.9c-0.5,2.9-1.3,34.4-0.8,38.4c0.5,3.9,0.5,3.2,0.5,3.2
		s-1,7.5,1.3,7.8c2.4,0.3,2.4-8.6,2.4-8.6l1.8-32.1V48.4H375.2z"/>
	<path id="XMLID_150_" class="st5" d="M395.7,48.4c0,0,4.7,0,5.3,2.9c0.5,2.9,1.3,34.4,0.8,38.4c-0.5,3.9-0.5,3.2-0.5,3.2
		s1,7.5-1.3,7.8c-2.4,0.3-2.4-8.6-2.4-8.6L395.8,60V48.4H395.7z"/>
	<path id="XMLID_149_" class="st6" d="M374.4,158.2h-2.1c-2.6,0-4.7,2.1-4.7,4.7l0,0l0,0h12.9v-6h-6L374.4,158.2L374.4,158.2z"/>
	<path id="XMLID_148_" class="st6" d="M394.6,158.2h2.1c2.6,0,4.7,2.1,4.7,4.7l0,0l0,0h-12.9v-6h6L394.6,158.2L394.6,158.2z"/>
	<circle id="XMLID_147_" class="st5" cx="383.3" cy="35.5" r="6.8"/>
	<path id="XMLID_146_" class="st5" d="M381.8,39.2c0,0-0.8,8.7-1.8,9.5s11-0.5,11-0.5s-4.2-6.3-3.4-8.4S381.8,39.2,381.8,39.2z"/>
	<path id="XMLID_145_" class="st3" d="M397.3,48.4c0,0-14.5-6-23.9,0c0,0-2.4,6-0.5,9.5c1.8,3.4,4.7,11.6,1.8,17.1
		c-2.9,5.5,0.3,3.2,0.3,3.2s-3.7,14.7-4.2,26.3s1.6,53.1,3.2,53.3s6.6,0.8,7.1,0s4.2-55.7,4.2-55.7s1.6,56.2,3.2,56.2s5.8,0,6.6-1.3
		c0.8-1.3,7.4-52,5-62.5S396,78.6,396,78.6s2.9-1.8,2.1-2.9s-4.7-12.4-2.9-14.2C397,59.7,397.3,48.4,397.3,48.4z"/>
	<circle id="XMLID_144_" class="st6" cx="387.7" cy="31.4" r="11"/>
	<path id="XMLID_143_" class="st6" d="M394.6,25.9c-3.9-0.9-6.3-4.7-5.6-8.6c0,0.1-0.1,0.2-0.1,0.3c-0.9,4,1.5,8,5.5,8.9
		s8-1.5,8.9-5.5c0-0.1,0.1-0.2,0.1-0.3C402.3,24.5,398.4,26.8,394.6,25.9z"/>
	<circle id="XMLID_142_" class="st6" cx="395" cy="21.9" r="5.4"/>
	<rect id="XMLID_140_" x="330.7" y="162.5" class="st7" width="96.9" height="0.4"/>
	<circle id="XMLID_203_" class="st1" cx="253.5" cy="44.4" r="17"/>
	<circle id="XMLID_170_" class="st1" cx="276.9" cy="32.6" r="9.1"/>
	<circle id="XMLID_185_" class="st1" cx="230.5" cy="32.4" r="9.1"/>
	<circle id="XMLID_188_" class="st1" cx="304" cy="36.5" r="9.1"/>
	<circle id="XMLID_173_" class="st1" cx="355.2" cy="52.9" r="9.1"/>
	<circle id="XMLID_160_" class="st1" cx="413.5" cy="17.7" r="10.7"/>
	<circle id="XMLID_161_" class="st1" cx="333.4" cy="15.9" r="10.9"/>
	<ellipse id="XMLID_174_" class="st1" cx="254.5" cy="17.7" rx="9.9" ry="8.4"/>
	<ellipse id="XMLID_176_" class="st8" cx="408.8" cy="17.1" rx="2.3" ry="4.5"/>
	<ellipse id="XMLID_177_" class="st8" cx="419.4" cy="16.9" rx="2.3" ry="4.5"/>
	<ellipse id="XMLID_190_" class="st8" cx="260" cy="17.1" rx="2.3" ry="4.5"/>
	<ellipse id="XMLID_189_" class="st8" cx="250.1" cy="17.5" rx="2.3" ry="4.5"/>
	<ellipse id="XMLID_198_" class="st8" cx="329.1" cy="15.5" rx="2.3" ry="4.5"/>
	<ellipse id="XMLID_191_" class="st8" cx="338.3" cy="15.2" rx="2.3" ry="4.5"/>
	<ellipse id="XMLID_162_" class="st1" cx="252.7" cy="63.7" rx="5.6" ry="2"/>
	<ellipse id="XMLID_156_" class="st1" cx="328.3" cy="63.4" rx="5.6" ry="2"/>
</g>
<g id="XMLID_81_">
	<path id="XMLID_138_" class="st9" d="M292.1,628.7c0,0-12.2,8.9-7.8,14.6c4.5,5.7,16.4,10.5,16.3,16c0,5.5-5.9,19.4-0.4,14.4
		c5.5-4.9,8.6-7.1,8.9-3.7c0.3,3.4-6.1,13.3-3.1,12.8s5.5,0.2,5.4,3.6c-0.1,3.3-5.1,10.5-3,10.5s6.5-3.3,5.9-0.1
		c-0.7,3.1-3.4,11.4-1.3,9.2"/>
	<g id="XMLID_80_">
		<path id="XMLID_137_" class="st10" d="M268.6,571.8H300c1.8,0,3.2,1.4,3.2,3.2v11.2c0,1.8-1.4,3.2-3.2,3.2h-31.4
			c-1.8,0-3.2-1.4-3.2-3.2V575C265.4,573.2,266.8,571.8,268.6,571.8z"/>
		<rect id="XMLID_136_" x="268.4" y="586.6" class="st11" width="31.8" height="0.3"/>
		<rect id="XMLID_135_" x="268.4" y="574.5" class="st12" width="31.8" height="12.1"/>
		<circle id="XMLID_134_" class="st11" cx="275.8" cy="580.8" r="4.4"/>
		<circle id="XMLID_133_" class="st11" cx="292.8" cy="580.8" r="4.4"/>
		<rect id="XMLID_132_" x="281" y="589.3" class="st10" width="6.6" height="3.8"/>
		<rect id="XMLID_131_" x="270.6" y="592.1" class="st10" width="27.4" height="21.9"/>
		<rect id="XMLID_130_" x="270" y="618.4" class="st10" width="28.5" height="2.7"/>
		<polygon id="XMLID_129_" class="st10" points="274.7,627.7 274.7,631 274.7,635.9 274.7,638.7 274.7,640.3 279.6,640.3 
			279.6,638.7 279.6,635.9 279.6,631 279.6,627.7 279.6,623.9 274.7,623.9 		"/>
		<polygon id="XMLID_128_" class="st10" points="289.5,623.9 289.5,627.7 289.5,631 289.5,635.9 289.5,638.7 289.5,640.3 
			294.4,640.3 294.4,638.7 294.4,635.9 294.4,631 294.4,627.7 294.4,623.9 		"/>
		<path id="XMLID_127_" class="st10" d="M266.8,597v5.1c-1.4,0.2-2.6,0.8-3.6,1.8c-1,0.9-1.7,2-2.2,3.2c-0.6,1.6-1,3.2-1.1,4.9
			c-0.2,2.2-0.1,4.4,0.3,6.5h-5.5c-0.2-2.6-0.2-5.3,0.1-7.9c0.3-2.2,0.9-4.3,1.8-6.2c1.6-3.3,3.8-5.1,5.8-6.1
			C263.9,597.5,265.3,597.1,266.8,597z"/>
		<rect id="XMLID_126_" x="274.7" y="623.9" class="st13" width="4.9" height="3.8"/>
		<rect id="XMLID_125_" x="274.7" y="631" class="st13" width="4.9" height="4.9"/>
		<rect id="XMLID_124_" x="274.7" y="638.7" class="st13" width="4.9" height="1.6"/>
		<rect id="XMLID_123_" x="289.5" y="623.9" class="st13" width="4.9" height="3.8"/>
		<rect id="XMLID_122_" x="289.5" y="631" class="st13" width="4.9" height="4.9"/>
		<rect id="XMLID_121_" x="289.5" y="638.7" class="st13" width="4.9" height="1.6"/>
		<path id="XMLID_120_" class="st13" d="M266.8,597v5.1c-1.4,0.2-2.6,0.8-3.6,1.8l-0.7-5.7C263.9,597.5,265.3,597.1,266.8,597z"/>
		<path id="XMLID_119_" class="st13" d="M261,607c-0.6,1.6-1,3.2-1.1,4.9l-5-1.3c0.3-2.2,0.9-4.3,1.8-6.2L261,607z"/>
		<path id="XMLID_118_" class="st10" d="M301.7,597v5.1c1.4,0.2,2.6,0.8,3.6,1.8c1,0.9,1.7,2,2.2,3.2c0.6,1.6,1,3.2,1.1,4.9
			c0.2,2.2,0.1,4.4-0.3,6.5h5.5c0.2-2.6,0.2-5.3-0.1-7.9c-0.3-2.2-0.9-4.3-1.8-6.2c-1.6-3.3-3.8-5.1-5.8-6.1
			C304.7,597.5,303.2,597.1,301.7,597z"/>
		<path id="XMLID_117_" class="st13" d="M301.7,597v5.1c1.4,0.2,2.6,0.8,3.6,1.8l0.7-5.7C304.7,597.5,303.2,597.1,301.7,597z"/>
		<path id="XMLID_116_" class="st13" d="M307.6,607c0.6,1.6,1,3.2,1.1,4.9l5-1.3c-0.3-2.2-0.9-4.3-1.8-6.2L307.6,607z"/>
		<rect id="XMLID_115_" x="281" y="589.3" class="st11" width="6.6" height="0.5"/>
		<path id="XMLID_114_" class="st11" d="M298.5,596v9.2c-0.3-0.4-0.5-0.8-0.5-1.3v-6.6C298,596.8,298.2,596.3,298.5,596z"/>
		<path id="XMLID_113_" class="st11" d="M270.7,596.6v6.9c0,0.4-0.2,0.8-0.5,1.2v-9.2C270.5,595.7,270.6,596.1,270.7,596.6z"/>
		<rect id="XMLID_112_" x="272" y="614" class="st11" width="24.7" height="0.3"/>
		<rect id="XMLID_111_" x="271.4" y="621.1" class="st11" width="12.1" height="0.3"/>
		<rect id="XMLID_110_" x="284.6" y="621.1" class="st11" width="12.1" height="0.3"/>
		<rect id="XMLID_109_" x="272.7" y="555.5" class="st10" width="1.9" height="16.2"/>
		<rect id="XMLID_108_" x="294.4" y="555.5" class="st10" width="1.9" height="16.2"/>
	</g>
	<path id="XMLID_103_" class="st14" d="M281.6,671.5c0.6,1,1.6,1.6,2.6,2.1c2.7,1.7,4.8,4.4,6,7.7c0.9,2.4,1.7,5.5,4,5.7
		c0.6,0,1.1-0.1,1.7,0c2.4,0.3,2.5,4.2,4.1,6.1c1.2,1.4,3.1,1.7,4.9,1.9c2.2,0.2,4.5,0.5,6.5-0.8c0.5-0.3,1.1-0.8,1.6-0.9
		c1.3-0.4,2.6,0.7,3.9,0.3c1.8-0.4,2.6-3.1,2.1-5c-0.6-1.9-2-3.1-3.4-4.3c-3.7-3.2-7.3-6.7-9.2-11.6c-1.9-4.7-2.5-10.8-6.7-12.8
		c-1.8-0.8-4-0.7-5.3-2.3c-0.6-0.7-0.9-1.8-1.5-2.5c-1.7-2.4-5.2-2-7.5,0C281.9,658.3,279.3,667.2,281.6,671.5z"/>
	
		<linearGradient id="XMLID_14_" gradientUnits="userSpaceOnUse" x1="406.9141" y1="766.5668" x2="406.9141" y2="669.8379" gradientTransform="matrix(1 0 0 1 -37.6617 -63.366)">
		<stop  offset="0" style="stop-color:#818181;stop-opacity:0.25"/>
		<stop  offset="0.5351" style="stop-color:#818181;stop-opacity:0.12"/>
		<stop  offset="1" style="stop-color:#818181;stop-opacity:0.1"/>
	</linearGradient>
	<path id="XMLID_175_" class="st15" d="M415.7,667.8c-0.6-3.3-1-6.7-1.1-10.1l0,0c-0.2-5.7-4.1-10.7-9.5-12.4c-1-0.3-2-0.6-3.2-0.8
		c-10.4-2.2-13.5-0.3-13.9,0c-0.3-0.6-0.6-1.1-0.8-1.7c0-0.1,0-0.1-0.1-0.2c2.1-2.2,3.3-5,3.5-8c1.7-1.8,2.7-3.9,2.7-6.2
		c0-2-0.7-3.8-2.1-5.4v-3.1c0-7.4-6-13.5-13.5-13.5l0,0h-1.1c-7.4,0-13.5,6-13.5,13.5l0,0v3.3c-1.2,1.5-1.8,3.3-1.9,5.1
		c0,2.2,1,4.3,2.6,6c0.2,3.1,1.5,6,3.7,8.3c0.1,0.5,0.1,1.1,0.2,1.6l-18.6,3.9c0,0-7.2,0.3-11.8,9.8c-3.9,8.1-11.7,28.8-14,34.9l0,0
		l0,0c-0.4,1.1-0.7,1.8-0.7,1.8s0.1-0.1,0.2-0.2c-0.1,0.4-0.2,0.6-0.2,0.6s0.1-0.1,0.3-0.3c-0.3,2.6-0.4,7,3,7.6
		c2.8,0.5,10.1,0.7,15.6,0.7l0,0h0.4c3.7,0,6.4,0,6.4,0l0,0h59.3v-0.6c0-0.6-0.1-1.1-0.3-1.6l0.1-0.1c0.3,0.4,0.5,0.9,0.6,1.4
		c0,0.1,0,0.1,0,0.2c0,0,0,0,0-0.1c0,0.2,0,0.3,0,0.5c0,0,7.6-19.6,7.5-31.3C416,670.3,416,669,415.7,667.8z M368.3,647
		c-0.1-0.6-0.2-1.1-0.2-1.7l0,0C368.2,645.9,368.3,646.4,368.3,647z M345.3,689.1v4.7l-2.9,0.6L345.3,689.1z"/>
	<path id="XMLID_76_" class="st16" d="M377.1,608.4L377.1,608.4c7.4,0,13.5,6,13.5,13.5v5.7l0,0h-27l0,0v-5.7
		C363.6,614.4,369.6,608.4,377.1,608.4z"/>
	<ellipse id="XMLID_75_" class="st17" cx="377.2" cy="629.5" rx="15.4" ry="10.6"/>
	<path id="XMLID_74_" class="st18" d="M367.3,639.7c0,0,3.2,16.8,0,21.3s9.8,6.3,9.8,6.3l13.5-4.9l1.9-12.1c0,0-8.2-4.6-6.5-13.9
		L367.3,639.7z"/>
	<path id="XMLID_73_" class="st18" d="M407.1,696.2c0,0,0.8,3.7-3.8,4.3c-2.7,0.4-5.5,0.4-8.2-0.1l-1-9.2h10.7L407.1,696.2z"/>
	<path id="XMLID_72_" class="st18" d="M325.5,691.5c0,0-2,8.3,2.6,9c4.6,0.8,21.6,0.8,21.6,0.8v-9.8l-7.7,1.6l-7.2-6.9L325.5,691.5z
		"/>
	<path id="XMLID_71_" class="st11" d="M368.3,645.1l-18,3.8c0,0-6.9,0.3-11.3,9.4c-4.4,9.1-14,35.2-14,35.2s8.2-8.3,17.8,0.6
		l6.4-11.6l-1.4,18.4h49.7v-8.7c0,0,10.4,5.6,9.6,8.7c0,0,8.9-22.9,7-33.2c-0.6-3.2-0.9-6.5-1.1-9.7l0,0c-0.2-5.5-3.9-10.3-9.2-11.9
		c-0.9-0.3-2-0.6-3.1-0.8c-10.6-2.3-13.4,0-13.4,0s-2.1,6.7-2,9.8c0,3.9-5.6,6.5-5.6,6.5s-8.3-2-8.7-3.6
		C370.6,656.4,367.6,647,368.3,645.1z"/>
	<path id="XMLID_70_" class="st19" d="M368.3,644.7l-18,3.8c0,0-6.9,0.3-11.3,9.4c-4.4,9.1-14,35.2-14,35.2s8.2-8.3,17.8,0.6
		l6.4-11.6l-1.4,18.4h49.7v-8.7c0,0,10.4,5.6,9.6,8.7c0,0,8.9-22.9,7-33.2c-0.6-3.2-0.9-6.5-1.1-9.7l0,0c-0.2-5.5-3.9-10.3-9.2-11.9
		c-0.9-0.3-2-0.6-3.1-0.8c-10.6-2.3-13.4,0-13.4,0s-2.1,6.7-2,9.8c0,3.9-5.6,6.5-5.6,6.5s-8.3-2-8.7-3.6
		C370.6,656,367.6,646.6,368.3,644.7z"/>
	<path id="XMLID_69_" class="st11" d="M386.7,643.9c-0.8-2.1-0.9-4.5-0.5-6.7l-18.7,3.3c0,0,0.3,1.4,0.6,3.5
		c4.9,5.1,13,5.2,18.1,0.3C386.4,644.2,386.6,644.1,386.7,643.9L386.7,643.9z"/>
	<path id="XMLID_68_" class="st18" d="M389.9,634.3c0,7.1-5.7,12.8-12.8,12.8c-7,0-12.6-5.5-12.8-12.5c0-0.1,0-0.2,0-0.3
		c0-4.9,2.8-9.4,7.2-11.5c0.4-0.2,0.8-0.4,1.2-0.5c2.1-0.8,4.4-1,6.6-0.6l0,0c5.8,1,10.2,5.9,10.6,11.8
		C389.9,633.7,389.9,634,389.9,634.3z"/>
	<g id="XMLID_163_" class="st20">
		<path id="XMLID_67_" class="st21" d="M372.6,622.6C372.7,622.6,372.7,622.6,372.6,622.6c-0.4,0.1-0.8,0.3-1.2,0.5
			c-4.4,2.2-7.2,6.6-7.2,11.5c0,0.1,0,0.2,0,0.3c0.4,0,0.8-0.1,1.1-0.3c3.1-1.5,5-5.9,5.7-9C371.4,624.5,371.7,623.2,372.6,622.6z"
			/>
		<path id="XMLID_66_" class="st21" d="M382.5,623c-1-0.5-2.1-0.8-3.2-1c0.9,0.2,1.7,0.7,2.3,1.4c0.3,0.4,0.5,0.8,0.7,1.2
			c-3.5-1.5-7.4-1.4-10.8,0.2c0.8,1.8,3.3,2.7,5,3.4c1.8,0.7,3.7,1.3,5.5,1.9c-0.5-0.4-1.1-0.9-1.6-1.3c1.2,0.2,2.5,0.4,3.7,0.6
			c0-0.7,0-1.5-0.3-2.2c0.7,0.6,1.7,0.8,2.4,1.3c1.5,0.9,2.1,2.7,2.8,4.2c0.2,0.4,0.5,0.8,0.8,1.1
			C389.6,629.1,386.7,624.9,382.5,623z"/>
	</g>
	<path id="XMLID_65_" class="st22" d="M372.6,622.3C372.7,622.3,372.7,622.3,372.6,622.3c-0.4,0.1-0.8,0.3-1.2,0.5
		c-4.4,2.2-7.2,6.6-7.2,11.5c0,0.1,0,0.2,0,0.3c0.4,0,0.8-0.1,1.1-0.3c3.1-1.5,5-5.9,5.7-9C371.4,624.2,371.7,623,372.6,622.3z"/>
	<path id="XMLID_64_" class="st22" d="M382.5,622.7c-1-0.5-2.1-0.8-3.2-1c0.9,0.2,1.7,0.7,2.3,1.4c0.3,0.4,0.5,0.8,0.7,1.2
		c-3.5-1.5-7.4-1.4-10.8,0.2c0.8,1.8,3.3,2.7,5,3.4c1.8,0.7,3.7,1.3,5.5,1.9c-0.5-0.4-1.1-0.9-1.6-1.3c1.2,0.2,2.5,0.4,3.7,0.6
		c0-0.7,0-1.5-0.3-2.2c0.7,0.6,1.7,0.8,2.4,1.3c1.5,0.9,2.1,2.7,2.8,4.2c0.2,0.4,0.5,0.8,0.8,1.1
		C389.6,628.8,386.7,624.6,382.5,622.7z"/>
	<path id="XMLID_63_" class="st11" d="M362.8,632.2c0,0,13.2-16.4,28.5,0l-1.3-3.7c0,0-7.2-10.5-12.3-8.2
		c-5.1,2.3-10.1,3.9-10.1,3.9L362.8,632.2z"/>
	<path id="XMLID_62_" class="st16" d="M362.8,631.9c0,0,13.2-16.4,28.5,0l-1.3-3.7c0,0-7.2-10.5-12.3-8.2s-10.1,3.9-10.1,3.9
		L362.8,631.9z"/>
	<path id="XMLID_61_" class="st11" d="M352,667.3c0,0-2.8,7.5,1.1,14.3c4,6.8-3.5,9.6-3.5,9.6"/>
	<path id="XMLID_60_" class="st11" d="M397.8,660.5c0,0,4.9,6.2,1.7,11.8c-3.2,5.6-3,18.9-3,18.9"/>
	<path id="XMLID_59_" class="st23" d="M347.7,696.7h54.5c2.5,0,4.5,2,4.5,4.5l0,0l0,0h-63.5l0,0l0,0
		C343.1,698.8,345.2,696.7,347.7,696.7L347.7,696.7z"/>
	<path id="XMLID_58_" class="st23" d="M355.9,665.6H394c5.3,0,9.6,4.3,9.6,9.6v22.5l0,0h-57.3l0,0v-22.5
		C346.3,670,350.6,665.6,355.9,665.6L355.9,665.6z"/>
	<circle id="XMLID_56_" class="st24" cx="374.9" cy="683.1" r="3.4"/>
	<path id="XMLID_55_" class="st25" d="M363.6,624.5c0,0,13-13,27-0.2"/>
	<rect id="XMLID_54_" x="392.5" y="623.7" class="st26" width="1.3" height="7.4"/>
	<path id="XMLID_53_" class="st27" d="M390.8,628.5L390.8,628.5c2.5,0,4.5,2,4.5,4.5l0,0v0.3c0,2.5-2,4.5-4.5,4.5l0,0l0,0l0,0V628.5
		L390.8,628.5z"/>
	<path id="XMLID_52_" class="st26" d="M390.9,628L390.9,628c0.6,0,1,0.5,1,1v8.1c0,0.6-0.5,1-1,1l0,0c-0.6,0-1-0.5-1-1V629
		C389.9,628.5,390.4,628,390.9,628z"/>
	<rect id="XMLID_51_" x="360.2" y="623.8" class="st26" width="1.3" height="7.4"/>
	<path id="XMLID_50_" class="st27" d="M363.2,637.9L363.2,637.9c-2.5,0-4.5-2-4.5-4.5l0,0v-0.3c0-2.5,2-4.5,4.5-4.5l0,0l0,0l0,0
		V637.9L363.2,637.9z"/>
	<path id="XMLID_49_" class="st26" d="M363.1,638.3L363.1,638.3c-0.6,0-1-0.5-1-1v-8.1c0-0.6,0.5-1,1-1l0,0c0.6,0,1,0.5,1,1v8.1
		C364.1,637.9,363.6,638.3,363.1,638.3z"/>
	<path id="XMLID_48_" class="st27" d="M392.4,615.8c-1.8-3.7-5.6-8.1-13.9-8.5l0,0h-0.1l0,0l0,0l-2.9,0.1l0,0
		c-8.2,0.4-12,4.8-13.8,8.4c-1.2,2.5-1.8,5.2-1.8,7.9h1h1c0-2.4,0.6-4.8,1.6-7c2.2-4.6,6.3-7,12.2-7.2l0,0l2.6-0.1l0,0
		c5.9,0.2,10,2.7,12.2,7.2c1,2.2,1.6,4.6,1.6,7h1h1C394.1,621,393.5,618.3,392.4,615.8z"/>
	<rect id="XMLID_47_" x="300.5" y="701.3" class="st28" width="138.1" height="37.1"/>
	<rect id="XMLID_46_" x="300.5" y="703.8" class="st11" width="138.1" height="4.8"/>
	<rect id="XMLID_45_" x="291.2" y="700.8" class="st28" width="156.7" height="4.8"/>
	<path id="XMLID_44_" class="st9" d="M398.5,688.8c0,0,5.9,10.8,20.7,7.9c14.8-2.9,7.6,27.3,7.6,27.3s-2.4,14.5-0.7,14.4"/>
</g>
<g id="XMLID_1_">
	<path id="XMLID_43_" class="st29" d="M248.2,995.1v-10.9h-1.8v10.9c-1.2,0.5-1.8,1.8-1.3,2.9c0.5,1.2,1.9,1.7,3,1.3
		c1.2-0.5,1.8-1.8,1.3-2.9C249.2,995.8,248.8,995.3,248.2,995.1z"/>
	<path id="XMLID_42_" class="st29" d="M252.3,1105.4h-12v-141h-4.7v141h-12c-6,0-10.8,4.7-10.8,10.5l0,0l0,0h50.3l0,0
		C263.1,1110.1,258.3,1105.4,252.3,1105.4L252.3,1105.4z"/>
	<path id="XMLID_41_" class="st30" d="M212.8,985.3h50.3l-3.1-37.2c-0.2-2.7-2.5-4.7-5.3-4.7h-33.6c-2.8,0-5,2.1-5.3,4.7
		L212.8,985.3z"/>
	<path id="XMLID_40_" class="st31" d="M13.5,1073H167v-15.2c0-40.9-34.4-74.3-76.8-74.3s-76.8,33.3-76.8,74.3v15.2H13.5z"/>
	<path id="XMLID_39_" class="st32" d="M13.5,1073H167v-15.2c0-40.9-34.4-74.3-76.8-74.3s-76.8,33.3-76.8,74.3v15.2H13.5z"/>
	<path id="XMLID_38_" class="st30" d="M33.4,1078.2h118.1c-0.2-12.5-10.8-22.5-23.7-22.5H57.2C44.2,1055.7,33.7,1065.7,33.4,1078.2z
		"/>
	<ellipse id="XMLID_37_" class="st33" cx="19.4" cy="1052.9" rx="23.7" ry="22.9"/>
	<ellipse id="XMLID_36_" class="st33" cx="163.2" cy="1052.9" rx="23.7" ry="22.9"/>
	<path id="XMLID_35_" class="st33" d="M145.4,1064.6v8.6H35.9v-8.6H11.3v41.7c0,5.3,4.5,9.6,10,9.6l0,0h138.6c5.5,0,10-4.3,10-9.6
		l0,0v-41.7H145.4z"/>
	<ellipse id="XMLID_34_" class="st34" cx="19.4" cy="1052.9" rx="4.8" ry="4.7"/>
	<ellipse id="XMLID_33_" class="st34" cx="163.2" cy="1052.9" rx="4.8" ry="4.7"/>
	<path id="XMLID_32_" class="st35" d="M99,980.9c0,0,0.5,8.7,3.8,10.5s0,14.2,0,14.2l-15.6,0.5l-0.9-14.7c0,0,1.9-6,0.9-8.7
		C86.2,980,99,980.9,99,980.9z"/>
	<polygon id="XMLID_31_" class="st35" points="116.6,1102 110.9,1108.4 119.9,1116.7 124.6,1107.5 	"/>
	<polygon id="XMLID_30_" class="st35" points="76.3,1102 82,1108.4 73,1116.7 68.2,1107.5 	"/>
	<path id="XMLID_29_" class="st6" d="M113.5,1041.2c0,0,34.1,11,32.2,21.6c-1.9,10.5-16.6,47.7-16.6,47.7s-8.1,0-14.2-8.3l4.3-9.2
		c0,0-1.9-5,1.4-6c3.3-0.9,5.2-17,5.2-17s-24.2-1.8-29.4-10.5l-9.5-22L113.5,1041.2z"/>
	<path id="XMLID_28_" class="st6" d="M79.4,1041.2c0,0-34.1,11-32.2,21.6s16.6,47.7,16.6,47.7s8.1,0,14.2-8.3l-4.3-9.2
		c0,0,1.9-5-1.4-6s-5.2-17-5.2-17s24.2-1.8,29.4-10.5l9.5-22L79.4,1041.2z"/>
	<path id="XMLID_27_" class="st6" d="M118.2,1113.2c0,0,4.7-4.1,5.2-0.9s-0.5,16.1-0.5,16.1s4.7,9.6-2.4,9.6s-10.4-7.3-9.5-14.7
		c0.9-7.3-3.3-10.1-3.3-10.1s-5.2-10.1,0-11s7.1,1.4,7.1,1.4S113,1111.9,118.2,1113.2z"/>
	<path id="XMLID_26_" class="st6" d="M74.6,1113.2c0,0-4.7-4.1-5.2-0.9s0.5,16.1,0.5,16.1s-4.7,9.6,2.4,9.6s10.4-7.3,9.5-14.7
		c-0.9-7.3,3.3-10.1,3.3-10.1s5.2-10.1,0-11s-7.1,1.4-7.1,1.4S79.8,1111.9,74.6,1113.2z"/>
	<ellipse id="XMLID_25_" class="st35" cx="91.7" cy="975.6" rx="10.9" ry="10.5"/>
	<path id="XMLID_24_" class="st36" d="M93.4,993.8l-6.6-5l-16.1,7.3l-0.5,41.7c0,0-10,4.6-7.1,10.5c0,0,8.5,1.8,12.3,5.5
		c3.8,3.7,25.1-1.4,34.1-4.1c9-2.8,11.4-6,11.4-6l-9-12.4l5.2-31.6L101,989.2L93.4,993.8z"/>
	<path id="XMLID_23_" class="st6" d="M104.9,968.5c-0.2-0.3-0.5-0.6-0.7-1c-0.3-0.8,0.2-1.7-0.3-2.5s-1.8-0.9-2.7-1.4
		c-1.4-0.8-1.6-2.4-2.9-3.2c-0.9-0.6-2.2-0.8-3.4-0.8s-2.4,0.2-3.7,0.3c-1.7,0-3.3-0.3-4.8-0.9l0.9,1.7c-1-0.2-2-0.6-2.8-1.1
		c-0.4,0.5,0.3,1.2-0.1,1.7c-0.2,0.1-0.4,0.2-0.6,0.3c-1.7,0.5-3.4,1.3-4.8,2.3c-0.3,0.2-0.6,0.5-0.8,0.8c-0.2,0.5,0,1.1,0,1.6
		c0,1-0.8,1.8-1.3,2.7s-0.8,2,0,2.8c0.2,0.2,0.4,0.3,0.6,0.5c0.8,0.9-0.6,2.3,0.1,3.3c0.3,0.4,0.9,0.6,1.5,0.9
		c1,0.5,1.9,1.2,2.5,2.1l-0.4-3c0-0.1,0-0.3,0.1-0.4c0.2-0.2,0.6-0.1,0.9-0.3c0.3-0.1,0.3-0.5,0.3-0.8l-0.1-2.1c0-1-0.1-1.1,0.7-1.9
		c0.5-0.5,1.3-0.9,2.1-1.1c1.9-0.6,3.8-0.7,5.8-0.9c2.3-0.2,4.9-1.3,6.6-0.2c1.5,0.9,1.9,2.5,2.6,3.8c0.6,1.2,2.2,4.8,3.6,2.9
		C104.5,973.3,105.8,969.8,104.9,968.5z"/>
	<path id="XMLID_22_" class="st31" d="M93.6,972.6c-0.1,0-0.2,0.1-0.2,0.2v4.4c0,0.1,0.1,0.2,0.2,0.2h7.9c0.1,0,0.2-0.1,0.2-0.2
		v-4.4c0-0.1-0.1-0.2-0.2-0.2H93.6z"/>
	<path id="XMLID_21_" class="st37" d="M94.4,973c-0.2,0-0.3,0.1-0.3,0.3v3.4c0,0.2,0.1,0.3,0.3,0.3h6.1c0.2,0,0.3-0.1,0.3-0.3v-3.4
		c0-0.2-0.1-0.3-0.3-0.3H94.4z"/>
	<rect id="XMLID_20_" x="89.6" y="974" class="st31" width="4.1" height="0.9"/>
	<path id="XMLID_19_" class="st31" d="M82.4,972.6c-0.1,0-0.2,0.1-0.2,0.2v4.4c0,0.1,0.1,0.2,0.2,0.2h7.9c0.1,0,0.2-0.1,0.2-0.2
		v-4.4c0-0.1-0.1-0.2-0.2-0.2H82.4z"/>
	<path id="XMLID_18_" class="st38" d="M83.3,973c-0.2,0-0.3,0.1-0.3,0.3v3.4c0,0.2,0.1,0.3,0.3,0.3h6.1c0.2,0,0.3-0.1,0.3-0.3v-3.4
		c0-0.2-0.1-0.3-0.3-0.3H83.3z"/>
	<path id="XMLID_17_" class="st31" d="M78.1,1027.7h27.2c2.3,0,4.1,1.8,4.1,4l0,0l0,0H74l0,0l0,0C74,1029.5,75.9,1027.7,78.1,1027.7
		z"/>
	<path id="XMLID_57_" class="st39" d="M107.3,1027.4c-0.2,0-0.3,0-0.5,0.1c-0.1-0.5-0.6-0.7-1.1-0.6c-0.4,0.1-0.7,0.4-0.7,0.8l0,0
		c-0.1,0-0.2,0-0.3,0.1c-0.1-0.2-0.2-0.4-0.4-0.5c0.3-0.2,0.5-0.4,0.6-0.7c0.6,0.1,1.2-0.4,1.3-1c0.1-0.6-0.4-1.2-1.1-1.2
		c-0.1,0-0.2,0-0.3,0c-0.2,0-0.3,0-0.5,0.1c-0.1-0.5-0.6-0.7-1.1-0.6c-0.5,0.1-0.8,0.6-0.7,1c0,0,0,0,0,0.1l-0.1,0.1
		c-0.2-0.1-0.4-0.2-0.6-0.2c-0.3-0.7-1.1-1.1-1.9-0.9c-0.6,0.2-1,0.7-1,1.3c-0.1,0-0.2,0-0.3,0.1c0,0,0-0.1-0.1-0.1
		c0.2-0.2,0.4-0.5,0.4-0.8c0-0.7-0.6-1.2-1.3-1.1c-0.2,0-0.3,0-0.5,0.1c-0.1-0.5-0.6-0.7-1.1-0.6c-0.5,0.1-0.8,0.6-0.7,1
		c0,0,0,0,0,0.1c-0.4,0.3-0.6,0.7-0.6,1.1l0,0c0-0.1,0-0.2,0-0.2c0-0.7-0.6-1.2-1.3-1.1c-0.2,0-0.3,0-0.5,0.1
		c-0.1-0.5-0.6-0.7-1.1-0.6c-0.5,0.1-0.8,0.6-0.7,1c0,0,0,0,0,0.1c-0.7,0.4-0.8,1.3-0.4,2c0.1,0.1,0.2,0.3,0.4,0.4
		c-0.1,0.2-0.1,0.3,0,0.5c-0.1,0.1-0.3,0.2-0.4,0.4c-0.1-0.4-0.6-0.7-1.1-0.6c-0.3,0.1-0.6,0.4-0.6,0.7c-0.1-0.1-0.2-0.1-0.4-0.1
		c0.2-0.2,0.4-0.4,0.5-0.6c0.6,0.1,1.2-0.4,1.3-1c0.1-0.6-0.4-1.2-1.1-1.2c-0.1,0-0.2,0-0.3,0c-0.2,0-0.3,0-0.5,0.1
		c-0.1-0.5-0.6-0.7-1.1-0.6c-0.5,0.1-0.8,0.6-0.7,1c0,0,0,0,0,0.1c0,0,0,0-0.1,0h-0.1c-0.2,0-0.3,0-0.5,0.1c0,0,0,0,0-0.1
		c0.1-0.5-0.2-0.9-0.7-1c-0.1,0-0.2,0-0.2,0c-0.3-0.7-1.1-1.1-1.9-0.9s-1.2,1.1-0.9,1.8c0.1,0.2,0.2,0.5,0.5,0.6
		c-0.1,0-0.2,0-0.3,0.1c-0.1-0.5-0.6-0.7-1.1-0.6c-0.1,0-0.2,0.1-0.3,0.2c-0.3-0.3-0.7-0.5-1.1-0.5c-0.2,0-0.3,0-0.5,0.1
		c-0.1-0.5-0.6-0.7-1.1-0.6c-0.5,0.1-0.8,0.6-0.7,1c0,0,0,0,0,0.1c-0.4,0.3-0.6,0.7-0.6,1.2l0,0c-0.2,0-0.4,0-0.6,0.1
		c-0.1-0.5-0.6-0.7-1.1-0.6s-0.8,0.6-0.7,1c0,0,0,0,0,0.1c-0.7,0.4-0.8,1.3-0.4,2c0.3,0.5,1,0.7,1.5,0.6c0.1,0.8,0.9,1.3,1.7,1.1
		c0.5-0.1,0.9-0.4,1.1-0.8c1.1,0.1,2.1,0.1,3.2-0.1c0.3,0.7,1.1,1.1,1.9,0.9c0.4-0.1,0.7-0.4,0.9-0.8c0.2,0,0.4-0.1,0.6-0.1
		c0.4,0.7,1.3,0.9,2,0.5c0.3-0.2,0.5-0.4,0.6-0.7c0.7-0.1,1.3,0.2,1.6,0.9c0.4-0.5,1-0.9,1.7-0.9c0.6,0.2,1.2-0.1,1.6-0.6
		c-0.2,0.8,0.3,1.5,1.1,1.7c0.7,0.2,1.4-0.2,1.7-0.8c0.2,0,0.4-0.1,0.6-0.1c0.4,0.7,1.3,0.9,2,0.5c0.3-0.2,0.5-0.4,0.6-0.7
		c0.2,0,0.4-0.1,0.6-0.1c0.4,0.7,1.3,0.9,2,0.5c0.1,0,0.1-0.1,0.2-0.1c0.1,0.8,0.9,1.3,1.7,1.1c0.4-0.1,0.7-0.3,0.9-0.6
		c0.6,0.5,1.5,0.4,2-0.3c0.1-0.1,0.1-0.2,0.2-0.3c0.6,0.1,1.2-0.4,1.3-1c0.1-0.6-0.4-1.2-1.1-1.2
		C107.4,1027.4,107.3,1027.4,107.3,1027.4L107.3,1027.4z M81.1,1026.8C81.1,1026.9,81.1,1026.9,81.1,1026.8
		C81.1,1026.9,81.1,1026.9,81.1,1026.8c-0.1,0-0.1,0-0.2,0l0,0C81,1026.9,81,1026.9,81.1,1026.8z M93.3,1026.4
		C93.3,1026.4,93.3,1026.3,93.3,1026.4c0.2-0.2,0.4-0.4,0.5-0.6c0.4,0,0.8-0.2,1-0.4c0,0.1,0,0.1,0,0.2c0,0.1,0,0.2,0,0.3
		c-0.3,0.2-0.4,0.4-0.5,0.7C94,1026.3,93.7,1026.3,93.3,1026.4L93.3,1026.4z M102.1,1026.5C102.1,1026.5,102.1,1026.4,102.1,1026.5
		C102.1,1026.4,102.2,1026.4,102.1,1026.5c0.2,0.1,0.3,0.3,0.4,0.4h-0.1C102.4,1026.8,102.2,1026.6,102.1,1026.5z"/>
	<path id="XMLID_12_" class="st31" d="M77,1029.1c-1.7,0-3.1,1.3-3.1,3c0,0.1,0,0.1,0,0.2l2,26.4c0.1,1.6,1.4,2.8,3.1,2.8h25.6
		c1.6,0,3-1.2,3.1-2.8l2-26.4c0.1-1.6-1.2-3-2.9-3.1c-0.1,0-0.1,0-0.2,0H77V1029.1z"/>
	<rect id="XMLID_11_" x="78.4" y="1029.1" class="st38" width="1.8" height="32.3"/>
	<rect id="XMLID_10_" x="83.4" y="1029.1" class="st38" width="1.8" height="32.3"/>
	<rect id="XMLID_9_" x="88.4" y="1029.1" class="st38" width="1.8" height="32.3"/>
	<rect id="XMLID_8_" x="93.4" y="1029.1" class="st38" width="1.8" height="32.3"/>
	<rect id="XMLID_7_" x="98.3" y="1029.1" class="st38" width="1.8" height="32.3"/>
	<rect id="XMLID_6_" x="103.3" y="1029.1" class="st38" width="1.8" height="32.3"/>
	<path id="XMLID_5_" class="st35" d="M103.3,1045.1l-5.7,3.2c0,0-13.7,11-4.3,12.8c9.4,1.8,11.9-7.8,11.9-7.8l3.3-3.7L103.3,1045.1z
		"/>
	<path id="XMLID_4_" class="st35" d="M76.3,1042.8l5.7,3.2c0,0,13.7,11,4.3,12.8c-9.4,1.8-11.9-7.8-11.9-7.8l-3.3-3.7L76.3,1042.8z"
		/>
	<path id="XMLID_3_" class="st36" d="M110.9,999.3l6.2,0.5c0,0,4.7,4.1,4.3,9.6c0,0,4.3,11.9,3.3,17c0,0,0.9,8.3-0.5,11.5
		c-1.4,3.2-13.3,15.6-13.3,15.6s-10.9-8.3-10.4-8.7l14.2-13.8l-7.1-9.2L110.9,999.3z"/>
	<path id="XMLID_2_" class="st36" d="M70.6,996.1l-0.2,0.2c0,0-10.7,4.4-10.2,9.9c0,0-4.3,11.9-3.3,17c0,0-0.9,8.3,0.5,11.5
		c1.4,3.2,13.3,15.6,13.3,15.6s10.9-8.3,10.4-8.7l-14.2-13.8l7.1-9.2L70.6,996.1z"/>
</g>
<path class="st40" d="M57,615.3c5.4-4.2,24.5-3.4,31.3-3.7c14.7-0.5,30,0.3,42.8,7.2c11.6,6.2,19.7,16.7,31.8,22.2
	c6.2,2.8,13.4,4.3,18.6,8.4c8.3,6.5,9.2,17.3,9.4,27c0.5,21.7-0.9,45.3-16.6,62.1c-13.2,14-34.5,20.5-55.2,20.6s-40.8-5.5-59.9-12.3
	c-20.3-7.3-41.4-17.3-50.4-34.8c-7.9-15.3-4.7-33.5,3.8-48.5C22.7,645.6,40,628.5,57,615.3z"/>
<path class="st40" d="M447.7,1137.9c0-56.2,0-112.4,0-168.6c0-12.2,0-24.3,0-36.5c0-3.7,1.2-11.6-1-14.6c-7.2-10-32.5,6.3-40.5,11.3
	c-9.7,6.1-18.6,13.6-26.2,22.2c-16,18.1-26.5,43.3-20,66.5c1.5,5.5,4,10.7,5.3,16.2c2.3,9.2,1.4,18.9,2.1,28.4
	c2,24.2,14.5,46.2,26.8,67.2c1.6,2.8,3.5,5.8,6.4,7.1c2,0.9,4.2,0.9,6.4,0.8C410.1,1138,447.7,1137.8,447.7,1137.9z"/>
<path class="st40" d="M73.6,8.2c5.4-3.5,24.3-2.9,31-3.1c14.6-0.4,29.8,0.3,42.5,6.1c11.5,5.2,19.6,14.1,31.5,18.7
	c6.2,2.4,13.3,3.6,18.5,7.1c8.2,5.4,9.2,14.6,9.4,22.8C207,78,205.7,97.9,190,112c-13.1,11.8-34.3,17.3-54.8,17.4
	c-20.5,0.1-40.5-4.6-59.4-10.4c-20.2-6.1-41.1-14.6-50-29.3c-7.8-12.9-4.7-28.2,3.8-40.9C39.6,33.7,56.7,19.3,73.6,8.2z"/>
<g id="XMLID_232_">
	<path id="XMLID_233_" class="st0" d="M254.9,360.5c0,0.4,0,0.9-0.1,1.7c-0.1,0.7-0.1,1.3-0.1,1.7s0,1,0,1.8c0,0.8,0,1.5,0,1.9
		s-0.3,0.6-0.8,0.6c-0.2,0-1-0.2-2.3-0.5c-1.5-0.3-4.2-0.5-8.3-0.5c-1.3,0-3.1,0.1-5.6,0.2c-2.5,0.1-4.4,0.2-5.6,0.2
		c-0.4,0-0.7-0.2-0.7-0.6c0-0.6-0.2-1.4-0.4-2.5c-0.4-1.7-0.6-2.6-0.6-2.9c0-0.4,0.7-0.6,2.1-0.8c1.6-0.2,2.6-0.5,3.1-0.9
		c1.6-1.4,3.3-3.1,5.1-5.2c2.2-2.7,3.3-4.7,3.3-6c0-1.2-0.4-2.1-1.3-2.9c-0.8-0.8-1.8-1.2-3-1.2c-1.3,0-2.6,0.3-3.9,0.8
		c-0.9,0.3-1.8,0.8-2.7,1.4c-0.8,0.5-1.2,0.8-1.3,0.8c-0.6,0-0.8-0.7-0.8-2c0-1,0-1.7-0.1-2.2c0-0.2-0.2-0.7-0.4-1.3s-0.3-1-0.3-1.3
		c0-0.2,0.1-0.4,0.4-0.6c1.4-1,3.2-1.7,5.4-2.3c2-0.5,4-0.7,5.9-0.7c3.1,0,5.7,0.7,7.8,2.1c2.5,1.6,3.7,3.9,3.7,6.8
		c0,3.9-3,8.5-8.9,13.7c4.2-0.2,7.5-0.3,9.9-0.3C254.7,359.6,254.9,359.9,254.9,360.5z"/>
	<path id="XMLID_235_" class="st0" d="M289.5,350.2c0,4.8-1.5,8.9-4.6,12.5c-2.7,3.1-6.5,4.8-11.5,5c-0.9,0-3.5,0-7.8,0
		c-0.8,0-2,0-3.6-0.1c-1.6,0-2.8-0.1-3.6-0.1c-0.5,0-0.7-0.2-0.7-0.6c0-1.8,0.1-4.5,0.2-8.1s0.2-6.3,0.2-8.1c0-1.9-0.1-4.7-0.2-8.4
		c-0.1-3.7-0.2-6.5-0.2-8.4c0-0.3,0.2-0.5,0.7-0.6c1.2-0.1,3.1-0.2,5.7-0.2c5,0,8.3,0.1,9.7,0.2c3.9,0.4,6.9,1.4,9.1,2.9
		c2.1,1.5,3.7,3.5,4.9,6.2C288.9,345,289.5,347.5,289.5,350.2z M280.1,350.2c0-2.8-0.8-5-2.5-6.7c-1.7-1.8-3.9-2.7-6.6-2.7
		c-2.5,0-3.8,0.3-3.8,1c0,1,0,2.4,0,4.3s0,3.4,0,4.3c0,0.9,0,2.4,0,4.3s0,3.3,0,4.3c0,0.7,1.3,1,3.9,1c2.8,0,5-0.9,6.6-2.8
		C279.4,355.4,280.1,353.1,280.1,350.2z"/>
	<path id="XMLID_238_" class="st0" d="M331.5,332.8c0-0.4-0.1,0.2-0.2,1.6c-0.2,1.8-0.3,4.1-0.4,6.9c-0.1,3.2-0.2,6.8-0.2,10.9
		c0,6.7,0.2,11.5,0.6,14.4c0,0.3,0,0.5,0,0.6c0,0.2-0.1,0.3-0.4,0.3c-0.6,0.1-2.7,0.1-6.5,0.1c-0.9,0-1.4-0.2-1.5-0.5
		c0-0.6-0.1-1.2-0.1-1.9c0-0.1-0.1-0.3-0.2-0.4c-0.1,0-0.2,0.1-0.4,0.3c-1.8,1.7-4,2.6-6.6,2.6c-3.4,0-6.2-1.2-8.3-3.6
		c-2-2.3-3-5.2-3-8.7s1-6.5,2.9-8.8c2.1-2.4,4.8-3.7,8.3-3.7c2.5,0,4.4,0.8,5.7,2.3c0.2,0.3,0.4,0.4,0.5,0.4s0.2-0.2,0.2-0.6
		c0-1.3,0-3.1-0.1-5.6s-0.1-4.4-0.1-5.6c0-0.5,0.1-0.7,0.4-0.8c1,0,2.5-0.1,4.3-0.3c3.3-0.4,4.7-0.6,4.3-0.6
		C331.3,332.2,331.5,332.4,331.5,332.8z M322.2,355.3c0-1.3-0.4-2.4-1.3-3.4s-2-1.5-3.2-1.5c-1.3,0-2.4,0.5-3.2,1.5
		c-0.8,1-1.2,2.1-1.2,3.5c0,1.3,0.4,2.4,1.2,3.3c0.8,1,1.9,1.5,3.2,1.5c1.3,0,2.4-0.5,3.3-1.5S322.2,356.6,322.2,355.3z"/>
	<path id="XMLID_243_" class="st0" d="M357.4,354.2c0,1.6-0.5,2.6-1.6,2.8c-0.2,0-1.9,0.2-5.1,0.5c-1.9,0.2-4.8,0.5-8.6,0.8
		c0.2,1.1,0.9,1.9,2.1,2.4c0.9,0.5,2,0.7,3.2,0.7c1.4,0,2.9-0.4,4.4-1.2c0.6-0.4,1.2-0.8,1.9-1.2c0.3,0.2,0.9,1,1.7,2.5
		c0.8,1.5,1.2,2.5,1.2,2.9c0,0.1-0.1,0.3-0.4,0.6c-2,2.1-5.1,3.2-9.3,3.2c-3.9,0-7-1.1-9.4-3.4c-2.4-2.3-3.7-5.4-3.7-9.2
		c0-3.7,1.1-6.8,3.3-9.2c2.2-2.5,5.2-3.7,8.9-3.7c3.1,0,5.8,1.1,8,3.4C356.3,348.4,357.4,351.1,357.4,354.2z M348.9,352.7
		c0-1-0.4-1.9-1.1-2.7c-0.7-0.8-1.6-1.1-2.6-1.1s-1.9,0.4-2.5,1.3c-0.6,0.8-0.9,1.7-0.9,2.8c0,0.4,0.2,0.7,0.7,0.7
		c1.2,0,3.1-0.2,5.6-0.6C348.6,353,348.9,352.9,348.9,352.7z"/>
	<path id="XMLID_252_" class="st0" d="M374.4,347.7c0,0.2-0.1,0.4-0.4,0.7c-0.5-0.1-0.9-0.2-1.4-0.2c-1,0-1.8,0.2-2.4,0.6
		c-0.8,0.5-1.2,1.2-1.2,2.1c0,0.6,0.4,1.3,1.2,2.2c1.3,1.3,2,2.2,2.3,2.7c0.8,1.2,1.2,2.6,1.2,4c0,0.8-0.2,1.7-0.5,2.6
		c-0.4,1-0.8,1.8-1.4,2.2c-1.2,1-2.6,1.9-4.2,2.6c-1.7,0.7-3.3,1.1-4.8,1.1c-0.3,0-1.1-0.9-2.2-2.6c-1.1-1.8-1.7-2.8-1.7-3.2
		c0-0.1,0.1-0.2,0.3-0.3c1.1-0.2,2.3-0.4,3.4-0.6c1.4-0.5,2.1-1.2,2.1-2.2c0-0.7-0.4-1.5-1.2-2.5c-1.5-1.6-2.3-2.5-2.3-2.6
		c-0.8-1.2-1.2-2.4-1.2-3.7c0-2.4,1.2-4.5,3.7-6.2c2.2-1.5,4.6-2.3,7.1-2.3c0.3,0,0.9,0.9,1.9,2.6
		C373.9,346.4,374.4,347.4,374.4,347.7z"/>
	<path id="XMLID_258_" class="st0" d="M386.9,356.3c0,1.2,0,3,0.1,5.3c0,2.4,0.1,4.1,0.1,5.3c0,0.3-0.2,0.5-0.6,0.6
		c-0.6,0.1-1.8,0.1-3.7,0.1c-2,0-3.2,0-3.8-0.1c-0.4-0.1-0.6-0.2-0.7-0.3c0-0.1,0-0.3,0-0.7c0-1.1,0-2.8,0.1-5.1
		c0-2.3,0.1-4,0.1-5.1c0-4.6-0.2-8.3-0.5-11c0-0.3,0-0.4,0-0.5c0-0.3,0.2-0.5,0.7-0.5s1.2,0,2.1,0.1s1.6,0.1,2.1,0.1s1.2,0,2.1-0.1
		s1.7-0.1,2.1-0.1s0.6,0.2,0.6,0.5c0,0.1,0,0.2,0,0.5C387.1,348.4,386.9,352.1,386.9,356.3z M387.6,338.1c0,2.8-1.6,4.2-4.8,4.2
		c-1.4,0-2.5-0.4-3.4-1.1c-1-0.8-1.5-1.8-1.5-3.2c0-1.3,0.5-2.3,1.5-3.1c0.9-0.7,2-1.1,3.3-1.1s2.4,0.4,3.3,1.1
		C387.1,335.8,387.6,336.9,387.6,338.1z"/>
	<path id="XMLID_267_" class="st0" d="M416,361.1c0,4.6-1,8-2.9,10c-2,2.1-5.4,3.1-10.1,3.1c-1.4,0-3.2-0.2-5.6-0.7
		c-3-0.6-4.5-1.2-4.5-2c0-0.3,0.3-1.9,1-4.8c0.1-0.5,0.3-0.7,0.5-0.7c0.1,0,0.2,0,0.3,0.1c2.5,1.2,4.8,1.9,7,1.9
		c1.2,0,2.3-0.3,3.5-0.9c1.4-0.7,2.1-1.6,2.1-2.6v-1.6c-1.7,1.6-3.8,2.3-6.4,2.3c-3.1,0-5.6-1.1-7.5-3.3c-1.9-2.1-2.9-4.7-2.9-7.8
		s0.9-5.7,2.7-7.7c1.9-2.1,4.4-3.2,7.5-3.2c2.5,0,4.3,0.9,5.6,2.6c0.3,0.4,0.4,0.5,0.5,0.5s0.2-0.3,0.2-0.9c0-1.3,0.1-2,0.4-2
		s1.7,0.1,4.2,0.4c2.6,0.3,3.9,0.4,4,0.5c0.3,0.1,0.4,0.3,0.4,0.6c0,1.1,0,2.8-0.1,5c-0.1,2.2-0.1,3.9-0.1,5c0,0.7,0,1.7,0,3
		C416,359.5,416,360.5,416,361.1z M407.5,354.4c0-1.2-0.4-2.2-1.2-3.1c-0.8-0.9-1.8-1.3-3-1.3s-2.2,0.4-3,1.3s-1.2,1.9-1.2,3.1
		s0.4,2.2,1.2,3.1c0.8,0.9,1.8,1.3,2.9,1.3c1.2,0,2.2-0.4,3-1.3C407.1,356.6,407.5,355.6,407.5,354.4z"/>
	<path id="XMLID_276_" class="st0" d="M444.5,366.8c0,0.4-0.2,0.7-0.7,0.8s-1.6,0.1-3.6,0.1c-2.1,0-3.3,0-3.8-0.1s-0.7-0.4-0.7-1
		c0-0.8,0-1.9,0.1-3.5c0-1.5,0.1-2.7,0.1-3.5c0-0.6,0-1.5,0-2.7c0-1.2,0-2.1,0-2.7c0-2.2-1-3.3-2.9-3.3c-0.6,0-1.4,0.3-2.2,0.8
		c-0.9,0.6-1.4,1.2-1.4,1.8v13.2c0,0.5-0.3,0.8-0.8,0.9c-0.6,0.1-1.7,0.1-3.5,0.1c-1.9,0-3.1,0-3.7-0.1c-0.5-0.1-0.8-0.3-0.8-0.8
		c0-1.3,0-3.2,0-5.7c0-2.6,0-4.5,0-5.8c0-4.1-0.3-7.2-1-9.5c0-0.1,0-0.3,0-0.4c0-0.3,0.1-0.4,0.4-0.5c1-0.1,2.4-0.3,4.1-0.5
		c2.6-0.5,4-0.8,4.4-0.8c0.2,0,0.3,0.5,0.4,1.6s0.2,1.6,0.4,1.6c-0.2,0,0.7-0.6,2.6-1.7c1.9-1.1,3.6-1.7,5.1-1.7
		c2.1,0,3.8,0.5,5.2,1.5c1.5,1.1,2.3,2.7,2.3,4.7v7.8c0,1.1,0,2.6,0,4.7C444.5,364.1,444.5,365.7,444.5,366.8z"/>
</g>
<ellipse id="XMLID_339_" class="st41" cx="181.4" cy="428.5" rx="30.8" ry="6.2"/>
<linearGradient id="XMLID_15_" gradientUnits="userSpaceOnUse" x1="876.8668" y1="551.8603" x2="876.8668" y2="474.3554" gradientTransform="matrix(-1 0 0 1 954.18 -116.22)">
	<stop  offset="0" style="stop-color:#818181;stop-opacity:0.25"/>
	<stop  offset="0.54" style="stop-color:#818181;stop-opacity:0.12"/>
	<stop  offset="1" style="stop-color:#818181;stop-opacity:0.1"/>
</linearGradient>
<path id="XMLID_335_" class="st42" d="M65.1,379.2c0.1,0.2,0.2,0.5,0.3,0.7l0,0c0,0,1.5,5.4,2.1,6.5c0.2,0.3,0.4,0.7,0.6,1
	c0,0.3,0,0.5,0,0.8c0.2,1.2,0.5,2.9,0.3,3.2s0.1,1.3-0.3,1.6c-0.4,0.3-0.8,0.9,0.4,1.6c0,0,0.2,0.6,0,0.7c0,0,0,0,0.1,0.1
	c-0.3,1-0.8,2.6-0.5,2.7c0.2,0.1,0.6-0.2,1.1-0.5c0,0.1,0,0.1,0,0.2c0.1,0.5,0.2,1.1,0.4,1.6c0.2,0.5,0.4,1.3,0.3,1.6
	c-0.1,0.3,0.3,0.9,0.2,1.1c-0.1,0.2,0.3,1,0.3,1s0.4,1.5,0.4,2s0.5,3.8,0.5,3.8s-0.5,1.7-0.3,2.2c0.3,0.5,0.4,2.2,0,2.8
	c-0.4,0.6-1,2-0.8,2.4s-0.2,5,0.8,6.9c0.1,0.7,0.2,1.4,0.3,2.1c0,0.5,0.8,1.9,0.8,1.9s-0.5,2.1,0.7,2.4c0.1,0,0.2,0,0.3,0
	c0,0.2,0,0.5-0.1,0.7c-0.2,0.3-0.4,0.6-0.4,1l0,0c0,0.1,0,0.1,0,0.2c0.1,0.2,0.5,2.2,0.5,2.2s0.5,2.3,3.6,1.7c0,0,2-0.1,1.9-0.8
	c-0.1-0.2-0.1-0.5-0.2-0.7c-0.1-0.1-0.1-0.3-0.2-0.4c0-0.2-0.5-0.6-0.5-1s-0.3-1-0.3-1.2s-0.5-1.7-0.5-2c0-0.2-0.1-0.4-0.2-0.7
	l0.1-0.1c0,0,0.3-1.5,0-2.1c-0.2-0.6-1.2-1.3-1.2-1.3s0.1-3.8,0-4.3c-0.2-0.5,0.1-2.4,0.1-2.4s0.6-2.7,0.5-3.4c0-0.4,0-0.8,0.2-1.1
	c0,0,0.4-4,0.6-4.5s0.5-5.5,0.5-5.5l0.2,0.5c0.2,0.7,0.5,1.4,0.8,2c0.1,0.2,0.5,0.9,0.8,1.4l0.5,0.8c0,0,0.2,0.8,0.1,1.3
	c-0.2,0.5,1.6,3.1,1.6,3.1c-0.1,0.2-0.2,0.5-0.2,0.7c0,0.3-0.5,1.1-0.5,1.1s-0.2,0.7-0.1,1s-0.2,1.8-0.2,1.8s-0.6,3.3-0.7,3.7
	c-0.1,0.4,0.1,3.1,0.1,3.1s-1.1,2.7-0.6,3.7c0,0.3,0,0.9-0.1,1.1c-0.2,0.3-0.1,1.3-0.1,1.6v0.1c0,0-0.6,0.8,0.2,1.1s3.2,0.5,3.2,0.5
	s2.4,0.7,3.5,0.9c1.1,0.2,3.5,0.1,3.7-0.6c0.1-0.2,0.1-0.4,0.1-0.7c0-0.3-0.2-0.5-0.5-0.7c-0.7-0.3-1.4-0.5-2.2-0.7
	c0,0-1.1-0.3-1.2-0.7c-0.1-0.5-1.7-1.9-1.7-1.9s0-0.1-0.1-0.2h0.1l-0.1-0.1c-0.1-0.3-0.2-0.6-0.4-0.5l0,0c-0.1-0.2,0-0.4,0.2-0.5
	l0,0c0.6-0.3,1-1.4,0.8-2.6s-0.2-1,0.2-1.6c0.2-0.5,0.3-1.1,0.3-1.6l0.9-3.5c0.1-0.4,0.2-0.9,0.3-1.3c0-0.4,0.1-0.7,0.3-1
	c0,0,0.4-2.4,0.8-3s-0.3-2.5-0.3-2.5s-0.6-3.1-0.5-4.5c0-1.4-1.5-6.2-1.5-6.2c-0.2-0.3-0.3-0.7-0.2-1.1c0-0.3-0.1-0.8-0.4-1.2
	l-0.1-0.1c0.1-0.1,0.2-0.2,0.3-0.3c0.4-0.3,0.6-0.9,0.6-1.4l-5.8-13.7l2.7-5.6c-0.2-0.9-1.7-3.3-1.7-3.3l0,0c0,0,0-0.1-0.1-0.1
	c-0.3-0.2-1.5-0.8-1.5-0.8c-0.9-1.1-1.8-1.4-2.3-1.3c-0.2,0-0.3,0-0.5,0.1c-0.1,0-0.1,0-0.2,0.1v0.2c0-0.5,0-1,0.1-1.5v-0.1
	c0.1,0,0.2,0,0.3,0c2.3,0,4.2-1.8,4.2-4.1l0,0c0-0.4-0.1-0.8-0.2-1.1v-0.1l0.1-0.1c0.5-0.2,1.2,0.1,1.6-0.2c0.2-0.2,0.3-0.3,0.3-0.5
	c0.1-0.3,0.2-0.6,0.2-0.9c0-0.1,0-0.1,0-0.2l0,0c0,0,0,0,0-0.1c0,0,0,0,0-0.1l0,0c0-0.2-0.1-0.4-0.2-0.5c-0.3-0.3-0.7-0.4-1.1-0.6
	c-0.3-0.2-0.5-0.5-0.7-0.8c-0.2-0.3-0.4-0.6-0.7-0.8c-0.3-0.2-0.7-0.3-1-0.2c-0.1,0.1-0.2,0.1-0.3,0.2c-0.1,0-0.3,0-0.4-0.1
	c-1.2-0.6-2.6-0.5-3.9-0.3c-0.5,0-1,0.2-1.5,0.4c-0.5,0.2-0.9,0.6-1,1.1c-0.1,0.4,0,0.8-0.2,1.2c-0.1,0.3-0.3,0.5-0.4,0.8
	c-0.1,0.1-0.1,0.3-0.1,0.4l0,0l0,0c0,0.6,0.2,1.2,0.3,1.8c0.2,0.8,0.1,1.7,0.4,2.5c0,0.1,0.1,0.2,0.1,0.3c-0.1,0.3-0.3,0.5-0.4,0.8
	c-0.2-0.1-0.8-0.2-0.8,0.3c0,0.4-0.1,0.8-0.3,1.2c0,0-0.1,0-0.1,0.1c-0.1,0-0.1,0.1-0.1,0.2l0,0l-0.1,0.1H70c0-0.1-0.2-0.1-0.5,0.4
	c-0.5,0.5-1.1,1-1.7,1.3c0,0-2.5,1.8-2.7,2.6C64.9,374.7,64.6,378,65.1,379.2z M76.2,370.6L76.2,370.6L76.2,370.6L76.2,370.6z
	 M83.1,428.4c-0.1,0-0.1,0-0.2,0H83.1z"/>
<path id="XMLID_334_" class="st43" d="M77.2,435.6c-3,0.6-3.5-1.7-3.5-1.7s-0.4-2-0.5-2.2c0-0.1,0-0.1,0-0.2l0,0
	c0.1-0.3,0.2-0.7,0.4-1c0.2-0.2,0-1.1,0-1.1l3.4-0.9c0.1,0.3,0.3,0.7,0.3,1s0.5,1.8,0.5,2c-0.1,0.2,0.2,0.8,0.3,1.2s0.5,0.8,0.5,1
	c0.1,0.2,0.1,0.3,0.2,0.4c0.1,0.2,0.2,0.5,0.2,0.7C79.2,435.4,77.2,435.6,77.2,435.6z"/>
<path id="XMLID_333_" class="st11" d="M77.2,435.6c-3,0.6-3.5-1.7-3.5-1.7s-0.4-2-0.5-2.2c0-0.1,0-0.1,0-0.2l0.7,2.1
	c0,0,0.6,1.2,2.8,1c1.3-0.1,1.9-0.3,2.2-0.5c0.1,0.2,0.2,0.5,0.2,0.7C79.2,435.4,77.2,435.6,77.2,435.6z"/>
<path id="XMLID_332_" class="st11" d="M74.9,432.3c0,0,0.7,0,0.8-0.6L74.9,432.3z"/>
<path id="XMLID_331_" class="st44" d="M87.8,412.4c-0.4,0.6-0.8,3-0.8,3c-0.2,0.3-0.2,0.7-0.3,1c0,0.5-0.1,0.9-0.3,1.3l-1,3.5
	c0.1,0.5,0,1.1-0.3,1.6c-0.4,0.7-0.3,0.5-0.2,1.6c0.2,1.2-0.2,2.2-0.8,2.6c-0.6,0.3,0.3,1.1,0.3,1.1s-3.9,1-4.7,0.4
	c-0.8-0.6,0.4-3.8,0.4-3.8s-0.2-2.7-0.1-3.1s0.7-3.7,0.7-3.7s0.4-1.5,0.2-1.8c-0.1-0.3,0.1-1,0.1-1s0.6-0.8,0.5-1.1
	c0-0.2,0.1-0.5,0.2-0.7c0,0-1.7-2.6-1.6-3.1s-0.1-1.3-0.1-1.3s-0.2-0.4-0.5-0.8c-0.3-0.5-0.7-1.2-0.8-1.4c-0.3-0.7-0.6-1.3-0.8-2
	l-0.2-0.5c0,0-0.3,5-0.5,5.5c-0.3,0.5-0.6,4.5-0.6,4.5c-0.1,0.4-0.2,0.7-0.2,1.1c0,0.6-0.5,3.4-0.5,3.4s-0.3,1.9-0.1,2.4
	c0.2,0.5,0,4.2,0,4.2s0.9,0.7,1.2,1.3s0,2.1,0,2.1s-2.7,1.4-3.9,1c-1.2-0.4-0.7-2.4-0.7-2.4s-0.8-1.4-0.8-1.9
	c-0.1-0.7-0.2-1.4-0.3-2.1c-1-1.9-0.6-6.5-0.8-6.9c-0.2-0.4,0.4-1.8,0.8-2.4s0.3-2.3,0-2.8s0.3-2.2,0.3-2.2s-0.5-3.3-0.5-3.8
	s-0.4-2-0.4-2s-0.4-0.8-0.3-1s-0.3-0.8-0.2-1.1s-0.1-1.1-0.3-1.6c-0.2-0.5-0.3-1-0.4-1.5c-0.1-0.6-0.2-1.1-0.2-1.1l2.8-2.2l7-1.8
	l2.6-0.9l2.6,4c0,0,0.3,0.4,0.5,0.9c0.2,0.4,0.4,0.9,0.3,1.2c0,0.4,0,0.7,0.2,1c0,0,1.5,4.8,1.5,6.2s0.5,4.4,0.5,4.4
	S88.2,411.8,87.8,412.4z"/>
<path id="XMLID_330_" class="st11" d="M72.2,414.9c0,0,3-1.3,3.9-0.4C76.9,415.4,72.2,414.9,72.2,414.9z"/>
<path id="XMLID_329_" class="st11" d="M73.9,415.4c0,0-3,1.7-2,2S73.9,415.4,73.9,415.4z"/>
<path id="XMLID_328_" class="st11" d="M82.9,413.9c0,0-1.3,0.1-0.8,0.3C82.6,414.5,82.9,413.9,82.9,413.9z"/>
<path id="XMLID_327_" class="st11" d="M84.5,414.3c0,0.1-3.7,1.3-3,1.8C82.2,416.7,84.5,414.3,84.5,414.3z"/>
<path id="XMLID_326_" class="st11" d="M72.6,424.7c0.6-0.1,3.7-1.5,2.5-0.5C74.4,424.8,73.5,425,72.6,424.7z"/>
<path id="XMLID_325_" class="st11" d="M74.2,425.8c0,0,0.3,1,1.3,0.9S74.2,425.8,74.2,425.8z"/>
<path id="XMLID_324_" class="st11" d="M73.3,427.9c0.2-0.1,2.4-1.1,2.5-0.6s-2.1,1.3-2.3,1C73.4,428.2,73.3,428.1,73.3,427.9z"/>
<path id="XMLID_323_" class="st11" d="M80.5,426.7c0.3,0,2.8-0.8,3.3-0.1L80.5,426.7z"/>
<path id="XMLID_322_" class="st11" d="M82.8,427.2c0,0,0.4-0.4,0.9-0.2C84.1,427.2,82.8,427.2,82.8,427.2z"/>
<path id="XMLID_321_" class="st11" d="M77.2,431.4c0.1,0.3,0.3,0.5,0.6,0.6L77.2,431.4z"/>
<path id="XMLID_320_" class="st45" d="M90.1,433c-0.2,0.7-2.5,0.8-3.7,0.6c-1.1-0.2-3.5-0.9-3.5-0.9s-2.5-0.2-3.2-0.5
	s-0.2-1.1-0.2-1.1s0,0,0-0.1c0-0.3-0.1-1.3,0.1-1.6c0.2-0.3,0.1-1.4,0.1-1.4s3.5,0.7,3.6,0.4c0.1-0.3,0.6-0.8,0.9-0.9
	s0.4,0.8,0.4,0.8s1.6,1.4,1.7,1.8c0.1,0.5,1.2,0.7,1.2,0.7c0.7,0.2,1.4,0.4,2.1,0.7c0.3,0.1,0.4,0.4,0.5,0.7
	C90.1,432.5,90.1,432.7,90.1,433z"/>
<path id="XMLID_319_" class="st43" d="M90.1,433c-0.2,0.7-2.5,0.8-3.7,0.6c-1.1-0.2-3.5-0.9-3.5-0.9s-2.5-0.2-3.2-0.5
	s-0.2-1.1-0.2-1.1s0,0,0-0.1l3.5,0.8c0,0,1.7,0.7,2.9,0.7c1,0,3.2,0.4,4.2-0.2C90.1,432.5,90.1,432.7,90.1,433z"/>
<path id="XMLID_318_" class="st11" d="M85.3,430.3c0,0-0.2,1.1-0.8,1.5L85.3,430.3z"/>
<path id="XMLID_317_" class="st46" d="M96.1,389.2c-1,0.4-3.3,0.4-4.4,0.4c-0.3,0-0.5,0-0.5,0l-0.7-1.4l0.7-1.1c0,0,0.6-0.2,1.4-0.3
	c1.2-0.2,2.8-0.4,3.6,0.1C97.6,387.7,97.4,388.7,96.1,389.2z"/>
<path id="XMLID_316_" class="st43" d="M80.7,373l0.3-0.3c0,0,1.5,2.4,1.7,3.3s0.4,1.9,0.4,1.9s0.4,1.2,0.6,1.7
	c0.2,0.4,0.4,0.8,0.5,1.2c0,0.2-0.1,0.7,0.4,1c0.5,0.3,0.6,1.2,0.6,1.2s1.7,1.7,2.6,1.7s3.5,0.5,3.4,0.9s1.1,0.7,1.5,0.8
	c0.5,0.1-3,1.5-1,3.2c0,0-1.3,0.3-1.4,0.6c-0.1,0.3-1.5-0.2-1.5-0.2s-0.3-0.7-1.3-0.7s-1.5-0.5-1.5-0.6s-1-0.6-1.6-0.8
	s-1.3-0.2-1.3-0.4S79.7,373,79.7,373H80.7z"/>
<path id="XMLID_314_" class="st41" d="M115.2,434.3c17,0,30.8,2.8,30.8,6.2c0,3.4-13.8,6.2-30.8,6.2s-30.8-2.8-30.8-6.2"/>
<rect id="XMLID_313_" x="101.7" y="306.2" transform="matrix(0.9859 0.1673 -0.1673 0.9859 55.4288 -12.8413)" class="st47" width="4.4" height="32.8"/>
<polygon id="XMLID_312_" class="st48" points="114,436.4 115,443.3 115.8,436.2 "/>
<polygon id="XMLID_311_" class="st31" points="83,432.6 83,436.9 84,440.6 84.7,440.6 85.5,436.6 85.9,431.8 "/>
<path id="XMLID_310_" class="st48" d="M81.1,415.9l2.1,0.4c0,0-2.3,6.5-0.7,7.8h-2.6C79.8,424.2,78.9,419.2,81.1,415.9z"/>
<path id="XMLID_309_" class="st44" d="M81.1,415.9l2.1,0.4c0,0-2.3,6.5-0.7,7.8h-2.6C79.8,424.2,78.9,419.2,81.1,415.9z"/>
<path id="XMLID_308_" class="st48" d="M94.9,338.1L88.3,380c0,0-9.8,44.6-6.1,53.4h4.7l14-85.7L94.9,338.1z"/>
<path id="XMLID_307_" class="st48" d="M111.6,332.9l5.1,42.1c0,0,3.7,53.6-0.4,62.3h-4l-7.1-95L111.6,332.9z"/>
<path id="XMLID_306_" class="st47" d="M94.3,322.8c0.7-2.4,2.9-3.9,5.3-3.9c4.1,0.1,10.4,0.8,13.7,4.2c5.1,5.2-3.4,22.9-3.4,22.9
	s-8,14.7-15.3-4C94.5,342,91.5,332,94.3,322.8z"/>
<path id="XMLID_304_" class="st49" d="M97.1,326.4c0.5-1.7,2.1-2.8,3.8-2.7c2.9,0.1,7.4,0.6,9.7,3c3.6,3.7-2.5,16.3-2.5,16.3
	s-5.7,10.5-10.9-2.8C97.2,340.1,95.1,332.9,97.1,326.4z"/>
<linearGradient id="XMLID_16_" gradientUnits="userSpaceOnUse" x1="1022.5553" y1="536.2809" x2="1045.1251" y2="536.2809" gradientTransform="matrix(-1 0 0 1 1156.27 -116.22)">
	<stop  offset="0" style="stop-color:#818181;stop-opacity:0.25"/>
	<stop  offset="0.54" style="stop-color:#818181;stop-opacity:0.12"/>
	<stop  offset="1" style="stop-color:#818181;stop-opacity:0.1"/>
</linearGradient>
<path id="XMLID_301_" class="st50" d="M111.2,433.6c0,0.7,0.1,1.4,0.6,1.9c0.7,0.9,2,0.9,3,1.2c0.8,0.2,1.6,0.6,2.4,0.9l2.3,1.1
	c-0.6,0-1.2,0.2-1.8,0.4c-0.3,0.1-0.6,0.3-0.7,0.6c0,0.3,0.1,0.5,0.4,0.6c0.2,0.1,0.5,0.1,0.8,0.1c1.4,0,2.8,0,4.2-0.2h0.2
	c0.7,0.4,1.4,0.7,2.1,1.1c0.3,0.2,0.6,0,0.9-0.2c0.3-0.3,0.6-0.6,0.8-0.9c0,0.1,0.1,0.1,0.1,0.2c0.2,0.4,0.4,1,0.1,1.4
	c-0.3,0.3-0.7,0.3-0.9,0.7c-0.1,0.3,0,0.5,0.2,0.7c0.2,0.1,0.5,0.2,0.8,0.3c0.6,0.1,1.3,0.1,1.9,0c0.3,0,0.7-0.2,0.9-0.4
	c0.2-0.3,0.3-0.7,0.3-1l0.4-5c0-0.2,0-0.5-0.1-0.7c-0.2-0.4-0.7-0.6-1.1-0.7l0,0c0.4,0,0.8,0,1.2,0s0.7,0,1.1-0.1
	c0.7-0.3,1-0.9,1.3-1.6c0.5-1.1,1.1-2.3,1-3.6l-0.2-0.1c0-1.3-0.6-2.5-0.8-3.8c0.2-0.3,0.3-0.7,0.3-1.2s-0.1-0.9-0.3-1.3
	c-0.8-2.4-1.6-4.9-2.7-7.2c-0.7-1.5-1.6-3-2.6-4.4c-0.3-0.3-0.5-0.7-0.8-1c-0.2-0.2-0.7-0.6-0.8-0.9s0.1-0.6,0-0.9
	c0-0.1-0.1-0.2-0.1-0.2c0.6-0.8,0.4-2,0.2-3l-0.3-1.2c-0.1-0.3-0.2-0.7-0.3-1c-0.2-0.3-0.4-0.5-0.6-0.7c-1.3-1.1-2.8-1.9-4.3-2.9
	s-2.9-2.2-4.2-3.4c-0.4-0.4-0.9-0.8-1.5-0.6s-0.8,0.7-0.8,1.3c0,0.7,0.3,1.4,0.8,1.9c0.9,0.9,2.3,0.9,3.5,1.5
	c0.4,0.2,0.7,0.5,1.1,0.8l3.2,2.5c0.2,0.1,0.4,0.4,0.5,0.7c0,0.2,0,0.3-0.1,0.5c-0.1,0.4-0.3,0.8-0.5,1.3l-0.3-0.2
	c-0.5-0.4-1.1-0.7-1.7-1c-0.8-0.3-1.6-0.5-2.5-0.6c-1.9-0.2-3.6,0.1-4.8,1.7c-0.2,0.4-0.5,0.7-0.9,0.9c-0.3,0.1-0.5,0.3-0.7,0.5
	c-0.6,0.7-0.3,1.8,0.3,2.3c0.5,0.4,1.1,0.7,1.7,0.9c0.7,1.6,2.5,2.4,4.2,1.9c0,0.3,0,0.7,0,1s0.1,0.7,0.4,0.9
	c0.1,0.1,0.3,0.2,0.4,0.2c0.6,0.2,1.1,0.5,1.6,0.8c-0.6,0.6-1.1,1.3-1.4,2.1c-0.5,1-0.4,2.3,0.3,3.2l0,0c0,0.2-0.1,0.3-0.2,0.4
	c-0.3,0.3-0.8,0.2-1.1-0.1c-0.2-0.3-0.4-0.6-0.6-0.9c-0.5-0.8-1.4-1.4-2.3-1.6c-0.4-0.1-0.7-0.1-1.1,0c-0.3,0.1-0.6,0.4-0.6,0.8
	s0.3,0.7,0.6,1c0.9,0.9,1.8,1.7,2.8,2.3c0.3,0.2,0.6,0.3,0.9,0.5c-0.5-0.1-1-0.2-1.5-0.3c-0.7-0.2-1.4-0.2-2.2-0.2
	c-0.7,0.1-1.4,0.4-1.8,1.1c-0.3,0.5-0.3,1.2-0.2,1.8c0.2,0.6,0.4,1.1,0.8,1.6c0.5,0.9,1.2,1.7,2,2.5c-0.6,0.2-1.3,0.4-1.9,0.6
	s-1.3,0.5-1.6,1.1C111.2,432.7,111.1,433.2,111.2,433.6z M120.7,424.9L120.7,424.9c0.2-0.1,0.3-0.2,0.4-0.3c0.4-0.5,0.7-1.1,0.8-1.8
	c0.1,0,0.3-0.1,0.4-0.1c-0.2,0.2-0.3,0.4-0.3,0.7l1.5,0.7c0.1,0,0.2,0.1,0.3,0.2c0,0.1,0,0.2,0,0.3c0,0.3-0.1,0.7-0.1,1
	c-0.4-0.1-0.9-0.2-1.2-0.3C121.8,425.2,121.2,425,120.7,424.9L120.7,424.9z"/>
<path id="XMLID_300_" class="st51" d="M120.9,411.2c0.7,0.2,1.5,0.1,2.2-0.3c0.1-0.1,0.3-0.2,0.4-0.2c0.3,0,0.5,0.1,0.7,0.3
	c0.6,0.6,0.7,1.6,0.4,2.4s-1,1.5-1.6,2c-0.5,0.4-1.1,0.9-1.7,1.2c-0.3-0.8-1-1.4-1.8-1.7c-0.7-0.3-1.2-1-1.6-1.6
	c-0.3-0.5-0.6-0.5-0.3-0.9c0.3-0.5,0.7-0.9,1.1-1.3c0.2-0.2,0.4-0.5,0.6-0.8s0.1-0.5,0.4-0.3c0.2,0.2,0.3,0.5,0.5,0.7
	C120.3,410.9,120.6,411.1,120.9,411.2z"/>
<path id="XMLID_299_" class="st51" d="M123.2,406.1c0.1-0.2,0.1-0.3,0.1-0.5c-0.1-0.3-0.3-0.5-0.5-0.6l-3.2-2.5
	c-0.3-0.3-0.7-0.5-1.1-0.7c-1.1-0.6-2.5-0.7-3.4-1.5c-0.5-0.5-0.8-1.2-0.8-1.9c0-0.5,0.3-1.1,0.7-1.2c0.5-0.1,1,0.2,1.4,0.6
	c1.3,1.2,2.6,2.4,4.1,3.4c1.4,0.9,2.9,1.7,4.2,2.8c0.2,0.2,0.4,0.4,0.6,0.7c0.2,0.3,0.3,0.6,0.3,1l0.3,1.2c0.2,1,0.4,2.2-0.3,3
	c-0.2,0.3-0.5,0.4-0.8,0.4c-0.2,0-0.4-0.1-0.6-0.2c-0.5-0.3-1.4-0.5-1.6-1.2C122.3,408,122.9,406.9,123.2,406.1z"/>
<path id="XMLID_298_" class="st51" d="M118.1,422.3c-0.2-0.3-0.4-0.5-0.5-0.8c-0.5-0.8-1.3-1.4-2.3-1.6c-0.3-0.1-0.7-0.1-1,0
	s-0.6,0.4-0.6,0.8s0.3,0.7,0.5,1c0.8,0.9,1.8,1.7,2.8,2.3c1,0.7,2.2,1.1,3.4,1.2c0.1,0,0.2,0,0.4,0c0.1-0.1,0.2-0.2,0.3-0.3
	c0.6-0.8,0.9-1.9,1-2.9c-0.1,0.4-2.1-0.5-2.4-0.4c-0.3,0.2-0.3,0.6-0.6,0.9C118.8,422.6,118.4,422.6,118.1,422.3z"/>
<path id="XMLID_297_" class="st51" d="M133.3,430.4c0,0.1,0,0.3-0.1,0.4c-0.1,0.2-0.5,0.2-0.7,0.2c-0.6-0.1-1.2-0.2-1.8-0.4
	l-5.3-1.5c-0.1,0-0.2-0.1-0.2-0.1c-0.1-0.1-0.1-0.1-0.1-0.2c-0.2-0.8-0.2-1.5-0.1-2.3c0-0.1,0-0.2,0.1-0.3c0.1-0.1,0.3-0.2,0.4-0.2
	c0.8-0.1,1.7-0.1,2.5-0.1c0.5,0,1.1,0,1.6,0c0.7-0.1,1.5-0.5,2.2-0.4c0.6,0.1,0.6,0.5,0.6,1C132.6,427.7,133.2,429,133.3,430.4z"/>
<path id="XMLID_296_" class="st44" d="M116.3,424.1c-0.7-0.2-1.4-0.2-2.1-0.2c-0.7,0.1-1.4,0.4-1.8,1c-0.3,0.5-0.3,1.2-0.2,1.7
	c0.2,0.6,0.4,1.1,0.8,1.6c0.6,1,1.4,2,2.3,2.7c0.5,0.4,0.9,0.7,1.4,1c0.9,0.8,1.5,1.9,2,3c0.5,1,1,2.1,1.3,3.2c0,0.1,0,0.2,0.1,0.2
	s0.2,0,0.2,0l2.5-0.5c0.2,0,0.4-0.2,0.4-0.4c0-0.1,0-0.2-0.1-0.2c-0.6-2.4-1.6-4.6-3-6.6c1.4,1.3,3.3,1.8,5.1,1.5
	c0.4-0.1,0.7-0.2,1-0.4c0.6-0.5,0.5-1.4,0.4-2.1s-0.3-1.3-0.5-2c-0.5-1.5-2.5-2-3.9-2.3C120.4,425,118.4,424.5,116.3,424.1z"/>
<path id="XMLID_295_" class="st11" d="M118.2,429.6c0.4,0.1,0.7,0.4,1,0.6c-0.5-0.5-1.8-0.8-2.4-1c-0.8-0.3-1.7-0.6-2.3-1.1
	C115.8,428.5,117,429,118.2,429.6z"/>
<path id="XMLID_294_" class="st43" d="M126.5,440.4c0.2,0.4,0.4,1,0.1,1.4c-0.2,0.3-0.7,0.3-0.9,0.7c-0.1,0.3,0,0.5,0.2,0.7
	c0.2,0.1,0.5,0.2,0.7,0.3c0.6,0.1,1.3,0.1,1.9,0c0.3,0,0.7-0.2,0.9-0.4c0.2-0.3,0.3-0.7,0.3-1l0.4-4.9c0-0.2,0-0.5,0-0.7
	c-0.2-0.4-0.7-0.6-1.1-0.7c-0.5-0.1-1-0.1-1.5-0.1c-0.3,0-0.7,0.1-0.9,0.3c-0.3,0.3-0.4,0.6-0.4,1c-0.1,0.6-0.4,1.4-0.4,2
	C125.8,439.5,126.2,440,126.5,440.4z"/>
<path id="XMLID_293_" class="st43" d="M120.8,438.8c-1-0.1-2,0-2.9,0.3c-0.3,0.1-0.6,0.3-0.7,0.6c0,0.3,0.1,0.5,0.4,0.6
	c0.2,0.1,0.5,0.1,0.8,0.1c1.4,0,2.7,0,4.1-0.2c0.4,0,0.7-0.1,1-0.3c0.3-0.2,0.4-0.6,0.3-0.9c-0.2-0.3-0.6-0.4-0.8-0.8
	c-0.2-0.2-0.2-0.5-0.4-0.7c-0.2-0.1-0.4,0-0.6,0c-0.3,0.1-0.9,0.2-1.1,0.4C120.8,438.3,120.8,438.6,120.8,438.8z"/>
<circle id="XMLID_292_" class="st51" cx="117.1" cy="410.5" r="3.4"/>
<path id="XMLID_291_" class="st43" d="M125.1,409c-0.5-0.4-1.2-0.5-1.9-0.7c-0.2-0.1-0.5-0.1-0.7,0c-0.1,0.1-0.3,0.2-0.3,0.4
	c-0.2,0.3-0.4,0.7-0.4,1.1c-0.1,0.4,0,0.8,0.3,1.1c0.2,0.2,0.5,0.3,0.7,0.5c0.3,0.3,0.4,0.7,0.3,1.1s-0.2,0.8-0.5,1.1
	c-0.5,0.9-1.1,1.7-1.7,2.5c-0.7,0.8-1.4,1.6-1.8,2.6s-0.3,2.2,0.3,3.2c0.6,0.9,1.9,1.4,2.9,1c-0.2,0.2-0.3,0.4-0.3,0.7l1.4,0.7
	c0.1,0,0.2,0.1,0.3,0.2c0,0.1,0,0.2,0,0.3c-0.1,0.6-0.2,1.2-0.2,1.7c0,0.6,0.3,1.2,0.8,1.4c0.5,0.2,1.1,0.1,1.6,0
	c1.2-0.2,2.5-0.4,3.7-0.4c0.6,0,1.3,0,1.8-0.2c0.8-0.3,1.3-1.1,1.3-2c0-0.4-0.1-0.9-0.3-1.3c-0.8-2.4-1.6-4.8-2.7-7.1
	c-0.7-1.5-1.5-3-2.5-4.3c-0.3-0.3-0.5-0.7-0.8-1c-0.2-0.2-0.7-0.6-0.7-0.9c-0.1-0.3,0.1-0.6,0-0.9
	C125.7,409.5,125.4,409.2,125.1,409z"/>
<path id="XMLID_290_" class="st44" d="M133.4,430.4c-1.5-0.7-3-1.4-4.5-1.9c-1.1-0.4-2.4-0.7-3.5-0.3c-0.3,0.1-0.6,0.3-1,0.5
	c-1.1,0.5-2.3,0.6-3.5,0.7c-2.7,0.3-5.3,0.9-7.8,1.8c-0.6,0.2-1.2,0.5-1.5,1.1c-0.2,0.4-0.2,0.9-0.2,1.3c0,0.7,0.1,1.3,0.6,1.9
	c0.7,0.9,1.9,0.9,3,1.2c0.8,0.2,1.6,0.6,2.4,0.9c2.5,1.2,4.9,2.4,7.4,3.6c0.3,0.2,0.6,0,0.9-0.2c0.7-0.7,1.3-1.5,1.5-2.5
	c0.3-1,0.4-1.9,0.4-2.9c0.9,0,1.7,0,2.7,0c0.3,0,0.7,0,1-0.1c0.6-0.3,1-0.9,1.3-1.6C133,432.8,133.5,431.6,133.4,430.4z"/>
<path id="XMLID_289_" class="st11" d="M116.2,434c0.7-0.3,1.4-0.3,2.2-0.3c0.5,0,0.9,0,1.4,0.1c0.7,0.2,1.3,0.4,2,0.7
	c1.6,0.7,3.3,1,5,1"/>
<path id="XMLID_288_" class="st31" d="M112.3,411c0.5,0.5,1.1,0.8,1.8,0.9c0.7,0.2,1.4,0.2,2,0.4c0.8,0.2,1.7,0.6,1.9,1.5
	c0,0.3,0.1,0.7,0,1c0,0.3,0.1,0.7,0.3,0.9c0.1,0.1,0.3,0.2,0.4,0.2c2.8,1.1,4.6,3.7,4.6,6.7c0.9-0.5,1.4-1.4,1.6-2.4
	c0,0.9,0.8,1.8,0.3,2.6c1.9-1.2,2.4-3.8,1.2-5.7c-0.1-0.1-0.1-0.2-0.2-0.3c-0.3-0.4-0.8-0.8-1.1-1.2c-1-1.2-1.5-2.7-1.3-4.3
	c0.1-0.7,0.3-1.3,0.1-2c-0.2-0.9-1-1.5-1.7-2c-0.5-0.4-1.1-0.7-1.7-1c-0.8-0.3-1.6-0.5-2.4-0.6c-1.9-0.2-3.5,0.1-4.7,1.7
	c-0.2,0.4-0.5,0.7-0.9,0.9c-0.3,0.1-0.5,0.3-0.7,0.5C111.5,409.3,111.8,410.4,112.3,411z"/>
<path id="XMLID_287_" class="st46" d="M77.6,373.2c-0.1,0-7.5-3.1-6.4-3.7c0.6-0.4,1.3-1.9,1.8-3.1c0.4-0.8,0.6-1.5,0.6-1.5
	s5.9-1,3.8,2.6c-0.3,0.6-0.6,1.2-0.7,1.8C76,371.8,77.5,373.2,77.6,373.2z"/>
<path id="XMLID_286_" class="st11" d="M77.3,367.5c-0.3,0.6-0.6,1.2-0.7,1.8c-1.5-0.1-2.9-1.1-3.5-2.5c-0.1-0.1-0.1-0.3-0.2-0.4
	c0.4-0.8,0.6-1.5,0.6-1.5S79.4,363.9,77.3,367.5z"/>
<path id="XMLID_285_" class="st46" d="M81,365.1c0,2.3-1.9,4.1-4.1,4.1c-1.6,0-3.1-1-3.8-2.4c-0.2-0.5-0.4-1.1-0.4-1.7
	c0-2.3,1.9-4.1,4.1-4.1c1.8,0,3.4,1.2,3.9,3C80.9,364.3,81,364.7,81,365.1z"/>
<path id="XMLID_284_" class="st11" d="M85,397c-0.3,0.3-0.5,0.7-0.6,1.1c0,0-2,1.4-1.9,0.5s-1.1-4.4-1.1-4.4l0.1,4.8
	c0,0-6.5-0.3-7-0.8s-3.2-1.4-3.2-1.4s-0.8,0.7-1.6,1.2c-0.1-0.6-0.2-1.1-0.2-1.1l2.8-2.2l7-1.8l2.6-0.8l2.6,4
	C84.5,396.1,84.7,396.5,85,397z"/>
<path id="XMLID_283_" class="st44" d="M85.2,396.6c-0.5,0.3-0.7,1.3-0.7,1.3s-2,1.4-1.9,0.5s-1-4.4-1-4.4l0.1,4.8c0,0-6.5-0.3-7-0.8
	s-3.2-1.4-3.2-1.4s-2.4,1.9-2.8,1.8c-0.4-0.2,0.8-3.4,0.8-3.4l1.2-19.2c0,0-0.3-5.7,0.2-5.9c0.1,0,0.2-0.1,0.2-0.1
	c0.3-0.3,0.4-0.9,0.5-1.4c0-0.6,0.8-0.3,0.8-0.3l-0.5,0.6l4.2,2.5l0,0c0.2-0.1,0.3-0.2,0.5-0.2c0.4-0.1,0.9-0.3,1.2-0.1
	c0.2,0.1,0.3,0.2,0.4,0.4c0.2,0.4,0.4,0.7,0.6,1.2l1.5,2.6c0,0,0.8,3.4,0.8,3.5s0.2,3.2,0.5,3.6c0.3,0.4,0.5,2,0.4,2.5
	s0.2,2.4,0.2,2.4c1.1,0.9,1.7,4,1.7,4s1.8,3.5,1.9,3.9S85.7,396.3,85.2,396.6z"/>
<path id="XMLID_282_" class="st11" d="M76,371.3c-0.4,0.6-1.6,1.5-1.6,1.5l-3.4-2.9c0.3-0.3,0.4-0.9,0.5-1.4c0-0.6,0.8-0.3,0.8-0.3
	l-0.1,0.1c-0.2,0.2-0.1,0.6,0.1,0.8l0,0L76,371.3z"/>
<path id="XMLID_281_" class="st45" d="M76,371.1c-0.4,0.6-1.6,1.5-1.6,1.5l-3.4-2.9c0.3-0.3,0.4-0.9,0.5-1.4c0-0.6,0.8-0.3,0.8-0.3
	l-0.1,0.1c-0.2,0.2-0.1,0.6,0.1,0.8l0,0L76,371.1z"/>
<path id="XMLID_280_" class="st11" d="M77.6,371.6c-0.4,0.5-1.1,1.1-1,0.8c0-0.3-0.4-1-0.6-1.3c0.4-0.1,0.8-0.1,1.2,0
	C77.3,371.3,77.5,371.4,77.6,371.6z"/>
<path id="XMLID_278_" class="st45" d="M77.7,371.4c-0.4,0.5-1.1,1.1-1,0.8c0-0.3-0.3-0.8-0.6-1.1c0.4-0.1,0.9-0.3,1.2-0.1
	C77.4,371.1,77.6,371.2,77.7,371.4z"/>
<path id="XMLID_277_" class="st11" d="M71,369.9c0,0,0-0.4-0.5,0.3c-0.5,0.5-1.1,0.9-1.7,1.3c0,0-2.5,1.8-2.6,2.6
	c-0.1,0.8-0.9,4.3-0.5,5.5c0.4,1.2,3.7,6.8,3.7,6.8s-0.9,1-0.7,2.2c0.2,1.2,0.5,2.8,0.3,3.2c-0.1,0.4,0.1,1.3-0.3,1.6
	c-0.4,0.3-0.8,0.9,0.4,1.6c0,0,0.2,0.6,0,0.7s3,1.5,4.3,0.8s3.5-6.7,3.6-8c0-1.3-0.7-5.7-1.1-6.8c-0.4-1-1.6-5.1-2.1-6
	C73.3,374.7,71,369.9,71,369.9z"/>
<path id="XMLID_275_" class="st43" d="M70.7,369.9c0,0,0-0.4-0.5,0.3c-0.5,0.5-1.1,1-1.7,1.3c0,0-2.5,1.8-2.6,2.6
	c-0.1,0.8-0.9,4.3-0.5,5.5c0.4,1.2,3.7,6.8,3.7,6.8s-0.9,1-0.7,2.2s0.5,2.8,0.3,3.2s0.1,1.3-0.3,1.6c-0.4,0.3-0.8,0.9,0.4,1.6
	c0,0,0.2,0.6,0,0.7s3,1.5,4.3,0.8s3.5-6.7,3.6-8c0-1.3-0.7-5.7-1.1-6.8s-1.6-5.1-2.1-6C73,374.8,70.7,369.9,70.7,369.9z"/>
<path id="XMLID_274_" class="st11" d="M70,373.7c0,0,1.9,2.1,1.9,3.6C71.8,377.2,71.9,374.9,70,373.7z"/>
<path id="XMLID_272_" class="st11" d="M76.5,370.6c0,0,1.3-0.8,2.8,1.2c0,0,1.1,0.7,1.5,0.8c0.3,0.2,0.7,4.3,0.7,4.3
	s0.7,1.8,0.5,2.8s0.6,4.6,0.6,4.6s1.3,6.4,1.3,6.6s-1.3-2-1.3-3.1s-1.1-4.5-1.2-4.7c-0.2-0.2-1.2-6-1.2-6s-0.9-2.5-1.4-3.3
	c-0.6-0.8-1.3-2.3-1.5-2.6c-0.2-0.2-0.4-0.3-0.7-0.4L76.5,370.6z"/>
<path id="XMLID_271_" class="st43" d="M76.5,370.6c0,0,1.4-0.8,3,1.2c0,0,1.2,0.7,1.5,0.8c0.3,0.2,0.7,4.3,0.7,4.3s0.7,1.8,0.5,2.8
	s0.6,4.6,0.6,4.6s1.3,6.4,1.3,6.6s-1.3-2-1.3-3.1s-1.1-4.5-1.2-4.7c-0.2-0.2-1.2-6-1.2-6s-0.9-2.4-1.4-3.3c-0.6-0.8-1.3-2.3-1.5-2.6
	c-0.3-0.2-0.5-0.3-0.8-0.4L76.5,370.6z"/>
<path id="XMLID_269_" class="st46" d="M82.7,384.7c0,0,2.7-1.8,4-0.9c1.3,0.9,3.4,2.1,1.3,3c-2.1,0.9-5,0.7-5,0.7L82.7,384.7z"/>
<path id="XMLID_268_" class="st11" d="M80.8,401.7c-0.4,0.9-0.7,5.2-1,6.5c-0.3-0.5-0.7-1.2-0.8-1.4c-0.3-0.7-0.6-1.3-0.8-2
	c0.3-0.6,1-2.4,1-3c0-0.8,1.3-1.8,1.3-1.8C80.9,400.4,81.1,401.1,80.8,401.7z"/>
<path id="XMLID_266_" class="st11" d="M80.8,363.9c-0.1,0-0.1,0.1-0.2,0.1c-0.3,0.1-0.6-0.1-0.9-0.3c-0.3-0.2-0.7-0.3-0.9-0.1
	c-0.3,0.3-0.1,0.9-0.4,1.2c-0.2,0.2-0.5,0.1-0.8,0.3c-0.2,0.1-0.3,0.5-0.4,0.7c-0.1,0.2-0.2,0.6-0.4,0.7c-0.2,0.1-0.5-0.1-0.8-0.1
	c-0.1,0-0.1,0-0.2,0v-0.1c0-0.3,0-0.7-0.1-1c-0.1-0.3-0.4-0.6-0.7-0.6c-0.5-0.1-0.9,0.3-1.2,0.7c-0.3,0.4-0.6,0.8-0.8,1.3v0.1
	c-0.2-0.5-0.4-1.1-0.4-1.7c0-2.3,1.9-4.1,4.1-4.1C78.7,361,80.3,362.2,80.8,363.9L80.8,363.9z"/>
<path id="XMLID_265_" class="st31" d="M73.9,365.3c0.3-0.4,0.7-0.8,1.2-0.7c0.3,0.1,0.6,0.3,0.7,0.6c0.1,0.3,0.1,0.6,0.1,1v0.1
	c0,0,0.1,0,0.2,0c0.3,0,0.5,0.2,0.8,0.1c0.3-0.1,0.4-0.4,0.4-0.7c0.1-0.3,0.1-0.6,0.4-0.7c0.3-0.1,0.6-0.1,0.8-0.3
	c0.3-0.3,0.1-0.9,0.4-1.2c0.2-0.2,0.6-0.1,0.9,0.1s0.6,0.4,0.9,0.3c0.1,0,0.2-0.1,0.3-0.1c0.5-0.2,1.2,0.1,1.6-0.2
	c0.1-0.2,0.3-0.3,0.3-0.5c0.1-0.3,0.2-0.6,0.2-0.9s0-0.6-0.2-0.8c-0.3-0.3-0.7-0.4-1.1-0.6c-0.3-0.2-0.5-0.5-0.7-0.8
	c-0.2-0.3-0.4-0.6-0.7-0.8c-0.3-0.2-0.7-0.3-1-0.2c-0.1,0.1-0.2,0.1-0.3,0.2c-0.1,0-0.3,0-0.4-0.1c-1.2-0.6-2.5-0.5-3.8-0.3
	c-0.5,0-1,0.2-1.5,0.4c-0.5,0.2-0.9,0.6-1,1.1c-0.1,0.4,0,0.8-0.1,1.2c-0.1,0.3-0.3,0.5-0.4,0.8c-0.3,0.7,0.1,1.5,0.2,2.2
	c0.2,0.8,0.1,1.7,0.4,2.5c0.1,0.2,0.1,0.4,0.3,0.3c0.1-0.1,0.3-0.5,0.3-0.6C73.4,366.1,73.6,365.7,73.9,365.3z"/>
<path id="XMLID_263_" class="st11" d="M66.5,378.5l-0.6,1.7c0,0,1.4,5.4,2.1,6.5c0.7,1.1,1.7,2.6,1.7,2.6c1.1,0.5,2.4,0.7,3.6,0.4
	c1.9-0.4,7.6-1.4,7.6-1.4c0.3,0,0.5-0.1,0.7-0.3c0.3-0.4,1.5-0.5,1.5-0.5s1.5-2.2-0.3-3.1c0,0-0.2,0.5-1.2,0.2
	c-1-0.3-1.3,0.3-1.3,0.3s-1.6,0.3-2.5,0.2s-3.1-0.2-3.3-0.3c-0.1-0.1-0.3-0.1-0.4,0l0,0c-0.3-0.1-0.5-0.2-0.7-0.4
	c-0.2-0.2-0.4,0.2-0.4,0.2s-0.3-0.2-0.2-0.4c0.1-0.2-0.3-1.1-0.3-1.1c-0.1-0.3-0.1-0.7-0.1-1c0.1-0.5-0.6-2.1-0.6-2.1
	c0-0.3,0-0.5,0.1-0.8C72,378.8,71,378,71,378s-0.9-4.6-3-3.1S66.5,378.5,66.5,378.5z"/>
<path id="XMLID_262_" class="st43" d="M66.4,378.5l-0.6,1.7c0,0,1.4,5.4,2.1,6.5c0.7,1.1,1.7,2.6,1.7,2.6c1.1,0.5,2.4,0.7,3.6,0.4
	c1.9-0.4,7.6-1.4,7.6-1.4c0.3,0,0.5-0.1,0.7-0.3c0.3-0.4,1.5-0.5,1.5-0.5s1.5-2.2-0.3-3.1c0,0-0.2,0.5-1.2,0.2
	c-1-0.3-1.3,0.3-1.3,0.3s-1.6,0.3-2.5,0.2s-3.1-0.2-3.3-0.3c-0.1-0.1-0.3-0.1-0.4,0l0,0c-0.3-0.1-0.5-0.2-0.7-0.4
	c-0.2-0.2-0.4,0.2-0.4,0.2s-0.3-0.2-0.2-0.4c0.1-0.2-0.3-1.1-0.3-1.1c-0.1-0.3-0.1-0.7-0.1-1c0.1-0.5-0.6-2.1-0.6-2.1
	c0-0.3,0-0.5,0.1-0.8C72,378.8,71,378,71,378s-0.9-4.6-3-3.1S66.4,378.5,66.4,378.5z"/>
<path id="XMLID_260_" class="st11" d="M71.9,383.7c0,0-2.2,0.5-1.5,0.8C71.2,384.9,71.9,383.7,71.9,383.7z"/>
<g id="XMLID_256_" class="st20">
	<path id="XMLID_259_" class="st21" d="M75.8,364.8c-0.1-0.3-0.4-0.6-0.7-0.6c-0.5-0.1-0.9,0.3-1.2,0.7c-0.3,0.4-0.6,0.8-0.8,1.3
		c-0.1,0.1-0.2,0.6-0.3,0.6c-0.2,0.1-0.3-0.2-0.3-0.3c-0.3-0.8-0.3-1.7-0.4-2.5c-0.1-0.5-0.2-1-0.3-1.4c-0.1,0.6,0.2,1.2,0.3,1.8
		c0.2,0.8,0.1,1.7,0.4,2.5c0.1,0.2,0.1,0.4,0.3,0.3c0.1-0.1,0.3-0.5,0.3-0.6c0.2-0.4,0.5-0.9,0.8-1.3s0.7-0.8,1.2-0.7
		c0.3,0.1,0.6,0.3,0.7,0.6c0.1,0.2,0.1,0.3,0.1,0.5C75.9,365.4,75.9,365.1,75.8,364.8z"/>
	<path id="XMLID_257_" class="st21" d="M82.8,362.7c-0.1,0.2-0.2,0.4-0.3,0.5c-0.4,0.3-1.1,0-1.6,0.2c-0.1,0-0.2,0.1-0.3,0.1
		c-0.3,0.1-0.6-0.1-0.9-0.3c-0.3-0.2-0.7-0.3-0.9-0.1c-0.3,0.3-0.1,0.9-0.4,1.2c-0.2,0.2-0.5,0.1-0.8,0.3c-0.2,0.1-0.3,0.5-0.4,0.7
		c-0.1,0.2-0.2,0.6-0.4,0.7c-0.2,0.1-0.5-0.1-0.8-0.1c-0.1,0-0.1,0-0.2,0l0,0c0,0.1,0,0.2,0,0.3v0.1c0,0,0.1,0,0.2,0
		c0.3,0,0.5,0.2,0.8,0.1c0.2-0.1,0.4-0.4,0.4-0.7c0.1-0.3,0.1-0.6,0.4-0.7c0.2-0.1,0.6-0.1,0.8-0.3c0.3-0.3,0.1-0.9,0.4-1.2
		c0.2-0.2,0.6-0.1,0.9,0.1s0.6,0.4,0.9,0.3c0.1,0,0.2-0.1,0.3-0.1c0.5-0.2,1.2,0.1,1.6-0.2c0.1-0.1,0.3-0.3,0.3-0.5
		c0.1-0.3,0.2-0.6,0.2-0.9c0-0.1,0-0.2,0-0.3C83,362.1,82.9,362.4,82.8,362.7z"/>
</g>
<ellipse id="XMLID_254_" class="st43" cx="37.8" cy="427.9" rx="10.6" ry="2"/>
<ellipse id="XMLID_253_" class="st31" cx="37.7" cy="427" rx="1.2" ry="1.6"/>
<ellipse id="XMLID_251_" class="st31" cx="37.7" cy="425.1" rx="1.2" ry="1.6"/>
<ellipse id="XMLID_250_" class="st31" cx="37.7" cy="423.1" rx="1.2" ry="1.6"/>
<ellipse id="XMLID_248_" class="st31" cx="37.7" cy="421.1" rx="1.2" ry="1.6"/>
<ellipse id="XMLID_247_" class="st31" cx="37.7" cy="419.2" rx="1.2" ry="1.6"/>
<ellipse id="XMLID_245_" class="st31" cx="37.7" cy="417.2" rx="1.2" ry="1.6"/>
<ellipse id="XMLID_244_" class="st31" cx="37.7" cy="415.2" rx="1.2" ry="1.6"/>
<path id="XMLID_242_" class="st43" d="M42.3,401.8c0.2-0.2,0.3-0.4,0.5-0.7l-3.2-0.5h3.5c0.7-1.5,0.7-3.2,0.1-4.7l-4.7,2.4l4.3-3.2
	c-1.6-2.8-5.2-3.8-8-2.1s-3.8,5.2-2.1,8c0.1,0.2,0.3,0.5,0.5,0.7c-0.3,0.3-0.5,0.7-0.7,1.1l4.2,2.2l-4.5-1.5c-0.6,1.9-0.3,4,0.9,5.5
	c-2,2.6-1.6,6.3,1,8.3s6.3,1.6,8.3-1c1.7-2.1,1.7-5.1,0-7.3C43.9,406.9,43.9,403.9,42.3,401.8L42.3,401.8z"/>
<path id="XMLID_241_" class="st43" d="M31.7,405.4c0,1.3,0.4,2.6,1.3,3.6c-2,2.6-1.6,6.3,1,8.3s6.3,1.6,8.3-1c1.7-2.1,1.7-5.1,0-7.3
	C43,408,31.7,404.7,31.7,405.4z"/>
<circle id="XMLID_224_" class="st52" cx="76.4" cy="306.2" r="3.9"/>
<circle id="XMLID_223_" class="st53" cx="90.5" cy="288.6" r="6.6"/>
<circle id="XMLID_221_" class="st52" cx="81.7" cy="320.6" r="6.6"/>
<ellipse id="XMLID_213_" class="st52" cx="300.3" cy="370.9" rx="4.5" ry="4.6"/>
<circle id="XMLID_211_" class="st52" cx="155.1" cy="344.7" r="3.7"/>
<circle id="XMLID_210_" class="st52" cx="27.9" cy="318.7" r="9.4"/>
<circle id="XMLID_209_" class="st52" cx="81.3" cy="349.7" r="5.4"/>
<circle id="XMLID_208_" class="st54" cx="134.7" cy="384.7" r="5.4"/>
<ellipse id="XMLID_207_" class="st41" cx="37.8" cy="428.7" rx="30.8" ry="6.2"/>
<circle id="XMLID_84_" class="st52" cx="188.9" cy="364.4" r="3.7"/>
<circle id="XMLID_85_" class="st52" cx="229.7" cy="376.3" r="3.7"/>
<path class="st40" d="M444,472.4c5.8-5,3.6-17.1,3.6-34.8c0-40.9,0-81.8,0-122.7c0-16.6,6-33.6-9.6-38.3c-6.1-1.8-24.5,3-30.4,5.9
	c-17.4,7.5-31.4,22.8-39.8,39.4c-12.5,24.7-15.3,52.9-17.9,80.5c-0.8,8.3-1.5,16.9,1.3,24.8c3,8.4,9.6,14.9,16.6,20.4
	c15.3,12.1,33.3,20.6,52.3,25.1C433.1,476,440.2,475.7,444,472.4z"/>
</svg>
