<?xml version="1.0" encoding="utf-8"?>
<!-- Generator: Adobe Illustrator 19.0.0, SVG Export Plug-In . SVG Version: 6.00 Build 0)  -->
<svg version="1.1" id="Layer_1" xmlns="http://www.w3.org/2000/svg" xmlns:xlink="http://www.w3.org/1999/xlink" x="0px" y="0px"
	 viewBox="0 0 1600 850" style="enable-background:new 0 0 1600 850;" xml:space="preserve">
<style type="text/css">
	.st0{fill:#4DB96B;}
	.st1{fill:#FFFFFF;}
</style>
<rect id="XMLID_6_" x="494.1" y="606.6" class="st0" width="568.5" height="189"/>
<rect id="XMLID_11_" x="393.6" y="203.1" class="st0" width="523.5" height="177"/>
<rect id="XMLID_4_" x="991.1" y="391.1" class="st0" width="451" height="177"/>
<rect id="XMLID_1_" x="1044.6" y="61.5" class="st0" width="493.5" height="269.1"/>
<rect id="XMLID_9_" x="18" y="32.1" class="st0" width="758.1" height="130.5"/>
<g id="XMLID_153_">
	<path id="XMLID_154_" class="st1" d="M156.9,80c0,9.6-3.1,17.9-9.2,24.9c-5.4,6.3-13.1,9.6-22.9,9.9c-1.9,0.1-7.1,0.1-15.6,0.1
		c-1.6,0-4,0-7.2-0.1c-3.2-0.1-5.6-0.1-7.2-0.1c-0.9,0-1.4-0.4-1.4-1.1c0-3.6,0.1-9,0.4-16.1c0.3-7.2,0.4-12.6,0.4-16.1
		c0-3.7-0.1-9.4-0.4-16.8c-0.3-7.5-0.4-13.1-0.4-16.8c0-0.7,0.5-1.1,1.4-1.2c2.3-0.3,6.1-0.4,11.4-0.4c10,0,16.5,0.1,19.5,0.4
		c7.7,0.8,13.8,2.7,18.1,5.9c4.1,2.9,7.3,7,9.7,12.3C155.8,69.6,156.9,74.7,156.9,80z M138.2,80c0-5.5-1.6-10-4.9-13.5
		c-3.3-3.6-7.7-5.4-13.2-5.4c-5,0-7.5,0.7-7.5,2c0,1.9,0,4.8-0.1,8.7c-0.1,3.9-0.1,6.7-0.1,8.7c0,1.9,0,4.7,0.1,8.5
		c0.1,3.8,0.1,6.6,0.1,8.6c0,1.4,2.6,2.1,7.8,2.1c5.6,0,10.1-1.9,13.3-5.6C136.7,90.5,138.2,85.8,138.2,80z"/>
	<path id="XMLID_157_" class="st1" d="M208.9,88.1c0,3.3-1.1,5.2-3.2,5.6c-0.4,0.1-3.7,0.4-10.1,1.1c-3.8,0.4-9.6,0.9-17.2,1.5
		c0.5,2.1,1.8,3.7,4.2,4.8c1.9,0.9,4,1.4,6.4,1.4c2.9,0,5.8-0.8,8.7-2.3c1.2-0.8,2.5-1.6,3.7-2.3c0.7,0.3,1.8,2,3.4,5
		c1.6,3,2.4,4.9,2.4,5.7c0,0.2-0.2,0.6-0.7,1.1c-4,4.3-10.1,6.4-18.5,6.4c-7.7,0-14-2.3-18.8-6.8c-4.9-4.6-7.3-10.7-7.3-18.4
		c0-7.5,2.2-13.6,6.5-18.4C173,67.5,179,65,186.4,65c6.3,0,11.6,2.3,15.9,6.8C206.7,76.4,208.9,81.8,208.9,88.1z M191.8,85.1
		c0-2-0.7-3.8-2.1-5.3c-1.4-1.5-3.1-2.3-5.1-2.3c-2.1,0-3.7,0.9-5.1,2.6c-1.2,1.6-1.9,3.5-1.9,5.6c0,0.9,0.5,1.3,1.4,1.3
		c2.4,0,6.2-0.4,11.2-1.1C191.2,85.7,191.8,85.5,191.8,85.1z"/>
	<path id="XMLID_160_" class="st1" d="M259,88.1c0,3.3-1.1,5.2-3.2,5.6c-0.4,0.1-3.7,0.4-10.1,1.1c-3.8,0.4-9.6,0.9-17.2,1.5
		c0.5,2.1,1.8,3.7,4.2,4.8c1.9,0.9,4,1.4,6.4,1.4c2.9,0,5.8-0.8,8.7-2.3c1.2-0.8,2.5-1.6,3.7-2.3c0.7,0.3,1.8,2,3.4,5
		c1.6,3,2.4,4.9,2.4,5.7c0,0.2-0.2,0.6-0.7,1.1c-4,4.3-10.1,6.4-18.5,6.4c-7.7,0-14-2.3-18.8-6.8c-4.9-4.6-7.3-10.7-7.3-18.4
		c0-7.5,2.2-13.6,6.5-18.4c4.5-4.9,10.4-7.4,17.9-7.4c6.3,0,11.6,2.3,15.9,6.8C256.8,76.4,259,81.8,259,88.1z M241.9,85.1
		c0-2-0.7-3.8-2.1-5.3c-1.4-1.5-3.1-2.3-5.1-2.3c-2.1,0-3.7,0.9-5.1,2.6c-1.2,1.6-1.9,3.5-1.9,5.6c0,0.9,0.5,1.3,1.4,1.3
		c2.4,0,6.2-0.4,11.2-1.1C241.3,85.7,241.9,85.5,241.9,85.1z"/>
	<path id="XMLID_163_" class="st1" d="M318.2,91.1c0,7-2.1,12.7-6.2,17.3c-4.2,4.8-9.8,7.1-16.7,7.1c-2.5,0-5.2-0.6-8.1-1.9
		c-2.9-1.2-4.2-1.9-3.9-1.9c-0.4,0-0.6,0.5-0.6,1.5c0,1.7,0.1,4.2,0.2,7.5c0.2,3.3,0.2,5.8,0.2,7.5c0,1-0.5,1.6-1.6,1.6l-10,0
		c-2.2,0-3.7-0.1-4.3-0.2c-1-0.2-1.5-0.8-1.5-1.8l0.1-37.6c0-7.6-0.6-14-1.7-19.2c-0.1-0.3-0.1-0.6-0.1-0.8c0-0.5,0.2-0.8,0.6-1
		c1.3-0.5,3.7-1,7.3-1.6c3.5-0.6,6-0.8,7.6-0.8c1.3,0,2,0.8,2.2,2.5c0.2,1.7,0.4,2.5,0.7,2.5c-0.3,0,1.1-0.9,4.2-2.7
		c3.1-1.8,5.9-2.7,8.5-2.7c7.1,0,12.7,2.3,16.9,7C316.2,78.1,318.2,83.9,318.2,91.1z M300.1,91c0-2.6-0.8-4.9-2.4-6.8
		c-1.7-2.1-3.9-3.1-6.4-3.1c-2.6,0-4.7,1-6.3,3.1c-1.4,1.9-2.1,4.1-2.1,6.8c0,2.8,0.7,5.1,2.1,6.9c1.5,2,3.6,3,6.3,3
		C297.2,100.9,300.1,97.6,300.1,91z"/>
	<path id="XMLID_166_" class="st1" d="M394.8,115.4c-2.8,0-6.4-0.1-10.9-0.2c-5.9-0.1-9.5-0.2-10.9-0.2l-14.6-0.2
		c-1.5,0-3.6,0-6.3-0.2c-0.9-0.2-1.4-0.7-1.4-1.5c0-3.5,0.1-8.9,0.2-15.9c0.1-7.1,0.2-12.4,0.2-15.9c0-3.8-0.1-9.4-0.3-17
		c-0.2-7.5-0.3-13.2-0.3-17c0-0.7,0.5-1.1,1.5-1.1s2.4,0,4.4,0.1c1.9,0.1,3.4,0.1,4.3,0.1c1.1,0,2.7-0.1,4.8-0.2
		c2.1-0.1,3.7-0.2,4.8-0.2c0.5,0,0.7,0.3,0.7,0.9l0,0.6c-0.4,6.1-0.8,15.3-1.3,27.6l0,12.9c0,4.2,0,7.2,0,9.1c0,0.4,0.1,0.8,0.1,1.2
		c0,0.4,0.3,0.6,0.7,0.7c0,0,0.5,0,1.3,0c2.9,0,7.3-0.2,13.2-0.5c5.8-0.3,10.2-0.5,13.2-0.5c0.9,0,1.3,0.4,1.3,1.1
		c0,5.6-0.4,10.4-1.2,14.4c-0.2,0.8-0.5,1.4-1,1.5C396.6,115.4,395.9,115.4,394.8,115.4z"/>
	<path id="XMLID_168_" class="st1" d="M449,88.1c0,3.3-1.1,5.2-3.2,5.6c-0.4,0.1-3.7,0.4-10.1,1.1c-3.8,0.4-9.6,0.9-17.2,1.5
		c0.5,2.1,1.8,3.7,4.2,4.8c1.9,0.9,4,1.4,6.4,1.4c2.9,0,5.8-0.8,8.7-2.3c1.2-0.8,2.5-1.6,3.7-2.3c0.7,0.3,1.8,2,3.4,5
		c1.6,3,2.4,4.9,2.4,5.7c0,0.2-0.2,0.6-0.7,1.1c-4,4.3-10.1,6.4-18.5,6.4c-7.7,0-14-2.3-18.8-6.8c-4.9-4.6-7.3-10.7-7.3-18.4
		c0-7.5,2.2-13.6,6.5-18.4c4.5-4.9,10.4-7.4,17.9-7.4c6.3,0,11.6,2.3,15.9,6.8C446.8,76.4,449,81.8,449,88.1z M431.9,85.1
		c0-2-0.7-3.8-2.1-5.3c-1.4-1.5-3.1-2.3-5.1-2.3c-2.1,0-3.7,0.9-5.1,2.6c-1.2,1.6-1.9,3.5-1.9,5.6c0,0.9,0.5,1.3,1.4,1.3
		c2.4,0,6.2-0.4,11.2-1.1C431.3,85.7,431.9,85.5,431.9,85.1z"/>
	<path id="XMLID_171_" class="st1" d="M503.4,90.2c0,2.5,0.1,6.2,0.4,11.2c0.3,4.9,0.4,8.7,0.4,11.1c0,1.3-0.6,2-1.7,2.1
		c-4,0.3-8.7,0.4-13.9,0.4c-0.6,0-1-0.9-1.2-2.8c-0.2-1.9-0.5-2.8-0.8-2.9c-0.3,0.1-0.6,0.4-1,0.8c-3.6,3.7-7.6,5.5-11.7,5.5
		c-6.3,0-11.6-2.5-15.8-7.5c-3.9-4.7-5.9-10.3-5.9-16.8c0-7.5,2-13.6,6.1-18.2c4.2-4.8,10-7.1,17.4-7.1c5.1,0,9.1,1.8,12.1,5.4
		c0.1,0.2,0.2,0.2,0.3,0.2c0.3,0,0.6-0.8,1-2.4c0.4-1.6,0.8-2.4,1.3-2.4c1.2,0,3.5,0.3,6.9,1c3.2,0.7,5.5,1.2,6.9,1.7
		c0.5,0.2,0.7,0.5,0.7,0.8c0,0.1,0,0.5-0.1,1C503.9,77.4,503.4,83.6,503.4,90.2z M487.7,90.5c0-2.8-0.9-5.1-2.6-6.9
		c-1.7-1.8-4-2.7-6.8-2.7c-2.8,0-5.1,0.9-6.8,2.7c-1.7,1.8-2.6,4.1-2.6,6.9c0,2.6,0.9,4.9,2.7,6.8c1.8,1.9,4,2.8,6.6,2.8
		c2.8,0,5-0.9,6.8-2.7S487.7,93.3,487.7,90.5z"/>
	<path id="XMLID_174_" class="st1" d="M545.5,84.2c0,1.3-0.7,1.9-2.1,1.9c-0.6,0-1.5,0-2.7-0.1c-1.2-0.1-2.1-0.1-2.7-0.1
		c-2.7,0-4.5,0.4-5.5,1.3c-1,0.8-1.5,2.6-1.5,5.1c0,1.4,0,3.5,0.1,6.4c0,2.8,0.1,5,0.1,6.4c0,0.9,0.1,2.4,0.2,4.2
		c0.1,1.9,0.2,3.3,0.2,4.2c0,0.8-0.5,1.2-1.6,1.3c-1.6,0.1-4,0.2-7.2,0.2c-3.1,0-5.6-0.1-7.4-0.3c-1.1-0.1-1.6-0.7-1.6-1.6
		c0-2.6,0-6.5,0-11.7c0-5.2,0-9.1,0-11.7c0-7.6-0.7-13.9-2.1-18.9c-0.1-0.3-0.1-0.5-0.1-0.7c0-0.5,0.2-0.8,0.7-1
		c1.8-0.2,4.4-0.6,7.9-1.1c5.1-1,7.8-1.5,8-1.5c0.6,0,1,1,1.1,3.1c0.2,2.1,0.5,3.1,0.9,3.1c-0.5,0,0.9-0.9,4-2.6s6.1-2.6,9-2.6
		c1.8,0,2.7,0.4,2.7,1.2c0,0.9-0.1,2.3-0.3,4c-0.2,1.9-0.3,3.2-0.3,4c0,0.9,0,2.2,0,3.8C545.5,82.3,545.5,83.6,545.5,84.2z"/>
	<path id="XMLID_176_" class="st1" d="M599.7,113.2c0,0.9-0.5,1.4-1.4,1.5c-0.9,0.1-3.3,0.2-7.1,0.2c-4.1,0-6.6-0.1-7.6-0.3
		s-1.5-0.9-1.5-2c0-1.5,0-3.8,0.1-6.9c0.1-3.1,0.1-5.4,0.1-7c0-1.2,0-3-0.1-5.4c-0.1-2.4-0.1-4.2-0.1-5.4c0-4.5-1.9-6.7-5.8-6.7
		c-1.3,0-2.8,0.6-4.4,1.7c-1.8,1.2-2.7,2.5-2.7,3.7v26.4c0,1.1-0.5,1.7-1.5,1.8c-1.1,0.1-3.5,0.2-7,0.2c-3.8,0-6.3-0.1-7.4-0.3
		c-1-0.2-1.5-0.7-1.5-1.6c0-2.5,0-6.4,0-11.5c0-5.1,0-9,0-11.5c0-8.1-0.6-14.5-1.9-19.1c-0.1-0.3-0.1-0.5-0.1-0.7
		c0-0.5,0.2-0.9,0.7-1.1c2.1-0.2,4.8-0.6,8.2-1.1c5.2-1,8.1-1.5,8.7-1.5c0.4,0,0.6,1.1,0.8,3.3s0.5,3.3,0.8,3.3
		c-0.4,0,1.4-1.1,5.2-3.4c3.9-2.3,7.2-3.4,10.1-3.4c4.1,0,7.6,1,10.4,2.9c3.1,2.2,4.6,5.4,4.6,9.4v15.6c0,2.1,0,5.3,0,9.5
		C599.7,107.9,599.7,111.1,599.7,113.2z"/>
	<path id="XMLID_178_" class="st1" d="M626,92.2c0,2.4,0,5.9,0.1,10.6c0.1,4.7,0.1,8.2,0.1,10.6c0,0.7-0.4,1.1-1.2,1.2
		c-1.1,0.2-3.6,0.3-7.5,0.3c-3.9,0-6.4-0.1-7.5-0.3c-0.7-0.1-1.2-0.3-1.3-0.6c-0.1-0.1-0.1-0.6-0.1-1.5c0-2.2,0-5.6,0.1-10.1
		c0.1-4.5,0.1-7.9,0.1-10.2c0-9.2-0.4-16.6-1.1-22.1c-0.1-0.5-0.1-0.9-0.1-1c0-0.7,0.4-1,1.3-1c0.9,0,2.3,0.1,4.2,0.3
		c1.9,0.2,3.3,0.3,4.2,0.3c0.9,0,2.4-0.1,4.2-0.2c1.9-0.2,3.3-0.2,4.2-0.2c0.8,0,1.2,0.3,1.2,1c0,0.1,0,0.4-0.1,0.9
		C626.3,76.5,626,83.8,626,92.2z M627.2,55.9c0,5.7-3.2,8.5-9.6,8.5c-2.7,0-5-0.7-6.8-2.1c-2-1.6-2.9-3.7-2.9-6.3c0-2.5,1-4.6,3-6.3
		c1.9-1.5,4.1-2.2,6.7-2.2c2.5,0,4.7,0.8,6.6,2.3C626.2,51.3,627.2,53.4,627.2,55.9z"/>
	<path id="XMLID_181_" class="st1" d="M683.9,113.2c0,0.9-0.5,1.4-1.4,1.5c-0.9,0.1-3.3,0.2-7.1,0.2c-4.1,0-6.6-0.1-7.6-0.3
		s-1.5-0.9-1.5-2c0-1.5,0-3.8,0.1-6.9c0.1-3.1,0.1-5.4,0.1-7c0-1.2,0-3-0.1-5.4c-0.1-2.4-0.1-4.2-0.1-5.4c0-4.5-1.9-6.7-5.8-6.7
		c-1.3,0-2.8,0.6-4.4,1.7c-1.8,1.2-2.7,2.5-2.7,3.7v26.4c0,1.1-0.5,1.7-1.5,1.8c-1.1,0.1-3.5,0.2-7,0.2c-3.8,0-6.3-0.1-7.4-0.3
		c-1-0.2-1.5-0.7-1.5-1.6c0-2.5,0-6.4,0-11.5c0-5.1,0-9,0-11.5c0-8.1-0.6-14.5-1.9-19.1c-0.1-0.3-0.1-0.5-0.1-0.7
		c0-0.5,0.2-0.9,0.7-1.1c2.1-0.2,4.8-0.6,8.2-1.1c5.2-1,8.1-1.5,8.7-1.5c0.4,0,0.6,1.1,0.8,3.3s0.5,3.3,0.8,3.3
		c-0.4,0,1.4-1.1,5.2-3.4c3.9-2.3,7.2-3.4,10.1-3.4c4.1,0,7.6,1,10.4,2.9c3.1,2.2,4.6,5.4,4.6,9.4v15.6c0,2.1,0,5.3,0,9.5
		C683.9,107.9,683.9,111.1,683.9,113.2z"/>
	<path id="XMLID_183_" class="st1" d="M740.7,101.9c0,9.3-2,15.9-5.9,20c-4,4.1-10.7,6.2-20.1,6.2c-2.7,0-6.5-0.4-11.2-1.3
		c-6-1.1-9-2.4-9-3.9c0-0.6,0.7-3.8,2.1-9.6c0.2-0.9,0.6-1.4,1.1-1.4c0.2,0,0.3,0.1,0.5,0.2c5,2.5,9.7,3.7,13.9,3.7
		c2.3,0,4.7-0.6,7-1.8c2.8-1.4,4.2-3.2,4.2-5.3v-3.3c-3.3,3.1-7.6,4.7-12.8,4.7c-6.1,0-11.1-2.2-15.1-6.6c-3.8-4.2-5.7-9.4-5.7-15.6
		c0-6.2,1.8-11.4,5.5-15.5c3.8-4.3,8.8-6.4,14.9-6.4c4.9,0,8.7,1.8,11.3,5.3c0.5,0.7,0.9,1.1,1.1,1.1c0.3,0,0.4-0.6,0.4-1.8
		c0-2.6,0.3-3.9,0.9-3.9c0.5,0,3.3,0.3,8.4,0.8c5.1,0.5,7.8,0.8,8,0.9c0.6,0.2,0.8,0.6,0.8,1.3c0,2.2-0.1,5.6-0.2,10.1
		c-0.1,4.5-0.2,7.8-0.2,10.1c0,1.3,0,3.3,0,6C740.7,98.6,740.7,100.6,740.7,101.9z M723.8,88.4c0-2.4-0.8-4.4-2.4-6.2
		c-1.6-1.7-3.6-2.6-5.9-2.6c-2.4,0-4.4,0.9-5.9,2.7c-1.6,1.8-2.4,3.8-2.4,6.2c0,2.4,0.8,4.4,2.4,6.2c1.6,1.7,3.6,2.6,5.9,2.6
		c2.4,0,4.4-0.9,5.9-2.6C723,92.8,723.8,90.8,723.8,88.4z"/>
</g>
<g id="XMLID_115_">
	<path id="XMLID_116_" class="st1" d="M1159,166.6c0,1-0.5,1.5-1.4,1.5h-17.3c-0.9,0-1.4-0.6-1.4-1.7c0-3.3,0.1-8.2,0.4-14.8
		c0.2-6.6,0.4-11.5,0.4-14.8c0-0.9-0.1-1.4-0.4-1.5c-0.4,0.2-2.5,5.2-6.5,15.1c-2.3,5.8-4.7,11.6-7,17.3c-0.3,0.7-0.7,1.2-1.2,1.3
		c-0.2,0-0.8,0-2,0c-1.7,0-2.7-0.3-3-1c-1.8-3.6-4.1-8.8-6.9-15.6c-3.1-7.2-5.4-12.5-6.9-15.7c-0.1-0.2-0.2-0.3-0.4-0.5
		c-0.2,0.3-0.3,0.8-0.3,1.4c0,3.2,0.1,8,0.2,14.4c0.2,6.4,0.2,11.2,0.2,14.4c0,1.1-0.5,1.7-1.4,1.7h-16.3c-0.7,0-1-0.1-1.2-0.3
		c-0.1-0.2-0.2-0.6-0.2-1.1c0-3.5,0.2-8.9,0.5-16c0.3-7.1,0.5-12.4,0.5-16c0-3.8-0.2-10.9-0.5-21.2c0-2.7-0.2-6.7-0.4-12.1l0-0.8
		c0-0.7,0.7-1,2.1-1c1.8,0,4.5-0.1,8.1-0.2c3.6-0.1,6.3-0.2,8.1-0.2c0.4,0,0.9,0.7,1.5,2.1l14.3,31.3c1,2.1,1.9,3.2,2.5,3.2
		c0.4,0,1.1-1.2,2.3-3.7c3.3-6.8,8.2-17.1,14.6-30.9c0.6-1.3,1.2-1.9,1.8-1.9c0.9,0,2.4,0,4.3,0.1s3.3,0.1,4.3,0.1
		c0.8,0,2.1-0.1,3.7-0.2c1.7-0.2,2.9-0.2,3.7-0.2c1,0,1.5,0.4,1.5,1.2c0,3.8-0.1,9.6-0.4,17.2c-0.3,7.6-0.4,13.4-0.4,17.2
		c0,3.5,0.1,8.9,0.4,16C1158.9,157.8,1159,163.1,1159,166.6z"/>
	<path id="XMLID_118_" class="st1" d="M1216.8,143.7c0,2.5,0.1,6.2,0.4,11.2c0.3,4.9,0.4,8.7,0.4,11.1c0,1.3-0.6,2-1.7,2.1
		c-4,0.3-8.7,0.4-13.9,0.4c-0.6,0-1-0.9-1.2-2.8c-0.2-1.9-0.5-2.8-0.8-2.9c-0.3,0.1-0.6,0.4-1,0.8c-3.6,3.7-7.6,5.5-11.7,5.5
		c-6.3,0-11.6-2.5-15.8-7.5c-3.9-4.7-5.9-10.3-5.9-16.8c0-7.5,2-13.6,6.1-18.2c4.2-4.8,10-7.1,17.4-7.1c5.1,0,9.1,1.8,12.1,5.4
		c0.1,0.2,0.2,0.2,0.3,0.2c0.3,0,0.6-0.8,1-2.4c0.4-1.6,0.8-2.4,1.3-2.4c1.2,0,3.5,0.3,6.9,1c3.2,0.7,5.5,1.2,6.9,1.7
		c0.5,0.2,0.7,0.5,0.7,0.8c0,0.1,0,0.5-0.1,1C1217.3,130.9,1216.8,137.1,1216.8,143.7z M1201.1,144c0-2.8-0.9-5.1-2.6-6.9
		s-4-2.7-6.8-2.7s-5.1,0.9-6.8,2.7c-1.7,1.8-2.6,4.1-2.6,6.9c0,2.6,0.9,4.9,2.7,6.8c1.8,1.9,4,2.8,6.6,2.8c2.8,0,5-0.9,6.8-2.7
		S1201.1,146.8,1201.1,144z"/>
	<path id="XMLID_121_" class="st1" d="M1258.9,136c0,0-1-0.3-3-0.8c-1.9-0.5-3.5-0.8-4.7-0.8c-2.9,0-5.2,0.9-6.9,2.6
		c-1.7,1.7-2.6,4.1-2.6,7c0,3,0.9,5.3,2.8,7.1c1.9,1.7,4.3,2.6,7.4,2.6c1.4,0,3-0.4,4.8-1.1c1.8-0.7,2.6-1.1,2.5-1.1
		c0.6,0,1.3,2.1,2.1,6.2c0.7,3.8,1.1,6.3,1.1,7.5c0,1.2-2,2.3-6.1,3.2c-3.1,0.7-5.6,1-7.6,1c-7.2,0-13.1-2.4-17.7-7.2
		c-4.7-4.8-7-10.8-7-18c0-7.1,2.3-13.1,7-18c4.7-4.9,10.6-7.3,17.7-7.3c4.8,0,9.1,1,12.8,3.1c0.8,0.5,1.3,0.9,1.3,1.3
		c0,0.4-0.5,2.3-1.5,5.8c-0.9,3.3-1.5,5.3-1.8,6C1259.4,135.6,1259.2,136,1258.9,136z"/>
	<path id="XMLID_123_" class="st1" d="M1316.9,132.7l-0.1,33.7c0,1.1-0.5,1.8-1.4,1.9c-1,0.1-3.4,0.2-7.1,0.2
		c-3.6,0-6.1-0.1-7.5-0.4c-1.1-0.2-1.6-0.9-1.6-2.1c0-2.8,0-7,0.1-12.6c0.1-5.6,0.1-9.8,0.1-12.6c0-3.8-1.9-5.7-5.8-5.7
		c-1.3,0-2.8,0.5-4.6,1.6c-1.9,1.1-2.9,2.3-2.9,3.6v12.1c0,1.6,0,3.9,0.1,7.1c0.1,3.1,0.1,5.5,0.1,7.1c0,1.2-0.5,1.9-1.5,2
		c-1,0.1-3.8,0.2-8.5,0.2c-2.7,0-4.6-0.1-5.8-0.4s-1.8-0.8-1.8-1.7c0-2.6,0-6.4,0-11.6c0-5.2,0-9,0-11.6c0-10.6-0.1-19.4-0.3-26.4
		c-0.1-2.4-0.2-4.9-0.2-7.3c-0.2-2.8-0.5-5.3-0.9-7.3c-0.1-0.4-0.1-0.7-0.1-0.9c0-0.5,0.2-0.8,0.7-1c1-0.3,2.5-0.5,4.4-0.5
		c2.6-0.1,4.1-0.2,4.5-0.2l8.8-1c0.5,0,0.8,0.3,0.8,1c0,1-0.1,2.5-0.2,4.2c-0.1,2.1-0.2,3.5-0.2,4.2c-0.2,7.4-0.3,13.2-0.3,17.4
		c0,0.7,0.2,1,0.5,1c0.1,0,0.9-0.6,2.5-1.7c1.9-1.3,3.7-2.4,5.4-3.2c2.6-1.1,5.1-1.7,7.5-1.7c4.2,0,7.6,1.1,10.4,3.3
		C1315.4,125.4,1316.9,128.6,1316.9,132.7z"/>
	<path id="XMLID_125_" class="st1" d="M1342.9,145.7c0,2.4,0,5.9,0.1,10.6c0.1,4.7,0.1,8.2,0.1,10.6c0,0.7-0.4,1.1-1.2,1.2
		c-1.1,0.2-3.6,0.3-7.5,0.3c-3.9,0-6.4-0.1-7.5-0.3c-0.7-0.1-1.2-0.3-1.3-0.6c-0.1-0.1-0.1-0.6-0.1-1.5c0-2.2,0-5.6,0.1-10.1
		c0.1-4.5,0.1-7.9,0.1-10.2c0-9.2-0.4-16.6-1.1-22.1c-0.1-0.5-0.1-0.9-0.1-1c0-0.7,0.4-1,1.3-1c0.9,0,2.3,0.1,4.2,0.3
		c1.9,0.2,3.3,0.3,4.2,0.3c0.9,0,2.4-0.1,4.2-0.2c1.9-0.2,3.3-0.2,4.2-0.2c0.8,0,1.2,0.3,1.2,1c0,0.1,0,0.4-0.1,0.9
		C1343.3,130,1342.9,137.3,1342.9,145.7z M1344.2,109.4c0,5.7-3.2,8.5-9.6,8.5c-2.7,0-5-0.7-6.8-2.1c-2-1.6-2.9-3.7-2.9-6.3
		c0-2.5,1-4.6,3-6.3c1.9-1.5,4.1-2.2,6.7-2.2c2.5,0,4.7,0.8,6.6,2.3C1343.2,104.8,1344.2,106.9,1344.2,109.4z"/>
	<path id="XMLID_128_" class="st1" d="M1400.9,166.7c0,0.9-0.5,1.4-1.4,1.5c-0.9,0.1-3.3,0.2-7.1,0.2c-4.1,0-6.6-0.1-7.6-0.3
		s-1.5-0.9-1.5-2c0-1.5,0-3.8,0.1-6.9c0.1-3.1,0.1-5.4,0.1-7c0-1.2,0-3-0.1-5.4c-0.1-2.4-0.1-4.2-0.1-5.4c0-4.5-1.9-6.7-5.8-6.7
		c-1.3,0-2.8,0.6-4.4,1.7c-1.8,1.2-2.7,2.5-2.7,3.7v26.4c0,1.1-0.5,1.7-1.5,1.8c-1.1,0.1-3.5,0.2-7,0.2c-3.8,0-6.3-0.1-7.4-0.3
		c-1-0.2-1.5-0.7-1.5-1.6c0-2.5,0-6.4,0-11.5c0-5.1,0-9,0-11.5c0-8.1-0.6-14.5-1.9-19.1c-0.1-0.3-0.1-0.5-0.1-0.7
		c0-0.5,0.2-0.9,0.7-1.1c2.1-0.2,4.8-0.6,8.2-1.1c5.2-1,8.1-1.5,8.7-1.5c0.4,0,0.6,1.1,0.8,3.3s0.5,3.3,0.8,3.3
		c-0.4,0,1.4-1.1,5.2-3.4c3.9-2.3,7.2-3.4,10.1-3.4c4.1,0,7.6,1,10.4,2.9c3.1,2.2,4.6,5.4,4.6,9.4v15.6c0,2.1,0,5.3,0,9.5
		C1400.8,161.4,1400.9,164.6,1400.9,166.7z"/>
	<path id="XMLID_130_" class="st1" d="M1453.7,141.6c0,3.3-1.1,5.2-3.2,5.6c-0.4,0.1-3.7,0.4-10.1,1.1c-3.8,0.4-9.6,0.9-17.2,1.5
		c0.5,2.1,1.8,3.7,4.2,4.8c1.9,0.9,4,1.4,6.4,1.4c2.9,0,5.8-0.8,8.7-2.3c1.2-0.8,2.5-1.6,3.7-2.3c0.7,0.3,1.8,2,3.4,5
		c1.6,3,2.4,4.9,2.4,5.7c0,0.2-0.2,0.6-0.7,1.1c-4,4.3-10.1,6.4-18.5,6.4c-7.7,0-14-2.3-18.8-6.8c-4.9-4.6-7.3-10.7-7.3-18.4
		c0-7.5,2.2-13.6,6.5-18.4c4.5-4.9,10.4-7.4,17.9-7.4c6.3,0,11.6,2.3,15.9,6.8C1451.6,129.9,1453.7,135.3,1453.7,141.6z
		 M1436.6,138.6c0-2-0.7-3.8-2.1-5.3c-1.4-1.5-3.1-2.3-5.1-2.3c-2.1,0-3.7,0.9-5.1,2.6c-1.2,1.6-1.9,3.5-1.9,5.6
		c0,0.9,0.5,1.3,1.4,1.3c2.4,0,6.2-0.4,11.2-1.1C1436.1,139.2,1436.6,139,1436.6,138.6z"/>
	<path id="XMLID_133_" class="st1" d="M1130.4,288.9c-2.8,0-6.4-0.1-10.9-0.2c-5.9-0.1-9.5-0.2-10.9-0.2l-14.6-0.2
		c-1.5,0-3.6,0-6.3-0.2c-0.9-0.2-1.4-0.7-1.4-1.5c0-3.5,0.1-8.9,0.2-15.9s0.2-12.4,0.2-15.9c0-3.8-0.1-9.4-0.3-17
		c-0.2-7.5-0.3-13.2-0.3-17c0-0.7,0.5-1.1,1.5-1.1s2.4,0,4.4,0.1s3.4,0.1,4.3,0.1c1.1,0,2.7-0.1,4.8-0.2c2.1-0.1,3.7-0.2,4.8-0.2
		c0.5,0,0.7,0.3,0.7,0.9l0,0.6c-0.4,6.1-0.8,15.3-1.3,27.6l0,12.9c0,4.2,0,7.2,0,9.1c0,0.4,0.1,0.8,0.1,1.2s0.3,0.6,0.7,0.7
		c0,0,0.5,0,1.3,0c2.9,0,7.3-0.2,13.2-0.5c5.8-0.3,10.2-0.5,13.2-0.5c0.9,0,1.3,0.4,1.3,1.1c0,5.6-0.4,10.4-1.2,14.4
		c-0.2,0.8-0.5,1.4-1,1.5C1132.2,288.9,1131.6,288.9,1130.4,288.9z"/>
	<path id="XMLID_135_" class="st1" d="M1184.6,261.6c0,3.3-1.1,5.2-3.2,5.6c-0.4,0.1-3.7,0.4-10.1,1.1c-3.8,0.4-9.6,0.9-17.2,1.5
		c0.5,2.1,1.8,3.7,4.2,4.8c1.9,0.9,4,1.4,6.4,1.4c2.9,0,5.8-0.8,8.7-2.3c1.2-0.8,2.5-1.6,3.7-2.3c0.7,0.3,1.8,2,3.4,5
		c1.6,3,2.4,4.9,2.4,5.7c0,0.2-0.2,0.6-0.7,1.1c-4,4.3-10.1,6.4-18.5,6.4c-7.7,0-14-2.3-18.8-6.8c-4.9-4.6-7.3-10.7-7.3-18.4
		c0-7.5,2.2-13.6,6.5-18.4c4.5-4.9,10.4-7.4,17.9-7.4c6.3,0,11.6,2.3,15.9,6.8C1182.4,249.9,1184.6,255.3,1184.6,261.6z
		 M1167.5,258.6c0-2-0.7-3.8-2.1-5.3c-1.4-1.5-3.1-2.3-5.1-2.3c-2.1,0-3.7,0.9-5.1,2.6c-1.2,1.6-1.9,3.5-1.9,5.6
		c0,0.9,0.5,1.3,1.4,1.3c2.4,0,6.2-0.4,11.2-1.1C1167,259.2,1167.5,259,1167.5,258.6z"/>
	<path id="XMLID_138_" class="st1" d="M1239,263.7c0,2.5,0.1,6.2,0.4,11.2c0.3,4.9,0.4,8.7,0.4,11.1c0,1.3-0.6,2-1.7,2.1
		c-4,0.3-8.7,0.4-13.9,0.4c-0.6,0-1-0.9-1.2-2.8c-0.2-1.9-0.5-2.8-0.8-2.9c-0.3,0.1-0.6,0.4-1,0.8c-3.6,3.7-7.6,5.5-11.7,5.5
		c-6.3,0-11.6-2.5-15.8-7.5c-3.9-4.7-5.9-10.3-5.9-16.8c0-7.5,2-13.6,6.1-18.2c4.2-4.8,10-7.1,17.4-7.1c5.1,0,9.1,1.8,12.1,5.4
		c0.1,0.2,0.2,0.2,0.3,0.2c0.3,0,0.6-0.8,1-2.4c0.4-1.6,0.8-2.4,1.3-2.4c1.2,0,3.5,0.3,6.9,1c3.2,0.7,5.5,1.2,6.9,1.7
		c0.5,0.2,0.7,0.5,0.7,0.8c0,0.1,0,0.5-0.1,1C1239.6,250.9,1239,257.1,1239,263.7z M1223.3,264c0-2.8-0.9-5.1-2.6-6.9
		s-4-2.7-6.8-2.7s-5.1,0.9-6.8,2.7c-1.7,1.8-2.6,4.1-2.6,6.9c0,2.6,0.9,4.9,2.7,6.8c1.8,1.9,4,2.8,6.6,2.8c2.8,0,5-0.9,6.8-2.7
		S1223.3,266.8,1223.3,264z"/>
	<path id="XMLID_141_" class="st1" d="M1281.1,257.7c0,1.3-0.7,1.9-2.1,1.9c-0.6,0-1.5,0-2.7-0.1c-1.2-0.1-2.1-0.1-2.7-0.1
		c-2.7,0-4.5,0.4-5.5,1.3c-1,0.8-1.5,2.6-1.5,5.1c0,1.4,0,3.5,0.1,6.4c0,2.8,0.1,5,0.1,6.4c0,0.9,0.1,2.4,0.2,4.2
		c0.1,1.9,0.2,3.3,0.2,4.2c0,0.8-0.5,1.2-1.6,1.3c-1.6,0.1-4,0.2-7.2,0.2c-3.1,0-5.6-0.1-7.4-0.3c-1.1-0.1-1.6-0.7-1.6-1.6
		c0-2.6,0-6.5,0-11.7c0-5.2,0-9.1,0-11.7c0-7.6-0.7-13.9-2.1-18.9c-0.1-0.3-0.1-0.5-0.1-0.7c0-0.5,0.2-0.8,0.7-1
		c1.8-0.2,4.4-0.6,7.9-1.1c5.1-1,7.8-1.5,8-1.5c0.6,0,1,1,1.1,3.1c0.2,2.1,0.5,3.1,0.9,3.1c-0.5,0,0.9-0.9,4-2.6s6.1-2.6,9-2.6
		c1.8,0,2.7,0.4,2.7,1.2c0,0.9-0.1,2.3-0.3,4c-0.2,1.9-0.3,3.2-0.3,4c0,0.9,0,2.2,0,3.8C1281.1,255.8,1281.1,257.1,1281.1,257.7z"/>
	<path id="XMLID_143_" class="st1" d="M1335.4,286.7c0,0.9-0.5,1.4-1.4,1.5c-0.9,0.1-3.3,0.2-7.1,0.2c-4.1,0-6.6-0.1-7.6-0.3
		s-1.5-0.9-1.5-2c0-1.5,0-3.8,0.1-6.9c0.1-3.1,0.1-5.4,0.1-7c0-1.2,0-3-0.1-5.4c-0.1-2.4-0.1-4.2-0.1-5.4c0-4.5-1.9-6.7-5.8-6.7
		c-1.3,0-2.8,0.6-4.4,1.7c-1.8,1.2-2.7,2.5-2.7,3.7v26.4c0,1.1-0.5,1.7-1.5,1.8c-1.1,0.1-3.5,0.2-7,0.2c-3.8,0-6.3-0.1-7.4-0.3
		c-1-0.2-1.5-0.7-1.5-1.6c0-2.5,0-6.4,0-11.5c0-5.1,0-9,0-11.5c0-8.1-0.6-14.5-1.9-19.1c-0.1-0.3-0.1-0.5-0.1-0.7
		c0-0.5,0.2-0.9,0.7-1.1c2.1-0.2,4.8-0.6,8.2-1.1c5.2-1,8.1-1.5,8.7-1.5c0.4,0,0.6,1.1,0.8,3.3s0.5,3.3,0.8,3.3
		c-0.4,0,1.4-1.1,5.2-3.4c3.9-2.3,7.2-3.4,10.1-3.4c4.1,0,7.6,1,10.4,2.9c3.1,2.2,4.6,5.4,4.6,9.4v15.6c0,2.1,0,5.3,0,9.5
		C1335.4,281.4,1335.4,284.6,1335.4,286.7z"/>
	<path id="XMLID_145_" class="st1" d="M1361.6,265.7c0,2.4,0,5.9,0.1,10.6c0.1,4.7,0.1,8.2,0.1,10.6c0,0.7-0.4,1.1-1.2,1.2
		c-1.1,0.2-3.6,0.3-7.5,0.3c-3.9,0-6.4-0.1-7.5-0.3c-0.7-0.1-1.2-0.3-1.3-0.6c-0.1-0.1-0.1-0.6-0.1-1.5c0-2.2,0-5.6,0.1-10.1
		c0.1-4.5,0.1-7.9,0.1-10.2c0-9.2-0.4-16.6-1.1-22.1c-0.1-0.5-0.1-0.9-0.1-1c0-0.7,0.4-1,1.3-1c0.9,0,2.3,0.1,4.2,0.3
		c1.9,0.2,3.3,0.3,4.2,0.3c0.9,0,2.4-0.1,4.2-0.2c1.9-0.2,3.3-0.2,4.2-0.2c0.8,0,1.2,0.3,1.2,1c0,0.1,0,0.4-0.1,0.9
		C1362,250,1361.6,257.3,1361.6,265.7z M1362.9,229.4c0,5.7-3.2,8.5-9.6,8.5c-2.7,0-5-0.7-6.8-2.1c-2-1.6-2.9-3.7-2.9-6.3
		c0-2.5,1-4.6,3-6.3c1.9-1.5,4.1-2.2,6.7-2.2c2.5,0,4.7,0.8,6.6,2.3C1361.9,224.8,1362.9,226.9,1362.9,229.4z"/>
	<path id="XMLID_148_" class="st1" d="M1419.6,286.7c0,0.9-0.5,1.4-1.4,1.5c-0.9,0.1-3.3,0.2-7.1,0.2c-4.1,0-6.6-0.1-7.6-0.3
		s-1.5-0.9-1.5-2c0-1.5,0-3.8,0.1-6.9c0.1-3.1,0.1-5.4,0.1-7c0-1.2,0-3-0.1-5.4c-0.1-2.4-0.1-4.2-0.1-5.4c0-4.5-1.9-6.7-5.8-6.7
		c-1.3,0-2.8,0.6-4.4,1.7c-1.8,1.2-2.7,2.5-2.7,3.7v26.4c0,1.1-0.5,1.7-1.5,1.8c-1.1,0.1-3.5,0.2-7,0.2c-3.8,0-6.3-0.1-7.4-0.3
		c-1-0.2-1.5-0.7-1.5-1.6c0-2.5,0-6.4,0-11.5c0-5.1,0-9,0-11.5c0-8.1-0.6-14.5-1.9-19.1c-0.1-0.3-0.1-0.5-0.1-0.7
		c0-0.5,0.2-0.9,0.7-1.1c2.1-0.2,4.8-0.6,8.2-1.1c5.2-1,8.1-1.5,8.7-1.5c0.4,0,0.6,1.1,0.8,3.3s0.5,3.3,0.8,3.3
		c-0.4,0,1.4-1.1,5.2-3.4c3.9-2.3,7.2-3.4,10.1-3.4c4.1,0,7.6,1,10.4,2.9c3.1,2.2,4.6,5.4,4.6,9.4v15.6c0,2.1,0,5.3,0,9.5
		C1419.5,281.4,1419.6,284.6,1419.6,286.7z"/>
	<path id="XMLID_150_" class="st1" d="M1476.3,275.4c0,9.3-2,15.9-5.9,20c-4,4.1-10.7,6.2-20.1,6.2c-2.7,0-6.5-0.4-11.2-1.3
		c-6-1.1-9-2.4-9-3.9c0-0.6,0.7-3.8,2.1-9.6c0.2-0.9,0.6-1.4,1.1-1.4c0.2,0,0.3,0.1,0.5,0.2c5,2.5,9.7,3.7,13.9,3.7
		c2.3,0,4.7-0.6,7-1.8c2.8-1.4,4.2-3.2,4.2-5.3V279c-3.3,3.1-7.6,4.7-12.8,4.7c-6.1,0-11.1-2.2-15.1-6.6c-3.8-4.2-5.7-9.4-5.7-15.6
		c0-6.2,1.8-11.4,5.5-15.5c3.8-4.3,8.8-6.4,14.9-6.4c4.9,0,8.7,1.8,11.3,5.3c0.5,0.7,0.9,1.1,1.1,1.1c0.3,0,0.4-0.6,0.4-1.8
		c0-2.6,0.3-3.9,0.9-3.9c0.5,0,3.3,0.3,8.4,0.8c5.1,0.5,7.8,0.8,8,0.9c0.6,0.2,0.8,0.6,0.8,1.3c0,2.2-0.1,5.6-0.2,10.1
		c-0.1,4.5-0.2,7.8-0.2,10.1c0,1.3,0,3.3,0,6C1476.3,272.1,1476.3,274.1,1476.3,275.4z M1459.4,261.9c0-2.4-0.8-4.4-2.4-6.2
		c-1.6-1.7-3.6-2.6-5.9-2.6c-2.4,0-4.4,0.9-5.9,2.7c-1.6,1.8-2.4,3.8-2.4,6.2c0,2.4,0.8,4.4,2.4,6.2c1.6,1.7,3.6,2.6,5.9,2.6
		c2.4,0,4.4-0.9,5.9-2.6C1458.7,266.3,1459.4,264.3,1459.4,261.9z"/>
</g>
<g id="XMLID_91_">
	<path id="XMLID_92_" class="st1" d="M497.3,299.6c0,0.5-0.3,1.2-1,2.1c-6,7.1-13.9,10.7-23.9,10.7c-10.2,0-18.4-3.5-24.7-10.4
		c-6.2-6.7-9.2-15.2-9.2-25.4c0-9.9,3-18.3,9-25.2c6.3-7.2,14.3-10.8,24-10.8c10.5,0,18.8,3.2,24.8,9.7c0.7,0.7,1,1.4,1,1.9
		c0,0.6-1.1,2.9-3.4,6.9c-2.3,4-3.7,6.2-4.3,6.7c-0.3,0.3-0.6,0.4-1,0.4c-0.2,0-1-0.7-2.4-2c-1.8-1.6-3.5-2.8-5.2-3.7
		c-2.6-1.3-5.2-2-8-2c-4.8,0-8.6,1.8-11.5,5.4c-2.6,3.3-4,7.4-4,12.3c0,4.9,1.3,9.1,4,12.5c2.9,3.6,6.7,5.5,11.5,5.5
		c2.8,0,5.5-0.6,8.1-1.9c1.7-0.8,3.4-2,5.1-3.4c1.4-1.2,2.2-1.9,2.4-1.9c0.3,0,0.7,0.2,1,0.5c0.5,0.6,1.9,2.6,4.2,6.1
		C496.1,297.2,497.3,299.2,497.3,299.6z"/>
	<path id="XMLID_94_" class="st1" d="M520,281.2c0,8.9,0,15.7,0.1,20.5c0,0.7,0,2,0.1,3.9c0.1,1.7,0.1,2.9,0.1,3.9
		c0,0.7-0.4,1.1-1.2,1.2c-1.5,0.3-4.1,0.4-7.9,0.4c-3.9,0-6.4-0.1-7.5-0.4c-0.7-0.2-1.1-0.6-1.2-1.3c0-0.1,0-0.8,0-2.1
		c0-2.9,0-7.2,0.1-13c0.1-5.8,0.1-10.1,0.1-13c0-13.7,0-19.9,0-18.7c-0.1-7.2-0.5-13.4-1.2-18.6c-0.1-0.4-0.1-0.6-0.1-0.8
		c0-0.7,0.4-1.1,1.3-1.1h17.4c0.8,0,1.2,0.3,1.1,1l0,0.9C520.4,258,520,270.4,520,281.2z"/>
	<path id="XMLID_96_" class="st1" d="M579.2,266.2c0,2.4-0.1,6-0.3,10.8c-0.2,4.8-0.3,8.4-0.3,10.8c0,2.3,0.1,5.9,0.2,10.5
		s0.2,8.2,0.2,10.5c0,0.9-0.4,1.4-1.2,1.7c-1.2,0.3-3.9,0.5-7.9,0.5c-3.5,0-6-0.1-7.4-0.3c-0.6-0.1-1-0.5-1.2-1.2
		c-0.1-1-0.2-2-0.3-2.9c-0.2-1.5-0.4-2.2-0.7-2.2c0.5,0-1.2,1.1-4.9,3.3c-3.7,2.2-7.1,3.3-10.2,3.3c-8.6,0-13.7-3.9-15.3-11.7
		c-0.7-3.6-1.1-8.9-1.1-15.7c0-7.4,0.6-13.3,1.8-17.6c0.4-1.3,1-2,2-2c1.5,0,3.8,0,6.8,0c3.1,0,5.3,0,6.8,0c1,0,1.5,0.4,1.5,1.3
		c0,0.2,0,0.6-0.1,1c-0.7,4.4-1,8.9-1,13.5c0,5.7,0.2,9.5,0.5,11.6c0.6,3.6,2.7,5.4,6.4,5.4c1.4,0,3-0.6,4.7-1.9s2.5-2.6,2.6-4
		c0.1-1.2,0.1-9.4,0.1-24.5c0-1.1,0.1-1.7,0.2-1.9c0.2-0.3,0.8-0.5,1.8-0.5c1.6,0,4,0,7.2,0c3.2,0,5.6,0,7.2,0c1,0,1.5,0.2,1.7,0.7
		C579.2,265.3,579.2,265.7,579.2,266.2z"/>
	<path id="XMLID_98_" class="st1" d="M615.8,271.1c0,0.3-0.2,0.8-0.7,1.3c-0.9-0.2-1.8-0.3-2.7-0.3c-1.9,0-3.5,0.4-4.8,1.3
		c-1.6,1-2.3,2.4-2.3,4.2c0,1.1,0.8,2.6,2.5,4.3c2.5,2.6,4.1,4.4,4.6,5.3c1.7,2.5,2.5,5.1,2.5,8c0,1.7-0.3,3.4-1,5.3
		c-0.7,2.1-1.7,3.5-2.8,4.5c-2.4,2.1-5.2,3.8-8.4,5.3c-3.5,1.5-6.7,2.2-9.6,2.2c-0.7,0-2.1-1.8-4.4-5.3s-3.4-5.7-3.4-6.5
		c0-0.3,0.2-0.5,0.5-0.5c2.3-0.4,4.6-0.8,6.9-1.3c2.9-0.9,4.3-2.4,4.3-4.5c0-1.4-0.8-3.1-2.5-5c-3-3.3-4.5-5-4.6-5.2
		c-1.7-2.3-2.5-4.8-2.5-7.4c0-4.9,2.5-9,7.4-12.5c4.4-3,9.2-4.5,14.2-4.5c0.5,0,1.8,1.8,3.9,5.2
		C614.8,268.5,615.8,270.5,615.8,271.1z"/>
	<path id="XMLID_100_" class="st1" d="M655.5,296.3c0,1-0.1,2.5-0.4,4.4c-0.2,2-0.4,3.4-0.4,4.4s-0.1,1.5-0.3,1.8
		c-0.2,0.3-0.7,0.6-1.6,1.1c-4.2,2.3-8.9,3.5-14,3.5c-9.4,0-14.1-3.6-14.1-10.8c0-2.1,0.1-5.4,0.2-9.7c0.2-4.3,0.2-7.5,0.2-9.7
		c0-1.4-0.8-2.1-2.5-2.1c-0.1,0-0.3,0-0.6,0c-0.3,0-0.5,0-0.6,0c-1.2,0-1.9-0.4-1.9-1.3c0-0.5,0-1.3,0.1-2.4s0.1-1.9,0.1-2.4
		c0-0.7,0-1.7-0.1-3.1c-0.1-1.4-0.1-2.4-0.1-3.1c0-0.7,1-1,3.1-1.1c1.2,0,1.8-0.4,1.9-1c0.2-1.2,0.3-3.2,0.2-5.9
		c-0.1-4.2-0.2-6.2-0.2-6c0-3.8,0.4-5.7,1.1-5.7c0.9,0,2.1,0.2,3.8,0.6c1.9,0.4,3.1,0.7,3.9,0.7c1.7,0.2,4.2,0.5,7.5,0.9
		c0.8,0.1,1.2,0.3,1.2,0.8c0,1.3-0.1,3.3-0.3,5.9s-0.3,4.6-0.3,6c0,1.6,0.5,2.4,1.4,2.4c1.1,0,2.9,0,5.2-0.1s4.1-0.1,5.2-0.1
		c0.7,0,1.1,0.2,1.1,0.7c0,0.7-0.1,1.9-0.2,3.4c-0.2,1.5-0.2,2.6-0.2,3.4c0,0.8,0,1.9,0,3.4c0,1.5,0,2.6,0,3.4c0,0.7-0.5,1-1.4,1
		c-0.7,0-1.7,0-3.3-0.1s-2.6-0.1-3.3-0.1h-3.7c-0.5,0-0.7,0.7-0.7,2.1c0,0.8,0,1.9,0,3.5c0,1.6,0,2.7,0,3.5c0,2.7,0.3,4.6,0.9,5.7
		c0.9,1.4,2.6,2.1,5.2,2.1c0.8,0,2-0.2,3.5-0.6c1.5-0.4,2.6-0.6,3.2-0.6C655.2,295.2,655.5,295.6,655.5,296.3z"/>
	<path id="XMLID_102_" class="st1" d="M705.4,284.1c0,3.3-1.1,5.2-3.2,5.6c-0.4,0.1-3.7,0.4-10.1,1.1c-3.8,0.4-9.6,0.9-17.2,1.5
		c0.5,2.1,1.8,3.7,4.2,4.8c1.9,0.9,4,1.4,6.4,1.4c2.9,0,5.8-0.8,8.7-2.3c1.2-0.8,2.5-1.6,3.7-2.3c0.7,0.3,1.8,2,3.4,5
		c1.6,3,2.4,4.9,2.4,5.7c0,0.2-0.2,0.6-0.7,1.1c-4,4.3-10.1,6.4-18.5,6.4c-7.7,0-14-2.3-18.8-6.8c-4.9-4.6-7.3-10.7-7.3-18.4
		c0-7.5,2.2-13.6,6.5-18.4c4.5-4.9,10.4-7.4,17.9-7.4c6.3,0,11.6,2.3,15.9,6.8C703.2,272.4,705.4,277.8,705.4,284.1z M688.3,281.1
		c0-2-0.7-3.8-2.1-5.3c-1.4-1.5-3.1-2.3-5.1-2.3c-2.1,0-3.7,0.9-5.1,2.6c-1.2,1.6-1.9,3.5-1.9,5.6c0,0.9,0.5,1.3,1.4,1.3
		c2.4,0,6.2-0.4,11.2-1.1C687.7,281.7,688.3,281.5,688.3,281.1z"/>
	<path id="XMLID_105_" class="st1" d="M743.1,280.2c0,1.3-0.7,1.9-2.1,1.9c-0.6,0-1.5,0-2.7-0.1c-1.2-0.1-2.1-0.1-2.7-0.1
		c-2.7,0-4.5,0.4-5.5,1.3c-1,0.8-1.5,2.6-1.5,5.1c0,1.4,0,3.5,0.1,6.4c0,2.8,0.1,5,0.1,6.4c0,0.9,0.1,2.4,0.2,4.2
		c0.1,1.9,0.2,3.3,0.2,4.2c0,0.8-0.5,1.2-1.6,1.3c-1.6,0.1-4,0.2-7.2,0.2c-3.1,0-5.6-0.1-7.4-0.3c-1.1-0.1-1.6-0.7-1.6-1.6
		c0-2.6,0-6.5,0-11.7c0-5.2,0-9.1,0-11.7c0-7.6-0.7-13.9-2.1-18.9c-0.1-0.3-0.1-0.5-0.1-0.7c0-0.5,0.2-0.8,0.7-1
		c1.8-0.2,4.4-0.6,7.9-1.1c5.1-1,7.8-1.5,8-1.5c0.6,0,1,1,1.1,3.1s0.5,3.1,0.9,3.1c-0.5,0,0.9-0.9,4-2.6s6.1-2.6,9-2.6
		c1.8,0,2.7,0.4,2.7,1.2c0,0.9-0.1,2.3-0.3,4c-0.2,1.9-0.3,3.2-0.3,4c0,0.9,0,2.2,0,3.8C743.1,278.3,743.1,279.6,743.1,280.2z"/>
	<path id="XMLID_107_" class="st1" d="M766.9,288.2c0,2.4,0,5.9,0.1,10.6c0.1,4.7,0.1,8.2,0.1,10.6c0,0.7-0.4,1.1-1.2,1.2
		c-1.1,0.2-3.6,0.3-7.5,0.3c-3.9,0-6.4-0.1-7.5-0.3c-0.7-0.1-1.2-0.3-1.3-0.6c-0.1-0.1-0.1-0.6-0.1-1.5c0-2.2,0-5.6,0.1-10.1
		c0.1-4.5,0.1-7.9,0.1-10.2c0-9.2-0.4-16.6-1.1-22.1c-0.1-0.5-0.1-0.9-0.1-1c0-0.7,0.4-1,1.3-1c0.9,0,2.3,0.1,4.2,0.3
		s3.3,0.3,4.2,0.3s2.4-0.1,4.2-0.2c1.9-0.2,3.3-0.2,4.2-0.2c0.8,0,1.2,0.3,1.2,1c0,0.1,0,0.4-0.1,0.9
		C767.3,272.5,766.9,279.8,766.9,288.2z M768.2,251.9c0,5.7-3.2,8.5-9.6,8.5c-2.7,0-5-0.7-6.8-2.1c-2-1.6-2.9-3.7-2.9-6.3
		c0-2.5,1-4.6,3-6.3c1.9-1.5,4.1-2.2,6.7-2.2c2.5,0,4.7,0.8,6.6,2.3C767.2,247.3,768.2,249.4,768.2,251.9z"/>
	<path id="XMLID_110_" class="st1" d="M824.9,309.2c0,0.9-0.5,1.4-1.4,1.5s-3.3,0.2-7.1,0.2c-4.1,0-6.6-0.1-7.6-0.3s-1.5-0.9-1.5-2
		c0-1.5,0-3.8,0.1-6.9c0.1-3.1,0.1-5.4,0.1-7c0-1.2,0-3-0.1-5.4s-0.1-4.2-0.1-5.4c0-4.5-1.9-6.7-5.8-6.7c-1.3,0-2.8,0.6-4.4,1.7
		c-1.8,1.2-2.7,2.5-2.7,3.7v26.4c0,1.1-0.5,1.7-1.5,1.8c-1.1,0.1-3.5,0.2-7,0.2c-3.8,0-6.3-0.1-7.4-0.3c-1-0.2-1.5-0.7-1.5-1.6
		c0-2.5,0-6.4,0-11.5c0-5.1,0-9,0-11.5c0-8.1-0.6-14.5-1.9-19.1c-0.1-0.3-0.1-0.5-0.1-0.7c0-0.5,0.2-0.9,0.7-1.1
		c2.1-0.2,4.8-0.6,8.2-1.1c5.2-1,8.1-1.5,8.7-1.5c0.4,0,0.6,1.1,0.8,3.3s0.5,3.3,0.8,3.3c-0.4,0,1.4-1.1,5.2-3.4
		c3.9-2.3,7.2-3.4,10.1-3.4c4.1,0,7.6,1,10.4,2.9c3.1,2.2,4.6,5.4,4.6,9.4v15.6c0,2.1,0,5.3,0,9.5
		C824.8,303.9,824.9,307.1,824.9,309.2z"/>
	<path id="XMLID_112_" class="st1" d="M881.6,297.9c0,9.3-2,15.9-5.9,20c-4,4.1-10.7,6.2-20.1,6.2c-2.7,0-6.5-0.4-11.2-1.3
		c-6-1.1-9-2.4-9-3.9c0-0.6,0.7-3.8,2.1-9.6c0.2-0.9,0.6-1.4,1.1-1.4c0.2,0,0.3,0.1,0.5,0.2c5,2.5,9.7,3.7,13.9,3.7
		c2.3,0,4.7-0.6,7-1.8c2.8-1.4,4.2-3.2,4.2-5.3v-3.3c-3.3,3.1-7.6,4.7-12.8,4.7c-6.1,0-11.1-2.2-15.1-6.6c-3.8-4.2-5.7-9.4-5.7-15.6
		c0-6.2,1.8-11.4,5.5-15.5c3.8-4.3,8.8-6.4,14.9-6.4c4.9,0,8.7,1.8,11.3,5.3c0.5,0.7,0.9,1.1,1.1,1.1c0.3,0,0.4-0.6,0.4-1.8
		c0-2.6,0.3-3.9,0.9-3.9c0.5,0,3.3,0.3,8.4,0.8s7.8,0.8,8,0.9c0.6,0.2,0.8,0.6,0.8,1.3c0,2.2-0.1,5.6-0.2,10.1
		c-0.1,4.5-0.2,7.8-0.2,10.1c0,1.3,0,3.3,0,6C881.6,294.6,881.6,296.6,881.6,297.9z M864.7,284.4c0-2.4-0.8-4.4-2.4-6.2
		c-1.6-1.7-3.6-2.6-5.9-2.6s-4.4,0.9-5.9,2.7c-1.6,1.8-2.4,3.8-2.4,6.2c0,2.4,0.8,4.4,2.4,6.2c1.6,1.7,3.6,2.6,5.9,2.6
		c2.4,0,4.4-0.9,5.9-2.6S864.7,286.8,864.7,284.4z"/>
</g>
<g id="XMLID_66_">
	<path id="XMLID_67_" class="st1" d="M606,718.9c0,0.6-0.4,1-1.2,1.2c-1,0.3-4,0.4-9.1,0.4c-4.7,0-7.6-0.1-9-0.4
		c-1.1-0.2-1.8-1-2.1-2.2c-1.1-4.7-2-7.2-2.6-7.5c-0.5-0.2-4.9-0.3-13.1-0.3c-5.5,0-8.5,0.1-8.8,0.4c-0.6,0.5-1.2,2.3-1.9,5.2
		c-0.6,2.7-1.4,4.2-2.2,4.4c-1.1,0.3-4.8,0.4-11.1,0.4c-5,0-7.5-0.5-7.5-1.4c0-0.8,3.7-11.2,11-31.2c8-21.6,12.3-33.4,13-35.6
		c0.4-1.2,0.8-1.9,1.4-1.9c0.9,0,2.2,0.1,4.1,0.2c1.8,0.2,3.2,0.2,4.1,0.2c0.9,0,2.2-0.1,3.9-0.2c1.7-0.1,3-0.2,3.8-0.2
		c0.6,0,1.2,0.5,1.7,1.6c1.6,3.4,6.3,15.1,14,35.2C602.1,707.5,606,718,606,718.9z M571.4,674.4c-0.7,1.4-1.8,4.5-3.5,9.3
		c-1.8,5.1-2.6,8.1-2.6,8.9c0,0.6,1,0.9,2.9,1c1,0.1,2.7,0.1,5,0.1c2.1,0,3.3-0.3,3.6-0.8c0.1-0.2,0.1-0.4,0.1-0.7
		c0-1.1-0.7-4-2.2-8.9C573.1,678.7,572.1,675.7,571.4,674.4z"/>
	<path id="XMLID_70_" class="st1" d="M628.4,690.7c0,8.9,0,15.7,0.1,20.5c0,0.7,0,2,0.1,3.9c0.1,1.7,0.1,2.9,0.1,3.9
		c0,0.7-0.4,1.1-1.2,1.2c-1.5,0.3-4.1,0.4-7.9,0.4c-3.9,0-6.4-0.1-7.5-0.4c-0.7-0.2-1.1-0.6-1.2-1.3c0-0.1,0-0.8,0-2.1
		c0-2.9,0-7.2,0.1-13c0.1-5.8,0.1-10.1,0.1-13c0-13.7,0-19.9,0-18.7c-0.1-7.2-0.5-13.4-1.2-18.6c-0.1-0.4-0.1-0.6-0.1-0.8
		c0-0.7,0.4-1.1,1.3-1.1h17.4c0.8,0,1.2,0.3,1.1,1l0,0.9C628.8,667.4,628.4,679.9,628.4,690.7z"/>
	<path id="XMLID_72_" class="st1" d="M686,707.4c0,9.3-2,15.9-5.9,20c-4,4.1-10.7,6.2-20.1,6.2c-2.7,0-6.5-0.4-11.2-1.3
		c-6-1.1-9-2.4-9-3.9c0-0.6,0.7-3.8,2.1-9.6c0.2-0.9,0.6-1.4,1.1-1.4c0.2,0,0.3,0.1,0.5,0.2c5,2.5,9.7,3.7,13.9,3.7
		c2.3,0,4.7-0.6,7-1.8c2.8-1.4,4.2-3.2,4.2-5.3V711c-3.3,3.1-7.6,4.7-12.8,4.7c-6.1,0-11.1-2.2-15.1-6.6c-3.8-4.2-5.7-9.4-5.7-15.6
		c0-6.2,1.8-11.4,5.5-15.5c3.8-4.3,8.8-6.4,14.9-6.4c4.9,0,8.7,1.8,11.3,5.3c0.5,0.7,0.9,1.1,1.1,1.1c0.3,0,0.4-0.6,0.4-1.8
		c0-2.6,0.3-3.9,0.9-3.9c0.5,0,3.3,0.3,8.4,0.8s7.8,0.8,8,0.9c0.6,0.2,0.8,0.6,0.8,1.3c0,2.2-0.1,5.6-0.2,10.1
		c-0.1,4.5-0.2,7.8-0.2,10.1c0,1.3,0,3.3,0,6C686,704,686,706,686,707.4z M669.1,693.9c0-2.4-0.8-4.4-2.4-6.2
		c-1.6-1.7-3.6-2.6-5.9-2.6s-4.4,0.9-5.9,2.7c-1.6,1.8-2.4,3.8-2.4,6.2c0,2.4,0.8,4.4,2.4,6.2c1.6,1.7,3.6,2.6,5.9,2.6
		c2.4,0,4.4-0.9,5.9-2.6S669.1,696.2,669.1,693.9z"/>
	<path id="XMLID_75_" class="st1" d="M741.4,696.1c0,7.4-2.3,13.4-6.8,18.1c-4.5,4.6-10.5,6.9-17.9,6.9c-7.2,0-13.1-2.3-17.7-6.8
		c-4.6-4.6-6.9-10.4-6.9-17.6c0-7.6,2.2-13.7,6.6-18.4c4.4-4.7,10.4-7.1,18-7.1c7.4,0,13.3,2.3,17.9,6.9
		C739.1,682.7,741.4,688.7,741.4,696.1z M725.4,696.1c0-2.6-0.8-4.8-2.4-6.8c-1.6-2-3.7-3-6.2-3c-2.6,0-4.7,1-6.3,3
		c-1.6,1.9-2.3,4.1-2.3,6.7c0,2.6,0.8,4.9,2.3,6.8c1.7,2,3.8,3,6.3,3c2.5,0,4.6-1,6.3-3C724.6,701,725.4,698.7,725.4,696.1z"/>
	<path id="XMLID_78_" class="st1" d="M779.7,689.7c0,1.3-0.7,1.9-2.1,1.9c-0.6,0-1.5,0-2.7-0.1c-1.2-0.1-2.1-0.1-2.7-0.1
		c-2.7,0-4.5,0.4-5.5,1.3c-1,0.8-1.5,2.6-1.5,5.1c0,1.4,0,3.5,0.1,6.4c0,2.8,0.1,5,0.1,6.4c0,0.9,0.1,2.4,0.2,4.2
		c0.1,1.9,0.2,3.3,0.2,4.2c0,0.8-0.5,1.2-1.6,1.3c-1.6,0.1-4,0.2-7.2,0.2c-3.1,0-5.6-0.1-7.4-0.3c-1.1-0.1-1.6-0.7-1.6-1.6
		c0-2.6,0-6.5,0-11.7c0-5.2,0-9.1,0-11.7c0-7.6-0.7-13.9-2.1-18.9c-0.1-0.3-0.1-0.5-0.1-0.7c0-0.5,0.2-0.8,0.7-1
		c1.8-0.2,4.4-0.6,7.9-1.1c5.1-1,7.8-1.5,8-1.5c0.6,0,1,1,1.1,3.1s0.5,3.1,0.9,3.1c-0.5,0,0.9-0.9,4-2.6s6.1-2.6,9-2.6
		c1.8,0,2.7,0.4,2.7,1.2c0,0.9-0.1,2.3-0.3,4c-0.2,1.9-0.3,3.2-0.3,4c0,0.9,0,2.2,0,3.8C779.6,687.8,779.7,689,779.7,689.7z"/>
	<path id="XMLID_80_" class="st1" d="M803.5,697.7c0,2.4,0,5.9,0.1,10.6c0.1,4.7,0.1,8.2,0.1,10.6c0,0.7-0.4,1.1-1.2,1.2
		c-1.1,0.2-3.6,0.3-7.5,0.3c-3.9,0-6.4-0.1-7.5-0.3c-0.7-0.1-1.2-0.3-1.3-0.6c-0.1-0.1-0.1-0.6-0.1-1.5c0-2.2,0-5.6,0.1-10.1
		c0.1-4.5,0.1-7.9,0.1-10.2c0-9.2-0.4-16.6-1.1-22.1c-0.1-0.5-0.1-0.9-0.1-1c0-0.7,0.4-1,1.3-1c0.9,0,2.3,0.1,4.2,0.3
		s3.3,0.3,4.2,0.3s2.4-0.1,4.2-0.2c1.9-0.2,3.3-0.2,4.2-0.2c0.8,0,1.2,0.3,1.2,1c0,0.1,0,0.4-0.1,0.9
		C803.8,681.9,803.5,689.3,803.5,697.7z M804.7,661.4c0,5.7-3.2,8.5-9.6,8.5c-2.7,0-5-0.7-6.8-2.1c-2-1.6-2.9-3.7-2.9-6.3
		c0-2.5,1-4.6,3-6.3c1.9-1.5,4.1-2.2,6.7-2.2c2.5,0,4.7,0.8,6.6,2.3C803.7,656.8,804.7,658.9,804.7,661.4z"/>
	<path id="XMLID_83_" class="st1" d="M845.5,705.8c0,1-0.1,2.5-0.4,4.4c-0.2,2-0.4,3.4-0.4,4.4s-0.1,1.5-0.3,1.8
		c-0.2,0.3-0.7,0.6-1.6,1.1c-4.2,2.3-8.9,3.5-14,3.5c-9.4,0-14.1-3.6-14.1-10.8c0-2.1,0.1-5.4,0.2-9.7c0.2-4.3,0.2-7.5,0.2-9.7
		c0-1.4-0.8-2.1-2.5-2.1c-0.1,0-0.3,0-0.6,0c-0.3,0-0.5,0-0.6,0c-1.2,0-1.9-0.4-1.9-1.3c0-0.5,0-1.3,0.1-2.4s0.1-1.9,0.1-2.4
		c0-0.7,0-1.7-0.1-3.1c-0.1-1.4-0.1-2.4-0.1-3.1c0-0.7,1-1,3.1-1.1c1.2,0,1.8-0.4,1.9-1c0.2-1.2,0.3-3.2,0.2-5.9
		c-0.1-4.2-0.2-6.2-0.2-6c0-3.8,0.4-5.7,1.1-5.7c0.9,0,2.1,0.2,3.8,0.6c1.9,0.4,3.1,0.7,3.9,0.7c1.7,0.2,4.2,0.5,7.5,0.9
		c0.8,0.1,1.2,0.3,1.2,0.8c0,1.3-0.1,3.3-0.3,5.9s-0.3,4.6-0.3,6c0,1.6,0.5,2.4,1.4,2.4c1.1,0,2.9,0,5.2-0.1s4.1-0.1,5.2-0.1
		c0.7,0,1.1,0.2,1.1,0.7c0,0.7-0.1,1.9-0.2,3.4c-0.2,1.5-0.2,2.6-0.2,3.4c0,0.8,0,1.9,0,3.4c0,1.5,0,2.6,0,3.4c0,0.7-0.5,1-1.4,1
		c-0.7,0-1.7,0-3.3-0.1s-2.6-0.1-3.3-0.1h-3.7c-0.5,0-0.7,0.7-0.7,2.1c0,0.8,0,1.9,0,3.5c0,1.6,0,2.7,0,3.5c0,2.7,0.3,4.6,0.9,5.7
		c0.9,1.4,2.6,2.1,5.2,2.1c0.8,0,2-0.2,3.5-0.6c1.5-0.4,2.6-0.6,3.2-0.6C845.2,704.7,845.5,705.1,845.5,705.8z"/>
	<path id="XMLID_85_" class="st1" d="M899.4,684.7l-0.1,33.7c0,1.1-0.5,1.8-1.4,1.9c-1,0.1-3.4,0.2-7.1,0.2c-3.6,0-6.1-0.1-7.5-0.4
		c-1.1-0.2-1.6-0.9-1.6-2.1c0-2.8,0-7,0.1-12.6c0.1-5.6,0.1-9.8,0.1-12.6c0-3.8-1.9-5.7-5.8-5.7c-1.3,0-2.8,0.5-4.6,1.6
		c-1.9,1.1-2.9,2.3-2.9,3.6v12.1c0,1.6,0,3.9,0.1,7.1c0.1,3.1,0.1,5.5,0.1,7.1c0,1.2-0.5,1.9-1.5,2s-3.8,0.2-8.5,0.2
		c-2.7,0-4.6-0.1-5.8-0.4c-1.2-0.3-1.8-0.8-1.8-1.7c0-2.6,0-6.4,0-11.6c0-5.2,0-9,0-11.6c0-10.6-0.1-19.4-0.3-26.4
		c-0.1-2.4-0.2-4.9-0.2-7.3c-0.2-2.8-0.5-5.3-0.9-7.3c-0.1-0.4-0.1-0.7-0.1-0.9c0-0.5,0.2-0.8,0.7-1c1-0.3,2.5-0.5,4.4-0.5
		c2.6-0.1,4.1-0.2,4.5-0.2l8.8-1c0.5,0,0.8,0.3,0.8,1c0,1-0.1,2.5-0.2,4.2c-0.1,2.1-0.2,3.5-0.2,4.2c-0.2,7.4-0.3,13.2-0.3,17.4
		c0,0.7,0.2,1,0.5,1c0.1,0,0.9-0.6,2.5-1.7c1.9-1.3,3.7-2.4,5.4-3.2c2.6-1.1,5.1-1.7,7.5-1.7c4.2,0,7.6,1.1,10.4,3.3
		C897.9,677.4,899.4,680.6,899.4,684.7z"/>
	<path id="XMLID_87_" class="st1" d="M985.4,718.3c0,1.1-0.5,1.8-1.5,1.9s-3.4,0.2-7.2,0.2c-4,0-6.4-0.1-7.4-0.3s-1.5-1-1.5-2.4
		c0-1.5,0-3.7,0.1-6.7s0.1-5.2,0.1-6.7c0-5.7-0.1-9.7-0.2-12.2c-0.2-3.9-2-5.8-5.5-5.8c-1.5,0-3.1,0.6-4.6,1.9
		c-1.5,1.3-2.4,2.7-2.5,4.3c-0.1,1.4-0.2,5.4-0.2,12c0,1.5,0,3.8,0.1,7c0.1,3.1,0.1,5.4,0.1,7c0,1.1-0.5,1.6-1.4,1.6h-14.8
		c-0.9,0-1.4-0.7-1.4-2c0-1.5,0-3.8,0.1-6.9c0.1-3.1,0.1-5.4,0.1-6.9c0-1.2,0-3-0.1-5.5s-0.1-4.3-0.1-5.5c0-4.7-1.8-7-5.3-7
		c-1.4,0-3,0.6-4.6,1.7c-1.8,1.2-2.7,2.5-2.7,3.8c0,3,0,7.4,0,13.3c0,5.9,0,10.3,0,13.2c0,0.8-0.1,1.3-0.3,1.5s-0.7,0.3-1.5,0.4
		c-1.5,0.1-3.8,0.2-6.9,0.2c-2.1,0-4.4-0.1-7-0.3c-0.8-0.1-1.2-0.2-1.4-0.3c-0.1-0.2-0.2-0.7-0.2-1.5c0-2.6,0-6.5,0-11.7
		c0-5.2,0-9.1,0-11.7c0-5.3-0.4-11.3-1.2-18c-0.1-0.4-0.1-0.7-0.1-0.9c0-0.6,0.2-0.9,0.7-1.1c0.7-0.3,2.1-0.5,4.1-0.7
		c2.4-0.2,3.9-0.4,4.3-0.4c0.3-0.1,1.6-0.4,3.9-1c1.6-0.5,2.9-0.7,3.9-0.7c0.6,0,0.9,1.1,1,3.4c0,2.3,0.2,3.4,0.4,3.4
		c0.3-0.1,0.7-0.4,1.1-0.7c2.9-2.3,5.2-3.8,6.9-4.7c2.5-1.2,5.2-1.8,8.2-1.8c3,0,5.7,0.7,8,2c2.6,1.5,4.3,3.6,5.1,6.3
		c1.7-2.3,4.1-4.3,7.1-5.9c3-1.6,6-2.4,8.8-2.4c4.3,0,7.8,1,10.5,3c3.1,2.2,4.6,5.5,4.6,9.6c0,1.7,0,4.3-0.1,7.8s-0.1,6.1-0.1,7.8
		c0,2.1,0,5.1,0.1,9.3C985.3,713.1,985.4,716.2,985.4,718.3z"/>
	<path id="XMLID_89_" class="st1" d="M1023.2,680.6c0,0.3-0.2,0.8-0.7,1.3c-0.9-0.2-1.8-0.3-2.7-0.3c-1.9,0-3.5,0.4-4.8,1.3
		c-1.6,1-2.3,2.4-2.3,4.2c0,1.1,0.8,2.6,2.5,4.3c2.5,2.6,4.1,4.4,4.6,5.3c1.7,2.5,2.5,5.1,2.5,8c0,1.7-0.3,3.4-1,5.3
		c-0.7,2.1-1.7,3.5-2.8,4.5c-2.4,2.1-5.2,3.8-8.4,5.3c-3.5,1.5-6.7,2.2-9.6,2.2c-0.7,0-2.1-1.8-4.4-5.3c-2.3-3.5-3.4-5.7-3.4-6.5
		c0-0.3,0.2-0.5,0.5-0.5c2.3-0.4,4.6-0.8,6.9-1.3c2.9-0.9,4.3-2.4,4.3-4.5c0-1.4-0.8-3.1-2.5-5c-3-3.3-4.5-5-4.6-5.2
		c-1.7-2.3-2.5-4.8-2.5-7.4c0-4.9,2.5-9,7.4-12.5c4.4-3,9.2-4.5,14.2-4.5c0.5,0,1.8,1.8,3.9,5.2
		C1022.2,677.9,1023.2,680,1023.2,680.6z"/>
</g>
<g id="XMLID_46_">
	<path id="XMLID_47_" class="st1" d="M1080,494c0,0.5-0.3,1.2-1,2.1c-6,7.1-13.9,10.7-23.9,10.7c-10.2,0-18.4-3.5-24.7-10.4
		c-6.2-6.7-9.2-15.2-9.2-25.4c0-9.9,3-18.3,9-25.2c6.3-7.2,14.3-10.8,24-10.8c10.5,0,18.8,3.2,24.8,9.7c0.7,0.7,1,1.4,1,1.9
		c0,0.6-1.1,2.9-3.4,6.9c-2.3,4-3.7,6.2-4.3,6.7c-0.3,0.3-0.6,0.4-1,0.4c-0.2,0-1-0.7-2.4-2c-1.8-1.6-3.5-2.8-5.2-3.7
		c-2.6-1.3-5.2-2-8-2c-4.8,0-8.6,1.8-11.5,5.4c-2.6,3.3-4,7.4-4,12.3c0,4.9,1.3,9.1,4,12.5c2.9,3.6,6.7,5.5,11.5,5.5
		c2.8,0,5.5-0.6,8.1-1.9c1.7-0.8,3.4-2,5.1-3.4c1.4-1.2,2.2-1.9,2.4-1.9c0.3,0,0.7,0.2,1,0.5c0.5,0.6,1.9,2.6,4.2,6.1
		C1078.8,491.6,1080,493.6,1080,494z"/>
	<path id="XMLID_49_" class="st1" d="M1133.6,469.6l-0.1,33.7c0,1.1-0.5,1.8-1.4,1.9c-1,0.1-3.4,0.2-7.1,0.2c-3.6,0-6.1-0.1-7.5-0.4
		c-1.1-0.2-1.6-0.9-1.6-2.1c0-2.8,0-7,0.1-12.6s0.1-9.8,0.1-12.6c0-3.8-1.9-5.7-5.8-5.7c-1.3,0-2.8,0.5-4.6,1.6
		c-1.9,1.1-2.9,2.3-2.9,3.6v12.1c0,1.6,0,3.9,0.1,7.1c0.1,3.1,0.1,5.5,0.1,7.1c0,1.2-0.5,1.9-1.5,2c-1,0.1-3.8,0.2-8.5,0.2
		c-2.7,0-4.6-0.1-5.8-0.4c-1.2-0.3-1.8-0.8-1.8-1.7c0-2.6,0-6.4,0-11.6c0-5.2,0-9,0-11.6c0-10.6-0.1-19.5-0.3-26.4
		c-0.1-2.4-0.2-4.9-0.2-7.3c-0.2-2.8-0.5-5.3-0.9-7.3c-0.1-0.4-0.1-0.7-0.1-0.9c0-0.5,0.2-0.8,0.7-1c1-0.3,2.5-0.5,4.4-0.5
		c2.6-0.1,4.1-0.2,4.5-0.2l8.8-1c0.5,0,0.8,0.3,0.8,1c0,1-0.1,2.5-0.2,4.2c-0.1,2.1-0.2,3.5-0.2,4.2c-0.2,7.4-0.3,13.2-0.3,17.4
		c0,0.7,0.2,1,0.5,1c0.1,0,0.9-0.6,2.5-1.7c1.9-1.3,3.7-2.4,5.4-3.2c2.6-1.1,5.1-1.7,7.5-1.7c4.2,0,7.6,1.1,10.4,3.3
		C1132.1,462.3,1133.6,465.5,1133.6,469.6z"/>
	<path id="XMLID_51_" class="st1" d="M1190.7,480.6c0,2.5,0.1,6.2,0.4,11.2s0.4,8.7,0.4,11.1c0,1.3-0.6,2-1.7,2.1
		c-4,0.3-8.7,0.4-13.9,0.4c-0.6,0-1-0.9-1.2-2.8c-0.2-1.9-0.5-2.8-0.8-2.9c-0.3,0.1-0.6,0.4-1,0.8c-3.6,3.7-7.6,5.5-11.7,5.5
		c-6.3,0-11.6-2.5-15.8-7.5c-3.9-4.7-5.9-10.3-5.9-16.8c0-7.5,2-13.6,6.1-18.2c4.2-4.8,10-7.1,17.4-7.1c5.1,0,9.1,1.8,12.1,5.4
		c0.1,0.2,0.2,0.2,0.3,0.2c0.3,0,0.6-0.8,1-2.4c0.4-1.6,0.8-2.4,1.3-2.4c1.2,0,3.5,0.3,6.9,1c3.2,0.7,5.5,1.2,6.9,1.7
		c0.5,0.2,0.7,0.5,0.7,0.8c0,0.1,0,0.5-0.1,1C1191.2,467.8,1190.7,474,1190.7,480.6z M1175,480.9c0-2.8-0.9-5.1-2.6-6.9
		c-1.7-1.8-4-2.7-6.8-2.7s-5.1,0.9-6.8,2.7c-1.7,1.8-2.6,4.1-2.6,6.9c0,2.6,0.9,4.9,2.7,6.8c1.8,1.9,4,2.8,6.6,2.8
		c2.8,0,5-0.9,6.8-2.7S1175,483.7,1175,480.9z"/>
	<path id="XMLID_54_" class="st1" d="M1233.1,490.7c0,1-0.1,2.5-0.4,4.4s-0.4,3.4-0.4,4.4s-0.1,1.5-0.3,1.8s-0.7,0.6-1.6,1.1
		c-4.2,2.3-8.9,3.5-14,3.5c-9.4,0-14.1-3.6-14.1-10.8c0-2.1,0.1-5.4,0.2-9.7c0.2-4.3,0.2-7.5,0.2-9.7c0-1.4-0.8-2.1-2.5-2.1
		c-0.1,0-0.3,0-0.6,0c-0.3,0-0.5,0-0.6,0c-1.2,0-1.9-0.4-1.9-1.3c0-0.5,0-1.3,0.1-2.4c0.1-1.1,0.1-1.9,0.1-2.4c0-0.7,0-1.7-0.1-3.1
		c-0.1-1.4-0.1-2.4-0.1-3.1c0-0.7,1-1,3.1-1.1c1.2,0,1.8-0.4,1.9-1c0.2-1.2,0.3-3.2,0.2-5.9c-0.1-4.2-0.2-6.2-0.2-6
		c0-3.8,0.4-5.7,1.1-5.7c0.9,0,2.1,0.2,3.8,0.6c1.9,0.4,3.1,0.7,3.9,0.7c1.7,0.2,4.2,0.5,7.5,0.9c0.8,0.1,1.2,0.3,1.2,0.8
		c0,1.3-0.1,3.3-0.3,5.9c-0.2,2.6-0.3,4.6-0.3,6c0,1.6,0.5,2.4,1.4,2.4c1.1,0,2.9,0,5.2-0.1c2.3-0.1,4.1-0.1,5.2-0.1
		c0.7,0,1.1,0.2,1.1,0.7c0,0.7-0.1,1.9-0.2,3.4c-0.2,1.5-0.2,2.6-0.2,3.4c0,0.8,0,1.9,0,3.4c0,1.5,0,2.6,0,3.4c0,0.7-0.5,1-1.4,1
		c-0.7,0-1.7,0-3.3-0.1c-1.5,0-2.6-0.1-3.3-0.1h-3.7c-0.5,0-0.7,0.7-0.7,2.1c0,0.8,0,1.9,0,3.5c0,1.6,0,2.7,0,3.5
		c0,2.7,0.3,4.6,0.9,5.7c0.9,1.4,2.6,2.1,5.2,2.1c0.8,0,2-0.2,3.5-0.6s2.6-0.6,3.2-0.6C1232.7,489.6,1233.1,490,1233.1,490.7z"/>
	<path id="XMLID_56_" class="st1" d="M1291.1,481.1c0,6.8-2,12.5-5.9,17.1c-4.2,4.9-9.6,7.3-16.3,7.3c-4.9,0-8.8-1.4-11.8-4.2
		c-0.2-0.2-0.4-0.3-0.6-0.3c-0.3,0-0.6,0.6-0.9,1.8c-0.3,1.2-0.6,1.9-1,2c-0.6,0.2-5.2,0.2-13.9,0.2c-2.1,0-3.1-0.4-3.1-1.1
		c0-0.1,0-0.3,0.1-0.7c0.7-5.2,1-15,1-29.6c0-13.9-0.5-26-1.5-36.3l0-0.5c0-0.5,0.5-0.8,1.5-0.9c0.7,0,3.5-0.3,8.5-0.7
		c3.5-0.3,6.3-0.5,8.5-0.5c0.6,0,0.9,0.5,0.9,1.6c0,1.3-0.1,2.9-0.2,5c-0.2,2.6-0.3,4.3-0.3,5.1c-0.2,3.2-0.2,7.6-0.2,13.2
		c0,1,0.3,1.5,0.8,1.5c0.3,0,0.5-0.1,0.7-0.4c2.9-3.1,6.8-4.7,11.5-4.7c7.1,0,12.7,2.4,16.7,7.3
		C1289.3,467.9,1291.1,473.8,1291.1,481.1z M1273.4,480.6c0-2.7-0.8-5-2.5-6.9s-3.8-2.8-6.5-2.8c-2.7,0-4.9,0.9-6.5,2.8
		c-1.6,1.9-2.4,4.2-2.4,7c0,2.9,0.8,5.2,2.3,6.9c1.6,1.9,3.8,2.8,6.6,2.8c2.8,0,5-1,6.6-2.9C1272.7,485.7,1273.4,483.4,1273.4,480.6
		z"/>
	<path id="XMLID_59_" class="st1" d="M1344,481c0,7.4-2.3,13.4-6.8,18.1s-10.5,6.9-17.9,6.9c-7.2,0-13.1-2.3-17.7-6.8
		c-4.6-4.6-6.9-10.4-6.9-17.6c0-7.6,2.2-13.7,6.6-18.4c4.4-4.7,10.4-7.1,18-7.1c7.4,0,13.3,2.3,17.9,6.9
		C1341.8,467.7,1344,473.6,1344,481z M1328,481c0-2.6-0.8-4.8-2.4-6.8c-1.6-2-3.7-3-6.2-3c-2.6,0-4.7,1-6.3,3
		c-1.6,1.9-2.3,4.1-2.3,6.7c0,2.6,0.8,4.9,2.3,6.8c1.7,2,3.8,3,6.3,3c2.5,0,4.6-1,6.3-3C1327.3,485.9,1328,483.6,1328,481z"/>
	<path id="XMLID_62_" class="st1" d="M1382.6,490.7c0,1-0.1,2.5-0.4,4.4s-0.4,3.4-0.4,4.4s-0.1,1.5-0.3,1.8s-0.7,0.6-1.6,1.1
		c-4.2,2.3-8.9,3.5-14,3.5c-9.4,0-14.1-3.6-14.1-10.8c0-2.1,0.1-5.4,0.2-9.7c0.2-4.3,0.2-7.5,0.2-9.7c0-1.4-0.8-2.1-2.5-2.1
		c-0.1,0-0.3,0-0.6,0c-0.3,0-0.5,0-0.6,0c-1.2,0-1.9-0.4-1.9-1.3c0-0.5,0-1.3,0.1-2.4c0.1-1.1,0.1-1.9,0.1-2.4c0-0.7,0-1.7-0.1-3.1
		c-0.1-1.4-0.1-2.4-0.1-3.1c0-0.7,1-1,3.1-1.1c1.2,0,1.8-0.4,1.9-1c0.2-1.2,0.3-3.2,0.2-5.9c-0.1-4.2-0.2-6.2-0.2-6
		c0-3.8,0.4-5.7,1.1-5.7c0.9,0,2.1,0.2,3.8,0.6c1.9,0.4,3.1,0.7,3.9,0.7c1.7,0.2,4.2,0.5,7.5,0.9c0.8,0.1,1.2,0.3,1.2,0.8
		c0,1.3-0.1,3.3-0.3,5.9c-0.2,2.6-0.3,4.6-0.3,6c0,1.6,0.5,2.4,1.4,2.4c1.1,0,2.9,0,5.2-0.1c2.3-0.1,4.1-0.1,5.2-0.1
		c0.7,0,1.1,0.2,1.1,0.7c0,0.7-0.1,1.9-0.2,3.4c-0.2,1.5-0.2,2.6-0.2,3.4c0,0.8,0,1.9,0,3.4c0,1.5,0,2.6,0,3.4c0,0.7-0.5,1-1.4,1
		c-0.7,0-1.7,0-3.3-0.1c-1.5,0-2.6-0.1-3.3-0.1h-3.7c-0.5,0-0.7,0.7-0.7,2.1c0,0.8,0,1.9,0,3.5c0,1.6,0,2.7,0,3.5
		c0,2.7,0.3,4.6,0.9,5.7c0.9,1.4,2.6,2.1,5.2,2.1c0.8,0,2-0.2,3.5-0.6s2.6-0.6,3.2-0.6C1382.3,489.6,1382.6,490,1382.6,490.7z"/>
	<path id="XMLID_64_" class="st1" d="M1416.3,465.5c0,0.3-0.2,0.8-0.7,1.3c-0.9-0.2-1.8-0.3-2.7-0.3c-1.9,0-3.5,0.4-4.8,1.3
		c-1.6,1-2.3,2.4-2.3,4.2c0,1.1,0.8,2.6,2.5,4.3c2.5,2.6,4.1,4.4,4.6,5.3c1.7,2.5,2.5,5.1,2.5,8c0,1.7-0.3,3.4-1,5.3
		c-0.7,2.1-1.7,3.5-2.8,4.5c-2.4,2.1-5.2,3.8-8.4,5.3c-3.5,1.5-6.7,2.2-9.6,2.2c-0.7,0-2.1-1.8-4.4-5.3c-2.3-3.5-3.4-5.7-3.4-6.5
		c0-0.3,0.2-0.5,0.5-0.5c2.3-0.4,4.6-0.8,6.9-1.3c2.9-0.9,4.3-2.4,4.3-4.5c0-1.4-0.8-3.1-2.5-5c-3-3.3-4.5-5-4.6-5.2
		c-1.7-2.3-2.5-4.8-2.5-7.4c0-4.9,2.5-9,7.4-12.5c4.4-3,9.2-4.5,14.2-4.5c0.5,0,1.8,1.8,3.9,5.2S1416.3,464.9,1416.3,465.5z"/>
</g>
<rect id="XMLID_18_" x="18.1" y="538.1" class="st0" width="423.5" height="296.5"/>
<g id="XMLID_15_">
	<path id="XMLID_17_" class="st1" d="M171.8,625.8c0,9.6-3.1,17.9-9.2,24.9c-5.4,6.3-13.1,9.6-22.9,9.9c-1.9,0.1-7.1,0.1-15.6,0.1
		c-1.6,0-4,0-7.2-0.1c-3.2-0.1-5.6-0.1-7.2-0.1c-0.9,0-1.4-0.4-1.4-1.1c0-3.6,0.1-9,0.4-16.1c0.3-7.2,0.4-12.6,0.4-16.1
		c0-3.7-0.1-9.4-0.4-16.8c-0.3-7.5-0.4-13.1-0.4-16.8c0-0.7,0.5-1.1,1.4-1.2c2.3-0.3,6.1-0.4,11.4-0.4c10,0,16.5,0.1,19.5,0.4
		c7.7,0.8,13.8,2.7,18.1,5.9c4.1,2.9,7.3,7,9.7,12.3C170.7,615.4,171.8,620.6,171.8,625.8z M153.1,625.8c0-5.5-1.6-10-4.9-13.5
		c-3.3-3.6-7.7-5.4-13.2-5.4c-5,0-7.5,0.7-7.5,2c0,1.9,0,4.8-0.1,8.7c-0.1,3.9-0.1,6.7-0.1,8.7c0,1.9,0,4.7,0.1,8.5
		c0.1,3.8,0.1,6.6,0.1,8.6c0,1.4,2.6,2.1,7.8,2.1c5.6,0,10.1-1.9,13.3-5.6C151.6,636.3,153.1,631.6,153.1,625.8z"/>
	<path id="XMLID_23_" class="st1" d="M228.1,636.1c0,2.5,0.1,6.2,0.4,11.2c0.3,4.9,0.4,8.7,0.4,11.1c0,1.3-0.6,2-1.7,2.1
		c-4,0.3-8.7,0.4-13.9,0.4c-0.6,0-1-0.9-1.2-2.8c-0.2-1.9-0.5-2.8-0.8-2.9c-0.3,0.1-0.6,0.4-1,0.8c-3.6,3.7-7.6,5.5-11.7,5.5
		c-6.3,0-11.6-2.5-15.8-7.5c-3.9-4.7-5.9-10.3-5.9-16.8c0-7.5,2-13.6,6.1-18.2c4.2-4.8,10-7.1,17.4-7.1c5.1,0,9.1,1.8,12.1,5.4
		c0.1,0.2,0.2,0.2,0.3,0.2c0.3,0,0.6-0.8,1-2.4c0.4-1.6,0.8-2.4,1.3-2.4c1.2,0,3.5,0.3,6.9,1c3.2,0.7,5.5,1.2,6.9,1.7
		c0.5,0.2,0.7,0.5,0.7,0.8c0,0.1,0,0.5-0.1,1C228.6,623.2,228.1,629.5,228.1,636.1z M212.4,636.3c0-2.8-0.9-5.1-2.6-6.9
		c-1.7-1.8-4-2.7-6.8-2.7c-2.8,0-5.1,0.9-6.8,2.7c-1.7,1.8-2.6,4.1-2.6,6.9c0,2.6,0.9,4.9,2.7,6.8c1.8,1.9,4,2.8,6.6,2.8
		c2.8,0,5-0.9,6.8-2.7S212.4,639.1,212.4,636.3z"/>
	<path id="XMLID_26_" class="st1" d="M270.5,646.2c0,1-0.1,2.5-0.4,4.4c-0.2,2-0.4,3.4-0.4,4.4s-0.1,1.5-0.3,1.8
		c-0.2,0.3-0.7,0.6-1.6,1.1c-4.2,2.3-8.9,3.5-14,3.5c-9.4,0-14.1-3.6-14.1-10.8c0-2.1,0.1-5.4,0.2-9.7c0.2-4.3,0.2-7.5,0.2-9.7
		c0-1.4-0.8-2.1-2.5-2.1c-0.1,0-0.3,0-0.6,0c-0.3,0-0.5,0-0.6,0c-1.2,0-1.9-0.4-1.9-1.3c0-0.5,0-1.3,0.1-2.4
		c0.1-1.1,0.1-1.9,0.1-2.4c0-0.7,0-1.7-0.1-3.1c-0.1-1.4-0.1-2.4-0.1-3.1c0-0.7,1-1,3.1-1.1c1.2,0,1.8-0.4,1.9-1
		c0.2-1.2,0.3-3.2,0.2-5.9c-0.1-4.2-0.2-6.2-0.2-6c0-3.8,0.4-5.7,1.1-5.7c0.9,0,2.1,0.2,3.8,0.6c1.9,0.4,3.1,0.7,3.9,0.7
		c1.7,0.2,4.2,0.5,7.5,0.9c0.8,0.1,1.2,0.3,1.2,0.8c0,1.3-0.1,3.3-0.3,5.9c-0.2,2.6-0.3,4.6-0.3,6c0,1.6,0.5,2.4,1.4,2.4
		c1.1,0,2.9,0,5.2-0.1c2.3-0.1,4.1-0.1,5.2-0.1c0.7,0,1.1,0.2,1.1,0.7c0,0.7-0.1,1.9-0.2,3.4c-0.2,1.5-0.2,2.6-0.2,3.4
		c0,0.8,0,1.9,0,3.4c0,1.5,0,2.6,0,3.4c0,0.7-0.5,1-1.4,1c-0.7,0-1.7,0-3.3-0.1c-1.5,0-2.6-0.1-3.3-0.1h-3.7c-0.5,0-0.7,0.7-0.7,2.1
		c0,0.8,0,1.9,0,3.5c0,1.6,0,2.7,0,3.5c0,2.7,0.3,4.6,0.9,5.7c0.9,1.4,2.6,2.1,5.2,2.1c0.8,0,2-0.2,3.5-0.6c1.5-0.4,2.6-0.6,3.2-0.6
		C270.1,645.1,270.5,645.4,270.5,646.2z"/>
	<path id="XMLID_28_" class="st1" d="M324.7,636.1c0,2.5,0.1,6.2,0.4,11.2c0.3,4.9,0.4,8.7,0.4,11.1c0,1.3-0.6,2-1.7,2.1
		c-4,0.3-8.7,0.4-13.9,0.4c-0.6,0-1-0.9-1.2-2.8c-0.2-1.9-0.5-2.8-0.8-2.9c-0.3,0.1-0.6,0.4-1,0.8c-3.6,3.7-7.6,5.5-11.7,5.5
		c-6.3,0-11.6-2.5-15.8-7.5c-3.9-4.7-5.9-10.3-5.9-16.8c0-7.5,2-13.6,6.1-18.2c4.2-4.8,10-7.1,17.4-7.1c5.1,0,9.1,1.8,12.1,5.4
		c0.1,0.2,0.2,0.2,0.3,0.2c0.3,0,0.6-0.8,1-2.4c0.4-1.6,0.8-2.4,1.3-2.4c1.2,0,3.5,0.3,6.9,1c3.2,0.7,5.5,1.2,6.9,1.7
		c0.5,0.2,0.7,0.5,0.7,0.8c0,0.1,0,0.5-0.1,1C325.2,623.2,324.7,629.5,324.7,636.1z M309,636.3c0-2.8-0.9-5.1-2.6-6.9
		c-1.7-1.8-4-2.7-6.8-2.7c-2.8,0-5.1,0.9-6.8,2.7c-1.7,1.8-2.6,4.1-2.6,6.9c0,2.6,0.9,4.9,2.7,6.8c1.8,1.9,4,2.8,6.6,2.8
		c2.8,0,5-0.9,6.8-2.7S309,639.1,309,636.3z"/>
	<path id="XMLID_31_" class="st1" d="M140.5,779c0,1-0.5,1.5-1.4,1.5h-17.3c-0.9,0-1.4-0.6-1.4-1.7c0-3.3,0.1-8.2,0.4-14.8
		c0.2-6.6,0.4-11.5,0.4-14.8c0-0.9-0.1-1.4-0.4-1.5c-0.4,0.2-2.5,5.2-6.5,15.1c-2.3,5.8-4.7,11.6-7,17.3c-0.3,0.7-0.7,1.2-1.2,1.3
		c-0.2,0-0.8,0-2,0c-1.7,0-2.7-0.3-3-1c-1.8-3.6-4.1-8.8-6.9-15.6c-3.1-7.2-5.4-12.5-6.9-15.7c-0.1-0.2-0.2-0.3-0.4-0.5
		c-0.2,0.3-0.3,0.8-0.3,1.4c0,3.2,0.1,8,0.2,14.4c0.2,6.4,0.2,11.2,0.2,14.4c0,1.1-0.5,1.7-1.4,1.7H69.2c-0.7,0-1-0.1-1.2-0.3
		c-0.1-0.2-0.2-0.6-0.2-1.1c0-3.5,0.2-8.9,0.5-16c0.3-7.1,0.5-12.4,0.5-16c0-3.8-0.2-10.9-0.5-21.2c0-2.7-0.2-6.7-0.4-12.1l0-0.8
		c0-0.7,0.7-1,2.1-1c1.8,0,4.5-0.1,8.1-0.2c3.6-0.1,6.3-0.2,8.1-0.2c0.4,0,0.9,0.7,1.5,2.1l14.3,31.3c1,2.1,1.9,3.2,2.5,3.2
		c0.4,0,1.1-1.2,2.3-3.7c3.3-6.8,8.2-17.1,14.6-30.9c0.6-1.3,1.2-1.9,1.8-1.9c0.9,0,2.4,0,4.3,0.1s3.3,0.1,4.3,0.1
		c0.8,0,2.1-0.1,3.7-0.2c1.7-0.2,2.9-0.2,3.7-0.2c1,0,1.5,0.4,1.5,1.2c0,3.8-0.1,9.6-0.4,17.2c-0.3,7.6-0.4,13.4-0.4,17.2
		c0,3.5,0.1,8.9,0.4,16C140.4,770.1,140.5,775.4,140.5,779z"/>
	<path id="XMLID_33_" class="st1" d="M167.4,758.1c0,2.4,0,5.9,0.1,10.6c0.1,4.7,0.1,8.2,0.1,10.6c0,0.7-0.4,1.1-1.2,1.2
		c-1.1,0.2-3.6,0.3-7.5,0.3c-3.9,0-6.4-0.1-7.5-0.3c-0.7-0.1-1.2-0.3-1.3-0.6c-0.1-0.1-0.1-0.6-0.1-1.5c0-2.2,0-5.6,0.1-10.1
		c0.1-4.5,0.1-7.9,0.1-10.2c0-9.2-0.4-16.6-1.1-22.1c-0.1-0.5-0.1-0.9-0.1-1c0-0.7,0.4-1,1.3-1c0.9,0,2.3,0.1,4.2,0.3
		c1.9,0.2,3.3,0.3,4.2,0.3c0.9,0,2.4-0.1,4.2-0.2c1.9-0.2,3.3-0.2,4.2-0.2c0.8,0,1.2,0.3,1.2,1c0,0.1,0,0.4-0.1,0.9
		C167.7,742.3,167.4,749.7,167.4,758.1z M168.6,721.8c0,5.7-3.2,8.5-9.6,8.5c-2.7,0-5-0.7-6.8-2.1c-2-1.6-2.9-3.7-2.9-6.3
		c0-2.5,1-4.6,3-6.3c1.9-1.5,4.1-2.2,6.7-2.2c2.5,0,4.7,0.8,6.6,2.3C167.6,717.2,168.6,719.3,168.6,721.8z"/>
	<path id="XMLID_36_" class="st1" d="M225.3,779.1c0,0.9-0.5,1.4-1.4,1.5c-0.9,0.1-3.3,0.2-7.1,0.2c-4.1,0-6.6-0.1-7.6-0.3
		s-1.5-0.9-1.5-2c0-1.5,0-3.8,0.1-6.9c0.1-3.1,0.1-5.4,0.1-7c0-1.2,0-3-0.1-5.4c-0.1-2.4-0.1-4.2-0.1-5.4c0-4.5-1.9-6.7-5.8-6.7
		c-1.3,0-2.8,0.6-4.4,1.7c-1.8,1.2-2.7,2.5-2.7,3.7v26.4c0,1.1-0.5,1.7-1.5,1.8c-1.1,0.1-3.5,0.2-7,0.2c-3.8,0-6.3-0.1-7.4-0.3
		c-1-0.2-1.5-0.7-1.5-1.6c0-2.5,0-6.4,0-11.5c0-5.1,0-9,0-11.5c0-8.1-0.6-14.5-1.9-19.1c-0.1-0.3-0.1-0.5-0.1-0.7
		c0-0.5,0.2-0.9,0.7-1.1c2.1-0.2,4.8-0.6,8.2-1.1c5.2-1,8.1-1.5,8.7-1.5c0.4,0,0.6,1.1,0.8,3.3s0.5,3.3,0.8,3.3
		c-0.4,0,1.4-1.1,5.2-3.4c3.9-2.3,7.2-3.4,10.1-3.4c4.1,0,7.6,1,10.4,2.9c3.1,2.2,4.6,5.4,4.6,9.4v15.6c0,2.1,0,5.3,0,9.5
		C225.3,773.8,225.3,776.9,225.3,779.1z"/>
	<path id="XMLID_38_" class="st1" d="M251.5,758.1c0,2.4,0,5.9,0.1,10.6c0.1,4.7,0.1,8.2,0.1,10.6c0,0.7-0.4,1.1-1.2,1.2
		c-1.1,0.2-3.6,0.3-7.5,0.3c-3.9,0-6.4-0.1-7.5-0.3c-0.7-0.1-1.2-0.3-1.3-0.6c-0.1-0.1-0.1-0.6-0.1-1.5c0-2.2,0-5.6,0.1-10.1
		c0.1-4.5,0.1-7.9,0.1-10.2c0-9.2-0.4-16.6-1.1-22.1c-0.1-0.5-0.1-0.9-0.1-1c0-0.7,0.4-1,1.3-1c0.9,0,2.3,0.1,4.2,0.3
		c1.9,0.2,3.3,0.3,4.2,0.3c0.9,0,2.4-0.1,4.2-0.2c1.9-0.2,3.3-0.2,4.2-0.2c0.8,0,1.2,0.3,1.2,1c0,0.1,0,0.4-0.1,0.9
		C251.9,742.3,251.5,749.7,251.5,758.1z M252.8,721.8c0,5.7-3.2,8.5-9.6,8.5c-2.7,0-5-0.7-6.8-2.1c-2-1.6-2.9-3.7-2.9-6.3
		c0-2.5,1-4.6,3-6.3c1.9-1.5,4.1-2.2,6.7-2.2c2.5,0,4.7,0.8,6.6,2.3C251.8,717.2,252.8,719.3,252.8,721.8z"/>
	<path id="XMLID_41_" class="st1" d="M309.5,779.1c0,0.9-0.5,1.4-1.4,1.5c-0.9,0.1-3.3,0.2-7.1,0.2c-4.1,0-6.6-0.1-7.6-0.3
		s-1.5-0.9-1.5-2c0-1.5,0-3.8,0.1-6.9c0.1-3.1,0.1-5.4,0.1-7c0-1.2,0-3-0.1-5.4c-0.1-2.4-0.1-4.2-0.1-5.4c0-4.5-1.9-6.7-5.8-6.7
		c-1.3,0-2.8,0.6-4.4,1.7c-1.8,1.2-2.7,2.5-2.7,3.7v26.4c0,1.1-0.5,1.7-1.5,1.8c-1.1,0.1-3.5,0.2-7,0.2c-3.8,0-6.3-0.1-7.4-0.3
		c-1-0.2-1.5-0.7-1.5-1.6c0-2.5,0-6.4,0-11.5c0-5.1,0-9,0-11.5c0-8.1-0.6-14.5-1.9-19.1c-0.1-0.3-0.1-0.5-0.1-0.7
		c0-0.5,0.2-0.9,0.7-1.1c2.1-0.2,4.8-0.6,8.2-1.1c5.2-1,8.1-1.5,8.7-1.5c0.4,0,0.6,1.1,0.8,3.3s0.5,3.3,0.8,3.3
		c-0.4,0,1.4-1.1,5.2-3.4c3.9-2.3,7.2-3.4,10.1-3.4c4.1,0,7.6,1,10.4,2.9c3.1,2.2,4.6,5.4,4.6,9.4v15.6c0,2.1,0,5.3,0,9.5
		C309.5,773.8,309.5,776.9,309.5,779.1z"/>
	<path id="XMLID_43_" class="st1" d="M366.3,767.8c0,9.3-2,15.9-5.9,20c-4,4.1-10.7,6.2-20.1,6.2c-2.7,0-6.5-0.4-11.2-1.3
		c-6-1.1-9-2.4-9-3.9c0-0.6,0.7-3.8,2.1-9.6c0.2-0.9,0.6-1.4,1.1-1.4c0.2,0,0.3,0.1,0.5,0.2c5,2.5,9.7,3.7,13.9,3.7
		c2.3,0,4.7-0.6,7-1.8c2.8-1.4,4.2-3.2,4.2-5.3v-3.3c-3.3,3.1-7.6,4.7-12.8,4.7c-6.1,0-11.1-2.2-15.1-6.6c-3.8-4.2-5.7-9.4-5.7-15.6
		c0-6.2,1.8-11.4,5.5-15.5c3.8-4.3,8.8-6.4,14.9-6.4c4.9,0,8.7,1.8,11.3,5.3c0.5,0.7,0.9,1.1,1.1,1.1c0.3,0,0.4-0.6,0.4-1.8
		c0-2.6,0.3-3.9,0.9-3.9c0.5,0,3.3,0.3,8.4,0.8c5.1,0.5,7.8,0.8,8,0.9c0.6,0.2,0.8,0.6,0.8,1.3c0,2.2-0.1,5.6-0.2,10.1
		c-0.1,4.5-0.2,7.8-0.2,10.1c0,1.3,0,3.3,0,6C366.3,764.4,366.3,766.4,366.3,767.8z M349.4,754.2c0-2.4-0.8-4.4-2.4-6.2
		c-1.6-1.7-3.6-2.6-5.9-2.6c-2.4,0-4.4,0.9-5.9,2.7c-1.6,1.8-2.4,3.8-2.4,6.2c0,2.4,0.8,4.4,2.4,6.2c1.6,1.7,3.6,2.6,5.9,2.6
		c2.4,0,4.4-0.9,5.9-2.6C348.6,758.7,349.4,756.6,349.4,754.2z"/>
</g>
</svg>
