<?xml version="1.0" encoding="utf-8"?>
<!-- Generator: Adobe Illustrator 19.0.0, SVG Export Plug-In . SVG Version: 6.00 Build 0)  -->
<svg version="1.1" id="Layer_1" xmlns="http://www.w3.org/2000/svg" xmlns:xlink="http://www.w3.org/1999/xlink" x="0px" y="0px"
	 viewBox="0 0 1600 850" style="enable-background:new 0 0 1600 850;" xml:space="preserve">
<style type="text/css">
	.st0{fill:#545554;}
	.st1{fill:#FFFFFF;}
</style>
<rect id="XMLID_6_" x="63.6" y="26.1" class="st0" width="444" height="243"/>
<rect id="XMLID_11_" x="779.1" y="470.1" class="st0" width="456" height="126"/>
<rect id="XMLID_4_" x="1172.6" y="132.6" class="st0" width="332.5" height="161"/>
<rect id="XMLID_9_" x="16.5" y="666.6" class="st0" width="864.6" height="130.5"/>
<rect id="XMLID_18_" x="1083.6" y="677.6" class="st0" width="415.5" height="146.5"/>
<rect id="XMLID_23_" x="644.5" y="240.1" class="st0" width="418.1" height="130.5"/>
<rect id="XMLID_13_" x="155.1" y="396.1" class="st0" width="222" height="161"/>
<g id="XMLID_134_">
	<path id="XMLID_135_" class="st1" d="M1186.5,779.4c0,0.6-0.4,1-1.2,1.2c-1,0.3-4,0.4-9.1,0.4c-4.7,0-7.7-0.1-9-0.4
		c-1.1-0.2-1.8-1-2.1-2.2c-1.1-4.7-2-7.2-2.6-7.5c-0.5-0.2-4.9-0.3-13.1-0.3c-5.5,0-8.5,0.1-8.8,0.4c-0.6,0.5-1.2,2.3-1.9,5.2
		c-0.6,2.7-1.4,4.2-2.2,4.4c-1.1,0.3-4.8,0.4-11.1,0.4c-5,0-7.5-0.5-7.5-1.4c0-0.8,3.7-11.2,11-31.2c8-21.6,12.3-33.4,13-35.6
		c0.4-1.2,0.8-1.9,1.4-1.9c0.9,0,2.2,0.1,4.1,0.2c1.8,0.2,3.2,0.2,4.1,0.2c0.9,0,2.2-0.1,3.9-0.2s3-0.2,3.8-0.2
		c0.6,0,1.2,0.5,1.7,1.6c1.6,3.4,6.3,15.1,14,35.2C1182.6,768,1186.5,778.5,1186.5,779.4z M1151.8,734.9c-0.7,1.4-1.8,4.5-3.5,9.3
		c-1.8,5.1-2.6,8.1-2.6,8.9c0,0.6,1,0.9,2.9,1c1,0.1,2.7,0.1,5,0.1c2.1,0,3.3-0.3,3.6-0.8c0.1-0.2,0.1-0.4,0.1-0.7
		c0-1.1-0.7-4-2.2-8.9C1153.6,739.2,1152.5,736.2,1151.8,734.9z"/>
	<path id="XMLID_138_" class="st1" d="M1239.6,779.2c0,0.9-0.5,1.4-1.4,1.5c-0.9,0.1-3.3,0.2-7.1,0.2c-4.1,0-6.6-0.1-7.6-0.3
		s-1.5-0.9-1.5-2c0-1.5,0-3.8,0.1-6.9s0.1-5.4,0.1-7c0-1.2,0-3-0.1-5.4c-0.1-2.4-0.1-4.2-0.1-5.4c0-4.5-1.9-6.7-5.8-6.7
		c-1.3,0-2.8,0.6-4.4,1.7c-1.8,1.2-2.7,2.5-2.7,3.7v26.4c0,1.1-0.5,1.7-1.5,1.8c-1.1,0.1-3.5,0.2-7,0.2c-3.8,0-6.3-0.1-7.4-0.3
		c-1-0.2-1.5-0.7-1.5-1.6c0-2.5,0-6.4,0-11.5c0-5.1,0-9,0-11.5c0-8.1-0.6-14.5-1.9-19.1c-0.1-0.3-0.1-0.5-0.1-0.7
		c0-0.5,0.2-0.9,0.7-1.1c2.1-0.2,4.8-0.6,8.2-1.1c5.2-1,8.1-1.5,8.7-1.5c0.4,0,0.6,1.1,0.8,3.3s0.5,3.3,0.8,3.3
		c-0.4,0,1.4-1.1,5.2-3.4s7.2-3.4,10.1-3.4c4.1,0,7.6,1,10.4,2.9c3.1,2.2,4.6,5.4,4.6,9.4v15.6c0,2.1,0,5.3,0,9.5
		C1239.6,773.9,1239.6,777,1239.6,779.2z"/>
	<path id="XMLID_140_" class="st1" d="M1299.5,711.3c0-0.7-0.1,0.4-0.4,3.2c-0.4,3.6-0.6,8.2-0.8,13.9c-0.3,6.4-0.4,13.6-0.4,21.8
		c0,13.4,0.4,23,1.1,28.7c0.1,0.6,0.1,1,0.1,1.2c0,0.4-0.2,0.6-0.7,0.6c-1.2,0.2-5.5,0.2-12.9,0.2c-1.8,0-2.8-0.3-3-1
		c-0.1-1.2-0.1-2.5-0.2-3.7c0-0.3-0.2-0.5-0.4-0.8c-0.2,0.1-0.4,0.3-0.7,0.6c-3.5,3.5-7.9,5.2-13.2,5.2c-6.9,0-12.4-2.4-16.5-7.2
		c-3.9-4.6-5.9-10.4-5.9-17.4c0-7.1,1.9-12.9,5.8-17.5c4.1-4.9,9.6-7.3,16.6-7.3c4.9,0,8.7,1.6,11.5,4.7c0.5,0.5,0.8,0.8,1,0.8
		c0.3,0,0.4-0.4,0.4-1.3c0-2.5-0.1-6.3-0.2-11.2c-0.1-5-0.2-8.7-0.2-11.2c0-0.9,0.3-1.5,0.8-1.6c2.1-0.1,4.9-0.3,8.6-0.6
		c6.5-0.8,9.4-1.2,8.6-1.2C1299.2,710.1,1299.5,710.5,1299.5,711.3z M1281.1,756.2c0-2.6-0.9-4.8-2.7-6.8c-1.8-1.9-4-2.9-6.5-2.9
		c-2.7,0-4.8,1-6.4,2.9c-1.6,1.9-2.4,4.3-2.4,7c0,2.6,0.8,4.9,2.4,6.7c1.6,2,3.7,2.9,6.3,2.9c2.6,0,4.8-1,6.5-2.9
		S1281.1,758.8,1281.1,756.2z"/>
	<path id="XMLID_143_" class="st1" d="M1339.1,750.2c0,1.3-0.7,1.9-2.1,1.9c-0.6,0-1.5,0-2.7-0.1c-1.2-0.1-2.1-0.1-2.7-0.1
		c-2.7,0-4.5,0.4-5.5,1.3s-1.5,2.6-1.5,5.1c0,1.4,0,3.5,0.1,6.4s0.1,5,0.1,6.4c0,0.9,0.1,2.4,0.2,4.2c0.1,1.9,0.2,3.3,0.2,4.2
		c0,0.8-0.5,1.2-1.6,1.3c-1.6,0.1-4,0.2-7.2,0.2c-3.1,0-5.6-0.1-7.4-0.3c-1.1-0.1-1.6-0.7-1.6-1.6c0-2.6,0-6.5,0-11.7
		c0-5.2,0-9.1,0-11.7c0-7.6-0.7-13.9-2.1-18.9c-0.1-0.3-0.1-0.5-0.1-0.7c0-0.5,0.2-0.8,0.7-1c1.8-0.2,4.4-0.6,7.9-1.1
		c5.1-1,7.8-1.5,8-1.5c0.6,0,1,1,1.1,3.1c0.2,2.1,0.5,3.1,0.9,3.1c-0.5,0,0.9-0.9,4-2.6s6.1-2.6,9-2.6c1.8,0,2.7,0.4,2.7,1.2
		c0,0.9-0.1,2.3-0.3,4c-0.2,1.9-0.3,3.2-0.3,4c0,0.9,0,2.2,0,3.8C1339.1,748.3,1339.1,749.5,1339.1,750.2z"/>
	<path id="XMLID_145_" class="st1" d="M1391.8,756.6c0,7.4-2.3,13.4-6.8,18.1s-10.5,6.9-17.9,6.9c-7.2,0-13.1-2.3-17.7-6.8
		c-4.6-4.6-6.9-10.4-6.9-17.6c0-7.6,2.2-13.7,6.6-18.4c4.4-4.7,10.4-7.1,18-7.1c7.4,0,13.3,2.3,17.9,6.9
		C1389.6,743.2,1391.8,749.2,1391.8,756.6z M1375.8,756.6c0-2.6-0.8-4.8-2.4-6.8c-1.6-2-3.7-3-6.2-3c-2.6,0-4.7,1-6.3,3
		c-1.6,1.9-2.3,4.1-2.3,6.7c0,2.6,0.8,4.9,2.3,6.8c1.7,2,3.8,3,6.3,3c2.5,0,4.6-1,6.3-3C1375.1,761.5,1375.8,759.2,1375.8,756.6z"/>
	<path id="XMLID_148_" class="st1" d="M1415.8,758.2c0,2.4,0,5.9,0.1,10.6s0.1,8.2,0.1,10.6c0,0.7-0.4,1.1-1.2,1.2
		c-1.1,0.2-3.6,0.3-7.5,0.3c-3.9,0-6.4-0.1-7.5-0.3c-0.7-0.1-1.2-0.3-1.3-0.6c-0.1-0.1-0.1-0.6-0.1-1.5c0-2.2,0-5.6,0.1-10.1
		s0.1-7.9,0.1-10.2c0-9.2-0.4-16.6-1.1-22.1c-0.1-0.5-0.1-0.9-0.1-1c0-0.7,0.4-1,1.3-1c0.9,0,2.3,0.1,4.2,0.3
		c1.9,0.2,3.3,0.3,4.2,0.3c0.9,0,2.4-0.1,4.2-0.2c1.9-0.2,3.3-0.2,4.2-0.2c0.8,0,1.2,0.3,1.2,1c0,0.1,0,0.4-0.1,0.9
		C1416.2,742.4,1415.8,749.8,1415.8,758.2z M1417.1,721.9c0,5.7-3.2,8.5-9.6,8.5c-2.7,0-5-0.7-6.8-2.1c-2-1.6-2.9-3.7-2.9-6.3
		c0-2.5,1-4.6,3-6.3c1.9-1.5,4.1-2.2,6.7-2.2c2.5,0,4.7,0.8,6.6,2.3C1416.1,717.3,1417.1,719.4,1417.1,721.9z"/>
	<path id="XMLID_151_" class="st1" d="M1477,711.3c0-0.7-0.1,0.4-0.4,3.2c-0.4,3.6-0.6,8.2-0.8,13.9c-0.3,6.4-0.4,13.6-0.4,21.8
		c0,13.4,0.4,23,1.1,28.7c0.1,0.6,0.1,1,0.1,1.2c0,0.4-0.2,0.6-0.7,0.6c-1.2,0.2-5.5,0.2-12.9,0.2c-1.8,0-2.8-0.3-3-1
		c-0.1-1.2-0.1-2.5-0.2-3.7c0-0.3-0.2-0.5-0.4-0.8c-0.2,0.1-0.4,0.3-0.7,0.6c-3.5,3.5-7.9,5.2-13.2,5.2c-6.9,0-12.4-2.4-16.5-7.2
		c-3.9-4.6-5.9-10.4-5.9-17.4c0-7.1,1.9-12.9,5.8-17.5c4.1-4.9,9.6-7.3,16.6-7.3c4.9,0,8.7,1.6,11.5,4.7c0.5,0.5,0.8,0.8,1,0.8
		c0.3,0,0.4-0.4,0.4-1.3c0-2.5-0.1-6.3-0.2-11.2c-0.1-5-0.2-8.7-0.2-11.2c0-0.9,0.3-1.5,0.8-1.6c2.1-0.1,4.9-0.3,8.6-0.6
		c6.5-0.8,9.4-1.2,8.6-1.2C1476.6,710.1,1477,710.5,1477,711.3z M1458.6,756.2c0-2.6-0.9-4.8-2.7-6.8c-1.8-1.9-4-2.9-6.5-2.9
		c-2.7,0-4.8,1-6.4,2.9c-1.6,1.9-2.4,4.3-2.4,7c0,2.6,0.8,4.9,2.4,6.7c1.6,2,3.7,2.9,6.3,2.9c2.6,0,4.8-1,6.5-2.9
		S1458.6,758.8,1458.6,756.2z"/>
</g>
<g id="XMLID_1_">
	<path id="XMLID_2_" class="st1" d="M222.1,475c0,3.8,0.1,9.6,0.3,17.3s0.3,13.5,0.3,17.3c0,0.7-0.1,1.1-0.4,1.2
		c-0.1,0-0.5,0.1-1.3,0.2c-2.1,0.3-4.9,0.4-8.5,0.4c-4.8,0-7.8-0.1-9.1-0.4c-0.9-0.2-1.4-0.7-1.4-1.5c0,0.5,0.1-2.3,0.4-8.6
		c0.6-13.2,0.9-21.8,0.9-26c0-3.5-0.1-8.7-0.3-15.7c-0.2-7-0.3-12.2-0.3-15.7c0-0.7,0.4-1.1,1.1-1.1c1,0,2.5,0,4.6,0.1
		c2,0.1,3.6,0.1,4.6,0.1c1,0,2.5,0,4.5-0.1c2-0.1,3.5-0.1,4.5-0.1c0.9,0,1.4,0.4,1.4,1.1c0,3.5-0.2,8.7-0.6,15.7
		C222.3,466.3,222.1,471.5,222.1,475z"/>
	<path id="XMLID_7_" class="st1" d="M299.9,476.9c0,10.2-3.2,18.7-9.7,25.5c-6.6,7-15,10.4-25.1,10.4c-10.1,0-18.4-3.5-25-10.5
		c-6.5-6.9-9.8-15.3-9.8-25.4c0-10.1,3.3-18.6,9.8-25.5c6.6-7.1,15-10.6,25-10.6c10,0,18.3,3.5,25,10.6
		C296.6,458.4,299.9,466.9,299.9,476.9z M281.4,476.8c0-4.9-1.5-9-4.4-12.5c-3.1-3.6-7-5.4-11.9-5.4c-4.6,0-8.5,1.9-11.7,5.6
		c-3.1,3.6-4.6,7.7-4.6,12.4c0,5,1.4,9.1,4.3,12.5c3.1,3.5,7,5.2,12,5.2c4.6,0,8.5-1.8,11.7-5.5
		C279.8,485.6,281.4,481.5,281.4,476.8z"/>
	<path id="XMLID_12_" class="st1" d="M340.4,488.7c0,6.6-2.8,12.3-8.3,17c-4.9,4.2-10.8,6.8-17.8,8c-0.3,0-0.5,0-0.6,0
		c-0.7,0-2.4-2.3-5-6.9c-2.6-4.6-3.9-7.4-3.9-8.4c0-0.4,0.2-0.6,0.7-0.7c4.7-1.1,7.8-2,9.4-2.7c3.4-1.7,5.1-4.2,5.1-7.5
		c0-2.1-1.1-4.5-3.3-7.1c-3.8-4.4-5.9-6.9-6.3-7.4c-2.2-3.4-3.4-7.1-3.4-11.2c0-6,2.8-10.9,8.3-14.8c4.5-3.3,10-5.4,16.6-6.3
		c0.4,0,0.6,0,0.8,0c0.5,0,0.9,0.4,1.2,1.2c0.8,2.4,2.8,6.7,5.9,12.9c0.1,0.2,0.1,0.4,0.1,0.5c0,0.6-0.3,0.8-0.9,0.8
		c-0.3,0-0.7,0-1.3-0.1c-0.6-0.1-1.1-0.1-1.4-0.1c-2.3,0-4.4,0.5-6.2,1.6c-2.1,1.2-3.2,3-3.2,5.2c0,2,1.2,4.4,3.5,7.3
		c4.1,5.2,6.3,7.9,6.5,8.2C339.3,481.5,340.4,485.1,340.4,488.7z"/>
</g>
<g id="XMLID_116_">
	<path id="XMLID_117_" class="st1" d="M902.5,518.6c0,0.1-3,6.7-9.1,19.7c-6.2,13.3-9.7,20.8-10.5,22.4c-0.3,0.6-0.5,0.9-0.5,1
		c-0.1,0.2-0.4,0.3-0.9,0.4c-0.8,0.2-3.1,0.3-6.9,0.3c-3.5,0-5.7-0.1-6.5-0.3c-0.7-0.2-1-0.3-1.2-0.4s-0.3-0.4-0.6-0.9
		c-0.2-0.4-1.1-2.7-2.8-6.9l-5.3-13.6l-5.4,13.7c-0.6,1.6-1.5,3.8-2.7,6.7c-0.3,0.6-0.6,0.9-0.7,1c-0.1,0.1-0.5,0.2-1.1,0.3
		c-1.1,0.2-3.2,0.3-6.4,0.3c-3.9,0-6.3-0.1-7-0.3c-0.6-0.1-1-0.6-1.4-1.4c-12.8-26.2-19.1-40.2-19.1-42.1c0-2.6,0.1-6.5,0.3-11.7
		c0.2-5.2,0.3-9.1,0.3-11.7c0-1.1,0.3-1.6,1-1.6c1.9,0,4.7,0.1,8.4,0.2c3.8,0.2,6.6,0.2,8.5,0.2c0.7,0,1.1,0.3,1.1,0.9
		c0,2.6-0.1,6.5-0.4,11.8c-0.2,5.3-0.4,9.2-0.4,11.8c0,1,1.2,4.1,3.6,9.3c2.1,4.7,3.7,7.9,4.7,9.5c0.5,0.8,0.8,1.3,1,1.3
		c0.3,0,0.9-1.6,2-4.7c3.1-8.8,4.6-13.9,4.7-15.5c0.1-3,0.1-6.8,0-11.4c-0.1-6.7-0.1-10.5-0.1-11.5c0-0.6,0-1,0.1-1.1
		c0.1-0.1,0.5-0.2,1.1-0.3c1.7-0.2,4.5-0.3,8.6-0.3c6.2,0,9.3,0.4,9.3,1.3c0,2.2-0.1,5.6-0.2,10.2c-0.2,4.5-0.2,7.8-0.2,10.2v2.5
		c0,1.7,1.7,7,5,15.9c1.1,3.1,1.8,4.6,2.1,4.6c0.2,0,0.5-0.4,1-1.3c0.9-1.6,2.4-4.8,4.4-9.5c2.2-5.1,3.4-8.2,3.4-9.2
		c0-2.6-0.1-6.6-0.4-11.8c-0.2-5.3-0.4-9.2-0.4-11.8c0-0.6,0.4-0.9,1.1-0.9c1.9,0,4.8-0.1,8.7-0.2c3.9-0.2,6.7-0.2,8.7-0.2
		c0.6,0,0.9,0.7,0.9,2c0,2.6,0.1,6.4,0.3,11.5S902.5,516.1,902.5,518.6z"/>
	<path id="XMLID_119_" class="st1" d="M927.4,539.7c0,2.4,0,5.9,0.1,10.6c0.1,4.7,0.1,8.2,0.1,10.6c0,0.7-0.4,1.1-1.2,1.2
		c-1.1,0.2-3.6,0.3-7.5,0.3c-3.9,0-6.4-0.1-7.5-0.3c-0.7-0.1-1.2-0.3-1.3-0.6c-0.1-0.1-0.1-0.6-0.1-1.5c0-2.2,0-5.6,0.1-10.1
		c0.1-4.5,0.1-7.9,0.1-10.2c0-9.2-0.4-16.6-1.1-22.1c-0.1-0.5-0.1-0.9-0.1-1c0-0.7,0.4-1,1.3-1c0.9,0,2.3,0.1,4.2,0.3
		s3.3,0.3,4.2,0.3s2.4-0.1,4.2-0.2c1.9-0.2,3.3-0.2,4.2-0.2c0.8,0,1.2,0.3,1.2,1c0,0.1,0,0.4-0.1,0.9
		C927.7,524,927.4,531.3,927.4,539.7z M928.6,503.4c0,5.7-3.2,8.5-9.6,8.5c-2.7,0-5-0.7-6.8-2.1c-2-1.6-2.9-3.7-2.9-6.3
		c0-2.5,1-4.6,3-6.3c1.9-1.5,4.1-2.2,6.7-2.2c2.5,0,4.7,0.8,6.6,2.3C927.7,498.8,928.6,500.9,928.6,503.4z"/>
	<path id="XMLID_122_" class="st1" d="M985.3,560.7c0,0.9-0.5,1.4-1.4,1.5s-3.3,0.2-7.1,0.2c-4.1,0-6.6-0.1-7.6-0.3s-1.5-0.9-1.5-2
		c0-1.5,0-3.8,0.1-6.9c0.1-3.1,0.1-5.4,0.1-7c0-1.2,0-3-0.1-5.4s-0.1-4.2-0.1-5.4c0-4.5-1.9-6.7-5.8-6.7c-1.3,0-2.8,0.6-4.4,1.7
		c-1.8,1.2-2.7,2.5-2.7,3.7v26.4c0,1.1-0.5,1.7-1.5,1.8c-1.1,0.1-3.5,0.2-7,0.2c-3.8,0-6.3-0.1-7.4-0.3c-1-0.2-1.5-0.7-1.5-1.6
		c0-2.5,0-6.4,0-11.5c0-5.1,0-9,0-11.5c0-8.1-0.6-14.5-1.9-19.1c-0.1-0.3-0.1-0.5-0.1-0.7c0-0.5,0.2-0.9,0.7-1.1
		c2.1-0.2,4.8-0.6,8.2-1.1c5.2-1,8.1-1.5,8.7-1.5c0.4,0,0.6,1.1,0.8,3.3s0.5,3.3,0.8,3.3c-0.4,0,1.4-1.1,5.2-3.4
		c3.9-2.3,7.2-3.4,10.1-3.4c4.1,0,7.6,1,10.4,2.9c3.1,2.2,4.6,5.4,4.6,9.4v15.6c0,2.1,0,5.3,0,9.5
		C985.3,555.4,985.3,558.6,985.3,560.7z"/>
	<path id="XMLID_124_" class="st1" d="M1045.3,492.8c0-0.7-0.1,0.4-0.4,3.2c-0.4,3.6-0.6,8.2-0.8,13.9c-0.3,6.4-0.4,13.6-0.4,21.8
		c0,13.4,0.4,23,1.1,28.7c0.1,0.6,0.1,1,0.1,1.2c0,0.4-0.2,0.6-0.7,0.6c-1.2,0.2-5.5,0.2-12.9,0.2c-1.8,0-2.8-0.3-3-1
		c-0.1-1.2-0.1-2.5-0.2-3.7c0-0.3-0.2-0.5-0.4-0.8c-0.2,0.1-0.4,0.3-0.7,0.6c-3.5,3.5-7.9,5.2-13.2,5.2c-6.9,0-12.4-2.4-16.5-7.2
		c-3.9-4.6-5.9-10.4-5.9-17.4c0-7.1,1.9-12.9,5.8-17.5c4.1-4.9,9.6-7.3,16.6-7.3c4.9,0,8.7,1.6,11.5,4.7c0.5,0.5,0.8,0.8,1,0.8
		c0.3,0,0.4-0.4,0.4-1.3c0-2.5-0.1-6.3-0.2-11.2s-0.2-8.7-0.2-11.2c0-0.9,0.3-1.5,0.8-1.6c2.1-0.1,4.9-0.3,8.6-0.6
		c6.5-0.8,9.4-1.2,8.6-1.2C1044.9,491.6,1045.3,492,1045.3,492.8z M1026.8,537.7c0-2.6-0.9-4.8-2.7-6.8c-1.8-1.9-4-2.9-6.5-2.9
		c-2.7,0-4.8,1-6.4,2.9c-1.6,1.9-2.4,4.3-2.4,7c0,2.6,0.8,4.9,2.4,6.7c1.6,2,3.7,2.9,6.3,2.9s4.8-1,6.5-2.9
		S1026.8,540.3,1026.8,537.7z"/>
	<path id="XMLID_127_" class="st1" d="M1099.5,538.1c0,7.4-2.3,13.4-6.8,18.1c-4.5,4.6-10.5,6.9-17.9,6.9c-7.2,0-13.1-2.3-17.7-6.8
		c-4.6-4.6-6.9-10.4-6.9-17.6c0-7.6,2.2-13.7,6.6-18.4c4.4-4.7,10.4-7.1,18-7.1c7.4,0,13.3,2.3,17.9,6.9
		C1097.2,524.7,1099.5,530.7,1099.5,538.1z M1083.4,538.1c0-2.6-0.8-4.8-2.4-6.8c-1.6-2-3.7-3-6.2-3c-2.6,0-4.7,1-6.3,3
		c-1.6,1.9-2.3,4.1-2.3,6.7c0,2.6,0.8,4.9,2.3,6.8c1.7,2,3.8,3,6.3,3c2.5,0,4.6-1,6.3-3C1082.7,543,1083.4,540.7,1083.4,538.1z"/>
	<path id="XMLID_130_" class="st1" d="M1175.4,527.9c0,5.1-0.4,8.6-1.2,10.6c-0.8,2.1-3,6-6.3,11.6c-3.5,5.8-5.8,9.4-7.1,10.8
		c-0.9,0.9-3,1.4-6.4,1.4c-2.8,0-4.6-0.1-5.4-0.3c-0.6-0.2-1.2-0.5-1.7-1c-1.9-1.8-4.7-6.3-8.6-13.4c-4.1,7.3-6.9,11.8-8.4,13.4
		c-0.8,0.8-2.9,1.3-6.4,1.3c-2.5,0-4.1-0.1-4.8-0.3c-1.6-0.5-4.4-4-8.3-10.6c-3.2-5.4-5.4-9.7-6.8-13c-0.8-2.1-1.3-5.6-1.3-10.6
		c0-6,0.2-9.7,0.5-11c0.2-0.8,0.8-1.3,1.7-1.3c1.5,0,3.7,0,6.7,0.1s5.2,0.1,6.7,0.1c0.7,0,1.1,0.5,1.1,1.6c0,0.9,0,2.4-0.1,4.3
		c-0.1,1.9-0.1,3.4-0.1,4.3c0,3.9,0.1,6.9,0.3,8.7c0.1,0.7,0.9,2.5,2.6,5.5c1.7,2.9,2.7,4.4,3.1,4.4c0.6,0,1.7-1.4,3.2-4.3
		c1.3-2.4,2.1-4.3,2.5-5.4c0.4-1.2,0.6-4.1,0.6-8.8c0-1-0.1-2.4-0.3-4.4c-0.2-1.9-0.3-3.4-0.3-4.3c0-1,0.4-1.5,1.1-1.5
		c0.9,0,2.7,0,5.4,0l2,0c0,0-0.1,0-0.2,0c-0.1,0-0.1,0-0.1,0h0.3h1.3c1.2,0,3,0,5.4,0.1c0.7,0.1,1.1,0.6,1.1,1.5
		c0,1.2-0.1,3.1-0.2,5.6c-0.2,2.5-0.2,4.4-0.2,5.6c0,3.3,0.1,5.4,0.4,6.3c0.4,1.1,1.1,2.9,2.3,5.3c1.5,2.9,2.5,4.4,3.1,4.4
		s1.7-1.5,3.3-4.4c1.5-2.8,2.3-4.7,2.4-5.6c0.1-1.2,0.2-7,0.2-17.3c0-1.1,0.3-1.7,1-1.7c1.5,0,3.8,0,6.8-0.1s5.3-0.1,6.8-0.1
		c0.9,0,1.4,0.5,1.7,1.4C1175.2,518.3,1175.4,521.9,1175.4,527.9z"/>
	<path id="XMLID_132_" class="st1" d="M1209.6,522.6c0,0.3-0.2,0.8-0.7,1.3c-0.9-0.2-1.8-0.3-2.7-0.3c-1.9,0-3.5,0.4-4.8,1.3
		c-1.6,1-2.3,2.4-2.3,4.2c0,1.1,0.8,2.6,2.5,4.3c2.5,2.6,4.1,4.4,4.6,5.3c1.7,2.5,2.5,5.1,2.5,8c0,1.7-0.3,3.4-1,5.3
		c-0.7,2.1-1.7,3.5-2.8,4.5c-2.4,2.1-5.2,3.8-8.4,5.3c-3.5,1.5-6.7,2.2-9.6,2.2c-0.7,0-2.1-1.8-4.4-5.3c-2.3-3.5-3.4-5.7-3.4-6.5
		c0-0.3,0.2-0.5,0.5-0.5c2.3-0.4,4.6-0.8,6.9-1.3c2.9-0.9,4.3-2.4,4.3-4.5c0-1.4-0.8-3.1-2.5-5c-3-3.3-4.5-5-4.6-5.2
		c-1.7-2.3-2.5-4.8-2.5-7.4c0-4.9,2.5-9,7.4-12.5c4.4-3,9.2-4.5,14.2-4.5c0.5,0,1.8,1.8,3.9,5.2C1208.6,520,1209.6,522,1209.6,522.6
		z"/>
</g>
<g id="XMLID_100_">
	<path id="XMLID_101_" class="st1" d="M773.7,266.6c0,3.7-0.2,9.3-0.5,16.7c-0.3,7.4-0.5,13-0.5,16.8v32.2c0,0.9-0.5,1.3-1.4,1.3
		c-0.8,0-2,0-3.5,0.1c-1.6,0.1-2.8,0.1-3.5,0.1c-0.8,0-2.1-0.1-3.8-0.2c-1.7-0.1-3-0.2-3.8-0.2c-0.6,0-1.3-0.5-2.1-1.6
		c-2.3-3.2-7.6-10.2-15.8-21c-2.2-3-5.7-7.5-10.3-13.4c-0.1-0.2-0.4-0.4-0.7-0.6c-0.3,0.2-0.4,0.6-0.4,1.1c0,3.8,0.1,9.4,0.3,17
		c0.2,7.6,0.3,13.2,0.3,17c0,1.1-0.4,1.7-1.3,1.7h-16.9c-0.9,0-1.4-0.5-1.4-1.5c0-3.5,0.2-8.8,0.5-15.9c0.3-7.1,0.5-12.4,0.5-16
		c0-3.7-0.2-9.3-0.5-16.8c-0.3-7.5-0.5-13-0.5-16.7c0-0.7,0.6-1.1,1.9-1.1c1.9,0,4.2-0.1,7-0.4c0.7-0.1,1.9-0.3,3.9-0.6
		c1.6-0.3,2.9-0.4,3.9-0.4c0.4,0,1,0.6,1.8,1.7l18.2,25c1.6,2.2,4.1,5.5,7.4,9.9c0.8,1,1.5,1.5,2.1,1.5c0.4,0,0.6-1.3,0.6-3.8
		c0-3.4-0.2-8.6-0.6-15.4c-0.4-6.9-0.6-12-0.6-15.5c0-1.2,0.3-1.8,1-1.8c2,0,4.9-0.1,8.8-0.2c3.9-0.2,6.9-0.2,8.8-0.2
		C773.4,265.1,773.7,265.6,773.7,266.6z"/>
	<path id="XMLID_103_" class="st1" d="M831.5,309.2c0,2.5,0.1,6.2,0.4,11.2c0.3,4.9,0.4,8.7,0.4,11.1c0,1.3-0.6,2-1.7,2.1
		c-4,0.3-8.7,0.4-13.9,0.4c-0.6,0-1-0.9-1.2-2.8c-0.2-1.9-0.5-2.8-0.8-2.9c-0.3,0.1-0.6,0.4-1,0.8c-3.6,3.7-7.6,5.5-11.7,5.5
		c-6.3,0-11.6-2.5-15.8-7.5c-3.9-4.7-5.9-10.3-5.9-16.8c0-7.5,2-13.6,6.1-18.2c4.2-4.8,10-7.1,17.4-7.1c5.1,0,9.1,1.8,12.1,5.4
		c0.1,0.2,0.2,0.2,0.3,0.2c0.3,0,0.6-0.8,1-2.4c0.4-1.6,0.8-2.4,1.3-2.4c1.2,0,3.5,0.3,6.9,1c3.2,0.7,5.5,1.2,6.9,1.7
		c0.5,0.2,0.7,0.5,0.7,0.8c0,0.1,0,0.5-0.1,1C832,296.4,831.5,302.6,831.5,309.2z M815.8,309.5c0-2.8-0.9-5.1-2.6-6.9
		c-1.7-1.8-4-2.7-6.8-2.7c-2.8,0-5.1,0.9-6.8,2.7c-1.7,1.8-2.6,4.1-2.6,6.9c0,2.6,0.9,4.9,2.7,6.8c1.8,1.9,4,2.8,6.6,2.8
		c2.8,0,5-0.9,6.8-2.7S815.8,312.3,815.8,309.5z"/>
	<path id="XMLID_106_" class="st1" d="M873.9,319.3c0,1-0.1,2.5-0.4,4.4c-0.2,2-0.4,3.4-0.4,4.4s-0.1,1.5-0.3,1.8
		c-0.2,0.3-0.7,0.6-1.6,1.1c-4.2,2.3-8.9,3.5-14,3.5c-9.4,0-14.1-3.6-14.1-10.8c0-2.1,0.1-5.4,0.2-9.7c0.2-4.3,0.2-7.5,0.2-9.7
		c0-1.4-0.8-2.1-2.5-2.1c-0.1,0-0.3,0-0.6,0c-0.3,0-0.5,0-0.6,0c-1.2,0-1.9-0.4-1.9-1.3c0-0.5,0-1.3,0.1-2.4
		c0.1-1.1,0.1-1.9,0.1-2.4c0-0.7,0-1.7-0.1-3.1c-0.1-1.4-0.1-2.4-0.1-3.1c0-0.7,1-1,3.1-1.1c1.2,0,1.8-0.4,1.9-1
		c0.2-1.2,0.3-3.2,0.2-5.9c-0.1-4.2-0.2-6.2-0.2-6c0-3.8,0.4-5.7,1.1-5.7c0.9,0,2.1,0.2,3.8,0.6c1.9,0.4,3.1,0.7,3.9,0.7
		c1.7,0.2,4.2,0.5,7.5,0.9c0.8,0.1,1.2,0.3,1.2,0.8c0,1.3-0.1,3.3-0.3,5.9c-0.2,2.6-0.3,4.6-0.3,6c0,1.6,0.5,2.4,1.4,2.4
		c1.1,0,2.9,0,5.2-0.1c2.3-0.1,4.1-0.1,5.2-0.1c0.7,0,1.1,0.2,1.1,0.7c0,0.7-0.1,1.9-0.2,3.4c-0.2,1.5-0.2,2.6-0.2,3.4
		c0,0.8,0,1.9,0,3.4c0,1.5,0,2.6,0,3.4c0,0.7-0.5,1-1.4,1c-0.7,0-1.7,0-3.3-0.1c-1.5,0-2.6-0.1-3.3-0.1h-3.7c-0.5,0-0.7,0.7-0.7,2.1
		c0,0.8,0,1.9,0,3.5c0,1.6,0,2.7,0,3.5c0,2.7,0.3,4.6,0.9,5.7c0.9,1.4,2.6,2.1,5.2,2.1c0.8,0,2-0.2,3.5-0.6c1.5-0.4,2.6-0.6,3.2-0.6
		C873.5,318.3,873.9,318.6,873.9,319.3z"/>
	<path id="XMLID_108_" class="st1" d="M897.1,311.2c0,2.4,0,5.9,0.1,10.6c0.1,4.7,0.1,8.2,0.1,10.6c0,0.7-0.4,1.1-1.2,1.2
		c-1.1,0.2-3.6,0.3-7.5,0.3c-3.9,0-6.4-0.1-7.5-0.3c-0.7-0.1-1.2-0.3-1.3-0.6c-0.1-0.1-0.1-0.6-0.1-1.5c0-2.2,0-5.6,0.1-10.1
		c0.1-4.5,0.1-7.9,0.1-10.2c0-9.2-0.4-16.6-1.1-22.1c-0.1-0.5-0.1-0.9-0.1-1c0-0.7,0.4-1,1.3-1c0.9,0,2.3,0.1,4.2,0.3
		c1.9,0.2,3.3,0.3,4.2,0.3c0.9,0,2.4-0.1,4.2-0.2c1.9-0.2,3.3-0.2,4.2-0.2c0.8,0,1.2,0.3,1.2,1c0,0.1,0,0.4-0.1,0.9
		C897.4,295.5,897.1,302.9,897.1,311.2z M898.3,274.9c0,5.7-3.2,8.5-9.6,8.5c-2.7,0-5-0.7-6.8-2.1c-2-1.6-2.9-3.7-2.9-6.3
		c0-2.5,1-4.6,3-6.3c1.9-1.5,4.1-2.2,6.7-2.2c2.5,0,4.7,0.8,6.6,2.3C897.3,270.4,898.3,272.4,898.3,274.9z"/>
	<path id="XMLID_111_" class="st1" d="M953.4,299.8c0,5.6-0.2,8.9-0.5,9.9c-0.7,2.3-3,6.2-6.7,11.8c-3.3,4.8-6,8.5-8.3,11.1
		c-0.8,1-3.4,1.5-7.7,1.5c-3.7,0-6.1-0.1-7.2-0.4c-0.7-0.2-1.3-0.5-1.7-1c-2-2.1-4.7-5.8-8.3-11c-3.9-5.6-6.2-9.5-6.9-11.6
		c-0.8-2.2-1.2-5.6-1.2-10.1c0-1.3,0-3.2,0-5.7c0-2.6,0-4.5,0-5.8c0-0.8,0.6-1.3,1.7-1.3c1.7,0,4.2,0,7.5,0.1
		c3.3,0.1,5.8,0.1,7.5,0.1c0.7,0,1.1,0.5,1.1,1.5c0,0.9-0.1,2.3-0.2,4.1c-0.1,1.8-0.2,3.2-0.2,4.2c0,3.4,0.1,6.2,0.3,8.3
		c0.1,1.1,1,3.2,2.8,6.3c1.9,3.2,3.2,4.8,4.1,4.8c0.8,0,2.1-1.6,3.9-4.7c1.7-3,2.7-5,2.8-6.1c0.3-2.3,0.4-5.1,0.4-8.4
		c0-0.9-0.1-2.4-0.3-4.3s-0.3-3.3-0.3-4.2c0-1,0.3-1.5,1-1.5c0.8,0,1.9,0,3.5,0c1.5,0,2.7,0,3.5,0s2-0.1,3.5-0.2
		c1.6-0.1,2.8-0.2,3.5-0.2c0.8,0,1.4,0.4,1.6,1.3C953.2,290.3,953.4,294.1,953.4,299.8z"/>
	<path id="XMLID_113_" class="st1" d="M1004.8,307.1c0,3.3-1.1,5.2-3.2,5.6c-0.4,0.1-3.7,0.4-10.1,1.1c-3.8,0.4-9.6,0.9-17.2,1.5
		c0.5,2.1,1.8,3.7,4.2,4.8c1.9,0.9,4,1.4,6.4,1.4c2.9,0,5.8-0.8,8.7-2.3c1.2-0.8,2.5-1.6,3.7-2.3c0.7,0.3,1.8,2,3.4,5
		c1.6,3,2.4,4.9,2.4,5.7c0,0.2-0.2,0.6-0.7,1.1c-4,4.3-10.1,6.4-18.5,6.4c-7.7,0-14-2.3-18.8-6.8c-4.9-4.6-7.3-10.7-7.3-18.4
		c0-7.5,2.2-13.6,6.5-18.4c4.5-4.9,10.4-7.4,17.9-7.4c6.3,0,11.6,2.3,15.9,6.8C1002.6,295.4,1004.8,300.8,1004.8,307.1z
		 M987.7,304.1c0-2-0.7-3.8-2.1-5.3c-1.4-1.5-3.1-2.3-5.1-2.3c-2.1,0-3.7,0.9-5.1,2.6c-1.2,1.6-1.9,3.5-1.9,5.6
		c0,0.9,0.5,1.3,1.4,1.3c2.4,0,6.2-0.4,11.2-1.1C987.2,304.8,987.7,304.5,987.7,304.1z"/>
</g>
<g id="XMLID_88_">
	<path id="XMLID_89_" class="st1" d="M1278.4,222c0,6.6-2.8,12.3-8.3,17c-4.9,4.2-10.8,6.8-17.8,8c-0.3,0-0.5,0-0.6,0
		c-0.7,0-2.4-2.3-5-6.9c-2.6-4.6-3.9-7.4-3.9-8.4c0-0.4,0.2-0.6,0.7-0.7c4.7-1.1,7.8-2,9.4-2.7c3.4-1.7,5.1-4.2,5.1-7.5
		c0-2.1-1.1-4.5-3.3-7.1c-3.8-4.4-5.9-6.9-6.3-7.4c-2.2-3.4-3.4-7.1-3.4-11.2c0-6,2.8-10.9,8.3-14.8c4.5-3.3,10-5.4,16.6-6.3
		c0.4,0,0.6,0,0.8,0c0.5,0,0.9,0.4,1.2,1.2c0.8,2.4,2.8,6.7,5.9,12.9c0.1,0.2,0.1,0.4,0.1,0.5c0,0.6-0.3,0.8-0.9,0.8
		c-0.3,0-0.7,0-1.3-0.1c-0.6-0.1-1.1-0.1-1.4-0.1c-2.3,0-4.4,0.5-6.2,1.6c-2.1,1.2-3.2,3-3.2,5.2c0,2,1.2,4.4,3.5,7.3
		c4.1,5.2,6.3,7.9,6.5,8.2C1277.3,214.9,1278.4,218.5,1278.4,222z"/>
	<path id="XMLID_91_" class="st1" d="M1356.2,210.3c0,5.1-0.4,8.6-1.2,10.6c-0.8,2.1-3,6-6.3,11.6c-3.5,5.8-5.8,9.4-7.1,10.8
		c-0.9,0.9-3,1.4-6.4,1.4c-2.8,0-4.6-0.1-5.4-0.3c-0.6-0.2-1.2-0.5-1.7-1c-1.9-1.8-4.7-6.3-8.6-13.4c-4.1,7.3-6.9,11.8-8.4,13.4
		c-0.8,0.8-2.9,1.3-6.4,1.3c-2.5,0-4.1-0.1-4.8-0.3c-1.6-0.5-4.4-4-8.3-10.6c-3.2-5.4-5.4-9.7-6.8-13c-0.8-2.1-1.3-5.6-1.3-10.6
		c0-6,0.2-9.7,0.5-11c0.2-0.8,0.8-1.3,1.7-1.3c1.5,0,3.7,0,6.7,0.1c3,0.1,5.2,0.1,6.7,0.1c0.7,0,1.1,0.5,1.1,1.6
		c0,0.9,0,2.4-0.1,4.3c-0.1,1.9-0.1,3.4-0.1,4.3c0,3.9,0.1,6.9,0.3,8.7c0.1,0.7,0.9,2.5,2.6,5.5c1.7,2.9,2.7,4.4,3.1,4.4
		c0.6,0,1.7-1.4,3.2-4.3c1.3-2.4,2.1-4.3,2.5-5.4c0.4-1.2,0.6-4.1,0.6-8.8c0-1-0.1-2.4-0.3-4.4c-0.2-1.9-0.3-3.4-0.3-4.3
		c0-1,0.4-1.5,1.1-1.5c0.9,0,2.7,0,5.4,0l2,0c0,0-0.1,0-0.2,0c-0.1,0-0.1,0-0.1,0h0.3h1.3c1.2,0,3,0,5.4,0.1
		c0.7,0.1,1.1,0.6,1.1,1.5c0,1.2-0.1,3.1-0.2,5.6c-0.2,2.5-0.2,4.4-0.2,5.6c0,3.3,0.1,5.4,0.4,6.3c0.4,1.1,1.1,2.9,2.3,5.3
		c1.5,2.9,2.5,4.4,3.1,4.4s1.7-1.5,3.3-4.4c1.5-2.8,2.3-4.7,2.4-5.6c0.1-1.2,0.2-7,0.2-17.3c0-1.1,0.3-1.7,1-1.7
		c1.5,0,3.8,0,6.8-0.1c3-0.1,5.3-0.1,6.8-0.1c0.9,0,1.4,0.5,1.7,1.4C1356.1,200.6,1356.2,204.3,1356.2,210.3z"/>
	<path id="XMLID_93_" class="st1" d="M1379.9,222.1c0,2.4,0,5.9,0.1,10.6c0.1,4.7,0.1,8.2,0.1,10.6c0,0.7-0.4,1.1-1.2,1.2
		c-1.1,0.2-3.6,0.3-7.5,0.3c-3.9,0-6.4-0.1-7.5-0.3c-0.7-0.1-1.2-0.3-1.3-0.6c-0.1-0.1-0.1-0.6-0.1-1.5c0-2.2,0-5.6,0.1-10.1
		c0.1-4.5,0.1-7.9,0.1-10.2c0-9.2-0.4-16.6-1.1-22.1c-0.1-0.5-0.1-0.9-0.1-1c0-0.7,0.4-1,1.3-1c0.9,0,2.3,0.1,4.2,0.3
		c1.9,0.2,3.3,0.3,4.2,0.3c0.9,0,2.4-0.1,4.2-0.2c1.9-0.2,3.3-0.2,4.2-0.2c0.8,0,1.2,0.3,1.2,1c0,0.1,0,0.4-0.1,0.9
		C1380.3,206.4,1379.9,213.7,1379.9,222.1z M1381.2,185.8c0,5.7-3.2,8.5-9.6,8.5c-2.7,0-5-0.7-6.8-2.1c-2-1.6-2.9-3.7-2.9-6.3
		c0-2.5,1-4.6,3-6.3c1.9-1.5,4.1-2.2,6.7-2.2c2.5,0,4.7,0.8,6.6,2.3C1380.2,181.2,1381.2,183.3,1381.2,185.8z"/>
	<path id="XMLID_96_" class="st1" d="M1419.4,213c0,0.8-0.4,1.2-1.3,1.2c-3.5,0-6.3-0.1-8.3-0.3c0.1,2.4,0.2,5.8,0.3,10.2
		c0,1.9,0.2,5.1,0.4,9.7c0.2,4.1,0.3,7.4,0.3,9.7c0,0.7-0.5,1.1-1.4,1.2c-1.1,0.1-3.9,0.2-8.3,0.2c-3.7,0-6.1-0.1-7.2-0.3
		c-1.1-0.2-1.7-0.9-1.7-2v-26.9c0-0.9-0.7-1.4-2-1.4c-0.2,0-0.6,0-1.1,0c-0.5,0-0.9,0-1.1,0c-0.9,0-1.4-0.3-1.4-0.8
		c-0.3-2.8-0.4-6.9-0.4-12.4c0-1.2,0.6-1.9,1.9-2.2c1.1-0.1,2.2-0.2,3.4-0.2c-0.2-2.6-0.2-4.6-0.2-6.1c0-5.6,1.1-9.7,3.3-12.2
		c4.3-5,11.3-7.6,21-7.6c0.7,0,1,0.2,1.2,0.6c0.3,1.5,0.6,3.6,1.1,6.5c0,0.3,0.2,1.2,0.6,2.7c0.3,1.2,0.4,2.1,0.4,2.8
		c0,0.8-1.2,1.3-3.5,1.5c-2.7,0.3-4.3,0.8-4.9,1.5c-1.1,1.2-1.6,3.5-1.6,6.9c0,1.1,0.1,2.1,0.2,3c0.9,0,2.3,0,4.2-0.1
		c1.9-0.1,3.4-0.1,4.3-0.1s1.5,0.4,1.5,1.1c0,1.5,0,3.8,0,6.9C1419.4,209.2,1419.4,211.5,1419.4,213z"/>
	<path id="XMLID_98_" class="st1" d="M1457.3,230.2c0,1-0.1,2.5-0.4,4.4c-0.2,2-0.4,3.4-0.4,4.4s-0.1,1.5-0.3,1.8
		c-0.2,0.3-0.7,0.6-1.6,1.1c-4.2,2.3-8.9,3.5-14,3.5c-9.4,0-14.1-3.6-14.1-10.8c0-2.1,0.1-5.4,0.2-9.7c0.2-4.3,0.2-7.5,0.2-9.7
		c0-1.4-0.8-2.1-2.5-2.1c-0.1,0-0.3,0-0.6,0c-0.3,0-0.5,0-0.6,0c-1.2,0-1.9-0.4-1.9-1.3c0-0.5,0-1.3,0.1-2.4
		c0.1-1.1,0.1-1.9,0.1-2.4c0-0.7,0-1.7-0.1-3.1c-0.1-1.4-0.1-2.4-0.1-3.1c0-0.7,1-1,3.1-1.1c1.2,0,1.8-0.4,1.9-1
		c0.2-1.2,0.3-3.2,0.2-5.9c-0.1-4.2-0.2-6.2-0.2-6c0-3.8,0.4-5.7,1.1-5.7c0.9,0,2.1,0.2,3.8,0.6c1.9,0.4,3.1,0.7,3.9,0.7
		c1.7,0.2,4.2,0.5,7.5,0.9c0.8,0.1,1.2,0.3,1.2,0.8c0,1.3-0.1,3.3-0.3,5.9c-0.2,2.6-0.3,4.6-0.3,6c0,1.6,0.5,2.4,1.4,2.4
		c1.1,0,2.9,0,5.2-0.1c2.3-0.1,4.1-0.1,5.2-0.1c0.7,0,1.1,0.2,1.1,0.7c0,0.7-0.1,1.9-0.2,3.4c-0.2,1.5-0.2,2.6-0.2,3.4
		c0,0.8,0,1.9,0,3.4c0,1.5,0,2.6,0,3.4c0,0.7-0.5,1-1.4,1c-0.7,0-1.7,0-3.3-0.1c-1.5,0-2.6-0.1-3.3-0.1h-3.7c-0.5,0-0.7,0.7-0.7,2.1
		c0,0.8,0,1.9,0,3.5c0,1.6,0,2.7,0,3.5c0,2.7,0.3,4.6,0.9,5.7c0.9,1.4,2.6,2.1,5.2,2.1c0.8,0,2-0.2,3.5-0.6c1.5-0.4,2.6-0.6,3.2-0.6
		C1457,229.1,1457.3,229.5,1457.3,230.2z"/>
</g>
<g id="XMLID_57_">
	<path id="XMLID_58_" class="st1" d="M253.7,94.2c0,8.3-1,14-3,17c-3.6,5.5-12.7,8.3-27.3,8.3c-6.6,0-11.6-0.5-15.2-1.5
		c-5.7-1.6-9.3-4.7-11-9.3c-0.8-2.2-1.3-6.3-1.3-12c0-1.3,0-3.3,0.1-6s0.1-4.6,0.1-5.9c0-3.8-0.2-9.4-0.5-17
		c-0.4-7.6-0.5-13.2-0.5-16.9c0-0.8,0.3-1.2,1-1.2c2,0,5,0.1,9,0.2c4,0.2,7,0.2,9,0.2c0.8,0,1.2,0.4,1.2,1.1
		c0,4.3-0.1,10.7-0.4,19.3c-0.3,8.6-0.4,15-0.4,19.3c0,5.1,0.5,8.6,1.6,10.4c1.4,2.4,4.4,3.7,9,3.7c6.7,0,10-3.2,10-9.7
		c0-4.7-0.1-11.8-0.3-21.2c-0.2-9.4-0.3-16.5-0.3-21.2c0-1,0.4-1.5,1.2-1.5c1.9,0,4.8-0.1,8.7-0.2c3.9-0.2,6.8-0.2,8.7-0.2
		c0.9,0,1.4,0.4,1.4,1.2c0,3.7-0.2,9.4-0.5,16.9c-0.3,7.6-0.5,13.2-0.5,17c0,1,0,2.6,0,4.7C253.7,91.6,253.7,93.1,253.7,94.2z"/>
	<path id="XMLID_60_" class="st1" d="M291.6,78.7c0,0.3-0.2,0.8-0.7,1.3c-0.9-0.2-1.8-0.3-2.7-0.3c-1.9,0-3.5,0.4-4.8,1.3
		c-1.6,1-2.3,2.4-2.3,4.2c0,1.1,0.8,2.6,2.5,4.3c2.5,2.6,4.1,4.4,4.6,5.3c1.7,2.5,2.5,5.1,2.5,8c0,1.7-0.3,3.4-1,5.3
		c-0.7,2.1-1.7,3.5-2.8,4.5c-2.4,2.1-5.2,3.8-8.4,5.3c-3.5,1.5-6.7,2.2-9.6,2.2c-0.7,0-2.1-1.8-4.4-5.3c-2.3-3.5-3.4-5.7-3.4-6.5
		c0-0.3,0.2-0.5,0.5-0.5c2.3-0.4,4.6-0.8,6.9-1.3c2.9-0.9,4.3-2.4,4.3-4.5c0-1.4-0.8-3.1-2.5-5c-3-3.3-4.5-5-4.6-5.2
		c-1.7-2.3-2.5-4.8-2.5-7.4c0-4.9,2.5-9,7.4-12.5c4.4-3,9.2-4.5,14.2-4.5c0.5,0,1.8,1.8,3.9,5.2C290.5,76,291.6,78.1,291.6,78.7z"/>
	<path id="XMLID_62_" class="st1" d="M343.3,91.6c0,3.3-1.1,5.2-3.2,5.6c-0.4,0.1-3.7,0.4-10.1,1.1c-3.8,0.4-9.6,0.9-17.2,1.5
		c0.5,2.1,1.8,3.7,4.2,4.8c1.9,0.9,4,1.4,6.4,1.4c2.9,0,5.8-0.8,8.7-2.3c1.2-0.8,2.5-1.6,3.7-2.3c0.7,0.3,1.8,2,3.4,5
		c1.6,3,2.4,4.9,2.4,5.7c0,0.2-0.2,0.6-0.7,1.1c-4,4.3-10.1,6.4-18.5,6.4c-7.7,0-14-2.3-18.8-6.8c-4.9-4.6-7.3-10.7-7.3-18.4
		c0-7.5,2.2-13.6,6.5-18.4c4.5-4.9,10.4-7.4,17.9-7.4c6.3,0,11.6,2.3,15.9,6.8C341.1,79.9,343.3,85.4,343.3,91.6z M326.2,88.7
		c0-2-0.7-3.8-2.1-5.3c-1.4-1.5-3.1-2.3-5.1-2.3c-2.1,0-3.7,0.9-5.1,2.6c-1.2,1.6-1.9,3.5-1.9,5.6c0,0.9,0.5,1.3,1.4,1.3
		c2.4,0,6.2-0.4,11.2-1.1C325.7,89.3,326.2,89,326.2,88.7z"/>
	<path id="XMLID_65_" class="st1" d="M381.1,87.7c0,1.3-0.7,1.9-2.1,1.9c-0.6,0-1.5,0-2.7-0.1c-1.2-0.1-2.1-0.1-2.7-0.1
		c-2.7,0-4.5,0.4-5.5,1.3c-1,0.8-1.5,2.6-1.5,5.1c0,1.4,0,3.5,0.1,6.4c0,2.8,0.1,5,0.1,6.4c0,0.9,0.1,2.4,0.2,4.2
		c0.1,1.9,0.2,3.3,0.2,4.2c0,0.8-0.5,1.2-1.6,1.3c-1.6,0.1-4,0.2-7.2,0.2c-3.1,0-5.6-0.1-7.4-0.3c-1.1-0.1-1.6-0.7-1.6-1.6
		c0-2.6,0-6.5,0-11.7c0-5.2,0-9.1,0-11.7c0-7.6-0.7-13.9-2.1-18.9c-0.1-0.3-0.1-0.5-0.1-0.7c0-0.5,0.2-0.8,0.7-1
		c1.8-0.2,4.4-0.6,7.9-1.1c5.1-1,7.8-1.5,8-1.5c0.6,0,1,1,1.1,3.1c0.2,2.1,0.5,3.1,0.9,3.1c-0.5,0,0.9-0.9,4-2.6s6.1-2.6,9-2.6
		c1.8,0,2.7,0.4,2.7,1.2c0,0.9-0.1,2.3-0.3,4c-0.2,1.9-0.3,3.2-0.3,4c0,0.9,0,2.2,0,3.8C381,85.9,381.1,87.1,381.1,87.7z"/>
	<path id="XMLID_67_" class="st1" d="M112,202.1c0,3.8,0.1,9.6,0.3,17.3s0.3,13.5,0.3,17.3c0,0.7-0.1,1.1-0.4,1.2
		c-0.1,0-0.5,0.1-1.3,0.2c-2.1,0.3-4.9,0.4-8.5,0.4c-4.8,0-7.8-0.1-9.1-0.4c-0.9-0.2-1.4-0.7-1.4-1.5c0,0.5,0.1-2.3,0.4-8.6
		c0.6-13.2,0.9-21.8,0.9-26c0-3.5-0.1-8.7-0.3-15.7c-0.2-7-0.3-12.2-0.3-15.7c0-0.7,0.4-1.1,1.1-1.1c1,0,2.5,0,4.6,0.1
		c2,0.1,3.6,0.1,4.6,0.1c1,0,2.5,0,4.5-0.1c2-0.1,3.5-0.1,4.5-0.1c0.9,0,1.4,0.4,1.4,1.1c0,3.5-0.2,8.7-0.6,15.7
		C112.1,193.4,112,198.6,112,202.1z"/>
	<path id="XMLID_69_" class="st1" d="M170.1,236.7c0,0.9-0.5,1.4-1.4,1.5c-0.9,0.1-3.3,0.2-7.1,0.2c-4.1,0-6.6-0.1-7.6-0.3
		s-1.5-0.9-1.5-2c0-1.5,0-3.8,0.1-6.9c0.1-3.1,0.1-5.4,0.1-7c0-1.2,0-3-0.1-5.4c-0.1-2.4-0.1-4.2-0.1-5.4c0-4.5-1.9-6.7-5.8-6.7
		c-1.3,0-2.8,0.6-4.4,1.7c-1.8,1.2-2.7,2.5-2.7,3.7v26.4c0,1.1-0.5,1.7-1.5,1.8c-1.1,0.1-3.5,0.2-7,0.2c-3.8,0-6.3-0.1-7.4-0.3
		c-1-0.2-1.5-0.7-1.5-1.6c0-2.5,0-6.4,0-11.5c0-5.1,0-9,0-11.5c0-8.1-0.6-14.5-1.9-19.1c-0.1-0.3-0.1-0.5-0.1-0.7
		c0-0.5,0.2-0.9,0.7-1.1c2.1-0.2,4.8-0.6,8.2-1.1c5.2-1,8.1-1.5,8.7-1.5c0.4,0,0.6,1.1,0.8,3.3s0.5,3.3,0.8,3.3
		c-0.4,0,1.4-1.1,5.2-3.4c3.9-2.3,7.2-3.4,10.1-3.4c4.1,0,7.6,1,10.4,2.9c3.1,2.2,4.6,5.4,4.6,9.4v15.6c0,2.1,0,5.3,0,9.5
		C170.1,231.5,170.1,234.6,170.1,236.7z"/>
	<path id="XMLID_71_" class="st1" d="M210.9,223.9c0,1-0.1,2.5-0.4,4.4c-0.2,2-0.4,3.4-0.4,4.4s-0.1,1.5-0.3,1.8
		c-0.2,0.3-0.7,0.6-1.6,1.1c-4.2,2.3-8.9,3.5-14,3.5c-9.4,0-14.1-3.6-14.1-10.8c0-2.1,0.1-5.4,0.2-9.7c0.2-4.3,0.2-7.5,0.2-9.7
		c0-1.4-0.8-2.1-2.5-2.1c-0.1,0-0.3,0-0.6,0c-0.3,0-0.5,0-0.6,0c-1.2,0-1.9-0.4-1.9-1.3c0-0.5,0-1.3,0.1-2.4
		c0.1-1.1,0.1-1.9,0.1-2.4c0-0.7,0-1.7-0.1-3.1c-0.1-1.4-0.1-2.4-0.1-3.1c0-0.7,1-1,3.1-1.1c1.2,0,1.8-0.4,1.9-1
		c0.2-1.2,0.3-3.2,0.2-5.9c-0.1-4.2-0.2-6.2-0.2-6c0-3.8,0.4-5.7,1.1-5.7c0.9,0,2.1,0.2,3.8,0.6c1.9,0.4,3.1,0.7,3.9,0.7
		c1.7,0.2,4.2,0.5,7.5,0.9c0.8,0.1,1.2,0.3,1.2,0.8c0,1.3-0.1,3.3-0.3,5.9c-0.2,2.6-0.3,4.6-0.3,6c0,1.6,0.5,2.4,1.4,2.4
		c1.1,0,2.9,0,5.2-0.1c2.3-0.1,4.1-0.1,5.2-0.1c0.7,0,1.1,0.2,1.1,0.7c0,0.7-0.1,1.9-0.2,3.4c-0.2,1.5-0.2,2.6-0.2,3.4
		c0,0.8,0,1.9,0,3.4c0,1.5,0,2.6,0,3.4c0,0.7-0.5,1-1.4,1c-0.7,0-1.7,0-3.3-0.1c-1.5,0-2.6-0.1-3.3-0.1h-3.7c-0.5,0-0.7,0.7-0.7,2.1
		c0,0.8,0,1.9,0,3.5c0,1.6,0,2.7,0,3.5c0,2.7,0.3,4.6,0.9,5.7c0.9,1.4,2.6,2.1,5.2,2.1c0.8,0,2-0.2,3.5-0.6c1.5-0.4,2.6-0.6,3.2-0.6
		C210.6,222.8,210.9,223.1,210.9,223.9z"/>
	<path id="XMLID_73_" class="st1" d="M260.8,211.6c0,3.3-1.1,5.2-3.2,5.6c-0.4,0.1-3.7,0.4-10.1,1.1c-3.8,0.4-9.6,0.9-17.2,1.5
		c0.5,2.1,1.8,3.7,4.2,4.8c1.9,0.9,4,1.4,6.4,1.4c2.9,0,5.8-0.8,8.7-2.3c1.2-0.8,2.5-1.6,3.7-2.3c0.7,0.3,1.8,2,3.4,5
		c1.6,3,2.4,4.9,2.4,5.7c0,0.2-0.2,0.6-0.7,1.1c-4,4.3-10.1,6.4-18.5,6.4c-7.7,0-14-2.3-18.8-6.8c-4.9-4.6-7.3-10.7-7.3-18.4
		c0-7.5,2.2-13.6,6.5-18.4c4.5-4.9,10.4-7.4,17.9-7.4c6.3,0,11.6,2.3,15.9,6.8C258.6,199.9,260.8,205.4,260.8,211.6z M243.7,208.7
		c0-2-0.7-3.8-2.1-5.3c-1.4-1.5-3.1-2.3-5.1-2.3c-2.1,0-3.7,0.9-5.1,2.6c-1.2,1.6-1.9,3.5-1.9,5.6c0,0.9,0.5,1.3,1.4,1.3
		c2.4,0,6.2-0.4,11.2-1.1C243.2,209.3,243.7,209,243.7,208.7z"/>
	<path id="XMLID_76_" class="st1" d="M298.5,207.7c0,1.3-0.7,1.9-2.1,1.9c-0.6,0-1.5,0-2.7-0.1c-1.2-0.1-2.1-0.1-2.7-0.1
		c-2.7,0-4.5,0.4-5.5,1.3c-1,0.8-1.5,2.6-1.5,5.1c0,1.4,0,3.5,0.1,6.4c0,2.8,0.1,5,0.1,6.4c0,0.9,0.1,2.4,0.2,4.2
		c0.1,1.9,0.2,3.3,0.2,4.2c0,0.8-0.5,1.2-1.6,1.3c-1.6,0.1-4,0.2-7.2,0.2c-3.1,0-5.6-0.1-7.4-0.3c-1.1-0.1-1.6-0.7-1.6-1.6
		c0-2.6,0-6.5,0-11.7c0-5.2,0-9.1,0-11.7c0-7.6-0.7-13.9-2.1-18.9c-0.1-0.3-0.1-0.5-0.1-0.7c0-0.5,0.2-0.8,0.7-1
		c1.8-0.2,4.4-0.6,7.9-1.1c5.1-1,7.8-1.5,8-1.5c0.6,0,1,1,1.1,3.1c0.2,2.1,0.5,3.1,0.9,3.1c-0.5,0,0.9-0.9,4-2.6s6.1-2.6,9-2.6
		c1.8,0,2.7,0.4,2.7,1.2c0,0.9-0.1,2.3-0.3,4c-0.2,1.9-0.3,3.2-0.3,4c0,0.9,0,2.2,0,3.8C298.5,205.9,298.5,207.1,298.5,207.7z"/>
	<path id="XMLID_78_" class="st1" d="M334.3,206.7c0,0.8-0.4,1.2-1.3,1.2c-3.5,0-6.3-0.1-8.3-0.3c0.1,2.4,0.2,5.8,0.3,10.2
		c0,1.9,0.2,5.1,0.4,9.7c0.2,4.1,0.3,7.4,0.3,9.7c0,0.7-0.5,1.1-1.4,1.2c-1.1,0.1-3.9,0.2-8.3,0.2c-3.7,0-6.1-0.1-7.2-0.3
		c-1.1-0.2-1.7-0.9-1.7-2v-26.9c0-0.9-0.7-1.4-2-1.4c-0.2,0-0.6,0-1.1,0c-0.5,0-0.9,0-1.1,0c-0.9,0-1.4-0.3-1.4-0.8
		c-0.3-2.8-0.4-6.9-0.4-12.4c0-1.2,0.6-1.9,1.9-2.2c1.1-0.1,2.2-0.2,3.4-0.2c-0.2-2.6-0.2-4.6-0.2-6.1c0-5.6,1.1-9.7,3.3-12.2
		c4.3-5,11.3-7.6,21-7.6c0.7,0,1,0.2,1.2,0.6c0.3,1.5,0.6,3.6,1.1,6.5c0,0.3,0.2,1.2,0.6,2.7c0.3,1.2,0.4,2.1,0.4,2.8
		c0,0.8-1.2,1.3-3.5,1.5c-2.7,0.3-4.3,0.8-4.9,1.5c-1.1,1.2-1.6,3.5-1.6,6.9c0,1.1,0.1,2.1,0.2,3c0.9,0,2.3,0,4.2-0.1
		c1.9-0.1,3.4-0.1,4.3-0.1s1.5,0.4,1.5,1.1c0,1.5,0,3.8,0,6.9C334.3,202.8,334.3,205.1,334.3,206.7z"/>
	<path id="XMLID_80_" class="st1" d="M388.6,213.7c0,2.5,0.1,6.2,0.4,11.2c0.3,4.9,0.4,8.7,0.4,11.1c0,1.3-0.6,2-1.7,2.1
		c-4,0.3-8.7,0.4-13.9,0.4c-0.6,0-1-0.9-1.2-2.8c-0.2-1.9-0.5-2.8-0.8-2.9c-0.3,0.1-0.6,0.4-1,0.8c-3.6,3.7-7.6,5.5-11.7,5.5
		c-6.3,0-11.6-2.5-15.8-7.5c-3.9-4.7-5.9-10.3-5.9-16.8c0-7.5,2-13.6,6.1-18.2c4.2-4.8,10-7.1,17.4-7.1c5.1,0,9.1,1.8,12.1,5.4
		c0.1,0.2,0.2,0.2,0.3,0.2c0.3,0,0.6-0.8,1-2.4c0.4-1.6,0.8-2.4,1.3-2.4c1.2,0,3.5,0.3,6.9,1c3.2,0.7,5.5,1.2,6.9,1.7
		c0.5,0.2,0.7,0.5,0.7,0.8c0,0.1,0,0.5-0.1,1C389.1,200.9,388.6,207.2,388.6,213.7z M372.9,214c0-2.8-0.9-5.1-2.6-6.9
		c-1.7-1.8-4-2.7-6.8-2.7c-2.8,0-5.1,0.9-6.8,2.7c-1.7,1.8-2.6,4.1-2.6,6.9c0,2.6,0.9,4.9,2.7,6.8c1.8,1.9,4,2.8,6.6,2.8
		c2.8,0,5-0.9,6.8-2.7S372.9,216.8,372.9,214z"/>
	<path id="XMLID_83_" class="st1" d="M430.7,206c0,0-1-0.3-3-0.8c-1.9-0.5-3.5-0.8-4.7-0.8c-2.9,0-5.2,0.9-6.9,2.6
		c-1.7,1.7-2.6,4.1-2.6,7c0,3,0.9,5.3,2.8,7.1c1.9,1.7,4.3,2.6,7.4,2.6c1.4,0,3-0.4,4.8-1.1c1.8-0.7,2.6-1.1,2.5-1.1
		c0.6,0,1.3,2.1,2.1,6.2c0.7,3.8,1.1,6.3,1.1,7.5c0,1.2-2,2.3-6.1,3.2c-3.1,0.7-5.6,1-7.6,1c-7.2,0-13.1-2.4-17.7-7.2
		c-4.7-4.8-7-10.8-7-18c0-7.1,2.3-13.1,7-18c4.7-4.9,10.6-7.3,17.7-7.3c4.9,0,9.1,1,12.8,3.1c0.8,0.5,1.3,0.9,1.3,1.3
		c0,0.4-0.5,2.3-1.5,5.8c-0.9,3.3-1.5,5.3-1.8,6C431.2,205.7,431,206,430.7,206z"/>
	<path id="XMLID_85_" class="st1" d="M484.7,211.6c0,3.3-1.1,5.2-3.2,5.6c-0.4,0.1-3.7,0.4-10.1,1.1c-3.8,0.4-9.6,0.9-17.2,1.5
		c0.5,2.1,1.8,3.7,4.2,4.8c1.9,0.9,4,1.4,6.4,1.4c2.9,0,5.8-0.8,8.7-2.3c1.2-0.8,2.5-1.6,3.7-2.3c0.7,0.3,1.8,2,3.4,5
		c1.6,3,2.4,4.9,2.4,5.7c0,0.2-0.2,0.6-0.7,1.1c-4,4.3-10.1,6.4-18.5,6.4c-7.7,0-14-2.3-18.8-6.8c-4.9-4.6-7.3-10.7-7.3-18.4
		c0-7.5,2.2-13.6,6.5-18.4c4.5-4.9,10.4-7.4,17.9-7.4c6.3,0,11.6,2.3,15.9,6.8C482.5,199.9,484.7,205.4,484.7,211.6z M467.6,208.7
		c0-2-0.7-3.8-2.1-5.3c-1.4-1.5-3.1-2.3-5.1-2.3c-2.1,0-3.7,0.9-5.1,2.6c-1.2,1.6-1.9,3.5-1.9,5.6c0,0.9,0.5,1.3,1.4,1.3
		c2.4,0,6.2-0.4,11.2-1.1C467,209.3,467.6,209,467.6,208.7z"/>
</g>
<g id="XMLID_21_">
	<path id="XMLID_22_" class="st1" d="M152.6,727.2c0,8.3-1,14-3,17c-3.6,5.5-12.7,8.3-27.3,8.3c-6.6,0-11.6-0.5-15.2-1.5
		c-5.7-1.6-9.3-4.7-11-9.3c-0.8-2.2-1.3-6.3-1.3-12c0-1.3,0-3.3,0.1-6s0.1-4.6,0.1-5.9c0-3.8-0.2-9.4-0.5-17
		c-0.4-7.6-0.5-13.2-0.5-16.9c0-0.8,0.3-1.2,1-1.2c2,0,5,0.1,9,0.2c4,0.2,7,0.2,9,0.2c0.8,0,1.2,0.4,1.2,1.1
		c0,4.3-0.1,10.7-0.4,19.3c-0.3,8.6-0.4,15-0.4,19.3c0,5.1,0.5,8.6,1.6,10.4c1.4,2.4,4.4,3.7,9,3.7c6.7,0,10-3.2,10-9.7
		c0-4.7-0.1-11.8-0.3-21.2c-0.2-9.4-0.3-16.5-0.3-21.2c0-1,0.4-1.5,1.2-1.5c1.9,0,4.8-0.1,8.7-0.2c3.9-0.2,6.8-0.2,8.7-0.2
		c0.9,0,1.4,0.4,1.4,1.2c0,3.7-0.2,9.4-0.5,16.9c-0.3,7.6-0.5,13.2-0.5,17c0,1,0,2.6,0,4.7C152.5,724.5,152.6,726.1,152.6,727.2z"/>
	<path id="XMLID_25_" class="st1" d="M190.4,711.6c0,0.3-0.2,0.8-0.7,1.3c-0.9-0.2-1.8-0.3-2.7-0.3c-1.9,0-3.5,0.4-4.8,1.3
		c-1.6,1-2.3,2.4-2.3,4.2c0,1.1,0.8,2.6,2.5,4.3c2.5,2.6,4.1,4.4,4.6,5.3c1.7,2.5,2.5,5.1,2.5,8c0,1.7-0.3,3.4-1,5.3
		c-0.7,2.1-1.7,3.5-2.8,4.5c-2.4,2.1-5.2,3.8-8.4,5.3c-3.5,1.5-6.7,2.2-9.6,2.2c-0.7,0-2.1-1.8-4.4-5.3c-2.3-3.5-3.4-5.7-3.4-6.5
		c0-0.3,0.2-0.5,0.5-0.5c2.3-0.4,4.6-0.8,6.9-1.3c2.9-0.9,4.3-2.4,4.3-4.5c0-1.4-0.8-3.1-2.5-5c-3-3.3-4.5-5-4.6-5.2
		c-1.7-2.3-2.5-4.8-2.5-7.4c0-4.9,2.5-9,7.4-12.5c4.4-3,9.2-4.5,14.2-4.5c0.5,0,1.8,1.8,3.9,5.2S190.4,711,190.4,711.6z"/>
	<path id="XMLID_27_" class="st1" d="M242.2,724.6c0,3.3-1.1,5.2-3.2,5.6c-0.4,0.1-3.7,0.4-10.1,1.1c-3.8,0.4-9.6,0.9-17.2,1.5
		c0.5,2.1,1.8,3.7,4.2,4.8c1.9,0.9,4,1.4,6.4,1.4c2.9,0,5.8-0.8,8.7-2.3c1.2-0.8,2.5-1.6,3.7-2.3c0.7,0.3,1.8,2,3.4,5
		s2.4,4.9,2.4,5.7c0,0.2-0.2,0.6-0.7,1.1c-4,4.3-10.1,6.4-18.5,6.4c-7.7,0-14-2.3-18.8-6.8c-4.9-4.6-7.3-10.7-7.3-18.4
		c0-7.5,2.2-13.6,6.5-18.4c4.5-4.9,10.4-7.4,17.9-7.4c6.3,0,11.6,2.3,15.9,6.8C240,712.9,242.2,718.3,242.2,724.6z M225.1,721.6
		c0-2-0.7-3.8-2.1-5.3c-1.4-1.5-3.1-2.3-5.1-2.3c-2.1,0-3.7,0.9-5.1,2.6c-1.2,1.6-1.9,3.5-1.9,5.6c0,0.9,0.5,1.3,1.4,1.3
		c2.4,0,6.2-0.4,11.2-1.1C224.5,722.3,225.1,722,225.1,721.6z"/>
	<path id="XMLID_30_" class="st1" d="M279.9,720.7c0,1.3-0.7,1.9-2.1,1.9c-0.6,0-1.5,0-2.7-0.1c-1.2-0.1-2.1-0.1-2.7-0.1
		c-2.7,0-4.5,0.4-5.5,1.3s-1.5,2.6-1.5,5.1c0,1.4,0,3.5,0.1,6.4s0.1,5,0.1,6.4c0,0.9,0.1,2.4,0.2,4.2c0.1,1.9,0.2,3.3,0.2,4.2
		c0,0.8-0.5,1.2-1.6,1.3c-1.6,0.1-4,0.2-7.2,0.2c-3.1,0-5.6-0.1-7.4-0.3c-1.1-0.1-1.6-0.7-1.6-1.6c0-2.6,0-6.5,0-11.7
		c0-5.2,0-9.1,0-11.7c0-7.6-0.7-13.9-2.1-18.9c-0.1-0.3-0.1-0.5-0.1-0.7c0-0.5,0.2-0.8,0.7-1c1.8-0.2,4.4-0.6,7.9-1.1
		c5.1-1,7.8-1.5,8-1.5c0.6,0,1,1,1.1,3.1c0.2,2.1,0.5,3.1,0.9,3.1c-0.5,0,0.9-0.9,4-2.6s6.1-2.6,9-2.6c1.8,0,2.7,0.4,2.7,1.2
		c0,0.9-0.1,2.3-0.3,4c-0.2,1.9-0.3,3.2-0.3,4c0,0.9,0,2.2,0,3.8C279.9,718.8,279.9,720.1,279.9,720.7z"/>
	<path id="XMLID_32_" class="st1" d="M361,735.9c0,1.4-0.3,4-0.8,7.7c-0.6,4.1-1.1,6.5-1.6,7.3c-0.4,0.6-0.9,0.9-1.6,0.9
		c-0.3,0-0.8,0-1.5-0.1c-2.4-0.3-9.3-0.5-20.8-0.5c-2.5,0-6.2,0-11.2,0c-4.9,0-8.7,0-11.1,0c-1.1,0-1.6-0.5-1.6-1.4
		c0-3.6,0.2-9.1,0.6-16.4c0.4-7.3,0.6-12.8,0.6-16.4c0-3.7-0.2-10.6-0.6-20.8c-0.1-2.6-0.3-6.5-0.5-11.7l0-0.7
		c-0.1-0.7,0.3-1.1,1.2-1.1c2.4,0,6,0.1,10.9,0.2s8.5,0.2,10.9,0.2c2.4,0,6-0.1,10.7-0.2s8.4-0.2,10.7-0.2c1.7,0,2.7,0.6,2.9,1.9
		c0.2,0.7,0.4,3,0.8,6.8s0.5,6.1,0.5,6.9c0,0.7-0.3,1-1,1c-0.2,0-0.5,0-1,0c-8.7-0.7-16.4-1.1-23.3-1.1c-1.7,0-2.8,0.4-3.2,1.2
		c-0.2,0.4-0.2,1.6-0.2,3.8c0,2.2,0.3,3.7,1,4.4c0.6,0.6,1.6,0.9,3.2,0.9c0.3,0,1,0,1.9-0.1c0.9,0,1.7-0.1,2.3-0.1
		c4.1,0,8.3-0.1,12.5-0.3c0.4,0,1.3-0.1,2.7-0.2c1.1-0.1,2-0.2,2.6-0.2c0.8,0,1.2,0.4,1.2,1.1c0-0.7-0.3,1.8-0.9,7.5
		c-0.3,2.6-0.4,5.2-0.4,7.8c0,0.7-0.5,1-1.4,1l-4.4-0.5c-1.9-0.2-6.1-0.3-12.7-0.3h-5.2c-1.3,0-2.1,0.3-2.3,1c0,0.2,0,1.2,0,3
		c0,2.5,0.2,4.1,0.5,4.8c0.6,1.2,2.6,2,6.3,2.2c-0.1,0,2.3,0,7.1,0c1.7,0,4.3-0.2,7.7-0.5c3.4-0.3,5.9-0.5,7.6-0.5
		C360.6,734.2,361,734.8,361,735.9z"/>
	<path id="XMLID_34_" class="st1" d="M410.2,749.8c0,0.7-0.5,1.2-1.6,1.3c-1.9,0.3-4,0.4-6.1,0.4c-2.3,0-4.2-0.1-5.7-0.4
		c-0.4-0.1-1-0.4-1.8-1c-1.6-2.3-4-5.7-7.3-10.2c-0.8,1-3.5,4.3-8,10.1c-0.4,0.6-1,1-1.8,1.1c-1.1,0.3-2.9,0.4-5.4,0.4
		c-5.1,0-7.7-0.6-7.7-1.7c0-0.9,0-2.4,0-4.3c0-1.9,0-3.4,0-4.4c0-0.6,0.3-1.2,0.9-1.8c2.5-2.6,6.3-6.6,11.2-12
		c-2.3-2.2-4.5-4.4-6.8-6.5c-3.6-3.5-5.4-5.6-5.4-6.3v-8.6c0-0.8,0.6-1.3,1.7-1.3c1.3,0,3.2,0,5.8,0.1s4.5,0.1,5.8,0.1
		c0.7,0,1.3,0.4,1.8,1.1c1.8,2.4,4.3,5.4,7.5,9c2.9-3.5,5.3-6.6,7-9c0.5-0.7,1.1-1,1.8-1c1.4,0,3.4-0.1,6.1-0.2
		c2.7-0.1,4.7-0.2,6.1-0.2c1.1,0,1.7,0.4,1.7,1.3v8.6c0,0.6-0.3,1.2-0.8,1.7c-2.5,2.5-6.1,6.3-11,11.4c2.5,2.6,6.1,6.5,11,11.8
		c0.6,0.6,0.8,1.2,0.8,1.8V749.8z"/>
	<path id="XMLID_36_" class="st1" d="M469.8,727.6c0,7-2.1,12.7-6.2,17.3c-4.2,4.8-9.8,7.1-16.7,7.1c-2.5,0-5.2-0.6-8.1-1.9
		c-2.9-1.2-4.2-1.9-3.9-1.9c-0.4,0-0.6,0.5-0.6,1.5c0,1.7,0.1,4.2,0.2,7.5c0.2,3.3,0.2,5.8,0.2,7.5c0,1-0.5,1.6-1.6,1.6l-10,0
		c-2.2,0-3.7-0.1-4.3-0.2c-1-0.2-1.5-0.8-1.5-1.8l0.1-37.6c0-7.6-0.6-14-1.7-19.2c-0.1-0.3-0.1-0.6-0.1-0.8c0-0.5,0.2-0.8,0.6-1
		c1.3-0.5,3.7-1,7.3-1.6c3.5-0.6,6-0.8,7.6-0.8c1.3,0,2,0.8,2.2,2.5c0.2,1.7,0.4,2.5,0.7,2.5c-0.3,0,1.1-0.9,4.2-2.7
		c3.1-1.8,5.9-2.7,8.5-2.7c7.1,0,12.7,2.3,16.9,7C467.8,714.6,469.8,720.5,469.8,727.6z M451.7,727.6c0-2.6-0.8-4.9-2.4-6.8
		c-1.7-2.1-3.9-3.1-6.4-3.1c-2.6,0-4.7,1-6.3,3.1c-1.4,1.9-2.1,4.1-2.1,6.8c0,2.8,0.7,5.1,2.1,6.9c1.5,2,3.6,3,6.3,3
		C448.9,737.4,451.7,734.1,451.7,727.6z"/>
	<path id="XMLID_39_" class="st1" d="M520.9,724.6c0,3.3-1.1,5.2-3.2,5.6c-0.4,0.1-3.7,0.4-10.1,1.1c-3.8,0.4-9.6,0.9-17.2,1.5
		c0.5,2.1,1.8,3.7,4.2,4.8c1.9,0.9,4,1.4,6.4,1.4c2.9,0,5.8-0.8,8.7-2.3c1.2-0.8,2.5-1.6,3.7-2.3c0.7,0.3,1.8,2,3.4,5
		s2.4,4.9,2.4,5.7c0,0.2-0.2,0.6-0.7,1.1c-4,4.3-10.1,6.4-18.5,6.4c-7.7,0-14-2.3-18.8-6.8c-4.9-4.6-7.3-10.7-7.3-18.4
		c0-7.5,2.2-13.6,6.5-18.4c4.5-4.9,10.4-7.4,17.9-7.4c6.3,0,11.6,2.3,15.9,6.8C518.7,712.9,520.9,718.3,520.9,724.6z M503.8,721.6
		c0-2-0.7-3.8-2.1-5.3c-1.4-1.5-3.1-2.3-5.1-2.3c-2.1,0-3.7,0.9-5.1,2.6c-1.2,1.6-1.9,3.5-1.9,5.6c0,0.9,0.5,1.3,1.4,1.3
		c2.4,0,6.2-0.4,11.2-1.1C503.3,722.3,503.8,722,503.8,721.6z"/>
	<path id="XMLID_42_" class="st1" d="M558.7,720.7c0,1.3-0.7,1.9-2.1,1.9c-0.6,0-1.5,0-2.7-0.1c-1.2-0.1-2.1-0.1-2.7-0.1
		c-2.7,0-4.5,0.4-5.5,1.3s-1.5,2.6-1.5,5.1c0,1.4,0,3.5,0.1,6.4s0.1,5,0.1,6.4c0,0.9,0.1,2.4,0.2,4.2c0.1,1.9,0.2,3.3,0.2,4.2
		c0,0.8-0.5,1.2-1.6,1.3c-1.6,0.1-4,0.2-7.2,0.2c-3.1,0-5.6-0.1-7.4-0.3c-1.1-0.1-1.6-0.7-1.6-1.6c0-2.6,0-6.5,0-11.7
		c0-5.2,0-9.1,0-11.7c0-7.6-0.7-13.9-2.1-18.9c-0.1-0.3-0.1-0.5-0.1-0.7c0-0.5,0.2-0.8,0.7-1c1.8-0.2,4.4-0.6,7.9-1.1
		c5.1-1,7.8-1.5,8-1.5c0.6,0,1,1,1.1,3.1c0.2,2.1,0.5,3.1,0.9,3.1c-0.5,0,0.9-0.9,4-2.6s6.1-2.6,9-2.6c1.8,0,2.7,0.4,2.7,1.2
		c0,0.9-0.1,2.3-0.3,4c-0.2,1.9-0.3,3.2-0.3,4c0,0.9,0,2.2,0,3.8C558.6,718.8,558.7,720.1,558.7,720.7z"/>
	<path id="XMLID_44_" class="st1" d="M582.4,728.7c0,2.4,0,5.9,0.1,10.6s0.1,8.2,0.1,10.6c0,0.7-0.4,1.1-1.2,1.2
		c-1.1,0.2-3.6,0.3-7.5,0.3c-3.9,0-6.4-0.1-7.5-0.3c-0.7-0.1-1.2-0.3-1.3-0.6c-0.1-0.1-0.1-0.6-0.1-1.5c0-2.2,0-5.6,0.1-10.1
		s0.1-7.9,0.1-10.2c0-9.2-0.4-16.6-1.1-22.1c-0.1-0.5-0.1-0.9-0.1-1c0-0.7,0.4-1,1.3-1c0.9,0,2.3,0.1,4.2,0.3
		c1.9,0.2,3.3,0.3,4.2,0.3c0.9,0,2.4-0.1,4.2-0.2c1.9-0.2,3.3-0.2,4.2-0.2c0.8,0,1.2,0.3,1.2,1c0,0.1,0,0.4-0.1,0.9
		C582.8,713,582.4,720.4,582.4,728.7z M583.7,692.4c0,5.7-3.2,8.5-9.6,8.5c-2.7,0-5-0.7-6.8-2.1c-2-1.6-2.9-3.7-2.9-6.3
		c0-2.5,1-4.6,3-6.3c1.9-1.5,4.1-2.2,6.7-2.2c2.5,0,4.7,0.8,6.6,2.3C582.7,687.9,583.7,689.9,583.7,692.4z"/>
	<path id="XMLID_47_" class="st1" d="M636.6,724.6c0,3.3-1.1,5.2-3.2,5.6c-0.4,0.1-3.7,0.4-10.1,1.1c-3.8,0.4-9.6,0.9-17.2,1.5
		c0.5,2.1,1.8,3.7,4.2,4.8c1.9,0.9,4,1.4,6.4,1.4c2.9,0,5.8-0.8,8.7-2.3c1.2-0.8,2.5-1.6,3.7-2.3c0.7,0.3,1.8,2,3.4,5
		s2.4,4.9,2.4,5.7c0,0.2-0.2,0.6-0.7,1.1c-4,4.3-10.1,6.4-18.5,6.4c-7.7,0-14-2.3-18.8-6.8c-4.9-4.6-7.3-10.7-7.3-18.4
		c0-7.5,2.2-13.6,6.5-18.4c4.5-4.9,10.4-7.4,17.9-7.4c6.3,0,11.6,2.3,15.9,6.8C634.4,712.9,636.6,718.3,636.6,724.6z M619.5,721.6
		c0-2-0.7-3.8-2.1-5.3c-1.4-1.5-3.1-2.3-5.1-2.3c-2.1,0-3.7,0.9-5.1,2.6c-1.2,1.6-1.9,3.5-1.9,5.6c0,0.9,0.5,1.3,1.4,1.3
		c2.4,0,6.2-0.4,11.2-1.1C619,722.3,619.5,722,619.5,721.6z"/>
	<path id="XMLID_50_" class="st1" d="M690.5,749.7c0,0.9-0.5,1.4-1.4,1.5c-0.9,0.1-3.3,0.2-7.1,0.2c-4.1,0-6.6-0.1-7.6-0.3
		s-1.5-0.9-1.5-2c0-1.5,0-3.8,0.1-6.9s0.1-5.4,0.1-7c0-1.2,0-3-0.1-5.4c-0.1-2.4-0.1-4.2-0.1-5.4c0-4.5-1.9-6.7-5.8-6.7
		c-1.3,0-2.8,0.6-4.4,1.7c-1.8,1.2-2.7,2.5-2.7,3.7v26.4c0,1.1-0.5,1.7-1.5,1.8c-1.1,0.1-3.5,0.2-7,0.2c-3.8,0-6.3-0.1-7.4-0.3
		c-1-0.2-1.5-0.7-1.5-1.6c0-2.5,0-6.4,0-11.5c0-5.1,0-9,0-11.5c0-8.1-0.6-14.5-1.9-19.1c-0.1-0.3-0.1-0.5-0.1-0.7
		c0-0.5,0.2-0.9,0.7-1.1c2.1-0.2,4.8-0.6,8.2-1.1c5.2-1,8.1-1.5,8.7-1.5c0.4,0,0.6,1.1,0.8,3.3s0.5,3.3,0.8,3.3
		c-0.4,0,1.4-1.1,5.2-3.4s7.2-3.4,10.1-3.4c4.1,0,7.6,1,10.4,2.9c3.1,2.2,4.6,5.4,4.6,9.4v15.6c0,2.1,0,5.3,0,9.5
		C690.5,744.4,690.5,747.6,690.5,749.7z"/>
	<path id="XMLID_52_" class="st1" d="M731,719c0,0-1-0.3-3-0.8c-1.9-0.5-3.5-0.8-4.7-0.8c-2.9,0-5.2,0.9-6.9,2.6
		c-1.7,1.7-2.6,4.1-2.6,7c0,3,0.9,5.3,2.8,7.1c1.9,1.7,4.3,2.6,7.4,2.6c1.4,0,3-0.4,4.8-1.1c1.8-0.7,2.6-1.1,2.5-1.1
		c0.6,0,1.3,2.1,2.1,6.2c0.7,3.8,1.1,6.3,1.1,7.5s-2,2.3-6.1,3.2c-3.1,0.7-5.6,1-7.6,1c-7.2,0-13.1-2.4-17.7-7.2
		c-4.7-4.8-7-10.8-7-18c0-7.1,2.3-13.1,7-18c4.7-4.9,10.6-7.3,17.7-7.3c4.9,0,9.1,1,12.8,3.1c0.8,0.5,1.3,0.9,1.3,1.3
		s-0.5,2.3-1.5,5.8c-0.9,3.3-1.5,5.3-1.8,6C731.5,718.7,731.3,719,731,719z"/>
	<path id="XMLID_54_" class="st1" d="M785,724.6c0,3.3-1.1,5.2-3.2,5.6c-0.4,0.1-3.7,0.4-10.1,1.1c-3.8,0.4-9.6,0.9-17.2,1.5
		c0.5,2.1,1.8,3.7,4.2,4.8c1.9,0.9,4,1.4,6.4,1.4c2.9,0,5.8-0.8,8.7-2.3c1.2-0.8,2.5-1.6,3.7-2.3c0.7,0.3,1.8,2,3.4,5
		s2.4,4.9,2.4,5.7c0,0.2-0.2,0.6-0.7,1.1c-4,4.3-10.1,6.4-18.5,6.4c-7.7,0-14-2.3-18.8-6.8c-4.9-4.6-7.3-10.7-7.3-18.4
		c0-7.5,2.2-13.6,6.5-18.4c4.5-4.9,10.4-7.4,17.9-7.4c6.3,0,11.6,2.3,15.9,6.8C782.8,712.9,785,718.3,785,724.6z M767.9,721.6
		c0-2-0.7-3.8-2.1-5.3c-1.4-1.5-3.1-2.3-5.1-2.3c-2.1,0-3.7,0.9-5.1,2.6c-1.2,1.6-1.9,3.5-1.9,5.6c0,0.9,0.5,1.3,1.4,1.3
		c2.4,0,6.2-0.4,11.2-1.1C767.3,722.3,767.9,722,767.9,721.6z"/>
</g>
</svg>
