<?xml version="1.0" encoding="utf-8"?>
<!-- Generator: Adobe Illustrator 19.0.0, SVG Export Plug-In . SVG Version: 6.00 Build 0)  -->
<svg version="1.1" id="Layer_1" xmlns="http://www.w3.org/2000/svg" xmlns:xlink="http://www.w3.org/1999/xlink" x="0px" y="0px"
	 viewBox="0 0 1600 850" style="enable-background:new 0 0 1600 850;" xml:space="preserve">
<style type="text/css">
	.st0{fill:#EEB31E;}
	.st1{fill:#FFFFFF;}
</style>
<rect id="XMLID_6_" x="494.1" y="650.1" class="st0" width="502.5" height="145.5"/>
<rect id="XMLID_11_" x="302.1" y="444.6" class="st0" width="220.5" height="142.5"/>
<rect id="XMLID_4_" x="1081.1" y="287.1" class="st0" width="332.5" height="161"/>
<rect id="XMLID_1_" x="1011.6" y="42.6" class="st0" width="493.5" height="138"/>
<rect id="XMLID_9_" x="18" y="65.1" class="st0" width="551.1" height="130.5"/>
<rect id="XMLID_18_" x="37.6" y="674.6" class="st0" width="371" height="146.5"/>
<g id="XMLID_138_">
	<path id="XMLID_139_" class="st1" d="M1206,383.1c0,0.5-0.3,1.2-1,2.1c-6,7.1-13.9,10.7-23.9,10.7c-10.2,0-18.4-3.5-24.7-10.4
		c-6.2-6.7-9.2-15.2-9.2-25.4c0-9.9,3-18.3,9-25.2c6.3-7.2,14.3-10.8,24-10.8c10.5,0,18.8,3.2,24.8,9.7c0.7,0.7,1,1.4,1,1.9
		c0,0.6-1.1,2.9-3.4,6.9c-2.3,4-3.7,6.2-4.3,6.7c-0.3,0.3-0.6,0.4-1,0.4c-0.2,0-1-0.7-2.4-2c-1.8-1.6-3.5-2.8-5.2-3.7
		c-2.6-1.3-5.2-2-8-2c-4.8,0-8.6,1.8-11.5,5.4c-2.6,3.3-4,7.4-4,12.3c0,4.9,1.3,9.1,4,12.5c2.9,3.6,6.7,5.5,11.5,5.5
		c2.8,0,5.5-0.6,8.1-1.9c1.7-0.8,3.4-2,5.1-3.4c1.4-1.2,2.2-1.9,2.4-1.9c0.3,0,0.7,0.2,1,0.5c0.5,0.6,1.9,2.6,4.2,6.1
		C1204.8,380.7,1206,382.7,1206,383.1z"/>
	<path id="XMLID_141_" class="st1" d="M1228.7,364.7c0,8.9,0,15.7,0.1,20.5c0,0.7,0,2,0.1,3.9c0.1,1.7,0.1,2.9,0.1,3.9
		c0,0.7-0.4,1.1-1.2,1.2c-1.5,0.3-4.1,0.4-7.9,0.4c-3.9,0-6.4-0.1-7.5-0.4c-0.7-0.2-1.1-0.6-1.2-1.3c0-0.1,0-0.8,0-2.1
		c0-2.9,0-7.2,0.1-13c0.1-5.8,0.1-10.1,0.1-13c0-13.7,0-19.9,0-18.7c-0.1-7.2-0.5-13.4-1.2-18.6c-0.1-0.4-0.1-0.6-0.1-0.8
		c0-0.7,0.4-1.1,1.3-1.1h17.4c0.8,0,1.2,0.3,1.1,1l0,0.9C1229.1,341.5,1228.7,353.9,1228.7,364.7z"/>
	<path id="XMLID_143_" class="st1" d="M1286.7,369.7c0,2.5,0.1,6.2,0.4,11.2c0.3,4.9,0.4,8.7,0.4,11.1c0,1.3-0.6,2-1.7,2.1
		c-4,0.3-8.7,0.4-13.9,0.4c-0.6,0-1-0.9-1.2-2.8c-0.2-1.9-0.5-2.8-0.8-2.9c-0.3,0.1-0.6,0.4-1,0.8c-3.6,3.7-7.6,5.5-11.7,5.5
		c-6.3,0-11.6-2.5-15.8-7.5c-3.9-4.7-5.9-10.3-5.9-16.8c0-7.5,2-13.6,6.1-18.2c4.2-4.8,10-7.1,17.4-7.1c5.1,0,9.1,1.8,12.1,5.4
		c0.1,0.2,0.2,0.2,0.3,0.2c0.3,0,0.6-0.8,1-2.4c0.4-1.6,0.8-2.4,1.3-2.4c1.2,0,3.5,0.3,6.9,1c3.2,0.7,5.5,1.2,6.9,1.7
		c0.5,0.2,0.7,0.5,0.7,0.8c0,0.1,0,0.5-0.1,1C1287.2,356.9,1286.7,363.1,1286.7,369.7z M1271,370c0-2.8-0.9-5.1-2.6-6.9
		c-1.7-1.8-4-2.7-6.8-2.7c-2.8,0-5.1,0.9-6.8,2.7c-1.7,1.8-2.6,4.1-2.6,6.9c0,2.6,0.9,4.9,2.7,6.8c1.8,1.9,4,2.8,6.6,2.8
		c2.8,0,5-0.9,6.8-2.7S1271,372.8,1271,370z"/>
	<path id="XMLID_146_" class="st1" d="M1325,354.6c0,0.3-0.2,0.8-0.7,1.3c-0.9-0.2-1.8-0.3-2.7-0.3c-1.9,0-3.5,0.4-4.8,1.3
		c-1.6,1-2.3,2.4-2.3,4.2c0,1.1,0.8,2.6,2.5,4.3c2.5,2.6,4.1,4.4,4.6,5.3c1.7,2.5,2.5,5.1,2.5,8c0,1.7-0.3,3.4-1,5.3
		c-0.7,2.1-1.7,3.5-2.8,4.5c-2.4,2.1-5.2,3.8-8.4,5.3c-3.5,1.5-6.7,2.2-9.6,2.2c-0.7,0-2.1-1.8-4.4-5.3c-2.3-3.5-3.4-5.7-3.4-6.5
		c0-0.3,0.2-0.5,0.5-0.5c2.3-0.4,4.6-0.8,6.9-1.3c2.9-0.9,4.3-2.4,4.3-4.5c0-1.4-0.8-3.1-2.5-5c-3-3.3-4.5-5-4.6-5.2
		c-1.7-2.3-2.5-4.8-2.5-7.4c0-4.9,2.5-9,7.4-12.5c4.4-3,9.2-4.5,14.2-4.5c0.5,0,1.8,1.8,3.9,5.2C1323.9,352,1325,354,1325,354.6z"/>
	<path id="XMLID_148_" class="st1" d="M1360.6,354.6c0,0.3-0.2,0.8-0.7,1.3c-0.9-0.2-1.8-0.3-2.7-0.3c-1.9,0-3.5,0.4-4.8,1.3
		c-1.6,1-2.3,2.4-2.3,4.2c0,1.1,0.8,2.6,2.5,4.3c2.5,2.6,4.1,4.4,4.6,5.3c1.7,2.5,2.5,5.1,2.5,8c0,1.7-0.3,3.4-1,5.3
		c-0.7,2.1-1.7,3.5-2.8,4.5c-2.4,2.1-5.2,3.8-8.4,5.3c-3.5,1.5-6.7,2.2-9.6,2.2c-0.7,0-2.1-1.8-4.4-5.3c-2.3-3.5-3.4-5.7-3.4-6.5
		c0-0.3,0.2-0.5,0.5-0.5c2.3-0.4,4.6-0.8,6.9-1.3c2.9-0.9,4.3-2.4,4.3-4.5c0-1.4-0.8-3.1-2.5-5c-3-3.3-4.5-5-4.6-5.2
		c-1.7-2.3-2.5-4.8-2.5-7.4c0-4.9,2.5-9,7.4-12.5c4.4-3,9.2-4.5,14.2-4.5c0.5,0,1.8,1.8,3.9,5.2C1359.5,352,1360.6,354,1360.6,354.6
		z"/>
</g>
<g id="XMLID_119_">
	<path id="XMLID_120_" class="st1" d="M609.3,697c0,0.4-0.3,0.5-1,0.5c-2.4,0-6.1-0.2-11.1-0.6c-5-0.4-8.7-0.6-11.2-0.6
		c-3.1,0-4.9,0.1-5.5,0.3c-1.2,0.6-1.8,2.1-1.8,4.7c0,3.1,0.8,4.9,2.3,5.3c0.7,0.2,1.6,0.2,3,0.2c2.2,0,5.6-0.1,10.1-0.4
		s7.8-0.4,10.1-0.4c1.1,0,1.6,2.9,1.6,8.6c0,5-0.2,7.9-0.5,8.7c-0.2,0.6-0.7,0.9-1.3,0.9c0.4,0-0.6-0.1-3.1-0.3
		c-3.5-0.3-8.8-0.5-15.8-0.5c-2.3,0-3.6,0-3.9,0c-1.7,0.3-2.5,1-2.5,2.1c0,4.6,0.2,9.9,0.6,16c0.3,5.4,0.5,7.9,0.5,7.3
		c0,0.8-1,1.3-3.1,1.5c0.6,0-0.9,0-4.3,0c-6.1,0-10-0.2-11.8-0.6c-0.9-0.2-1.4-0.7-1.4-1.5c0-3.6,0.1-9,0.4-16.3
		c0.2-7.2,0.4-12.7,0.4-16.3c0-4.3-0.2-9.7-0.6-16.2c-0.6-10.1-0.9-15.5-0.9-16.2l0-0.6c0-0.8,0.5-1.2,1.5-1.2c2.4,0,6,0,10.9,0.1
		s8.5,0.1,11,0.1c2.6,0,6.5-0.2,11.7-0.6s9.1-0.6,11.7-0.6c1.6,0,2.5,0.7,2.7,2c0,1.4,0.1,3.5,0.2,6.3c0.1,0.7,0.3,2.1,0.6,4.2
		C609.1,694.7,609.3,696,609.3,697z"/>
	<path id="XMLID_122_" class="st1" d="M664.9,705.2c0,2.4-0.1,6-0.3,10.8c-0.2,4.8-0.3,8.4-0.3,10.8c0,2.3,0.1,5.9,0.2,10.5
		s0.2,8.2,0.2,10.5c0,0.9-0.4,1.4-1.2,1.7c-1.2,0.3-3.9,0.5-7.9,0.5c-3.5,0-6-0.1-7.4-0.3c-0.6-0.1-1-0.5-1.2-1.2
		c-0.1-1-0.2-2-0.3-2.9c-0.2-1.5-0.4-2.2-0.7-2.2c0.5,0-1.2,1.1-4.9,3.3c-3.7,2.2-7.1,3.3-10.2,3.3c-8.6,0-13.7-3.9-15.3-11.7
		c-0.7-3.6-1.1-8.9-1.1-15.7c0-7.4,0.6-13.3,1.8-17.6c0.4-1.3,1-2,2-2c1.5,0,3.8,0,6.8,0c3.1,0,5.3,0,6.8,0c1,0,1.5,0.4,1.5,1.3
		c0,0.2,0,0.6-0.1,1c-0.7,4.4-1,8.9-1,13.5c0,5.7,0.2,9.5,0.5,11.6c0.6,3.6,2.7,5.4,6.4,5.4c1.4,0,3-0.6,4.7-1.9s2.5-2.6,2.6-4
		c0.1-1.2,0.1-9.4,0.1-24.5c0-1.1,0.1-1.7,0.2-1.9c0.2-0.3,0.8-0.5,1.8-0.5c1.6,0,4,0,7.2,0c3.2,0,5.6,0,7.2,0c1,0,1.5,0.2,1.7,0.7
		C664.9,704.3,664.9,704.7,664.9,705.2z"/>
	<path id="XMLID_124_" class="st1" d="M721.5,748.2c0,0.9-0.5,1.4-1.4,1.5s-3.3,0.2-7.1,0.2c-4.1,0-6.6-0.1-7.6-0.3s-1.5-0.9-1.5-2
		c0-1.5,0-3.8,0.1-6.9c0.1-3.1,0.1-5.4,0.1-7c0-1.2,0-3-0.1-5.4s-0.1-4.2-0.1-5.4c0-4.5-1.9-6.7-5.8-6.7c-1.3,0-2.8,0.6-4.4,1.7
		c-1.8,1.2-2.7,2.5-2.7,3.7v26.4c0,1.1-0.5,1.7-1.5,1.8c-1.1,0.1-3.5,0.2-7,0.2c-3.8,0-6.3-0.1-7.4-0.3c-1-0.2-1.5-0.7-1.5-1.6
		c0-2.5,0-6.4,0-11.5c0-5.1,0-9,0-11.5c0-8.1-0.6-14.5-1.9-19.1c-0.1-0.3-0.1-0.5-0.1-0.7c0-0.5,0.2-0.9,0.7-1.1
		c2.1-0.2,4.8-0.6,8.2-1.1c5.2-1,8.1-1.5,8.7-1.5c0.4,0,0.6,1.1,0.8,3.3s0.5,3.3,0.8,3.3c-0.4,0,1.4-1.1,5.2-3.4
		c3.9-2.3,7.2-3.4,10.1-3.4c4.1,0,7.6,1,10.4,2.9c3.1,2.2,4.6,5.4,4.6,9.4v15.6c0,2.1,0,5.3,0,9.5
		C721.5,742.9,721.5,746.1,721.5,748.2z"/>
	<path id="XMLID_126_" class="st1" d="M762,717.5c0,0-1-0.3-3-0.8c-1.9-0.5-3.5-0.8-4.7-0.8c-2.9,0-5.2,0.9-6.9,2.6
		c-1.7,1.7-2.6,4.1-2.6,7c0,3,0.9,5.3,2.8,7.1s4.3,2.6,7.4,2.6c1.4,0,3-0.4,4.8-1.1s2.6-1.1,2.5-1.1c0.6,0,1.3,2.1,2.1,6.2
		c0.7,3.8,1.1,6.3,1.1,7.5c0,1.2-2,2.3-6.1,3.2c-3.1,0.7-5.6,1-7.6,1c-7.2,0-13.1-2.4-17.7-7.2c-4.7-4.8-7-10.8-7-18
		c0-7.1,2.3-13.1,7-18c4.7-4.9,10.6-7.3,17.7-7.3c4.9,0,9.1,1,12.8,3.1c0.8,0.5,1.3,0.9,1.3,1.3c0,0.4-0.5,2.3-1.5,5.8
		c-0.9,3.3-1.5,5.3-1.8,6S762.3,717.5,762,717.5z"/>
	<path id="XMLID_128_" class="st1" d="M803.9,735.3c0,1-0.1,2.5-0.4,4.4c-0.2,2-0.4,3.4-0.4,4.4s-0.1,1.5-0.3,1.8
		c-0.2,0.3-0.7,0.6-1.6,1.1c-4.2,2.3-8.9,3.5-14,3.5c-9.4,0-14.1-3.6-14.1-10.8c0-2.1,0.1-5.4,0.2-9.7c0.2-4.3,0.2-7.5,0.2-9.7
		c0-1.4-0.8-2.1-2.5-2.1c-0.1,0-0.3,0-0.6,0c-0.3,0-0.5,0-0.6,0c-1.2,0-1.9-0.4-1.9-1.3c0-0.5,0-1.3,0.1-2.4s0.1-1.9,0.1-2.4
		c0-0.7,0-1.7-0.1-3.1c-0.1-1.4-0.1-2.4-0.1-3.1c0-0.7,1-1,3.1-1.1c1.2,0,1.8-0.4,1.9-1c0.2-1.2,0.3-3.2,0.2-5.9
		c-0.1-4.2-0.2-6.2-0.2-6c0-3.8,0.4-5.7,1.1-5.7c0.9,0,2.1,0.2,3.8,0.6c1.9,0.4,3.1,0.7,3.9,0.7c1.7,0.2,4.2,0.5,7.5,0.9
		c0.8,0.1,1.2,0.3,1.2,0.8c0,1.3-0.1,3.3-0.3,5.9s-0.3,4.6-0.3,6c0,1.6,0.5,2.4,1.4,2.4c1.1,0,2.9,0,5.2-0.1s4.1-0.1,5.2-0.1
		c0.7,0,1.1,0.2,1.1,0.7c0,0.7-0.1,1.9-0.2,3.4c-0.2,1.5-0.2,2.6-0.2,3.4c0,0.8,0,1.9,0,3.4c0,1.5,0,2.6,0,3.4c0,0.7-0.5,1-1.4,1
		c-0.7,0-1.7,0-3.3-0.1s-2.6-0.1-3.3-0.1h-3.7c-0.5,0-0.7,0.7-0.7,2.1c0,0.8,0,1.9,0,3.5c0,1.6,0,2.7,0,3.5c0,2.7,0.3,4.6,0.9,5.7
		c0.9,1.4,2.6,2.1,5.2,2.1c0.8,0,2-0.2,3.5-0.6c1.5-0.4,2.6-0.6,3.2-0.6C803.6,734.2,803.9,734.6,803.9,735.3z"/>
	<path id="XMLID_130_" class="st1" d="M827.1,727.2c0,2.4,0,5.9,0.1,10.6c0.1,4.7,0.1,8.2,0.1,10.6c0,0.7-0.4,1.1-1.2,1.2
		c-1.1,0.2-3.6,0.3-7.5,0.3c-3.9,0-6.4-0.1-7.5-0.3c-0.7-0.1-1.2-0.3-1.3-0.6c-0.1-0.1-0.1-0.6-0.1-1.5c0-2.2,0-5.6,0.1-10.1
		c0.1-4.5,0.1-7.9,0.1-10.2c0-9.2-0.4-16.6-1.1-22.1c-0.1-0.5-0.1-0.9-0.1-1c0-0.7,0.4-1,1.3-1c0.9,0,2.3,0.1,4.2,0.3
		s3.3,0.3,4.2,0.3s2.4-0.1,4.2-0.2c1.9-0.2,3.3-0.2,4.2-0.2c0.8,0,1.2,0.3,1.2,1c0,0.1,0,0.4-0.1,0.9
		C827.5,711.5,827.1,718.8,827.1,727.2z M828.4,690.9c0,5.7-3.2,8.5-9.6,8.5c-2.7,0-5-0.7-6.8-2.1c-2-1.6-2.9-3.7-2.9-6.3
		c0-2.5,1-4.6,3-6.3c1.9-1.5,4.1-2.2,6.7-2.2c2.5,0,4.7,0.8,6.6,2.3C827.4,686.3,828.4,688.4,828.4,690.9z"/>
	<path id="XMLID_133_" class="st1" d="M883.5,725.6c0,7.4-2.3,13.4-6.8,18.1c-4.5,4.6-10.5,6.9-17.9,6.9c-7.2,0-13.1-2.3-17.7-6.8
		c-4.6-4.6-6.9-10.4-6.9-17.6c0-7.6,2.2-13.7,6.6-18.4c4.4-4.7,10.4-7.1,18-7.1c7.4,0,13.3,2.3,17.9,6.9
		C881.2,712.2,883.5,718.2,883.5,725.6z M867.5,725.6c0-2.6-0.8-4.8-2.4-6.8c-1.6-2-3.7-3-6.2-3c-2.6,0-4.7,1-6.3,3
		c-1.6,1.9-2.3,4.1-2.3,6.7c0,2.6,0.8,4.9,2.3,6.8c1.7,2,3.8,3,6.3,3c2.5,0,4.6-1,6.3-3C866.7,730.5,867.5,728.2,867.5,725.6z"/>
	<path id="XMLID_136_" class="st1" d="M938,748.2c0,0.9-0.5,1.4-1.4,1.5s-3.3,0.2-7.1,0.2c-4.1,0-6.6-0.1-7.6-0.3s-1.5-0.9-1.5-2
		c0-1.5,0-3.8,0.1-6.9c0.1-3.1,0.1-5.4,0.1-7c0-1.2,0-3-0.1-5.4s-0.1-4.2-0.1-5.4c0-4.5-1.9-6.7-5.8-6.7c-1.3,0-2.8,0.6-4.4,1.7
		c-1.8,1.2-2.7,2.5-2.7,3.7v26.4c0,1.1-0.5,1.7-1.5,1.8c-1.1,0.1-3.5,0.2-7,0.2c-3.8,0-6.3-0.1-7.4-0.3c-1-0.2-1.5-0.7-1.5-1.6
		c0-2.5,0-6.4,0-11.5c0-5.1,0-9,0-11.5c0-8.1-0.6-14.5-1.9-19.1c-0.1-0.3-0.1-0.5-0.1-0.7c0-0.5,0.2-0.9,0.7-1.1
		c2.1-0.2,4.8-0.6,8.2-1.1c5.2-1,8.1-1.5,8.7-1.5c0.4,0,0.6,1.1,0.8,3.3s0.5,3.3,0.8,3.3c-0.4,0,1.4-1.1,5.2-3.4
		c3.9-2.3,7.2-3.4,10.1-3.4c4.1,0,7.6,1,10.4,2.9c3.1,2.2,4.6,5.4,4.6,9.4v15.6c0,2.1,0,5.3,0,9.5C937.9,742.9,938,746.1,938,748.2z
		"/>
</g>
<g id="XMLID_100_">
	<path id="XMLID_101_" class="st1" d="M170.1,102.5c0,0.4-0.3,0.5-1,0.5c-2.4,0-6.1-0.2-11.1-0.6c-5-0.4-8.7-0.6-11.2-0.6
		c-3.1,0-4.9,0.1-5.5,0.3c-1.2,0.6-1.8,2.1-1.8,4.7c0,3.1,0.8,4.9,2.3,5.3c0.7,0.2,1.6,0.2,3,0.2c2.2,0,5.6-0.1,10.1-0.4
		c4.5-0.2,7.8-0.4,10.1-0.4c1.1,0,1.6,2.9,1.6,8.6c0,5-0.2,7.9-0.5,8.7c-0.2,0.6-0.7,0.9-1.3,0.9c0.4,0-0.6-0.1-3.1-0.3
		c-3.5-0.3-8.8-0.5-15.8-0.5c-2.3,0-3.6,0-3.9,0c-1.7,0.3-2.5,1-2.5,2.1c0,4.6,0.2,9.9,0.6,16c0.3,5.4,0.5,7.9,0.5,7.3
		c0,0.8-1,1.3-3.1,1.5c0.6,0-0.9,0-4.3,0c-6.1,0-10-0.2-11.8-0.6c-0.9-0.2-1.4-0.7-1.4-1.5c0-3.6,0.1-9,0.4-16.3
		c0.2-7.2,0.4-12.7,0.4-16.3c0-4.3-0.2-9.7-0.6-16.2c-0.6-10.1-0.9-15.5-0.9-16.2l0-0.6c0-0.8,0.5-1.2,1.5-1.2c2.4,0,6,0,10.9,0.1
		c4.9,0.1,8.5,0.1,11,0.1c2.6,0,6.5-0.2,11.7-0.6s9.1-0.6,11.7-0.6c1.6,0,2.5,0.7,2.7,2c0,1.4,0.1,3.5,0.2,6.3
		c0.1,0.7,0.3,2.1,0.6,4.2C170,100.2,170.1,101.5,170.1,102.5z"/>
	<path id="XMLID_103_" class="st1" d="M222.5,131.1c0,7.4-2.3,13.4-6.8,18.1c-4.5,4.6-10.5,6.9-17.9,6.9c-7.2,0-13.1-2.3-17.7-6.8
		c-4.6-4.6-6.9-10.4-6.9-17.6c0-7.6,2.2-13.7,6.6-18.4c4.4-4.7,10.4-7.1,18-7.1c7.4,0,13.3,2.3,17.9,6.9
		C220.2,117.7,222.5,123.7,222.5,131.1z M206.5,131.1c0-2.6-0.8-4.8-2.4-6.8c-1.6-2-3.7-3-6.2-3c-2.6,0-4.7,1-6.3,3
		c-1.6,1.9-2.3,4.1-2.3,6.7c0,2.6,0.8,4.9,2.3,6.8c1.7,2,3.8,3,6.3,3c2.5,0,4.6-1,6.3-3C205.7,136,206.5,133.7,206.5,131.1z"/>
	<path id="XMLID_106_" class="st1" d="M260.8,124.7c0,1.3-0.7,1.9-2.1,1.9c-0.6,0-1.5,0-2.7-0.1c-1.2-0.1-2.1-0.1-2.7-0.1
		c-2.7,0-4.5,0.4-5.5,1.3c-1,0.8-1.5,2.6-1.5,5.1c0,1.4,0,3.5,0.1,6.4c0,2.8,0.1,5,0.1,6.4c0,0.9,0.1,2.4,0.2,4.2
		c0.1,1.9,0.2,3.3,0.2,4.2c0,0.8-0.5,1.2-1.6,1.3c-1.6,0.1-4,0.2-7.2,0.2c-3.1,0-5.6-0.1-7.4-0.3c-1.1-0.1-1.6-0.7-1.6-1.6
		c0-2.6,0-6.5,0-11.7c0-5.2,0-9.1,0-11.7c0-7.6-0.7-13.9-2.1-18.9c-0.1-0.3-0.1-0.5-0.1-0.7c0-0.5,0.2-0.8,0.7-1
		c1.8-0.2,4.4-0.6,7.9-1.1c5.1-1,7.8-1.5,8-1.5c0.6,0,1,1,1.1,3.1c0.2,2.1,0.5,3.1,0.9,3.1c-0.5,0,0.9-0.9,4-2.6s6.1-2.6,9-2.6
		c1.8,0,2.7,0.4,2.7,1.2c0,0.9-0.1,2.3-0.3,4c-0.2,1.9-0.3,3.2-0.3,4c0,0.9,0,2.2,0,3.8C260.8,122.8,260.8,124.1,260.8,124.7z"/>
	<path id="XMLID_108_" class="st1" d="M309.3,125.7c0,8.9,0,15.7,0.1,20.5c0,0.7,0,2,0.1,3.9c0.1,1.7,0.1,2.9,0.1,3.9
		c0,0.7-0.4,1.1-1.2,1.2c-1.5,0.3-4.1,0.4-7.9,0.4c-3.9,0-6.4-0.1-7.5-0.4c-0.7-0.2-1.1-0.6-1.2-1.3c0-0.1,0-0.8,0-2.1
		c0-2.9,0-7.2,0.1-13c0.1-5.8,0.1-10.1,0.1-13c0-13.7,0-19.9,0-18.7c-0.1-7.2-0.5-13.4-1.2-18.6c-0.1-0.4-0.1-0.6-0.1-0.8
		c0-0.7,0.4-1.1,1.3-1.1h17.4c0.8,0,1.2,0.3,1.1,1l0,0.9C309.7,102.5,309.3,114.9,309.3,125.7z"/>
	<path id="XMLID_110_" class="st1" d="M365.2,131.1c0,7.4-2.3,13.4-6.8,18.1c-4.5,4.6-10.5,6.9-17.9,6.9c-7.2,0-13.1-2.3-17.7-6.8
		c-4.6-4.6-6.9-10.4-6.9-17.6c0-7.6,2.2-13.7,6.6-18.4c4.4-4.7,10.4-7.1,18-7.1c7.4,0,13.3,2.3,17.9,6.9
		C362.9,117.7,365.2,123.7,365.2,131.1z M349.2,131.1c0-2.6-0.8-4.8-2.4-6.8c-1.6-2-3.7-3-6.2-3c-2.6,0-4.7,1-6.3,3
		c-1.6,1.9-2.3,4.1-2.3,6.7c0,2.6,0.8,4.9,2.3,6.8c1.7,2,3.8,3,6.3,3c2.5,0,4.6-1,6.3-3C348.4,136,349.2,133.7,349.2,131.1z"/>
	<path id="XMLID_113_" class="st1" d="M418.1,131.1c0,7.4-2.3,13.4-6.8,18.1c-4.5,4.6-10.5,6.9-17.9,6.9c-7.2,0-13.1-2.3-17.7-6.8
		c-4.6-4.6-6.9-10.4-6.9-17.6c0-7.6,2.2-13.7,6.6-18.4c4.4-4.7,10.4-7.1,18-7.1c7.4,0,13.3,2.3,17.9,6.9
		C415.8,117.7,418.1,123.7,418.1,131.1z M402.1,131.1c0-2.6-0.8-4.8-2.4-6.8c-1.6-2-3.7-3-6.2-3c-2.6,0-4.7,1-6.3,3
		c-1.6,1.9-2.3,4.1-2.3,6.7c0,2.6,0.8,4.9,2.3,6.8c1.7,2,3.8,3,6.3,3c2.5,0,4.6-1,6.3-3C401.3,136,402.1,133.7,402.1,131.1z"/>
	<path id="XMLID_116_" class="st1" d="M477.8,131.6c0,7-2.1,12.7-6.2,17.3c-4.2,4.8-9.8,7.1-16.7,7.1c-2.5,0-5.2-0.6-8.1-1.9
		c-2.9-1.2-4.2-1.9-3.9-1.9c-0.4,0-0.6,0.5-0.6,1.5c0,1.7,0.1,4.2,0.2,7.5c0.2,3.3,0.2,5.8,0.2,7.5c0,1-0.5,1.6-1.6,1.6l-10,0
		c-2.2,0-3.7-0.1-4.3-0.2c-1-0.2-1.5-0.8-1.5-1.8l0.1-37.6c0-7.6-0.6-14-1.7-19.2c-0.1-0.3-0.1-0.6-0.1-0.8c0-0.5,0.2-0.8,0.6-1
		c1.3-0.5,3.7-1,7.3-1.6c3.5-0.6,6-0.8,7.6-0.8c1.3,0,2,0.8,2.2,2.5c0.2,1.7,0.4,2.5,0.7,2.5c-0.3,0,1.1-0.9,4.2-2.7
		c3.1-1.8,5.9-2.7,8.5-2.7c7.1,0,12.7,2.3,16.9,7C475.8,118.6,477.8,124.4,477.8,131.6z M459.7,131.5c0-2.6-0.8-4.9-2.4-6.8
		c-1.7-2.1-3.9-3.1-6.4-3.1c-2.6,0-4.7,1-6.3,3.1c-1.4,1.9-2.1,4.1-2.1,6.8c0,2.8,0.7,5.1,2.1,6.9c1.5,2,3.6,3,6.3,3
		C456.9,141.4,459.7,138.1,459.7,131.5z"/>
</g>
<g id="XMLID_78_">
	<path id="XMLID_79_" class="st1" d="M1101.6,141.9c-4.4,0-6.9-0.1-7.5-0.2c-0.6-0.1-1.1-0.6-1.6-1.4c-3.7-7.3-7.4-14.7-11.2-22
		c-5.9-11.8-8.8-18.5-8.8-20.1c0-2.6,0.1-6.4,0.3-11.6c0.2-5.2,0.3-9,0.3-11.6c0-1.2,0.3-1.8,1-1.8c2,0,4.9,0.1,8.9,0.2
		c4,0.2,7,0.2,8.9,0.2c0.8,0,1.2,0.3,1.2,1c0,2.6-0.2,6.6-0.6,11.9c-0.4,5.3-0.6,9.3-0.6,11.9c0,2,3.3,9.2,9.9,21.6
		c1.8-3.2,3.8-7.2,6.1-11.9c3.1-6.3,4.6-10.2,4.6-11.6c0-2.4,0-5.9-0.1-10.7c-0.1-4.8-0.1-8.3-0.1-10.7c0-0.9,0.1-1.4,0.4-1.5h1.6
		c1.8,0,4.5-0.1,8.1-0.3c3.6-0.2,6.3-0.3,8.1-0.3c1,0,1.5,0.4,1.5,1.2c0,2.5,0,6.3-0.1,11.4c-0.1,5.1-0.1,8.9-0.1,11.4
		c0,2-3.2,9.4-9.6,22.3c-2.5,4.6-6.2,11.6-11,20.9c-0.3,0.7-0.5,1.1-0.7,1.2c-0.1,0.1-0.5,0.2-1.2,0.2
		C1107.7,141.8,1105.1,141.9,1101.6,141.9z"/>
	<path id="XMLID_81_" class="st1" d="M1188,117.2c0,2.5,0.1,6.2,0.4,11.2c0.3,4.9,0.4,8.7,0.4,11.1c0,1.3-0.6,2-1.7,2.1
		c-4,0.3-8.7,0.4-13.9,0.4c-0.6,0-1-0.9-1.2-2.8c-0.2-1.9-0.5-2.8-0.8-2.9c-0.3,0.1-0.6,0.4-1,0.8c-3.6,3.7-7.6,5.5-11.7,5.5
		c-6.3,0-11.6-2.5-15.8-7.5c-3.9-4.7-5.9-10.3-5.9-16.8c0-7.5,2-13.6,6.1-18.2c4.2-4.8,10-7.1,17.4-7.1c5.1,0,9.1,1.8,12.1,5.4
		c0.1,0.2,0.2,0.2,0.3,0.2c0.3,0,0.6-0.8,1-2.4c0.4-1.6,0.8-2.4,1.3-2.4c1.2,0,3.5,0.3,6.9,1c3.2,0.7,5.5,1.2,6.9,1.7
		c0.5,0.2,0.7,0.5,0.7,0.8c0,0.1,0,0.5-0.1,1C1188.6,104.4,1188,110.7,1188,117.2z M1172.3,117.5c0-2.8-0.9-5.1-2.6-6.9
		c-1.7-1.8-4-2.7-6.8-2.7c-2.8,0-5.1,0.9-6.8,2.7c-1.7,1.8-2.6,4.1-2.6,6.9c0,2.6,0.9,4.9,2.7,6.8c1.8,1.9,4,2.8,6.6,2.8
		c2.8,0,5-0.9,6.8-2.7S1172.3,120.3,1172.3,117.5z"/>
	<path id="XMLID_84_" class="st1" d="M1230.1,111.2c0,1.3-0.7,1.9-2.1,1.9c-0.6,0-1.5,0-2.7-0.1c-1.2-0.1-2.1-0.1-2.7-0.1
		c-2.7,0-4.5,0.4-5.5,1.3c-1,0.8-1.5,2.6-1.5,5.1c0,1.4,0,3.5,0.1,6.4c0,2.8,0.1,5,0.1,6.4c0,0.9,0.1,2.4,0.2,4.2
		c0.1,1.9,0.2,3.3,0.2,4.2c0,0.8-0.5,1.2-1.6,1.3c-1.6,0.1-4,0.2-7.2,0.2c-3.1,0-5.6-0.1-7.4-0.3c-1.1-0.1-1.6-0.7-1.6-1.6
		c0-2.6,0-6.5,0-11.7c0-5.2,0-9.1,0-11.7c0-7.6-0.7-13.9-2.1-18.9c-0.1-0.3-0.1-0.5-0.1-0.7c0-0.5,0.2-0.8,0.7-1
		c1.8-0.2,4.4-0.6,7.9-1.1c5.1-1,7.8-1.5,8-1.5c0.6,0,1,1,1.1,3.1c0.2,2.1,0.5,3.1,0.9,3.1c-0.5,0,0.9-0.9,4-2.6s6.1-2.6,9-2.6
		c1.8,0,2.7,0.4,2.7,1.2c0,0.9-0.1,2.3-0.3,4c-0.2,1.9-0.3,3.2-0.3,4c0,0.9,0,2.2,0,3.8C1230.1,109.4,1230.1,110.6,1230.1,111.2z"/>
	<path id="XMLID_86_" class="st1" d="M1253.9,119.2c0,2.4,0,5.9,0.1,10.6c0.1,4.7,0.1,8.2,0.1,10.6c0,0.7-0.4,1.1-1.2,1.2
		c-1.1,0.2-3.6,0.3-7.5,0.3c-3.9,0-6.4-0.1-7.5-0.3c-0.7-0.1-1.2-0.3-1.3-0.6c-0.1-0.1-0.1-0.6-0.1-1.5c0-2.2,0-5.6,0.1-10.1
		c0.1-4.5,0.1-7.9,0.1-10.2c0-9.2-0.4-16.6-1.1-22.1c-0.1-0.5-0.1-0.9-0.1-1c0-0.7,0.4-1,1.3-1c0.9,0,2.3,0.1,4.2,0.3
		c1.9,0.2,3.3,0.3,4.2,0.3c0.9,0,2.4-0.1,4.2-0.2c1.9-0.2,3.3-0.2,4.2-0.2c0.8,0,1.2,0.3,1.2,1c0,0.1,0,0.4-0.1,0.9
		C1254.3,103.5,1253.9,110.9,1253.9,119.2z M1255.2,83c0,5.7-3.2,8.5-9.6,8.5c-2.7,0-5-0.7-6.8-2.1c-2-1.6-2.9-3.7-2.9-6.3
		c0-2.5,1-4.6,3-6.3c1.9-1.5,4.1-2.2,6.7-2.2c2.5,0,4.7,0.8,6.6,2.3C1254.2,78.4,1255.2,80.5,1255.2,83z"/>
	<path id="XMLID_89_" class="st1" d="M1312.4,117.2c0,2.5,0.1,6.2,0.4,11.2c0.3,4.9,0.4,8.7,0.4,11.1c0,1.3-0.6,2-1.7,2.1
		c-4,0.3-8.7,0.4-13.9,0.4c-0.6,0-1-0.9-1.2-2.8c-0.2-1.9-0.5-2.8-0.8-2.9c-0.3,0.1-0.6,0.4-1,0.8c-3.6,3.7-7.6,5.5-11.7,5.5
		c-6.3,0-11.6-2.5-15.8-7.5c-3.9-4.7-5.9-10.3-5.9-16.8c0-7.5,2-13.6,6.1-18.2c4.2-4.8,10-7.1,17.4-7.1c5.1,0,9.1,1.8,12.1,5.4
		c0.1,0.2,0.2,0.2,0.3,0.2c0.3,0,0.6-0.8,1-2.4c0.4-1.6,0.8-2.4,1.3-2.4c1.2,0,3.5,0.3,6.9,1c3.2,0.7,5.5,1.2,6.9,1.7
		c0.5,0.2,0.7,0.5,0.7,0.8c0,0.1,0,0.5-0.1,1C1312.9,104.4,1312.4,110.7,1312.4,117.2z M1296.7,117.5c0-2.8-0.9-5.1-2.6-6.9
		c-1.7-1.8-4-2.7-6.8-2.7c-2.8,0-5.1,0.9-6.8,2.7c-1.7,1.8-2.6,4.1-2.6,6.9c0,2.6,0.9,4.9,2.7,6.8c1.8,1.9,4,2.8,6.6,2.8
		c2.8,0,5-0.9,6.8-2.7S1296.7,120.3,1296.7,117.5z"/>
	<path id="XMLID_92_" class="st1" d="M1375,117.8c0,6.8-2,12.5-5.9,17.1c-4.2,4.9-9.6,7.3-16.3,7.3c-4.9,0-8.8-1.4-11.8-4.2
		c-0.2-0.2-0.4-0.3-0.6-0.3c-0.3,0-0.6,0.6-0.9,1.8c-0.3,1.2-0.6,1.9-1,2c-0.6,0.2-5.2,0.2-13.9,0.2c-2.1,0-3.1-0.4-3.1-1.1
		c0-0.1,0-0.3,0.1-0.7c0.7-5.2,1-15,1-29.6c0-13.9-0.5-26-1.5-36.3l0-0.5c0-0.5,0.5-0.8,1.5-0.9c0.7,0,3.5-0.3,8.5-0.7
		c3.5-0.3,6.3-0.5,8.5-0.5c0.6,0,0.9,0.5,0.9,1.6c0,1.3-0.1,2.9-0.2,5c-0.2,2.6-0.3,4.3-0.3,5.1c-0.2,3.2-0.2,7.6-0.2,13.2
		c0,1,0.3,1.5,0.8,1.5c0.3,0,0.5-0.1,0.7-0.4c2.9-3.1,6.8-4.7,11.5-4.7c7.1,0,12.7,2.4,16.7,7.3C1373.2,104.6,1375,110.5,1375,117.8
		z M1357.4,117.2c0-2.7-0.8-5-2.5-6.9c-1.7-1.9-3.8-2.8-6.5-2.8c-2.7,0-4.9,0.9-6.5,2.8c-1.6,1.9-2.4,4.2-2.4,7
		c0,2.9,0.8,5.2,2.3,6.9c1.6,1.9,3.8,2.8,6.6,2.8c2.8,0,5-1,6.6-2.9C1356.6,122.4,1357.4,120.1,1357.4,117.2z"/>
	<path id="XMLID_95_" class="st1" d="M1398.8,112.3c0,8.9,0,15.7,0.1,20.5c0,0.7,0,2,0.1,3.9c0.1,1.7,0.1,2.9,0.1,3.9
		c0,0.7-0.4,1.1-1.2,1.2c-1.5,0.3-4.1,0.4-7.9,0.4c-3.9,0-6.4-0.1-7.5-0.4c-0.7-0.2-1.1-0.6-1.2-1.3c0-0.1,0-0.8,0-2.1
		c0-2.9,0-7.2,0.1-13c0.1-5.8,0.1-10.1,0.1-13c0-13.7,0-19.9,0-18.7c-0.1-7.2-0.5-13.4-1.2-18.6c-0.1-0.4-0.1-0.6-0.1-0.8
		c0-0.7,0.4-1.1,1.3-1.1h17.4c0.8,0,1.2,0.3,1.1,1l0,0.9C1399.2,89,1398.8,101.5,1398.8,112.3z"/>
	<path id="XMLID_97_" class="st1" d="M1452.4,115.1c0,3.3-1.1,5.2-3.2,5.6c-0.4,0.1-3.7,0.4-10.1,1.1c-3.8,0.4-9.6,0.9-17.2,1.5
		c0.5,2.1,1.8,3.7,4.2,4.8c1.9,0.9,4,1.4,6.4,1.4c2.9,0,5.8-0.8,8.7-2.3c1.2-0.8,2.5-1.6,3.7-2.3c0.7,0.3,1.8,2,3.4,5
		c1.6,3,2.4,4.9,2.4,5.7c0,0.2-0.2,0.6-0.7,1.1c-4,4.3-10.1,6.4-18.5,6.4c-7.7,0-14-2.3-18.8-6.8c-4.9-4.6-7.3-10.7-7.3-18.4
		c0-7.5,2.2-13.6,6.5-18.4c4.5-4.9,10.4-7.4,17.9-7.4c6.3,0,11.6,2.3,15.9,6.8C1450.3,103.4,1452.4,108.9,1452.4,115.1z
		 M1435.3,112.2c0-2-0.7-3.8-2.1-5.3c-1.4-1.5-3.1-2.3-5.1-2.3c-2.1,0-3.7,0.9-5.1,2.6c-1.2,1.6-1.9,3.5-1.9,5.6
		c0,0.9,0.5,1.3,1.4,1.3c2.4,0,6.2-0.4,11.2-1.1C1434.8,112.8,1435.3,112.5,1435.3,112.2z"/>
</g>
<g id="XMLID_69_">
	<path id="XMLID_70_" class="st1" d="M403,542.4c0,0.6-0.4,1-1.2,1.2c-1,0.3-4,0.4-9.1,0.4c-4.7,0-7.6-0.1-9-0.4
		c-1.1-0.2-1.8-1-2.1-2.2c-1.1-4.7-2-7.2-2.6-7.5c-0.5-0.2-4.9-0.3-13.1-0.3c-5.5,0-8.5,0.1-8.8,0.4c-0.6,0.5-1.2,2.3-1.9,5.2
		c-0.6,2.7-1.4,4.2-2.2,4.4c-1.1,0.3-4.8,0.4-11.1,0.4c-5,0-7.5-0.5-7.5-1.4c0-0.8,3.7-11.2,11-31.2c8-21.6,12.3-33.4,13-35.6
		c0.4-1.2,0.8-1.9,1.4-1.9c0.9,0,2.2,0.1,4.1,0.2c1.8,0.2,3.2,0.2,4.1,0.2c0.9,0,2.2-0.1,3.9-0.2c1.7-0.1,3-0.2,3.8-0.2
		c0.6,0,1.2,0.5,1.7,1.6c1.6,3.4,6.3,15.1,14,35.2C399.1,531,403,541.5,403,542.4z M368.4,497.9c-0.7,1.4-1.8,4.5-3.5,9.3
		c-1.8,5.1-2.6,8.1-2.6,8.9c0,0.6,1,0.9,2.9,1c1,0.1,2.7,0.1,5,0.1c2.1,0,3.3-0.3,3.6-0.8c0.1-0.2,0.1-0.4,0.1-0.7
		c0-1.1-0.7-4-2.2-8.9C370.1,502.2,369.1,499.2,368.4,497.9z"/>
	<path id="XMLID_73_" class="st1" d="M466.5,501.2c0,7.9-2.1,14.3-6.2,19.1c-4.4,5.2-10.5,7.8-18.3,7.8c-1.3,0-3.3-0.1-5.9-0.2
		c-2.6-0.1-4.6-0.2-5.9-0.2c-1.4,0-2.1,0.6-2.1,1.8c0,1.5,0.1,3.7,0.4,6.7c0.3,3,0.4,5.2,0.4,6.6c0,0.7-0.3,1.1-1,1.1
		c-2,0-5-0.1-8.9-0.2c-4-0.1-7-0.2-8.9-0.2c-0.9,0-1.4-0.5-1.4-1.4c0-3.6,0.1-9,0.2-16.3c0.1-7.2,0.2-12.7,0.2-16.3
		c0-10.2-0.4-21-1.3-32.2l0-0.7c-0.1-0.6,0.4-1,1.5-1.1c2.5-0.3,8.1-0.5,16.8-0.5c5.1,0,10,0.1,14.7,0.2c7.7,0.2,13.9,2.7,18.7,7.3
		C464.1,487.3,466.5,493.6,466.5,501.2z M447,502c0-7.6-3.7-11.4-11.1-11.4c-5.2,0-7.9,0.3-8.2,0.9c-0.2,0.4-0.3,4.2-0.3,11.3
		c0,1,0,2.5,0.1,4.5c0.1,2,0.1,3.5,0.1,4.5c0,0.7,2.9,1,8.8,1C443.5,512.7,447,509.1,447,502z"/>
	<path id="XMLID_76_" class="st1" d="M493,507.5c0,3.8,0.1,9.6,0.3,17.3s0.3,13.5,0.3,17.3c0,0.7-0.1,1.1-0.4,1.2
		c-0.1,0-0.5,0.1-1.3,0.2c-2.1,0.3-4.9,0.4-8.5,0.4c-4.8,0-7.8-0.1-9.1-0.4c-0.9-0.2-1.4-0.7-1.4-1.5c0,0.5,0.1-2.3,0.4-8.6
		c0.6-13.2,0.9-21.8,0.9-26c0-3.5-0.1-8.7-0.3-15.7c-0.2-7-0.3-12.2-0.3-15.7c0-0.7,0.4-1.1,1.1-1.1c1,0,2.5,0,4.6,0.1
		c2,0.1,3.6,0.1,4.6,0.1c1,0,2.5,0,4.5-0.1c2-0.1,3.5-0.1,4.5-0.1c0.9,0,1.4,0.4,1.4,1.1c0,3.5-0.2,8.7-0.6,15.7
		C493.2,498.8,493,504.1,493,507.5z"/>
</g>
<g id="XMLID_55_">
	<path id="XMLID_56_" class="st1" d="M112.8,750.6c0,6.6-2.8,12.3-8.3,17c-4.9,4.2-10.8,6.8-17.8,8c-0.3,0-0.5,0-0.6,0
		c-0.7,0-2.4-2.3-5-6.9c-2.6-4.6-3.9-7.4-3.9-8.4c0-0.4,0.2-0.6,0.7-0.7c4.7-1.1,7.8-2,9.4-2.7c3.4-1.7,5.1-4.2,5.1-7.5
		c0-2.1-1.1-4.5-3.3-7.1c-3.8-4.4-5.9-6.9-6.3-7.4c-2.2-3.4-3.4-7.1-3.4-11.2c0-6,2.8-10.9,8.3-14.8c4.5-3.3,10-5.4,16.6-6.3
		c0.4,0,0.6,0,0.8,0c0.5,0,0.9,0.4,1.2,1.2c0.8,2.4,2.8,6.7,5.9,12.9c0.1,0.2,0.1,0.4,0.1,0.5c0,0.6-0.3,0.8-0.9,0.8
		c-0.3,0-0.7,0-1.3-0.1c-0.6-0.1-1.1-0.1-1.4-0.1c-2.3,0-4.4,0.5-6.2,1.6c-2.1,1.2-3.2,3-3.2,5.2c0,2,1.2,4.4,3.5,7.3
		c4.1,5.2,6.3,7.9,6.5,8.2C111.6,743.5,112.8,747.1,112.8,750.6z"/>
	<path id="XMLID_58_" class="st1" d="M190.6,738.9c0,5.1-0.4,8.6-1.2,10.6c-0.8,2.1-3,6-6.3,11.6c-3.5,5.8-5.8,9.4-7.1,10.8
		c-0.9,0.9-3,1.4-6.4,1.4c-2.8,0-4.6-0.1-5.4-0.3c-0.6-0.2-1.2-0.5-1.7-1c-1.9-1.8-4.7-6.3-8.6-13.4c-4.1,7.3-6.9,11.8-8.4,13.4
		c-0.8,0.8-2.9,1.3-6.4,1.3c-2.5,0-4.1-0.1-4.8-0.3c-1.6-0.5-4.4-4-8.3-10.6c-3.2-5.4-5.4-9.7-6.8-13c-0.8-2.1-1.3-5.6-1.3-10.6
		c0-6,0.2-9.7,0.5-11c0.2-0.8,0.8-1.3,1.7-1.3c1.5,0,3.7,0,6.7,0.1c3,0.1,5.2,0.1,6.7,0.1c0.7,0,1.1,0.5,1.1,1.6
		c0,0.9,0,2.4-0.1,4.3c-0.1,1.9-0.1,3.4-0.1,4.3c0,3.9,0.1,6.9,0.3,8.7c0.1,0.7,0.9,2.5,2.6,5.5c1.7,2.9,2.7,4.4,3.1,4.4
		c0.6,0,1.7-1.4,3.2-4.3c1.3-2.4,2.1-4.3,2.5-5.4c0.4-1.2,0.6-4.1,0.6-8.8c0-1-0.1-2.4-0.3-4.4c-0.2-1.9-0.3-3.4-0.3-4.3
		c0-1,0.4-1.5,1.1-1.5c0.9,0,2.7,0,5.4,0l2,0c0,0-0.1,0-0.2,0c-0.1,0-0.1,0-0.1,0h0.3h1.3c1.2,0,3,0,5.4,0.1
		c0.7,0.1,1.1,0.6,1.1,1.5c0,1.2-0.1,3.1-0.2,5.6c-0.2,2.5-0.2,4.4-0.2,5.6c0,3.3,0.1,5.4,0.4,6.3c0.4,1.1,1.1,2.9,2.3,5.3
		c1.5,2.9,2.5,4.4,3.1,4.4s1.7-1.5,3.3-4.4c1.5-2.8,2.3-4.7,2.4-5.6c0.1-1.2,0.2-7,0.2-17.3c0-1.1,0.3-1.7,1-1.7
		c1.5,0,3.8,0,6.8-0.1c3-0.1,5.3-0.1,6.8-0.1c0.9,0,1.4,0.5,1.7,1.4C190.4,729.3,190.6,732.9,190.6,738.9z"/>
	<path id="XMLID_60_" class="st1" d="M214.3,750.7c0,2.4,0,5.9,0.1,10.6c0.1,4.7,0.1,8.2,0.1,10.6c0,0.7-0.4,1.1-1.2,1.2
		c-1.1,0.2-3.6,0.3-7.5,0.3c-3.9,0-6.4-0.1-7.5-0.3c-0.7-0.1-1.2-0.3-1.3-0.6c-0.1-0.1-0.1-0.6-0.1-1.5c0-2.2,0-5.6,0.1-10.1
		c0.1-4.5,0.1-7.9,0.1-10.2c0-9.2-0.4-16.6-1.1-22.1c-0.1-0.5-0.1-0.9-0.1-1c0-0.7,0.4-1,1.3-1c0.9,0,2.3,0.1,4.2,0.3
		c1.9,0.2,3.3,0.3,4.2,0.3c0.9,0,2.4-0.1,4.2-0.2c1.9-0.2,3.3-0.2,4.2-0.2c0.8,0,1.2,0.3,1.2,1c0,0.1,0,0.4-0.1,0.9
		C214.6,735,214.3,742.3,214.3,750.7z M215.5,714.4c0,5.7-3.2,8.5-9.6,8.5c-2.7,0-5-0.7-6.8-2.1c-2-1.6-2.9-3.7-2.9-6.3
		c0-2.5,1-4.6,3-6.3c1.9-1.5,4.1-2.2,6.7-2.2c2.5,0,4.7,0.8,6.6,2.3C214.5,709.8,215.5,711.9,215.5,714.4z"/>
	<path id="XMLID_63_" class="st1" d="M256.4,758.8c0,1-0.1,2.5-0.4,4.4c-0.2,2-0.4,3.4-0.4,4.4s-0.1,1.5-0.3,1.8
		c-0.2,0.3-0.7,0.6-1.6,1.1c-4.2,2.3-8.9,3.5-14,3.5c-9.4,0-14.1-3.6-14.1-10.8c0-2.1,0.1-5.4,0.2-9.7c0.2-4.3,0.2-7.5,0.2-9.7
		c0-1.4-0.8-2.1-2.5-2.1c-0.1,0-0.3,0-0.6,0c-0.3,0-0.5,0-0.6,0c-1.2,0-1.9-0.4-1.9-1.3c0-0.5,0-1.3,0.1-2.4
		c0.1-1.1,0.1-1.9,0.1-2.4c0-0.7,0-1.7-0.1-3.1c-0.1-1.4-0.1-2.4-0.1-3.1c0-0.7,1-1,3.1-1.1c1.2,0,1.8-0.4,1.9-1
		c0.2-1.2,0.3-3.2,0.2-5.9c-0.1-4.2-0.2-6.2-0.2-6c0-3.8,0.4-5.7,1.1-5.7c0.9,0,2.1,0.2,3.8,0.6c1.9,0.4,3.1,0.7,3.9,0.7
		c1.7,0.2,4.2,0.5,7.5,0.9c0.8,0.1,1.2,0.3,1.2,0.8c0,1.3-0.1,3.3-0.3,5.9c-0.2,2.6-0.3,4.6-0.3,6c0,1.6,0.5,2.4,1.4,2.4
		c1.1,0,2.9,0,5.2-0.1c2.3-0.1,4.1-0.1,5.2-0.1c0.7,0,1.1,0.2,1.1,0.7c0,0.7-0.1,1.9-0.2,3.4c-0.2,1.5-0.2,2.6-0.2,3.4
		c0,0.8,0,1.9,0,3.4c0,1.5,0,2.6,0,3.4c0,0.7-0.5,1-1.4,1c-0.7,0-1.7,0-3.3-0.1c-1.5,0-2.6-0.1-3.3-0.1h-3.7c-0.5,0-0.7,0.7-0.7,2.1
		c0,0.8,0,1.9,0,3.5c0,1.6,0,2.7,0,3.5c0,2.7,0.3,4.6,0.9,5.7c0.9,1.4,2.6,2.1,5.2,2.1c0.8,0,2-0.2,3.5-0.6c1.5-0.4,2.6-0.6,3.2-0.6
		C256,757.7,256.4,758.1,256.4,758.8z"/>
	<path id="XMLID_65_" class="st1" d="M293.8,741c0,0-1-0.3-3-0.8c-1.9-0.5-3.5-0.8-4.7-0.8c-2.9,0-5.2,0.9-6.9,2.6
		c-1.7,1.7-2.6,4.1-2.6,7c0,3,0.9,5.3,2.8,7.1c1.9,1.7,4.3,2.6,7.4,2.6c1.4,0,3-0.4,4.8-1.1c1.8-0.7,2.6-1.1,2.5-1.1
		c0.6,0,1.3,2.1,2.1,6.2c0.7,3.8,1.1,6.3,1.1,7.5c0,1.2-2,2.3-6.1,3.2c-3.1,0.7-5.6,1-7.6,1c-7.2,0-13.1-2.4-17.7-7.2
		c-4.7-4.8-7-10.8-7-18c0-7.1,2.3-13.1,7-18c4.7-4.9,10.6-7.3,17.7-7.3c4.9,0,9.1,1,12.8,3.1c0.8,0.5,1.3,0.9,1.3,1.3
		c0,0.4-0.5,2.3-1.5,5.8c-0.9,3.3-1.5,5.3-1.8,6C294.4,740.6,294.1,741,293.8,741z"/>
	<path id="XMLID_67_" class="st1" d="M351.8,737.7l-0.1,33.7c0,1.1-0.5,1.8-1.4,1.9c-1,0.1-3.4,0.2-7.1,0.2c-3.6,0-6.1-0.1-7.5-0.4
		c-1.1-0.2-1.6-0.9-1.6-2.1c0-2.8,0-7,0.1-12.6c0.1-5.6,0.1-9.8,0.1-12.6c0-3.8-1.9-5.7-5.8-5.7c-1.3,0-2.8,0.5-4.6,1.6
		c-1.9,1.1-2.9,2.3-2.9,3.6v12.1c0,1.6,0,3.9,0.1,7.1c0.1,3.1,0.1,5.5,0.1,7.1c0,1.2-0.5,1.9-1.5,2c-1,0.1-3.8,0.2-8.5,0.2
		c-2.7,0-4.6-0.1-5.8-0.4c-1.2-0.3-1.8-0.8-1.8-1.7c0-2.6,0-6.4,0-11.6c0-5.2,0-9,0-11.6c0-10.6-0.1-19.4-0.3-26.4
		c-0.1-2.4-0.2-4.9-0.2-7.3c-0.2-2.8-0.5-5.3-0.9-7.3c-0.1-0.4-0.1-0.7-0.1-0.9c0-0.5,0.2-0.8,0.7-1c1-0.3,2.5-0.5,4.4-0.5
		c2.6-0.1,4.1-0.2,4.5-0.2l8.8-1c0.5,0,0.8,0.3,0.8,1c0,1-0.1,2.5-0.2,4.2c-0.1,2.1-0.2,3.5-0.2,4.2c-0.2,7.4-0.3,13.2-0.3,17.4
		c0,0.7,0.2,1,0.5,1c0.1,0,0.9-0.6,2.5-1.7c1.9-1.3,3.7-2.4,5.4-3.2c2.6-1.1,5.1-1.7,7.5-1.7c4.2,0,7.6,1.1,10.4,3.3
		C350.3,730.4,351.8,733.6,351.8,737.7z"/>
</g>
<rect id="XMLID_23_" x="442" y="249.1" class="st0" width="418.1" height="130.5"/>
<g id="XMLID_40_">
	<path id="XMLID_41_" class="st1" d="M553.9,327.4c0,1.4-0.3,4-0.8,7.7c-0.6,4.1-1.1,6.5-1.6,7.3c-0.4,0.6-0.9,0.9-1.6,0.9
		c-0.3,0-0.8,0-1.5-0.1c-2.4-0.3-9.3-0.5-20.8-0.5c-2.5,0-6.2,0-11.2,0c-4.9,0-8.7,0-11.1,0c-1.1,0-1.6-0.5-1.6-1.4
		c0-3.6,0.2-9.1,0.6-16.4c0.4-7.3,0.6-12.8,0.6-16.4c0-3.7-0.2-10.6-0.6-20.8c-0.1-2.6-0.3-6.5-0.5-11.7l0-0.7
		c-0.1-0.7,0.3-1.1,1.2-1.1c2.4,0,6,0.1,10.9,0.2c4.8,0.1,8.5,0.2,10.9,0.2c2.4,0,6-0.1,10.7-0.2c4.8-0.1,8.4-0.2,10.7-0.2
		c1.7,0,2.7,0.6,2.9,1.9c0.2,0.7,0.4,3,0.8,6.8c0.3,3.8,0.5,6.1,0.5,6.9c0,0.7-0.3,1-1,1c-0.2,0-0.5,0-1,0
		c-8.7-0.7-16.4-1.1-23.3-1.1c-1.7,0-2.8,0.4-3.2,1.2c-0.2,0.4-0.2,1.6-0.2,3.8c0,2.2,0.3,3.7,1,4.4c0.6,0.6,1.6,0.9,3.2,0.9
		c0.3,0,1,0,1.9-0.1c0.9,0,1.7-0.1,2.3-0.1c4.1,0,8.3-0.1,12.5-0.3c0.4,0,1.3-0.1,2.7-0.2c1.1-0.1,2-0.2,2.6-0.2
		c0.8,0,1.2,0.4,1.2,1.1c0-0.7-0.3,1.8-0.9,7.5c-0.3,2.6-0.4,5.2-0.4,7.8c0,0.7-0.5,1-1.4,1l-4.4-0.5c-1.9-0.2-6.1-0.3-12.7-0.3
		h-5.2c-1.3,0-2.1,0.3-2.3,1c0,0.2,0,1.2,0,3c0,2.5,0.2,4.1,0.5,4.8c0.6,1.2,2.6,2,6.3,2.2c-0.1,0,2.3,0,7.1,0
		c1.7,0,4.3-0.2,7.7-0.5c3.4-0.3,5.9-0.5,7.6-0.5C553.6,325.7,553.9,326.3,553.9,327.4z"/>
	<path id="XMLID_43_" class="st1" d="M603.2,341.3c0,0.7-0.5,1.2-1.6,1.3c-1.9,0.3-4,0.4-6.1,0.4c-2.3,0-4.2-0.1-5.7-0.4
		c-0.4-0.1-1-0.4-1.8-1c-1.6-2.3-4-5.7-7.3-10.2c-0.8,1-3.5,4.3-8,10.1c-0.4,0.6-1,1-1.8,1.1c-1.1,0.3-2.9,0.4-5.4,0.4
		c-5.1,0-7.7-0.6-7.7-1.7c0-0.9,0-2.4,0-4.3c0-1.9,0-3.4,0-4.4c0-0.6,0.3-1.2,0.9-1.8c2.5-2.6,6.3-6.6,11.2-12
		c-2.3-2.2-4.5-4.4-6.8-6.5c-3.6-3.5-5.4-5.6-5.4-6.3v-8.6c0-0.8,0.6-1.3,1.7-1.3c1.3,0,3.2,0,5.8,0.1s4.5,0.1,5.8,0.1
		c0.7,0,1.3,0.4,1.8,1.1c1.8,2.4,4.3,5.4,7.5,9c2.9-3.5,5.3-6.6,7-9c0.5-0.7,1.1-1,1.8-1c1.4,0,3.4-0.1,6.1-0.2
		c2.7-0.1,4.7-0.2,6.1-0.2c1.1,0,1.7,0.4,1.7,1.3v8.6c0,0.6-0.3,1.2-0.8,1.7c-2.5,2.5-6.1,6.3-11,11.4c2.5,2.6,6.1,6.5,11,11.8
		c0.6,0.6,0.8,1.2,0.8,1.8V341.3z"/>
	<path id="XMLID_45_" class="st1" d="M662.8,319.1c0,7-2.1,12.7-6.2,17.3c-4.2,4.8-9.8,7.1-16.7,7.1c-2.5,0-5.2-0.6-8.1-1.9
		c-2.9-1.2-4.2-1.9-3.9-1.9c-0.4,0-0.6,0.5-0.6,1.5c0,1.7,0.1,4.2,0.2,7.5c0.2,3.3,0.2,5.8,0.2,7.5c0,1-0.5,1.6-1.6,1.6l-10,0
		c-2.2,0-3.7-0.1-4.3-0.2c-1-0.2-1.5-0.8-1.5-1.8l0.1-37.6c0-7.6-0.6-14-1.7-19.2c-0.1-0.3-0.1-0.6-0.1-0.8c0-0.5,0.2-0.8,0.6-1
		c1.3-0.5,3.7-1,7.3-1.6c3.5-0.6,6-0.8,7.6-0.8c1.3,0,2,0.8,2.2,2.5c0.2,1.7,0.4,2.5,0.7,2.5c-0.3,0,1.1-0.9,4.2-2.7
		c3.1-1.8,5.9-2.7,8.5-2.7c7.1,0,12.7,2.3,16.9,7C660.8,306.1,662.8,311.9,662.8,319.1z M644.7,319c0-2.6-0.8-4.9-2.4-6.8
		c-1.7-2.1-3.9-3.1-6.4-3.1c-2.6,0-4.7,1-6.3,3.1c-1.4,1.9-2.1,4.1-2.1,6.8c0,2.8,0.7,5.1,2.1,6.9c1.5,2,3.6,3,6.3,3
		C641.9,328.9,644.7,325.6,644.7,319z"/>
	<path id="XMLID_48_" class="st1" d="M716.2,318.6c0,7.4-2.3,13.4-6.8,18.1c-4.5,4.6-10.5,6.9-17.9,6.9c-7.2,0-13.1-2.3-17.7-6.8
		c-4.6-4.6-6.9-10.4-6.9-17.6c0-7.6,2.2-13.7,6.6-18.4c4.4-4.7,10.4-7.1,18-7.1c7.4,0,13.3,2.3,17.9,6.9
		C713.9,305.3,716.2,311.2,716.2,318.6z M700.1,318.6c0-2.6-0.8-4.8-2.4-6.8c-1.6-2-3.7-3-6.2-3c-2.6,0-4.7,1-6.3,3
		c-1.6,1.9-2.3,4.1-2.3,6.7c0,2.6,0.8,4.9,2.3,6.8c1.7,2,3.8,3,6.3,3c2.5,0,4.6-1,6.3-3C699.4,323.5,700.1,321.2,700.1,318.6z"/>
	<path id="XMLID_51_" class="st1" d="M754.4,312.2c0,1.3-0.7,1.9-2.1,1.9c-0.6,0-1.5,0-2.7-0.1c-1.2-0.1-2.1-0.1-2.7-0.1
		c-2.7,0-4.5,0.4-5.5,1.3c-1,0.8-1.5,2.6-1.5,5.1c0,1.4,0,3.5,0.1,6.4c0,2.8,0.1,5,0.1,6.4c0,0.9,0.1,2.4,0.2,4.2
		c0.1,1.9,0.2,3.3,0.2,4.2c0,0.8-0.5,1.2-1.6,1.3c-1.6,0.1-4,0.2-7.2,0.2c-3.1,0-5.6-0.1-7.4-0.3c-1.1-0.1-1.6-0.7-1.6-1.6
		c0-2.6,0-6.5,0-11.7c0-5.2,0-9.1,0-11.7c0-7.6-0.7-13.9-2.1-18.9c-0.1-0.3-0.1-0.5-0.1-0.7c0-0.5,0.2-0.8,0.7-1
		c1.8-0.2,4.4-0.6,7.9-1.1c5.1-1,7.8-1.5,8-1.5c0.6,0,1,1,1.1,3.1c0.2,2.1,0.5,3.1,0.9,3.1c-0.5,0,0.9-0.9,4-2.6s6.1-2.6,9-2.6
		c1.8,0,2.7,0.4,2.7,1.2c0,0.9-0.1,2.3-0.3,4c-0.2,1.9-0.3,3.2-0.3,4c0,0.9,0,2.2,0,3.8C754.4,310.3,754.4,311.6,754.4,312.2z"/>
	<path id="XMLID_53_" class="st1" d="M792.8,328.3c0,1-0.1,2.5-0.4,4.4c-0.2,2-0.4,3.4-0.4,4.4s-0.1,1.5-0.3,1.8
		c-0.2,0.3-0.7,0.6-1.6,1.1c-4.2,2.3-8.9,3.5-14,3.5c-9.4,0-14.1-3.6-14.1-10.8c0-2.1,0.1-5.4,0.2-9.7c0.2-4.3,0.2-7.5,0.2-9.7
		c0-1.4-0.8-2.1-2.5-2.1c-0.1,0-0.3,0-0.6,0c-0.3,0-0.5,0-0.6,0c-1.2,0-1.9-0.4-1.9-1.3c0-0.5,0-1.3,0.1-2.4
		c0.1-1.1,0.1-1.9,0.1-2.4c0-0.7,0-1.7-0.1-3.1c-0.1-1.4-0.1-2.4-0.1-3.1c0-0.7,1-1,3.1-1.1c1.2,0,1.8-0.4,1.9-1
		c0.2-1.2,0.3-3.2,0.2-5.9c-0.1-4.2-0.2-6.2-0.2-6c0-3.8,0.4-5.7,1.1-5.7c0.9,0,2.1,0.2,3.8,0.6c1.9,0.4,3.1,0.7,3.9,0.7
		c1.7,0.2,4.2,0.5,7.5,0.9c0.8,0.1,1.2,0.3,1.2,0.8c0,1.3-0.1,3.3-0.3,5.9c-0.2,2.6-0.3,4.6-0.3,6c0,1.6,0.5,2.4,1.4,2.4
		c1.1,0,2.9,0,5.2-0.1c2.3-0.1,4.1-0.1,5.2-0.1c0.7,0,1.1,0.2,1.1,0.7c0,0.7-0.1,1.9-0.2,3.4c-0.2,1.5-0.2,2.6-0.2,3.4
		c0,0.8,0,1.9,0,3.4c0,1.5,0,2.6,0,3.4c0,0.7-0.5,1-1.4,1c-0.7,0-1.7,0-3.3-0.1c-1.5,0-2.6-0.1-3.3-0.1h-3.7c-0.5,0-0.7,0.7-0.7,2.1
		c0,0.8,0,1.9,0,3.5c0,1.6,0,2.7,0,3.5c0,2.7,0.3,4.6,0.9,5.7c0.9,1.4,2.6,2.1,5.2,2.1c0.8,0,2-0.2,3.5-0.6c1.5-0.4,2.6-0.6,3.2-0.6
		C792.5,327.2,792.8,327.6,792.8,328.3z"/>
</g>
<rect id="XMLID_13_" x="1253.1" y="594.1" class="st0" width="332.5" height="161"/>
<g id="XMLID_2_">
	<path id="XMLID_3_" class="st1" d="M1293.1,670c0,3.8,0.1,9.6,0.3,17.3s0.3,13.5,0.3,17.3c0,0.7-0.1,1.1-0.4,1.2
		c-0.1,0-0.5,0.1-1.3,0.2c-2.1,0.3-4.9,0.4-8.5,0.4c-4.8,0-7.8-0.1-9.1-0.4c-0.9-0.2-1.4-0.7-1.4-1.5c0,0.5,0.1-2.3,0.4-8.6
		c0.6-13.2,0.9-21.8,0.9-26c0-3.5-0.1-8.7-0.3-15.7c-0.2-7-0.3-12.2-0.3-15.7c0-0.7,0.4-1.1,1.1-1.1c1,0,2.5,0,4.6,0.1
		s3.6,0.1,4.6,0.1s2.5,0,4.5-0.1s3.5-0.1,4.5-0.1c0.9,0,1.4,0.4,1.4,1.1c0,3.5-0.2,8.7-0.6,15.7
		C1293.3,661.3,1293.1,666.5,1293.1,670z"/>
	<path id="XMLID_28_" class="st1" d="M1380.8,704.3c0,1.1-0.5,1.8-1.5,1.9s-3.4,0.2-7.2,0.2c-4,0-6.4-0.1-7.4-0.3s-1.5-1-1.5-2.4
		c0-1.5,0-3.7,0.1-6.7s0.1-5.2,0.1-6.7c0-5.7-0.1-9.7-0.2-12.2c-0.2-3.9-2-5.8-5.5-5.8c-1.5,0-3.1,0.6-4.6,1.9
		c-1.5,1.3-2.4,2.7-2.5,4.3c-0.1,1.4-0.2,5.4-0.2,12c0,1.5,0,3.8,0.1,7c0.1,3.1,0.1,5.4,0.1,7c0,1.1-0.5,1.6-1.4,1.6h-14.8
		c-0.9,0-1.4-0.7-1.4-2c0-1.5,0-3.8,0.1-6.9c0.1-3.1,0.1-5.4,0.1-6.9c0-1.2,0-3-0.1-5.5s-0.1-4.3-0.1-5.5c0-4.7-1.8-7-5.3-7
		c-1.4,0-3,0.6-4.6,1.7c-1.8,1.2-2.7,2.5-2.7,3.8c0,3,0,7.4,0,13.3c0,5.9,0,10.3,0,13.2c0,0.8-0.1,1.3-0.3,1.5s-0.7,0.3-1.5,0.4
		c-1.5,0.1-3.8,0.2-6.9,0.2c-2.1,0-4.4-0.1-7-0.3c-0.8-0.1-1.2-0.2-1.4-0.3c-0.1-0.2-0.2-0.7-0.2-1.5c0-2.6,0-6.5,0-11.7
		c0-5.2,0-9.1,0-11.7c0-5.3-0.4-11.3-1.2-18c-0.1-0.4-0.1-0.7-0.1-0.9c0-0.6,0.2-0.9,0.7-1.1c0.7-0.3,2.1-0.5,4.1-0.7
		c2.4-0.2,3.9-0.4,4.3-0.4c0.3-0.1,1.6-0.4,3.9-1c1.6-0.5,2.9-0.7,3.9-0.7c0.6,0,0.9,1.1,1,3.4c0,2.3,0.2,3.4,0.4,3.4
		c0.3-0.1,0.7-0.4,1.1-0.7c2.9-2.3,5.2-3.8,6.9-4.7c2.5-1.2,5.2-1.8,8.2-1.8c3,0,5.7,0.7,8,2c2.6,1.5,4.3,3.6,5.1,6.3
		c1.7-2.3,4.1-4.3,7.1-5.9c3-1.6,6-2.4,8.8-2.4c4.3,0,7.8,1,10.5,3c3.1,2.2,4.6,5.5,4.6,9.6c0,1.7,0,4.3-0.1,7.8s-0.1,6.1-0.1,7.8
		c0,2.1,0,5.1,0.1,9.3C1380.7,699.2,1380.8,702.2,1380.8,704.3z"/>
	<path id="XMLID_30_" class="st1" d="M1443.9,682.6c0,7-2.1,12.7-6.2,17.3c-4.2,4.8-9.8,7.1-16.7,7.1c-2.5,0-5.2-0.6-8.1-1.9
		c-2.9-1.2-4.2-1.9-3.9-1.9c-0.4,0-0.6,0.5-0.6,1.5c0,1.7,0.1,4.2,0.2,7.5s0.2,5.8,0.2,7.5c0,1-0.5,1.6-1.6,1.6l-10,0
		c-2.2,0-3.7-0.1-4.3-0.2c-1-0.2-1.5-0.8-1.5-1.8l0.1-37.6c0-7.6-0.6-14-1.7-19.2c-0.1-0.3-0.1-0.6-0.1-0.8c0-0.5,0.2-0.8,0.6-1
		c1.3-0.5,3.7-1,7.3-1.6c3.5-0.6,6-0.8,7.6-0.8c1.3,0,2,0.8,2.2,2.5c0.2,1.7,0.4,2.5,0.7,2.5c-0.3,0,1.1-0.9,4.2-2.7
		c3.1-1.8,5.9-2.7,8.5-2.7c7.1,0,12.7,2.3,16.9,7C1441.9,669.6,1443.9,675.4,1443.9,682.6z M1425.8,682.5c0-2.6-0.8-4.9-2.4-6.8
		c-1.7-2.1-3.9-3.1-6.4-3.1c-2.6,0-4.7,1-6.3,3.1c-1.4,1.9-2.1,4.1-2.1,6.8c0,2.8,0.7,5.1,2.1,6.9c1.5,2,3.6,3,6.3,3
		C1422.9,692.4,1425.8,689.1,1425.8,682.5z"/>
	<path id="XMLID_33_" class="st1" d="M1497.2,682.1c0,7.4-2.3,13.4-6.8,18.1c-4.5,4.6-10.5,6.9-17.9,6.9c-7.2,0-13.1-2.3-17.7-6.8
		c-4.6-4.6-6.9-10.4-6.9-17.6c0-7.6,2.2-13.7,6.6-18.4c4.4-4.7,10.4-7.1,18-7.1c7.4,0,13.3,2.3,17.9,6.9
		C1495,668.7,1497.2,674.7,1497.2,682.1z M1481.2,682.1c0-2.6-0.8-4.8-2.4-6.8c-1.6-2-3.7-3-6.2-3c-2.6,0-4.7,1-6.3,3
		c-1.6,1.9-2.3,4.1-2.3,6.7c0,2.6,0.8,4.9,2.3,6.8c1.7,2,3.8,3,6.3,3c2.5,0,4.6-1,6.3-3C1480.5,687,1481.2,684.7,1481.2,682.1z"/>
	<path id="XMLID_36_" class="st1" d="M1535.5,675.7c0,1.3-0.7,1.9-2.1,1.9c-0.6,0-1.5,0-2.7-0.1c-1.2-0.1-2.1-0.1-2.7-0.1
		c-2.7,0-4.5,0.4-5.5,1.3c-1,0.8-1.5,2.6-1.5,5.1c0,1.4,0,3.5,0.1,6.4c0,2.8,0.1,5,0.1,6.4c0,0.9,0.1,2.4,0.2,4.2
		c0.1,1.9,0.2,3.3,0.2,4.2c0,0.8-0.5,1.2-1.6,1.3c-1.6,0.1-4,0.2-7.2,0.2c-3.1,0-5.6-0.1-7.4-0.3c-1.1-0.1-1.6-0.7-1.6-1.6
		c0-2.6,0-6.5,0-11.7c0-5.2,0-9.1,0-11.7c0-7.6-0.7-13.9-2.1-18.9c-0.1-0.3-0.1-0.5-0.1-0.7c0-0.5,0.2-0.8,0.7-1
		c1.8-0.2,4.4-0.6,7.9-1.1c5.1-1,7.8-1.5,8-1.5c0.6,0,1,1,1.1,3.1s0.5,3.1,0.9,3.1c-0.5,0,0.9-0.9,4-2.6s6.1-2.6,9-2.6
		c1.8,0,2.7,0.4,2.7,1.2c0,0.9-0.1,2.3-0.3,4c-0.2,1.9-0.3,3.2-0.3,4c0,0.9,0,2.2,0,3.8C1535.5,673.8,1535.5,675.1,1535.5,675.7z"/>
	<path id="XMLID_38_" class="st1" d="M1573.9,691.8c0,1-0.1,2.5-0.4,4.4c-0.2,2-0.4,3.4-0.4,4.4s-0.1,1.5-0.3,1.8
		c-0.2,0.3-0.7,0.6-1.6,1.1c-4.2,2.3-8.9,3.5-14,3.5c-9.4,0-14.1-3.6-14.1-10.8c0-2.1,0.1-5.4,0.2-9.7c0.2-4.3,0.2-7.5,0.2-9.7
		c0-1.4-0.8-2.1-2.5-2.1c-0.1,0-0.3,0-0.6,0c-0.3,0-0.5,0-0.6,0c-1.2,0-1.9-0.4-1.9-1.3c0-0.5,0-1.3,0.1-2.4s0.1-1.9,0.1-2.4
		c0-0.7,0-1.7-0.1-3.1c-0.1-1.4-0.1-2.4-0.1-3.1c0-0.7,1-1,3.1-1.1c1.2,0,1.8-0.4,1.9-1c0.2-1.2,0.3-3.2,0.2-5.9
		c-0.1-4.2-0.2-6.2-0.2-6c0-3.8,0.4-5.7,1.1-5.7c0.9,0,2.1,0.2,3.8,0.6c1.9,0.4,3.1,0.7,3.9,0.7c1.7,0.2,4.2,0.5,7.5,0.9
		c0.8,0.1,1.2,0.3,1.2,0.8c0,1.3-0.1,3.3-0.3,5.9s-0.3,4.6-0.3,6c0,1.6,0.5,2.4,1.4,2.4c1.1,0,2.9,0,5.2-0.1s4.1-0.1,5.2-0.1
		c0.7,0,1.1,0.2,1.1,0.7c0,0.7-0.1,1.9-0.2,3.4c-0.2,1.5-0.2,2.6-0.2,3.4c0,0.8,0,1.9,0,3.4c0,1.5,0,2.6,0,3.4c0,0.7-0.5,1-1.4,1
		c-0.7,0-1.7,0-3.3-0.1s-2.6-0.1-3.3-0.1h-3.7c-0.5,0-0.7,0.7-0.7,2.1c0,0.8,0,1.9,0,3.5c0,1.6,0,2.7,0,3.5c0,2.7,0.3,4.6,0.9,5.7
		c0.9,1.4,2.6,2.1,5.2,2.1c0.8,0,2-0.2,3.5-0.6c1.5-0.4,2.6-0.6,3.2-0.6C1573.6,690.7,1573.9,691.1,1573.9,691.8z"/>
</g>
</svg>
