<?xml version="1.0" encoding="utf-8"?>
<!-- Generator: Adobe Illustrator 19.0.0, SVG Export Plug-In . SVG Version: 6.00 Build 0)  -->
<svg version="1.1" id="Layer_1" xmlns="http://www.w3.org/2000/svg" xmlns:xlink="http://www.w3.org/1999/xlink" x="0px" y="0px"
	 viewBox="0 0 1600 850" style="enable-background:new 0 0 1600 850;" xml:space="preserve">
<style type="text/css">
	.st0{fill:#E02E2C;}
	.st1{fill:#FFFFFF;}
</style>
<rect id="XMLID_6_" x="231.6" y="36.6" class="st0" width="414" height="145.5"/>
<rect id="XMLID_11_" x="1115.1" y="470.1" class="st0" width="120" height="126"/>
<rect id="XMLID_4_" x="1172.6" y="132.6" class="st0" width="332.5" height="161"/>
<rect id="XMLID_9_" x="16.5" y="666.6" class="st0" width="864.6" height="130.5"/>
<rect id="XMLID_18_" x="1221.1" y="659.6" class="st0" width="296" height="146.5"/>
<rect id="XMLID_23_" x="641.5" y="294.1" class="st0" width="418.1" height="130.5"/>
<rect id="XMLID_13_" x="153.6" y="345.1" class="st0" width="271" height="161"/>
<g id="XMLID_108_">
	<path id="XMLID_109_" class="st1" d="M331.9,80.5c0,0.7-0.4,1-1.1,1c-1.2,0-6.1-0.2-14.7-0.7c-0.2,8.2-0.3,14-0.3,17.2
		c0,3.8,0.2,9.6,0.5,17.3c0.3,7.7,0.5,13.5,0.5,17.3c0,0.6-0.1,1-0.4,1.2c-0.1,0.1-0.6,0.1-1.4,0.2c-2,0.3-4.8,0.4-8.6,0.4
		c-4.2,0-7.1-0.1-8.8-0.4c-0.9-0.2-1.4-0.7-1.4-1.5c0-3.8,0.2-9.6,0.5-17.3c0.3-7.7,0.5-13.4,0.5-17.3c0-2.5-0.1-8.2-0.4-17
		c-6.5,0.7-11.7,1-15.6,1c-0.5,0-0.8-0.2-0.8-0.5c0-0.4,0.2-1.7,0.7-3.8c0.5-2.3,0.8-3.7,0.9-4.2c0.1-1.5,0.2-3.1,0.3-4.6
		c0.2-2.4,0.6-3.7,1.2-3.7c0.1,0,0.3,0,0.7,0c5.3,0.7,13.1,1,23.4,1c2.9,0,8.3-0.3,16.2-0.9c4.2-0.3,6.4-0.5,6.4-0.5
		c0.7,0,1,0,1.1,0.1c0.1,0.1,0.2,0.4,0.2,1c0,0.9,0,2.1-0.1,3.7c-0.1,1.7-0.1,2.9-0.1,3.7c0,0.8,0.1,2,0.3,3.6
		C331.8,78.6,331.9,79.8,331.9,80.5z"/>
	<path id="XMLID_111_" class="st1" d="M381.5,107.6c0,3.3-1.1,5.2-3.2,5.6c-0.4,0.1-3.7,0.4-10.1,1.1c-3.8,0.4-9.6,0.9-17.2,1.5
		c0.5,2.1,1.8,3.7,4.2,4.8c1.9,0.9,4,1.4,6.4,1.4c2.9,0,5.8-0.8,8.7-2.3c1.2-0.8,2.5-1.6,3.7-2.3c0.7,0.3,1.8,2,3.4,5
		c1.6,3,2.4,4.9,2.4,5.7c0,0.2-0.2,0.6-0.7,1.1c-4,4.3-10.1,6.4-18.5,6.4c-7.7,0-14-2.3-18.8-6.8c-4.9-4.6-7.3-10.7-7.3-18.4
		c0-7.5,2.2-13.6,6.5-18.4c4.5-4.9,10.4-7.4,17.9-7.4c6.3,0,11.6,2.3,15.9,6.8C379.3,95.9,381.5,101.3,381.5,107.6z M364.4,104.6
		c0-2-0.7-3.8-2.1-5.3c-1.4-1.5-3.1-2.3-5.1-2.3c-2.1,0-3.7,0.9-5.1,2.6c-1.2,1.6-1.9,3.5-1.9,5.6c0,0.9,0.5,1.3,1.4,1.3
		c2.4,0,6.2-0.4,11.2-1.1C363.9,105.2,364.4,105,364.4,104.6z"/>
	<path id="XMLID_114_" class="st1" d="M415.4,94.6c0,0.3-0.2,0.8-0.7,1.3c-0.9-0.2-1.8-0.3-2.7-0.3c-1.9,0-3.5,0.4-4.8,1.3
		c-1.6,1-2.3,2.4-2.3,4.2c0,1.1,0.8,2.6,2.5,4.3c2.5,2.6,4.1,4.4,4.6,5.3c1.7,2.5,2.5,5.1,2.5,8c0,1.7-0.3,3.4-1,5.3
		c-0.7,2.1-1.7,3.5-2.8,4.5c-2.4,2.1-5.2,3.8-8.4,5.3c-3.5,1.5-6.7,2.2-9.6,2.2c-0.7,0-2.1-1.8-4.4-5.3c-2.3-3.5-3.4-5.7-3.4-6.5
		c0-0.3,0.2-0.5,0.5-0.5c2.3-0.4,4.6-0.8,6.9-1.3c2.9-0.9,4.3-2.4,4.3-4.5c0-1.4-0.8-3.1-2.5-5c-3-3.3-4.5-5-4.6-5.2
		c-1.7-2.3-2.5-4.8-2.5-7.4c0-4.9,2.5-9,7.4-12.5c4.4-3,9.2-4.5,14.2-4.5c0.5,0,1.8,1.8,3.9,5.2C414.4,92,415.4,94,415.4,94.6z"/>
	<path id="XMLID_116_" class="st1" d="M455.1,119.8c0,1-0.1,2.5-0.4,4.4c-0.2,2-0.4,3.4-0.4,4.4s-0.1,1.5-0.3,1.8
		c-0.2,0.3-0.7,0.6-1.6,1.1c-4.2,2.3-8.9,3.5-14,3.5c-9.4,0-14.1-3.6-14.1-10.8c0-2.1,0.1-5.4,0.2-9.7c0.2-4.3,0.2-7.5,0.2-9.7
		c0-1.4-0.8-2.1-2.5-2.1c-0.1,0-0.3,0-0.6,0c-0.3,0-0.5,0-0.6,0c-1.2,0-1.9-0.4-1.9-1.3c0-0.5,0-1.3,0.1-2.4
		c0.1-1.1,0.1-1.9,0.1-2.4c0-0.7,0-1.7-0.1-3.1c-0.1-1.4-0.1-2.4-0.1-3.1c0-0.7,1-1,3.1-1.1c1.2,0,1.8-0.4,1.9-1
		c0.2-1.2,0.3-3.2,0.2-5.9c-0.1-4.2-0.2-6.2-0.2-6c0-3.8,0.4-5.7,1.1-5.7c0.9,0,2.1,0.2,3.8,0.6c1.9,0.4,3.1,0.7,3.9,0.7
		c1.7,0.2,4.2,0.5,7.5,0.9c0.8,0.1,1.2,0.3,1.2,0.8c0,1.3-0.1,3.3-0.3,5.9c-0.2,2.6-0.3,4.6-0.3,6c0,1.6,0.5,2.4,1.4,2.4
		c1.1,0,2.9,0,5.2-0.1c2.3-0.1,4.1-0.1,5.2-0.1c0.7,0,1.1,0.2,1.1,0.7c0,0.7-0.1,1.9-0.2,3.4c-0.2,1.5-0.2,2.6-0.2,3.4
		c0,0.8,0,1.9,0,3.4c0,1.5,0,2.6,0,3.4c0,0.7-0.5,1-1.4,1c-0.7,0-1.7,0-3.3-0.1c-1.5,0-2.6-0.1-3.3-0.1H442c-0.5,0-0.7,0.7-0.7,2.1
		c0,0.8,0,1.9,0,3.5c0,1.6,0,2.7,0,3.5c0,2.7,0.3,4.6,0.9,5.7c0.9,1.4,2.6,2.1,5.2,2.1c0.8,0,2-0.2,3.5-0.6c1.5-0.4,2.6-0.6,3.2-0.6
		C454.8,118.7,455.1,119.1,455.1,119.8z"/>
	<path id="XMLID_118_" class="st1" d="M478.3,111.7c0,2.4,0,5.9,0.1,10.6c0.1,4.7,0.1,8.2,0.1,10.6c0,0.7-0.4,1.1-1.2,1.2
		c-1.1,0.2-3.6,0.3-7.5,0.3c-3.9,0-6.4-0.1-7.5-0.3c-0.7-0.1-1.2-0.3-1.3-0.6c-0.1-0.1-0.1-0.6-0.1-1.5c0-2.2,0-5.6,0.1-10.1
		c0.1-4.5,0.1-7.9,0.1-10.2c0-9.2-0.4-16.6-1.1-22.1c-0.1-0.5-0.1-0.9-0.1-1c0-0.7,0.4-1,1.3-1c0.9,0,2.3,0.1,4.2,0.3
		c1.9,0.2,3.3,0.3,4.2,0.3c0.9,0,2.4-0.1,4.2-0.2c1.9-0.2,3.3-0.2,4.2-0.2c0.8,0,1.2,0.3,1.2,1c0,0.1,0,0.4-0.1,0.9
		C478.7,96,478.3,103.3,478.3,111.7z M479.6,75.4c0,5.7-3.2,8.5-9.6,8.5c-2.7,0-5-0.7-6.8-2.1c-2-1.6-2.9-3.7-2.9-6.3
		c0-2.5,1-4.6,3-6.3c1.9-1.5,4.1-2.2,6.7-2.2c2.5,0,4.7,0.8,6.6,2.3C478.6,70.8,479.6,72.9,479.6,75.4z"/>
	<path id="XMLID_121_" class="st1" d="M536.3,132.7c0,0.9-0.5,1.4-1.4,1.5c-0.9,0.1-3.3,0.2-7.1,0.2c-4.1,0-6.6-0.1-7.6-0.3
		s-1.5-0.9-1.5-2c0-1.5,0-3.8,0.1-6.9c0.1-3.1,0.1-5.4,0.1-7c0-1.2,0-3-0.1-5.4c-0.1-2.4-0.1-4.2-0.1-5.4c0-4.5-1.9-6.7-5.8-6.7
		c-1.3,0-2.8,0.6-4.4,1.7c-1.8,1.2-2.7,2.5-2.7,3.7v26.4c0,1.1-0.5,1.7-1.5,1.8c-1.1,0.1-3.5,0.2-7,0.2c-3.8,0-6.3-0.1-7.4-0.3
		c-1-0.2-1.5-0.7-1.5-1.6c0-2.5,0-6.4,0-11.5c0-5.1,0-9,0-11.5c0-8.1-0.6-14.5-1.9-19.1c-0.1-0.3-0.1-0.5-0.1-0.7
		c0-0.5,0.2-0.9,0.7-1.1c2.1-0.2,4.8-0.6,8.2-1.1c5.2-1,8.1-1.5,8.7-1.5c0.4,0,0.6,1.1,0.8,3.3s0.5,3.3,0.8,3.3
		c-0.4,0,1.4-1.1,5.2-3.4c3.9-2.3,7.2-3.4,10.1-3.4c4.1,0,7.6,1,10.4,2.9c3.1,2.2,4.6,5.4,4.6,9.4v15.6c0,2.1,0,5.3,0,9.5
		C536.3,127.4,536.3,130.6,536.3,132.7z"/>
	<path id="XMLID_123_" class="st1" d="M593.1,121.4c0,9.3-2,15.9-5.9,20c-4,4.1-10.7,6.2-20.1,6.2c-2.7,0-6.5-0.4-11.2-1.3
		c-6-1.1-9-2.4-9-3.9c0-0.6,0.7-3.8,2.1-9.6c0.2-0.9,0.6-1.4,1.1-1.4c0.2,0,0.3,0.1,0.5,0.2c5,2.5,9.7,3.7,13.9,3.7
		c2.3,0,4.7-0.6,7-1.8c2.8-1.4,4.2-3.2,4.2-5.3V125c-3.3,3.1-7.6,4.7-12.8,4.7c-6.1,0-11.1-2.2-15.1-6.6c-3.8-4.2-5.7-9.4-5.7-15.6
		c0-6.2,1.8-11.4,5.5-15.5c3.8-4.3,8.8-6.4,14.9-6.4c4.9,0,8.7,1.8,11.3,5.3c0.5,0.7,0.9,1.1,1.1,1.1c0.3,0,0.4-0.6,0.4-1.8
		c0-2.6,0.3-3.9,0.9-3.9c0.5,0,3.3,0.3,8.4,0.8c5.1,0.5,7.8,0.8,8,0.9c0.6,0.2,0.8,0.6,0.8,1.3c0,2.2-0.1,5.6-0.2,10.1
		c-0.1,4.5-0.2,7.8-0.2,10.1c0,1.3,0,3.3,0,6C593.1,118.1,593.1,120.1,593.1,121.4z M576.2,107.9c0-2.4-0.8-4.4-2.4-6.2
		c-1.6-1.7-3.6-2.6-5.9-2.6c-2.4,0-4.4,0.9-5.9,2.7c-1.6,1.8-2.4,3.8-2.4,6.2c0,2.4,0.8,4.4,2.4,6.2c1.6,1.7,3.6,2.6,5.9,2.6
		c2.4,0,4.4-0.9,5.9-2.6C575.4,112.3,576.2,110.3,576.2,107.9z"/>
</g>
<g id="XMLID_75_">
	<path id="XMLID_76_" class="st1" d="M180.8,756.4c-2.8,0-6.4-0.1-10.9-0.2c-5.9-0.1-9.5-0.2-10.9-0.2l-14.6-0.2
		c-1.5,0-3.6,0-6.3-0.2c-0.9-0.2-1.4-0.7-1.4-1.5c0-3.5,0.1-8.9,0.2-15.9c0.1-7.1,0.2-12.4,0.2-15.9c0-3.8-0.1-9.4-0.3-17
		c-0.2-7.5-0.3-13.2-0.3-17c0-0.7,0.5-1.1,1.5-1.1s2.4,0,4.4,0.1c1.9,0.1,3.4,0.1,4.3,0.1c1.1,0,2.7-0.1,4.8-0.2
		c2.1-0.1,3.7-0.2,4.8-0.2c0.5,0,0.7,0.3,0.7,0.9l0,0.6c-0.4,6.1-0.8,15.3-1.3,27.6l0,12.9c0,4.2,0,7.2,0,9.1c0,0.4,0.1,0.8,0.1,1.2
		c0,0.4,0.3,0.6,0.7,0.7c0,0,0.5,0,1.3,0c2.9,0,7.3-0.2,13.2-0.5c5.8-0.3,10.2-0.5,13.2-0.5c0.9,0,1.3,0.4,1.3,1.1
		c0,5.6-0.4,10.4-1.2,14.4c-0.2,0.8-0.5,1.4-1,1.5C182.7,756.4,182,756.4,180.8,756.4z"/>
	<path id="XMLID_78_" class="st1" d="M235,729.1c0,3.3-1.1,5.2-3.2,5.6c-0.4,0.1-3.7,0.4-10.1,1.1c-3.8,0.4-9.6,0.9-17.2,1.5
		c0.5,2.1,1.8,3.7,4.2,4.8c1.9,0.9,4,1.4,6.4,1.4c2.9,0,5.8-0.8,8.7-2.3c1.2-0.8,2.5-1.6,3.7-2.3c0.7,0.3,1.8,2,3.4,5
		c1.6,3,2.4,4.9,2.4,5.7c0,0.2-0.2,0.6-0.7,1.1c-4,4.3-10.1,6.4-18.5,6.4c-7.7,0-14-2.3-18.8-6.8c-4.9-4.6-7.3-10.7-7.3-18.4
		c0-7.5,2.2-13.6,6.5-18.4c4.5-4.9,10.4-7.4,17.9-7.4c6.3,0,11.6,2.3,15.9,6.8C232.8,717.4,235,722.8,235,729.1z M217.9,726.1
		c0-2-0.7-3.8-2.1-5.3c-1.4-1.5-3.1-2.3-5.1-2.3c-2.1,0-3.7,0.9-5.1,2.6c-1.2,1.6-1.9,3.5-1.9,5.6c0,0.9,0.5,1.3,1.4,1.3
		c2.4,0,6.2-0.4,11.2-1.1C217.4,726.7,217.9,726.5,217.9,726.1z"/>
	<path id="XMLID_81_" class="st1" d="M287.4,721.7c0,5.6-0.2,8.9-0.5,9.9c-0.7,2.3-3,6.2-6.7,11.8c-3.3,4.8-6,8.5-8.3,11.1
		c-0.8,1-3.4,1.5-7.7,1.5c-3.7,0-6.1-0.1-7.2-0.4c-0.7-0.2-1.3-0.5-1.7-1c-2-2.1-4.7-5.8-8.3-11c-3.9-5.6-6.2-9.5-6.9-11.6
		c-0.8-2.2-1.2-5.6-1.2-10.1c0-1.3,0-3.2,0-5.7c0-2.6,0-4.5,0-5.8c0-0.8,0.6-1.3,1.7-1.3c1.7,0,4.2,0,7.5,0.1
		c3.3,0.1,5.8,0.1,7.5,0.1c0.7,0,1.1,0.5,1.1,1.5c0,0.9-0.1,2.3-0.2,4.1c-0.1,1.8-0.2,3.2-0.2,4.2c0,3.4,0.1,6.2,0.3,8.3
		c0.1,1.1,1,3.2,2.8,6.3c1.9,3.2,3.2,4.8,4.1,4.8c0.8,0,2.1-1.6,3.9-4.7c1.7-3,2.7-5,2.8-6.1c0.3-2.3,0.4-5.1,0.4-8.4
		c0-0.9-0.1-2.4-0.3-4.3s-0.3-3.3-0.3-4.2c0-1,0.3-1.5,1-1.5c0.8,0,1.9,0,3.5,0c1.5,0,2.7,0,3.5,0s2-0.1,3.5-0.2
		c1.6-0.1,2.8-0.2,3.5-0.2c0.8,0,1.4,0.4,1.6,1.3C287.1,712.2,287.4,716,287.4,721.7z"/>
	<path id="XMLID_83_" class="st1" d="M338.7,729.1c0,3.3-1.1,5.2-3.2,5.6c-0.4,0.1-3.7,0.4-10.1,1.1c-3.8,0.4-9.6,0.9-17.2,1.5
		c0.5,2.1,1.8,3.7,4.2,4.8c1.9,0.9,4,1.4,6.4,1.4c2.9,0,5.8-0.8,8.7-2.3c1.2-0.8,2.5-1.6,3.7-2.3c0.7,0.3,1.8,2,3.4,5
		c1.6,3,2.4,4.9,2.4,5.7c0,0.2-0.2,0.6-0.7,1.1c-4,4.3-10.1,6.4-18.5,6.4c-7.7,0-14-2.3-18.8-6.8c-4.9-4.6-7.3-10.7-7.3-18.4
		c0-7.5,2.2-13.6,6.5-18.4c4.5-4.9,10.4-7.4,17.9-7.4c6.3,0,11.6,2.3,15.9,6.8C336.6,717.4,338.7,722.8,338.7,729.1z M321.6,726.1
		c0-2-0.7-3.8-2.1-5.3c-1.4-1.5-3.1-2.3-5.1-2.3c-2.1,0-3.7,0.9-5.1,2.6c-1.2,1.6-1.9,3.5-1.9,5.6c0,0.9,0.5,1.3,1.4,1.3
		c2.4,0,6.2-0.4,11.2-1.1C321.1,726.7,321.6,726.5,321.6,726.1z"/>
	<path id="XMLID_86_" class="st1" d="M361.9,726.2c0,8.9,0,15.7,0.1,20.5c0,0.7,0,2,0.1,3.9c0.1,1.7,0.1,2.9,0.1,3.9
		c0,0.7-0.4,1.1-1.2,1.2c-1.5,0.3-4.1,0.4-7.9,0.4c-3.9,0-6.4-0.1-7.5-0.4c-0.7-0.2-1.1-0.6-1.2-1.3c0-0.1,0-0.8,0-2.1
		c0-2.9,0-7.2,0.1-13c0.1-5.8,0.1-10.1,0.1-13c0-13.7,0-19.9,0-18.7c-0.1-7.2-0.5-13.4-1.2-18.6c-0.1-0.4-0.1-0.6-0.1-0.8
		c0-0.7,0.4-1.1,1.3-1.1h17.4c0.8,0,1.2,0.3,1.1,1l0,0.9C362.3,703,361.9,715.4,361.9,726.2z"/>
	<path id="XMLID_88_" class="st1" d="M453.2,744.6c0,0.5-0.3,1.2-1,2.1c-6,7.1-13.9,10.7-23.9,10.7c-10.2,0-18.4-3.5-24.7-10.4
		c-6.2-6.7-9.2-15.2-9.2-25.4c0-9.9,3-18.3,9-25.2c6.3-7.2,14.3-10.8,24-10.8c10.5,0,18.8,3.2,24.8,9.7c0.7,0.7,1,1.4,1,1.9
		c0,0.6-1.1,2.9-3.4,6.9c-2.3,4-3.7,6.2-4.3,6.7c-0.3,0.3-0.6,0.4-1,0.4c-0.2,0-1-0.7-2.4-2c-1.8-1.6-3.5-2.8-5.2-3.7
		c-2.6-1.3-5.2-2-8-2c-4.8,0-8.6,1.8-11.5,5.4c-2.6,3.3-4,7.4-4,12.3c0,4.9,1.3,9.1,4,12.5c2.9,3.6,6.7,5.5,11.5,5.5
		c2.8,0,5.5-0.6,8.1-1.9c1.7-0.8,3.4-2,5.1-3.4c1.4-1.2,2.2-1.9,2.4-1.9c0.3,0,0.7,0.2,1,0.5c0.5,0.6,1.9,2.6,4.2,6.1
		C452,742.2,453.2,744.2,453.2,744.6z"/>
	<path id="XMLID_90_" class="st1" d="M490.5,725.2c0,1.3-0.7,1.9-2.1,1.9c-0.6,0-1.5,0-2.7-0.1c-1.2-0.1-2.1-0.1-2.7-0.1
		c-2.7,0-4.5,0.4-5.5,1.3c-1,0.8-1.5,2.6-1.5,5.1c0,1.4,0,3.5,0.1,6.4c0,2.8,0.1,5,0.1,6.4c0,0.9,0.1,2.4,0.2,4.2
		c0.1,1.9,0.2,3.3,0.2,4.2c0,0.8-0.5,1.2-1.6,1.3c-1.6,0.1-4,0.2-7.2,0.2c-3.1,0-5.6-0.1-7.4-0.3c-1.1-0.1-1.6-0.7-1.6-1.6
		c0-2.6,0-6.5,0-11.7c0-5.2,0-9.1,0-11.7c0-7.6-0.7-13.9-2.1-18.9c-0.1-0.3-0.1-0.5-0.1-0.7c0-0.5,0.2-0.8,0.7-1
		c1.8-0.2,4.4-0.6,7.9-1.1c5.1-1,7.8-1.5,8-1.5c0.6,0,1,1,1.1,3.1c0.2,2.1,0.5,3.1,0.9,3.1c-0.5,0,0.9-0.9,4-2.6s6.1-2.6,9-2.6
		c1.8,0,2.7,0.4,2.7,1.2c0,0.9-0.1,2.3-0.3,4c-0.2,1.9-0.3,3.2-0.3,4c0,0.9,0,2.2,0,3.8C490.5,723.3,490.5,724.6,490.5,725.2z"/>
	<path id="XMLID_92_" class="st1" d="M540.9,729.1c0,3.3-1.1,5.2-3.2,5.6c-0.4,0.1-3.7,0.4-10.1,1.1c-3.8,0.4-9.6,0.9-17.2,1.5
		c0.5,2.1,1.8,3.7,4.2,4.8c1.9,0.9,4,1.4,6.4,1.4c2.9,0,5.8-0.8,8.7-2.3c1.2-0.8,2.5-1.6,3.7-2.3c0.7,0.3,1.8,2,3.4,5
		c1.6,3,2.4,4.9,2.4,5.7c0,0.2-0.2,0.6-0.7,1.1c-4,4.3-10.1,6.4-18.5,6.4c-7.7,0-14-2.3-18.8-6.8c-4.9-4.6-7.3-10.7-7.3-18.4
		c0-7.5,2.2-13.6,6.5-18.4c4.5-4.9,10.4-7.4,17.9-7.4c6.3,0,11.6,2.3,15.9,6.8C538.8,717.4,540.9,722.8,540.9,729.1z M523.8,726.1
		c0-2-0.7-3.8-2.1-5.3c-1.4-1.5-3.1-2.3-5.1-2.3c-2.1,0-3.7,0.9-5.1,2.6c-1.2,1.6-1.9,3.5-1.9,5.6c0,0.9,0.5,1.3,1.4,1.3
		c2.4,0,6.2-0.4,11.2-1.1C523.3,726.7,523.8,726.5,523.8,726.1z"/>
	<path id="XMLID_95_" class="st1" d="M595.4,731.2c0,2.5,0.1,6.2,0.4,11.2c0.3,4.9,0.4,8.7,0.4,11.1c0,1.3-0.6,2-1.7,2.1
		c-4,0.3-8.7,0.4-13.9,0.4c-0.6,0-1-0.9-1.2-2.8c-0.2-1.9-0.5-2.8-0.8-2.9c-0.3,0.1-0.6,0.4-1,0.8c-3.6,3.7-7.6,5.5-11.7,5.5
		c-6.3,0-11.6-2.5-15.8-7.5c-3.9-4.7-5.9-10.3-5.9-16.8c0-7.5,2-13.6,6.1-18.2c4.2-4.8,10-7.1,17.4-7.1c5.1,0,9.1,1.8,12.1,5.4
		c0.1,0.2,0.2,0.2,0.3,0.2c0.3,0,0.6-0.8,1-2.4c0.4-1.6,0.8-2.4,1.3-2.4c1.2,0,3.5,0.3,6.9,1c3.2,0.7,5.5,1.2,6.9,1.7
		c0.5,0.2,0.7,0.5,0.7,0.8c0,0.1,0,0.5-0.1,1C595.9,718.4,595.4,724.6,595.4,731.2z M579.7,731.5c0-2.8-0.9-5.1-2.6-6.9
		c-1.7-1.8-4-2.7-6.8-2.7c-2.8,0-5.1,0.9-6.8,2.7c-1.7,1.8-2.6,4.1-2.6,6.9c0,2.6,0.9,4.9,2.7,6.8c1.8,1.9,4,2.8,6.6,2.8
		c2.8,0,5-0.9,6.8-2.7S579.7,734.3,579.7,731.5z"/>
	<path id="XMLID_98_" class="st1" d="M637.8,741.3c0,1-0.1,2.5-0.4,4.4c-0.2,2-0.4,3.4-0.4,4.4s-0.1,1.5-0.3,1.8
		c-0.2,0.3-0.7,0.6-1.6,1.1c-4.2,2.3-8.9,3.5-14,3.5c-9.4,0-14.1-3.6-14.1-10.8c0-2.1,0.1-5.4,0.2-9.7c0.2-4.3,0.2-7.5,0.2-9.7
		c0-1.4-0.8-2.1-2.5-2.1c-0.1,0-0.3,0-0.6,0c-0.3,0-0.5,0-0.6,0c-1.2,0-1.9-0.4-1.9-1.3c0-0.5,0-1.3,0.1-2.4
		c0.1-1.1,0.1-1.9,0.1-2.4c0-0.7,0-1.7-0.1-3.1c-0.1-1.4-0.1-2.4-0.1-3.1c0-0.7,1-1,3.1-1.1c1.2,0,1.8-0.4,1.9-1
		c0.2-1.2,0.3-3.2,0.2-5.9c-0.1-4.2-0.2-6.2-0.2-6c0-3.8,0.4-5.7,1.1-5.7c0.9,0,2.1,0.2,3.8,0.6c1.9,0.4,3.1,0.7,3.9,0.7
		c1.7,0.2,4.2,0.5,7.5,0.9c0.8,0.1,1.2,0.3,1.2,0.8c0,1.3-0.1,3.3-0.3,5.9c-0.2,2.6-0.3,4.6-0.3,6c0,1.6,0.5,2.4,1.4,2.4
		c1.1,0,2.9,0,5.2-0.1c2.3-0.1,4.1-0.1,5.2-0.1c0.7,0,1.1,0.2,1.1,0.7c0,0.7-0.1,1.9-0.2,3.4c-0.2,1.5-0.2,2.6-0.2,3.4
		c0,0.8,0,1.9,0,3.4c0,1.5,0,2.6,0,3.4c0,0.7-0.5,1-1.4,1c-0.7,0-1.7,0-3.3-0.1c-1.5,0-2.6-0.1-3.3-0.1h-3.7c-0.5,0-0.7,0.7-0.7,2.1
		c0,0.8,0,1.9,0,3.5c0,1.6,0,2.7,0,3.5c0,2.7,0.3,4.6,0.9,5.7c0.9,1.4,2.6,2.1,5.2,2.1c0.8,0,2-0.2,3.5-0.6c1.5-0.4,2.6-0.6,3.2-0.6
		C637.4,740.2,637.8,740.6,637.8,741.3z"/>
	<path id="XMLID_100_" class="st1" d="M661,733.2c0,2.4,0,5.9,0.1,10.6c0.1,4.7,0.1,8.2,0.1,10.6c0,0.7-0.4,1.1-1.2,1.2
		c-1.1,0.2-3.6,0.3-7.5,0.3c-3.9,0-6.4-0.1-7.5-0.3c-0.7-0.1-1.2-0.3-1.3-0.6c-0.1-0.1-0.1-0.6-0.1-1.5c0-2.2,0-5.6,0.1-10.1
		c0.1-4.5,0.1-7.9,0.1-10.2c0-9.2-0.4-16.6-1.1-22.1c-0.1-0.5-0.1-0.9-0.1-1c0-0.7,0.4-1,1.3-1c0.9,0,2.3,0.1,4.2,0.3
		c1.9,0.2,3.3,0.3,4.2,0.3c0.9,0,2.4-0.1,4.2-0.2c1.9-0.2,3.3-0.2,4.2-0.2c0.8,0,1.2,0.3,1.2,1c0,0.1,0,0.4-0.1,0.9
		C661.3,717.5,661,724.8,661,733.2z M662.2,696.9c0,5.7-3.2,8.5-9.6,8.5c-2.7,0-5-0.7-6.8-2.1c-2-1.6-2.9-3.7-2.9-6.3
		c0-2.5,1-4.6,3-6.3c1.9-1.5,4.1-2.2,6.7-2.2c2.5,0,4.7,0.8,6.6,2.3C661.2,692.3,662.2,694.4,662.2,696.9z"/>
	<path id="XMLID_103_" class="st1" d="M717.4,731.6c0,7.4-2.3,13.4-6.8,18.1c-4.5,4.6-10.5,6.9-17.9,6.9c-7.2,0-13.1-2.3-17.7-6.8
		c-4.6-4.6-6.9-10.4-6.9-17.6c0-7.6,2.2-13.7,6.6-18.4c4.4-4.7,10.4-7.1,18-7.1c7.4,0,13.3,2.3,17.9,6.9
		C715.1,718.2,717.4,724.2,717.4,731.6z M701.3,731.6c0-2.6-0.8-4.8-2.4-6.8c-1.6-2-3.7-3-6.2-3c-2.6,0-4.7,1-6.3,3
		c-1.6,1.9-2.3,4.1-2.3,6.7c0,2.6,0.8,4.9,2.3,6.8c1.7,2,3.8,3,6.3,3c2.5,0,4.6-1,6.3-3C700.6,736.5,701.3,734.2,701.3,731.6z"/>
	<path id="XMLID_106_" class="st1" d="M771.8,754.2c0,0.9-0.5,1.4-1.4,1.5c-0.9,0.1-3.3,0.2-7.1,0.2c-4.1,0-6.6-0.1-7.6-0.3
		s-1.5-0.9-1.5-2c0-1.5,0-3.8,0.1-6.9c0.1-3.1,0.1-5.4,0.1-7c0-1.2,0-3-0.1-5.4c-0.1-2.4-0.1-4.2-0.1-5.4c0-4.5-1.9-6.7-5.8-6.7
		c-1.3,0-2.8,0.6-4.4,1.7c-1.8,1.2-2.7,2.5-2.7,3.7v26.4c0,1.1-0.5,1.7-1.5,1.8c-1.1,0.1-3.5,0.2-7,0.2c-3.8,0-6.3-0.1-7.4-0.3
		c-1-0.2-1.5-0.7-1.5-1.6c0-2.5,0-6.4,0-11.5c0-5.1,0-9,0-11.5c0-8.1-0.6-14.5-1.9-19.1c-0.1-0.3-0.1-0.5-0.1-0.7
		c0-0.5,0.2-0.9,0.7-1.1c2.1-0.2,4.8-0.6,8.2-1.1c5.2-1,8.1-1.5,8.7-1.5c0.4,0,0.6,1.1,0.8,3.3s0.5,3.3,0.8,3.3
		c-0.4,0,1.4-1.1,5.2-3.4c3.9-2.3,7.2-3.4,10.1-3.4c4.1,0,7.6,1,10.4,2.9c3.1,2.2,4.6,5.4,4.6,9.4v15.6c0,2.1,0,5.3,0,9.5
		C771.8,748.9,771.8,752.1,771.8,754.2z"/>
</g>
<g id="XMLID_61_">
	<path id="XMLID_62_" class="st1" d="M1280.1,235.4c0,0.6-0.4,1-1.2,1.2c-1,0.3-4,0.4-9.1,0.4c-4.7,0-7.7-0.1-9-0.4
		c-1.1-0.2-1.8-1-2.1-2.2c-1.1-4.7-2-7.2-2.6-7.5c-0.5-0.2-4.9-0.3-13.1-0.3c-5.5,0-8.5,0.1-8.8,0.4c-0.6,0.5-1.2,2.3-1.9,5.2
		c-0.6,2.7-1.4,4.2-2.2,4.4c-1.1,0.3-4.8,0.4-11.1,0.4c-5,0-7.5-0.5-7.5-1.4c0-0.8,3.7-11.2,11-31.2c8-21.6,12.3-33.4,13-35.6
		c0.4-1.2,0.8-1.9,1.4-1.9c0.9,0,2.2,0.1,4.1,0.2c1.8,0.2,3.2,0.2,4.1,0.2c0.9,0,2.2-0.1,3.9-0.2c1.7-0.1,3-0.2,3.8-0.2
		c0.6,0,1.2,0.5,1.7,1.6c1.6,3.4,6.3,15.1,14,35.2C1276.2,224,1280.1,234.6,1280.1,235.4z M1245.5,191c-0.7,1.4-1.8,4.5-3.5,9.3
		c-1.8,5.1-2.6,8.1-2.6,8.9c0,0.6,1,0.9,2.9,1c1,0.1,2.7,0.1,5,0.1c2.1,0,3.3-0.3,3.6-0.8c0.1-0.2,0.1-0.4,0.1-0.7
		c0-1.1-0.7-4-2.2-8.9C1247.3,195.2,1246.2,192.3,1245.5,191z"/>
	<path id="XMLID_65_" class="st1" d="M1302.5,207.3c0,8.9,0,15.7,0.1,20.5c0,0.7,0,2,0.1,3.9c0.1,1.7,0.1,2.9,0.1,3.9
		c0,0.7-0.4,1.1-1.2,1.2c-1.5,0.3-4.1,0.4-7.9,0.4c-3.9,0-6.4-0.1-7.5-0.4c-0.7-0.2-1.1-0.6-1.2-1.3c0-0.1,0-0.8,0-2.1
		c0-2.9,0-7.2,0.1-13c0.1-5.8,0.1-10.1,0.1-13c0-13.7,0-19.9,0-18.7c-0.1-7.2-0.5-13.4-1.2-18.6c-0.1-0.4-0.1-0.6-0.1-0.8
		c0-0.7,0.4-1.1,1.3-1.1h17.4c0.8,0,1.2,0.3,1.1,1l0,0.9C1302.9,184,1302.5,196.5,1302.5,207.3z"/>
	<path id="XMLID_67_" class="st1" d="M1365.3,213.2c0,7-2.1,12.7-6.2,17.3c-4.2,4.8-9.8,7.1-16.7,7.1c-2.5,0-5.2-0.6-8.1-1.9
		c-2.9-1.2-4.2-1.9-3.9-1.9c-0.4,0-0.6,0.5-0.6,1.5c0,1.7,0.1,4.2,0.2,7.5c0.2,3.3,0.2,5.8,0.2,7.5c0,1-0.5,1.6-1.6,1.6l-10,0
		c-2.2,0-3.7-0.1-4.3-0.2c-1-0.2-1.5-0.8-1.5-1.8l0.1-37.6c0-7.6-0.6-14-1.7-19.2c-0.1-0.3-0.1-0.6-0.1-0.8c0-0.5,0.2-0.8,0.6-1
		c1.3-0.5,3.7-1,7.3-1.6c3.5-0.6,6-0.8,7.6-0.8c1.3,0,2,0.8,2.2,2.5c0.2,1.7,0.4,2.5,0.7,2.5c-0.3,0,1.1-0.9,4.2-2.7
		c3.1-1.8,5.9-2.7,8.5-2.7c7.1,0,12.7,2.3,16.9,7C1363.3,200.1,1365.3,206,1365.3,213.2z M1347.2,213.1c0-2.6-0.8-4.9-2.4-6.8
		c-1.7-2.1-3.9-3.1-6.4-3.1c-2.6,0-4.7,1-6.3,3.1c-1.4,1.9-2.1,4.1-2.1,6.8c0,2.8,0.7,5.1,2.1,6.9c1.5,2,3.6,3,6.3,3
		C1344.3,222.9,1347.2,219.6,1347.2,213.1z"/>
	<path id="XMLID_70_" class="st1" d="M1420.4,201.3l-0.1,33.7c0,1.1-0.5,1.8-1.4,1.9c-1,0.1-3.4,0.2-7.1,0.2c-3.6,0-6.1-0.1-7.5-0.4
		c-1.1-0.2-1.6-0.9-1.6-2.1c0-2.8,0-7,0.1-12.6c0.1-5.6,0.1-9.8,0.1-12.6c0-3.8-1.9-5.7-5.8-5.7c-1.3,0-2.8,0.5-4.6,1.6
		c-1.9,1.1-2.9,2.3-2.9,3.6v12.1c0,1.6,0,3.9,0.1,7.1c0.1,3.1,0.1,5.5,0.1,7.1c0,1.2-0.5,1.9-1.5,2c-1,0.1-3.8,0.2-8.5,0.2
		c-2.7,0-4.6-0.1-5.8-0.4s-1.8-0.8-1.8-1.7c0-2.6,0-6.4,0-11.6c0-5.2,0-9,0-11.6c0-10.6-0.1-19.4-0.3-26.4c-0.1-2.4-0.2-4.9-0.2-7.3
		c-0.2-2.8-0.5-5.3-0.9-7.3c-0.1-0.4-0.1-0.7-0.1-0.9c0-0.5,0.2-0.8,0.7-1c1-0.3,2.5-0.5,4.4-0.5c2.6-0.1,4.1-0.2,4.5-0.2l8.8-1
		c0.5,0,0.8,0.3,0.8,1c0,1-0.1,2.5-0.2,4.2c-0.1,2.1-0.2,3.5-0.2,4.2c-0.2,7.4-0.3,13.2-0.3,17.4c0,0.7,0.2,1,0.5,1
		c0.1,0,0.9-0.6,2.5-1.7c1.9-1.3,3.7-2.4,5.4-3.2c2.6-1.1,5.1-1.7,7.5-1.7c4.2,0,7.6,1.1,10.4,3.3
		C1418.9,194,1420.4,197.2,1420.4,201.3z"/>
	<path id="XMLID_72_" class="st1" d="M1477.4,212.2c0,2.5,0.1,6.2,0.4,11.2c0.3,4.9,0.4,8.7,0.4,11.1c0,1.3-0.6,2-1.7,2.1
		c-4,0.3-8.7,0.4-13.9,0.4c-0.6,0-1-0.9-1.2-2.8c-0.2-1.9-0.5-2.8-0.8-2.9c-0.3,0.1-0.6,0.4-1,0.8c-3.6,3.7-7.6,5.5-11.7,5.5
		c-6.3,0-11.6-2.5-15.8-7.5c-3.9-4.7-5.9-10.3-5.9-16.8c0-7.5,2-13.6,6.1-18.2c4.2-4.8,10-7.1,17.4-7.1c5.1,0,9.1,1.8,12.1,5.4
		c0.1,0.2,0.2,0.2,0.3,0.2c0.3,0,0.6-0.8,1-2.4c0.4-1.6,0.8-2.4,1.3-2.4c1.2,0,3.5,0.3,6.9,1c3.2,0.7,5.5,1.2,6.9,1.7
		c0.5,0.2,0.7,0.5,0.7,0.8c0,0.1,0,0.5-0.1,1C1477.9,199.4,1477.4,205.7,1477.4,212.2z M1461.7,212.5c0-2.8-0.9-5.1-2.6-6.9
		c-1.7-1.8-4-2.7-6.8-2.7c-2.8,0-5.1,0.9-6.8,2.7c-1.7,1.8-2.6,4.1-2.6,6.9c0,2.6,0.9,4.9,2.7,6.8c1.8,1.9,4,2.8,6.6,2.8
		c2.8,0,5-0.9,6.8-2.7S1461.7,215.3,1461.7,212.5z"/>
</g>
<g id="XMLID_48_">
	<path id="XMLID_49_" class="st1" d="M252.6,436.6c0,6-1.9,11-5.6,14.9c-4.3,4.5-11.8,6.8-22.5,6.8c-0.8,0-2,0-3.5,0
		c-1.6,0-2.7,0-3.5,0c-12,0-19.2-0.2-21.4-0.7c-0.9-0.2-1.4-0.7-1.4-1.5c0-3.5,0.2-8.8,0.6-15.8c0.4-7.1,0.6-12.4,0.6-15.9
		c0-3.8-0.2-10.9-0.6-21.3c-0.1-2.7-0.3-6.7-0.5-12l0-0.7c0-0.6,0.5-1,1.5-1.1c1.1-0.1,4.8-0.2,11.3-0.2c10.4,0,16.5,0,18.2,0.1
		c8,0.3,13.9,1.6,17.7,3.9c5,3.1,7.6,8.3,7.6,15.7c0,1.9-0.6,4-1.8,6.1c-0.8,1.5-2,3.1-3.3,4.6c-1.2,1.3-1.8,2-1.8,1.9
		c0,0.2,0.4,0.6,1.3,1.1c2.3,1.3,4.1,3.4,5.4,6.2C252,431,252.6,433.7,252.6,436.6z M231.6,409.1c0-2.8-1.4-4.7-4.2-5.6
		c-1.6-0.5-4.1-0.7-7.7-0.7c-3.5,0-5.3,0.3-5.3,0.8c0,0.6-0.1,1.6-0.2,2.8c-0.1,1.3-0.2,2.2-0.2,2.8c0,3.3,0.3,5.1,0.8,5.5
		c0.4,0.3,2.4,0.4,6.2,0.4C228.1,415.1,231.6,413.1,231.6,409.1z M233,436.4c0-2.9-1.2-4.9-3.7-6c-1.6-0.7-4.1-1-7.6-1
		c-4.2,0-6.5,0.2-6.8,0.5c-0.4,0.3-0.5,2.3-0.5,6c0,3.8,0.2,6,0.6,6.4c0.4,0.4,2.8,0.6,7,0.6c3.5,0,6-0.3,7.4-0.8
		C231.8,441.1,233,439.2,233,436.4z"/>
	<path id="XMLID_53_" class="st1" d="M303.1,431.2c0,3.3-1.1,5.2-3.2,5.6c-0.4,0.1-3.7,0.4-10.1,1.1c-3.8,0.4-9.6,0.9-17.2,1.5
		c0.5,2.1,1.8,3.7,4.2,4.8c1.9,0.9,4,1.4,6.4,1.4c2.9,0,5.8-0.8,8.7-2.3c1.2-0.8,2.5-1.6,3.7-2.3c0.7,0.3,1.8,2,3.4,5
		c1.6,3,2.4,4.9,2.4,5.7c0,0.2-0.2,0.6-0.7,1.1c-4,4.3-10.1,6.4-18.5,6.4c-7.7,0-14-2.3-18.8-6.8c-4.9-4.6-7.3-10.7-7.3-18.4
		c0-7.5,2.2-13.6,6.5-18.4c4.5-4.9,10.4-7.4,17.9-7.4c6.3,0,11.6,2.3,15.9,6.8C301,419.5,303.1,424.9,303.1,431.2z M286,428.2
		c0-2-0.7-3.8-2.1-5.3c-1.4-1.5-3.1-2.3-5.1-2.3c-2.1,0-3.7,0.9-5.1,2.6c-1.2,1.6-1.9,3.5-1.9,5.6c0,0.9,0.5,1.3,1.4,1.3
		c2.4,0,6.2-0.4,11.2-1.1C285.5,428.8,286,428.5,286,428.2z"/>
	<path id="XMLID_56_" class="st1" d="M341.2,443.4c0,1-0.1,2.5-0.4,4.4c-0.2,2-0.4,3.4-0.4,4.4s-0.1,1.5-0.3,1.8
		c-0.2,0.3-0.7,0.6-1.6,1.1c-4.2,2.3-8.9,3.5-14,3.5c-9.4,0-14.1-3.6-14.1-10.8c0-2.1,0.1-5.4,0.2-9.7c0.2-4.3,0.2-7.5,0.2-9.7
		c0-1.4-0.8-2.1-2.5-2.1c-0.1,0-0.3,0-0.6,0c-0.3,0-0.5,0-0.6,0c-1.2,0-1.9-0.4-1.9-1.3c0-0.5,0-1.3,0.1-2.4
		c0.1-1.1,0.1-1.9,0.1-2.4c0-0.7,0-1.7-0.1-3.1c-0.1-1.4-0.1-2.4-0.1-3.1c0-0.7,1-1,3.1-1.1c1.2,0,1.8-0.4,1.9-1
		c0.2-1.2,0.3-3.2,0.2-5.9c-0.1-4.2-0.2-6.2-0.2-6c0-3.8,0.4-5.7,1.1-5.7c0.9,0,2.1,0.2,3.8,0.6c1.9,0.4,3.1,0.7,3.9,0.7
		c1.7,0.2,4.2,0.5,7.5,0.9c0.8,0.1,1.2,0.3,1.2,0.8c0,1.3-0.1,3.3-0.3,5.9c-0.2,2.6-0.3,4.6-0.3,6c0,1.6,0.5,2.4,1.4,2.4
		c1.1,0,2.9,0,5.2-0.1c2.3-0.1,4.1-0.1,5.2-0.1c0.7,0,1.1,0.2,1.1,0.7c0,0.7-0.1,1.9-0.2,3.4c-0.2,1.5-0.2,2.6-0.2,3.4
		c0,0.8,0,1.9,0,3.4c0,1.5,0,2.6,0,3.4c0,0.7-0.5,1-1.4,1c-0.7,0-1.7,0-3.3-0.1c-1.5,0-2.6-0.1-3.3-0.1H328c-0.5,0-0.7,0.7-0.7,2.1
		c0,0.8,0,1.9,0,3.5c0,1.6,0,2.7,0,3.5c0,2.7,0.3,4.6,0.9,5.7c0.9,1.4,2.6,2.1,5.2,2.1c0.8,0,2-0.2,3.5-0.6c1.5-0.4,2.6-0.6,3.2-0.6
		C340.8,442.3,341.2,442.6,341.2,443.4z"/>
	<path id="XMLID_58_" class="st1" d="M395.4,433.3c0,2.5,0.1,6.2,0.4,11.2c0.3,4.9,0.4,8.7,0.4,11.1c0,1.3-0.6,2-1.7,2.1
		c-4,0.3-8.7,0.4-13.9,0.4c-0.6,0-1-0.9-1.2-2.8c-0.2-1.9-0.5-2.8-0.8-2.9c-0.3,0.1-0.6,0.4-1,0.8c-3.6,3.7-7.6,5.5-11.7,5.5
		c-6.3,0-11.6-2.5-15.8-7.5c-3.9-4.7-5.9-10.3-5.9-16.8c0-7.5,2-13.6,6.1-18.2c4.2-4.8,10-7.1,17.4-7.1c5.1,0,9.1,1.8,12.1,5.4
		c0.1,0.2,0.2,0.2,0.3,0.2c0.3,0,0.6-0.8,1-2.4c0.4-1.6,0.8-2.4,1.3-2.4c1.2,0,3.5,0.3,6.9,1c3.2,0.7,5.5,1.2,6.9,1.7
		c0.5,0.2,0.7,0.5,0.7,0.8c0,0.1,0,0.5-0.1,1C395.9,420.4,395.4,426.7,395.4,433.3z M379.7,433.5c0-2.8-0.9-5.1-2.6-6.9
		c-1.7-1.8-4-2.7-6.8-2.7c-2.8,0-5.1,0.9-6.8,2.7c-1.7,1.8-2.6,4.1-2.6,6.9c0,2.6,0.9,4.9,2.7,6.8c1.8,1.9,4,2.8,6.6,2.8
		c2.8,0,5-0.9,6.8-2.7S379.7,436.3,379.7,433.5z"/>
</g>
<g id="XMLID_37_">
	<path id="XMLID_38_" class="st1" d="M1295.6,733.6c0,8.1-0.7,14.4-2,18.9c-2.4,7.9-6.3,14.1-11.6,18.6c-0.6,0.6-1.1,0.8-1.5,0.8
		c-0.4,0-0.7-0.2-1.1-0.6c-1.1-1.3-2.9-3.3-5.3-6c-1.4-1.2-3.5-3-6.2-5.5c-0.4-0.4-0.5-0.7-0.5-1c0-0.3,0.2-0.6,0.5-0.9
		c2.4-2.1,3.9-3.6,4.6-4.3c1.3-1.5,2.2-3.5,2.9-5.8c0.9-3.2,1.4-8.3,1.4-15.6c0-16.7-0.6-29.7-1.8-38.9c-0.1-0.3-0.1-0.6-0.1-0.7
		c0-0.6,0.5-0.9,1.6-0.9c1,0,2.6,0,4.6,0.1c2,0.1,3.6,0.1,4.6,0.1c1,0,2.4,0,4.3-0.1c1.9-0.1,3.4-0.1,4.3-0.1c0.9,0,1.4,0.4,1.4,1.3
		c0,4.5,0,11.3-0.1,20.3C1295.6,722.3,1295.6,729.1,1295.6,733.6z"/>
	<path id="XMLID_40_" class="st1" d="M1354.1,735.7c0,2.5,0.1,6.2,0.4,11.2c0.3,4.9,0.4,8.7,0.4,11.1c0,1.3-0.6,2-1.7,2.1
		c-4,0.3-8.7,0.4-13.9,0.4c-0.6,0-1-0.9-1.2-2.8c-0.2-1.9-0.5-2.8-0.8-2.9c-0.3,0.1-0.6,0.4-1,0.8c-3.6,3.7-7.6,5.5-11.7,5.5
		c-6.3,0-11.6-2.5-15.8-7.5c-3.9-4.7-5.9-10.3-5.9-16.8c0-7.5,2-13.6,6.1-18.2c4.2-4.8,10-7.1,17.4-7.1c5.1,0,9.1,1.8,12.1,5.4
		c0.1,0.2,0.2,0.2,0.3,0.2c0.3,0,0.6-0.8,1-2.4c0.4-1.6,0.8-2.4,1.3-2.4c1.2,0,3.5,0.3,6.9,1c3.2,0.7,5.5,1.2,6.9,1.7
		c0.5,0.2,0.7,0.5,0.7,0.8c0,0.1,0,0.5-0.1,1C1354.6,722.9,1354.1,729.1,1354.1,735.7z M1338.4,736c0-2.8-0.9-5.1-2.6-6.9
		c-1.7-1.8-4-2.7-6.8-2.7c-2.8,0-5.1,0.9-6.8,2.7c-1.7,1.8-2.6,4.1-2.6,6.9c0,2.6,0.9,4.9,2.7,6.8c1.8,1.9,4,2.8,6.6,2.8
		c2.8,0,5-0.9,6.8-2.7S1338.4,738.8,1338.4,736z"/>
	<path id="XMLID_43_" class="st1" d="M1410.8,726.2c0,5.6-0.2,8.9-0.5,9.9c-0.7,2.3-3,6.2-6.7,11.8c-3.3,4.8-6,8.5-8.3,11.1
		c-0.8,1-3.4,1.5-7.7,1.5c-3.7,0-6.1-0.1-7.2-0.4c-0.7-0.2-1.3-0.5-1.7-1c-2-2.1-4.7-5.8-8.3-11c-3.9-5.6-6.2-9.5-6.9-11.6
		c-0.8-2.2-1.2-5.6-1.2-10.1c0-1.3,0-3.2,0-5.7c0-2.6,0-4.5,0-5.8c0-0.8,0.6-1.3,1.7-1.3c1.7,0,4.2,0,7.5,0.1
		c3.3,0.1,5.8,0.1,7.5,0.1c0.7,0,1.1,0.5,1.1,1.5c0,0.9-0.1,2.3-0.2,4.1c-0.1,1.8-0.2,3.2-0.2,4.2c0,3.4,0.1,6.2,0.3,8.3
		c0.1,1.1,1,3.2,2.8,6.3c1.9,3.2,3.2,4.8,4.1,4.8c0.8,0,2.1-1.6,3.9-4.7c1.7-3,2.7-5,2.8-6.1c0.3-2.3,0.4-5.1,0.4-8.4
		c0-0.9-0.1-2.4-0.3-4.3s-0.3-3.3-0.3-4.2c0-1,0.3-1.5,1-1.5c0.8,0,1.9,0,3.5,0c1.5,0,2.7,0,3.5,0s2-0.1,3.5-0.2
		c1.6-0.1,2.8-0.2,3.5-0.2c0.8,0,1.4,0.4,1.6,1.3C1410.5,716.8,1410.8,720.5,1410.8,726.2z"/>
	<path id="XMLID_45_" class="st1" d="M1466.5,735.7c0,2.5,0.1,6.2,0.4,11.2c0.3,4.9,0.4,8.7,0.4,11.1c0,1.3-0.6,2-1.7,2.1
		c-4,0.3-8.7,0.4-13.9,0.4c-0.6,0-1-0.9-1.2-2.8c-0.2-1.9-0.5-2.8-0.8-2.9c-0.3,0.1-0.6,0.4-1,0.8c-3.6,3.7-7.6,5.5-11.7,5.5
		c-6.3,0-11.6-2.5-15.8-7.5c-3.9-4.7-5.9-10.3-5.9-16.8c0-7.5,2-13.6,6.1-18.2c4.2-4.8,10-7.1,17.4-7.1c5.1,0,9.1,1.8,12.1,5.4
		c0.1,0.2,0.2,0.2,0.3,0.2c0.3,0,0.6-0.8,1-2.4c0.4-1.6,0.8-2.4,1.3-2.4c1.2,0,3.5,0.3,6.9,1c3.2,0.7,5.5,1.2,6.9,1.7
		c0.5,0.2,0.7,0.5,0.7,0.8c0,0.1,0,0.5-0.1,1C1467,722.9,1466.5,729.1,1466.5,735.7z M1450.8,736c0-2.8-0.9-5.1-2.6-6.9
		c-1.7-1.8-4-2.7-6.8-2.7c-2.8,0-5.1,0.9-6.8,2.7c-1.7,1.8-2.6,4.1-2.6,6.9c0,2.6,0.9,4.9,2.7,6.8c1.8,1.9,4,2.8,6.6,2.8
		c2.8,0,5-0.9,6.8-2.7S1450.8,738.8,1450.8,736z"/>
</g>
<g id="XMLID_34_">
	<path id="XMLID_35_" class="st1" d="M1200.5,551.6c0,0.5-0.3,1.2-1,2.1c-6,7.1-13.9,10.7-23.9,10.7c-10.2,0-18.4-3.5-24.7-10.4
		c-6.2-6.7-9.2-15.2-9.2-25.4c0-9.9,3-18.3,9-25.2c6.3-7.2,14.3-10.8,24-10.8c10.5,0,18.8,3.2,24.8,9.7c0.7,0.7,1,1.4,1,1.9
		c0,0.6-1.1,2.9-3.4,6.9c-2.3,4-3.7,6.2-4.3,6.7c-0.3,0.3-0.6,0.4-1,0.4c-0.2,0-1-0.7-2.4-2c-1.8-1.6-3.5-2.8-5.2-3.7
		c-2.6-1.3-5.2-2-8-2c-4.8,0-8.6,1.8-11.5,5.4c-2.6,3.3-4,7.4-4,12.3c0,4.9,1.3,9.1,4,12.5c2.9,3.6,6.7,5.5,11.5,5.5
		c2.8,0,5.5-0.6,8.1-1.9c1.7-0.8,3.4-2,5.1-3.4c1.4-1.2,2.2-1.9,2.4-1.9c0.3,0,0.7,0.2,1,0.5c0.5,0.6,1.9,2.6,4.2,6.1
		C1199.3,549.3,1200.5,551.3,1200.5,551.6z"/>
</g>
<g id="XMLID_1_">
	<path id="XMLID_22_" class="st1" d="M794.4,358.7c0,8.3-1,14-3,17c-3.6,5.5-12.7,8.3-27.3,8.3c-6.6,0-11.6-0.5-15.2-1.5
		c-5.7-1.6-9.3-4.7-11-9.3c-0.8-2.2-1.3-6.3-1.3-12c0-1.3,0-3.3,0.1-6s0.1-4.6,0.1-5.9c0-3.8-0.2-9.4-0.5-17
		c-0.4-7.6-0.5-13.2-0.5-16.9c0-0.8,0.3-1.2,1-1.2c2,0,5,0.1,9,0.2c4,0.2,7,0.2,9,0.2c0.8,0,1.2,0.4,1.2,1.1
		c0,4.3-0.1,10.7-0.4,19.3c-0.3,8.6-0.4,15-0.4,19.3c0,5.1,0.5,8.6,1.6,10.4c1.4,2.4,4.4,3.7,9,3.7c6.7,0,10-3.2,10-9.7
		c0-4.7-0.1-11.8-0.3-21.2c-0.2-9.4-0.3-16.5-0.3-21.2c0-1,0.4-1.5,1.2-1.5c1.9,0,4.8-0.1,8.7-0.2c3.9-0.2,6.8-0.2,8.7-0.2
		c0.9,0,1.4,0.4,1.4,1.2c0,3.7-0.2,9.4-0.5,16.9c-0.3,7.6-0.5,13.2-0.5,17c0,1,0,2.6,0,4.7C794.4,356.1,794.4,357.6,794.4,358.7z"/>
	<path id="XMLID_25_" class="st1" d="M852.2,381.2c0,0.9-0.5,1.4-1.4,1.5c-0.9,0.1-3.3,0.2-7.1,0.2c-4.1,0-6.6-0.1-7.6-0.3
		s-1.5-0.9-1.5-2c0-1.5,0-3.8,0.1-6.9c0.1-3.1,0.1-5.4,0.1-7c0-1.2,0-3-0.1-5.4c-0.1-2.4-0.1-4.2-0.1-5.4c0-4.5-1.9-6.7-5.8-6.7
		c-1.3,0-2.8,0.6-4.4,1.7c-1.8,1.2-2.7,2.5-2.7,3.7v26.4c0,1.1-0.5,1.7-1.5,1.8c-1.1,0.1-3.5,0.2-7,0.2c-3.8,0-6.3-0.1-7.4-0.3
		c-1-0.2-1.5-0.7-1.5-1.6c0-2.5,0-6.4,0-11.5c0-5.1,0-9,0-11.5c0-8.1-0.6-14.5-1.9-19.1c-0.1-0.3-0.1-0.5-0.1-0.7
		c0-0.5,0.2-0.9,0.7-1.1c2.1-0.2,4.8-0.6,8.2-1.1c5.2-1,8.1-1.5,8.7-1.5c0.4,0,0.6,1.1,0.8,3.3s0.5,3.3,0.8,3.3
		c-0.4,0,1.4-1.1,5.2-3.4c3.9-2.3,7.2-3.4,10.1-3.4c4.1,0,7.6,1,10.4,2.9c3.1,2.2,4.6,5.4,4.6,9.4v15.6c0,2.1,0,5.3,0,9.5
		C852.2,376,852.2,379.1,852.2,381.2z"/>
	<path id="XMLID_27_" class="st1" d="M878.4,360.2c0,2.4,0,5.9,0.1,10.6c0.1,4.7,0.1,8.2,0.1,10.6c0,0.7-0.4,1.1-1.2,1.2
		c-1.1,0.2-3.6,0.3-7.5,0.3c-3.9,0-6.4-0.1-7.5-0.3c-0.7-0.1-1.2-0.3-1.3-0.6c-0.1-0.1-0.1-0.6-0.1-1.5c0-2.2,0-5.6,0.1-10.1
		c0.1-4.5,0.1-7.9,0.1-10.2c0-9.2-0.4-16.6-1.1-22.1c-0.1-0.5-0.1-0.9-0.1-1c0-0.7,0.4-1,1.3-1c0.9,0,2.3,0.1,4.2,0.3
		c1.9,0.2,3.3,0.3,4.2,0.3c0.9,0,2.4-0.1,4.2-0.2c1.9-0.2,3.3-0.2,4.2-0.2c0.8,0,1.2,0.3,1.2,1c0,0.1,0,0.4-0.1,0.9
		C878.8,344.5,878.4,351.9,878.4,360.2z M879.7,324c0,5.7-3.2,8.5-9.6,8.5c-2.7,0-5-0.7-6.8-2.1c-2-1.6-2.9-3.7-2.9-6.3
		c0-2.5,1-4.6,3-6.3c1.9-1.5,4.1-2.2,6.7-2.2c2.5,0,4.7,0.8,6.6,2.3C878.7,319.4,879.7,321.5,879.7,324z"/>
	<path id="XMLID_30_" class="st1" d="M920.5,368.3c0,1-0.1,2.5-0.4,4.4c-0.2,2-0.4,3.4-0.4,4.4s-0.1,1.5-0.3,1.8
		c-0.2,0.3-0.7,0.6-1.6,1.1c-4.2,2.3-8.9,3.5-14,3.5c-9.4,0-14.1-3.6-14.1-10.8c0-2.1,0.1-5.4,0.2-9.7c0.2-4.3,0.2-7.5,0.2-9.7
		c0-1.4-0.8-2.1-2.5-2.1c-0.1,0-0.3,0-0.6,0c-0.3,0-0.5,0-0.6,0c-1.2,0-1.9-0.4-1.9-1.3c0-0.5,0-1.3,0.1-2.4
		c0.1-1.1,0.1-1.9,0.1-2.4c0-0.7,0-1.7-0.1-3.1c-0.1-1.4-0.1-2.4-0.1-3.1c0-0.7,1-1,3.1-1.1c1.2,0,1.8-0.4,1.9-1
		c0.2-1.2,0.3-3.2,0.2-5.9c-0.1-4.2-0.2-6.2-0.2-6c0-3.8,0.4-5.7,1.1-5.7c0.9,0,2.1,0.2,3.8,0.6c1.9,0.4,3.1,0.7,3.9,0.7
		c1.7,0.2,4.2,0.5,7.5,0.9c0.8,0.1,1.2,0.3,1.2,0.8c0,1.3-0.1,3.3-0.3,5.9c-0.2,2.6-0.3,4.6-0.3,6c0,1.6,0.5,2.4,1.4,2.4
		c1.1,0,2.9,0,5.2-0.1c2.3-0.1,4.1-0.1,5.2-0.1c0.7,0,1.1,0.2,1.1,0.7c0,0.7-0.1,1.9-0.2,3.4c-0.2,1.5-0.2,2.6-0.2,3.4
		c0,0.8,0,1.9,0,3.4c0,1.5,0,2.6,0,3.4c0,0.7-0.5,1-1.4,1c-0.7,0-1.7,0-3.3-0.1c-1.5,0-2.6-0.1-3.3-0.1h-3.7c-0.5,0-0.7,0.7-0.7,2.1
		c0,0.8,0,1.9,0,3.5c0,1.6,0,2.7,0,3.5c0,2.7,0.3,4.6,0.9,5.7c0.9,1.4,2.6,2.1,5.2,2.1c0.8,0,2-0.2,3.5-0.6c1.5-0.4,2.6-0.6,3.2-0.6
		C920.2,367.3,920.5,367.6,920.5,368.3z"/>
	<path id="XMLID_32_" class="st1" d="M973.6,347.8c0,6.3-0.2,10.2-0.6,11.5c-0.5,1.6-4.1,7.5-10.7,17.7c-1,1.6-3.7,5.3-8.1,11.1
		c-4.8,6.4-7.5,9.7-8.2,10.1c-0.8,0.5-5.8,0.7-15,0.7c-1.4,0-2.3-0.2-2.8-0.5c-0.4-1.3-1-2.9-1.6-4.7c-0.5-1.1-1-2.3-1.6-3.5
		c-0.7-1.7-1.1-2.8-1.1-3.4c0-0.6,0.3-0.9,0.8-0.9c9,0,13.6-2.1,13.6-6.2c0-0.4-2.2-3.6-6.6-9.7c-4.6-6.3-7.1-10.3-7.6-11.9
		c-0.3-0.9-0.4-4.3-0.4-10.1c0-1.2,0-2.9,0.1-5.3c0.1-2.4,0.1-4.1,0.1-5.3c0-0.8,0.5-1.3,1.6-1.3c1.7,0,4.2,0,7.5,0.1
		s5.9,0.1,7.5,0.1c0.7,0,1,0.5,1,1.5c0,0.9,0,2.3-0.1,4.1c-0.1,1.8-0.1,3.2-0.1,4.1c0,4.1,0.1,6.9,0.2,8.3c0.1,1.1,1.1,3.3,2.9,6.3
		c2,3.2,3.4,4.8,4.2,4.8c0.7,0,2-1.6,3.8-4.8c1.7-3,2.6-5.1,2.7-6.1c0.3-2.9,0.5-6,0.5-9.3c0-0.9-0.1-2.2-0.2-4
		c-0.2-1.8-0.2-3.1-0.2-4.1c0-0.6,0.3-0.9,1-0.9c1.7,0,4.1-0.1,7.4-0.2c3.3-0.1,5.8-0.2,7.4-0.2c0.8,0,1.4,0.4,1.7,1.3
		C973.4,338.9,973.6,342.4,973.6,347.8z"/>
</g>
</svg>
