<?xml version="1.0" encoding="utf-8"?>
<!-- Generator: Adobe Illustrator 19.0.0, SVG Export Plug-In . SVG Version: 6.00 Build 0)  -->
<svg version="1.1" id="Layer_1" xmlns="http://www.w3.org/2000/svg" xmlns:xlink="http://www.w3.org/1999/xlink" x="0px" y="0px"
	 viewBox="0 0 1600 850" style="enable-background:new 0 0 1600 850;" xml:space="preserve">
<style type="text/css">
	.st0{fill:#DD5089;}
	.st1{fill:#FDFDFE;}
</style>
<rect id="XMLID_6_" x="234.6" y="647.1" class="st0" width="531" height="189"/>
<g id="XMLID_155_">
	<path id="XMLID_156_" class="st1" d="M341.9,697.1c0,3.7-0.2,9.3-0.5,16.7c-0.3,7.4-0.5,13-0.5,16.8v32.2c0,0.9-0.5,1.3-1.4,1.3
		c-0.8,0-2,0-3.5,0.1c-1.6,0.1-2.8,0.1-3.5,0.1c-0.8,0-2.1-0.1-3.8-0.2c-1.7-0.1-3-0.2-3.8-0.2c-0.6,0-1.3-0.5-2.1-1.6
		c-2.3-3.2-7.6-10.2-15.8-21c-2.2-3-5.7-7.5-10.3-13.4c-0.1-0.2-0.4-0.4-0.7-0.6c-0.3,0.2-0.4,0.6-0.4,1.1c0,3.8,0.1,9.4,0.3,17
		c0.2,7.6,0.3,13.2,0.3,17c0,1.1-0.4,1.7-1.3,1.7H278c-0.9,0-1.4-0.5-1.4-1.5c0-3.5,0.2-8.8,0.5-15.9c0.3-7.1,0.5-12.4,0.5-16
		c0-3.7-0.2-9.3-0.5-16.8c-0.3-7.5-0.5-13-0.5-16.7c0-0.7,0.6-1.1,1.9-1.1c1.9,0,4.2-0.1,7-0.4c0.7-0.1,1.9-0.3,3.9-0.6
		c1.6-0.3,2.9-0.4,3.9-0.4c0.4,0,1,0.6,1.8,1.7l18.2,25c1.6,2.2,4.1,5.5,7.4,9.9c0.8,1,1.5,1.5,2.1,1.5c0.4,0,0.6-1.3,0.6-3.8
		c0-3.4-0.2-8.6-0.6-15.4c-0.4-6.9-0.6-12-0.6-15.5c0-1.2,0.3-1.8,1-1.8c2,0,4.9-0.1,8.8-0.2c3.9-0.2,6.9-0.2,8.8-0.2
		C341.6,695.6,341.9,696.1,341.9,697.1z"/>
	<path id="XMLID_158_" class="st1" d="M399.8,739.7c0,2.5,0.1,6.2,0.4,11.2c0.3,4.9,0.4,8.7,0.4,11.1c0,1.3-0.6,2-1.7,2.1
		c-4,0.3-8.7,0.4-13.9,0.4c-0.6,0-1-0.9-1.2-2.8c-0.2-1.9-0.5-2.8-0.8-2.9c-0.3,0.1-0.6,0.4-1,0.8c-3.6,3.7-7.6,5.5-11.7,5.5
		c-6.3,0-11.6-2.5-15.8-7.5c-3.9-4.7-5.9-10.3-5.9-16.8c0-7.5,2-13.6,6.1-18.2c4.2-4.8,10-7.1,17.4-7.1c5.1,0,9.1,1.8,12.1,5.4
		c0.1,0.2,0.2,0.2,0.3,0.2c0.3,0,0.6-0.8,1-2.4c0.4-1.6,0.8-2.4,1.3-2.4c1.2,0,3.5,0.3,6.9,1c3.2,0.7,5.5,1.2,6.9,1.7
		c0.5,0.2,0.7,0.5,0.7,0.8c0,0.1,0,0.5-0.1,1C400.3,726.9,399.8,733.1,399.8,739.7z M384,740c0-2.8-0.9-5.1-2.6-6.9
		c-1.7-1.8-4-2.7-6.8-2.7c-2.8,0-5.1,0.9-6.8,2.7c-1.7,1.8-2.6,4.1-2.6,6.9c0,2.6,0.9,4.9,2.7,6.8c1.8,1.9,4,2.8,6.6,2.8
		c2.8,0,5-0.9,6.8-2.7S384,742.8,384,740z"/>
	<path id="XMLID_161_" class="st1" d="M458,762.7c0,0.9-0.5,1.4-1.4,1.5c-0.9,0.1-3.3,0.2-7.1,0.2c-4.1,0-6.6-0.1-7.6-0.3
		s-1.5-0.9-1.5-2c0-1.5,0-3.8,0.1-6.9c0.1-3.1,0.1-5.4,0.1-7c0-1.2,0-3-0.1-5.4c-0.1-2.4-0.1-4.2-0.1-5.4c0-4.5-1.9-6.7-5.8-6.7
		c-1.3,0-2.8,0.6-4.4,1.7c-1.8,1.2-2.7,2.5-2.7,3.7v26.4c0,1.1-0.5,1.7-1.5,1.8c-1.1,0.1-3.5,0.2-7,0.2c-3.8,0-6.3-0.1-7.4-0.3
		c-1-0.2-1.5-0.7-1.5-1.6c0-2.5,0-6.4,0-11.5c0-5.1,0-9,0-11.5c0-8.1-0.6-14.5-1.9-19.1c-0.1-0.3-0.1-0.5-0.1-0.7
		c0-0.5,0.2-0.9,0.7-1.1c2.1-0.2,4.8-0.6,8.2-1.1c5.2-1,8.1-1.5,8.7-1.5c0.4,0,0.6,1.1,0.8,3.3s0.5,3.3,0.8,3.3
		c-0.4,0,1.4-1.1,5.2-3.4c3.9-2.3,7.2-3.4,10.1-3.4c4.1,0,7.6,1,10.4,2.9c3.1,2.2,4.6,5.4,4.6,9.4v15.6c0,2.1,0,5.3,0,9.5
		C458,757.4,458,760.5,458,762.7z"/>
	<path id="XMLID_163_" class="st1" d="M513.1,740.1c0,7.4-2.3,13.4-6.8,18.1c-4.5,4.6-10.5,6.9-17.9,6.9c-7.2,0-13.1-2.3-17.7-6.8
		c-4.6-4.6-6.9-10.4-6.9-17.6c0-7.6,2.2-13.7,6.6-18.4c4.4-4.7,10.4-7.1,18-7.1c7.4,0,13.3,2.3,17.9,6.9
		C510.9,726.7,513.1,732.7,513.1,740.1z M497.1,740.1c0-2.6-0.8-4.8-2.4-6.8c-1.6-2-3.7-3-6.2-3c-2.6,0-4.7,1-6.3,3
		c-1.6,1.9-2.3,4.1-2.3,6.7c0,2.6,0.8,4.9,2.3,6.8c1.7,2,3.8,3,6.3,3c2.5,0,4.6-1,6.3-3C496.4,745,497.1,742.7,497.1,740.1z"/>
	<path id="XMLID_166_" class="st1" d="M577.1,743c0,6-1.9,11-5.6,14.9c-4.3,4.5-11.8,6.8-22.5,6.8c-0.8,0-2,0-3.5,0
		c-1.6,0-2.7,0-3.5,0c-12,0-19.2-0.2-21.4-0.7c-0.9-0.2-1.4-0.7-1.4-1.5c0-3.5,0.2-8.8,0.6-15.8c0.4-7.1,0.6-12.4,0.6-15.9
		c0-3.8-0.2-10.9-0.6-21.3c-0.1-2.7-0.3-6.7-0.5-12l0-0.7c0-0.6,0.5-1,1.5-1.1c1.1-0.1,4.8-0.2,11.3-0.2c10.4,0,16.5,0,18.2,0.1
		c8,0.3,13.9,1.6,17.7,3.9c5,3.1,7.6,8.3,7.6,15.7c0,1.9-0.6,4-1.8,6.1c-0.8,1.5-2,3.1-3.3,4.6c-1.2,1.3-1.8,2-1.8,1.9
		c0,0.2,0.4,0.6,1.3,1.1c2.3,1.3,4.1,3.4,5.4,6.2C576.5,737.4,577.1,740.1,577.1,743z M556.1,715.5c0-2.8-1.4-4.7-4.2-5.6
		c-1.6-0.5-4.1-0.7-7.7-0.7c-3.5,0-5.3,0.3-5.3,0.8c0,0.6-0.1,1.6-0.2,2.8c-0.1,1.3-0.2,2.2-0.2,2.8c0,3.3,0.3,5.1,0.8,5.5
		c0.4,0.3,2.4,0.4,6.2,0.4C552.6,721.5,556.1,719.5,556.1,715.5z M557.6,742.8c0-2.9-1.2-4.9-3.7-6c-1.6-0.7-4.1-1-7.6-1
		c-4.2,0-6.5,0.2-6.8,0.5c-0.4,0.3-0.5,2.3-0.5,6c0,3.8,0.2,6,0.6,6.4c0.4,0.4,2.8,0.6,7,0.6c3.5,0,6-0.3,7.4-0.8
		C556.4,747.5,557.6,745.6,557.6,742.8z"/>
	<path id="XMLID_170_" class="st1" d="M629.9,740.1c0,7.4-2.3,13.4-6.8,18.1c-4.5,4.6-10.5,6.9-17.9,6.9c-7.2,0-13.1-2.3-17.7-6.8
		c-4.6-4.6-6.9-10.4-6.9-17.6c0-7.6,2.2-13.7,6.6-18.4c4.4-4.7,10.4-7.1,18-7.1c7.4,0,13.3,2.3,17.9,6.9
		C627.7,726.7,629.9,732.7,629.9,740.1z M613.9,740.1c0-2.6-0.8-4.8-2.4-6.8c-1.6-2-3.7-3-6.2-3c-2.6,0-4.7,1-6.3,3
		c-1.6,1.9-2.3,4.1-2.3,6.7c0,2.6,0.8,4.9,2.3,6.8c1.7,2,3.8,3,6.3,3c2.5,0,4.6-1,6.3-3C613.1,745,613.9,742.7,613.9,740.1z"/>
	<path id="XMLID_173_" class="st1" d="M668.5,749.8c0,1-0.1,2.5-0.4,4.4c-0.2,2-0.4,3.4-0.4,4.4s-0.1,1.5-0.3,1.8
		c-0.2,0.3-0.7,0.6-1.6,1.1c-4.2,2.3-8.9,3.5-14,3.5c-9.4,0-14.1-3.6-14.1-10.8c0-2.1,0.1-5.4,0.2-9.7c0.2-4.3,0.2-7.5,0.2-9.7
		c0-1.4-0.8-2.1-2.5-2.1c-0.1,0-0.3,0-0.6,0c-0.3,0-0.5,0-0.6,0c-1.2,0-1.9-0.4-1.9-1.3c0-0.5,0-1.3,0.1-2.4
		c0.1-1.1,0.1-1.9,0.1-2.4c0-0.7,0-1.7-0.1-3.1c-0.1-1.4-0.1-2.4-0.1-3.1c0-0.7,1-1,3.1-1.1c1.2,0,1.8-0.4,1.9-1
		c0.2-1.2,0.3-3.2,0.2-5.9c-0.1-4.2-0.2-6.2-0.2-6c0-3.8,0.4-5.7,1.1-5.7c0.9,0,2.1,0.2,3.8,0.6c1.9,0.4,3.1,0.7,3.9,0.7
		c1.7,0.2,4.2,0.5,7.5,0.9c0.8,0.1,1.2,0.3,1.2,0.8c0,1.3-0.1,3.3-0.3,5.9c-0.2,2.6-0.3,4.6-0.3,6c0,1.6,0.5,2.4,1.4,2.4
		c1.1,0,2.9,0,5.2-0.1c2.3-0.1,4.1-0.1,5.2-0.1c0.7,0,1.1,0.2,1.1,0.7c0,0.7-0.1,1.9-0.2,3.4c-0.2,1.5-0.2,2.6-0.2,3.4
		c0,0.8,0,1.9,0,3.4c0,1.5,0,2.6,0,3.4c0,0.7-0.5,1-1.4,1c-0.7,0-1.7,0-3.3-0.1c-1.5,0-2.6-0.1-3.3-0.1h-3.7c-0.5,0-0.7,0.7-0.7,2.1
		c0,0.8,0,1.9,0,3.5c0,1.6,0,2.7,0,3.5c0,2.7,0.3,4.6,0.9,5.7c0.9,1.4,2.6,2.1,5.2,2.1c0.8,0,2-0.2,3.5-0.6c1.5-0.4,2.6-0.6,3.2-0.6
		C668.2,748.7,668.5,749.1,668.5,749.8z"/>
	<path id="XMLID_175_" class="st1" d="M702.2,724.6c0,0.3-0.2,0.8-0.7,1.3c-0.9-0.2-1.8-0.3-2.7-0.3c-1.9,0-3.5,0.4-4.8,1.3
		c-1.6,1-2.3,2.4-2.3,4.2c0,1.1,0.8,2.6,2.5,4.3c2.5,2.6,4.1,4.4,4.6,5.3c1.7,2.5,2.5,5.1,2.5,8c0,1.7-0.3,3.4-1,5.3
		c-0.7,2.1-1.7,3.5-2.8,4.5c-2.4,2.1-5.2,3.8-8.4,5.3c-3.5,1.5-6.7,2.2-9.6,2.2c-0.7,0-2.1-1.8-4.4-5.3c-2.3-3.5-3.4-5.7-3.4-6.5
		c0-0.3,0.2-0.5,0.5-0.5c2.3-0.4,4.6-0.8,6.9-1.3c2.9-0.9,4.3-2.4,4.3-4.5c0-1.4-0.8-3.1-2.5-5c-3-3.3-4.5-5-4.6-5.2
		c-1.7-2.3-2.5-4.8-2.5-7.4c0-4.9,2.5-9,7.4-12.5c4.4-3,9.2-4.5,14.2-4.5c0.5,0,1.8,1.8,3.9,5.2C701.2,721.9,702.2,724,702.2,724.6z
		"/>
</g>
<rect id="XMLID_11_" x="18.6" y="359.1" class="st0" width="523.5" height="177"/>
<g id="XMLID_135_">
	<path id="XMLID_136_" class="st1" d="M129.9,428.5c0,9.6-3.1,17.9-9.2,24.9c-5.4,6.3-13.1,9.6-22.9,9.9c-1.9,0.1-7.1,0.1-15.6,0.1
		c-1.6,0-4,0-7.2-0.1c-3.2-0.1-5.6-0.1-7.2-0.1c-0.9,0-1.4-0.4-1.4-1.1c0-3.6,0.1-9,0.4-16.1c0.3-7.2,0.4-12.6,0.4-16.1
		c0-3.7-0.1-9.4-0.4-16.8c-0.3-7.5-0.4-13.1-0.4-16.8c0-0.7,0.5-1.1,1.4-1.2c2.3-0.3,6.1-0.4,11.4-0.4c10,0,16.5,0.1,19.5,0.4
		c7.7,0.8,13.8,2.7,18.1,5.9c4.1,2.9,7.3,7,9.7,12.3C128.7,418.1,129.9,423.2,129.9,428.5z M111.2,428.5c0-5.5-1.6-10-4.9-13.5
		c-3.3-3.6-7.7-5.4-13.2-5.4c-5,0-7.5,0.7-7.5,2c0,1.9,0,4.8-0.1,8.7c-0.1,3.9-0.1,6.7-0.1,8.7c0,1.9,0,4.7,0.1,8.5
		c0.1,3.8,0.1,6.6,0.1,8.6c0,1.4,2.6,2.1,7.8,2.1c5.6,0,10.1-1.9,13.3-5.6C109.6,438.9,111.2,434.3,111.2,428.5z"/>
	<path id="XMLID_139_" class="st1" d="M185,428.3c0,6.3-0.2,10.2-0.6,11.5c-0.5,1.6-4.1,7.5-10.7,17.7c-1,1.6-3.7,5.3-8.1,11.1
		c-4.8,6.4-7.5,9.7-8.2,10.1c-0.8,0.5-5.8,0.7-15,0.7c-1.4,0-2.3-0.2-2.8-0.5c-0.4-1.3-1-2.9-1.6-4.7c-0.5-1.1-1-2.3-1.6-3.5
		c-0.7-1.7-1.1-2.8-1.1-3.4c0-0.6,0.3-0.9,0.8-0.9c9,0,13.6-2.1,13.6-6.2c0-0.4-2.2-3.6-6.6-9.7c-4.6-6.3-7.1-10.3-7.6-11.9
		c-0.3-0.9-0.4-4.3-0.4-10.1c0-1.2,0-2.9,0.1-5.3c0.1-2.4,0.1-4.1,0.1-5.3c0-0.8,0.5-1.3,1.6-1.3c1.7,0,4.2,0,7.5,0.1
		s5.9,0.1,7.5,0.1c0.7,0,1,0.5,1,1.5c0,0.9,0,2.3-0.1,4.1c-0.1,1.8-0.1,3.2-0.1,4.1c0,4.1,0.1,6.9,0.2,8.3c0.1,1.1,1.1,3.3,2.9,6.3
		c2,3.2,3.4,4.8,4.2,4.8c0.7,0,2-1.6,3.8-4.8c1.7-3,2.6-5.1,2.7-6.1c0.3-2.9,0.5-6,0.5-9.3c0-0.9-0.1-2.2-0.2-4
		c-0.2-1.8-0.2-3.1-0.2-4.1c0-0.6,0.3-0.9,1-0.9c1.7,0,4.1-0.1,7.4-0.2c3.3-0.1,5.8-0.2,7.4-0.2c0.8,0,1.4,0.4,1.7,1.3
		C184.8,419.4,185,422.8,185,428.3z"/>
	<path id="XMLID_141_" class="st1" d="M239.4,461.7c0,0.9-0.5,1.4-1.4,1.5c-0.9,0.1-3.3,0.2-7.1,0.2c-4.1,0-6.6-0.1-7.6-0.3
		s-1.5-0.9-1.5-2c0-1.5,0-3.8,0.1-6.9c0.1-3.1,0.1-5.4,0.1-7c0-1.2,0-3-0.1-5.4c-0.1-2.4-0.1-4.2-0.1-5.4c0-4.5-1.9-6.7-5.8-6.7
		c-1.3,0-2.8,0.6-4.4,1.7c-1.8,1.2-2.7,2.5-2.7,3.7v26.4c0,1.1-0.5,1.7-1.5,1.8c-1.1,0.1-3.5,0.2-7,0.2c-3.8,0-6.3-0.1-7.4-0.3
		c-1-0.2-1.5-0.7-1.5-1.6c0-2.5,0-6.4,0-11.5c0-5.1,0-9,0-11.5c0-8.1-0.6-14.5-1.9-19.1c-0.1-0.3-0.1-0.5-0.1-0.7
		c0-0.5,0.2-0.9,0.7-1.1c2.1-0.2,4.8-0.6,8.2-1.1c5.2-1,8.1-1.5,8.7-1.5c0.4,0,0.6,1.1,0.8,3.3s0.5,3.3,0.8,3.3
		c-0.4,0,1.4-1.1,5.2-3.4c3.9-2.3,7.2-3.4,10.1-3.4c4.1,0,7.6,1,10.4,2.9c3.1,2.2,4.6,5.4,4.6,9.4v15.6c0,2.1,0,5.3,0,9.5
		C239.4,456.4,239.4,459.5,239.4,461.7z"/>
	<path id="XMLID_143_" class="st1" d="M296.7,438.7c0,2.5,0.1,6.2,0.4,11.2c0.3,4.9,0.4,8.7,0.4,11.1c0,1.3-0.6,2-1.7,2.1
		c-4,0.3-8.7,0.4-13.9,0.4c-0.6,0-1-0.9-1.2-2.8c-0.2-1.9-0.5-2.8-0.8-2.9c-0.3,0.1-0.6,0.4-1,0.8c-3.6,3.7-7.6,5.5-11.7,5.5
		c-6.3,0-11.6-2.5-15.8-7.5c-3.9-4.7-5.9-10.3-5.9-16.8c0-7.5,2-13.6,6.1-18.2c4.2-4.8,10-7.1,17.4-7.1c5.1,0,9.1,1.8,12.1,5.4
		c0.1,0.2,0.2,0.2,0.3,0.2c0.3,0,0.6-0.8,1-2.4c0.4-1.6,0.8-2.4,1.3-2.4c1.2,0,3.5,0.3,6.9,1c3.2,0.7,5.5,1.2,6.9,1.7
		c0.5,0.2,0.7,0.5,0.7,0.8c0,0.1,0,0.5-0.1,1C297.2,425.9,296.7,432.1,296.7,438.7z M280.9,439c0-2.8-0.9-5.1-2.6-6.9
		c-1.7-1.8-4-2.7-6.8-2.7c-2.8,0-5.1,0.9-6.8,2.7c-1.7,1.8-2.6,4.1-2.6,6.9c0,2.6,0.9,4.9,2.7,6.8c1.8,1.9,4,2.8,6.6,2.8
		c2.8,0,5-0.9,6.8-2.7S280.9,441.8,280.9,439z"/>
	<path id="XMLID_146_" class="st1" d="M384.4,461.3c0,1.1-0.5,1.8-1.5,1.9s-3.4,0.2-7.2,0.2c-4,0-6.4-0.1-7.4-0.3s-1.5-1-1.5-2.4
		c0-1.5,0-3.7,0.1-6.7s0.1-5.2,0.1-6.7c0-5.7-0.1-9.7-0.2-12.2c-0.2-3.9-2-5.8-5.5-5.8c-1.5,0-3.1,0.6-4.6,1.9
		c-1.5,1.3-2.4,2.7-2.5,4.3c-0.1,1.4-0.2,5.4-0.2,12c0,1.5,0,3.8,0.1,7c0.1,3.1,0.1,5.4,0.1,7c0,1.1-0.5,1.6-1.4,1.6h-14.8
		c-0.9,0-1.4-0.7-1.4-2c0-1.5,0-3.8,0.1-6.9c0.1-3.1,0.1-5.4,0.1-6.9c0-1.2,0-3-0.1-5.5c-0.1-2.4-0.1-4.3-0.1-5.5c0-4.7-1.8-7-5.3-7
		c-1.4,0-3,0.6-4.6,1.7c-1.8,1.2-2.7,2.5-2.7,3.8c0,3,0,7.4,0,13.3c0,5.9,0,10.3,0,13.2c0,0.8-0.1,1.3-0.3,1.5s-0.7,0.3-1.5,0.4
		c-1.5,0.1-3.8,0.2-6.9,0.2c-2.1,0-4.4-0.1-7-0.3c-0.8-0.1-1.2-0.2-1.4-0.3c-0.1-0.2-0.2-0.7-0.2-1.5c0-2.6,0-6.5,0-11.7
		c0-5.2,0-9.1,0-11.7c0-5.3-0.4-11.3-1.2-18c-0.1-0.4-0.1-0.7-0.1-0.9c0-0.6,0.2-0.9,0.7-1.1c0.7-0.3,2.1-0.5,4.1-0.7
		c2.4-0.2,3.9-0.4,4.3-0.4c0.3-0.1,1.6-0.4,3.9-1c1.6-0.5,2.9-0.7,3.9-0.7c0.6,0,0.9,1.1,1,3.4c0,2.3,0.2,3.4,0.4,3.4
		c0.3-0.1,0.7-0.4,1.1-0.7c2.9-2.3,5.2-3.8,6.9-4.7c2.5-1.2,5.2-1.8,8.2-1.8c3,0,5.7,0.7,8,2c2.6,1.5,4.3,3.6,5.1,6.3
		c1.7-2.3,4.1-4.3,7.1-5.9c3-1.6,6-2.4,8.8-2.4c4.3,0,7.8,1,10.5,3c3.1,2.2,4.6,5.5,4.6,9.6c0,1.7,0,4.3-0.1,7.8s-0.1,6.1-0.1,7.8
		c0,2.1,0,5.1,0.1,9.3C384.4,456.1,384.4,459.2,384.4,461.3z"/>
	<path id="XMLID_148_" class="st1" d="M411.7,440.7c0,2.4,0,5.9,0.1,10.6c0.1,4.7,0.1,8.2,0.1,10.6c0,0.7-0.4,1.1-1.2,1.2
		c-1.1,0.2-3.6,0.3-7.5,0.3c-3.9,0-6.4-0.1-7.5-0.3c-0.7-0.1-1.2-0.3-1.3-0.6c-0.1-0.1-0.1-0.6-0.1-1.5c0-2.2,0-5.6,0.1-10.1
		c0.1-4.5,0.1-7.9,0.1-10.2c0-9.2-0.4-16.6-1.1-22.1c-0.1-0.5-0.1-0.9-0.1-1c0-0.7,0.4-1,1.3-1c0.9,0,2.3,0.1,4.2,0.3
		c1.9,0.2,3.3,0.3,4.2,0.3c0.9,0,2.4-0.1,4.2-0.2c1.9-0.2,3.3-0.2,4.2-0.2c0.8,0,1.2,0.3,1.2,1c0,0.1,0,0.4-0.1,0.9
		C412.1,424.9,411.7,432.3,411.7,440.7z M413,404.4c0,5.7-3.2,8.5-9.6,8.5c-2.7,0-5-0.7-6.8-2.1c-2-1.6-2.9-3.7-2.9-6.3
		c0-2.5,1-4.6,3-6.3c1.9-1.5,4.1-2.2,6.7-2.2c2.5,0,4.7,0.8,6.6,2.3C412,399.8,413,401.9,413,404.4z"/>
	<path id="XMLID_151_" class="st1" d="M453.5,431c0,0-1-0.3-3-0.8c-1.9-0.5-3.5-0.8-4.7-0.8c-2.9,0-5.2,0.9-6.9,2.6
		c-1.7,1.7-2.6,4.1-2.6,7c0,3,0.9,5.3,2.8,7.1c1.9,1.7,4.3,2.6,7.4,2.6c1.4,0,3-0.4,4.8-1.1c1.8-0.7,2.6-1.1,2.5-1.1
		c0.6,0,1.3,2.1,2.1,6.2c0.7,3.8,1.1,6.3,1.1,7.5c0,1.2-2,2.3-6.1,3.2c-3.1,0.7-5.6,1-7.6,1c-7.2,0-13.1-2.4-17.7-7.2
		c-4.7-4.8-7-10.8-7-18c0-7.1,2.3-13.1,7-18c4.7-4.9,10.6-7.3,17.7-7.3c4.9,0,9.1,1,12.8,3.1c0.8,0.5,1.3,0.9,1.3,1.3
		c0,0.4-0.5,2.3-1.5,5.8c-0.9,3.3-1.5,5.3-1.8,6C454.1,430.6,453.8,431,453.5,431z"/>
	<path id="XMLID_153_" class="st1" d="M491.3,423.6c0,0.3-0.2,0.8-0.7,1.3c-0.9-0.2-1.8-0.3-2.7-0.3c-1.9,0-3.5,0.4-4.8,1.3
		c-1.6,1-2.3,2.4-2.3,4.2c0,1.1,0.8,2.6,2.5,4.3c2.5,2.6,4.1,4.4,4.6,5.3c1.7,2.5,2.5,5.1,2.5,8c0,1.7-0.3,3.4-1,5.3
		c-0.7,2.1-1.7,3.5-2.8,4.5c-2.4,2.1-5.2,3.8-8.4,5.3c-3.5,1.5-6.7,2.2-9.6,2.2c-0.7,0-2.1-1.8-4.4-5.3c-2.3-3.5-3.4-5.7-3.4-6.5
		c0-0.3,0.2-0.5,0.5-0.5c2.3-0.4,4.6-0.8,6.9-1.3c2.9-0.9,4.3-2.4,4.3-4.5c0-1.4-0.8-3.1-2.5-5c-3-3.3-4.5-5-4.6-5.2
		c-1.7-2.3-2.5-4.8-2.5-7.4c0-4.9,2.5-9,7.4-12.5c4.4-3,9.2-4.5,14.2-4.5c0.5,0,1.8,1.8,3.9,5.2C490.3,421,491.3,423,491.3,423.6z"
		/>
</g>
<rect id="XMLID_4_" x="979.1" y="508.1" class="st0" width="451" height="177"/>
<g id="XMLID_115_">
	<path id="XMLID_116_" class="st1" d="M1096.4,609.5c0,1-0.5,1.5-1.4,1.5h-17.3c-0.9,0-1.4-0.6-1.4-1.7c0-3.3,0.1-8.2,0.4-14.8
		c0.2-6.6,0.4-11.5,0.4-14.8c0-0.9-0.1-1.4-0.4-1.5c-0.4,0.2-2.5,5.2-6.5,15.1c-2.3,5.8-4.7,11.6-7,17.3c-0.3,0.7-0.7,1.2-1.2,1.3
		c-0.2,0-0.8,0-2,0c-1.7,0-2.7-0.3-3-1c-1.8-3.6-4.1-8.8-6.9-15.6c-3.1-7.2-5.4-12.5-6.9-15.7c-0.1-0.2-0.2-0.3-0.4-0.5
		c-0.2,0.3-0.3,0.8-0.3,1.4c0,3.2,0.1,8,0.2,14.4c0.2,6.4,0.2,11.2,0.2,14.4c0,1.1-0.5,1.7-1.4,1.7H1025c-0.7,0-1-0.1-1.2-0.3
		c-0.1-0.2-0.2-0.6-0.2-1.1c0-3.5,0.2-8.9,0.5-16c0.3-7.1,0.5-12.4,0.5-16c0-3.8-0.2-10.9-0.5-21.2c0-2.7-0.2-6.7-0.4-12.1l0-0.8
		c0-0.7,0.7-1,2.1-1c1.8,0,4.5-0.1,8.1-0.2c3.6-0.1,6.3-0.2,8.1-0.2c0.4,0,0.9,0.7,1.5,2.1l14.3,31.3c1,2.1,1.9,3.2,2.5,3.2
		c0.4,0,1.1-1.2,2.3-3.7c3.3-6.8,8.2-17.1,14.6-30.9c0.6-1.3,1.2-1.9,1.8-1.9c0.9,0,2.4,0,4.3,0.1s3.3,0.1,4.3,0.1
		c0.8,0,2.1-0.1,3.7-0.2c1.7-0.2,2.9-0.2,3.7-0.2c1,0,1.5,0.4,1.5,1.2c0,3.8-0.1,9.6-0.4,17.2c-0.3,7.6-0.4,13.4-0.4,17.2
		c0,3.5,0.1,8.9,0.4,16C1096.2,600.7,1096.4,606,1096.4,609.5z"/>
	<path id="XMLID_118_" class="st1" d="M1123.2,588.6c0,2.4,0,5.9,0.1,10.6c0.1,4.7,0.1,8.2,0.1,10.6c0,0.7-0.4,1.1-1.2,1.2
		c-1.1,0.2-3.6,0.3-7.5,0.3c-3.9,0-6.4-0.1-7.5-0.3c-0.7-0.1-1.2-0.3-1.3-0.6c-0.1-0.1-0.1-0.6-0.1-1.5c0-2.2,0-5.6,0.1-10.1
		c0.1-4.5,0.1-7.9,0.1-10.2c0-9.2-0.4-16.6-1.1-22.1c-0.1-0.5-0.1-0.9-0.1-1c0-0.7,0.4-1,1.3-1c0.9,0,2.3,0.1,4.2,0.3
		c1.9,0.2,3.3,0.3,4.2,0.3c0.9,0,2.4-0.1,4.2-0.2c1.9-0.2,3.3-0.2,4.2-0.2c0.8,0,1.2,0.3,1.2,1c0,0.1,0,0.4-0.1,0.9
		C1123.5,572.9,1123.2,580.3,1123.2,588.6z M1124.4,552.4c0,5.7-3.2,8.5-9.6,8.5c-2.7,0-5-0.7-6.8-2.1c-2-1.6-2.9-3.7-2.9-6.3
		c0-2.5,1-4.6,3-6.3c1.9-1.5,4.1-2.2,6.7-2.2c2.5,0,4.7,0.8,6.6,2.3C1123.5,547.8,1124.4,549.9,1124.4,552.4z"/>
	<path id="XMLID_121_" class="st1" d="M1150.4,581.7c0,8.9,0,15.7,0.1,20.5c0,0.7,0,2,0.1,3.9c0.1,1.7,0.1,2.9,0.1,3.9
		c0,0.7-0.4,1.1-1.2,1.2c-1.5,0.3-4.1,0.4-7.9,0.4c-3.9,0-6.4-0.1-7.5-0.4c-0.7-0.2-1.1-0.6-1.2-1.3c0-0.1,0-0.8,0-2.1
		c0-2.9,0-7.2,0.1-13c0.1-5.8,0.1-10.1,0.1-13c0-13.7,0-19.9,0-18.7c-0.1-7.2-0.5-13.4-1.2-18.6c-0.1-0.4-0.1-0.6-0.1-0.8
		c0-0.7,0.4-1.1,1.3-1.1h17.4c0.8,0,1.2,0.3,1.1,1l0,0.9C1150.8,558.4,1150.4,570.9,1150.4,581.7z"/>
	<path id="XMLID_123_" class="st1" d="M1177.4,588.6c0,2.4,0,5.9,0.1,10.6c0.1,4.7,0.1,8.2,0.1,10.6c0,0.7-0.4,1.1-1.2,1.2
		c-1.1,0.2-3.6,0.3-7.5,0.3c-3.9,0-6.4-0.1-7.5-0.3c-0.7-0.1-1.2-0.3-1.3-0.6c-0.1-0.1-0.1-0.6-0.1-1.5c0-2.2,0-5.6,0.1-10.1
		c0.1-4.5,0.1-7.9,0.1-10.2c0-9.2-0.4-16.6-1.1-22.1c-0.1-0.5-0.1-0.9-0.1-1c0-0.7,0.4-1,1.3-1c0.9,0,2.3,0.1,4.2,0.3
		c1.9,0.2,3.3,0.3,4.2,0.3c0.9,0,2.4-0.1,4.2-0.2c1.9-0.2,3.3-0.2,4.2-0.2c0.8,0,1.2,0.3,1.2,1c0,0.1,0,0.4-0.1,0.9
		C1177.7,572.9,1177.4,580.3,1177.4,588.6z M1178.6,552.4c0,5.7-3.2,8.5-9.6,8.5c-2.7,0-5-0.7-6.8-2.1c-2-1.6-2.9-3.7-2.9-6.3
		c0-2.5,1-4.6,3-6.3c1.9-1.5,4.1-2.2,6.7-2.2c2.5,0,4.7,0.8,6.6,2.3C1177.7,547.8,1178.6,549.9,1178.6,552.4z"/>
	<path id="XMLID_126_" class="st1" d="M1219.5,596.8c0,1-0.1,2.5-0.4,4.4c-0.2,2-0.4,3.4-0.4,4.4s-0.1,1.5-0.3,1.8
		c-0.2,0.3-0.7,0.6-1.6,1.1c-4.2,2.3-8.9,3.5-14,3.5c-9.4,0-14.1-3.6-14.1-10.8c0-2.1,0.1-5.4,0.2-9.7c0.2-4.3,0.2-7.5,0.2-9.7
		c0-1.4-0.8-2.1-2.5-2.1c-0.1,0-0.3,0-0.6,0c-0.3,0-0.5,0-0.6,0c-1.2,0-1.9-0.4-1.9-1.3c0-0.5,0-1.3,0.1-2.4
		c0.1-1.1,0.1-1.9,0.1-2.4c0-0.7,0-1.7-0.1-3.1c-0.1-1.4-0.1-2.4-0.1-3.1c0-0.7,1-1,3.1-1.1c1.2,0,1.8-0.4,1.9-1
		c0.2-1.2,0.3-3.2,0.2-5.9c-0.1-4.2-0.2-6.2-0.2-6c0-3.8,0.4-5.7,1.1-5.7c0.9,0,2.1,0.2,3.8,0.6c1.9,0.4,3.1,0.7,3.9,0.7
		c1.7,0.2,4.2,0.5,7.5,0.9c0.8,0.1,1.2,0.3,1.2,0.8c0,1.3-0.1,3.3-0.3,5.9c-0.2,2.6-0.3,4.6-0.3,6c0,1.6,0.5,2.4,1.4,2.4
		c1.1,0,2.9,0,5.2-0.1c2.3-0.1,4.1-0.1,5.2-0.1c0.7,0,1.1,0.2,1.1,0.7c0,0.7-0.1,1.9-0.2,3.4c-0.2,1.5-0.2,2.6-0.2,3.4
		c0,0.8,0,1.9,0,3.4c0,1.5,0,2.6,0,3.4c0,0.7-0.5,1-1.4,1c-0.7,0-1.7,0-3.3-0.1c-1.5,0-2.6-0.1-3.3-0.1h-3.7c-0.5,0-0.7,0.7-0.7,2.1
		c0,0.8,0,1.9,0,3.5c0,1.6,0,2.7,0,3.5c0,2.7,0.3,4.6,0.9,5.7c0.9,1.4,2.6,2.1,5.2,2.1c0.8,0,2-0.2,3.5-0.6c1.5-0.4,2.6-0.6,3.2-0.6
		C1219.1,595.7,1219.5,596,1219.5,596.8z"/>
	<path id="XMLID_128_" class="st1" d="M1273.7,586.6c0,2.5,0.1,6.2,0.4,11.2c0.3,4.9,0.4,8.7,0.4,11.1c0,1.3-0.6,2-1.7,2.1
		c-4,0.3-8.7,0.4-13.9,0.4c-0.6,0-1-0.9-1.2-2.8c-0.2-1.9-0.5-2.8-0.8-2.9c-0.3,0.1-0.6,0.4-1,0.8c-3.6,3.7-7.6,5.5-11.7,5.5
		c-6.3,0-11.6-2.5-15.8-7.5c-3.9-4.7-5.9-10.3-5.9-16.8c0-7.5,2-13.6,6.1-18.2c4.2-4.8,10-7.1,17.4-7.1c5.1,0,9.1,1.8,12.1,5.4
		c0.1,0.2,0.2,0.2,0.3,0.2c0.3,0,0.6-0.8,1-2.4c0.4-1.6,0.8-2.4,1.3-2.4c1.2,0,3.5,0.3,6.9,1c3.2,0.7,5.5,1.2,6.9,1.7
		c0.5,0.2,0.7,0.5,0.7,0.8c0,0.1,0,0.5-0.1,1C1274.2,573.8,1273.7,580.1,1273.7,586.6z M1257.9,586.9c0-2.8-0.9-5.1-2.6-6.9
		c-1.7-1.8-4-2.7-6.8-2.7c-2.8,0-5.1,0.9-6.8,2.7c-1.7,1.8-2.6,4.1-2.6,6.9c0,2.6,0.9,4.9,2.7,6.8c1.8,1.9,4,2.8,6.6,2.8
		c2.8,0,5-0.9,6.8-2.7S1257.9,589.7,1257.9,586.9z"/>
	<path id="XMLID_131_" class="st1" d="M1315.8,580.6c0,1.3-0.7,1.9-2.1,1.9c-0.6,0-1.5,0-2.7-0.1c-1.2-0.1-2.1-0.1-2.7-0.1
		c-2.7,0-4.5,0.4-5.5,1.3c-1,0.8-1.5,2.6-1.5,5.1c0,1.4,0,3.5,0.1,6.4c0,2.8,0.1,5,0.1,6.4c0,0.9,0.1,2.4,0.2,4.2
		c0.1,1.9,0.2,3.3,0.2,4.2c0,0.8-0.5,1.2-1.6,1.3c-1.6,0.1-4,0.2-7.2,0.2c-3.1,0-5.6-0.1-7.4-0.3c-1.1-0.1-1.6-0.7-1.6-1.6
		c0-2.6,0-6.5,0-11.7c0-5.2,0-9.1,0-11.7c0-7.6-0.7-13.9-2.1-18.9c-0.1-0.3-0.1-0.5-0.1-0.7c0-0.5,0.2-0.8,0.7-1
		c1.8-0.2,4.4-0.6,7.9-1.1c5.1-1,7.8-1.5,8-1.5c0.6,0,1,1,1.1,3.1c0.2,2.1,0.5,3.1,0.9,3.1c-0.5,0,0.9-0.9,4-2.6s6.1-2.6,9-2.6
		c1.8,0,2.7,0.4,2.7,1.2c0,0.9-0.1,2.3-0.3,4c-0.2,1.9-0.3,3.2-0.3,4c0,0.9,0,2.2,0,3.8C1315.7,578.8,1315.8,580,1315.8,580.6z"/>
	<path id="XMLID_133_" class="st1" d="M1369.4,576.2c0,6.3-0.2,10.2-0.6,11.5c-0.5,1.6-4.1,7.5-10.7,17.7c-1,1.6-3.7,5.3-8.1,11.1
		c-4.8,6.4-7.5,9.7-8.2,10.1c-0.8,0.5-5.8,0.7-15,0.7c-1.4,0-2.3-0.2-2.8-0.5c-0.4-1.3-1-2.9-1.6-4.7c-0.5-1.1-1-2.3-1.6-3.5
		c-0.7-1.7-1.1-2.8-1.1-3.4c0-0.6,0.3-0.9,0.8-0.9c9,0,13.6-2.1,13.6-6.2c0-0.4-2.2-3.6-6.6-9.7c-4.6-6.3-7.1-10.3-7.6-11.9
		c-0.3-0.9-0.4-4.3-0.4-10.1c0-1.2,0-2.9,0.1-5.3c0.1-2.4,0.1-4.1,0.1-5.3c0-0.8,0.5-1.3,1.6-1.3c1.7,0,4.2,0,7.5,0.1
		s5.9,0.1,7.5,0.1c0.7,0,1,0.5,1,1.5c0,0.9,0,2.3-0.1,4.1c-0.1,1.8-0.1,3.2-0.1,4.1c0,4.1,0.1,6.9,0.2,8.3c0.1,1.1,1.1,3.3,2.9,6.3
		c2,3.2,3.4,4.8,4.2,4.8c0.7,0,2-1.6,3.8-4.8c1.7-3,2.6-5.1,2.7-6.1c0.3-2.9,0.5-6,0.5-9.3c0-0.9-0.1-2.2-0.2-4
		c-0.2-1.8-0.2-3.1-0.2-4.1c0-0.6,0.3-0.9,1-0.9c1.7,0,4.1-0.1,7.4-0.2c3.3-0.1,5.8-0.2,7.4-0.2c0.8,0,1.4,0.4,1.7,1.3
		C1369.2,567.3,1369.4,570.8,1369.4,576.2z"/>
</g>
<rect id="XMLID_1_" x="990.6" y="21" class="st0" width="588" height="392.1"/>
<g id="XMLID_63_">
	<path id="XMLID_64_" class="st1" d="M1181.8,111.6c0,0.7-0.1,1.1-0.4,1.3c-0.1,0.1-0.6,0.2-1.4,0.2c-2,0.2-4.8,0.3-8.4,0.3
		c-5.1,0-8.1-0.1-9-0.3s-1.3-0.6-1.3-1.3c0-2.6,0.1-6.4,0.4-11.6c0.2-5.2,0.4-9,0.4-11.6c0-1.3-0.4-2-1.1-2.2
		c-1.1-0.3-5-0.4-11.8-0.4c-6.8,0-10.8,0.1-11.9,0.4c-0.7,0.2-1.1,0.9-1.1,2.2c0,2.5,0.1,6.3,0.2,11.4c0.2,5.1,0.2,8.9,0.2,11.4
		c0,1-0.4,1.5-1.3,1.7c-1,0.2-4.1,0.3-9.2,0.3c-4.4,0-7.2-0.1-8.4-0.3c-0.9-0.2-1.4-0.7-1.4-1.5c0-3.5,0.2-8.8,0.5-15.9
		c0.3-7.1,0.5-12.4,0.5-16c0-3.8-0.2-9.4-0.5-17c-0.3-7.6-0.5-13.2-0.5-17c0-0.7,0.3-1.1,1-1.1c1,0,2.5,0,4.6,0.1s3.6,0.1,4.6,0.1
		c1,0,2.6,0,4.7-0.1s3.7-0.1,4.7-0.1c0.6,0,0.8,0.3,0.8,0.9c0,2.4-0.2,6.1-0.5,11c-0.4,4.9-0.5,8.5-0.5,11c0,1.1,0.3,1.8,0.9,2
		c0.8,0.3,5,0.4,12.5,0.4c7,0,11-0.1,12.1-0.4c0.8-0.2,1.2-0.9,1.2-2c0-2.3-0.1-5.9-0.3-10.6c-0.2-4.7-0.3-8.3-0.3-10.7
		c0-1,0.4-1.5,1.2-1.5c0.9,0,2.4,0,4.3,0.1s3.4,0.1,4.4,0.1c0.9,0,2.4,0,4.3-0.1s3.4-0.1,4.4-0.1c0.9,0,1.4,0.4,1.4,1.2
		c0,3.7-0.2,9.4-0.5,16.9c-0.3,7.6-0.5,13.2-0.5,17c0,3.5,0.2,8.9,0.5,16C1181.6,102.8,1181.8,108.1,1181.8,111.6z"/>
	<path id="XMLID_66_" class="st1" d="M1240.7,68.7c0,2.4-0.1,6-0.3,10.8c-0.2,4.8-0.3,8.4-0.3,10.8c0,2.3,0.1,5.9,0.2,10.5
		c0.2,4.7,0.2,8.2,0.2,10.5c0,0.9-0.4,1.4-1.2,1.7c-1.2,0.3-3.9,0.5-7.9,0.5c-3.5,0-6-0.1-7.4-0.3c-0.6-0.1-1-0.5-1.2-1.2
		c-0.1-1-0.2-2-0.3-2.9c-0.2-1.5-0.4-2.2-0.7-2.2c0.5,0-1.2,1.1-4.9,3.3c-3.7,2.2-7.1,3.3-10.2,3.3c-8.6,0-13.7-3.9-15.3-11.7
		c-0.7-3.6-1.1-8.9-1.1-15.7c0-7.4,0.6-13.3,1.8-17.6c0.4-1.3,1-2,2-2c1.5,0,3.8,0,6.8,0c3.1,0,5.3,0,6.8,0c1,0,1.5,0.4,1.5,1.3
		c0,0.2,0,0.6-0.1,1c-0.7,4.4-1,8.9-1,13.5c0,5.7,0.2,9.5,0.5,11.6c0.6,3.6,2.7,5.4,6.4,5.4c1.4,0,3-0.6,4.7-1.9s2.5-2.6,2.6-4
		c0.1-1.2,0.1-9.4,0.1-24.5c0-1.1,0.1-1.7,0.2-1.9c0.2-0.3,0.8-0.5,1.8-0.5c1.6,0,4,0,7.2,0c3.2,0,5.6,0,7.2,0c1,0,1.5,0.2,1.7,0.7
		C1240.6,67.8,1240.7,68.2,1240.7,68.7z"/>
	<path id="XMLID_68_" class="st1" d="M1326.8,111.3c0,1.1-0.5,1.8-1.5,1.9s-3.4,0.2-7.2,0.2c-4,0-6.4-0.1-7.4-0.3s-1.5-1-1.5-2.4
		c0-1.5,0-3.7,0.1-6.7s0.1-5.2,0.1-6.7c0-5.7-0.1-9.7-0.2-12.2c-0.2-3.9-2-5.8-5.5-5.8c-1.5,0-3.1,0.6-4.6,1.9
		c-1.5,1.3-2.4,2.7-2.5,4.3c-0.1,1.4-0.2,5.4-0.2,12c0,1.5,0,3.8,0.1,7c0.1,3.1,0.1,5.4,0.1,7c0,1.1-0.5,1.6-1.4,1.6h-14.8
		c-0.9,0-1.4-0.7-1.4-2c0-1.5,0-3.8,0.1-6.9c0.1-3.1,0.1-5.4,0.1-6.9c0-1.2,0-3-0.1-5.5c-0.1-2.4-0.1-4.3-0.1-5.5c0-4.7-1.8-7-5.3-7
		c-1.4,0-3,0.6-4.6,1.7c-1.8,1.2-2.7,2.5-2.7,3.8c0,3,0,7.4,0,13.3c0,5.9,0,10.3,0,13.2c0,0.8-0.1,1.3-0.3,1.5s-0.7,0.3-1.5,0.4
		c-1.5,0.1-3.8,0.2-6.9,0.2c-2.1,0-4.4-0.1-7-0.3c-0.8-0.1-1.2-0.2-1.4-0.3c-0.1-0.2-0.2-0.7-0.2-1.5c0-2.6,0-6.5,0-11.7
		c0-5.2,0-9.1,0-11.7c0-5.3-0.4-11.3-1.2-18c-0.1-0.4-0.1-0.7-0.1-0.9c0-0.6,0.2-0.9,0.7-1.1c0.7-0.3,2.1-0.5,4.1-0.7
		c2.4-0.2,3.9-0.4,4.3-0.4c0.3-0.1,1.6-0.4,3.9-1c1.6-0.5,2.9-0.7,3.9-0.7c0.6,0,0.9,1.1,1,3.4c0,2.3,0.2,3.4,0.4,3.4
		c0.3-0.1,0.7-0.4,1.1-0.7c2.9-2.3,5.2-3.8,6.9-4.7c2.5-1.2,5.2-1.8,8.2-1.8c3,0,5.7,0.7,8,2c2.6,1.5,4.3,3.6,5.1,6.3
		c1.7-2.3,4.1-4.3,7.1-5.9c3-1.6,6-2.4,8.8-2.4c4.3,0,7.8,1,10.5,3c3.1,2.2,4.6,5.5,4.6,9.6c0,1.7,0,4.3-0.1,7.8s-0.1,6.1-0.1,7.8
		c0,2.1,0,5.1,0.1,9.3C1326.7,106.2,1326.8,109.3,1326.8,111.3z"/>
	<path id="XMLID_70_" class="st1" d="M1385.1,88.7c0,2.5,0.1,6.2,0.4,11.2c0.3,4.9,0.4,8.7,0.4,11.1c0,1.3-0.6,2-1.7,2.1
		c-4,0.3-8.7,0.4-13.9,0.4c-0.6,0-1-0.9-1.2-2.8c-0.2-1.9-0.5-2.8-0.8-2.9c-0.3,0.1-0.6,0.4-1,0.8c-3.6,3.7-7.6,5.5-11.7,5.5
		c-6.3,0-11.6-2.5-15.8-7.5c-3.9-4.7-5.9-10.3-5.9-16.8c0-7.5,2-13.6,6.1-18.2c4.2-4.8,10-7.1,17.4-7.1c5.1,0,9.1,1.8,12.1,5.4
		c0.1,0.2,0.2,0.2,0.3,0.2c0.3,0,0.6-0.8,1-2.4c0.4-1.6,0.8-2.4,1.3-2.4c1.2,0,3.5,0.3,6.9,1c3.2,0.7,5.5,1.2,6.9,1.7
		c0.5,0.2,0.7,0.5,0.7,0.8c0,0.1,0,0.5-0.1,1C1385.6,75.9,1385.1,82.1,1385.1,88.7z M1369.4,89c0-2.8-0.9-5.1-2.6-6.9
		s-4-2.7-6.8-2.7c-2.8,0-5.1,0.9-6.8,2.7c-1.7,1.8-2.6,4.1-2.6,6.9c0,2.6,0.9,4.9,2.7,6.8c1.8,1.9,4,2.8,6.6,2.8
		c2.8,0,5-0.9,6.8-2.7S1369.4,91.8,1369.4,89z"/>
	<path id="XMLID_73_" class="st1" d="M1443.4,111.7c0,0.9-0.5,1.4-1.4,1.5c-0.9,0.1-3.3,0.2-7.1,0.2c-4.1,0-6.6-0.1-7.6-0.3
		s-1.5-0.9-1.5-2c0-1.5,0-3.8,0.1-6.9c0.1-3.1,0.1-5.4,0.1-7c0-1.2,0-3-0.1-5.4c-0.1-2.4-0.1-4.2-0.1-5.4c0-4.5-1.9-6.7-5.8-6.7
		c-1.3,0-2.8,0.6-4.4,1.7c-1.8,1.2-2.7,2.5-2.7,3.7v26.4c0,1.1-0.5,1.7-1.5,1.8c-1.1,0.1-3.5,0.2-7,0.2c-3.8,0-6.3-0.1-7.4-0.3
		c-1-0.2-1.5-0.7-1.5-1.6c0-2.5,0-6.4,0-11.5c0-5.1,0-9,0-11.5c0-8.1-0.6-14.5-1.9-19.1c-0.1-0.3-0.1-0.5-0.1-0.7
		c0-0.5,0.2-0.9,0.7-1.1c2.1-0.2,4.8-0.6,8.2-1.1c5.2-1,8.1-1.5,8.7-1.5c0.4,0,0.6,1.1,0.8,3.3s0.5,3.3,0.8,3.3
		c-0.4,0,1.4-1.1,5.2-3.4c3.9-2.3,7.2-3.4,10.1-3.4c4.1,0,7.6,1,10.4,2.9c3.1,2.2,4.6,5.4,4.6,9.4v15.6c0,2.1,0,5.3,0,9.5
		C1443.3,106.4,1443.4,109.6,1443.4,111.7z"/>
	<path id="XMLID_75_" class="st1" d="M1209.2,232.6c0,0.2-0.3,0.4-1,0.5c-1.2,0.2-4.3,0.3-9.3,0.3c-4.3,0-7.2-0.1-8.7-0.3
		c-0.7-0.1-1.1-0.2-1.2-0.2c-0.2-0.1-0.4-0.4-0.7-1c-0.5-1.3-1.2-3.2-2.1-5.7c-1.3-3.3-3.3-8.1-6-14.4c-0.6-1.3-1.9-2-4.1-2.1
		c1,0.1-0.7,0.1-5,0.1c-0.5,0-0.7,0.8-0.7,2.5c0,2.2,0.2,5.5,0.6,9.9s0.6,7.7,0.6,9.9c0,0.6-0.1,0.9-0.4,1c-0.5,0-0.9,0.1-1.4,0.1
		c-1.9,0.1-4.9,0.2-9,0.2c-4.7,0-7.5-0.1-8.4-0.3c-0.9-0.2-1.4-0.7-1.4-1.5c0-3.6,0.2-9,0.5-16.2s0.5-12.6,0.5-16.3
		c0-13.8-0.3-24.5-0.9-32.2l0-0.7c0-0.6,0.5-0.9,1.5-1.1s6-0.4,14.9-0.6c6-0.1,10.8-0.2,14.4-0.2c7.4,0,13.5,1.7,18.2,5
		c5.3,3.8,8,9.2,8,16.4c0,4.8-0.7,8.5-2.1,11.4s-3.9,5.6-7.6,8.3c-0.7,0.5-1.1,1-1.1,1.5c0,0,2,4.1,6,12.3
		C1207.2,227.3,1209.2,231.8,1209.2,232.6z M1188.7,188.8c0-4-1.3-6.7-3.9-8.3c-2-1.2-5.2-1.8-9.5-1.8c-3.1,0-4.7,0.5-4.9,1.4
		c-0.2,1.1-0.3,4.3-0.3,9.6c0,0.7,0,1.9,0,3.3c0,1.5,0,2.6,0,3.3c0,0.2,0.5,0.3,1.6,0.5c2,0.3,4.1,0.4,6.3,0.4
		C1185.1,197.3,1188.7,194.5,1188.7,188.8z"/>
	<path id="XMLID_78_" class="st1" d="M1261.3,209.1c0,7.4-2.3,13.4-6.8,18.1c-4.5,4.6-10.5,6.9-17.9,6.9c-7.2,0-13.1-2.3-17.7-6.8
		c-4.6-4.6-6.9-10.4-6.9-17.6c0-7.6,2.2-13.7,6.6-18.4c4.4-4.7,10.4-7.1,18-7.1c7.4,0,13.3,2.3,17.9,6.9
		C1259.1,195.8,1261.3,201.7,1261.3,209.1z M1245.3,209.1c0-2.6-0.8-4.8-2.4-6.8c-1.6-2-3.7-3-6.2-3c-2.6,0-4.7,1-6.3,3
		c-1.6,1.9-2.3,4.1-2.3,6.7c0,2.6,0.8,4.9,2.3,6.8c1.7,2,3.8,3,6.3,3c2.5,0,4.6-1,6.3-3C1244.6,214,1245.3,211.7,1245.3,209.1z"/>
	<path id="XMLID_81_" class="st1" d="M1320.2,209.2c0,6.8-2,12.5-5.9,17.1c-4.2,4.9-9.6,7.3-16.3,7.3c-4.9,0-8.8-1.4-11.8-4.2
		c-0.2-0.2-0.4-0.3-0.6-0.3c-0.3,0-0.6,0.6-0.9,1.8c-0.3,1.2-0.6,1.9-1,2c-0.6,0.2-5.2,0.2-13.9,0.2c-2.1,0-3.1-0.4-3.1-1.1
		c0-0.1,0-0.3,0.1-0.7c0.7-5.2,1-15,1-29.6c0-13.9-0.5-26-1.5-36.3l0-0.5c0-0.5,0.5-0.8,1.5-0.9c0.7,0,3.5-0.3,8.5-0.7
		c3.5-0.3,6.3-0.5,8.5-0.5c0.6,0,0.9,0.5,0.9,1.6c0,1.3-0.1,2.9-0.2,5c-0.2,2.6-0.3,4.3-0.3,5.1c-0.2,3.2-0.2,7.6-0.2,13.2
		c0,1,0.3,1.5,0.8,1.5c0.3,0,0.5-0.1,0.7-0.4c2.9-3.1,6.8-4.7,11.5-4.7c7.1,0,12.7,2.4,16.7,7.3
		C1318.3,196,1320.2,201.9,1320.2,209.2z M1302.5,208.7c0-2.7-0.8-5-2.5-6.9c-1.7-1.9-3.8-2.8-6.5-2.8c-2.7,0-4.9,0.9-6.5,2.8
		c-1.6,1.9-2.4,4.2-2.4,7c0,2.9,0.8,5.2,2.3,6.9c1.6,1.9,3.8,2.8,6.6,2.8c2.8,0,5-1,6.6-2.9C1301.7,213.9,1302.5,211.5,1302.5,208.7
		z"/>
	<path id="XMLID_84_" class="st1" d="M1373.1,209.1c0,7.4-2.3,13.4-6.8,18.1c-4.5,4.6-10.5,6.9-17.9,6.9c-7.2,0-13.1-2.3-17.7-6.8
		c-4.6-4.6-6.9-10.4-6.9-17.6c0-7.6,2.2-13.7,6.6-18.4c4.4-4.7,10.4-7.1,18-7.1c7.4,0,13.3,2.3,17.9,6.9
		C1370.8,195.8,1373.1,201.7,1373.1,209.1z M1357.1,209.1c0-2.6-0.8-4.8-2.4-6.8c-1.6-2-3.7-3-6.2-3c-2.6,0-4.7,1-6.3,3
		c-1.6,1.9-2.3,4.1-2.3,6.7c0,2.6,0.8,4.9,2.3,6.8c1.7,2,3.8,3,6.3,3c2.5,0,4.6-1,6.3-3C1356.3,214,1357.1,211.7,1357.1,209.1z"/>
	<path id="XMLID_87_" class="st1" d="M1411.7,218.8c0,1-0.1,2.5-0.4,4.4c-0.2,2-0.4,3.4-0.4,4.4s-0.1,1.5-0.3,1.8
		c-0.2,0.3-0.7,0.6-1.6,1.1c-4.2,2.3-8.9,3.5-14,3.5c-9.4,0-14.1-3.6-14.1-10.8c0-2.1,0.1-5.4,0.2-9.7c0.2-4.3,0.2-7.5,0.2-9.7
		c0-1.4-0.8-2.1-2.5-2.1c-0.1,0-0.3,0-0.6,0c-0.3,0-0.5,0-0.6,0c-1.2,0-1.9-0.4-1.9-1.3c0-0.5,0-1.3,0.1-2.4s0.1-1.9,0.1-2.4
		c0-0.7,0-1.7-0.1-3.1c-0.1-1.4-0.1-2.4-0.1-3.1c0-0.7,1-1,3.1-1.1c1.2,0,1.8-0.4,1.9-1c0.2-1.2,0.3-3.2,0.2-5.9
		c-0.1-4.2-0.2-6.2-0.2-6c0-3.8,0.4-5.7,1.1-5.7c0.9,0,2.1,0.2,3.8,0.6c1.9,0.4,3.1,0.7,3.9,0.7c1.7,0.2,4.2,0.5,7.5,0.9
		c0.8,0.1,1.2,0.3,1.2,0.8c0,1.3-0.1,3.3-0.3,5.9s-0.3,4.6-0.3,6c0,1.6,0.5,2.4,1.4,2.4c1.1,0,2.9,0,5.2-0.1
		c2.3-0.1,4.1-0.1,5.2-0.1c0.7,0,1.1,0.2,1.1,0.7c0,0.7-0.1,1.9-0.2,3.4c-0.2,1.5-0.2,2.6-0.2,3.4c0,0.8,0,1.9,0,3.4
		c0,1.5,0,2.6,0,3.4c0,0.7-0.5,1-1.4,1c-0.7,0-1.7,0-3.3-0.1c-1.5,0-2.6-0.1-3.3-0.1h-3.7c-0.5,0-0.7,0.7-0.7,2.1c0,0.8,0,1.9,0,3.5
		c0,1.6,0,2.7,0,3.5c0,2.7,0.3,4.6,0.9,5.7c0.9,1.4,2.6,2.1,5.2,2.1c0.8,0,2-0.2,3.5-0.6c1.5-0.4,2.6-0.6,3.2-0.6
		C1411.3,217.7,1411.7,218.1,1411.7,218.8z"/>
	<path id="XMLID_89_" class="st1" d="M1060,317c0,3.8,0.1,9.6,0.3,17.3s0.3,13.5,0.3,17.3c0,0.7-0.1,1.1-0.4,1.2
		c-0.1,0-0.5,0.1-1.3,0.2c-2.1,0.3-4.9,0.4-8.5,0.4c-4.8,0-7.8-0.1-9.1-0.4c-0.9-0.2-1.4-0.7-1.4-1.5c0,0.5,0.1-2.3,0.4-8.6
		c0.6-13.2,0.9-21.8,0.9-26c0-3.5-0.1-8.7-0.3-15.7c-0.2-7-0.3-12.2-0.3-15.7c0-0.7,0.4-1.1,1.1-1.1c1,0,2.5,0,4.6,0.1
		c2,0.1,3.6,0.1,4.6,0.1s2.5,0,4.5-0.1c2-0.1,3.5-0.1,4.5-0.1c0.9,0,1.4,0.4,1.4,1.1c0,3.5-0.2,8.7-0.6,15.7
		C1060.2,308.3,1060,313.6,1060,317z"/>
	<path id="XMLID_91_" class="st1" d="M1118.2,351.7c0,0.9-0.5,1.4-1.4,1.5s-3.3,0.2-7.1,0.2c-4.1,0-6.6-0.1-7.6-0.3s-1.5-0.9-1.5-2
		c0-1.5,0-3.8,0.1-6.9c0.1-3.1,0.1-5.4,0.1-7c0-1.2,0-3-0.1-5.4s-0.1-4.2-0.1-5.4c0-4.5-1.9-6.7-5.8-6.7c-1.3,0-2.8,0.6-4.4,1.7
		c-1.8,1.2-2.7,2.5-2.7,3.7v26.4c0,1.1-0.5,1.7-1.5,1.8c-1.1,0.1-3.5,0.2-7,0.2c-3.8,0-6.3-0.1-7.4-0.3c-1-0.2-1.5-0.7-1.5-1.6
		c0-2.5,0-6.4,0-11.5c0-5.1,0-9,0-11.5c0-8.1-0.6-14.5-1.9-19.1c-0.1-0.3-0.1-0.5-0.1-0.7c0-0.5,0.2-0.9,0.7-1.1
		c2.1-0.2,4.8-0.6,8.2-1.1c5.2-1,8.1-1.5,8.7-1.5c0.4,0,0.6,1.1,0.8,3.3s0.5,3.3,0.8,3.3c-0.4,0,1.4-1.1,5.2-3.4
		c3.9-2.3,7.2-3.4,10.1-3.4c4.1,0,7.6,1,10.4,2.9c3.1,2.2,4.6,5.4,4.6,9.4v15.6c0,2.1,0,5.3,0,9.5
		C1118.2,346.4,1118.2,349.6,1118.2,351.7z"/>
	<path id="XMLID_93_" class="st1" d="M1159,338.8c0,1-0.1,2.5-0.4,4.4c-0.2,2-0.4,3.4-0.4,4.4s-0.1,1.5-0.3,1.8
		c-0.2,0.3-0.7,0.6-1.6,1.1c-4.2,2.3-8.9,3.5-14,3.5c-9.4,0-14.1-3.6-14.1-10.8c0-2.1,0.1-5.4,0.2-9.7c0.2-4.3,0.2-7.5,0.2-9.7
		c0-1.4-0.8-2.1-2.5-2.1c-0.1,0-0.3,0-0.6,0c-0.3,0-0.5,0-0.6,0c-1.2,0-1.9-0.4-1.9-1.3c0-0.5,0-1.3,0.1-2.4
		c0.1-1.1,0.1-1.9,0.1-2.4c0-0.7,0-1.7-0.1-3.1c-0.1-1.4-0.1-2.4-0.1-3.1c0-0.7,1-1,3.1-1.1c1.2,0,1.8-0.4,1.9-1
		c0.2-1.2,0.3-3.2,0.2-5.9c-0.1-4.2-0.2-6.2-0.2-6c0-3.8,0.4-5.7,1.1-5.7c0.9,0,2.1,0.2,3.8,0.6c1.9,0.4,3.1,0.7,3.9,0.7
		c1.7,0.2,4.2,0.5,7.5,0.9c0.8,0.1,1.2,0.3,1.2,0.8c0,1.3-0.1,3.3-0.3,5.9c-0.2,2.6-0.3,4.6-0.3,6c0,1.6,0.5,2.4,1.4,2.4
		c1.1,0,2.9,0,5.2-0.1s4.1-0.1,5.2-0.1c0.7,0,1.1,0.2,1.1,0.7c0,0.7-0.1,1.9-0.2,3.4c-0.2,1.5-0.2,2.6-0.2,3.4c0,0.8,0,1.9,0,3.4
		c0,1.5,0,2.6,0,3.4c0,0.7-0.5,1-1.4,1c-0.7,0-1.7,0-3.3-0.1s-2.6-0.1-3.3-0.1h-3.7c-0.5,0-0.7,0.7-0.7,2.1c0,0.8,0,1.9,0,3.5
		c0,1.6,0,2.7,0,3.5c0,2.7,0.3,4.6,0.9,5.7c0.9,1.4,2.6,2.1,5.2,2.1c0.8,0,2-0.2,3.5-0.6c1.5-0.4,2.6-0.6,3.2-0.6
		C1158.7,337.7,1159,338.1,1159,338.8z"/>
	<path id="XMLID_95_" class="st1" d="M1208.9,326.6c0,3.3-1.1,5.2-3.2,5.6c-0.4,0.1-3.7,0.4-10.1,1.1c-3.8,0.4-9.6,0.9-17.2,1.5
		c0.5,2.1,1.8,3.7,4.2,4.8c1.9,0.9,4,1.4,6.4,1.4c2.9,0,5.8-0.8,8.7-2.3c1.2-0.8,2.5-1.6,3.7-2.3c0.7,0.3,1.8,2,3.4,5
		c1.6,3,2.4,4.9,2.4,5.7c0,0.2-0.2,0.6-0.7,1.1c-4,4.3-10.1,6.4-18.5,6.4c-7.7,0-14-2.3-18.8-6.8c-4.9-4.6-7.3-10.7-7.3-18.4
		c0-7.5,2.2-13.6,6.5-18.4c4.5-4.9,10.4-7.4,17.9-7.4c6.3,0,11.6,2.3,15.9,6.8C1206.7,314.9,1208.9,320.3,1208.9,326.6z
		 M1191.8,323.6c0-2-0.7-3.8-2.1-5.3c-1.4-1.5-3.1-2.3-5.1-2.3c-2.1,0-3.7,0.9-5.1,2.6c-1.2,1.6-1.9,3.5-1.9,5.6
		c0,0.9,0.5,1.3,1.4,1.3c2.4,0,6.2-0.4,11.2-1.1C1191.2,324.2,1191.8,324,1191.8,323.6z"/>
	<path id="XMLID_98_" class="st1" d="M1246.6,322.7c0,1.3-0.7,1.9-2.1,1.9c-0.6,0-1.5,0-2.7-0.1c-1.2-0.1-2.1-0.1-2.7-0.1
		c-2.7,0-4.5,0.4-5.5,1.3c-1,0.8-1.5,2.6-1.5,5.1c0,1.4,0,3.5,0.1,6.4c0,2.8,0.1,5,0.1,6.4c0,0.9,0.1,2.4,0.2,4.2
		c0.1,1.9,0.2,3.3,0.2,4.2c0,0.8-0.5,1.2-1.6,1.3c-1.6,0.1-4,0.2-7.2,0.2c-3.1,0-5.6-0.1-7.4-0.3c-1.1-0.1-1.6-0.7-1.6-1.6
		c0-2.6,0-6.5,0-11.7c0-5.2,0-9.1,0-11.7c0-7.6-0.7-13.9-2.1-18.9c-0.1-0.3-0.1-0.5-0.1-0.7c0-0.5,0.2-0.8,0.7-1
		c1.8-0.2,4.4-0.6,7.9-1.1c5.1-1,7.8-1.5,8-1.5c0.6,0,1,1,1.1,3.1s0.5,3.1,0.9,3.1c-0.5,0,0.9-0.9,4-2.6s6.1-2.6,9-2.6
		c1.8,0,2.7,0.4,2.7,1.2c0,0.9-0.1,2.3-0.3,4c-0.2,1.9-0.3,3.2-0.3,4c0,0.9,0,2.2,0,3.8C1246.6,320.8,1246.6,322.1,1246.6,322.7z"/>
	<path id="XMLID_100_" class="st1" d="M1301.4,328.7c0,2.5,0.1,6.2,0.4,11.2c0.3,4.9,0.4,8.7,0.4,11.1c0,1.3-0.6,2-1.7,2.1
		c-4,0.3-8.7,0.4-13.9,0.4c-0.6,0-1-0.9-1.2-2.8c-0.2-1.9-0.5-2.8-0.8-2.9c-0.3,0.1-0.6,0.4-1,0.8c-3.6,3.7-7.6,5.5-11.7,5.5
		c-6.3,0-11.6-2.5-15.8-7.5c-3.9-4.7-5.9-10.3-5.9-16.8c0-7.5,2-13.6,6.1-18.2c4.2-4.8,10-7.1,17.4-7.1c5.1,0,9.1,1.8,12.1,5.4
		c0.1,0.2,0.2,0.2,0.3,0.2c0.3,0,0.6-0.8,1-2.4c0.4-1.6,0.8-2.4,1.3-2.4c1.2,0,3.5,0.3,6.9,1c3.2,0.7,5.5,1.2,6.9,1.7
		c0.5,0.2,0.7,0.5,0.7,0.8c0,0.1,0,0.5-0.1,1C1301.9,315.9,1301.4,322.1,1301.4,328.7z M1285.7,329c0-2.8-0.9-5.1-2.6-6.9
		c-1.7-1.8-4-2.7-6.8-2.7s-5.1,0.9-6.8,2.7c-1.7,1.8-2.6,4.1-2.6,6.9c0,2.6,0.9,4.9,2.7,6.8c1.8,1.9,4,2.8,6.6,2.8
		c2.8,0,5-0.9,6.8-2.7S1285.7,331.8,1285.7,329z"/>
	<path id="XMLID_103_" class="st1" d="M1343.4,321c0,0-1-0.3-3-0.8c-1.9-0.5-3.5-0.8-4.7-0.8c-2.9,0-5.2,0.9-6.9,2.6
		c-1.7,1.7-2.6,4.1-2.6,7c0,3,0.9,5.3,2.8,7.1s4.3,2.6,7.4,2.6c1.4,0,3-0.4,4.8-1.1s2.6-1.1,2.5-1.1c0.6,0,1.3,2.1,2.1,6.2
		c0.7,3.8,1.1,6.3,1.1,7.5c0,1.2-2,2.3-6.1,3.2c-3.1,0.7-5.6,1-7.6,1c-7.2,0-13.1-2.4-17.7-7.2c-4.7-4.8-7-10.8-7-18
		c0-7.1,2.3-13.1,7-18c4.7-4.9,10.6-7.3,17.7-7.3c4.9,0,9.1,1,12.8,3.1c0.8,0.5,1.3,0.9,1.3,1.3c0,0.4-0.5,2.3-1.5,5.8
		c-0.9,3.3-1.5,5.3-1.8,6C1344,320.7,1343.7,321,1343.4,321z"/>
	<path id="XMLID_105_" class="st1" d="M1385.4,338.8c0,1-0.1,2.5-0.4,4.4c-0.2,2-0.4,3.4-0.4,4.4s-0.1,1.5-0.3,1.8
		c-0.2,0.3-0.7,0.6-1.6,1.1c-4.2,2.3-8.9,3.5-14,3.5c-9.4,0-14.1-3.6-14.1-10.8c0-2.1,0.1-5.4,0.2-9.7c0.2-4.3,0.2-7.5,0.2-9.7
		c0-1.4-0.8-2.1-2.5-2.1c-0.1,0-0.3,0-0.6,0c-0.3,0-0.5,0-0.6,0c-1.2,0-1.9-0.4-1.9-1.3c0-0.5,0-1.3,0.1-2.4
		c0.1-1.1,0.1-1.9,0.1-2.4c0-0.7,0-1.7-0.1-3.1c-0.1-1.4-0.1-2.4-0.1-3.1c0-0.7,1-1,3.1-1.1c1.2,0,1.8-0.4,1.9-1
		c0.2-1.2,0.3-3.2,0.2-5.9c-0.1-4.2-0.2-6.2-0.2-6c0-3.8,0.4-5.7,1.1-5.7c0.9,0,2.1,0.2,3.8,0.6c1.9,0.4,3.1,0.7,3.9,0.7
		c1.7,0.2,4.2,0.5,7.5,0.9c0.8,0.1,1.2,0.3,1.2,0.8c0,1.3-0.1,3.3-0.3,5.9c-0.2,2.6-0.3,4.6-0.3,6c0,1.6,0.5,2.4,1.4,2.4
		c1.1,0,2.9,0,5.2-0.1s4.1-0.1,5.2-0.1c0.7,0,1.1,0.2,1.1,0.7c0,0.7-0.1,1.9-0.2,3.4c-0.2,1.5-0.2,2.6-0.2,3.4c0,0.8,0,1.9,0,3.4
		c0,1.5,0,2.6,0,3.4c0,0.7-0.5,1-1.4,1c-0.7,0-1.7,0-3.3-0.1s-2.6-0.1-3.3-0.1h-3.7c-0.5,0-0.7,0.7-0.7,2.1c0,0.8,0,1.9,0,3.5
		c0,1.6,0,2.7,0,3.5c0,2.7,0.3,4.6,0.9,5.7c0.9,1.4,2.6,2.1,5.2,2.1c0.8,0,2-0.2,3.5-0.6c1.5-0.4,2.6-0.6,3.2-0.6
		C1385,337.7,1385.4,338.1,1385.4,338.8z"/>
	<path id="XMLID_107_" class="st1" d="M1408.6,330.7c0,2.4,0,5.9,0.1,10.6c0.1,4.7,0.1,8.2,0.1,10.6c0,0.7-0.4,1.1-1.2,1.2
		c-1.1,0.2-3.6,0.3-7.5,0.3c-3.9,0-6.4-0.1-7.5-0.3c-0.7-0.1-1.2-0.3-1.3-0.6c-0.1-0.1-0.1-0.6-0.1-1.5c0-2.2,0-5.6,0.1-10.1
		c0.1-4.5,0.1-7.9,0.1-10.2c0-9.2-0.4-16.6-1.1-22.1c-0.1-0.5-0.1-0.9-0.1-1c0-0.7,0.4-1,1.3-1c0.9,0,2.3,0.1,4.2,0.3
		c1.9,0.2,3.3,0.3,4.2,0.3s2.4-0.1,4.2-0.2c1.9-0.2,3.3-0.2,4.2-0.2c0.8,0,1.2,0.3,1.2,1c0,0.1,0,0.4-0.1,0.9
		C1408.9,315,1408.6,322.3,1408.6,330.7z M1409.8,294.4c0,5.7-3.2,8.5-9.6,8.5c-2.7,0-5-0.7-6.8-2.1c-2-1.6-2.9-3.7-2.9-6.3
		c0-2.5,1-4.6,3-6.3c1.9-1.5,4.1-2.2,6.7-2.2c2.5,0,4.7,0.8,6.6,2.3C1408.9,289.9,1409.8,291.9,1409.8,294.4z"/>
	<path id="XMLID_110_" class="st1" d="M1465,329.1c0,7.4-2.3,13.4-6.8,18.1c-4.5,4.6-10.5,6.9-17.9,6.9c-7.2,0-13.1-2.3-17.7-6.8
		c-4.6-4.6-6.9-10.4-6.9-17.6c0-7.6,2.2-13.7,6.6-18.4c4.4-4.7,10.4-7.1,18-7.1c7.4,0,13.3,2.3,17.9,6.9
		C1462.7,315.8,1465,321.7,1465,329.1z M1449,329.1c0-2.6-0.8-4.8-2.4-6.8c-1.6-2-3.7-3-6.2-3c-2.6,0-4.7,1-6.3,3
		c-1.6,1.9-2.3,4.1-2.3,6.7c0,2.6,0.8,4.9,2.3,6.8c1.7,2,3.8,3,6.3,3c2.5,0,4.6-1,6.3-3C1448.2,334,1449,331.7,1449,329.1z"/>
	<path id="XMLID_113_" class="st1" d="M1519.4,351.7c0,0.9-0.5,1.4-1.4,1.5s-3.3,0.2-7.1,0.2c-4.1,0-6.6-0.1-7.6-0.3s-1.5-0.9-1.5-2
		c0-1.5,0-3.8,0.1-6.9c0.1-3.1,0.1-5.4,0.1-7c0-1.2,0-3-0.1-5.4s-0.1-4.2-0.1-5.4c0-4.5-1.9-6.7-5.8-6.7c-1.3,0-2.8,0.6-4.4,1.7
		c-1.8,1.2-2.7,2.5-2.7,3.7v26.4c0,1.1-0.5,1.7-1.5,1.8c-1.1,0.1-3.5,0.2-7,0.2c-3.8,0-6.3-0.1-7.4-0.3c-1-0.2-1.5-0.7-1.5-1.6
		c0-2.5,0-6.4,0-11.5c0-5.1,0-9,0-11.5c0-8.1-0.6-14.5-1.9-19.1c-0.1-0.3-0.1-0.5-0.1-0.7c0-0.5,0.2-0.9,0.7-1.1
		c2.1-0.2,4.8-0.6,8.2-1.1c5.2-1,8.1-1.5,8.7-1.5c0.4,0,0.6,1.1,0.8,3.3s0.5,3.3,0.8,3.3c-0.4,0,1.4-1.1,5.2-3.4
		c3.9-2.3,7.2-3.4,10.1-3.4c4.1,0,7.6,1,10.4,2.9c3.1,2.2,4.6,5.4,4.6,9.4v15.6c0,2.1,0,5.3,0,9.5
		C1519.4,346.4,1519.4,349.6,1519.4,351.7z"/>
</g>
<rect id="XMLID_9_" x="18" y="32.1" class="st0" width="924.6" height="130.5"/>
<g id="XMLID_2_">
	<path id="XMLID_3_" class="st1" d="M73.5,93.6c0,6.6-2.8,12.3-8.3,17c-4.9,4.2-10.8,6.8-17.8,8c-0.3,0-0.5,0-0.6,0
		c-0.7,0-2.4-2.3-5-6.9c-2.6-4.6-3.9-7.4-3.9-8.4c0-0.4,0.2-0.6,0.7-0.7c4.7-1.1,7.8-2,9.4-2.7c3.4-1.7,5.1-4.2,5.1-7.5
		c0-2.1-1.1-4.5-3.3-7.1c-3.8-4.4-5.9-6.9-6.3-7.4c-2.2-3.4-3.4-7.1-3.4-11.2c0-6,2.8-10.9,8.3-14.8c4.5-3.3,10-5.4,16.6-6.3
		c0.4,0,0.6,0,0.8,0c0.5,0,0.9,0.4,1.2,1.2c0.8,2.4,2.8,6.7,5.9,12.9c0.1,0.2,0.1,0.4,0.1,0.5c0,0.6-0.3,0.8-0.9,0.8
		c-0.3,0-0.7,0-1.3-0.1c-0.6-0.1-1.1-0.1-1.4-0.1c-2.3,0-4.4,0.5-6.2,1.6c-2.1,1.2-3.2,3-3.2,5.2c0,2,1.2,4.4,3.5,7.3
		c4.1,5.2,6.3,7.9,6.5,8.2C72.3,86.5,73.5,90.1,73.5,93.6z"/>
	<path id="XMLID_19_" class="st1" d="M135.1,92.6c0,7-2.1,12.7-6.2,17.3c-4.2,4.8-9.8,7.1-16.7,7.1c-2.5,0-5.2-0.6-8.1-1.9
		c-2.9-1.2-4.2-1.9-3.9-1.9c-0.4,0-0.6,0.5-0.6,1.5c0,1.7,0.1,4.2,0.2,7.5c0.2,3.3,0.2,5.8,0.2,7.5c0,1-0.5,1.6-1.6,1.6l-10,0
		c-2.2,0-3.7-0.1-4.3-0.2c-1-0.2-1.5-0.8-1.5-1.8l0.1-37.6c0-7.6-0.6-14-1.7-19.2c-0.1-0.3-0.1-0.6-0.1-0.8c0-0.5,0.2-0.8,0.6-1
		c1.3-0.5,3.7-1,7.3-1.6c3.5-0.6,6-0.8,7.6-0.8c1.3,0,2,0.8,2.2,2.5c0.2,1.7,0.4,2.5,0.7,2.5c-0.3,0,1.1-0.9,4.2-2.7
		c3.1-1.8,5.9-2.7,8.5-2.7c7.1,0,12.7,2.3,16.9,7C133,79.6,135.1,85.4,135.1,92.6z M117,92.5c0-2.6-0.8-4.9-2.4-6.8
		c-1.7-2.1-3.9-3.1-6.4-3.1c-2.6,0-4.7,1-6.3,3.1c-1.4,1.9-2.1,4.1-2.1,6.8c0,2.8,0.7,5.1,2.1,6.9c1.5,2,3.6,3,6.3,3
		C114.1,102.4,117,99.1,117,92.5z"/>
	<path id="XMLID_22_" class="st1" d="M186.1,89.6c0,3.3-1.1,5.2-3.2,5.6c-0.4,0.1-3.7,0.4-10.1,1.1c-3.8,0.4-9.6,0.9-17.2,1.5
		c0.5,2.1,1.8,3.7,4.2,4.8c1.9,0.9,4,1.4,6.4,1.4c2.9,0,5.8-0.8,8.7-2.3c1.2-0.8,2.5-1.6,3.7-2.3c0.7,0.3,1.8,2,3.4,5
		c1.6,3,2.4,4.9,2.4,5.7c0,0.2-0.2,0.6-0.7,1.1c-4,4.3-10.1,6.4-18.5,6.4c-7.7,0-14-2.3-18.8-6.8c-4.9-4.6-7.3-10.7-7.3-18.4
		c0-7.5,2.2-13.6,6.5-18.4c4.5-4.9,10.4-7.4,17.9-7.4c6.3,0,11.6,2.3,15.9,6.8C184,77.9,186.1,83.3,186.1,89.6z M169.1,86.6
		c0-2-0.7-3.8-2.1-5.3c-1.4-1.5-3.1-2.3-5.1-2.3c-2.1,0-3.7,0.9-5.1,2.6c-1.2,1.6-1.9,3.5-1.9,5.6c0,0.9,0.5,1.3,1.4,1.3
		c2.4,0,6.2-0.4,11.2-1.1C168.5,87.2,169.1,87,169.1,86.6z"/>
	<path id="XMLID_25_" class="st1" d="M236.2,89.6c0,3.3-1.1,5.2-3.2,5.6c-0.4,0.1-3.7,0.4-10.1,1.1c-3.8,0.4-9.6,0.9-17.2,1.5
		c0.5,2.1,1.8,3.7,4.2,4.8c1.9,0.9,4,1.4,6.4,1.4c2.9,0,5.8-0.8,8.7-2.3c1.2-0.8,2.5-1.6,3.7-2.3c0.7,0.3,1.8,2,3.4,5
		c1.6,3,2.4,4.9,2.4,5.7c0,0.2-0.2,0.6-0.7,1.1c-4,4.3-10.1,6.4-18.5,6.4c-7.7,0-14-2.3-18.8-6.8c-4.9-4.6-7.3-10.7-7.3-18.4
		c0-7.5,2.2-13.6,6.5-18.4c4.5-4.9,10.4-7.4,17.9-7.4c6.3,0,11.6,2.3,15.9,6.8C234.1,77.9,236.2,83.3,236.2,89.6z M219.2,86.6
		c0-2-0.7-3.8-2.1-5.3c-1.4-1.5-3.1-2.3-5.1-2.3c-2.1,0-3.7,0.9-5.1,2.6c-1.2,1.6-1.9,3.5-1.9,5.6c0,0.9,0.5,1.3,1.4,1.3
		c2.4,0,6.2-0.4,11.2-1.1C218.6,87.2,219.2,87,219.2,86.6z"/>
	<path id="XMLID_28_" class="st1" d="M273.9,84c0,0-1-0.3-3-0.8c-1.9-0.5-3.5-0.8-4.7-0.8c-2.9,0-5.2,0.9-6.9,2.6
		c-1.7,1.7-2.6,4.1-2.6,7c0,3,0.9,5.3,2.8,7.1c1.9,1.7,4.3,2.6,7.4,2.6c1.4,0,3-0.4,4.8-1.1c1.8-0.7,2.6-1.1,2.5-1.1
		c0.6,0,1.3,2.1,2.1,6.2c0.7,3.8,1.1,6.3,1.1,7.5c0,1.2-2,2.3-6.1,3.2c-3.1,0.7-5.6,1-7.6,1c-7.2,0-13.1-2.4-17.7-7.2
		c-4.7-4.8-7-10.8-7-18c0-7.1,2.3-13.1,7-18c4.7-4.9,10.6-7.3,17.7-7.3c4.9,0,9.1,1,12.8,3.1c0.8,0.5,1.3,0.9,1.3,1.3
		c0,0.4-0.5,2.3-1.5,5.8c-0.9,3.3-1.5,5.3-1.8,6C274.5,83.6,274.2,84,273.9,84z"/>
	<path id="XMLID_30_" class="st1" d="M332,80.7l-0.1,33.7c0,1.1-0.5,1.8-1.4,1.9c-1,0.1-3.4,0.2-7.1,0.2c-3.6,0-6.1-0.1-7.5-0.4
		c-1.1-0.2-1.6-0.9-1.6-2.1c0-2.8,0-7,0.1-12.6c0.1-5.6,0.1-9.8,0.1-12.6c0-3.8-1.9-5.7-5.8-5.7c-1.3,0-2.8,0.5-4.6,1.6
		c-1.9,1.1-2.9,2.3-2.9,3.6v12.1c0,1.6,0,3.9,0.1,7.1c0.1,3.1,0.1,5.5,0.1,7.1c0,1.2-0.5,1.9-1.5,2c-1,0.1-3.8,0.2-8.5,0.2
		c-2.7,0-4.6-0.1-5.8-0.4s-1.8-0.8-1.8-1.7c0-2.6,0-6.4,0-11.6c0-5.2,0-9,0-11.6c0-10.6-0.1-19.4-0.3-26.4c-0.1-2.4-0.2-4.9-0.2-7.3
		c-0.2-2.8-0.5-5.3-0.9-7.3c-0.1-0.4-0.1-0.7-0.1-0.9c0-0.5,0.2-0.8,0.7-1c1-0.3,2.5-0.5,4.4-0.5c2.6-0.1,4.1-0.2,4.5-0.2l8.8-1
		c0.5,0,0.8,0.3,0.8,1c0,1-0.1,2.5-0.2,4.2c-0.1,2.1-0.2,3.5-0.2,4.2c-0.2,7.4-0.3,13.2-0.3,17.4c0,0.7,0.2,1,0.5,1
		c0.1,0,0.9-0.6,2.5-1.7c1.9-1.3,3.7-2.4,5.4-3.2c2.6-1.1,5.1-1.7,7.5-1.7c4.2,0,7.6,1.1,10.4,3.3C330.4,73.4,332,76.6,332,80.7z"/>
	<path id="XMLID_32_" class="st1" d="M374.8,78.5c0,1-0.2,2.3-0.7,4c-0.4,1.3-0.8,2.6-1.1,4c-0.1,1.6-0.4,4-0.9,7.1
		c-0.1,0.5-0.5,0.7-1.2,0.7c-1.2,0-3.1,0-5.6,0c-2.5,0-4.4,0-5.6,0c-3.4,0-8,0.3-13.8,0.9c-0.3,0-1.2,0.2-2.6,0.4
		c-1.1,0.2-2,0.3-2.7,0.3c-0.8,0-1.3-0.8-1.3-2.4c0-0.8,0.6-3.2,1.7-7.1c1.1-3.7,1.9-6.1,2.3-7.1c0.2-0.5,0.7-0.8,1.3-0.8
		c1.3,0,3.2,0.1,5.7,0.2c2.5,0.1,4.4,0.2,5.7,0.2c2.7,0,7.1-0.4,13.2-1.2c3.2-0.4,4.7-0.6,4.5-0.6C374.4,76.9,374.8,77.4,374.8,78.5
		z"/>
	<path id="XMLID_34_" class="st1" d="M440.9,115.6c0,0.2-0.3,0.4-1,0.5c-1.2,0.2-4.3,0.3-9.3,0.3c-4.3,0-7.2-0.1-8.7-0.3
		c-0.7-0.1-1.1-0.2-1.2-0.2c-0.2-0.1-0.4-0.4-0.7-1c-0.5-1.3-1.2-3.2-2.1-5.7c-1.3-3.3-3.3-8.1-6-14.4c-0.6-1.3-1.9-2-4.1-2.1
		c1,0.1-0.7,0.1-5,0.1c-0.5,0-0.7,0.8-0.7,2.5c0,2.2,0.2,5.5,0.6,9.9c0.4,4.4,0.6,7.7,0.6,9.9c0,0.6-0.1,0.9-0.4,1
		c-0.5,0-0.9,0.1-1.4,0.1c-1.9,0.1-4.9,0.2-9,0.2c-4.7,0-7.5-0.1-8.4-0.3c-0.9-0.2-1.4-0.7-1.4-1.5c0-3.6,0.2-9,0.5-16.2
		s0.5-12.6,0.5-16.3c0-13.8-0.3-24.5-0.9-32.2l0-0.7c0-0.6,0.5-0.9,1.5-1.1c1.1-0.2,6-0.4,14.9-0.6c6-0.1,10.8-0.2,14.4-0.2
		c7.4,0,13.5,1.7,18.2,5c5.3,3.8,8,9.2,8,16.4c0,4.8-0.7,8.5-2.1,11.4s-3.9,5.6-7.6,8.3c-0.7,0.5-1.1,1-1.1,1.5c0,0,2,4.1,6,12.3
		C438.9,110.2,440.9,114.8,440.9,115.6z M420.4,71.8c0-4-1.3-6.7-3.9-8.3c-2-1.2-5.2-1.8-9.5-1.8c-3.1,0-4.7,0.5-4.9,1.4
		c-0.2,1.1-0.3,4.3-0.3,9.6c0,0.7,0,1.9,0,3.3c0,1.5,0,2.6,0,3.3c0,0.2,0.5,0.3,1.6,0.5c2,0.3,4.1,0.4,6.3,0.4
		C416.9,80.3,420.4,77.5,420.4,71.8z"/>
	<path id="XMLID_37_" class="st1" d="M490.8,89.6c0,3.3-1.1,5.2-3.2,5.6c-0.4,0.1-3.7,0.4-10.1,1.1c-3.8,0.4-9.6,0.9-17.2,1.5
		c0.5,2.1,1.8,3.7,4.2,4.8c1.9,0.9,4,1.4,6.4,1.4c2.9,0,5.8-0.8,8.7-2.3c1.2-0.8,2.5-1.6,3.7-2.3c0.7,0.3,1.8,2,3.4,5
		c1.6,3,2.4,4.9,2.4,5.7c0,0.2-0.2,0.6-0.7,1.1c-4,4.3-10.1,6.4-18.5,6.4c-7.7,0-14-2.3-18.8-6.8c-4.9-4.6-7.3-10.7-7.3-18.4
		c0-7.5,2.2-13.6,6.5-18.4c4.5-4.9,10.4-7.4,17.9-7.4c6.3,0,11.6,2.3,15.9,6.8C488.7,77.9,490.8,83.3,490.8,89.6z M473.7,86.6
		c0-2-0.7-3.8-2.1-5.3c-1.4-1.5-3.1-2.3-5.1-2.3c-2.1,0-3.7,0.9-5.1,2.6c-1.2,1.6-1.9,3.5-1.9,5.6c0,0.9,0.5,1.3,1.4,1.3
		c2.4,0,6.2-0.4,11.2-1.1C473.2,87.2,473.7,87,473.7,86.6z"/>
	<path id="XMLID_40_" class="st1" d="M528.5,84c0,0-1-0.3-3-0.8c-1.9-0.5-3.5-0.8-4.7-0.8c-2.9,0-5.2,0.9-6.9,2.6
		c-1.7,1.7-2.6,4.1-2.6,7c0,3,0.9,5.3,2.8,7.1c1.9,1.7,4.3,2.6,7.4,2.6c1.4,0,3-0.4,4.8-1.1c1.8-0.7,2.6-1.1,2.5-1.1
		c0.6,0,1.3,2.1,2.1,6.2c0.7,3.8,1.1,6.3,1.1,7.5c0,1.2-2,2.3-6.1,3.2c-3.1,0.7-5.6,1-7.6,1c-7.2,0-13.1-2.4-17.7-7.2
		c-4.7-4.8-7-10.8-7-18c0-7.1,2.3-13.1,7-18c4.7-4.9,10.6-7.3,17.7-7.3c4.9,0,9.1,1,12.8,3.1c0.8,0.5,1.3,0.9,1.3,1.3
		c0,0.4-0.5,2.3-1.5,5.8c-0.9,3.3-1.5,5.3-1.8,6C529.1,83.6,528.8,84,528.5,84z"/>
	<path id="XMLID_42_" class="st1" d="M584.8,92.1c0,7.4-2.3,13.4-6.8,18.1c-4.5,4.6-10.5,6.9-17.9,6.9c-7.2,0-13.1-2.3-17.7-6.8
		c-4.6-4.6-6.9-10.4-6.9-17.6c0-7.6,2.2-13.7,6.6-18.4c4.4-4.7,10.4-7.1,18-7.1c7.4,0,13.3,2.3,17.9,6.9
		C582.5,78.7,584.8,84.7,584.8,92.1z M568.8,92.1c0-2.6-0.8-4.8-2.4-6.8c-1.6-2-3.7-3-6.2-3c-2.6,0-4.7,1-6.3,3
		c-1.6,1.9-2.3,4.1-2.3,6.7c0,2.6,0.8,4.9,2.3,6.8c1.7,2,3.8,3,6.3,3c2.5,0,4.6-1,6.3-3C568,97,568.8,94.7,568.8,92.1z"/>
	<path id="XMLID_45_" class="st1" d="M639.3,103.4c0,9.3-2,15.9-5.9,20c-4,4.1-10.7,6.2-20.1,6.2c-2.7,0-6.5-0.4-11.2-1.3
		c-6-1.1-9-2.4-9-3.9c0-0.6,0.7-3.8,2.1-9.6c0.2-0.9,0.6-1.4,1.1-1.4c0.2,0,0.3,0.1,0.5,0.2c5,2.5,9.7,3.7,13.9,3.7
		c2.3,0,4.7-0.6,7-1.8c2.8-1.4,4.2-3.2,4.2-5.3V107c-3.3,3.1-7.6,4.7-12.8,4.7c-6.1,0-11.1-2.2-15.1-6.6c-3.8-4.2-5.7-9.4-5.7-15.6
		c0-6.2,1.8-11.4,5.5-15.5c3.8-4.3,8.8-6.4,14.9-6.4c4.9,0,8.7,1.8,11.3,5.3c0.5,0.7,0.9,1.1,1.1,1.1c0.3,0,0.4-0.6,0.4-1.8
		c0-2.6,0.3-3.9,0.9-3.9c0.5,0,3.3,0.3,8.4,0.8c5.1,0.5,7.8,0.8,8,0.9c0.6,0.2,0.8,0.6,0.8,1.3c0,2.2-0.1,5.6-0.2,10.1
		c-0.1,4.5-0.2,7.8-0.2,10.1c0,1.3,0,3.3,0,6C639.3,100.1,639.3,102.1,639.3,103.4z M622.4,89.9c0-2.4-0.8-4.4-2.4-6.2
		c-1.6-1.7-3.6-2.6-5.9-2.6c-2.4,0-4.4,0.9-5.9,2.7c-1.6,1.8-2.4,3.8-2.4,6.2c0,2.4,0.8,4.4,2.4,6.2c1.6,1.7,3.6,2.6,5.9,2.6
		c2.4,0,4.4-0.9,5.9-2.6C621.6,94.3,622.4,92.3,622.4,89.9z"/>
	<path id="XMLID_48_" class="st1" d="M696.3,114.7c0,0.9-0.5,1.4-1.4,1.5c-0.9,0.1-3.3,0.2-7.1,0.2c-4.1,0-6.6-0.1-7.6-0.3
		s-1.5-0.9-1.5-2c0-1.5,0-3.8,0.1-6.9c0.1-3.1,0.1-5.4,0.1-7c0-1.2,0-3-0.1-5.4c-0.1-2.4-0.1-4.2-0.1-5.4c0-4.5-1.9-6.7-5.8-6.7
		c-1.3,0-2.8,0.6-4.4,1.7c-1.8,1.2-2.7,2.5-2.7,3.7v26.4c0,1.1-0.5,1.7-1.5,1.8c-1.1,0.1-3.5,0.2-7,0.2c-3.8,0-6.3-0.1-7.4-0.3
		c-1-0.2-1.5-0.7-1.5-1.6c0-2.5,0-6.4,0-11.5c0-5.1,0-9,0-11.5c0-8.1-0.6-14.5-1.9-19.1c-0.1-0.3-0.1-0.5-0.1-0.7
		c0-0.5,0.2-0.9,0.7-1.1c2.1-0.2,4.8-0.6,8.2-1.1c5.2-1,8.1-1.5,8.7-1.5c0.4,0,0.6,1.1,0.8,3.3s0.5,3.3,0.8,3.3
		c-0.4,0,1.4-1.1,5.2-3.4c3.9-2.3,7.2-3.4,10.1-3.4c4.1,0,7.6,1,10.4,2.9c3.1,2.2,4.6,5.4,4.6,9.4v15.6c0,2.1,0,5.3,0,9.5
		C696.3,109.4,696.3,112.6,696.3,114.7z"/>
	<path id="XMLID_50_" class="st1" d="M722.5,93.7c0,2.4,0,5.9,0.1,10.6c0.1,4.7,0.1,8.2,0.1,10.6c0,0.7-0.4,1.1-1.2,1.2
		c-1.1,0.2-3.6,0.3-7.5,0.3c-3.9,0-6.4-0.1-7.5-0.3c-0.7-0.1-1.2-0.3-1.3-0.6c-0.1-0.1-0.1-0.6-0.1-1.5c0-2.2,0-5.6,0.1-10.1
		c0.1-4.5,0.1-7.9,0.1-10.2c0-9.2-0.4-16.6-1.1-22.1c-0.1-0.5-0.1-0.9-0.1-1c0-0.7,0.4-1,1.3-1c0.9,0,2.3,0.1,4.2,0.3
		c1.9,0.2,3.3,0.3,4.2,0.3c0.9,0,2.4-0.1,4.2-0.2c1.9-0.2,3.3-0.2,4.2-0.2c0.8,0,1.2,0.3,1.2,1c0,0.1,0,0.4-0.1,0.9
		C722.9,78,722.5,85.3,722.5,93.7z M723.8,57.4c0,5.7-3.2,8.5-9.6,8.5c-2.7,0-5-0.7-6.8-2.1c-2-1.6-2.9-3.7-2.9-6.3
		c0-2.5,1-4.6,3-6.3c1.9-1.5,4.1-2.2,6.7-2.2c2.5,0,4.7,0.8,6.6,2.3C722.8,52.8,723.8,54.9,723.8,57.4z"/>
	<path id="XMLID_53_" class="st1" d="M764.6,101.8c0,1-0.1,2.5-0.4,4.4c-0.2,2-0.4,3.4-0.4,4.4s-0.1,1.5-0.3,1.8
		c-0.2,0.3-0.7,0.6-1.6,1.1c-4.2,2.3-8.9,3.5-14,3.5c-9.4,0-14.1-3.6-14.1-10.8c0-2.1,0.1-5.4,0.2-9.7c0.2-4.3,0.2-7.5,0.2-9.7
		c0-1.4-0.8-2.1-2.5-2.1c-0.1,0-0.3,0-0.6,0c-0.3,0-0.5,0-0.6,0c-1.2,0-1.9-0.4-1.9-1.3c0-0.5,0-1.3,0.1-2.4
		c0.1-1.1,0.1-1.9,0.1-2.4c0-0.7,0-1.7-0.1-3.1c-0.1-1.4-0.1-2.4-0.1-3.1c0-0.7,1-1,3.1-1.1c1.2,0,1.8-0.4,1.9-1
		c0.2-1.2,0.3-3.2,0.2-5.9c-0.1-4.2-0.2-6.2-0.2-6c0-3.8,0.4-5.7,1.1-5.7c0.9,0,2.1,0.2,3.8,0.6c1.9,0.4,3.1,0.7,3.9,0.7
		c1.7,0.2,4.2,0.5,7.5,0.9c0.8,0.1,1.2,0.3,1.2,0.8c0,1.3-0.1,3.3-0.3,5.9c-0.2,2.6-0.3,4.6-0.3,6c0,1.6,0.5,2.4,1.4,2.4
		c1.1,0,2.9,0,5.2-0.1c2.3-0.1,4.1-0.1,5.2-0.1c0.7,0,1.1,0.2,1.1,0.7c0,0.7-0.1,1.9-0.2,3.4c-0.2,1.5-0.2,2.6-0.2,3.4
		c0,0.8,0,1.9,0,3.4c0,1.5,0,2.6,0,3.4c0,0.7-0.5,1-1.4,1c-0.7,0-1.7,0-3.3-0.1c-1.5,0-2.6-0.1-3.3-0.1h-3.7c-0.5,0-0.7,0.7-0.7,2.1
		c0,0.8,0,1.9,0,3.5c0,1.6,0,2.7,0,3.5c0,2.7,0.3,4.6,0.9,5.7c0.9,1.4,2.6,2.1,5.2,2.1c0.8,0,2-0.2,3.5-0.6c1.5-0.4,2.6-0.6,3.2-0.6
		C764.3,100.7,764.6,101.1,764.6,101.8z"/>
	<path id="XMLID_55_" class="st1" d="M787.8,93.7c0,2.4,0,5.9,0.1,10.6c0.1,4.7,0.1,8.2,0.1,10.6c0,0.7-0.4,1.1-1.2,1.2
		c-1.1,0.2-3.6,0.3-7.5,0.3c-3.9,0-6.4-0.1-7.5-0.3c-0.7-0.1-1.2-0.3-1.3-0.6c-0.1-0.1-0.1-0.6-0.1-1.5c0-2.2,0-5.6,0.1-10.1
		c0.1-4.5,0.1-7.9,0.1-10.2c0-9.2-0.4-16.6-1.1-22.1c-0.1-0.5-0.1-0.9-0.1-1c0-0.7,0.4-1,1.3-1c0.9,0,2.3,0.1,4.2,0.3
		c1.9,0.2,3.3,0.3,4.2,0.3c0.9,0,2.4-0.1,4.2-0.2c1.9-0.2,3.3-0.2,4.2-0.2c0.8,0,1.2,0.3,1.2,1c0,0.1,0,0.4-0.1,0.9
		C788.2,78,787.8,85.3,787.8,93.7z M789.1,57.4c0,5.7-3.2,8.5-9.6,8.5c-2.7,0-5-0.7-6.8-2.1c-2-1.6-2.9-3.7-2.9-6.3
		c0-2.5,1-4.6,3-6.3c1.9-1.5,4.1-2.2,6.7-2.2c2.5,0,4.7,0.8,6.6,2.3C788.1,52.8,789.1,54.9,789.1,57.4z"/>
	<path id="XMLID_58_" class="st1" d="M844.2,92.1c0,7.4-2.3,13.4-6.8,18.1c-4.5,4.6-10.5,6.9-17.9,6.9c-7.2,0-13.1-2.3-17.7-6.8
		c-4.6-4.6-6.9-10.4-6.9-17.6c0-7.6,2.2-13.7,6.6-18.4c4.4-4.7,10.4-7.1,18-7.1c7.4,0,13.3,2.3,17.9,6.9
		C841.9,78.7,844.2,84.7,844.2,92.1z M828.2,92.1c0-2.6-0.8-4.8-2.4-6.8c-1.6-2-3.7-3-6.2-3c-2.6,0-4.7,1-6.3,3
		c-1.6,1.9-2.3,4.1-2.3,6.7c0,2.6,0.8,4.9,2.3,6.8c1.7,2,3.8,3,6.3,3c2.5,0,4.6-1,6.3-3C827.4,97,828.2,94.7,828.2,92.1z"/>
	<path id="XMLID_61_" class="st1" d="M898.6,114.7c0,0.9-0.5,1.4-1.4,1.5c-0.9,0.1-3.3,0.2-7.1,0.2c-4.1,0-6.6-0.1-7.6-0.3
		s-1.5-0.9-1.5-2c0-1.5,0-3.8,0.1-6.9c0.1-3.1,0.1-5.4,0.1-7c0-1.2,0-3-0.1-5.4c-0.1-2.4-0.1-4.2-0.1-5.4c0-4.5-1.9-6.7-5.8-6.7
		c-1.3,0-2.8,0.6-4.4,1.7c-1.8,1.2-2.7,2.5-2.7,3.7v26.4c0,1.1-0.5,1.7-1.5,1.8c-1.1,0.1-3.5,0.2-7,0.2c-3.8,0-6.3-0.1-7.4-0.3
		c-1-0.2-1.5-0.7-1.5-1.6c0-2.5,0-6.4,0-11.5c0-5.1,0-9,0-11.5c0-8.1-0.6-14.5-1.9-19.1c-0.1-0.3-0.1-0.5-0.1-0.7
		c0-0.5,0.2-0.9,0.7-1.1c2.1-0.2,4.8-0.6,8.2-1.1c5.2-1,8.1-1.5,8.7-1.5c0.4,0,0.6,1.1,0.8,3.3s0.5,3.3,0.8,3.3
		c-0.4,0,1.4-1.1,5.2-3.4c3.9-2.3,7.2-3.4,10.1-3.4c4.1,0,7.6,1,10.4,2.9c3.1,2.2,4.6,5.4,4.6,9.4v15.6c0,2.1,0,5.3,0,9.5
		C898.6,109.4,898.6,112.6,898.6,114.7z"/>
</g>
</svg>
