<?xml version="1.0" encoding="utf-8"?>
<!-- Generator: Adobe Illustrator 19.0.0, SVG Export Plug-In . SVG Version: 6.00 Build 0)  -->
<svg version="1.1" id="Layer_1" xmlns="http://www.w3.org/2000/svg" xmlns:xlink="http://www.w3.org/1999/xlink" x="0px" y="0px"
	 viewBox="0 0 1600 850" style="enable-background:new 0 0 1600 850;" xml:space="preserve">
<style type="text/css">
	.st0{fill:#4277BC;}
	.st1{fill:#FFFFFF;}
</style>
<rect id="XMLID_1_" x="23.1" y="71.1" class="st0" width="315" height="259.5"/>
<rect id="XMLID_2_" x="546.6" y="21.6" class="st0" width="334.5" height="256.5"/>
<rect id="XMLID_3_" x="1205.1" y="42.6" class="st0" width="364.5" height="280.5"/>
<rect id="XMLID_4_" x="1241.1" y="510.6" class="st0" width="342" height="288"/>
<rect id="XMLID_5_" x="710.1" y="399.6" class="st0" width="255" height="228"/>
<rect id="XMLID_6_" x="36.6" y="566.1" class="st0" width="531" height="189"/>
<g id="XMLID_112_">
	<path id="XMLID_113_" class="st1" d="M132.6,192.2c0,7.9-2.1,14.3-6.2,19.1c-4.4,5.2-10.5,7.8-18.3,7.8c-1.3,0-3.3-0.1-5.9-0.2
		c-2.6-0.1-4.6-0.2-5.9-0.2c-1.4,0-2.1,0.6-2.1,1.8c0,1.5,0.1,3.7,0.4,6.7c0.3,3,0.4,5.2,0.4,6.6c0,0.7-0.3,1.1-1,1.1
		c-2,0-5-0.1-8.9-0.2c-4-0.1-7-0.2-8.9-0.2c-0.9,0-1.4-0.5-1.4-1.4c0-3.6,0.1-9,0.2-16.3c0.1-7.2,0.2-12.7,0.2-16.3
		c0-10.2-0.4-21-1.3-32.2l0-0.7c-0.1-0.6,0.4-1,1.5-1.1c2.5-0.3,8.1-0.5,16.8-0.5c5.1,0,10,0.1,14.7,0.2c7.7,0.2,13.9,2.7,18.7,7.3
		C130.2,178.3,132.6,184.5,132.6,192.2z M113.1,193c0-7.6-3.7-11.4-11.1-11.4c-5.2,0-7.9,0.3-8.2,0.9c-0.2,0.4-0.3,4.2-0.3,11.3
		c0,1,0,2.5,0.1,4.5c0.1,2,0.1,3.5,0.1,4.5c0,0.7,2.9,1,8.8,1C109.6,203.7,113.1,200.1,113.1,193z"/>
	<path id="XMLID_116_" class="st1" d="M204.8,233.1c0,0.7-0.1,1.1-0.4,1.3c-0.1,0.1-0.6,0.2-1.4,0.2c-2,0.2-4.8,0.3-8.4,0.3
		c-5.1,0-8.1-0.1-9-0.3c-0.9-0.2-1.3-0.6-1.3-1.3c0-2.6,0.1-6.4,0.4-11.6c0.2-5.2,0.4-9,0.4-11.6c0-1.3-0.4-2-1.1-2.2
		c-1.1-0.3-5-0.4-11.8-0.4c-6.8,0-10.8,0.1-11.9,0.4c-0.7,0.2-1.1,0.9-1.1,2.2c0,2.5,0.1,6.3,0.2,11.4c0.2,5.1,0.2,8.9,0.2,11.4
		c0,1-0.4,1.5-1.3,1.7c-1,0.2-4.1,0.3-9.2,0.3c-4.4,0-7.2-0.1-8.4-0.3c-0.9-0.2-1.4-0.7-1.4-1.5c0-3.5,0.2-8.8,0.5-15.9
		c0.3-7.1,0.5-12.4,0.5-16c0-3.8-0.2-9.4-0.5-17c-0.3-7.6-0.5-13.2-0.5-17c0-0.7,0.3-1.1,1-1.1c1,0,2.5,0,4.6,0.1
		c2,0.1,3.6,0.1,4.6,0.1c1,0,2.6,0,4.7-0.1s3.7-0.1,4.7-0.1c0.6,0,0.8,0.3,0.8,0.9c0,2.4-0.2,6.1-0.5,11c-0.4,4.9-0.5,8.5-0.5,11
		c0,1.1,0.3,1.8,0.9,2c0.8,0.3,5,0.4,12.5,0.4c7,0,11-0.1,12.1-0.4c0.8-0.2,1.2-0.9,1.2-2c0-2.3-0.1-5.9-0.3-10.6
		c-0.2-4.7-0.3-8.3-0.3-10.7c0-1,0.4-1.5,1.2-1.5c0.9,0,2.4,0,4.3,0.1c1.9,0.1,3.4,0.1,4.4,0.1c0.9,0,2.4,0,4.3-0.1
		c1.9-0.1,3.4-0.1,4.4-0.1c0.9,0,1.4,0.4,1.4,1.2c0,3.7-0.2,9.4-0.5,16.9c-0.3,7.6-0.5,13.2-0.5,17c0,3.5,0.2,8.9,0.5,16
		C204.7,224.3,204.8,229.6,204.8,233.1z"/>
	<path id="XMLID_118_" class="st1" d="M272.3,192.2c0,7.9-2.1,14.3-6.2,19.1c-4.4,5.2-10.5,7.8-18.3,7.8c-1.3,0-3.3-0.1-5.9-0.2
		c-2.6-0.1-4.6-0.2-5.9-0.2c-1.4,0-2.1,0.6-2.1,1.8c0,1.5,0.1,3.7,0.4,6.7c0.3,3,0.4,5.2,0.4,6.6c0,0.7-0.3,1.1-1,1.1
		c-2,0-5-0.1-8.9-0.2c-4-0.1-7-0.2-8.9-0.2c-0.9,0-1.4-0.5-1.4-1.4c0-3.6,0.1-9,0.2-16.3c0.1-7.2,0.2-12.7,0.2-16.3
		c0-10.2-0.4-21-1.3-32.2l0-0.7c-0.1-0.6,0.4-1,1.5-1.1c2.5-0.3,8.1-0.5,16.8-0.5c5.1,0,10,0.1,14.7,0.2c7.7,0.2,13.9,2.7,18.7,7.3
		C269.9,178.3,272.3,184.5,272.3,192.2z M252.8,193c0-7.6-3.7-11.4-11.1-11.4c-5.2,0-7.9,0.3-8.2,0.9c-0.2,0.4-0.3,4.2-0.3,11.3
		c0,1,0,2.5,0.1,4.5c0.1,2,0.1,3.5,0.1,4.5c0,0.7,2.9,1,8.8,1C249.3,203.7,252.8,200.1,252.8,193z"/>
</g>
<g id="XMLID_103_">
	<path id="XMLID_104_" class="st1" d="M655.2,178.1c0,0.7-0.1,1.1-0.4,1.3c-0.1,0.1-0.6,0.2-1.4,0.2c-2,0.2-4.8,0.3-8.4,0.3
		c-5.1,0-8.1-0.1-9-0.3c-0.9-0.2-1.3-0.6-1.3-1.3c0-2.6,0.1-6.4,0.4-11.6c0.2-5.2,0.4-9,0.4-11.6c0-1.3-0.4-2-1.1-2.2
		c-1.1-0.3-5-0.4-11.8-0.4c-6.8,0-10.8,0.1-11.9,0.4c-0.7,0.2-1.1,0.9-1.1,2.2c0,2.5,0.1,6.3,0.2,11.4c0.2,5.1,0.2,8.9,0.2,11.4
		c0,1-0.4,1.5-1.3,1.7c-1,0.2-4.1,0.3-9.2,0.3c-4.4,0-7.2-0.1-8.4-0.3c-0.9-0.2-1.4-0.7-1.4-1.5c0-3.5,0.2-8.8,0.5-15.9
		c0.3-7.1,0.5-12.4,0.5-16c0-3.8-0.2-9.4-0.5-17c-0.3-7.6-0.5-13.2-0.5-17c0-0.7,0.3-1.1,1-1.1c1,0,2.5,0,4.6,0.1
		c2,0.1,3.6,0.1,4.6,0.1c1,0,2.6,0,4.7-0.1s3.7-0.1,4.7-0.1c0.6,0,0.8,0.3,0.8,0.9c0,2.4-0.2,6.1-0.5,11c-0.4,4.9-0.5,8.5-0.5,11
		c0,1.1,0.3,1.8,0.9,2c0.8,0.3,5,0.4,12.5,0.4c7,0,11-0.1,12.1-0.4c0.8-0.2,1.2-0.9,1.2-2c0-2.3-0.1-5.9-0.3-10.6
		c-0.2-4.7-0.3-8.3-0.3-10.7c0-1,0.4-1.5,1.2-1.5c0.9,0,2.4,0,4.3,0.1c1.9,0.1,3.4,0.1,4.4,0.1c0.9,0,2.4,0,4.3-0.1
		c1.9-0.1,3.4-0.1,4.4-0.1c0.9,0,1.4,0.4,1.4,1.2c0,3.7-0.2,9.4-0.5,16.9c-0.3,7.6-0.5,13.2-0.5,17c0,3.5,0.2,8.9,0.5,16
		C655,169.3,655.2,174.6,655.2,178.1z"/>
	<path id="XMLID_106_" class="st1" d="M711.7,126.1c0,0.7-0.4,1-1.1,1c-1.2,0-6.1-0.2-14.7-0.7c-0.2,8.2-0.3,14-0.3,17.2
		c0,3.8,0.2,9.6,0.5,17.3c0.3,7.7,0.5,13.5,0.5,17.3c0,0.6-0.1,1-0.4,1.2c-0.1,0.1-0.6,0.1-1.4,0.2c-2,0.3-4.8,0.4-8.6,0.4
		c-4.2,0-7.1-0.1-8.8-0.4c-0.9-0.2-1.4-0.7-1.4-1.5c0-3.8,0.2-9.6,0.5-17.3c0.3-7.7,0.5-13.4,0.5-17.3c0-2.5-0.1-8.2-0.4-17
		c-6.5,0.7-11.7,1-15.6,1c-0.5,0-0.8-0.2-0.8-0.5c0-0.4,0.2-1.7,0.7-3.8c0.5-2.3,0.8-3.7,0.9-4.2c0.1-1.5,0.2-3.1,0.3-4.6
		c0.2-2.4,0.6-3.7,1.2-3.7c0.1,0,0.3,0,0.7,0c5.3,0.7,13.1,1,23.4,1c2.9,0,8.3-0.3,16.2-0.9c4.2-0.3,6.4-0.5,6.4-0.5
		c0.7,0,1,0,1.1,0.1c0.1,0.1,0.2,0.4,0.2,1c0,0.9,0,2.1-0.1,3.7c-0.1,1.7-0.1,2.9-0.1,3.7c0,0.8,0.1,2,0.3,3.6
		C711.6,124.1,711.7,125.3,711.7,126.1z"/>
	<path id="XMLID_108_" class="st1" d="M789.7,178.1c0,1-0.5,1.5-1.4,1.5H771c-0.9,0-1.4-0.6-1.4-1.7c0-3.3,0.1-8.2,0.4-14.8
		c0.2-6.6,0.4-11.5,0.4-14.8c0-0.9-0.1-1.4-0.4-1.5c-0.4,0.2-2.5,5.2-6.5,15.1c-2.3,5.8-4.7,11.6-7,17.3c-0.3,0.7-0.7,1.2-1.2,1.3
		c-0.2,0-0.8,0-2,0c-1.7,0-2.7-0.3-3-1c-1.8-3.6-4.1-8.8-6.9-15.6c-3.1-7.2-5.4-12.5-6.9-15.7c-0.1-0.2-0.2-0.3-0.4-0.5
		c-0.2,0.3-0.3,0.8-0.3,1.4c0,3.2,0.1,8,0.2,14.4c0.2,6.4,0.2,11.2,0.2,14.4c0,1.1-0.5,1.7-1.4,1.7h-16.3c-0.7,0-1-0.1-1.2-0.3
		c-0.1-0.2-0.2-0.6-0.2-1.1c0-3.5,0.2-8.9,0.5-16c0.3-7.1,0.5-12.4,0.5-16c0-3.8-0.2-10.9-0.5-21.2c0-2.7-0.2-6.7-0.4-12.1l0-0.8
		c0-0.7,0.7-1,2.1-1c1.8,0,4.5-0.1,8.1-0.2c3.6-0.1,6.3-0.2,8.1-0.2c0.4,0,0.9,0.7,1.5,2.1l14.3,31.3c1,2.1,1.9,3.2,2.5,3.2
		c0.4,0,1.1-1.2,2.3-3.7c3.3-6.8,8.2-17.1,14.6-30.9c0.6-1.3,1.2-1.9,1.8-1.9c0.9,0,2.4,0,4.3,0.1s3.3,0.1,4.3,0.1
		c0.8,0,2.1-0.1,3.7-0.2c1.7-0.2,2.9-0.2,3.7-0.2c1,0,1.5,0.4,1.5,1.2c0,3.8-0.1,9.6-0.4,17.2c-0.3,7.6-0.4,13.4-0.4,17.2
		c0,3.5,0.1,8.9,0.4,16C789.6,169.3,789.7,174.6,789.7,178.1z"/>
	<path id="XMLID_110_" class="st1" d="M843.7,180.4c-2.8,0-6.4-0.1-10.9-0.2c-5.9-0.1-9.5-0.2-10.9-0.2l-14.6-0.2
		c-1.5,0-3.6,0-6.3-0.2c-0.9-0.2-1.4-0.7-1.4-1.5c0-3.5,0.1-8.9,0.2-15.9c0.1-7.1,0.2-12.4,0.2-15.9c0-3.8-0.1-9.4-0.3-17
		c-0.2-7.5-0.3-13.2-0.3-17c0-0.7,0.5-1.1,1.5-1.1c1,0,2.4,0,4.4,0.1c1.9,0.1,3.4,0.1,4.3,0.1c1.1,0,2.7-0.1,4.8-0.2
		c2.1-0.1,3.7-0.2,4.8-0.2c0.5,0,0.7,0.3,0.7,0.9l0,0.6c-0.4,6.1-0.8,15.3-1.3,27.6l0,12.9c0,4.2,0,7.2,0,9.1c0,0.4,0.1,0.8,0.1,1.2
		c0,0.4,0.3,0.6,0.7,0.7c0,0,0.5,0,1.3,0c2.9,0,7.3-0.2,13.2-0.5c5.8-0.3,10.2-0.5,13.2-0.5c0.9,0,1.3,0.4,1.3,1.1
		c0,5.6-0.4,10.4-1.2,14.4c-0.2,0.8-0.5,1.4-1,1.5C845.5,180.4,844.8,180.4,843.7,180.4z"/>
</g>
<g id="XMLID_78_">
	<path id="XMLID_79_" class="st1" d="M101.1,655.6c0,8.1-0.7,14.4-2,18.9c-2.4,7.9-6.3,14.1-11.6,18.6c-0.6,0.6-1.1,0.8-1.5,0.8
		c-0.4,0-0.7-0.2-1.1-0.6c-1.1-1.3-2.9-3.3-5.3-6c-1.4-1.2-3.5-3-6.2-5.5c-0.4-0.4-0.5-0.7-0.5-1c0-0.3,0.2-0.6,0.5-0.9
		c2.4-2.1,3.9-3.6,4.6-4.3c1.3-1.5,2.2-3.4,2.9-5.8c0.9-3.2,1.4-8.3,1.4-15.6c0-16.7-0.6-29.7-1.8-38.9c-0.1-0.3-0.1-0.6-0.1-0.7
		c0-0.6,0.5-0.9,1.6-0.9c1,0,2.6,0,4.6,0.1c2,0.1,3.6,0.1,4.6,0.1c1,0,2.4,0,4.3-0.1c1.9-0.1,3.4-0.1,4.3-0.1c0.9,0,1.4,0.4,1.4,1.3
		c0,4.5,0,11.3-0.1,20.3C101.1,644.3,101.1,651.1,101.1,655.6z"/>
	<path id="XMLID_81_" class="st1" d="M159.6,657.7c0,2.5,0.1,6.2,0.4,11.2c0.3,4.9,0.4,8.7,0.4,11.1c0,1.3-0.6,2-1.7,2.1
		c-4,0.3-8.7,0.4-13.9,0.4c-0.6,0-1-0.9-1.2-2.8c-0.2-1.9-0.5-2.8-0.8-2.9c-0.3,0.1-0.6,0.4-1,0.8c-3.6,3.7-7.6,5.5-11.7,5.5
		c-6.3,0-11.6-2.5-15.8-7.5c-3.9-4.7-5.9-10.3-5.9-16.8c0-7.5,2-13.6,6.1-18.2c4.2-4.8,10-7.1,17.4-7.1c5.1,0,9.1,1.8,12.1,5.4
		c0.1,0.2,0.2,0.2,0.3,0.2c0.3,0,0.6-0.8,1-2.4c0.4-1.6,0.8-2.4,1.3-2.4c1.2,0,3.5,0.3,6.9,1c3.2,0.7,5.5,1.2,6.9,1.7
		c0.5,0.2,0.7,0.5,0.7,0.8c0,0.1,0,0.5-0.1,1C160.1,644.9,159.6,651.1,159.6,657.7z M143.9,658c0-2.8-0.9-5.1-2.6-6.9
		c-1.7-1.8-4-2.7-6.8-2.7c-2.8,0-5.1,0.9-6.8,2.7c-1.7,1.8-2.6,4.1-2.6,6.9c0,2.6,0.9,4.9,2.7,6.8c1.8,1.9,4,2.8,6.6,2.8
		c2.8,0,5-0.9,6.8-2.7S143.9,660.8,143.9,658z"/>
	<path id="XMLID_84_" class="st1" d="M216.3,648.2c0,5.6-0.2,8.9-0.5,9.9c-0.7,2.3-3,6.2-6.7,11.8c-3.3,4.8-6,8.5-8.3,11.1
		c-0.8,1-3.4,1.5-7.7,1.5c-3.7,0-6.1-0.1-7.2-0.4c-0.7-0.2-1.3-0.5-1.7-1c-2-2.1-4.7-5.8-8.3-11c-3.9-5.6-6.2-9.5-6.9-11.6
		c-0.8-2.2-1.2-5.6-1.2-10.1c0-1.3,0-3.2,0-5.7c0-2.6,0-4.5,0-5.8c0-0.8,0.6-1.3,1.7-1.3c1.7,0,4.2,0,7.5,0.1
		c3.3,0.1,5.8,0.1,7.5,0.1c0.7,0,1.1,0.5,1.1,1.5c0,0.9-0.1,2.3-0.2,4.1c-0.1,1.8-0.2,3.2-0.2,4.2c0,3.4,0.1,6.2,0.3,8.3
		c0.1,1.1,1,3.2,2.8,6.3c1.9,3.2,3.2,4.8,4.1,4.8c0.8,0,2.1-1.6,3.9-4.7c1.7-3,2.7-5,2.8-6.1c0.3-2.3,0.4-5.1,0.4-8.4
		c0-0.9-0.1-2.4-0.3-4.3s-0.3-3.3-0.3-4.2c0-1,0.3-1.5,1-1.5c0.8,0,1.9,0,3.5,0c1.5,0,2.7,0,3.5,0s2-0.1,3.5-0.2
		c1.6-0.1,2.8-0.2,3.5-0.2c0.8,0,1.4,0.4,1.6,1.3C216,638.7,216.3,642.5,216.3,648.2z"/>
	<path id="XMLID_86_" class="st1" d="M272,657.7c0,2.5,0.1,6.2,0.4,11.2c0.3,4.9,0.4,8.7,0.4,11.1c0,1.3-0.6,2-1.7,2.1
		c-4,0.3-8.7,0.4-13.9,0.4c-0.6,0-1-0.9-1.2-2.8c-0.2-1.9-0.5-2.8-0.8-2.9c-0.3,0.1-0.6,0.4-1,0.8c-3.6,3.7-7.6,5.5-11.7,5.5
		c-6.3,0-11.6-2.5-15.8-7.5c-3.9-4.7-5.9-10.3-5.9-16.8c0-7.5,2-13.6,6.1-18.2c4.2-4.8,10-7.1,17.4-7.1c5.1,0,9.1,1.8,12.1,5.4
		c0.1,0.2,0.2,0.2,0.3,0.2c0.3,0,0.6-0.8,1-2.4c0.4-1.6,0.8-2.4,1.3-2.4c1.2,0,3.5,0.3,6.9,1c3.2,0.7,5.5,1.2,6.9,1.7
		c0.5,0.2,0.7,0.5,0.7,0.8c0,0.1,0,0.5-0.1,1C272.5,644.9,272,651.1,272,657.7z M256.3,658c0-2.8-0.9-5.1-2.6-6.9
		c-1.7-1.8-4-2.7-6.8-2.7c-2.8,0-5.1,0.9-6.8,2.7c-1.7,1.8-2.6,4.1-2.6,6.9c0,2.6,0.9,4.9,2.7,6.8c1.8,1.9,4,2.8,6.6,2.8
		c2.8,0,5-0.9,6.8-2.7S256.3,660.8,256.3,658z"/>
	<path id="XMLID_89_" class="st1" d="M315.3,659.6c0,6.6-2.8,12.3-8.3,17c-4.9,4.2-10.8,6.8-17.8,8c-0.3,0-0.5,0-0.6,0
		c-0.7,0-2.4-2.3-5-6.9c-2.6-4.6-3.9-7.4-3.9-8.4c0-0.4,0.2-0.6,0.7-0.7c4.7-1.1,7.8-2,9.4-2.7c3.4-1.7,5.1-4.2,5.1-7.5
		c0-2.1-1.1-4.5-3.3-7.1c-3.8-4.4-5.9-6.9-6.3-7.4c-2.2-3.4-3.4-7.1-3.4-11.2c0-6,2.8-10.9,8.3-14.8c4.5-3.3,10-5.4,16.6-6.3
		c0.4,0,0.6,0,0.8,0c0.5,0,0.9,0.4,1.2,1.2c0.8,2.4,2.8,6.7,5.9,12.9c0.1,0.2,0.1,0.4,0.1,0.5c0,0.6-0.3,0.8-0.9,0.8
		c-0.3,0-0.7,0-1.3-0.1c-0.6-0.1-1.1-0.1-1.4-0.1c-2.3,0-4.4,0.5-6.2,1.6c-2.1,1.2-3.2,3-3.2,5.2c0,2,1.2,4.4,3.5,7.3
		c4.1,5.2,6.3,7.9,6.5,8.2C314.2,652.5,315.3,656.1,315.3,659.6z"/>
	<path id="XMLID_91_" class="st1" d="M355.4,650c0,0-1-0.3-3-0.8c-1.9-0.5-3.5-0.8-4.7-0.8c-2.9,0-5.2,0.9-6.9,2.6
		c-1.7,1.7-2.6,4.1-2.6,7c0,3,0.9,5.3,2.8,7.1c1.9,1.7,4.3,2.6,7.4,2.6c1.4,0,3-0.4,4.8-1.1c1.8-0.7,2.6-1.1,2.5-1.1
		c0.6,0,1.3,2.1,2.1,6.2c0.7,3.8,1.1,6.3,1.1,7.5c0,1.2-2,2.3-6.1,3.2c-3.1,0.7-5.6,1-7.6,1c-7.2,0-13.1-2.4-17.7-7.2
		c-4.7-4.8-7-10.8-7-18c0-7.1,2.3-13.1,7-18c4.7-4.9,10.6-7.3,17.7-7.3c4.9,0,9.1,1,12.8,3.1c0.8,0.5,1.3,0.9,1.3,1.3
		c0,0.4-0.5,2.3-1.5,5.8c-0.9,3.3-1.5,5.3-1.8,6C356,649.6,355.7,650,355.4,650z"/>
	<path id="XMLID_93_" class="st1" d="M397.1,651.7c0,1.3-0.7,1.9-2.1,1.9c-0.6,0-1.5,0-2.7-0.1c-1.2-0.1-2.1-0.1-2.7-0.1
		c-2.7,0-4.5,0.4-5.5,1.3c-1,0.8-1.5,2.6-1.5,5.1c0,1.4,0,3.5,0.1,6.4c0,2.8,0.1,5,0.1,6.4c0,0.9,0.1,2.4,0.2,4.2
		c0.1,1.9,0.2,3.3,0.2,4.2c0,0.8-0.5,1.2-1.6,1.3c-1.6,0.1-4,0.2-7.2,0.2c-3.1,0-5.6-0.1-7.4-0.3c-1.1-0.1-1.6-0.7-1.6-1.6
		c0-2.6,0-6.5,0-11.7c0-5.2,0-9.1,0-11.7c0-7.6-0.7-13.9-2.1-18.9c-0.1-0.3-0.1-0.5-0.1-0.7c0-0.5,0.2-0.8,0.7-1
		c1.8-0.2,4.4-0.6,7.9-1.1c5.1-1,7.8-1.5,8-1.5c0.6,0,1,1,1.1,3.1c0.2,2.1,0.5,3.1,0.9,3.1c-0.5,0,0.9-0.9,4-2.6s6.1-2.6,9-2.6
		c1.8,0,2.7,0.4,2.7,1.2c0,0.9-0.1,2.3-0.3,4c-0.2,1.9-0.3,3.2-0.3,4c0,0.9,0,2.2,0,3.8C397,649.8,397.1,651.1,397.1,651.7z"/>
	<path id="XMLID_95_" class="st1" d="M420.9,659.7c0,2.4,0,5.9,0.1,10.6c0.1,4.7,0.1,8.2,0.1,10.6c0,0.7-0.4,1.1-1.2,1.2
		c-1.1,0.2-3.6,0.3-7.5,0.3c-3.9,0-6.4-0.1-7.5-0.3c-0.7-0.1-1.2-0.3-1.3-0.6c-0.1-0.1-0.1-0.6-0.1-1.5c0-2.2,0-5.6,0.1-10.1
		c0.1-4.5,0.1-7.9,0.1-10.2c0-9.2-0.4-16.6-1.1-22.1c-0.1-0.5-0.1-0.9-0.1-1c0-0.7,0.4-1,1.3-1c0.9,0,2.3,0.1,4.2,0.3
		c1.9,0.2,3.3,0.3,4.2,0.3c0.9,0,2.4-0.1,4.2-0.2c1.9-0.2,3.3-0.2,4.2-0.2c0.8,0,1.2,0.3,1.2,1c0,0.1,0,0.4-0.1,0.9
		C421.2,644,420.9,651.3,420.9,659.7z M422.1,623.4c0,5.7-3.2,8.5-9.6,8.5c-2.7,0-5-0.7-6.8-2.1c-2-1.6-2.9-3.7-2.9-6.3
		c0-2.5,1-4.6,3-6.3c1.9-1.5,4.1-2.2,6.7-2.2c2.5,0,4.7,0.8,6.6,2.3C421.1,618.8,422.1,620.9,422.1,623.4z"/>
	<path id="XMLID_98_" class="st1" d="M484.1,658.6c0,7-2.1,12.7-6.2,17.3c-4.2,4.8-9.8,7.1-16.7,7.1c-2.5,0-5.2-0.6-8.1-1.9
		c-2.9-1.2-4.2-1.9-3.9-1.9c-0.4,0-0.6,0.5-0.6,1.5c0,1.7,0.1,4.2,0.2,7.5c0.2,3.3,0.2,5.8,0.2,7.5c0,1-0.5,1.6-1.6,1.6l-10,0
		c-2.2,0-3.7-0.1-4.3-0.2c-1-0.2-1.5-0.8-1.5-1.8l0.1-37.6c0-7.6-0.6-14-1.7-19.2c-0.1-0.3-0.1-0.6-0.1-0.8c0-0.5,0.2-0.8,0.6-1
		c1.3-0.5,3.7-1,7.3-1.6c3.5-0.6,6-0.8,7.6-0.8c1.3,0,2,0.8,2.2,2.5c0.2,1.7,0.4,2.5,0.7,2.5c-0.3,0,1.1-0.9,4.2-2.7
		c3.1-1.8,5.9-2.7,8.5-2.7c7.1,0,12.7,2.3,16.9,7C482.1,645.6,484.1,651.4,484.1,658.6z M466,658.5c0-2.6-0.8-4.9-2.4-6.8
		c-1.7-2.1-3.9-3.1-6.4-3.1c-2.6,0-4.7,1-6.3,3.1c-1.4,1.9-2.1,4.1-2.1,6.8c0,2.8,0.7,5.1,2.1,6.9c1.5,2,3.6,3,6.3,3
		C463.2,668.4,466,665.1,466,658.5z"/>
	<path id="XMLID_101_" class="st1" d="M523.1,667.8c0,1-0.1,2.5-0.4,4.4c-0.2,2-0.4,3.4-0.4,4.4s-0.1,1.5-0.3,1.8
		c-0.2,0.3-0.7,0.6-1.6,1.1c-4.2,2.3-8.9,3.5-14,3.5c-9.4,0-14.1-3.6-14.1-10.8c0-2.1,0.1-5.4,0.2-9.7c0.2-4.3,0.2-7.5,0.2-9.7
		c0-1.4-0.8-2.1-2.5-2.1c-0.1,0-0.3,0-0.6,0c-0.3,0-0.5,0-0.6,0c-1.2,0-1.9-0.4-1.9-1.3c0-0.5,0-1.3,0.1-2.4
		c0.1-1.1,0.1-1.9,0.1-2.4c0-0.7,0-1.7-0.1-3.1c-0.1-1.4-0.1-2.4-0.1-3.1c0-0.7,1-1,3.1-1.1c1.2,0,1.8-0.4,1.9-1
		c0.2-1.2,0.3-3.2,0.2-5.9c-0.1-4.2-0.2-6.2-0.2-6c0-3.8,0.4-5.7,1.1-5.7c0.9,0,2.1,0.2,3.8,0.6c1.9,0.4,3.1,0.7,3.9,0.7
		c1.7,0.2,4.2,0.5,7.5,0.9c0.8,0.1,1.2,0.3,1.2,0.8c0,1.3-0.1,3.3-0.3,5.9c-0.2,2.6-0.3,4.6-0.3,6c0,1.6,0.5,2.4,1.4,2.4
		c1.1,0,2.9,0,5.2-0.1c2.3-0.1,4.1-0.1,5.2-0.1c0.7,0,1.1,0.2,1.1,0.7c0,0.8-0.1,1.9-0.2,3.4c-0.2,1.5-0.2,2.6-0.2,3.4
		c0,0.8,0,1.9,0,3.4c0,1.5,0,2.6,0,3.4c0,0.7-0.5,1-1.4,1c-0.7,0-1.7,0-3.3-0.1c-1.5,0-2.6-0.1-3.3-0.1H510c-0.5,0-0.7,0.7-0.7,2.1
		c0,0.8,0,1.9,0,3.5c0,1.6,0,2.7,0,3.5c0,2.7,0.3,4.6,0.9,5.7c0.9,1.4,2.6,2.1,5.2,2.1c0.8,0,2-0.2,3.5-0.6c1.5-0.4,2.6-0.6,3.2-0.6
		C522.8,666.7,523.1,667.1,523.1,667.8z"/>
</g>
<g id="XMLID_71_">
	<path id="XMLID_72_" class="st1" d="M828.6,532.6c0,0.5-0.3,1.2-1,2.1c-6,7.1-13.9,10.7-23.9,10.7c-10.2,0-18.4-3.5-24.7-10.4
		c-6.2-6.7-9.2-15.2-9.2-25.4c0-9.9,3-18.3,9-25.2c6.3-7.2,14.3-10.8,24-10.8c10.5,0,18.8,3.2,24.8,9.7c0.7,0.7,1,1.4,1,1.9
		c0,0.6-1.1,2.9-3.4,6.9c-2.3,4-3.7,6.2-4.3,6.7c-0.3,0.3-0.6,0.4-1,0.4c-0.2,0-1-0.7-2.4-2c-1.8-1.6-3.5-2.8-5.2-3.7
		c-2.6-1.3-5.2-2-8-2c-4.8,0-8.6,1.8-11.5,5.4c-2.6,3.3-4,7.4-4,12.3c0,4.9,1.3,9.1,4,12.5c2.9,3.6,6.7,5.5,11.5,5.5
		c2.8,0,5.5-0.6,8.1-1.9c1.7-0.8,3.4-2,5.1-3.4c1.4-1.2,2.2-1.9,2.4-1.9c0.3,0,0.7,0.2,1,0.5c0.5,0.6,1.9,2.6,4.2,6.1
		C827.4,530.2,828.6,532.2,828.6,532.6z"/>
	<path id="XMLID_74_" class="st1" d="M867.2,521.1c0,6.6-2.8,12.3-8.3,17c-4.9,4.2-10.8,6.8-17.8,8c-0.3,0-0.5,0-0.6,0
		c-0.7,0-2.4-2.3-5-6.9s-3.9-7.4-3.9-8.4c0-0.4,0.2-0.6,0.7-0.7c4.7-1.1,7.8-2,9.4-2.7c3.4-1.7,5.1-4.2,5.1-7.5
		c0-2.1-1.1-4.5-3.3-7.1c-3.8-4.4-5.9-6.9-6.3-7.4c-2.2-3.4-3.4-7.1-3.4-11.2c0-6,2.8-10.9,8.3-14.8c4.5-3.3,10-5.4,16.6-6.3
		c0.4,0,0.6,0,0.8,0c0.5,0,0.9,0.4,1.2,1.2c0.8,2.4,2.8,6.7,5.9,12.9c0.1,0.2,0.1,0.4,0.1,0.5c0,0.6-0.3,0.8-0.9,0.8
		c-0.3,0-0.7,0-1.3-0.1c-0.6-0.1-1.1-0.1-1.4-0.1c-2.3,0-4.4,0.5-6.2,1.6c-2.1,1.2-3.2,3-3.2,5.2c0,2,1.2,4.4,3.5,7.3
		c4.1,5.2,6.3,7.9,6.5,8.2C866,514,867.2,517.6,867.2,521.1z"/>
	<path id="XMLID_76_" class="st1" d="M908.6,521.1c0,6.6-2.8,12.3-8.3,17c-4.9,4.2-10.8,6.8-17.8,8c-0.3,0-0.5,0-0.6,0
		c-0.7,0-2.4-2.3-5-6.9c-2.6-4.6-3.9-7.4-3.9-8.4c0-0.4,0.2-0.6,0.7-0.7c4.7-1.1,7.8-2,9.4-2.7c3.4-1.7,5.1-4.2,5.1-7.5
		c0-2.1-1.1-4.5-3.3-7.1c-3.8-4.4-5.9-6.9-6.3-7.4c-2.2-3.4-3.4-7.1-3.4-11.2c0-6,2.8-10.9,8.3-14.8c4.5-3.3,10-5.4,16.6-6.3
		c0.4,0,0.6,0,0.8,0c0.5,0,0.9,0.4,1.2,1.2c0.8,2.4,2.8,6.7,5.9,12.9c0.1,0.2,0.1,0.4,0.1,0.5c0,0.6-0.3,0.8-0.9,0.8
		c-0.3,0-0.7,0-1.3-0.1c-0.6-0.1-1.1-0.1-1.4-0.1c-2.3,0-4.4,0.5-6.2,1.6c-2.1,1.2-3.2,3-3.2,5.2c0,2,1.2,4.4,3.5,7.3
		c4.1,5.2,6.3,7.9,6.5,8.2C907.4,514,908.6,517.6,908.6,521.1z"/>
</g>
<g id="XMLID_48_">
	<path id="XMLID_49_" class="st1" d="M1383.3,579.6c0,0.1-3,6.7-9.1,19.7c-6.2,13.3-9.7,20.8-10.5,22.4c-0.3,0.6-0.5,0.9-0.5,1
		c-0.1,0.2-0.4,0.3-0.9,0.4c-0.8,0.2-3.1,0.3-6.9,0.3c-3.5,0-5.7-0.1-6.5-0.3c-0.7-0.2-1-0.3-1.2-0.4c-0.1-0.1-0.3-0.4-0.6-0.9
		c-0.2-0.4-1.1-2.7-2.8-6.9l-5.3-13.6l-5.4,13.7c-0.6,1.6-1.5,3.8-2.7,6.7c-0.3,0.6-0.6,0.9-0.7,1c-0.1,0.1-0.5,0.2-1.1,0.3
		c-1.1,0.2-3.2,0.3-6.4,0.3c-3.9,0-6.3-0.1-7-0.3c-0.6-0.1-1-0.6-1.4-1.4c-12.8-26.2-19.1-40.2-19.1-42.1c0-2.6,0.1-6.5,0.3-11.7
		c0.2-5.2,0.3-9.1,0.3-11.7c0-1.1,0.3-1.6,1-1.6c1.9,0,4.7,0.1,8.4,0.2s6.6,0.2,8.5,0.2c0.7,0,1.1,0.3,1.1,0.9
		c0,2.6-0.1,6.5-0.4,11.8s-0.4,9.2-0.4,11.8c0,1,1.2,4.1,3.6,9.3c2.1,4.7,3.7,7.9,4.7,9.5c0.5,0.8,0.8,1.3,1,1.3
		c0.3,0,0.9-1.6,2-4.7c3.1-8.8,4.6-13.9,4.7-15.5c0.1-3,0.1-6.8,0-11.4c-0.1-6.7-0.1-10.5-0.1-11.5c0-0.6,0-1,0.1-1.1
		s0.5-0.2,1.1-0.3c1.7-0.2,4.5-0.3,8.6-0.3c6.2,0,9.3,0.4,9.3,1.3c0,2.2-0.1,5.6-0.2,10.2c-0.2,4.5-0.2,7.8-0.2,10.2v2.5
		c0,1.7,1.7,7,5,15.9c1.1,3.1,1.8,4.6,2.1,4.6c0.2,0,0.5-0.4,1-1.3c0.9-1.6,2.4-4.8,4.4-9.5c2.2-5.1,3.4-8.2,3.4-9.2
		c0-2.6-0.1-6.6-0.4-11.8s-0.4-9.2-0.4-11.8c0-0.6,0.4-0.9,1.1-0.9c1.9,0,4.8-0.1,8.7-0.2s6.7-0.2,8.7-0.2c0.6,0,0.9,0.7,0.9,2
		c0,2.6,0.1,6.4,0.3,11.5C1383.2,573.2,1383.3,577,1383.3,579.6z"/>
	<path id="XMLID_51_" class="st1" d="M1437.1,599.1c0,7.4-2.3,13.4-6.8,18.1s-10.5,6.9-17.9,6.9c-7.2,0-13.1-2.3-17.7-6.8
		c-4.6-4.6-6.9-10.4-6.9-17.6c0-7.6,2.2-13.7,6.6-18.4c4.4-4.7,10.4-7.1,18-7.1c7.4,0,13.3,2.3,17.9,6.9
		C1434.8,585.7,1437.1,591.7,1437.1,599.1z M1421.1,599.1c0-2.6-0.8-4.8-2.4-6.8c-1.6-2-3.7-3-6.2-3c-2.6,0-4.7,1-6.3,3
		c-1.6,1.9-2.3,4.1-2.3,6.7c0,2.6,0.8,4.9,2.3,6.8c1.7,2,3.8,3,6.3,3c2.5,0,4.6-1,6.3-3C1420.3,604,1421.1,601.7,1421.1,599.1z"/>
	<path id="XMLID_54_" class="st1" d="M1475.4,592.7c0,1.3-0.7,1.9-2.1,1.9c-0.6,0-1.5,0-2.7-0.1c-1.2-0.1-2.1-0.1-2.7-0.1
		c-2.7,0-4.5,0.4-5.5,1.3s-1.5,2.6-1.5,5.1c0,1.4,0,3.5,0.1,6.4s0.1,5,0.1,6.4c0,0.9,0.1,2.4,0.2,4.2c0.1,1.9,0.2,3.3,0.2,4.2
		c0,0.8-0.5,1.2-1.6,1.3c-1.6,0.1-4,0.2-7.2,0.2c-3.1,0-5.6-0.1-7.4-0.3c-1.1-0.1-1.6-0.7-1.6-1.6c0-2.6,0-6.5,0-11.7
		c0-5.2,0-9.1,0-11.7c0-7.6-0.7-13.9-2.1-18.9c-0.1-0.3-0.1-0.5-0.1-0.7c0-0.5,0.2-0.8,0.7-1c1.8-0.2,4.4-0.6,7.9-1.1
		c5.1-1,7.8-1.5,8-1.5c0.6,0,1,1,1.1,3.1c0.2,2.1,0.5,3.1,0.9,3.1c-0.5,0,0.9-0.9,4-2.6s6.1-2.6,9-2.6c1.8,0,2.7,0.4,2.7,1.2
		c0,0.9-0.1,2.3-0.3,4c-0.2,1.9-0.3,3.2-0.3,4c0,0.9,0,2.2,0,3.8C1475.3,590.8,1475.4,592,1475.4,592.7z"/>
	<path id="XMLID_56_" class="st1" d="M1532.8,553.8c0-0.7-0.1,0.4-0.4,3.2c-0.4,3.6-0.6,8.2-0.8,13.9c-0.3,6.4-0.4,13.6-0.4,21.8
		c0,13.4,0.4,23,1.1,28.7c0.1,0.6,0.1,1,0.1,1.2c0,0.4-0.2,0.6-0.7,0.6c-1.2,0.2-5.5,0.2-12.9,0.2c-1.8,0-2.8-0.3-3-1
		c-0.1-1.2-0.1-2.5-0.2-3.7c0-0.3-0.2-0.5-0.4-0.8c-0.2,0.1-0.4,0.3-0.7,0.6c-3.5,3.5-7.9,5.2-13.2,5.2c-6.9,0-12.4-2.4-16.5-7.2
		c-3.9-4.6-5.9-10.4-5.9-17.4c0-7.1,1.9-12.9,5.8-17.5c4.1-4.9,9.6-7.3,16.6-7.3c4.9,0,8.7,1.6,11.5,4.7c0.5,0.5,0.8,0.8,1,0.8
		c0.3,0,0.4-0.4,0.4-1.3c0-2.5-0.1-6.3-0.2-11.2c-0.1-5-0.2-8.7-0.2-11.2c0-0.9,0.3-1.5,0.8-1.6c2.1-0.1,4.9-0.3,8.6-0.6
		c6.5-0.8,9.4-1.2,8.6-1.2C1532.5,552.6,1532.8,553,1532.8,553.8z M1514.4,598.7c0-2.6-0.9-4.8-2.7-6.8c-1.8-1.9-4-2.9-6.5-2.9
		c-2.7,0-4.8,1-6.4,2.9c-1.6,1.9-2.4,4.3-2.4,7c0,2.6,0.8,4.9,2.4,6.7c1.6,2,3.7,2.9,6.3,2.9c2.6,0,4.8-1,6.5-2.9
		S1514.4,601.3,1514.4,598.7z"/>
	<path id="XMLID_59_" class="st1" d="M1355.1,700.7c0,7.9-2.1,14.3-6.2,19.1c-4.4,5.2-10.5,7.8-18.3,7.8c-1.3,0-3.3-0.1-5.9-0.2
		c-2.6-0.1-4.6-0.2-5.9-0.2c-1.4,0-2.1,0.6-2.1,1.8c0,1.5,0.1,3.7,0.4,6.7c0.3,3,0.4,5.2,0.4,6.6c0,0.7-0.3,1.1-1,1.1
		c-2,0-5-0.1-8.9-0.2c-4-0.1-7-0.2-8.9-0.2c-0.9,0-1.4-0.5-1.4-1.4c0-3.6,0.1-9,0.2-16.3c0.1-7.2,0.2-12.7,0.2-16.3
		c0-10.2-0.4-21-1.3-32.2l0-0.7c-0.1-0.6,0.4-1,1.5-1.1c2.5-0.3,8.1-0.5,16.8-0.5c5.1,0,10,0.1,14.7,0.2c7.7,0.2,13.9,2.7,18.7,7.3
		C1352.6,686.8,1355.1,693,1355.1,700.7z M1335.6,701.5c0-7.6-3.7-11.4-11.1-11.4c-5.2,0-7.9,0.3-8.2,0.9c-0.2,0.4-0.3,4.2-0.3,11.3
		c0,1,0,2.5,0.1,4.5c0.1,2,0.1,3.5,0.1,4.5c0,0.7,2.9,1,8.8,1C1332,712.2,1335.6,708.6,1335.6,701.5z"/>
	<path id="XMLID_62_" class="st1" d="M1393.8,712.7c0,1.3-0.7,1.9-2.1,1.9c-0.6,0-1.5,0-2.7-0.1c-1.2-0.1-2.1-0.1-2.7-0.1
		c-2.7,0-4.5,0.4-5.5,1.3c-1,0.8-1.5,2.6-1.5,5.1c0,1.4,0,3.5,0.1,6.4c0,2.8,0.1,5,0.1,6.4c0,0.9,0.1,2.4,0.2,4.2
		c0.1,1.9,0.2,3.3,0.2,4.2c0,0.8-0.5,1.2-1.6,1.3c-1.6,0.1-4,0.2-7.2,0.2c-3.1,0-5.6-0.1-7.4-0.3c-1.1-0.1-1.6-0.7-1.6-1.6
		c0-2.6,0-6.5,0-11.7c0-5.2,0-9.1,0-11.7c0-7.6-0.7-13.9-2.1-18.9c-0.1-0.3-0.1-0.5-0.1-0.7c0-0.5,0.2-0.8,0.7-1
		c1.8-0.2,4.4-0.6,7.9-1.1c5.1-1,7.8-1.5,8-1.5c0.6,0,1,1,1.1,3.1c0.2,2.1,0.5,3.1,0.9,3.1c-0.5,0,0.9-0.9,4-2.6s6.1-2.6,9-2.6
		c1.8,0,2.7,0.4,2.7,1.2c0,0.9-0.1,2.3-0.3,4c-0.2,1.9-0.3,3.2-0.3,4c0,0.9,0,2.2,0,3.8C1393.7,710.8,1393.8,712,1393.8,712.7z"/>
	<path id="XMLID_64_" class="st1" d="M1444.2,716.6c0,3.3-1.1,5.2-3.2,5.6c-0.4,0.1-3.7,0.4-10.1,1.1c-3.8,0.4-9.6,0.9-17.2,1.5
		c0.5,2.1,1.8,3.7,4.2,4.8c1.9,0.9,4,1.4,6.4,1.4c2.9,0,5.8-0.8,8.7-2.3c1.2-0.8,2.5-1.6,3.7-2.3c0.7,0.3,1.8,2,3.4,5
		c1.6,3,2.4,4.9,2.4,5.7c0,0.2-0.2,0.6-0.7,1.1c-4,4.3-10.1,6.4-18.5,6.4c-7.7,0-14-2.3-18.8-6.8c-4.9-4.6-7.3-10.7-7.3-18.4
		c0-7.5,2.2-13.6,6.5-18.4c4.5-4.9,10.4-7.4,17.9-7.4c6.3,0,11.6,2.3,15.9,6.8C1442,704.9,1444.2,710.3,1444.2,716.6z M1427.1,713.6
		c0-2-0.7-3.8-2.1-5.3c-1.4-1.5-3.1-2.3-5.1-2.3c-2.1,0-3.7,0.9-5.1,2.6c-1.2,1.6-1.9,3.5-1.9,5.6c0,0.9,0.5,1.3,1.4,1.3
		c2.4,0,6.2-0.4,11.2-1.1C1426.6,714.2,1427.1,713.9,1427.1,713.6z"/>
	<path id="XMLID_67_" class="st1" d="M1478.1,703.6c0,0.3-0.2,0.8-0.7,1.3c-0.9-0.2-1.8-0.3-2.7-0.3c-1.9,0-3.5,0.4-4.8,1.3
		c-1.6,1-2.3,2.4-2.3,4.2c0,1.1,0.8,2.6,2.5,4.3c2.5,2.6,4.1,4.4,4.6,5.3c1.7,2.5,2.5,5.1,2.5,8c0,1.7-0.3,3.4-1,5.3
		c-0.7,2.1-1.7,3.5-2.8,4.5c-2.4,2.1-5.2,3.8-8.4,5.3c-3.5,1.5-6.7,2.2-9.6,2.2c-0.7,0-2.1-1.8-4.4-5.3c-2.3-3.5-3.4-5.7-3.4-6.5
		c0-0.3,0.2-0.5,0.5-0.5c2.3-0.4,4.6-0.8,6.9-1.3c2.9-0.9,4.3-2.4,4.3-4.5c0-1.4-0.8-3.1-2.5-5c-3-3.3-4.5-5-4.6-5.2
		c-1.7-2.3-2.5-4.8-2.5-7.4c0-4.9,2.5-9,7.4-12.5c4.4-3,9.2-4.5,14.2-4.5c0.5,0,1.8,1.8,3.9,5.2C1477.1,701,1478.1,703,1478.1,703.6
		z"/>
	<path id="XMLID_69_" class="st1" d="M1513.7,703.6c0,0.3-0.2,0.8-0.7,1.3c-0.9-0.2-1.8-0.3-2.7-0.3c-1.9,0-3.5,0.4-4.8,1.3
		c-1.6,1-2.3,2.4-2.3,4.2c0,1.1,0.8,2.6,2.5,4.3c2.5,2.6,4.1,4.4,4.6,5.3c1.7,2.5,2.5,5.1,2.5,8c0,1.7-0.3,3.4-1,5.3
		c-0.7,2.1-1.7,3.5-2.8,4.5c-2.4,2.1-5.2,3.8-8.4,5.3c-3.5,1.5-6.7,2.2-9.6,2.2c-0.7,0-2.1-1.8-4.4-5.3c-2.3-3.5-3.4-5.7-3.4-6.5
		c0-0.3,0.2-0.5,0.5-0.5c2.3-0.4,4.6-0.8,6.9-1.3c2.9-0.9,4.3-2.4,4.3-4.5c0-1.4-0.8-3.1-2.5-5c-3-3.3-4.5-5-4.6-5.2
		c-1.7-2.3-2.5-4.8-2.5-7.4c0-4.9,2.5-9,7.4-12.5c4.4-3,9.2-4.5,14.2-4.5c0.5,0,1.8,1.8,3.9,5.2C1512.7,701,1513.7,703,1513.7,703.6
		z"/>
</g>
<g id="XMLID_19_">
	<path id="XMLID_20_" class="st1" d="M1266.9,116.1c0,6.6-2.8,12.3-8.3,17c-4.9,4.2-10.8,6.8-17.8,8c-0.3,0-0.5,0-0.6,0
		c-0.7,0-2.4-2.3-5-6.9c-2.6-4.6-3.9-7.4-3.9-8.4c0-0.4,0.2-0.6,0.7-0.7c4.7-1.1,7.8-2,9.4-2.7c3.4-1.7,5.1-4.2,5.1-7.5
		c0-2.1-1.1-4.5-3.3-7.1c-3.8-4.4-5.9-6.9-6.3-7.4c-2.2-3.4-3.4-7.1-3.4-11.2c0-6,2.8-10.9,8.3-14.8c4.5-3.3,10-5.4,16.6-6.3
		c0.4,0,0.6,0,0.8,0c0.5,0,0.9,0.4,1.2,1.2c0.8,2.4,2.8,6.7,5.9,12.9c0.1,0.2,0.1,0.4,0.1,0.5c0,0.6-0.3,0.8-0.9,0.8
		c-0.3,0-0.7,0-1.3-0.1c-0.6-0.1-1.1-0.1-1.4-0.1c-2.3,0-4.4,0.5-6.2,1.6c-2.1,1.2-3.2,3-3.2,5.2c0,2,1.2,4.4,3.5,7.3
		c4.1,5.2,6.3,7.9,6.5,8.2C1265.7,109,1266.9,112.6,1266.9,116.1z"/>
	<path id="XMLID_22_" class="st1" d="M1324.3,120.8v6.9c0,2.6,0.1,6.6,0.2,12c0.2,5.4,0.2,9.4,0.2,12c0,1-0.5,1.5-1.5,1.6
		c-1.4,0.1-3.7,0.2-7,0.2c-0.9,0-2.2,0.1-4,0.2c-1.8,0.1-3.1,0.2-4,0.2c-0.7,0-1-0.5-1-1.5c0-1.9,0-4.8,0-8.7c0-3.9,0-6.7,0-8.7
		c0-0.5-0.1-0.7-0.4-0.7c0.5,0-0.8,0.9-4,2.7c-3.2,1.8-6.2,2.7-9.1,2.7c-6.4,0-11.7-2.5-15.8-7.6c-3.8-4.7-5.8-10.4-5.8-16.9
		c0-7.1,1.9-13,5.6-17.7c4-5.1,9.4-7.6,16.3-7.6c5.2,0,9.2,1.5,11.9,4.5c0.2,0.3,0.5,0.6,1,0.9c0.3-0.3,0.5-0.9,0.5-2
		c0-0.7,0-1.4,0-2.1c0.1-1.2,0.7-1.9,1.7-1.9c2.7,0,5.7,0.2,9,0.5c4.7,0.4,7,1,7,1.7l-0.1,1.1
		C1324.6,101.4,1324.3,110.8,1324.3,120.8z M1307.2,114.4c0-2.8-0.7-5.1-2.2-6.9c-1.6-2-3.7-2.9-6.5-2.9c-2.6,0-4.7,1-6.3,3
		c-1.4,1.9-2.1,4.1-2.1,6.8c0,2.7,0.8,5,2.4,6.8c1.7,1.9,3.9,2.9,6.5,2.9c2.7,0,4.7-0.9,6.2-2.8
		C1306.5,119.5,1307.2,117.2,1307.2,114.4z"/>
	<path id="XMLID_25_" class="st1" d="M1384,94.2c0,2.4-0.1,6-0.3,10.8c-0.2,4.8-0.3,8.4-0.3,10.8c0,2.3,0.1,5.9,0.2,10.5
		c0.2,4.7,0.2,8.2,0.2,10.5c0,0.9-0.4,1.4-1.2,1.7c-1.2,0.3-3.9,0.5-7.9,0.5c-3.5,0-6-0.1-7.4-0.3c-0.6-0.1-1-0.5-1.2-1.2
		c-0.1-1-0.2-2-0.3-2.9c-0.2-1.5-0.4-2.2-0.7-2.2c0.5,0-1.2,1.1-4.9,3.3c-3.7,2.2-7.1,3.3-10.2,3.3c-8.6,0-13.7-3.9-15.3-11.7
		c-0.7-3.6-1.1-8.9-1.1-15.7c0-7.4,0.6-13.3,1.8-17.6c0.4-1.3,1-2,2-2c1.5,0,3.8,0,6.8,0c3.1,0,5.3,0,6.8,0c1,0,1.5,0.4,1.5,1.3
		c0,0.2,0,0.6-0.1,1c-0.7,4.4-1,8.9-1,13.5c0,5.7,0.2,9.5,0.5,11.6c0.6,3.6,2.7,5.4,6.4,5.4c1.4,0,3-0.6,4.7-1.9
		c1.7-1.3,2.5-2.6,2.6-4c0.1-1.2,0.1-9.4,0.1-24.5c0-1.1,0.1-1.7,0.2-1.9c0.2-0.3,0.8-0.5,1.8-0.5c1.6,0,4,0,7.2,0
		c3.2,0,5.6,0,7.2,0c1,0,1.5,0.2,1.7,0.7C1384,93.3,1384,93.7,1384,94.2z"/>
	<path id="XMLID_27_" class="st1" d="M1441.2,114.2c0,2.5,0.1,6.2,0.4,11.2c0.3,4.9,0.4,8.7,0.4,11.1c0,1.3-0.6,2-1.7,2.1
		c-4,0.3-8.7,0.4-13.9,0.4c-0.6,0-1-0.9-1.2-2.8c-0.2-1.9-0.5-2.8-0.8-2.9c-0.3,0.1-0.6,0.4-1,0.8c-3.6,3.7-7.6,5.5-11.7,5.5
		c-6.3,0-11.6-2.5-15.8-7.5c-3.9-4.7-5.9-10.3-5.9-16.8c0-7.5,2-13.6,6.1-18.2c4.2-4.8,10-7.1,17.4-7.1c5.1,0,9.1,1.8,12.1,5.4
		c0.1,0.2,0.2,0.2,0.3,0.2c0.3,0,0.6-0.8,1-2.4c0.4-1.6,0.8-2.4,1.3-2.4c1.2,0,3.5,0.3,6.9,1c3.2,0.7,5.5,1.2,6.9,1.7
		c0.5,0.2,0.7,0.5,0.7,0.8c0,0.1,0,0.5-0.1,1C1441.7,101.4,1441.2,107.6,1441.2,114.2z M1425.5,114.5c0-2.8-0.9-5.1-2.6-6.9
		c-1.7-1.8-4-2.7-6.8-2.7c-2.8,0-5.1,0.9-6.8,2.7c-1.7,1.8-2.6,4.1-2.6,6.9c0,2.6,0.9,4.9,2.7,6.8c1.8,1.9,4,2.8,6.6,2.8
		c2.8,0,5-0.9,6.8-2.7S1425.5,117.3,1425.5,114.5z"/>
	<path id="XMLID_30_" class="st1" d="M1483.3,108.2c0,1.3-0.7,1.9-2.1,1.9c-0.6,0-1.5,0-2.7-0.1c-1.2-0.1-2.1-0.1-2.7-0.1
		c-2.7,0-4.5,0.4-5.5,1.3c-1,0.8-1.5,2.6-1.5,5.1c0,1.4,0,3.5,0.1,6.4c0,2.8,0.1,5,0.1,6.4c0,0.9,0.1,2.4,0.2,4.2
		c0.1,1.9,0.2,3.3,0.2,4.2c0,0.8-0.5,1.2-1.6,1.3c-1.6,0.1-4,0.2-7.2,0.2c-3.1,0-5.6-0.1-7.4-0.3c-1.1-0.1-1.6-0.7-1.6-1.6
		c0-2.6,0-6.5,0-11.7c0-5.2,0-9.1,0-11.7c0-7.6-0.7-13.9-2.1-18.9c-0.1-0.3-0.1-0.5-0.1-0.7c0-0.5,0.2-0.8,0.7-1
		c1.8-0.2,4.4-0.6,7.9-1.1c5.1-1,7.8-1.5,8-1.5c0.6,0,1,1,1.1,3.1c0.2,2.1,0.5,3.1,0.9,3.1c-0.5,0,0.9-0.9,4-2.6s6.1-2.6,9-2.6
		c1.8,0,2.7,0.4,2.7,1.2c0,0.9-0.1,2.3-0.3,4c-0.2,1.9-0.3,3.2-0.3,4c0,0.9,0,2.2,0,3.8C1483.2,106.3,1483.3,107.6,1483.3,108.2z"/>
	<path id="XMLID_32_" class="st1" d="M1533.7,112.1c0,3.3-1.1,5.2-3.2,5.6c-0.4,0.1-3.7,0.4-10.1,1.1c-3.8,0.4-9.6,0.9-17.2,1.5
		c0.5,2.1,1.8,3.7,4.2,4.8c1.9,0.9,4,1.4,6.4,1.4c2.9,0,5.8-0.8,8.7-2.3c1.2-0.8,2.5-1.6,3.7-2.3c0.7,0.3,1.8,2,3.4,5
		c1.6,3,2.4,4.9,2.4,5.7c0,0.2-0.2,0.6-0.7,1.1c-4,4.3-10.1,6.4-18.5,6.4c-7.7,0-14-2.3-18.8-6.8c-4.9-4.6-7.3-10.7-7.3-18.4
		c0-7.5,2.2-13.6,6.5-18.4c4.5-4.9,10.4-7.4,17.9-7.4c6.3,0,11.6,2.3,15.9,6.8C1531.5,100.4,1533.7,105.8,1533.7,112.1z
		 M1516.6,109.1c0-2-0.7-3.8-2.1-5.3c-1.4-1.5-3.1-2.3-5.1-2.3c-2.1,0-3.7,0.9-5.1,2.6c-1.2,1.6-1.9,3.5-1.9,5.6
		c0,0.9,0.5,1.3,1.4,1.3c2.4,0,6.2-0.4,11.2-1.1C1516.1,109.7,1516.6,109.5,1516.6,109.1z"/>
	<path id="XMLID_35_" class="st1" d="M1266.9,236.1c0,6.6-2.8,12.3-8.3,17c-4.9,4.2-10.8,6.8-17.8,8c-0.3,0-0.5,0-0.6,0
		c-0.7,0-2.4-2.3-5-6.9c-2.6-4.6-3.9-7.4-3.9-8.4c0-0.4,0.2-0.6,0.7-0.7c4.7-1.1,7.8-2,9.4-2.7c3.4-1.7,5.1-4.2,5.1-7.5
		c0-2.1-1.1-4.5-3.3-7.1c-3.8-4.4-5.9-6.9-6.3-7.4c-2.2-3.4-3.4-7.1-3.4-11.2c0-6,2.8-10.9,8.3-14.8c4.5-3.3,10-5.4,16.6-6.3
		c0.4,0,0.6,0,0.8,0c0.5,0,0.9,0.4,1.2,1.2c0.8,2.4,2.8,6.7,5.9,12.9c0.1,0.2,0.1,0.4,0.1,0.5c0,0.6-0.3,0.8-0.9,0.8
		c-0.3,0-0.7,0-1.3-0.1c-0.6-0.1-1.1-0.1-1.4-0.1c-2.3,0-4.4,0.5-6.2,1.6c-2.1,1.2-3.2,3-3.2,5.2c0,2,1.2,4.4,3.5,7.3
		c4.1,5.2,6.3,7.9,6.5,8.2C1265.7,229,1266.9,232.6,1266.9,236.1z"/>
	<path id="XMLID_37_" class="st1" d="M1328.5,235.1c0,7-2.1,12.7-6.2,17.3c-4.2,4.8-9.8,7.1-16.7,7.1c-2.5,0-5.2-0.6-8.1-1.9
		c-2.9-1.2-4.2-1.9-3.9-1.9c-0.4,0-0.6,0.5-0.6,1.5c0,1.7,0.1,4.2,0.2,7.5c0.2,3.3,0.2,5.8,0.2,7.5c0,1-0.5,1.6-1.6,1.6l-10,0
		c-2.2,0-3.7-0.1-4.3-0.2c-1-0.2-1.5-0.8-1.5-1.8l0.1-37.6c0-7.6-0.6-14-1.7-19.2c-0.1-0.3-0.1-0.6-0.1-0.8c0-0.5,0.2-0.8,0.6-1
		c1.3-0.5,3.7-1,7.3-1.6c3.5-0.6,6-0.8,7.6-0.8c1.3,0,2,0.8,2.2,2.5c0.2,1.7,0.4,2.5,0.7,2.5c-0.3,0,1.1-0.9,4.2-2.7
		c3.1-1.8,5.9-2.7,8.5-2.7c7.1,0,12.7,2.3,16.9,7C1326.4,222.1,1328.5,227.9,1328.5,235.1z M1310.4,235c0-2.6-0.8-4.9-2.4-6.8
		c-1.7-2.1-3.9-3.1-6.4-3.1c-2.6,0-4.7,1-6.3,3.1c-1.4,1.9-2.1,4.1-2.1,6.8c0,2.8,0.7,5.1,2.1,6.9c1.5,2,3.6,3,6.3,3
		C1307.5,244.9,1310.4,241.6,1310.4,235z"/>
	<path id="XMLID_40_" class="st1" d="M1383.9,234.2c0,2.5,0.1,6.2,0.4,11.2c0.3,4.9,0.4,8.7,0.4,11.1c0,1.3-0.6,2-1.7,2.1
		c-4,0.3-8.7,0.4-13.9,0.4c-0.6,0-1-0.9-1.2-2.8c-0.2-1.9-0.5-2.8-0.8-2.9c-0.3,0.1-0.6,0.4-1,0.8c-3.6,3.7-7.6,5.5-11.7,5.5
		c-6.3,0-11.6-2.5-15.8-7.5c-3.9-4.7-5.9-10.3-5.9-16.8c0-7.5,2-13.6,6.1-18.2c4.2-4.8,10-7.1,17.4-7.1c5.1,0,9.1,1.8,12.1,5.4
		c0.1,0.2,0.2,0.2,0.3,0.2c0.3,0,0.6-0.8,1-2.4c0.4-1.6,0.8-2.4,1.3-2.4c1.2,0,3.5,0.3,6.9,1c3.2,0.7,5.5,1.2,6.9,1.7
		c0.5,0.2,0.7,0.5,0.7,0.8c0,0.1,0,0.5-0.1,1C1384.4,221.4,1383.9,227.6,1383.9,234.2z M1368.2,234.5c0-2.8-0.9-5.1-2.6-6.9
		c-1.7-1.8-4-2.7-6.8-2.7c-2.8,0-5.1,0.9-6.8,2.7c-1.7,1.8-2.6,4.1-2.6,6.9c0,2.6,0.9,4.9,2.7,6.8c1.8,1.9,4,2.8,6.6,2.8
		c2.8,0,5-0.9,6.8-2.7S1368.2,237.3,1368.2,234.5z"/>
	<path id="XMLID_43_" class="st1" d="M1425.9,226.5c0,0-1-0.3-3-0.8c-1.9-0.5-3.5-0.8-4.7-0.8c-2.9,0-5.2,0.9-6.9,2.6
		c-1.7,1.7-2.6,4.1-2.6,7c0,3,0.9,5.3,2.8,7.1c1.9,1.7,4.3,2.6,7.4,2.6c1.4,0,3-0.4,4.8-1.1c1.8-0.7,2.6-1.1,2.5-1.1
		c0.6,0,1.3,2.1,2.1,6.2c0.7,3.8,1.1,6.3,1.1,7.5c0,1.2-2,2.3-6.1,3.2c-3.1,0.7-5.6,1-7.6,1c-7.2,0-13.1-2.4-17.7-7.2
		c-4.7-4.8-7-10.8-7-18c0-7.1,2.3-13.1,7-18c4.7-4.9,10.6-7.3,17.7-7.3c4.8,0,9.1,1,12.8,3.1c0.8,0.5,1.3,0.9,1.3,1.3
		c0,0.4-0.5,2.3-1.5,5.8c-0.9,3.3-1.5,5.3-1.8,6C1426.5,226.1,1426.2,226.5,1425.9,226.5z"/>
	<path id="XMLID_45_" class="st1" d="M1479.9,232.1c0,3.3-1.1,5.2-3.2,5.6c-0.4,0.1-3.7,0.4-10.1,1.1c-3.8,0.4-9.6,0.9-17.2,1.5
		c0.5,2.1,1.8,3.7,4.2,4.8c1.9,0.9,4,1.4,6.4,1.4c2.9,0,5.8-0.8,8.7-2.3c1.2-0.8,2.5-1.6,3.7-2.3c0.7,0.3,1.8,2,3.4,5
		c1.6,3,2.4,4.9,2.4,5.7c0,0.2-0.2,0.6-0.7,1.1c-4,4.3-10.1,6.4-18.5,6.4c-7.7,0-14-2.3-18.8-6.8c-4.9-4.6-7.3-10.7-7.3-18.4
		c0-7.5,2.2-13.6,6.5-18.4c4.5-4.9,10.4-7.4,17.9-7.4c6.3,0,11.6,2.3,15.9,6.8C1477.8,220.4,1479.9,225.8,1479.9,232.1z
		 M1462.9,229.1c0-2-0.7-3.8-2.1-5.3c-1.4-1.5-3.1-2.3-5.1-2.3c-2.1,0-3.7,0.9-5.1,2.6c-1.2,1.6-1.9,3.5-1.9,5.6
		c0,0.9,0.5,1.3,1.4,1.3c2.4,0,6.2-0.4,11.2-1.1C1462.3,229.7,1462.9,229.5,1462.9,229.1z"/>
</g>
</svg>
