<?xml version="1.0" encoding="utf-8"?>
<!-- Generator: Adobe Illustrator 19.0.0, SVG Export Plug-In . SVG Version: 6.00 Build 0)  -->
<svg version="1.1" id="Layer_1" xmlns="http://www.w3.org/2000/svg" xmlns:xlink="http://www.w3.org/1999/xlink" x="0px" y="0px"
	 viewBox="0 0 454.7 768.5" style="enable-background:new 0 0 454.7 768.5;" xml:space="preserve">
<style type="text/css">
	.st0{opacity:0.55;fill:#757576;}
	.st1{fill:#FFFFFF;}
	.st2{fill:#EFAD6C;}
	.st3{fill:#A2792C;}
	.st4{fill:#F2B450;}
	.st5{fill:#F68C33;}
	.st6{fill:#9F626B;}
	.st7{fill:#302E41;}
	.st8{fill:#6D5E32;}
	.st9{fill:#C05427;}
	.st10{fill:none;stroke:#545561;stroke-width:3;stroke-miterlimit:10;}
	.st11{fill:#6395CE;}
	.st12{opacity:0.1;fill:#010101;enable-background:new    ;}
	.st13{opacity:0.3;fill:#010101;enable-background:new    ;}
	.st14{fill:#3C6EA1;}
	.st15{opacity:0.5;fill:#DEE3F3;enable-background:new    ;}
	.st16{fill:url(#XMLID_367_);}
	.st17{fill:#3274A5;}
	.st18{fill:#599AC1;}
	.st19{fill:#F7C5A8;}
	.st20{fill:#4A5CA9;}
	.st21{opacity:0.1;}
	.st22{fill:#010101;}
	.st23{fill:#642753;}
	.st24{fill:#545561;}
	.st25{opacity:0.1;fill:none;stroke:#010101;stroke-miterlimit:10;enable-background:new    ;}
	.st26{fill:#6B5E9B;}
	.st27{fill:#FFD139;}
	.st28{fill:#D7D6E3;}
	.st29{fill:#E6E6E5;}
	.st30{fill:#328E4D;}
	.st31{fill:#403E56;}
	.st32{fill:#2D352D;}
	.st33{fill:#3F543F;}
	.st34{opacity:0.2;fill:#010101;enable-background:new    ;}
	.st35{fill:#F9B7B8;}
	.st36{fill:#D0E2C3;}
	.st37{fill:#F16584;}
	.st38{fill:#6466AF;}
	.st39{fill:#F9A924;}
	.st40{fill:#F9BFC0;}
	.st41{fill:url(#XMLID_368_);}
	.st42{fill:#F16262;}
	.st43{fill:#5B3837;}
	.st44{fill:#454154;}
	.st45{fill:#A2626B;}
	.st46{fill:#A91F23;}
	.st47{fill:#D1D2D5;}
	.st48{fill:#640D0D;}
	.st49{fill:url(#XMLID_369_);}
	.st50{fill:#F9BEBD;}
	.st51{opacity:0.67;fill:#DB4B4B;enable-background:new    ;}
	.st52{opacity:0.31;fill:#DB4B4B;enable-background:new    ;}
	.st53{opacity:0.73;fill:#DB4B4B;enable-background:new    ;}
</style>
<title>circles</title>
<g id="XMLID_204_">
	<polygon id="XMLID_141_" class="st0" points="454.7,0.5 -0.5,0 -1.3,768 453.8,768.5 	"/>
	<g id="XMLID_305_">
		<path id="XMLID_315_" class="st1" d="M236.5,713.3c0,3-1.3,5.3-3.8,7c-2.1,1.4-4.8,2.1-8,2.1c-2.5,0-4.5-0.2-6.1-0.5
			c-3.5-0.7-5.2-1.4-5.2-1.9c0-0.1,0-0.2,0.1-0.4c0.2-0.6,0.6-1.5,1-2.7c0.1-0.6,0.4-1.5,0.7-2.7c0.1-0.4,0.4-0.6,0.7-0.6
			c0,0,0.7,0.3,2.2,0.8c1.5,0.5,2.8,0.8,3.7,0.8c3.2,0,4.8-1.1,4.8-3.2c0-1.7-1.5-2.6-4.6-2.6c-0.4,0-1,0-1.6,0c-0.7,0-1.1,0-1.3,0
			c-1,0-1.6,0-1.7,0c-0.7-0.1-1.1-0.4-1.1-0.8c0-2.5,0.1-4.1,0.3-4.7c0.1-0.4,0.4-0.6,0.8-0.6c0.6,0,1.4,0.1,2.5,0.2
			c1.1,0.1,1.9,0.2,2.5,0.2c0.7,0,1.3-0.2,1.8-0.7c0.5-0.5,0.7-1.1,0.7-1.8c0-1.9-1.4-2.9-4.2-2.9c-1.2,0-2.8,0.3-4.8,1
			c-0.1,0-0.2,0-0.2,0c-0.2,0-0.4-0.2-0.5-0.7c0-0.7-0.1-1.5-0.1-2.3c0-0.2-0.1-0.6-0.1-1.2c-0.1-0.5-0.1-0.9-0.1-1.1
			c0-0.9,1.3-1.5,4.1-2c1.9-0.3,3.7-0.5,5.4-0.5c2.8,0,5.3,0.6,7.4,1.8c2.6,1.5,3.8,3.5,3.8,6.1c0,3-1.4,5.2-4.1,6.8
			c1.6,0.5,2.9,1.4,3.8,2.7C236.1,710.2,236.5,711.6,236.5,713.3z"/>
		<path id="XMLID_341_" class="st1" d="M271.8,704.3c0,4.8-1.6,8.9-4.7,12.5c-2.8,3.1-6.6,4.8-11.6,5c-1,0-3.6,0-7.9,0
			c-0.8,0-2,0-3.6-0.1c-1.6,0-2.8-0.1-3.6-0.1c-0.5,0-0.7-0.2-0.7-0.6c0-1.8,0.1-4.5,0.2-8.1c0.1-3.6,0.2-6.3,0.2-8.1
			c0-1.9-0.1-4.7-0.2-8.4c-0.1-3.7-0.2-6.5-0.2-8.4c0-0.3,0.2-0.5,0.7-0.6c1.2-0.1,3.1-0.2,5.8-0.2c5.1,0,8.4,0.1,9.9,0.2
			c3.9,0.4,7,1.4,9.2,2.9c2.1,1.5,3.7,3.5,4.9,6.2C271.3,699.1,271.8,701.7,271.8,704.3z M262.4,704.3c0-2.8-0.8-5-2.5-6.7
			c-1.7-1.8-3.9-2.7-6.7-2.7c-2.5,0-3.8,0.3-3.8,1c0,1,0,2.4,0,4.3c0,1.9,0,3.4,0,4.3c0,0.9,0,2.4,0,4.3c0,1.9,0,3.3,0,4.3
			c0,0.7,1.3,1,4,1c2.8,0,5.1-0.9,6.7-2.8C261.6,709.6,262.4,707.2,262.4,704.3z"/>
		<path id="XMLID_344_" class="st1" d="M320.5,704.3c0,4.8-1.6,8.9-4.7,12.5c-2.8,3.1-6.6,4.8-11.6,5c-1,0-3.6,0-7.9,0
			c-0.8,0-2,0-3.6-0.1c-1.6,0-2.8-0.1-3.6-0.1c-0.5,0-0.7-0.2-0.7-0.6c0-1.8,0.1-4.5,0.2-8.1c0.1-3.6,0.2-6.3,0.2-8.1
			c0-1.9-0.1-4.7-0.2-8.4c-0.1-3.7-0.2-6.5-0.2-8.4c0-0.3,0.2-0.5,0.7-0.6c1.2-0.1,3.1-0.2,5.8-0.2c5.1,0,8.4,0.1,9.9,0.2
			c3.9,0.4,7,1.4,9.2,2.9c2.1,1.5,3.7,3.5,4.9,6.2C320,699.1,320.5,701.7,320.5,704.3z M311.1,704.3c0-2.8-0.8-5-2.5-6.7
			c-1.7-1.8-3.9-2.7-6.7-2.7c-2.5,0-3.8,0.3-3.8,1c0,1,0,2.4,0,4.3c0,1.9,0,3.4,0,4.3c0,0.9,0,2.4,0,4.3c0,1.9,0,3.3,0,4.3
			c0,0.7,1.3,1,4,1c2.8,0,5.1-0.9,6.7-2.8C310.3,709.6,311.1,707.2,311.1,704.3z"/>
		<path id="XMLID_347_" class="st1" d="M346.8,708.4c0,1.6-0.5,2.6-1.6,2.8c-0.2,0-1.9,0.2-5.1,0.5c-1.9,0.2-4.8,0.5-8.7,0.8
			c0.2,1.1,0.9,1.9,2.1,2.4c1,0.5,2,0.7,3.3,0.7c1.5,0,2.9-0.4,4.4-1.2c0.6-0.4,1.3-0.8,1.9-1.2c0.3,0.2,0.9,1,1.7,2.5
			c0.8,1.5,1.2,2.5,1.2,2.9c0,0.1-0.1,0.3-0.4,0.6c-2,2.1-5.1,3.2-9.4,3.2c-3.9,0-7.1-1.1-9.5-3.4c-2.5-2.3-3.7-5.4-3.7-9.2
			c0-3.7,1.1-6.8,3.3-9.2c2.3-2.5,5.3-3.7,9-3.7c3.2,0,5.8,1.1,8.1,3.4C345.7,702.5,346.8,705.2,346.8,708.4z M338.2,706.9
			c0-1-0.4-1.9-1.1-2.7c-0.7-0.8-1.6-1.1-2.6-1.1c-1,0-1.9,0.4-2.6,1.3c-0.6,0.8-0.9,1.7-0.9,2.8c0,0.4,0.2,0.7,0.7,0.7
			c1.2,0,3.1-0.2,5.7-0.6C337.9,707.2,338.2,707.1,338.2,706.9z"/>
		<path id="XMLID_350_" class="st1" d="M364,701.9c0,0.2-0.1,0.4-0.4,0.7c-0.5-0.1-0.9-0.2-1.4-0.2c-1,0-1.8,0.2-2.4,0.6
			c-0.8,0.5-1.2,1.2-1.2,2.1c0,0.6,0.4,1.3,1.3,2.2c1.3,1.3,2.1,2.2,2.3,2.7c0.8,1.2,1.3,2.6,1.3,4c0,0.8-0.2,1.7-0.5,2.6
			c-0.4,1-0.9,1.8-1.4,2.2c-1.2,1-2.6,1.9-4.3,2.6c-1.8,0.7-3.4,1.1-4.9,1.1c-0.3,0-1.1-0.9-2.2-2.6c-1.1-1.8-1.7-2.8-1.7-3.2
			c0-0.1,0.1-0.2,0.3-0.3c1.2-0.2,2.3-0.4,3.5-0.6c1.4-0.5,2.2-1.2,2.2-2.2c0-0.7-0.4-1.5-1.3-2.5c-1.5-1.6-2.3-2.5-2.3-2.6
			c-0.8-1.2-1.3-2.4-1.3-3.7c0-2.4,1.3-4.5,3.8-6.2c2.2-1.5,4.6-2.3,7.2-2.3c0.3,0,0.9,0.9,2,2.6C363.5,700.6,364,701.6,364,701.9z"
			/>
		<path id="XMLID_352_" class="st1" d="M376.7,710.4c0,1.2,0,3,0.1,5.3c0,2.4,0.1,4.1,0.1,5.3c0,0.3-0.2,0.5-0.6,0.6
			c-0.6,0.1-1.8,0.1-3.8,0.1c-2,0-3.2,0-3.8-0.1c-0.4-0.1-0.6-0.2-0.7-0.3c0-0.1,0-0.3,0-0.7c0-1.1,0-2.8,0.1-5.1
			c0-2.3,0.1-4,0.1-5.1c0-4.6-0.2-8.3-0.5-11c0-0.3,0-0.4,0-0.5c0-0.3,0.2-0.5,0.7-0.5c0.5,0,1.2,0,2.1,0.1c0.9,0.1,1.7,0.1,2.1,0.1
			c0.5,0,1.2,0,2.1-0.1c1-0.1,1.7-0.1,2.1-0.1c0.4,0,0.6,0.2,0.6,0.5c0,0.1,0,0.2,0,0.5C376.9,702.6,376.7,706.2,376.7,710.4z
			 M377.3,692.3c0,2.8-1.6,4.2-4.8,4.2c-1.4,0-2.5-0.4-3.4-1.1c-1-0.8-1.5-1.8-1.5-3.2c0-1.3,0.5-2.3,1.5-3.1
			c0.9-0.7,2.1-1.1,3.4-1.1c1.3,0,2.4,0.4,3.3,1.1C376.8,690,377.3,691,377.3,692.3z"/>
		<path id="XMLID_355_" class="st1" d="M406.1,715.3c0,4.6-1,8-3,10c-2,2.1-5.4,3.1-10.2,3.1c-1.4,0-3.3-0.2-5.7-0.7
			c-3-0.6-4.6-1.2-4.6-2c0-0.3,0.4-1.9,1.1-4.8c0.1-0.5,0.3-0.7,0.5-0.7c0.1,0,0.2,0,0.3,0.1c2.5,1.2,4.9,1.9,7,1.9
			c1.2,0,2.4-0.3,3.5-0.9c1.4-0.7,2.1-1.6,2.1-2.6v-1.6c-1.7,1.6-3.8,2.3-6.5,2.3c-3.1,0-5.6-1.1-7.6-3.3c-1.9-2.1-2.9-4.7-2.9-7.8
			c0-3.1,0.9-5.7,2.8-7.7c1.9-2.1,4.4-3.2,7.6-3.2c2.5,0,4.4,0.9,5.7,2.6c0.3,0.4,0.4,0.5,0.5,0.5c0.1,0,0.2-0.3,0.2-0.9
			c0-1.3,0.1-2,0.4-2c0.3,0,1.7,0.1,4.3,0.4c2.6,0.3,3.9,0.4,4,0.5c0.3,0.1,0.4,0.3,0.4,0.6c0,1.1,0,2.8-0.1,5
			c-0.1,2.2-0.1,3.9-0.1,5c0,0.7,0,1.7,0,3C406,713.6,406.1,714.6,406.1,715.3z M397.5,708.5c0-1.2-0.4-2.2-1.2-3.1
			c-0.8-0.9-1.8-1.3-3-1.3c-1.2,0-2.2,0.4-3,1.3c-0.8,0.9-1.2,1.9-1.2,3.1c0,1.2,0.4,2.2,1.2,3.1c0.8,0.9,1.8,1.3,3,1.3
			c1.2,0,2.2-0.4,3-1.3C397.1,710.7,397.5,709.7,397.5,708.5z"/>
		<path id="XMLID_358_" class="st1" d="M434.9,720.9c0,0.4-0.2,0.7-0.7,0.8c-0.5,0.1-1.7,0.1-3.6,0.1c-2.1,0-3.4,0-3.9-0.1
			c-0.5-0.1-0.7-0.4-0.7-1c0-0.8,0-1.9,0.1-3.5c0-1.5,0.1-2.7,0.1-3.5c0-0.6,0-1.5,0-2.7c0-1.2,0-2.1,0-2.7c0-2.2-1-3.3-2.9-3.3
			c-0.6,0-1.4,0.3-2.2,0.8c-0.9,0.6-1.4,1.2-1.4,1.8v13.2c0,0.5-0.3,0.8-0.8,0.9c-0.6,0.1-1.8,0.1-3.5,0.1c-1.9,0-3.2,0-3.8-0.1
			c-0.5-0.1-0.8-0.3-0.8-0.8c0-1.3,0-3.2,0-5.7c0-2.6,0-4.5,0-5.8c0-4.1-0.3-7.2-1-9.5c0-0.1,0-0.3,0-0.4c0-0.3,0.1-0.4,0.4-0.5
			c1-0.1,2.4-0.3,4.1-0.5c2.6-0.5,4.1-0.8,4.4-0.8c0.2,0,0.3,0.5,0.4,1.6c0.1,1.1,0.2,1.6,0.4,1.6c-0.2,0,0.7-0.6,2.7-1.7
			c2-1.1,3.7-1.7,5.1-1.7c2.1,0,3.8,0.5,5.2,1.5c1.6,1.1,2.3,2.7,2.3,4.7v7.8c0,1.1,0,2.6,0,4.7
			C434.9,718.3,434.9,719.9,434.9,720.9z"/>
	</g>
	<g id="XMLID_232_">
		<path id="XMLID_233_" class="st1" d="M257,230.8c0,0.4,0,0.9-0.1,1.7c-0.1,0.7-0.1,1.3-0.1,1.7s0,1,0,1.8c0,0.8,0,1.5,0,1.9
			s-0.3,0.6-0.8,0.6c-0.2,0-1-0.2-2.3-0.5c-1.5-0.3-4.3-0.5-8.4-0.5c-1.3,0-3.2,0.1-5.7,0.2c-2.5,0.1-4.4,0.2-5.7,0.2
			c-0.4,0-0.7-0.2-0.7-0.6c0-0.6-0.2-1.4-0.4-2.5c-0.4-1.7-0.6-2.6-0.6-2.9c0-0.4,0.7-0.6,2.1-0.8c1.6-0.2,2.7-0.5,3.1-0.9
			c1.7-1.4,3.4-3.1,5.1-5.2c2.2-2.7,3.3-4.7,3.3-6c0-1.2-0.4-2.1-1.3-2.9c-0.8-0.8-1.9-1.2-3-1.2c-1.3,0-2.6,0.3-3.9,0.8
			c-0.9,0.3-1.8,0.8-2.7,1.4c-0.8,0.5-1.3,0.8-1.3,0.8c-0.6,0-0.8-0.7-0.8-2c0-1,0-1.7-0.1-2.2c0-0.2-0.2-0.7-0.4-1.3
			c-0.2-0.6-0.3-1-0.3-1.3c0-0.2,0.1-0.4,0.4-0.6c1.4-1,3.2-1.7,5.5-2.3c2-0.5,4-0.7,6-0.7c3.1,0,5.7,0.7,7.9,2.1
			c2.5,1.6,3.7,3.9,3.7,6.8c0,3.9-3,8.5-9,13.7c4.3-0.2,7.6-0.3,10-0.3C256.7,229.9,257,230.2,257,230.8z"/>
		<path id="XMLID_235_" class="st1" d="M291.9,220.4c0,4.8-1.6,8.9-4.7,12.5c-2.8,3.1-6.6,4.8-11.6,5c-1,0-3.6,0-7.9,0
			c-0.8,0-2,0-3.6-0.1c-1.6,0-2.8-0.1-3.6-0.1c-0.5,0-0.7-0.2-0.7-0.6c0-1.8,0.1-4.5,0.2-8.1c0.1-3.6,0.2-6.3,0.2-8.1
			c0-1.9-0.1-4.7-0.2-8.4c-0.1-3.7-0.2-6.5-0.2-8.4c0-0.3,0.2-0.5,0.7-0.6c1.2-0.1,3.1-0.2,5.8-0.2c5.1,0,8.4,0.1,9.9,0.2
			c3.9,0.4,7,1.4,9.2,2.9c2.1,1.5,3.7,3.5,4.9,6.2C291.3,215.2,291.9,217.8,291.9,220.4z M282.5,220.4c0-2.8-0.8-5-2.5-6.7
			c-1.7-1.8-3.9-2.7-6.7-2.7c-2.5,0-3.8,0.3-3.8,1c0,1,0,2.4,0,4.3c0,1.9,0,3.4,0,4.3c0,0.9,0,2.4,0,4.3c0,1.9,0,3.3,0,4.3
			c0,0.7,1.3,1,4,1c2.8,0,5.1-0.9,6.7-2.8C281.7,225.6,282.5,223.3,282.5,220.4z"/>
		<path id="XMLID_238_" class="st1" d="M334.4,203.1c0-0.4-0.1,0.2-0.2,1.6c-0.2,1.8-0.3,4.1-0.4,6.9c-0.1,3.2-0.2,6.8-0.2,10.9
			c0,6.7,0.2,11.5,0.6,14.4c0,0.3,0,0.5,0,0.6c0,0.2-0.1,0.3-0.4,0.3c-0.6,0.1-2.8,0.1-6.5,0.1c-0.9,0-1.4-0.2-1.5-0.5
			c0-0.6-0.1-1.2-0.1-1.9c0-0.1-0.1-0.3-0.2-0.4c-0.1,0-0.2,0.1-0.4,0.3c-1.8,1.7-4,2.6-6.7,2.6c-3.5,0-6.3-1.2-8.3-3.6
			c-2-2.3-3-5.2-3-8.7c0-3.5,1-6.5,2.9-8.8c2.1-2.4,4.9-3.7,8.4-3.7c2.5,0,4.4,0.8,5.8,2.3c0.2,0.3,0.4,0.4,0.5,0.4
			c0.1,0,0.2-0.2,0.2-0.6c0-1.3,0-3.1-0.1-5.6c-0.1-2.5-0.1-4.4-0.1-5.6c0-0.5,0.1-0.7,0.4-0.8c1.1,0,2.5-0.1,4.3-0.3
			c3.3-0.4,4.8-0.6,4.4-0.6C334.2,202.5,334.4,202.7,334.4,203.1z M325.1,225.5c0-1.3-0.5-2.4-1.4-3.4c-0.9-1-2-1.5-3.3-1.5
			c-1.4,0-2.4,0.5-3.2,1.5c-0.8,1-1.2,2.1-1.2,3.5c0,1.3,0.4,2.4,1.2,3.3c0.8,1,1.9,1.5,3.2,1.5c1.3,0,2.4-0.5,3.3-1.5
			S325.1,226.8,325.1,225.5z"/>
		<path id="XMLID_243_" class="st1" d="M360.7,224.5c0,1.6-0.5,2.6-1.6,2.8c-0.2,0-1.9,0.2-5.1,0.5c-1.9,0.2-4.8,0.5-8.7,0.8
			c0.2,1.1,0.9,1.9,2.1,2.4c1,0.5,2,0.7,3.3,0.7c1.5,0,2.9-0.4,4.4-1.2c0.6-0.4,1.3-0.8,1.9-1.2c0.3,0.2,0.9,1,1.7,2.5
			c0.8,1.5,1.2,2.5,1.2,2.9c0,0.1-0.1,0.3-0.4,0.6c-2,2.1-5.1,3.2-9.4,3.2c-3.9,0-7.1-1.1-9.5-3.4c-2.5-2.3-3.7-5.4-3.7-9.2
			c0-3.7,1.1-6.8,3.3-9.2c2.3-2.5,5.3-3.7,9-3.7c3.2,0,5.8,1.1,8.1,3.4C359.6,218.6,360.7,221.3,360.7,224.5z M352,223
			c0-1-0.4-1.9-1.1-2.7c-0.7-0.8-1.6-1.1-2.6-1.1c-1,0-1.9,0.4-2.6,1.3c-0.6,0.8-0.9,1.7-0.9,2.8c0,0.4,0.2,0.7,0.7,0.7
			c1.2,0,3.1-0.2,5.7-0.6C351.8,223.3,352,223.2,352,223z"/>
		<path id="XMLID_252_" class="st1" d="M377.8,218c0,0.2-0.1,0.4-0.4,0.7c-0.5-0.1-0.9-0.2-1.4-0.2c-1,0-1.8,0.2-2.4,0.6
			c-0.8,0.5-1.2,1.2-1.2,2.1c0,0.6,0.4,1.3,1.3,2.2c1.3,1.3,2.1,2.2,2.3,2.7c0.8,1.2,1.3,2.6,1.3,4c0,0.8-0.2,1.7-0.5,2.6
			c-0.4,1-0.9,1.8-1.4,2.2c-1.2,1-2.6,1.9-4.3,2.6c-1.8,0.7-3.4,1.1-4.9,1.1c-0.3,0-1.1-0.9-2.2-2.6c-1.1-1.8-1.7-2.8-1.7-3.2
			c0-0.1,0.1-0.2,0.3-0.3c1.2-0.2,2.3-0.4,3.5-0.6c1.4-0.5,2.2-1.2,2.2-2.2c0-0.7-0.4-1.5-1.3-2.5c-1.5-1.6-2.3-2.5-2.3-2.6
			c-0.8-1.2-1.3-2.4-1.3-3.7c0-2.4,1.3-4.5,3.8-6.2c2.2-1.5,4.6-2.3,7.2-2.3c0.3,0,0.9,0.9,2,2.6C377.3,216.7,377.8,217.7,377.8,218
			z"/>
		<path id="XMLID_258_" class="st1" d="M390.5,226.5c0,1.2,0,3,0.1,5.3c0,2.4,0.1,4.1,0.1,5.3c0,0.3-0.2,0.5-0.6,0.6
			c-0.6,0.1-1.8,0.1-3.8,0.1c-2,0-3.2,0-3.8-0.1c-0.4-0.1-0.6-0.2-0.7-0.3c0-0.1,0-0.3,0-0.7c0-1.1,0-2.8,0.1-5.1
			c0-2.3,0.1-4,0.1-5.1c0-4.6-0.2-8.3-0.5-11c0-0.3,0-0.4,0-0.5c0-0.3,0.2-0.5,0.7-0.5c0.5,0,1.2,0,2.1,0.1c0.9,0.1,1.7,0.1,2.1,0.1
			c0.5,0,1.2,0,2.1-0.1c1-0.1,1.7-0.1,2.1-0.1c0.4,0,0.6,0.2,0.6,0.5c0,0.1,0,0.2,0,0.5C390.7,218.7,390.5,222.3,390.5,226.5z
			 M391.2,208.4c0,2.8-1.6,4.2-4.8,4.2c-1.4,0-2.5-0.4-3.4-1.1c-1-0.8-1.5-1.8-1.5-3.2c0-1.3,0.5-2.3,1.5-3.1
			c0.9-0.7,2.1-1.1,3.4-1.1c1.3,0,2.4,0.4,3.3,1.1C390.7,206.1,391.2,207.1,391.2,208.4z"/>
		<path id="XMLID_267_" class="st1" d="M419.9,231.4c0,4.6-1,8-3,10c-2,2.1-5.4,3.1-10.2,3.1c-1.4,0-3.3-0.2-5.7-0.7
			c-3-0.6-4.6-1.2-4.6-2c0-0.3,0.4-1.9,1.1-4.8c0.1-0.5,0.3-0.7,0.5-0.7c0.1,0,0.2,0,0.3,0.1c2.5,1.2,4.9,1.9,7,1.9
			c1.2,0,2.4-0.3,3.5-0.9c1.4-0.7,2.1-1.6,2.1-2.6v-1.6c-1.7,1.6-3.8,2.3-6.5,2.3c-3.1,0-5.6-1.1-7.6-3.3c-1.9-2.1-2.9-4.7-2.9-7.8
			c0-3.1,0.9-5.7,2.8-7.7c1.9-2.1,4.4-3.2,7.6-3.2c2.5,0,4.4,0.9,5.7,2.6c0.3,0.4,0.4,0.5,0.5,0.5c0.1,0,0.2-0.3,0.2-0.9
			c0-1.3,0.1-2,0.4-2c0.3,0,1.7,0.1,4.3,0.4c2.6,0.3,3.9,0.4,4,0.5c0.3,0.1,0.4,0.3,0.4,0.6c0,1.1,0,2.8-0.1,5
			c-0.1,2.2-0.1,3.9-0.1,5c0,0.7,0,1.7,0,3C419.9,229.7,419.9,230.7,419.9,231.4z M411.4,224.6c0-1.2-0.4-2.2-1.2-3.1
			c-0.8-0.9-1.8-1.3-3-1.3c-1.2,0-2.2,0.4-3,1.3c-0.8,0.9-1.2,1.9-1.2,3.1c0,1.2,0.4,2.2,1.2,3.1c0.8,0.9,1.8,1.3,3,1.3
			c1.2,0,2.2-0.4,3-1.3C411,226.8,411.4,225.8,411.4,224.6z"/>
		<path id="XMLID_276_" class="st1" d="M448.7,237c0,0.4-0.2,0.7-0.7,0.8c-0.5,0.1-1.7,0.1-3.6,0.1c-2.1,0-3.4,0-3.9-0.1
			c-0.5-0.1-0.7-0.4-0.7-1c0-0.8,0-1.9,0.1-3.5c0-1.5,0.1-2.7,0.1-3.5c0-0.6,0-1.5,0-2.7c0-1.2,0-2.1,0-2.7c0-2.2-1-3.3-2.9-3.3
			c-0.6,0-1.4,0.3-2.2,0.8c-0.9,0.6-1.4,1.2-1.4,1.8v13.2c0,0.5-0.3,0.8-0.8,0.9c-0.6,0.1-1.8,0.1-3.5,0.1c-1.9,0-3.2,0-3.8-0.1
			c-0.5-0.1-0.8-0.3-0.8-0.8c0-1.3,0-3.2,0-5.7c0-2.6,0-4.5,0-5.8c0-4.1-0.3-7.2-1-9.5c0-0.1,0-0.3,0-0.4c0-0.3,0.1-0.4,0.4-0.5
			c1-0.1,2.4-0.3,4.1-0.5c2.6-0.5,4.1-0.8,4.4-0.8c0.2,0,0.3,0.5,0.4,1.6c0.1,1.1,0.2,1.6,0.4,1.6c-0.2,0,0.7-0.6,2.7-1.7
			c2-1.1,3.7-1.7,5.1-1.7c2.1,0,3.8,0.5,5.2,1.5c1.6,1.1,2.3,2.7,2.3,4.7v7.8c0,1.1,0,2.6,0,4.7C448.7,234.4,448.7,236,448.7,237z"
			/>
	</g>
	<g id="XMLID_168_">
		<path id="XMLID_171_" class="st1" d="M34.1,439.1c0,3.9-1,7.1-3.1,9.6c-2.2,2.6-5.3,3.9-9.3,3.9c-0.7,0-1.7,0-3-0.1
			c-1.3-0.1-2.3-0.1-3-0.1c-0.7,0-1.1,0.3-1.1,0.9c0,0.7,0.1,1.9,0.2,3.3c0.1,1.5,0.2,2.6,0.2,3.3c0,0.4-0.2,0.6-0.5,0.6
			c-1,0-2.5,0-4.5-0.1c-2-0.1-3.5-0.1-4.5-0.1c-0.5,0-0.7-0.2-0.7-0.7c0-1.8,0-4.5,0.1-8.1c0.1-3.6,0.1-6.3,0.1-8.1
			c0-5.1-0.2-10.5-0.7-16.1l0-0.3c0-0.3,0.2-0.5,0.7-0.6c1.3-0.2,4.1-0.2,8.5-0.2c2.6,0,5.1,0,7.4,0.1c3.9,0.1,7,1.3,9.4,3.6
			C32.9,432.1,34.1,435.2,34.1,439.1z M24.3,439.4c0-3.8-1.9-5.7-5.6-5.7c-2.6,0-4,0.1-4.1,0.4c-0.1,0.2-0.2,2.1-0.2,5.6
			c0,0.5,0,1.2,0.1,2.2c0,1,0.1,1.7,0.1,2.2c0,0.3,1.5,0.5,4.4,0.5C22.5,444.8,24.3,443,24.3,439.4z"/>
		<path id="XMLID_179_" class="st1" d="M53.7,445c0,0.6-0.4,1-1.1,1c-0.3,0-0.8,0-1.4-0.1c-0.6,0-1.1-0.1-1.3-0.1
			c-1.4,0-2.3,0.2-2.8,0.6c-0.5,0.4-0.7,1.3-0.7,2.6c0,0.7,0,1.8,0,3.2c0,1.4,0,2.5,0,3.2c0,0.5,0,1.2,0.1,2.1
			c0.1,0.9,0.1,1.6,0.1,2.1c0,0.4-0.3,0.6-0.8,0.7c-0.8,0.1-2,0.1-3.6,0.1c-1.6,0-2.8,0-3.8-0.1c-0.5-0.1-0.8-0.3-0.8-0.8
			c0-1.3,0-3.3,0-5.8c0-2.6,0-4.5,0-5.8c0-3.8-0.4-7-1.1-9.4c0-0.1,0-0.3,0-0.4c0-0.2,0.1-0.4,0.4-0.5c0.9-0.1,2.2-0.3,4-0.5
			c2.6-0.5,3.9-0.8,4-0.8c0.3,0,0.5,0.5,0.6,1.5c0.1,1,0.2,1.5,0.4,1.5c-0.2,0,0.4-0.4,2-1.3c1.6-0.9,3.1-1.3,4.6-1.3
			c0.9,0,1.4,0.2,1.4,0.6c0,0.5,0,1.1-0.1,2c-0.1,0.9-0.2,1.6-0.2,2c0,0.5,0,1.1,0,1.9C53.7,444.1,53.7,444.7,53.7,445z"/>
		<path id="XMLID_181_" class="st1" d="M80.3,448.2c0,3.7-1.1,6.7-3.4,9c-2.3,2.3-5.3,3.5-9.1,3.5c-3.6,0-6.6-1.1-8.9-3.4
			c-2.3-2.3-3.5-5.2-3.5-8.8c0-3.8,1.1-6.8,3.4-9.2c2.2-2.4,5.3-3.5,9.1-3.5c3.7,0,6.7,1.2,9,3.5C79.2,441.6,80.3,444.6,80.3,448.2z
			 M72.2,448.2c0-1.3-0.4-2.4-1.2-3.4c-0.8-1-1.9-1.5-3.1-1.5c-1.3,0-2.4,0.5-3.2,1.5c-0.8,0.9-1.2,2.1-1.2,3.4
			c0,1.3,0.4,2.5,1.2,3.4c0.8,1,1.9,1.5,3.2,1.5c1.3,0,2.3-0.5,3.2-1.5C71.9,450.7,72.2,449.5,72.2,448.2z"/>
		<path id="XMLID_186_" class="st1" d="M107.9,453.9c0,4.6-1,8-3,10c-2,2.1-5.4,3.1-10.2,3.1c-1.4,0-3.3-0.2-5.7-0.7
			c-3-0.6-4.6-1.2-4.6-2c0-0.3,0.4-1.9,1.1-4.8c0.1-0.5,0.3-0.7,0.5-0.7c0.1,0,0.2,0,0.3,0.1c2.5,1.2,4.9,1.9,7,1.9
			c1.2,0,2.4-0.3,3.5-0.9c1.4-0.7,2.1-1.6,2.1-2.6v-1.6c-1.7,1.6-3.8,2.3-6.5,2.3c-3.1,0-5.6-1.1-7.6-3.3c-1.9-2.1-2.9-4.7-2.9-7.8
			c0-3.1,0.9-5.7,2.8-7.7c1.9-2.1,4.4-3.2,7.6-3.2c2.5,0,4.4,0.9,5.7,2.6c0.3,0.4,0.4,0.5,0.5,0.5c0.1,0,0.2-0.3,0.2-0.9
			c0-1.3,0.1-2,0.4-2c0.3,0,1.7,0.1,4.3,0.4c2.6,0.3,3.9,0.4,4,0.5c0.3,0.1,0.4,0.3,0.4,0.6c0,1.1,0,2.8-0.1,5
			c-0.1,2.2-0.1,3.9-0.1,5c0,0.7,0,1.7,0,3C107.9,452.2,107.9,453.2,107.9,453.9z M99.4,447.1c0-1.2-0.4-2.2-1.2-3.1
			c-0.8-0.9-1.8-1.3-3-1.3c-1.2,0-2.2,0.4-3,1.3c-0.8,0.9-1.2,1.9-1.2,3.1c0,1.2,0.4,2.2,1.2,3.1c0.8,0.9,1.8,1.3,3,1.3
			c1.2,0,2.2-0.4,3-1.3C99,449.4,99.4,448.3,99.4,447.1z"/>
		<path id="XMLID_193_" class="st1" d="M128.6,445c0,0.6-0.4,1-1.1,1c-0.3,0-0.8,0-1.4-0.1c-0.6,0-1.1-0.1-1.3-0.1
			c-1.4,0-2.3,0.2-2.8,0.6c-0.5,0.4-0.7,1.3-0.7,2.6c0,0.7,0,1.8,0,3.2c0,1.4,0,2.5,0,3.2c0,0.5,0,1.2,0.1,2.1
			c0.1,0.9,0.1,1.6,0.1,2.1c0,0.4-0.3,0.6-0.8,0.7c-0.8,0.1-2,0.1-3.6,0.1c-1.6,0-2.8,0-3.8-0.1c-0.5-0.1-0.8-0.3-0.8-0.8
			c0-1.3,0-3.3,0-5.8c0-2.6,0-4.5,0-5.8c0-3.8-0.4-7-1.1-9.4c0-0.1,0-0.3,0-0.4c0-0.2,0.1-0.4,0.4-0.5c0.9-0.1,2.2-0.3,4-0.5
			c2.6-0.5,3.9-0.8,4-0.8c0.3,0,0.5,0.5,0.6,1.5c0.1,1,0.2,1.5,0.4,1.5c-0.2,0,0.4-0.4,2-1.3c1.6-0.9,3.1-1.3,4.6-1.3
			c0.9,0,1.4,0.2,1.4,0.6c0,0.5,0,1.1-0.1,2c-0.1,0.9-0.2,1.6-0.2,2c0,0.5,0,1.1,0,1.9C128.6,444.1,128.6,444.7,128.6,445z"/>
		<path id="XMLID_195_" class="st1" d="M156.3,448c0,1.3,0.1,3.1,0.2,5.6c0.1,2.5,0.2,4.3,0.2,5.6c0,0.7-0.3,1-0.9,1
			c-2,0.1-4.4,0.2-7,0.2c-0.3,0-0.5-0.5-0.6-1.4c-0.1-0.9-0.2-1.4-0.4-1.4c-0.1,0.1-0.3,0.2-0.5,0.4c-1.8,1.8-3.8,2.8-5.9,2.8
			c-3.2,0-5.9-1.3-8-3.8c-2-2.3-3-5.1-3-8.4c0-3.8,1-6.8,3.1-9.1c2.1-2.4,5.1-3.6,8.8-3.6c2.6,0,4.6,0.9,6.1,2.7
			c0.1,0.1,0.1,0.1,0.2,0.1c0.1,0,0.3-0.4,0.5-1.2c0.2-0.8,0.4-1.2,0.7-1.2c0.6,0,1.8,0.2,3.5,0.5c1.6,0.3,2.8,0.6,3.5,0.8
			c0.2,0.1,0.4,0.2,0.4,0.4c0,0.1,0,0.2-0.1,0.5C156.6,441.6,156.3,444.7,156.3,448z M148.3,448.2c0-1.4-0.4-2.5-1.3-3.4
			c-0.9-0.9-2-1.4-3.4-1.4c-1.4,0-2.6,0.4-3.4,1.3c-0.9,0.9-1.3,2-1.3,3.4c0,1.3,0.5,2.5,1.4,3.4c0.9,0.9,2,1.4,3.4,1.4
			c1.4,0,2.5-0.5,3.4-1.4C147.9,450.7,148.3,449.6,148.3,448.2z"/>
		<path id="XMLID_199_" class="st1" d="M200.7,459.3c0,0.6-0.2,0.9-0.7,1s-1.7,0.1-3.7,0.1c-2,0-3.3,0-3.8-0.1s-0.7-0.5-0.7-1.2
			c0-0.7,0-1.9,0.1-3.4c0-1.5,0.1-2.6,0.1-3.4c0-2.8,0-4.9-0.1-6.1c-0.1-1.9-1-2.9-2.8-2.9c-0.8,0-1.5,0.3-2.3,1
			c-0.8,0.6-1.2,1.4-1.3,2.1c-0.1,0.7-0.1,2.7-0.1,6c0,0.8,0,1.9,0.1,3.5c0,1.6,0.1,2.7,0.1,3.5c0,0.5-0.2,0.8-0.7,0.8h-7.5
			c-0.5,0-0.7-0.3-0.7-1c0-0.8,0-1.9,0.1-3.4c0-1.5,0.1-2.7,0.1-3.5c0-0.6,0-1.5,0-2.7c0-1.2,0-2.1,0-2.8c0-2.3-0.9-3.5-2.7-3.5
			c-0.7,0-1.5,0.3-2.3,0.8c-0.9,0.6-1.4,1.2-1.4,1.9c0,1.5,0,3.7,0,6.6c0,2.9,0,5.2,0,6.6c0,0.4,0,0.7-0.1,0.8s-0.4,0.2-0.8,0.2
			c-0.7,0.1-1.9,0.1-3.5,0.1c-1,0-2.2,0-3.5-0.1c-0.4,0-0.6-0.1-0.7-0.2c-0.1-0.1-0.1-0.3-0.1-0.7c0-1.3,0-3.3,0-5.8
			c0-2.6,0-4.5,0-5.8c0-2.7-0.2-5.7-0.6-9c0-0.2,0-0.3,0-0.4c0-0.3,0.1-0.5,0.3-0.6c0.4-0.1,1-0.3,2.1-0.4c1.2-0.1,2-0.2,2.2-0.2
			c0.2,0,0.8-0.2,2-0.5c0.8-0.2,1.5-0.3,2-0.3c0.3,0,0.5,0.6,0.5,1.7c0,1.1,0.1,1.7,0.2,1.7c0.2-0.1,0.4-0.2,0.6-0.3
			c1.5-1.1,2.7-1.9,3.5-2.3c1.3-0.6,2.6-0.9,4.1-0.9c1.5,0,2.9,0.3,4.1,1c1.3,0.7,2.2,1.8,2.6,3.1c0.9-1.2,2.1-2.2,3.6-3
			c1.5-0.8,3-1.2,4.5-1.2c2.2,0,3.9,0.5,5.3,1.5c1.5,1.1,2.3,2.7,2.3,4.8c0,0.9,0,2.2-0.1,3.9c0,1.7-0.1,3-0.1,3.9
			c0,1,0,2.6,0.1,4.6C200.7,456.8,200.7,458.3,200.7,459.3z"/>
		<path id="XMLID_219_" class="st1" d="M244.8,459.3c0,0.6-0.2,0.9-0.7,1c-0.5,0.1-1.7,0.1-3.7,0.1c-2,0-3.3,0-3.8-0.1
			c-0.5-0.1-0.7-0.5-0.7-1.2c0-0.7,0-1.9,0.1-3.4c0-1.5,0.1-2.6,0.1-3.4c0-2.8,0-4.9-0.1-6.1c-0.1-1.9-1-2.9-2.8-2.9
			c-0.8,0-1.5,0.3-2.3,1c-0.8,0.6-1.2,1.4-1.3,2.1c-0.1,0.7-0.1,2.7-0.1,6c0,0.8,0,1.9,0.1,3.5c0,1.6,0.1,2.7,0.1,3.5
			c0,0.5-0.2,0.8-0.7,0.8h-7.5c-0.5,0-0.7-0.3-0.7-1c0-0.8,0-1.9,0.1-3.4c0-1.5,0.1-2.7,0.1-3.5c0-0.6,0-1.5,0-2.7
			c0-1.2,0-2.1,0-2.8c0-2.3-0.9-3.5-2.7-3.5c-0.7,0-1.5,0.3-2.3,0.8c-0.9,0.6-1.4,1.2-1.4,1.9c0,1.5,0,3.7,0,6.6c0,2.9,0,5.2,0,6.6
			c0,0.4,0,0.7-0.1,0.8s-0.4,0.2-0.8,0.2c-0.7,0.1-1.9,0.1-3.5,0.1c-1,0-2.2,0-3.5-0.1c-0.4,0-0.6-0.1-0.7-0.2
			c-0.1-0.1-0.1-0.3-0.1-0.7c0-1.3,0-3.3,0-5.8c0-2.6,0-4.5,0-5.8c0-2.7-0.2-5.7-0.6-9c0-0.2,0-0.3,0-0.4c0-0.3,0.1-0.5,0.3-0.6
			c0.4-0.1,1-0.3,2.1-0.4c1.2-0.1,2-0.2,2.2-0.2c0.2,0,0.8-0.2,2-0.5c0.8-0.2,1.5-0.3,2-0.3c0.3,0,0.5,0.6,0.5,1.7
			c0,1.1,0.1,1.7,0.2,1.7c0.2-0.1,0.4-0.2,0.6-0.3c1.5-1.1,2.7-1.9,3.5-2.3c1.3-0.6,2.6-0.9,4.1-0.9c1.5,0,2.9,0.3,4.1,1
			c1.3,0.7,2.2,1.8,2.6,3.1c0.9-1.2,2.1-2.2,3.6-3c1.5-0.8,3-1.2,4.5-1.2c2.2,0,3.9,0.5,5.3,1.5c1.5,1.1,2.3,2.7,2.3,4.8
			c0,0.9,0,2.2-0.1,3.9c0,1.7-0.1,3-0.1,3.9c0,1,0,2.6,0.1,4.6C244.8,456.8,244.8,458.3,244.8,459.3z"/>
		<path id="XMLID_222_" class="st1" d="M258.7,449c0,1.2,0,3,0.1,5.3c0,2.4,0.1,4.1,0.1,5.3c0,0.3-0.2,0.5-0.6,0.6
			c-0.6,0.1-1.8,0.1-3.8,0.1c-2,0-3.2,0-3.8-0.1c-0.4-0.1-0.6-0.2-0.7-0.3c0-0.1,0-0.3,0-0.7c0-1.1,0-2.8,0.1-5.1
			c0-2.3,0.1-4,0.1-5.1c0-4.6-0.2-8.3-0.5-11c0-0.3,0-0.4,0-0.5c0-0.3,0.2-0.5,0.7-0.5c0.5,0,1.2,0,2.1,0.1c0.9,0.1,1.7,0.1,2.1,0.1
			c0.5,0,1.2,0,2.1-0.1c1-0.1,1.7-0.1,2.1-0.1c0.4,0,0.6,0.2,0.6,0.5c0,0.1,0,0.2,0,0.5C258.9,441.2,258.7,444.9,258.7,449z
			 M259.3,430.9c0,2.8-1.6,4.2-4.8,4.2c-1.4,0-2.5-0.4-3.4-1.1c-1-0.8-1.5-1.8-1.5-3.2c0-1.3,0.5-2.3,1.5-3.1
			c0.9-0.7,2.1-1.1,3.4-1.1c1.3,0,2.4,0.4,3.3,1.1C258.8,428.6,259.3,429.6,259.3,430.9z"/>
		<path id="XMLID_227_" class="st1" d="M288,459.5c0,0.4-0.2,0.7-0.7,0.8c-0.5,0.1-1.7,0.1-3.6,0.1c-2.1,0-3.4,0-3.9-0.1
			s-0.7-0.4-0.7-1c0-0.8,0-1.9,0.1-3.5c0-1.5,0.1-2.7,0.1-3.5c0-0.6,0-1.5,0-2.7c0-1.2,0-2.1,0-2.7c0-2.2-1-3.3-2.9-3.3
			c-0.6,0-1.4,0.3-2.2,0.8c-0.9,0.6-1.4,1.2-1.4,1.8v13.2c0,0.5-0.3,0.8-0.8,0.9c-0.6,0.1-1.8,0.1-3.5,0.1c-1.9,0-3.2,0-3.8-0.1
			c-0.5-0.1-0.8-0.3-0.8-0.8c0-1.3,0-3.2,0-5.7c0-2.6,0-4.5,0-5.8c0-4.1-0.3-7.2-1-9.5c0-0.1,0-0.3,0-0.4c0-0.3,0.1-0.4,0.4-0.5
			c1-0.1,2.4-0.3,4.1-0.5c2.6-0.5,4.1-0.8,4.4-0.8c0.2,0,0.3,0.5,0.4,1.6c0.1,1.1,0.2,1.6,0.4,1.6c-0.2,0,0.7-0.6,2.7-1.7
			c2-1.1,3.7-1.7,5.1-1.7c2.1,0,3.8,0.5,5.2,1.5c1.6,1.1,2.3,2.7,2.3,4.7v7.8c0,1.1,0,2.6,0,4.7C288,456.9,288,458.5,288,459.5z"/>
		<path id="XMLID_229_" class="st1" d="M316.7,453.9c0,4.6-1,8-3,10c-2,2.1-5.4,3.1-10.2,3.1c-1.4,0-3.3-0.2-5.7-0.7
			c-3-0.6-4.6-1.2-4.6-2c0-0.3,0.4-1.9,1.1-4.8c0.1-0.5,0.3-0.7,0.5-0.7c0.1,0,0.2,0,0.3,0.1c2.5,1.2,4.9,1.9,7,1.9
			c1.2,0,2.4-0.3,3.5-0.9c1.4-0.7,2.1-1.6,2.1-2.6v-1.6c-1.7,1.6-3.8,2.3-6.5,2.3c-3.1,0-5.6-1.1-7.6-3.3c-1.9-2.1-2.9-4.7-2.9-7.8
			c0-3.1,0.9-5.7,2.8-7.7c1.9-2.1,4.4-3.2,7.6-3.2c2.5,0,4.4,0.9,5.7,2.6c0.3,0.4,0.4,0.5,0.5,0.5c0.1,0,0.2-0.3,0.2-0.9
			c0-1.3,0.1-2,0.4-2c0.3,0,1.7,0.1,4.3,0.4c2.6,0.3,3.9,0.4,4,0.5c0.3,0.1,0.4,0.3,0.4,0.6c0,1.1,0,2.8-0.1,5
			c-0.1,2.2-0.1,3.9-0.1,5c0,0.7,0,1.7,0,3C316.7,452.2,316.7,453.2,316.7,453.9z M308.2,447.1c0-1.2-0.4-2.2-1.2-3.1
			c-0.8-0.9-1.8-1.3-3-1.3c-1.2,0-2.2,0.4-3,1.3c-0.8,0.9-1.2,1.9-1.2,3.1c0,1.2,0.4,2.2,1.2,3.1c0.8,0.9,1.8,1.3,3,1.3
			c1.2,0,2.2-0.4,3-1.3C307.8,449.4,308.2,448.3,308.2,447.1z"/>
	</g>
	<g id="XMLID_87_">
		<path id="XMLID_88_" class="st1" d="M38.8,55.1c0,0.3-0.2,0.5-0.6,0.6c-0.5,0.1-2,0.2-4.6,0.2c-2.4,0-3.9-0.1-4.5-0.2
			c-0.6-0.1-0.9-0.5-1.1-1.1c-0.6-2.3-1-3.6-1.3-3.8c-0.3-0.1-2.5-0.2-6.6-0.2c-2.8,0-4.3,0.1-4.5,0.2c-0.3,0.3-0.6,1.1-0.9,2.6
			c-0.3,1.4-0.7,2.1-1.1,2.2c-0.6,0.1-2.4,0.2-5.6,0.2c-2.5,0-3.8-0.2-3.8-0.7c0-0.4,1.9-5.6,5.6-15.6c4-10.8,6.2-16.7,6.6-17.8
			c0.2-0.6,0.4-0.9,0.7-0.9c0.4,0,1.1,0,2.1,0.1c0.9,0.1,1.6,0.1,2.1,0.1c0.4,0,1.1,0,2-0.1C23.9,21,24.6,21,25,21
			c0.3,0,0.6,0.3,0.9,0.8c0.8,1.7,3.2,7.6,7.1,17.6C36.8,49.4,38.8,54.7,38.8,55.1z M21.3,32.9c-0.3,0.7-0.9,2.3-1.8,4.7
			c-0.9,2.5-1.3,4-1.3,4.5c0,0.3,0.5,0.5,1.5,0.5c0.5,0,1.3,0,2.5,0c1.1,0,1.7-0.1,1.8-0.4c0-0.1,0-0.2,0-0.3c0-0.5-0.4-2-1.1-4.4
			C22.2,35,21.6,33.5,21.3,32.9z"/>
		<path id="XMLID_91_" class="st1" d="M65.7,55c0,0.4-0.2,0.7-0.7,0.8c-0.5,0.1-1.7,0.1-3.6,0.1c-2.1,0-3.4,0-3.9-0.1
			s-0.7-0.4-0.7-1c0-0.8,0-1.9,0.1-3.5c0-1.5,0.1-2.7,0.1-3.5c0-0.6,0-1.5,0-2.7c0-1.2,0-2.1,0-2.7c0-2.2-1-3.3-2.9-3.3
			c-0.6,0-1.4,0.3-2.2,0.8c-0.9,0.6-1.4,1.2-1.4,1.8v13.2c0,0.5-0.3,0.8-0.8,0.9c-0.6,0.1-1.8,0.1-3.5,0.1c-1.9,0-3.2,0-3.8-0.1
			c-0.5-0.1-0.8-0.3-0.8-0.8c0-1.3,0-3.2,0-5.7c0-2.6,0-4.5,0-5.8c0-4.1-0.3-7.2-1-9.5c0-0.1,0-0.3,0-0.4c0-0.3,0.1-0.4,0.4-0.5
			c1-0.1,2.4-0.3,4.1-0.5c2.6-0.5,4.1-0.8,4.4-0.8c0.2,0,0.3,0.5,0.4,1.6c0.1,1.1,0.2,1.6,0.4,1.6c-0.2,0,0.7-0.6,2.7-1.7
			c2-1.1,3.7-1.7,5.1-1.7c2.1,0,3.8,0.5,5.2,1.5c1.6,1.1,2.3,2.7,2.3,4.7v7.8c0,1.1,0,2.6,0,4.7C65.7,52.4,65.7,54,65.7,55z"/>
		<path id="XMLID_93_" class="st1" d="M79,44.5c0,1.2,0,3,0.1,5.3c0,2.4,0.1,4.1,0.1,5.3c0,0.3-0.2,0.5-0.6,0.6
			c-0.6,0.1-1.8,0.1-3.8,0.1c-2,0-3.2,0-3.8-0.1c-0.4-0.1-0.6-0.2-0.7-0.3c0-0.1,0-0.3,0-0.7c0-1.1,0-2.8,0.1-5.1
			c0-2.3,0.1-4,0.1-5.1c0-4.6-0.2-8.3-0.5-11c0-0.3,0-0.4,0-0.5c0-0.3,0.2-0.5,0.7-0.5c0.5,0,1.2,0,2.1,0.1c0.9,0.1,1.7,0.1,2.1,0.1
			c0.5,0,1.2,0,2.1-0.1c1-0.1,1.7-0.1,2.1-0.1c0.4,0,0.6,0.2,0.6,0.5c0,0.1,0,0.2,0,0.5C79.1,36.7,79,40.3,79,44.5z M79.6,26.4
			c0,2.8-1.6,4.2-4.8,4.2c-1.4,0-2.5-0.4-3.4-1.1c-1-0.8-1.5-1.8-1.5-3.2c0-1.3,0.5-2.3,1.5-3.1c0.9-0.7,2.1-1.1,3.4-1.1
			c1.3,0,2.4,0.4,3.3,1.1C79.1,24.1,79.6,25.1,79.6,26.4z"/>
		<path id="XMLID_96_" class="st1" d="M123.2,54.8c0,0.6-0.2,0.9-0.7,1c-0.5,0.1-1.7,0.1-3.7,0.1c-2,0-3.3,0-3.8-0.1
			c-0.5-0.1-0.7-0.5-0.7-1.2c0-0.7,0-1.9,0.1-3.4c0-1.5,0.1-2.6,0.1-3.4c0-2.8,0-4.9-0.1-6.1c-0.1-1.9-1-2.9-2.8-2.9
			c-0.8,0-1.5,0.3-2.3,1c-0.8,0.6-1.2,1.4-1.3,2.1c-0.1,0.7-0.1,2.7-0.1,6c0,0.8,0,1.9,0.1,3.5c0,1.6,0.1,2.7,0.1,3.5
			c0,0.5-0.2,0.8-0.7,0.8h-7.5c-0.5,0-0.7-0.3-0.7-1c0-0.8,0-1.9,0.1-3.4c0-1.5,0.1-2.7,0.1-3.5c0-0.6,0-1.5,0-2.7
			c0-1.2,0-2.1,0-2.8c0-2.3-0.9-3.5-2.7-3.5c-0.7,0-1.5,0.3-2.3,0.8c-0.9,0.6-1.4,1.2-1.4,1.9c0,1.5,0,3.7,0,6.6c0,2.9,0,5.2,0,6.6
			c0,0.4,0,0.7-0.1,0.8s-0.4,0.2-0.8,0.2c-0.7,0.1-1.9,0.1-3.5,0.1c-1,0-2.2,0-3.5-0.1c-0.4,0-0.6-0.1-0.7-0.2
			c-0.1-0.1-0.1-0.3-0.1-0.7c0-1.3,0-3.3,0-5.8c0-2.6,0-4.5,0-5.8c0-2.7-0.2-5.7-0.6-9c0-0.2,0-0.3,0-0.4c0-0.3,0.1-0.5,0.3-0.6
			c0.4-0.1,1-0.3,2.1-0.4c1.2-0.1,2-0.2,2.2-0.2c0.2,0,0.8-0.2,2-0.5c0.8-0.2,1.5-0.3,2-0.3c0.3,0,0.5,0.6,0.5,1.7
			c0,1.1,0.1,1.7,0.2,1.7c0.2-0.1,0.4-0.2,0.6-0.3c1.5-1.1,2.7-1.9,3.5-2.3c1.3-0.6,2.6-0.9,4.1-0.9c1.5,0,2.9,0.3,4.1,1
			c1.3,0.7,2.2,1.8,2.6,3.1c0.9-1.2,2.1-2.2,3.6-3c1.5-0.8,3-1.2,4.5-1.2c2.2,0,3.9,0.5,5.3,1.5c1.5,1.1,2.3,2.7,2.3,4.8
			c0,0.9,0,2.2-0.1,3.9c0,1.7-0.1,3-0.1,3.9c0,1,0,2.6,0.1,4.6C123.2,52.3,123.2,53.8,123.2,54.8z"/>
		<path id="XMLID_98_" class="st1" d="M152.7,43.5c0,1.3,0.1,3.1,0.2,5.6c0.1,2.5,0.2,4.3,0.2,5.6c0,0.7-0.3,1-0.9,1
			c-2,0.1-4.4,0.2-7,0.2c-0.3,0-0.5-0.5-0.6-1.4c-0.1-0.9-0.2-1.4-0.4-1.4c-0.1,0.1-0.3,0.2-0.5,0.4c-1.8,1.8-3.8,2.8-5.9,2.8
			c-3.2,0-5.9-1.3-8-3.8c-2-2.3-3-5.1-3-8.4c0-3.8,1-6.8,3.1-9.1c2.1-2.4,5.1-3.6,8.8-3.6c2.6,0,4.6,0.9,6.1,2.7
			c0.1,0.1,0.1,0.1,0.2,0.1c0.1,0,0.3-0.4,0.5-1.2c0.2-0.8,0.4-1.2,0.7-1.2c0.6,0,1.8,0.2,3.5,0.5c1.6,0.3,2.8,0.6,3.5,0.8
			c0.2,0.1,0.4,0.2,0.4,0.4c0,0.1,0,0.2-0.1,0.5C153,37.1,152.7,40.2,152.7,43.5z M144.8,43.7c0-1.4-0.4-2.5-1.3-3.4
			c-0.9-0.9-2-1.4-3.4-1.4c-1.4,0-2.6,0.4-3.4,1.3c-0.9,0.9-1.3,2-1.3,3.4c0,1.3,0.5,2.5,1.4,3.4c0.9,0.9,2,1.4,3.4,1.4
			c1.4,0,2.5-0.5,3.4-1.4C144.3,46.2,144.8,45.1,144.8,43.7z"/>
		<path id="XMLID_101_" class="st1" d="M174.2,48.6c0,0.5-0.1,1.2-0.2,2.2c-0.1,1-0.2,1.7-0.2,2.2c0,0.5,0,0.8-0.1,0.9
			c-0.1,0.1-0.4,0.3-0.8,0.6c-2.1,1.2-4.5,1.7-7.1,1.7c-4.8,0-7.1-1.8-7.1-5.4c0-1.1,0-2.7,0.1-4.8c0.1-2.2,0.1-3.8,0.1-4.8
			c0-0.7-0.4-1.1-1.3-1.1c-0.1,0-0.2,0-0.3,0c-0.1,0-0.3,0-0.3,0c-0.6,0-0.9-0.2-0.9-0.7c0-0.3,0-0.7,0.1-1.2c0-0.5,0.1-0.9,0.1-1.2
			c0-0.3,0-0.9-0.1-1.6c0-0.7-0.1-1.2-0.1-1.6c0-0.3,0.5-0.5,1.6-0.5c0.6,0,0.9-0.2,1-0.5c0.1-0.6,0.1-1.6,0.1-2.9
			c-0.1-2.1-0.1-3.1-0.1-3c0-1.9,0.2-2.8,0.5-2.8c0.4,0,1.1,0.1,1.9,0.3c0.9,0.2,1.6,0.3,2,0.4c0.8,0.1,2.1,0.3,3.8,0.5
			c0.4,0,0.6,0.2,0.6,0.4c0,0.7-0.1,1.6-0.2,3c-0.1,1.3-0.2,2.3-0.2,3c0,0.8,0.2,1.2,0.7,1.2c0.6,0,1.4,0,2.6-0.1
			c1.2,0,2.1-0.1,2.6-0.1c0.4,0,0.5,0.1,0.5,0.4c0,0.4,0,0.9-0.1,1.7c-0.1,0.7-0.1,1.3-0.1,1.7c0,0.4,0,1,0,1.7c0,0.7,0,1.3,0,1.7
			c0,0.3-0.2,0.5-0.7,0.5c-0.3,0-0.9,0-1.7,0c-0.8,0-1.3,0-1.7,0h-1.9c-0.2,0-0.4,0.4-0.4,1.1c0,0.4,0,1,0,1.7c0,0.8,0,1.4,0,1.7
			c0,1.4,0.2,2.3,0.5,2.8c0.4,0.7,1.3,1,2.6,1c0.4,0,1-0.1,1.8-0.3c0.8-0.2,1.3-0.3,1.6-0.3C174,48,174.2,48.2,174.2,48.6z"/>
		<path id="XMLID_104_" class="st1" d="M185.9,44.5c0,1.2,0,3,0.1,5.3c0,2.4,0.1,4.1,0.1,5.3c0,0.3-0.2,0.5-0.6,0.6
			c-0.6,0.1-1.8,0.1-3.8,0.1c-2,0-3.2,0-3.8-0.1c-0.4-0.1-0.6-0.2-0.7-0.3c0-0.1,0-0.3,0-0.7c0-1.1,0-2.8,0.1-5.1
			c0-2.3,0.1-4,0.1-5.1c0-4.6-0.2-8.3-0.5-11c0-0.3,0-0.4,0-0.5c0-0.3,0.2-0.5,0.7-0.5c0.5,0,1.2,0,2.1,0.1c0.9,0.1,1.7,0.1,2.1,0.1
			c0.5,0,1.2,0,2.1-0.1c1-0.1,1.7-0.1,2.1-0.1c0.4,0,0.6,0.2,0.6,0.5c0,0.1,0,0.2,0,0.5C186.1,36.7,185.9,40.3,185.9,44.5z
			 M186.5,26.4c0,2.8-1.6,4.2-4.8,4.2c-1.4,0-2.5-0.4-3.4-1.1c-1-0.8-1.5-1.8-1.5-3.2c0-1.3,0.5-2.3,1.5-3.1
			c0.9-0.7,2.1-1.1,3.4-1.1c1.3,0,2.4,0.4,3.3,1.1C186,24.1,186.5,25.1,186.5,26.4z"/>
		<path id="XMLID_107_" class="st1" d="M214.4,43.7c0,3.7-1.1,6.7-3.4,9c-2.3,2.3-5.3,3.5-9.1,3.5c-3.6,0-6.6-1.1-8.9-3.4
			c-2.3-2.3-3.5-5.2-3.5-8.8c0-3.8,1.1-6.8,3.4-9.2c2.2-2.4,5.3-3.5,9.1-3.5c3.7,0,6.7,1.2,9,3.5C213.3,37,214.4,40,214.4,43.7z
			 M206.3,43.7c0-1.3-0.4-2.4-1.2-3.4c-0.8-1-1.9-1.5-3.1-1.5c-1.3,0-2.4,0.5-3.2,1.5c-0.8,0.9-1.2,2.1-1.2,3.4
			c0,1.3,0.4,2.5,1.2,3.4c0.8,1,1.9,1.5,3.2,1.5c1.3,0,2.3-0.5,3.2-1.5C205.9,46.2,206.3,45,206.3,43.7z"/>
		<path id="XMLID_166_" class="st1" d="M242,55c0,0.4-0.2,0.7-0.7,0.8c-0.5,0.1-1.7,0.1-3.6,0.1c-2.1,0-3.4,0-3.9-0.1
			c-0.5-0.1-0.7-0.4-0.7-1c0-0.8,0-1.9,0.1-3.5c0-1.5,0.1-2.7,0.1-3.5c0-0.6,0-1.5,0-2.7c0-1.2,0-2.1,0-2.7c0-2.2-1-3.3-2.9-3.3
			c-0.6,0-1.4,0.3-2.2,0.8c-0.9,0.6-1.4,1.2-1.4,1.8v13.2c0,0.5-0.3,0.8-0.8,0.9c-0.6,0.1-1.8,0.1-3.5,0.1c-1.9,0-3.2,0-3.8-0.1
			c-0.5-0.1-0.8-0.3-0.8-0.8c0-1.3,0-3.2,0-5.7c0-2.6,0-4.5,0-5.8c0-4.1-0.3-7.2-1-9.5c0-0.1,0-0.3,0-0.4c0-0.3,0.1-0.4,0.4-0.5
			c1-0.1,2.4-0.3,4.1-0.5c2.6-0.5,4.1-0.8,4.4-0.8c0.2,0,0.3,0.5,0.4,1.6c0.1,1.1,0.2,1.6,0.4,1.6c-0.2,0,0.7-0.6,2.7-1.7
			c2-1.1,3.7-1.7,5.1-1.7c2.1,0,3.8,0.5,5.2,1.5c1.6,1.1,2.3,2.7,2.3,4.7v7.8c0,1.1,0,2.6,0,4.7C242,52.4,242,54,242,55z"/>
	</g>
	<g id="XMLID_164_">
		<ellipse id="XMLID_169_" class="st2" cx="413.6" cy="45.7" rx="17.2" ry="17"/>
		<ellipse id="XMLID_157_" class="st2" cx="407.2" cy="64.1" rx="5.7" ry="2"/>
		<ellipse id="XMLID_159_" class="st2" cx="435.8" cy="54.5" rx="9.2" ry="9.1"/>
		<ellipse id="XMLID_184_" class="st2" cx="332.5" cy="44.1" rx="17.2" ry="17"/>
		<ellipse id="XMLID_158_" class="st2" cx="388.2" cy="38.4" rx="9.2" ry="9.1"/>
		<rect id="XMLID_201_" x="233.3" y="65.3" class="st3" width="219" height="0.4"/>
		<path id="XMLID_200_" class="st4" d="M419.2,151.2c-3.1,4.1,0.5,11.9,0.5,11.9s8.6,1.3,11.8-2.7s-0.5-11.9-0.5-11.9
			S422.3,147.1,419.2,151.2z"/>
		<path id="XMLID_155_" class="st3" d="M306.4,17c-7.1-7.4-22.6-4.5-22.8-4.5l-0.1-0.4c0.2,0,16-3,23.2,4.6L306.4,17z"/>
		<path id="XMLID_154_" class="st5" d="M308.2,19c-1.2-0.7-2.8-1.5-4.1-1.7l2.2-0.7l1.2-1.9C307.5,15.9,307.8,17.7,308.2,19z"/>
		<path id="XMLID_153_" class="st5" d="M377.4,29c-7.1-7.4-22.6-4.5-22.8-4.5l-0.1-0.4c0.2,0,16-3,23.2,4.6L377.4,29z"/>
		<path id="XMLID_152_" class="st3" d="M379.2,31c-1.2-0.7-2.8-1.5-4.1-1.7l2.2-0.7l1.2-1.9C378.5,28,378.8,29.7,379.2,31z"/>
		<path id="XMLID_151_" class="st6" d="M378.7,48.6c0,0-4.8,0-5.3,2.9c-0.5,2.9-1.3,34.4-0.8,38.4c0.5,3.9,0.5,3.2,0.5,3.2
			s-1.1,7.5,1.3,7.8c2.4,0.3,2.4-8.6,2.4-8.6l1.9-32.1V48.6z"/>
		<path id="XMLID_150_" class="st6" d="M399.4,48.6c0,0,4.8,0,5.3,2.9c0.5,2.9,1.3,34.4,0.8,38.4C405,93.8,405,93,405,93
			s1.1,7.5-1.3,7.8c-2.4,0.3-2.4-8.6-2.4-8.6l-1.9-32.1V48.6z"/>
		<path id="XMLID_149_" class="st7" d="M377.9,158.5h-2.1c-2.6,0-4.8,2.1-4.8,4.7c0,0,0,0,0,0v0h13v-6h-6.1V158.5z"/>
		<path id="XMLID_148_" class="st7" d="M398.3,158.5h2.1c2.6,0,4.8,2.1,4.8,4.7c0,0,0,0,0,0v0h-13v-6h6.1V158.5z"/>
		<ellipse id="XMLID_147_" class="st6" cx="386.9" cy="35.8" rx="6.9" ry="6.8"/>
		<path id="XMLID_146_" class="st6" d="M385.3,39.4c0,0-0.8,8.7-1.9,9.5s11.2-0.5,11.2-0.5s-4.3-6.3-3.5-8.4
			C391.9,37.9,385.3,39.4,385.3,39.4z"/>
		<path id="XMLID_145_" class="st4" d="M401,48.6c0,0-14.6-6-24.2,0c0,0-2.4,6-0.5,9.5s4.8,11.6,1.9,17.1c-2.9,5.5,0.3,3.2,0.3,3.2
			s-3.7,14.7-4.3,26.3c-0.5,11.6,1.6,53.1,3.2,53.3s6.6,0.8,7.2,0c0.5-0.8,4.3-55.7,4.3-55.7s1.6,56.2,3.2,56.2s5.8,0,6.6-1.3
			c0.8-1.3,7.4-52,5.1-62.5s-4-15.8-4-15.8s2.9-1.8,2.1-2.9c-0.8-1.1-4.8-12.4-2.9-14.2C400.7,59.9,401,48.6,401,48.6z"/>
		<ellipse id="XMLID_144_" class="st7" cx="391.3" cy="31.6" rx="11.2" ry="11"/>
		<path id="XMLID_143_" class="st7" d="M398.3,26.1c-3.9-0.9-6.4-4.7-5.7-8.6c0,0.1-0.1,0.2-0.1,0.3c-0.9,4,1.6,8,5.6,8.9
			c4,0.9,8.1-1.5,9-5.5c0-0.1,0.1-0.2,0.1-0.3C406.1,24.7,402.2,27,398.3,26.1z"/>
		<ellipse id="XMLID_142_" class="st7" cx="398.7" cy="22.1" rx="5.5" ry="5.4"/>
		<rect id="XMLID_140_" x="333.7" y="162.7" class="st8" width="98.1" height="0.4"/>
		<ellipse id="XMLID_203_" class="st2" cx="255.6" cy="44.6" rx="17.2" ry="17"/>
		<ellipse id="XMLID_170_" class="st2" cx="279.2" cy="32.9" rx="9.2" ry="9.1"/>
		<ellipse id="XMLID_185_" class="st2" cx="232.2" cy="32.7" rx="9.2" ry="9.1"/>
		<ellipse id="XMLID_188_" class="st2" cx="306.6" cy="36.8" rx="9.2" ry="9.1"/>
		<ellipse id="XMLID_173_" class="st2" cx="358.4" cy="53.1" rx="9.2" ry="9.1"/>
		<ellipse id="XMLID_160_" class="st2" cx="417.5" cy="17.9" rx="10.8" ry="10.7"/>
		<ellipse id="XMLID_161_" class="st2" cx="336.3" cy="16.1" rx="11" ry="10.9"/>
		<ellipse id="XMLID_174_" class="st2" cx="256.5" cy="17.9" rx="10" ry="8.4"/>
		<ellipse id="XMLID_176_" class="st9" cx="412.7" cy="17.3" rx="2.3" ry="4.5"/>
		<ellipse id="XMLID_177_" class="st9" cx="423.4" cy="17.1" rx="2.3" ry="4.5"/>
		<ellipse id="XMLID_190_" class="st9" cx="262.1" cy="17.3" rx="2.3" ry="4.5"/>
		<ellipse id="XMLID_189_" class="st9" cx="252.1" cy="17.8" rx="2.3" ry="4.5"/>
		<ellipse id="XMLID_198_" class="st9" cx="332" cy="15.7" rx="2.3" ry="4.5"/>
		<ellipse id="XMLID_191_" class="st9" cx="341.3" cy="15.5" rx="2.3" ry="4.5"/>
		<ellipse id="XMLID_162_" class="st2" cx="254.8" cy="63.9" rx="5.7" ry="2"/>
		<ellipse id="XMLID_156_" class="st2" cx="331.2" cy="63.7" rx="5.7" ry="2"/>
	</g>
	<g id="XMLID_81_">
		<path id="XMLID_138_" class="st10" d="M294.5,392c0,0-12.4,8.9-7.9,14.6c4.5,5.7,16.6,10.5,16.5,16c0,5.5-6,19.4-0.4,14.4
			c5.6-4.9,8.7-7.1,9-3.7c0.3,3.4-6.2,13.3-3.1,12.8c3.1-0.5,5.6,0.2,5.5,3.6c-0.1,3.3-5.2,10.5-3,10.5c2.2,0,6.6-3.3,5.9-0.1
			c-0.7,3.1-3.5,11.4-1.3,9.2"/>
		<g id="XMLID_80_">
			<path id="XMLID_137_" class="st11" d="M270.8,335h31.8c1.8,0,3.2,1.4,3.2,3.2v11.2c0,1.8-1.4,3.2-3.2,3.2h-31.8
				c-1.8,0-3.2-1.4-3.2-3.2v-11.2C267.5,336.4,269,335,270.8,335z"/>
			<rect id="XMLID_136_" x="270.6" y="349.9" class="st12" width="32.2" height="0.3"/>
			<rect id="XMLID_135_" x="270.6" y="337.8" class="st13" width="32.2" height="12.1"/>
			<ellipse id="XMLID_134_" class="st12" cx="278.1" cy="344" rx="4.4" ry="4.4"/>
			<ellipse id="XMLID_133_" class="st12" cx="295.3" cy="344" rx="4.4" ry="4.4"/>
			<rect id="XMLID_132_" x="283.4" y="352.6" class="st11" width="6.7" height="3.8"/>
			<rect id="XMLID_131_" x="272.8" y="355.3" class="st11" width="27.7" height="21.9"/>
			<rect id="XMLID_130_" x="272.3" y="381.6" class="st11" width="28.8" height="2.7"/>
			<polygon id="XMLID_129_" class="st11" points="277,391 277,394.2 277,399.2 277,401.9 277,403.6 282,403.6 282,401.9 282,399.2 
				282,394.2 282,391 282,387.1 277,387.1 			"/>
			<polygon id="XMLID_128_" class="st11" points="292,387.1 292,391 292,394.2 292,399.2 292,401.9 292,403.6 296.9,403.6 
				296.9,401.9 296.9,399.2 296.9,394.2 296.9,391 296.9,387.1 			"/>
			<path id="XMLID_127_" class="st11" d="M269,360.2v5.1c-1.4,0.2-2.6,0.8-3.7,1.8c-1,0.9-1.7,2-2.2,3.2c-0.6,1.6-1,3.2-1.1,4.9
				c-0.2,2.2-0.1,4.4,0.3,6.5h-5.5c-0.2-2.6-0.2-5.3,0.1-7.9c0.3-2.2,0.9-4.3,1.8-6.2c1.6-3.3,3.9-5.1,5.9-6.1
				C266,360.7,267.5,360.3,269,360.2z"/>
			<rect id="XMLID_126_" x="277" y="387.1" class="st14" width="5" height="3.8"/>
			<rect id="XMLID_125_" x="277" y="394.2" class="st14" width="5" height="4.9"/>
			<rect id="XMLID_124_" x="277" y="401.9" class="st14" width="5" height="1.6"/>
			<rect id="XMLID_123_" x="292" y="387.1" class="st14" width="5" height="3.8"/>
			<rect id="XMLID_122_" x="292" y="394.2" class="st14" width="5" height="4.9"/>
			<rect id="XMLID_121_" x="292" y="401.9" class="st14" width="5" height="1.6"/>
			<path id="XMLID_120_" class="st14" d="M269,360.2v5.1c-1.4,0.2-2.6,0.8-3.7,1.8l-0.7-5.7C266,360.7,267.5,360.3,269,360.2z"/>
			<path id="XMLID_119_" class="st14" d="M263.2,370.3c-0.6,1.6-1,3.2-1.1,4.9l-5.1-1.3c0.3-2.2,0.9-4.3,1.8-6.2L263.2,370.3z"/>
			<path id="XMLID_118_" class="st11" d="M304.3,360.2v5.1c1.4,0.2,2.6,0.8,3.7,1.8c1,0.9,1.7,2,2.2,3.2c0.6,1.6,1,3.2,1.1,4.9
				c0.2,2.2,0.1,4.4-0.3,6.5h5.5c0.2-2.6,0.2-5.3-0.1-7.9c-0.3-2.2-0.9-4.3-1.8-6.2c-1.6-3.3-3.9-5.1-5.9-6.1
				C307.4,360.7,305.9,360.3,304.3,360.2z"/>
			<path id="XMLID_117_" class="st14" d="M304.3,360.2v5.1c1.4,0.2,2.6,0.8,3.7,1.8l0.7-5.7C307.4,360.7,305.9,360.3,304.3,360.2z"
				/>
			<path id="XMLID_116_" class="st14" d="M310.2,370.3c0.6,1.6,1,3.2,1.1,4.9l5.1-1.3c-0.3-2.2-0.9-4.3-1.8-6.2L310.2,370.3z"/>
			<rect id="XMLID_115_" x="283.4" y="352.6" class="st12" width="6.7" height="0.5"/>
			<path id="XMLID_114_" class="st12" d="M301,359.2v9.2c-0.3-0.4-0.5-0.8-0.5-1.3v-6.6C300.5,360,300.7,359.6,301,359.2z"/>
			<path id="XMLID_113_" class="st12" d="M272.9,359.8v6.9c0,0.4-0.2,0.8-0.5,1.2v-9.2C272.7,359,272.9,359.4,272.9,359.8z"/>
			<rect id="XMLID_112_" x="274.2" y="377.2" class="st12" width="25" height="0.3"/>
			<rect id="XMLID_111_" x="273.6" y="384.4" class="st12" width="12.2" height="0.3"/>
			<rect id="XMLID_110_" x="287" y="384.4" class="st12" width="12.2" height="0.3"/>
			<rect id="XMLID_109_" x="275" y="318.8" class="st11" width="1.9" height="16.2"/>
			<rect id="XMLID_108_" x="296.9" y="318.8" class="st11" width="1.9" height="16.2"/>
		</g>
		<path id="XMLID_103_" class="st15" d="M283.9,434.7c0.6,1,1.6,1.6,2.6,2.1c2.7,1.7,4.9,4.4,6.1,7.7c0.9,2.4,1.7,5.5,4.1,5.7
			c0.6,0,1.1-0.1,1.7,0c2.4,0.3,2.6,4.2,4.2,6.1c1.2,1.4,3.1,1.7,4.9,1.9c2.2,0.2,4.6,0.5,6.6-0.8c0.6-0.3,1.1-0.8,1.7-0.9
			c1.3-0.4,2.6,0.7,4,0.3c1.8-0.4,2.7-3.1,2.1-5s-2-3.1-3.4-4.3c-3.7-3.2-7.4-6.7-9.3-11.6c-1.9-4.7-2.6-10.8-6.7-12.8
			c-1.8-0.8-4.1-0.7-5.4-2.3c-0.6-0.7-1-1.8-1.5-2.5c-1.7-2.4-5.3-2-7.6,0C284.3,421.5,281.6,430.5,283.9,434.7z"/>
		
			<linearGradient id="XMLID_367_" gradientUnits="userSpaceOnUse" x1="410.6169" y1="70.6752" x2="410.6169" y2="167.4042" gradientTransform="matrix(1 0 0 -1 -37.6617 537.1181)">
			<stop  offset="0" style="stop-color:#818181;stop-opacity:0.25"/>
			<stop  offset="0.5351" style="stop-color:#818181;stop-opacity:0.12"/>
			<stop  offset="1" style="stop-color:#818181;stop-opacity:0.1"/>
		</linearGradient>
		<path id="XMLID_175_" class="st16" d="M419.7,431.1c-0.6-3.3-1-6.7-1.1-10.1l0,0c-0.2-5.7-4.1-10.7-9.6-12.4
			c-1-0.3-2.1-0.6-3.3-0.8c-10.5-2.2-13.7-0.3-14.1,0c-0.3-0.6-0.6-1.1-0.8-1.7c0-0.1,0-0.1-0.1-0.2c2.1-2.2,3.3-5,3.6-8
			c1.8-1.8,2.8-3.9,2.8-6.2c0-2-0.8-3.8-2.1-5.4v-3.1c0-7.4-6.1-13.5-13.6-13.5l0,0h-1.1c-7.5,0-13.6,6-13.6,13.5l0,0v3.3
			c-1.2,1.5-1.9,3.3-1.9,5.1c0,2.2,1,4.3,2.7,6c0.2,3.1,1.6,6,3.7,8.3c0.1,0.5,0.1,1.1,0.2,1.6l-18.8,3.9c0,0-7.2,0.3-11.9,9.8
			c-3.9,8.1-11.8,28.8-14.1,34.9l0,0l0,0c-0.4,1.1-0.7,1.8-0.7,1.8s0.1-0.1,0.2-0.2c-0.1,0.4-0.2,0.6-0.2,0.6s0.1-0.1,0.3-0.3
			c-0.3,2.6-0.4,7,3,7.6c2.9,0.5,10.2,0.7,15.8,0.7v0h0.4c3.7,0,6.5,0,6.5,0v0h60v-0.6c0-0.6-0.1-1.1-0.3-1.6c0,0,0.1-0.1,0.1-0.1
			c0.3,0.4,0.5,0.9,0.6,1.4c0,0.1,0,0.1,0,0.2c0,0,0,0,0-0.1c0,0.2,0,0.3,0,0.5c0,0,7.7-19.6,7.6-31.3
			C420,433.5,419.9,432.3,419.7,431.1z M371.7,410.3c-0.1-0.6-0.2-1.1-0.2-1.7l0,0C371.6,409.1,371.7,409.7,371.7,410.3z
			 M348.4,452.3v4.7l-3,0.6L348.4,452.3z"/>
		<path id="XMLID_76_" class="st17" d="M380.5,371.6L380.5,371.6c7.5,0,13.6,6,13.6,13.5v5.7l0,0h-27.3l0,0v-5.7
			C366.9,377.6,373,371.6,380.5,371.6z"/>
		<ellipse id="XMLID_75_" class="st18" cx="380.6" cy="392.7" rx="15.5" ry="10.6"/>
		<path id="XMLID_74_" class="st19" d="M370.7,402.9c0,0,3.2,16.8,0,21.3s9.9,6.3,9.9,6.3l13.6-4.9l1.9-12.1c0,0-8.3-4.6-6.6-13.9
			L370.7,402.9z"/>
		<path id="XMLID_73_" class="st19" d="M410.9,459.5c0,0,0.9,3.7-3.8,4.3c-2.8,0.4-5.6,0.4-8.3-0.1l-1-9.2h10.9L410.9,459.5z"/>
		<path id="XMLID_72_" class="st19" d="M328.4,454.8c0,0-2.1,8.3,2.6,9c4.7,0.8,21.8,0.8,21.8,0.8v-9.8l-7.8,1.6l-7.3-6.9
			L328.4,454.8z"/>
		<path id="XMLID_71_" class="st12" d="M371.7,408.3l-18.3,3.8c0,0-7,0.3-11.4,9.4c-4.5,9.1-14.2,35.2-14.2,35.2s8.3-8.3,18,0.6
			l6.5-11.6l-1.4,18.4h50.2v-8.7c0,0,10.5,5.6,9.7,8.7c0,0,9-22.9,7-33.2c-0.6-3.2-0.9-6.5-1.1-9.7l0,0c-0.2-5.5-3.9-10.3-9.3-11.9
			c-0.9-0.3-2-0.6-3.1-0.8c-10.8-2.3-13.5,0-13.5,0s-2.1,6.7-2,9.8c0,3.9-5.6,6.5-5.6,6.5s-8.4-2-8.8-3.6
			C374,419.6,371,410.2,371.7,408.3z"/>
		<path id="XMLID_70_" class="st20" d="M371.7,408l-18.3,3.8c0,0-7,0.3-11.4,9.4c-4.5,9.1-14.2,35.2-14.2,35.2s8.3-8.3,18,0.6
			l6.5-11.6l-1.4,18.4h50.2v-8.7c0,0,10.5,5.6,9.7,8.7c0,0,9-22.9,7-33.2c-0.6-3.2-0.9-6.5-1.1-9.7l0,0c-0.2-5.5-3.9-10.3-9.3-11.9
			c-0.9-0.3-2-0.6-3.1-0.8c-10.8-2.3-13.5,0-13.5,0s-2.1,6.7-2,9.8c0,3.9-5.6,6.5-5.6,6.5s-8.4-2-8.8-3.6
			C374,419.2,371,409.9,371.7,408z"/>
		<path id="XMLID_69_" class="st12" d="M390.3,407.2c-0.8-2.1-0.9-4.5-0.5-6.7l-18.9,3.3c0,0,0.3,1.4,0.6,3.5
			c5,5.1,13.2,5.2,18.3,0.3C390,407.5,390.2,407.3,390.3,407.2L390.3,407.2z"/>
		<path id="XMLID_68_" class="st19" d="M393.6,397.6c0,7.1-5.8,12.8-13,12.8c-7,0-12.8-5.5-13-12.5c0-0.1,0-0.2,0-0.3
			c0-4.9,2.8-9.4,7.3-11.5c0.4-0.2,0.8-0.4,1.2-0.5c2.1-0.8,4.4-1,6.7-0.6c0,0,0,0,0,0c5.9,1,10.4,5.9,10.8,11.8
			C393.5,397,393.6,397.3,393.6,397.6z"/>
		<g id="XMLID_163_" class="st21">
			<path id="XMLID_67_" class="st22" d="M376.1,385.8C376.1,385.8,376.1,385.8,376.1,385.8c-0.4,0.1-0.8,0.3-1.2,0.5
				c-4.4,2.2-7.3,6.6-7.3,11.5c0,0.1,0,0.2,0,0.3c0.4,0,0.8-0.1,1.2-0.3c3.2-1.5,5.1-5.9,5.8-9C374.9,387.7,375.1,386.5,376.1,385.8
				z"/>
			<path id="XMLID_66_" class="st22" d="M386,386.2c-1-0.5-2.1-0.8-3.2-1c0.9,0.2,1.7,0.7,2.3,1.4c0.3,0.4,0.5,0.8,0.7,1.2
				c-3.5-1.5-7.5-1.4-10.9,0.2c0.8,1.8,3.3,2.7,5,3.4c1.8,0.7,3.7,1.3,5.6,1.9c-0.6-0.4-1.1-0.9-1.7-1.3c1.3,0.2,2.5,0.4,3.8,0.6
				c0-0.7,0-1.5-0.3-2.2c0.7,0.6,1.7,0.8,2.5,1.3c1.5,0.9,2.1,2.7,2.9,4.2c0.2,0.4,0.5,0.8,0.8,1.1
				C393.2,392.3,390.3,388.2,386,386.2z"/>
		</g>
		<path id="XMLID_65_" class="st23" d="M376.1,385.5C376.1,385.5,376.1,385.5,376.1,385.5c-0.4,0.1-0.8,0.3-1.2,0.5
			c-4.4,2.2-7.3,6.6-7.3,11.5c0,0.1,0,0.2,0,0.3c0.4,0,0.8-0.1,1.2-0.3c3.2-1.5,5.1-5.9,5.8-9C374.9,387.4,375.1,386.2,376.1,385.5z
			"/>
		<path id="XMLID_64_" class="st23" d="M386,385.9c-1-0.5-2.1-0.8-3.2-1c0.9,0.2,1.7,0.7,2.3,1.4c0.3,0.4,0.5,0.8,0.7,1.2
			c-3.5-1.5-7.5-1.4-10.9,0.2c0.8,1.8,3.3,2.7,5,3.4c1.8,0.7,3.7,1.3,5.6,1.9c-0.6-0.4-1.1-0.9-1.7-1.3c1.3,0.2,2.5,0.4,3.8,0.6
			c0-0.7,0-1.5-0.3-2.2c0.7,0.6,1.7,0.8,2.5,1.3c1.5,0.9,2.1,2.7,2.9,4.2c0.2,0.4,0.5,0.8,0.8,1.1C393.2,392,390.3,387.9,386,385.9z
			"/>
		<path id="XMLID_63_" class="st12" d="M366.2,395.4c0,0,13.3-16.4,28.8,0l-1.3-3.7c0,0-7.2-10.5-12.4-8.2
			c-5.1,2.3-10.2,3.9-10.2,3.9L366.2,395.4z"/>
		<path id="XMLID_62_" class="st17" d="M366.2,395.2c0,0,13.3-16.4,28.8,0l-1.3-3.7c0,0-7.2-10.5-12.4-8.2
			c-5.1,2.3-10.2,3.9-10.2,3.9L366.2,395.2z"/>
		<path id="XMLID_61_" class="st12" d="M355.2,430.5c0,0-2.9,7.5,1.1,14.3c4,6.8-3.5,9.6-3.5,9.6"/>
		<path id="XMLID_60_" class="st12" d="M401.5,423.7c0,0,5,6.2,1.7,11.8c-3.2,5.6-3.1,18.9-3.1,18.9"/>
		<path id="XMLID_59_" class="st24" d="M350.8,460h55.1c2.5,0,4.6,2,4.6,4.5l0,0l0,0h-64.3l0,0l0,0C346.2,462,348.3,460,350.8,460
			L350.8,460z"/>
		<path id="XMLID_58_" class="st24" d="M359.1,428.9h38.5c5.4,0,9.7,4.3,9.7,9.6V461l0,0h-58l0,0v-22.5
			C349.4,433.2,353.7,428.9,359.1,428.9C359.1,428.9,359.1,428.9,359.1,428.9z"/>
		<ellipse id="XMLID_56_" class="st1" cx="378.3" cy="446.4" rx="3.4" ry="3.4"/>
		<path id="XMLID_55_" class="st25" d="M366.9,387.8c0,0,13.1-13,27.3-0.2"/>
		<rect id="XMLID_54_" x="396.2" y="386.9" class="st26" width="1.3" height="7.4"/>
		<path id="XMLID_53_" class="st27" d="M394.4,391.7L394.4,391.7c2.5,0,4.5,2,4.5,4.5l0,0v0.3c0,2.5-2,4.5-4.5,4.5l0,0l0,0l0,0
			V391.7L394.4,391.7z"/>
		<path id="XMLID_52_" class="st26" d="M394.6,391.3L394.6,391.3c0.6,0,1,0.5,1,1v8.1c0,0.6-0.5,1-1,1l0,0c-0.6,0-1-0.5-1-1v-8.1
			C393.5,391.7,394,391.3,394.6,391.3z"/>
		<rect id="XMLID_51_" x="363.5" y="387.1" class="st26" width="1.3" height="7.4"/>
		<path id="XMLID_50_" class="st27" d="M366.5,401.1L366.5,401.1c-2.5,0-4.5-2-4.5-4.5l0,0v-0.3c0-2.5,2-4.5,4.5-4.5h0l0,0l0,0
			V401.1L366.5,401.1z"/>
		<path id="XMLID_49_" class="st26" d="M366.4,401.5L366.4,401.5c-0.6,0-1-0.5-1-1v-8.1c0-0.6,0.5-1,1-1l0,0c0.6,0,1,0.5,1,1v8.1
			C367.4,401.1,367,401.5,366.4,401.5z"/>
		<path id="XMLID_48_" class="st27" d="M396,379c-1.8-3.7-5.7-8.1-14-8.5l0,0l-0.1,0l0,0l0,0l-3,0.1l0,0c-8.3,0.4-12.2,4.8-14,8.4
			c-1.2,2.5-1.8,5.2-1.8,7.9l1,0l1,0c0-2.4,0.6-4.8,1.7-7c2.3-4.6,6.4-7,12.4-7.2l0,0l2.6-0.1l0,0c5.9,0.2,10.1,2.7,12.4,7.2
			c1.1,2.2,1.6,4.6,1.7,7l1,0l1,0C397.8,384.2,397.2,381.5,396,379z"/>
		<rect id="XMLID_47_" x="303.1" y="464.6" class="st28" width="139.7" height="37.1"/>
		<rect id="XMLID_46_" x="303.1" y="467.1" class="st12" width="139.7" height="4.8"/>
		<rect id="XMLID_45_" x="293.7" y="464" class="st28" width="158.5" height="4.8"/>
		<path id="XMLID_44_" class="st10" d="M402.2,452.1c0,0,6,10.8,20.9,7.9c15-3,7.7,27.3,7.7,27.3s-2.4,14.5-0.7,14.4"/>
	</g>
	<g id="XMLID_1_">
		<path id="XMLID_43_" class="st29" d="M256.5,622.3v-10.9h-1.8v10.9c-1.2,0.5-1.8,1.8-1.3,2.9s1.9,1.7,3.1,1.3
			c1.2-0.5,1.8-1.8,1.3-2.9C257.6,623,257.1,622.6,256.5,622.3z"/>
		<path id="XMLID_42_" class="st29" d="M260.6,732.6h-12.1v-141h-4.7v141h-12.1c-6.1,0-11,4.7-11,10.5l0,0v0h50.9v0
			C271.6,737.3,266.7,732.6,260.6,732.6L260.6,732.6z"/>
		<path id="XMLID_41_" class="st30" d="M220.7,612.6h50.9l-3.1-37.2c-0.2-2.7-2.6-4.7-5.3-4.7h-34c-2.8,0-5.1,2.1-5.3,4.7
			L220.7,612.6z"/>
		<path id="XMLID_40_" class="st31" d="M19.1,700.2h155.3V685c0-40.9-34.8-74.3-77.7-74.3S19.1,644.1,19.1,685V700.2z"/>
		<path id="XMLID_39_" class="st32" d="M19.1,700.2h155.3V685c0-40.9-34.8-74.3-77.7-74.3S19.1,644.1,19.1,685V700.2z"/>
		<path id="XMLID_38_" class="st30" d="M39.2,705.4h119.5c-0.2-12.5-10.9-22.5-24-22.5H63.2C50.1,682.9,39.5,692.9,39.2,705.4z"/>
		<ellipse id="XMLID_37_" class="st33" cx="25" cy="680.2" rx="24" ry="22.9"/>
		<ellipse id="XMLID_36_" class="st33" cx="170.5" cy="680.2" rx="24" ry="22.9"/>
		<path id="XMLID_35_" class="st33" d="M152.5,691.8v8.6H41.7v-8.6H16.9v41.7c0,5.3,4.5,9.6,10.1,9.6l0,0h140.3
			c5.6,0,10.1-4.3,10.1-9.6c0,0,0,0,0,0v-41.7H152.5z"/>
		<ellipse id="XMLID_34_" class="st34" cx="25" cy="680.2" rx="4.9" ry="4.7"/>
		<ellipse id="XMLID_33_" class="st34" cx="170.5" cy="680.2" rx="4.9" ry="4.7"/>
		<path id="XMLID_32_" class="st35" d="M105.6,608.2c0,0,0.5,8.7,3.8,10.5c3.4,1.8,0,14.2,0,14.2l-15.8,0.5l-1-14.7c0,0,1.9-6,1-8.7
			C92.6,607.2,105.6,608.2,105.6,608.2z"/>
		<polygon id="XMLID_31_" class="st35" points="123.3,729.2 117.6,735.7 126.7,743.9 131.5,734.7 		"/>
		<polygon id="XMLID_30_" class="st35" points="82.6,729.2 88.3,735.7 79.2,743.9 74.4,734.7 		"/>
		<path id="XMLID_29_" class="st7" d="M120.2,668.5c0,0,34.5,11,32.6,21.6c-1.9,10.5-16.8,47.7-16.8,47.7s-8.2,0-14.4-8.3l4.3-9.2
			c0,0-1.9-5,1.4-6s5.3-17,5.3-17s-24.5-1.8-29.7-10.5l-9.6-22L120.2,668.5z"/>
		<path id="XMLID_28_" class="st7" d="M85.7,668.5c0,0-34.5,11-32.6,21.6c1.9,10.5,16.8,47.7,16.8,47.7s8.2,0,14.4-8.3l-4.3-9.2
			c0,0,1.9-5-1.4-6c-3.4-0.9-5.3-17-5.3-17s24.5-1.8,29.7-10.5l9.6-22L85.7,668.5z"/>
		<path id="XMLID_27_" class="st7" d="M125,740.5c0,0,4.8-4.1,5.3-0.9c0.5,3.2-0.5,16.1-0.5,16.1s4.8,9.6-2.4,9.6
			c-7.2,0-10.6-7.3-9.6-14.7s-3.4-10.1-3.4-10.1s-5.3-10.1,0-11c5.3-0.9,7.2,1.4,7.2,1.4S119.7,739.1,125,740.5z"/>
		<path id="XMLID_26_" class="st7" d="M80.9,740.5c0,0-4.8-4.1-5.3-0.9s0.5,16.1,0.5,16.1s-4.8,9.6,2.4,9.6s10.6-7.3,9.6-14.7
			c-1-7.3,3.4-10.1,3.4-10.1s5.3-10.1,0-11c-5.3-0.9-7.2,1.4-7.2,1.4S86.2,739.1,80.9,740.5z"/>
		<ellipse id="XMLID_25_" class="st35" cx="98.2" cy="602.9" rx="11" ry="10.5"/>
		<path id="XMLID_24_" class="st36" d="M99.8,621l-6.7-5l-16.3,7.3L76.3,665c0,0-10.1,4.6-7.2,10.5c0,0,8.6,1.8,12.5,5.5
			c3.8,3.7,25.4-1.4,34.5-4.1s11.5-6,11.5-6l-9.1-12.4l5.3-31.6l-16.3-10.5L99.8,621z"/>
		<path id="XMLID_23_" class="st7" d="M111.6,595.7c-0.2-0.3-0.5-0.6-0.7-1c-0.3-0.8,0.2-1.7-0.3-2.5c-0.5-0.8-1.8-0.9-2.7-1.4
			c-1.4-0.8-1.6-2.4-2.9-3.2c-0.9-0.6-2.2-0.8-3.5-0.8c-1.2,0-2.5,0.2-3.7,0.3c-1.7,0-3.3-0.3-4.8-0.9l0.9,1.7c-1-0.2-2-0.6-2.9-1.1
			c-0.4,0.5,0.3,1.2-0.1,1.7c-0.2,0.1-0.4,0.2-0.6,0.3c-1.8,0.5-3.4,1.3-4.9,2.3c-0.3,0.2-0.6,0.5-0.8,0.8c-0.2,0.5,0,1.1,0,1.6
			c0,1-0.8,1.8-1.4,2.7c-0.6,0.9-0.9,2,0,2.8c0.2,0.2,0.4,0.3,0.6,0.5c0.8,0.9-0.6,2.3,0.1,3.3c0.3,0.4,0.9,0.6,1.5,0.9
			c1,0.5,1.9,1.2,2.5,2.1l-0.4-3c0-0.1,0-0.3,0.1-0.4c0.2-0.2,0.6-0.1,0.9-0.3c0.3-0.1,0.3-0.5,0.3-0.8l-0.1-2.1
			c0-1-0.1-1.1,0.7-1.9c0.5-0.5,1.3-0.9,2.2-1.1c1.9-0.6,3.9-0.7,5.9-0.9c2.3-0.2,4.9-1.3,6.7-0.2c1.5,0.9,2,2.5,2.7,3.8
			c0.6,1.2,2.3,4.8,3.6,2.9C111.1,600.5,112.4,597.1,111.6,595.7z"/>
		<path id="XMLID_22_" class="st31" d="M100,599.8c-0.1,0-0.2,0.1-0.2,0.2v4.4c0,0.1,0.1,0.2,0.2,0.2h8c0.1,0,0.2-0.1,0.2-0.2V600
			c0-0.1-0.1-0.2-0.2-0.2H100z"/>
		<path id="XMLID_21_" class="st37" d="M100.9,600.2c-0.2,0-0.3,0.1-0.3,0.3v3.4c0,0.2,0.1,0.3,0.3,0.3h6.2c0.2,0,0.3-0.1,0.3-0.3
			v-3.4c0-0.2-0.1-0.3-0.3-0.3H100.9z"/>
		<rect id="XMLID_20_" x="96" y="601.3" class="st31" width="4.1" height="0.9"/>
		<path id="XMLID_19_" class="st31" d="M88.8,599.8c-0.1,0-0.2,0.1-0.2,0.2v4.4c0,0.1,0.1,0.2,0.2,0.2h8c0.1,0,0.2-0.1,0.2-0.2V600
			c0-0.1-0.1-0.2-0.2-0.2H88.8z"/>
		<path id="XMLID_18_" class="st38" d="M89.7,600.2c-0.2,0-0.3,0.1-0.3,0.3v3.4c0,0.2,0.1,0.3,0.3,0.3h6.2c0.2,0,0.3-0.1,0.3-0.3
			v-3.4c0-0.2-0.1-0.3-0.3-0.3H89.7z"/>
		<path id="XMLID_17_" class="st31" d="M84.4,655H112c2.3,0,4.1,1.8,4.1,4l0,0l0,0H80.3l0,0l0,0C80.3,656.7,82.2,655,84.4,655z"/>
		<path id="XMLID_57_" class="st39" d="M113.9,654.7c-0.2,0-0.3,0-0.5,0.1c-0.1-0.5-0.6-0.7-1.1-0.6c-0.4,0.1-0.7,0.4-0.7,0.8
			c0,0,0,0,0,0c-0.1,0-0.2,0-0.3,0.1c-0.1-0.2-0.2-0.4-0.4-0.5c0.3-0.2,0.5-0.4,0.6-0.7c0.7,0.1,1.2-0.4,1.3-1
			c0.1-0.6-0.4-1.2-1.1-1.2c-0.1,0-0.2,0-0.3,0c-0.2,0-0.3,0-0.5,0.1c-0.1-0.5-0.6-0.7-1.1-0.6c-0.5,0.1-0.8,0.6-0.7,1
			c0,0,0,0,0,0.1c0,0-0.1,0.1-0.1,0.1c-0.2-0.1-0.4-0.2-0.6-0.2c-0.3-0.7-1.1-1.1-1.9-0.9c-0.6,0.2-1,0.7-1,1.3
			c-0.1,0-0.2,0-0.3,0.1c0,0,0-0.1-0.1-0.1c0.2-0.2,0.4-0.5,0.4-0.8c0-0.7-0.6-1.2-1.3-1.1c-0.2,0-0.3,0-0.5,0.1
			c-0.1-0.5-0.6-0.7-1.1-0.6c-0.5,0.1-0.8,0.6-0.7,1c0,0,0,0,0,0.1c-0.4,0.3-0.6,0.7-0.6,1.1c0,0,0,0,0,0c0-0.1,0-0.2,0-0.2
			c0-0.7-0.6-1.2-1.3-1.1c-0.2,0-0.3,0-0.5,0.1c-0.1-0.5-0.6-0.7-1.1-0.6c-0.5,0.1-0.8,0.6-0.7,1c0,0,0,0,0,0.1
			c-0.7,0.4-0.8,1.3-0.4,2c0.1,0.1,0.2,0.3,0.4,0.4c-0.1,0.2-0.1,0.3,0,0.5c-0.1,0.1-0.3,0.2-0.4,0.4c-0.1-0.4-0.6-0.7-1.1-0.6
			c-0.4,0.1-0.6,0.4-0.6,0.7c-0.1-0.1-0.2-0.1-0.4-0.1c0.2-0.2,0.4-0.4,0.5-0.6c0.7,0.1,1.2-0.4,1.3-1c0.1-0.6-0.4-1.2-1.1-1.2
			c-0.1,0-0.2,0-0.3,0c-0.2,0-0.3,0-0.5,0.1c-0.1-0.5-0.6-0.7-1.1-0.6c-0.5,0.1-0.8,0.6-0.7,1c0,0,0,0,0,0.1c0,0,0,0-0.1,0
			c0,0-0.1,0-0.1,0c-0.2,0-0.3,0-0.5,0.1c0,0,0,0,0-0.1c0.1-0.5-0.2-0.9-0.7-1c-0.1,0-0.2,0-0.2,0c-0.3-0.7-1.1-1.1-1.9-0.9
			c-0.8,0.3-1.2,1.1-0.9,1.8c0.1,0.2,0.3,0.5,0.5,0.6c-0.1,0-0.2,0-0.3,0.1c-0.1-0.5-0.6-0.7-1.1-0.6c-0.1,0-0.2,0.1-0.3,0.2
			c-0.3-0.3-0.7-0.5-1.1-0.5c-0.2,0-0.3,0-0.5,0.1c-0.1-0.5-0.6-0.7-1.1-0.6c-0.5,0.1-0.8,0.6-0.7,1c0,0,0,0,0,0.1
			c-0.4,0.3-0.6,0.7-0.6,1.2c0,0,0,0,0,0c-0.2,0-0.4,0-0.6,0.1c-0.1-0.5-0.6-0.7-1.1-0.6c-0.5,0.1-0.8,0.6-0.7,1c0,0,0,0,0,0.1
			c-0.7,0.4-0.9,1.3-0.4,2c0.3,0.5,1,0.7,1.6,0.6c0.1,0.8,0.9,1.3,1.7,1.1c0.5-0.1,0.9-0.4,1.1-0.8c1.1,0.1,2.1,0.1,3.2-0.1
			c0.3,0.7,1.1,1.1,1.9,0.9c0.4-0.1,0.7-0.4,0.9-0.8c0.2,0,0.4-0.1,0.6-0.1c0.4,0.7,1.3,0.9,2,0.5c0.3-0.2,0.5-0.4,0.6-0.7
			c0.7-0.1,1.4,0.2,1.6,0.9c0.4-0.5,1-0.9,1.7-0.9c0.6,0.2,1.3-0.1,1.6-0.6c-0.2,0.8,0.3,1.5,1.1,1.7c0.7,0.2,1.4-0.2,1.7-0.8
			c0.2,0,0.4-0.1,0.6-0.1c0.4,0.7,1.3,0.9,2,0.5c0.3-0.2,0.5-0.4,0.6-0.7c0.2,0,0.4-0.1,0.6-0.1c0.4,0.7,1.3,0.9,2,0.5
			c0.1,0,0.1-0.1,0.2-0.1c0.1,0.8,0.9,1.3,1.7,1.1c0.4-0.1,0.7-0.3,0.9-0.6c0.6,0.5,1.6,0.4,2.1-0.3c0.1-0.1,0.1-0.2,0.2-0.3
			c0.7,0.1,1.2-0.4,1.3-1c0.1-0.6-0.4-1.2-1.1-1.2C114.1,654.7,114,654.7,113.9,654.7L113.9,654.7z M87.4,654.1
			C87.4,654.1,87.4,654.1,87.4,654.1C87.4,654.1,87.4,654.1,87.4,654.1c-0.1,0-0.1,0-0.2,0c0,0,0,0,0,0
			C87.3,654.1,87.4,654.1,87.4,654.1z M99.8,653.6C99.8,653.6,99.8,653.6,99.8,653.6c0.2-0.2,0.4-0.4,0.5-0.6c0.4,0,0.8-0.2,1-0.4
			c0,0.1,0,0.1,0,0.2c0,0.1,0,0.2,0,0.3c-0.3,0.2-0.4,0.4-0.6,0.7C100.5,653.5,100.1,653.5,99.8,653.6L99.8,653.6z M108.7,653.7
			C108.7,653.7,108.7,653.7,108.7,653.7c0-0.1,0.1-0.1,0.1-0.1c0.1,0.2,0.2,0.4,0.3,0.5c0,0-0.1,0-0.1,0
			C108.9,654,108.8,653.8,108.7,653.7z"/>
		<path id="XMLID_12_" class="st31" d="M83.3,656.4c-1.7,0-3.1,1.3-3.1,3c0,0.1,0,0.1,0,0.2l2,26.4c0.1,1.6,1.4,2.8,3.1,2.8h25.9
			c1.6,0,3-1.2,3.1-2.8l2-26.4c0.1-1.6-1.2-3-2.9-3.1c-0.1,0-0.1,0-0.2,0H83.3z"/>
		<rect id="XMLID_11_" x="84.7" y="656.4" class="st38" width="1.8" height="32.3"/>
		<rect id="XMLID_10_" x="89.8" y="656.4" class="st38" width="1.8" height="32.3"/>
		<rect id="XMLID_9_" x="94.8" y="656.4" class="st38" width="1.8" height="32.3"/>
		<rect id="XMLID_8_" x="99.8" y="656.4" class="st38" width="1.8" height="32.3"/>
		<rect id="XMLID_7_" x="104.9" y="656.4" class="st38" width="1.8" height="32.3"/>
		<rect id="XMLID_6_" x="109.9" y="656.4" class="st38" width="1.8" height="32.3"/>
		<path id="XMLID_5_" class="st35" d="M109.9,672.4l-5.8,3.2c0,0-13.9,11-4.3,12.8s12-7.8,12-7.8l3.4-3.7L109.9,672.4z"/>
		<path id="XMLID_4_" class="st35" d="M82.6,670.1l5.8,3.2c0,0,13.9,11,4.3,12.8s-12-7.8-12-7.8l-3.4-3.7L82.6,670.1z"/>
		<path id="XMLID_3_" class="st36" d="M117.6,626.5l6.2,0.5c0,0,4.8,4.1,4.3,9.6c0,0,4.3,11.9,3.4,17c0,0,1,8.3-0.5,11.5
			c-1.4,3.2-13.4,15.6-13.4,15.6s-11-8.3-10.6-8.7l14.4-13.8l-7.2-9.2L117.6,626.5z"/>
		<path id="XMLID_2_" class="st36" d="M76.8,623.3l-0.2,0.2c0,0-10.8,4.4-10.3,9.9c0,0-4.3,11.9-3.4,17c0,0-1,8.3,0.5,11.5
			c1.4,3.2,13.4,15.6,13.4,15.6s11-8.3,10.6-8.7L73,654.9l7.2-9.2L76.8,623.3z"/>
	</g>
	<g id="XMLID_86_">
		<ellipse id="XMLID_339_" class="st40" cx="182.6" cy="298.8" rx="31.2" ry="6.2"/>
		
			<linearGradient id="XMLID_368_" gradientUnits="userSpaceOnUse" x1="885.4243" y1="178.3817" x2="885.4243" y2="255.8867" gradientTransform="matrix(-1 0 0 -1 962.856 484.2641)">
			<stop  offset="0" style="stop-color:#818181;stop-opacity:0.25"/>
			<stop  offset="0.54" style="stop-color:#818181;stop-opacity:0.12"/>
			<stop  offset="1" style="stop-color:#818181;stop-opacity:0.1"/>
		</linearGradient>
		<path id="XMLID_335_" class="st41" d="M64.9,249.5c0.1,0.2,0.2,0.5,0.3,0.7v0c0,0,1.5,5.4,2.2,6.5c0.2,0.3,0.4,0.7,0.7,1
			c0,0.3,0,0.5,0,0.8c0.2,1.2,0.5,2.9,0.3,3.2c-0.1,0.4,0.1,1.3-0.3,1.6s-0.8,0.9,0.4,1.6c0,0,0.2,0.6,0,0.7c0,0,0,0,0.1,0.1
			c-0.3,1-0.8,2.6-0.5,2.7c0.2,0.1,0.6-0.2,1.1-0.5c0,0.1,0,0.1,0,0.2c0.1,0.5,0.2,1.1,0.4,1.6c0.2,0.5,0.4,1.3,0.3,1.6
			s0.3,0.9,0.2,1.1c-0.1,0.2,0.3,1,0.3,1s0.4,1.5,0.4,2s0.5,3.8,0.5,3.8s-0.5,1.7-0.3,2.2s0.4,2.2,0,2.8s-1,2-0.8,2.4
			c0.2,0.4-0.2,5,0.8,6.9c0.1,0.7,0.2,1.4,0.3,2.1c0,0.5,0.8,1.9,0.8,1.9s-0.5,2.1,0.7,2.4c0.1,0,0.2,0,0.3,0c0,0.2,0,0.5-0.1,0.7
			c-0.2,0.3-0.4,0.6-0.4,1l0,0c0,0.1,0,0.1,0,0.2c0.1,0.2,0.5,2.2,0.5,2.2s0.6,2.3,3.6,1.7c0,0,2.1-0.1,1.9-0.8
			c-0.1-0.2-0.1-0.5-0.2-0.7c-0.1-0.1-0.1-0.3-0.2-0.4c0-0.2-0.5-0.6-0.5-1c0-0.3-0.3-1-0.3-1.2c0-0.2-0.5-1.7-0.5-2
			c0-0.2-0.1-0.4-0.2-0.7L77,299c0,0,0.3-1.5,0-2.1s-1.2-1.3-1.2-1.3s0.1-3.8,0-4.3c-0.2-0.5,0.1-2.4,0.1-2.4s0.6-2.7,0.6-3.4
			c0-0.4,0-0.8,0.2-1.1c0,0,0.4-4,0.6-4.5s0.5-5.5,0.5-5.5l0.2,0.5c0.2,0.7,0.5,1.4,0.8,2c0.1,0.2,0.5,0.9,0.9,1.4l0.5,0.8
			c0,0,0.2,0.8,0.1,1.3c-0.2,0.5,1.6,3.1,1.6,3.1c-0.1,0.2-0.2,0.5-0.2,0.7c0,0.3-0.5,1.1-0.5,1.1s-0.2,0.7-0.1,1
			c0.1,0.3-0.2,1.8-0.2,1.8s-0.6,3.3-0.7,3.7c-0.1,0.4,0.1,3.1,0.1,3.1s-1.1,2.7-0.6,3.7c0,0.3,0,0.9-0.1,1.1
			c-0.2,0.3-0.1,1.3-0.1,1.6c0,0,0,0.1,0,0.1s-0.6,0.8,0.2,1.1c0.7,0.3,3.3,0.5,3.3,0.5s2.4,0.7,3.6,0.9s3.6,0.1,3.8-0.6
			c0.1-0.2,0.1-0.4,0.1-0.7c0-0.3-0.2-0.5-0.5-0.7c-0.7-0.3-1.4-0.5-2.2-0.7c0,0-1.1-0.3-1.2-0.7c-0.1-0.5-1.7-1.9-1.7-1.9
			s0-0.1-0.1-0.2h0.1l-0.1-0.1c-0.1-0.3-0.2-0.6-0.4-0.5l0,0c-0.1-0.2,0-0.4,0.2-0.5c0,0,0,0,0,0c0.6-0.3,1-1.4,0.8-2.6
			c-0.2-1.2-0.2-1,0.2-1.6c0.2-0.5,0.3-1.1,0.3-1.6l1-3.5c0.2-0.4,0.2-0.9,0.3-1.3c0-0.4,0.1-0.7,0.3-1c0,0,0.4-2.4,0.8-3
			c0.4-0.6-0.3-2.5-0.3-2.5s-0.6-3.1-0.6-4.5s-1.5-6.2-1.5-6.2c-0.2-0.3-0.3-0.7-0.2-1.1c0-0.3-0.2-0.8-0.4-1.2l-0.1-0.1
			c0.1-0.1,0.2-0.2,0.3-0.3c0.4-0.3,0.6-0.9,0.6-1.4l-5.9-13.7c0,0,2.7-5.6,2.7-5.6c-0.2-0.9-1.7-3.3-1.7-3.3l0,0c0,0,0-0.1-0.1-0.1
			c-0.3-0.2-1.5-0.8-1.5-0.8c-0.9-1.1-1.8-1.4-2.3-1.3c-0.2,0-0.4,0-0.5,0.1c-0.1,0-0.1,0-0.2,0.1l0,0.2c0-0.5,0-1,0.1-1.5
			c0,0,0-0.1,0-0.1c0.1,0,0.2,0,0.3,0c2.3,0,4.2-1.8,4.2-4.1c0,0,0,0,0,0c0-0.4-0.1-0.8-0.2-1.1l0-0.1l0.1-0.1
			c0.5-0.2,1.2,0.1,1.6-0.2c0.2-0.2,0.3-0.3,0.3-0.5c0.1-0.3,0.2-0.6,0.2-0.9c0-0.1,0-0.1,0-0.2c0,0,0,0,0,0c0,0,0,0,0-0.1
			c0,0,0,0,0-0.1c0,0,0,0,0,0c0-0.2-0.1-0.4-0.2-0.5c-0.3-0.3-0.7-0.4-1.1-0.6c-0.3-0.2-0.5-0.5-0.7-0.8c-0.2-0.3-0.4-0.6-0.7-0.8
			c-0.3-0.2-0.7-0.3-1-0.2c-0.1,0.1-0.2,0.1-0.3,0.2c-0.1,0-0.3,0-0.4-0.1c-1.2-0.6-2.6-0.5-3.9-0.3c-0.5,0-1.1,0.2-1.5,0.4
			c-0.5,0.2-0.9,0.6-1,1.1c-0.1,0.4,0,0.8-0.2,1.2c-0.1,0.3-0.3,0.5-0.4,0.8c-0.1,0.1-0.1,0.3-0.1,0.4l0,0c0,0,0,0,0,0
			c0,0.6,0.2,1.2,0.3,1.8c0.2,0.8,0.1,1.7,0.4,2.5c0,0.1,0.1,0.2,0.1,0.3c-0.1,0.3-0.3,0.5-0.4,0.8c-0.2-0.1-0.8-0.2-0.8,0.3
			c0,0.4-0.1,0.8-0.3,1.2c0,0-0.1,0-0.1,0.1c-0.1,0-0.1,0.1-0.1,0.2l0,0l-0.1,0.1c0,0-0.1,0-0.1,0c0-0.1-0.2-0.1-0.5,0.4
			c-0.5,0.5-1.1,1-1.7,1.3c0,0-2.6,1.8-2.7,2.6C65.3,244.7,64.4,248.3,64.9,249.5z M76.1,240.8C76.1,240.8,76.1,240.8,76.1,240.8
			L76.1,240.8L76.1,240.8z M83.1,298.6c-0.1,0-0.1,0-0.2,0L83.1,298.6z"/>
		<path id="XMLID_334_" class="st42" d="M77.2,305.8c-3,0.6-3.6-1.7-3.6-1.7s-0.4-2-0.5-2.2c0-0.1,0-0.1,0-0.2l0,0
			c0.1-0.3,0.2-0.7,0.4-1c0.2-0.2,0-1.1,0-1.1l3.5-0.9c0.1,0.3,0.3,0.7,0.3,1c0,0.3,0.5,1.8,0.5,2s0.2,0.8,0.3,1.2
			c0,0.3,0.5,0.8,0.5,1c0.1,0.2,0.1,0.3,0.2,0.4c0.1,0.2,0.2,0.5,0.2,0.7C79.2,305.7,77.2,305.8,77.2,305.8z"/>
		<path id="XMLID_333_" class="st12" d="M77.2,305.8c-3,0.6-3.6-1.7-3.6-1.7s-0.4-2-0.5-2.2c0-0.1,0-0.1,0-0.2l0.7,2.1
			c0,0,0.6,1.2,2.8,1c1.3-0.1,1.9-0.3,2.2-0.5c0.1,0.2,0.2,0.5,0.2,0.7C79.2,305.7,77.2,305.8,77.2,305.8z"/>
		<path id="XMLID_332_" class="st12" d="M74.9,302.6c0,0,0.8,0,0.8-0.6L74.9,302.6z"/>
		<path id="XMLID_331_" class="st43" d="M87.9,282.6c-0.4,0.6-0.8,3-0.8,3c-0.2,0.3-0.2,0.7-0.3,1c0,0.5-0.1,0.9-0.3,1.3l-1,3.5
			c0.1,0.5,0,1.1-0.3,1.6c-0.4,0.7-0.3,0.5-0.2,1.6c0.2,1.2-0.2,2.2-0.8,2.6c-0.6,0.3,0.3,1.1,0.3,1.1s-3.9,1-4.8,0.4
			c-0.8-0.6,0.4-3.8,0.4-3.8s-0.2-2.7-0.1-3.1c0.1-0.4,0.7-3.7,0.7-3.7s0.4-1.5,0.2-1.8c-0.1-0.3,0.1-1,0.1-1s0.6-0.8,0.5-1.1
			c0-0.2,0.1-0.5,0.2-0.7c0,0-1.7-2.6-1.6-3.1s-0.1-1.3-0.1-1.3s-0.2-0.4-0.5-0.8c-0.3-0.5-0.7-1.2-0.8-1.4c-0.3-0.7-0.6-1.3-0.8-2
			l-0.2-0.5c0,0-0.3,5-0.5,5.5c-0.3,0.5-0.6,4.5-0.6,4.5c-0.1,0.4-0.2,0.7-0.2,1.1c0,0.6-0.5,3.4-0.5,3.4s-0.3,1.9-0.1,2.4
			c0.2,0.5,0,4.2,0,4.2s0.9,0.7,1.2,1.3s0,2.1,0,2.1s-2.7,1.4-4,1c-1.2-0.4-0.7-2.4-0.7-2.4s-0.8-1.4-0.8-1.9
			c-0.1-0.7-0.2-1.4-0.3-2.1c-1-1.9-0.6-6.5-0.8-6.9c-0.2-0.4,0.4-1.8,0.8-2.4c0.4-0.6,0.3-2.3,0-2.8c-0.3-0.5,0.3-2.2,0.3-2.2
			s-0.5-3.3-0.5-3.8c0-0.5-0.4-2-0.4-2s-0.4-0.8-0.3-1c0.1-0.2-0.3-0.8-0.2-1.1c0.1-0.3-0.1-1.1-0.3-1.6c-0.2-0.5-0.3-1-0.4-1.5
			c-0.1-0.6-0.2-1.1-0.2-1.1l2.8-2.2l7-1.8l2.7-0.9l2.6,4c0,0,0.3,0.4,0.5,0.9c0.2,0.4,0.4,0.9,0.4,1.2c0,0.4,0,0.7,0.2,1
			c0,0,1.5,4.8,1.5,6.2s0.5,4.4,0.5,4.4S88.3,282.1,87.9,282.6z"/>
		<path id="XMLID_330_" class="st12" d="M72.1,285.1c0,0,3-1.3,3.9-0.4S72.1,285.1,72.1,285.1z"/>
		<path id="XMLID_329_" class="st12" d="M73.8,285.6c0,0-3.1,1.7-2,2C72.8,287.9,73.8,285.6,73.8,285.6z"/>
		<path id="XMLID_328_" class="st12" d="M82.9,284.2c0,0-1.3,0.1-0.8,0.3C82.6,284.8,82.9,284.2,82.9,284.2z"/>
		<path id="XMLID_327_" class="st12" d="M84.5,284.6c0,0.1-3.8,1.3-3,1.8S84.5,284.6,84.5,284.6z"/>
		<path id="XMLID_326_" class="st12" d="M72.5,294.9c0.6-0.1,3.7-1.5,2.5-0.5C74.4,295,73.4,295.2,72.5,294.9z"/>
		<path id="XMLID_325_" class="st12" d="M74.1,296c0,0,0.3,1,1.3,0.9C76.5,296.8,74.1,296,74.1,296z"/>
		<path id="XMLID_324_" class="st12" d="M73.2,298.2c0.2-0.1,2.4-1.1,2.5-0.6c0.1,0.5-2.1,1.3-2.3,1
			C73.3,298.5,73.2,298.3,73.2,298.2z"/>
		<path id="XMLID_323_" class="st12" d="M80.5,296.9c0.3,0,2.8-0.8,3.4-0.1L80.5,296.9z"/>
		<path id="XMLID_322_" class="st12" d="M82.8,297.4c0,0,0.4-0.4,0.9-0.2C84.1,297.4,82.8,297.4,82.8,297.4z"/>
		<path id="XMLID_321_" class="st12" d="M77.1,301.6c0.1,0.3,0.3,0.5,0.6,0.6L77.1,301.6z"/>
		<path id="XMLID_320_" class="st44" d="M90.2,303.2c-0.2,0.7-2.6,0.8-3.7,0.6c-1.1-0.2-3.5-0.9-3.5-0.9s-2.5-0.2-3.2-0.5
			c-0.7-0.3-0.2-1.1-0.2-1.1s0,0,0-0.1c0-0.3-0.1-1.3,0.1-1.6c0.2-0.3,0.1-1.4,0.1-1.4s3.5,0.7,3.6,0.4c0.1-0.3,0.6-0.8,0.9-0.9
			c0.3-0.1,0.4,0.8,0.4,0.8s1.6,1.4,1.7,1.8c0.1,0.5,1.2,0.7,1.2,0.7c0.7,0.2,1.5,0.4,2.2,0.7c0.3,0.1,0.4,0.4,0.5,0.7
			C90.3,302.8,90.2,303,90.2,303.2z"/>
		<path id="XMLID_319_" class="st42" d="M90.2,303.2c-0.2,0.7-2.6,0.8-3.7,0.6c-1.1-0.2-3.5-0.9-3.5-0.9s-2.5-0.2-3.2-0.5
			c-0.7-0.3-0.2-1.1-0.2-1.1s0,0,0-0.1l3.6,0.8c0,0,1.8,0.7,2.9,0.7c1,0,3.2,0.4,4.2-0.2C90.3,302.8,90.2,303,90.2,303.2z"/>
		<path id="XMLID_318_" class="st12" d="M85.3,300.5c0,0-0.2,1.1-0.9,1.5L85.3,300.5z"/>
		<path id="XMLID_317_" class="st45" d="M96.3,259.5c-1,0.4-3.4,0.4-4.4,0.4c-0.3,0-0.5,0-0.5,0l-0.7-1.4l0.7-1.1
			c0,0,0.6-0.2,1.4-0.3c1.2-0.2,2.9-0.4,3.7,0.1C97.8,258,97.6,259,96.3,259.5z"/>
		<path id="XMLID_316_" class="st42" d="M80.7,243.3l0.3-0.3c0,0,1.5,2.4,1.7,3.3s0.4,1.9,0.4,1.9s0.4,1.2,0.6,1.7
			c0.2,0.4,0.4,0.8,0.5,1.2c0,0.2-0.1,0.7,0.4,1s0.6,1.2,0.6,1.2s1.7,1.7,2.6,1.7c0.9,0,3.5,0.5,3.4,0.9c-0.1,0.4,1.1,0.7,1.6,0.8
			c0.5,0.1-3.1,1.5-1,3.2c0,0-1.3,0.3-1.5,0.6c-0.1,0.3-1.5-0.2-1.5-0.2s-0.3-0.7-1.3-0.7s-1.6-0.5-1.6-0.6s-1-0.6-1.6-0.8
			c-0.6-0.2-1.3-0.2-1.3-0.4c0-0.2-3.4-14.6-3.4-14.6L80.7,243.3z"/>
		<path id="XMLID_314_" class="st40" d="M115.6,304.6c17.2,0,31.2,2.8,31.2,6.2c0,3.4-14,6.2-31.2,6.2s-31.2-2.8-31.2-6.2"/>
		<polygon id="XMLID_313_" class="st46" points="104.8,176.2 109.2,177 103.7,209.3 99.3,208.6 		"/>
		<polygon id="XMLID_312_" class="st47" points="114.4,306.7 115.4,313.6 116.2,306.4 		"/>
		<polygon id="XMLID_311_" class="st31" points="83.1,302.8 83.1,307.1 84,310.8 84.7,310.8 85.6,306.8 86,302 		"/>
		<path id="XMLID_310_" class="st47" d="M81.1,286.2l2.1,0.4c0,0-2.4,6.5-0.7,7.8h-2.6C79.8,294.4,78.8,289.5,81.1,286.2z"/>
		<path id="XMLID_309_" class="st43" d="M81.1,286.2l2.1,0.4c0,0-2.4,6.5-0.7,7.8h-2.6C79.8,294.4,78.8,289.5,81.1,286.2z"/>
		<path id="XMLID_308_" class="st47" d="M95,208.3l-6.7,41.9c0,0-9.9,44.6-6.1,53.4H87l14.2-85.7L95,208.3z"/>
		<path id="XMLID_307_" class="st47" d="M112,203.1l5.1,42.1c0,0,3.7,53.6-0.4,62.3h-4l-7.2-95L112,203.1z"/>
		<path id="XMLID_306_" class="st46" d="M94.4,193c0.7-2.4,2.9-3.9,5.4-3.9c4.1,0.1,10.5,0.8,13.8,4.2c5.2,5.2-3.5,22.9-3.5,22.9
			s-8.1,14.7-15.5-4C94.7,212.3,91.6,202.2,94.4,193z"/>
		<path id="XMLID_304_" class="st48" d="M97.3,196.6c0.5-1.7,2.1-2.8,3.8-2.7c2.9,0.1,7.5,0.6,9.8,3c3.7,3.7-2.5,16.3-2.5,16.3
			s-5.7,10.5-11-2.8C97.5,210.3,95.3,203.2,97.3,196.6z"/>
		
			<linearGradient id="XMLID_369_" gradientUnits="userSpaceOnUse" x1="1030.6007" y1="194.002" x2="1053.4349" y2="194.002" gradientTransform="matrix(-1 0 0 -1 1164.9459 484.2641)">
			<stop  offset="0" style="stop-color:#818181;stop-opacity:0.25"/>
			<stop  offset="0.54" style="stop-color:#818181;stop-opacity:0.12"/>
			<stop  offset="1" style="stop-color:#818181;stop-opacity:0.1"/>
		</linearGradient>
		<path id="XMLID_301_" class="st49" d="M111.5,303.9c0,0.7,0.1,1.4,0.6,1.9c0.7,0.9,2,0.9,3.1,1.2c0.8,0.2,1.7,0.6,2.4,0.9l2.4,1.1
			c-0.6,0-1.2,0.2-1.8,0.4c-0.3,0.1-0.6,0.3-0.7,0.6c0,0.3,0.1,0.5,0.4,0.6c0.2,0.1,0.5,0.1,0.8,0.1c1.4,0,2.8,0,4.2-0.2l0.2,0
			c0.7,0.4,1.4,0.7,2.2,1.1c0.3,0.2,0.7,0,0.9-0.2c0.3-0.3,0.6-0.6,0.8-0.9c0,0.1,0.1,0.1,0.1,0.2c0.2,0.4,0.4,1,0.1,1.4
			c-0.3,0.3-0.8,0.3-0.9,0.7c-0.1,0.3,0,0.5,0.2,0.7c0.2,0.1,0.5,0.2,0.8,0.3c0.6,0.1,1.3,0.1,1.9,0c0.3,0,0.7-0.2,0.9-0.4
			c0.2-0.3,0.3-0.7,0.3-1l0.4-5c0-0.2,0-0.5-0.1-0.7c-0.2-0.4-0.7-0.6-1.2-0.7h0c0.4,0,0.8,0,1.2,0c0.4,0,0.7,0,1.1-0.1
			c0.7-0.3,1-0.9,1.3-1.6c0.5-1.1,1.1-2.3,1-3.6l-0.2-0.1c0-1.3-0.6-2.5-0.8-3.8c0.2-0.3,0.3-0.7,0.3-1.2c0-0.5-0.1-0.9-0.3-1.3
			c-0.8-2.4-1.7-4.9-2.8-7.2c-0.7-1.5-1.6-3-2.6-4.4c-0.3-0.3-0.5-0.7-0.8-1c-0.2-0.2-0.7-0.6-0.8-0.9s0.1-0.6,0-0.9
			c0-0.1-0.1-0.2-0.1-0.2c0.6-0.8,0.4-2,0.2-3l-0.3-1.2c-0.1-0.3-0.2-0.7-0.3-1c-0.2-0.3-0.4-0.5-0.6-0.7c-1.3-1.1-2.9-1.9-4.3-2.9
			c-1.5-1-2.9-2.2-4.3-3.4c-0.4-0.4-0.9-0.8-1.5-0.6c-0.5,0.2-0.8,0.7-0.8,1.3c0,0.7,0.3,1.4,0.8,1.9c0.9,0.9,2.4,0.9,3.5,1.5
			c0.4,0.2,0.8,0.5,1.1,0.8l3.3,2.5c0.2,0.1,0.4,0.4,0.5,0.7c0,0.2,0,0.3-0.1,0.5c-0.1,0.4-0.3,0.8-0.5,1.3l-0.3-0.2
			c-0.5-0.4-1.1-0.7-1.7-1c-0.8-0.3-1.7-0.5-2.5-0.6c-1.9-0.2-3.7,0.1-4.8,1.7c-0.2,0.4-0.6,0.7-0.9,0.9c-0.3,0.1-0.5,0.3-0.7,0.5
			c-0.6,0.7-0.3,1.8,0.3,2.3c0.5,0.4,1.1,0.7,1.7,0.9c0.7,1.6,2.6,2.4,4.3,1.9c0,0.3,0,0.7,0,1c0,0.3,0.1,0.7,0.4,0.9
			c0.1,0.1,0.3,0.2,0.4,0.2c0.6,0.2,1.1,0.5,1.6,0.8c-0.6,0.6-1.1,1.3-1.4,2.1c-0.5,1-0.4,2.3,0.3,3.2l0,0c0,0.2-0.1,0.3-0.2,0.4
			c-0.3,0.3-0.8,0.2-1.1-0.1c-0.2-0.3-0.4-0.6-0.6-0.9c-0.5-0.8-1.4-1.4-2.3-1.6c-0.4-0.1-0.7-0.1-1.1,0c-0.4,0.1-0.6,0.4-0.6,0.8
			c0,0.4,0.3,0.7,0.6,1c0.9,0.9,1.8,1.7,2.9,2.3c0.3,0.2,0.6,0.3,0.9,0.5c-0.5-0.1-1-0.2-1.5-0.3c-0.7-0.2-1.4-0.2-2.2-0.2
			c-0.7,0.1-1.4,0.4-1.8,1.1c-0.3,0.5-0.3,1.2-0.2,1.8c0.2,0.6,0.5,1.1,0.8,1.6c0.5,0.9,1.2,1.7,2,2.5c-0.7,0.2-1.3,0.4-1.9,0.6
			s-1.3,0.5-1.6,1.1C111.5,303,111.5,303.4,111.5,303.9z M121.1,295.1L121.1,295.1c0.2-0.1,0.3-0.2,0.4-0.3c0.4-0.5,0.7-1.1,0.8-1.8
			c0.2,0,0.3-0.1,0.4-0.1c-0.2,0.2-0.3,0.4-0.3,0.7l1.5,0.7c0.1,0,0.2,0.1,0.3,0.2c0,0.1,0.1,0.2,0,0.3c0,0.3-0.1,0.7-0.1,1
			c-0.4-0.1-0.9-0.2-1.3-0.3C122.3,295.4,121.7,295.3,121.1,295.1L121.1,295.1z"/>
		<path id="XMLID_300_" class="st50" d="M121.4,281.4c0.7,0.2,1.5,0.1,2.2-0.3c0.1-0.1,0.3-0.2,0.4-0.2c0.3,0,0.5,0.1,0.7,0.3
			c0.6,0.6,0.7,1.6,0.4,2.4c-0.3,0.8-1,1.5-1.7,2c-0.6,0.4-1.1,0.9-1.7,1.2c-0.3-0.8-1-1.4-1.8-1.7c-0.7-0.3-1.2-1-1.6-1.6
			c-0.3-0.5-0.6-0.5-0.3-0.9c0.3-0.5,0.7-0.9,1.1-1.3c0.2-0.2,0.4-0.5,0.6-0.8c0.2-0.3,0.1-0.5,0.4-0.3c0.2,0.2,0.3,0.5,0.5,0.7
			C120.8,281.1,121.1,281.3,121.4,281.4z"/>
		<path id="XMLID_299_" class="st50" d="M123.7,276.4c0.1-0.2,0.1-0.3,0.1-0.5c-0.1-0.3-0.3-0.5-0.5-0.6l-3.2-2.5
			c-0.3-0.3-0.7-0.5-1.1-0.7c-1.1-0.6-2.5-0.7-3.4-1.5c-0.5-0.5-0.8-1.2-0.8-1.9c0-0.5,0.3-1.1,0.8-1.2c0.5-0.1,1,0.2,1.5,0.6
			c1.3,1.2,2.7,2.4,4.2,3.4c1.4,0.9,3,1.7,4.2,2.8c0.2,0.2,0.4,0.4,0.6,0.7c0.2,0.3,0.3,0.6,0.3,1l0.3,1.2c0.2,1,0.4,2.2-0.3,3
			c-0.2,0.3-0.5,0.4-0.9,0.4c-0.2,0-0.5-0.1-0.7-0.2c-0.5-0.3-1.5-0.5-1.6-1.2C122.8,278.3,123.4,277.1,123.7,276.4z"/>
		<path id="XMLID_298_" class="st50" d="M118.6,292.5c-0.2-0.3-0.4-0.5-0.6-0.8c-0.5-0.8-1.3-1.4-2.3-1.6c-0.3-0.1-0.7-0.1-1,0
			c-0.3,0.1-0.6,0.4-0.6,0.8c0,0.4,0.3,0.7,0.6,1c0.8,0.9,1.8,1.7,2.8,2.3c1,0.7,2.2,1.1,3.4,1.2c0.1,0,0.2,0,0.4,0
			c0.1-0.1,0.3-0.2,0.3-0.3c0.6-0.8,0.9-1.9,1-2.9c-0.1,0.4-2.2-0.5-2.4-0.4c-0.3,0.2-0.3,0.6-0.6,0.9
			C119.3,292.9,118.8,292.8,118.6,292.5z"/>
		<path id="XMLID_297_" class="st50" d="M133.9,300.6c0,0.1,0,0.3-0.1,0.4c-0.1,0.2-0.5,0.2-0.7,0.2c-0.6-0.1-1.2-0.2-1.8-0.4
			l-5.4-1.5c-0.1,0-0.2-0.1-0.2-0.1c-0.1-0.1-0.1-0.1-0.1-0.2c-0.2-0.8-0.2-1.5-0.1-2.3c0-0.1,0-0.2,0.1-0.3
			c0.1-0.1,0.3-0.2,0.4-0.2c0.8-0.1,1.7-0.1,2.5-0.1c0.5,0,1.1,0,1.6,0c0.7-0.1,1.5-0.5,2.2-0.4c0.6,0.1,0.6,0.5,0.6,1
			C133.2,297.9,133.9,299.2,133.9,300.6z"/>
		<path id="XMLID_296_" class="st43" d="M116.8,294.3c-0.7-0.2-1.4-0.2-2.1-0.2c-0.7,0.1-1.4,0.4-1.8,1c-0.3,0.5-0.3,1.2-0.2,1.7
			c0.2,0.6,0.4,1.1,0.8,1.6c0.6,1,1.4,2,2.3,2.7c0.5,0.4,1,0.7,1.4,1c0.9,0.8,1.5,1.9,2.1,3c0.5,1,1,2.1,1.3,3.2
			c0,0.1,0,0.2,0.1,0.2c0.1,0,0.2,0,0.2,0l2.6-0.5c0.2,0,0.4-0.2,0.4-0.4c0-0.1,0-0.2-0.1-0.2c-0.6-2.4-1.6-4.6-3.1-6.6
			c1.4,1.3,3.3,1.8,5.2,1.5c0.4-0.1,0.7-0.2,1-0.4c0.6-0.5,0.5-1.4,0.4-2.1c-0.1-0.7-0.3-1.3-0.5-2c-0.5-1.5-2.6-2-4-2.3
			C120.8,295.2,118.8,294.7,116.8,294.3z"/>
		<path id="XMLID_295_" class="st12" d="M118.7,299.8c0.4,0.1,0.7,0.4,1,0.6c-0.5-0.5-1.8-0.8-2.4-1c-0.8-0.3-1.7-0.6-2.3-1.1
			C116.2,298.7,117.4,299.2,118.7,299.8z"/>
		<path id="XMLID_294_" class="st42" d="M127,310.7c0.2,0.4,0.4,1,0.1,1.4c-0.2,0.3-0.7,0.3-0.9,0.7c-0.1,0.3,0,0.5,0.2,0.7
			c0.2,0.1,0.5,0.2,0.7,0.3c0.6,0.1,1.3,0.1,1.9,0c0.3,0,0.7-0.2,0.9-0.4c0.2-0.3,0.3-0.7,0.3-1l0.4-4.9c0-0.2,0-0.5,0-0.7
			c-0.2-0.4-0.7-0.6-1.1-0.7c-0.5-0.1-1-0.1-1.5-0.1c-0.3,0-0.7,0.1-1,0.3c-0.3,0.3-0.4,0.6-0.5,1c-0.1,0.6-0.4,1.4-0.4,2
			C126.3,309.7,126.8,310.2,127,310.7z"/>
		<path id="XMLID_293_" class="st42" d="M121.2,309.1c-1-0.1-2,0-2.9,0.3c-0.3,0.1-0.6,0.3-0.7,0.6c0,0.3,0.1,0.5,0.4,0.6
			c0.2,0.1,0.5,0.1,0.8,0.1c1.4,0,2.8,0,4.1-0.2c0.4,0,0.7-0.1,1-0.3c0.3-0.2,0.4-0.6,0.3-0.9c-0.2-0.3-0.6-0.4-0.8-0.8
			c-0.2-0.2-0.2-0.5-0.4-0.7c-0.2-0.1-0.4,0-0.6,0c-0.3,0.1-0.9,0.2-1.1,0.4C121.3,308.6,121.2,308.8,121.2,309.1z"/>
		<ellipse id="XMLID_292_" class="st50" cx="117.5" cy="280.7" rx="3.4" ry="3.4"/>
		<path id="XMLID_291_" class="st42" d="M125.7,279.2c-0.6-0.4-1.2-0.5-1.9-0.7c-0.2-0.1-0.5-0.1-0.7,0c-0.1,0.1-0.3,0.2-0.3,0.4
			c-0.2,0.3-0.4,0.7-0.5,1.1c-0.1,0.4,0,0.8,0.3,1.1c0.2,0.2,0.5,0.3,0.7,0.5c0.3,0.3,0.4,0.7,0.3,1.1c-0.1,0.4-0.2,0.8-0.5,1.1
			c-0.5,0.9-1.1,1.7-1.7,2.5c-0.7,0.8-1.4,1.6-1.8,2.6c-0.4,1-0.3,2.2,0.3,3.2c0.6,0.9,1.9,1.4,2.9,1c-0.2,0.2-0.3,0.4-0.3,0.7
			l1.4,0.7c0.1,0,0.2,0.1,0.3,0.2c0,0.1,0,0.2,0,0.3c-0.1,0.6-0.2,1.2-0.2,1.7c0,0.6,0.3,1.2,0.8,1.4c0.5,0.2,1.1,0.1,1.6,0
			c1.2-0.2,2.5-0.4,3.8-0.4c0.6,0,1.3,0,1.9-0.2c0.8-0.3,1.3-1.1,1.3-2c0-0.4-0.1-0.9-0.3-1.3c-0.8-2.4-1.6-4.8-2.7-7.1
			c-0.7-1.5-1.6-3-2.6-4.3c-0.3-0.3-0.5-0.7-0.8-1c-0.2-0.2-0.7-0.6-0.7-0.9c-0.1-0.3,0.1-0.6,0-0.9
			C126.2,279.8,126,279.5,125.7,279.2z"/>
		<path id="XMLID_290_" class="st43" d="M134.1,300.7c-1.5-0.7-3-1.4-4.6-1.9c-1.2-0.4-2.4-0.7-3.6-0.3c-0.3,0.1-0.6,0.3-1,0.5
			c-1.1,0.5-2.3,0.6-3.6,0.7c-2.7,0.3-5.3,0.9-7.9,1.8c-0.6,0.2-1.3,0.5-1.6,1.1c-0.2,0.4-0.2,0.9-0.2,1.3c0,0.7,0.1,1.3,0.6,1.9
			c0.7,0.9,1.9,0.9,3,1.2c0.8,0.2,1.6,0.6,2.4,0.9c2.5,1.2,5,2.4,7.5,3.6c0.3,0.2,0.6,0,0.9-0.2c0.7-0.7,1.3-1.5,1.5-2.5
			c0.3-1,0.4-1.9,0.4-2.9c1,0,1.7,0,2.7,0c0.4,0,0.7,0,1-0.1c0.6-0.3,1-0.9,1.3-1.6C133.6,303.1,134.2,301.9,134.1,300.7z"/>
		<path id="XMLID_289_" class="st12" d="M116.6,304.2c0.7-0.3,1.5-0.3,2.2-0.3c0.5,0,0.9,0,1.4,0.1c0.7,0.2,1.4,0.4,2,0.7
			c1.6,0.7,3.3,1,5.1,1"/>
		<path id="XMLID_288_" class="st31" d="M112.7,281.2c0.5,0.5,1.2,0.8,1.8,0.9c0.7,0.2,1.4,0.2,2.1,0.4c0.8,0.2,1.8,0.6,1.9,1.5
			c0,0.3,0.1,0.7,0,1c0,0.3,0.1,0.7,0.4,0.9c0.1,0.1,0.3,0.2,0.4,0.2c2.8,1.1,4.7,3.7,4.7,6.7c0.9-0.5,1.5-1.4,1.6-2.4
			c0,0.9,0.8,1.8,0.3,2.6c1.9-1.2,2.5-3.8,1.2-5.7c-0.1-0.1-0.1-0.2-0.2-0.3c-0.3-0.4-0.8-0.8-1.1-1.2c-1-1.2-1.5-2.7-1.4-4.3
			c0.1-0.7,0.3-1.3,0.1-2c-0.2-0.9-1-1.5-1.7-2c-0.5-0.4-1.1-0.7-1.7-1c-0.8-0.3-1.6-0.5-2.5-0.6c-1.9-0.2-3.6,0.1-4.7,1.7
			c-0.2,0.4-0.5,0.7-0.9,0.9c-0.3,0.1-0.5,0.3-0.7,0.5C111.8,279.6,112.2,280.7,112.7,281.2z"/>
		<path id="XMLID_287_" class="st45" d="M77.5,243.4c-0.1,0-7.5-3.1-6.5-3.7c0.6-0.4,1.4-1.9,1.9-3.1c0.4-0.8,0.6-1.5,0.6-1.5
			s6-1,3.8,2.6c-0.3,0.6-0.6,1.2-0.8,1.8C75.9,242,77.5,243.4,77.5,243.4z"/>
		<path id="XMLID_286_" class="st12" d="M77.3,237.8c-0.3,0.6-0.6,1.2-0.8,1.8c-1.5-0.1-2.9-1.1-3.5-2.5c-0.1-0.1-0.1-0.3-0.2-0.4
			c0.4-0.8,0.6-1.5,0.6-1.5S79.4,234.1,77.3,237.8z"/>
		<path id="XMLID_285_" class="st45" d="M81,235.3c0,2.3-1.9,4.1-4.2,4.1c-1.6,0-3.1-1-3.8-2.4c-0.2-0.5-0.4-1.1-0.4-1.7
			c0-2.3,1.9-4.1,4.2-4.1c1.8,0,3.5,1.2,4,3C81,234.5,81,234.9,81,235.3z"/>
		<path id="XMLID_284_" class="st12" d="M85,267.2c-0.3,0.3-0.5,0.7-0.6,1.1c0,0-2.1,1.4-1.9,0.5c0.1-0.9-1.1-4.4-1.1-4.4l0.1,4.8
			c0,0-6.6-0.3-7-0.8c-0.5-0.5-3.3-1.4-3.3-1.4s-0.9,0.7-1.6,1.2c-0.1-0.6-0.2-1.1-0.2-1.1l2.8-2.2l7-1.8l2.6-0.8l2.6,4
			C84.5,266.3,84.8,266.8,85,267.2z"/>
		<path id="XMLID_283_" class="st43" d="M85.2,266.9c-0.5,0.3-0.8,1.3-0.8,1.3s-2.1,1.4-1.9,0.5c0.1-0.9-1.1-4.4-1.1-4.4l0.1,4.8
			c0,0-6.6-0.3-7-0.8c-0.5-0.5-3.3-1.4-3.3-1.4s-2.4,1.9-2.9,1.8c-0.4-0.2,0.8-3.4,0.8-3.4l1.3-19.2c0,0-0.3-5.7,0.2-5.9
			c0.1,0,0.2-0.1,0.2-0.1c0.3-0.3,0.4-0.9,0.5-1.4c0-0.6,0.9-0.3,0.9-0.3l-0.5,0.6l4.2,2.5l0,0c0.2-0.1,0.3-0.2,0.5-0.2
			c0.4-0.1,0.9-0.3,1.2-0.1c0.2,0.1,0.3,0.2,0.4,0.4c0.2,0.4,0.4,0.7,0.6,1.2l1.5,2.6c0,0,0.8,3.4,0.8,3.5s0.2,3.2,0.5,3.6
			c0.3,0.3,0.5,2,0.4,2.5c-0.1,0.5,0.2,2.4,0.2,2.4c1.1,0.9,1.7,4,1.7,4s1.8,3.5,1.9,3.9C86,265.5,85.8,266.5,85.2,266.9z"/>
		<path id="XMLID_282_" class="st12" d="M76,241.5c-0.4,0.6-1.6,1.5-1.6,1.5l-3.5-2.9c0.3-0.3,0.4-0.9,0.5-1.4
			c0-0.6,0.9-0.3,0.9-0.3l-0.1,0.1c-0.2,0.2-0.1,0.6,0.1,0.8c0,0,0,0,0,0L76,241.5z"/>
		<path id="XMLID_281_" class="st44" d="M76,241.4c-0.4,0.6-1.6,1.5-1.6,1.5l-3.5-2.9c0.3-0.3,0.4-0.9,0.5-1.4
			c0-0.6,0.9-0.3,0.9-0.3l-0.1,0.1c-0.2,0.2-0.1,0.6,0.1,0.8c0,0,0,0,0,0L76,241.4z"/>
		<path id="XMLID_280_" class="st12" d="M77.6,241.8c-0.4,0.5-1.1,1.1-1,0.8s-0.4-1-0.6-1.3c0.4-0.1,0.8-0.1,1.2,0
			C77.3,241.5,77.5,241.6,77.6,241.8z"/>
		<path id="XMLID_278_" class="st44" d="M77.6,241.6c-0.4,0.5-1.1,1.1-1,0.8c0-0.3-0.3-0.8-0.6-1.1c0.4-0.1,0.9-0.3,1.2-0.1
			C77.4,241.3,77.5,241.4,77.6,241.6z"/>
		<path id="XMLID_277_" class="st12" d="M70.9,240.1c0,0,0-0.4-0.5,0.3c-0.5,0.5-1.1,0.9-1.7,1.3c0,0-2.5,1.8-2.7,2.6
			s-1,4.3-0.5,5.5c0.4,1.2,3.7,6.8,3.7,6.8s-0.9,1-0.7,2.2s0.5,2.8,0.3,3.2c-0.1,0.4,0.1,1.3-0.3,1.6c-0.4,0.3-0.8,0.9,0.4,1.6
			c0,0,0.2,0.6,0,0.7c-0.2,0.1,3,1.5,4.3,0.8c1.3-0.7,3.6-6.7,3.6-8c0-1.3-0.7-5.7-1.1-6.8s-1.6-5.1-2.2-6
			C73.2,245,70.9,240.1,70.9,240.1z"/>
		<path id="XMLID_275_" class="st42" d="M70.6,240.1c0,0,0-0.4-0.5,0.3c-0.5,0.5-1.1,1-1.7,1.3c0,0-2.5,1.8-2.7,2.6
			c-0.1,0.8-1,4.3-0.5,5.5s3.7,6.8,3.7,6.8s-0.9,1-0.7,2.2c0.2,1.2,0.5,2.8,0.3,3.2c-0.1,0.4,0.1,1.3-0.3,1.6s-0.8,0.9,0.4,1.6
			c0,0,0.2,0.6,0,0.7c-0.2,0.1,3,1.5,4.3,0.8c1.3-0.7,3.6-6.7,3.6-8c0-1.3-0.7-5.7-1.1-6.8s-1.6-5.1-2.2-6
			C72.9,245,70.6,240.1,70.6,240.1z"/>
		<path id="XMLID_274_" class="st12" d="M69.8,243.9c0,0,2,2.1,1.9,3.6C71.7,247.5,71.8,245.2,69.8,243.9z"/>
		<path id="XMLID_272_" class="st12" d="M76.5,240.9c0,0,1.3-0.8,2.9,1.2c0,0,1.2,0.7,1.5,0.8c0.3,0.2,0.7,4.3,0.7,4.3
			s0.8,1.8,0.5,2.8c-0.2,1,0.6,4.6,0.6,4.6s1.3,6.4,1.3,6.6c0,0.2-1.3-2-1.3-3.1c0-1.1-1.1-4.5-1.3-4.7c-0.2-0.2-1.3-6-1.3-6
			s-0.9-2.5-1.5-3.3c-0.6-0.8-1.3-2.3-1.6-2.6c-0.2-0.2-0.4-0.3-0.7-0.4L76.5,240.9z"/>
		<path id="XMLID_271_" class="st42" d="M76.4,240.9c0,0,1.4-0.8,3,1.2c0,0,1.2,0.7,1.5,0.8c0.3,0.2,0.7,4.3,0.7,4.3
			s0.8,1.8,0.5,2.8s0.6,4.6,0.6,4.6s1.3,6.4,1.3,6.6c0,0.2-1.3-2-1.3-3.1c0-1.1-1.1-4.5-1.3-4.7c-0.2-0.2-1.3-6-1.3-6
			s-0.9-2.4-1.5-3.3c-0.6-0.8-1.3-2.3-1.6-2.6c-0.3-0.2-0.5-0.3-0.8-0.4L76.4,240.9z"/>
		<path id="XMLID_269_" class="st45" d="M82.7,254.9c0,0,2.7-1.8,4-0.9c1.3,0.9,3.5,2.1,1.3,3c-2.1,0.9-5,0.7-5,0.7L82.7,254.9z"/>
		<path id="XMLID_268_" class="st12" d="M80.8,271.9c-0.4,0.9-0.7,5.2-1,6.5c-0.3-0.5-0.7-1.2-0.8-1.4c-0.3-0.7-0.6-1.3-0.8-2
			c0.3-0.6,1-2.4,1-3c0-0.8,1.3-1.8,1.3-1.8C81,270.6,81.1,271.3,80.8,271.9z"/>
		<path id="XMLID_266_" class="st12" d="M80.8,234.2c-0.1,0-0.1,0.1-0.2,0.1c-0.3,0.1-0.6-0.1-0.9-0.3s-0.7-0.3-0.9-0.1
			c-0.3,0.3-0.1,0.9-0.4,1.2c-0.2,0.2-0.5,0.1-0.8,0.3c-0.2,0.1-0.3,0.5-0.4,0.7s-0.2,0.6-0.4,0.7s-0.5-0.1-0.8-0.1
			c-0.1,0-0.1,0-0.2,0c0,0,0-0.1,0-0.1c0-0.3,0-0.7-0.1-1c-0.1-0.3-0.4-0.6-0.7-0.6c-0.5-0.1-0.9,0.3-1.2,0.7
			c-0.3,0.4-0.6,0.8-0.8,1.3c0,0,0,0.1,0,0.1c-0.2-0.5-0.4-1.1-0.4-1.7c0-2.3,1.9-4.1,4.2-4.1C78.7,231.2,80.3,232.4,80.8,234.2
			L80.8,234.2z"/>
		<path id="XMLID_265_" class="st31" d="M73.9,235.5c0.3-0.4,0.7-0.8,1.2-0.7c0.3,0.1,0.6,0.3,0.7,0.6c0.1,0.3,0.1,0.6,0.1,1
			c0,0,0,0.1,0,0.1c0,0,0.1,0,0.2,0c0.3,0,0.5,0.2,0.8,0.1c0.2-0.1,0.4-0.4,0.4-0.7c0.1-0.3,0.1-0.6,0.4-0.7s0.6-0.1,0.8-0.3
			c0.3-0.3,0.1-0.9,0.4-1.2c0.2-0.2,0.6-0.1,0.9,0.1c0.3,0.2,0.6,0.4,0.9,0.3c0.1,0,0.2-0.1,0.3-0.1c0.5-0.2,1.2,0.1,1.6-0.2
			c0.2-0.2,0.3-0.3,0.3-0.5c0.1-0.3,0.2-0.6,0.2-0.9c0-0.3,0-0.6-0.2-0.8c-0.3-0.3-0.7-0.4-1.1-0.6c-0.3-0.2-0.5-0.5-0.7-0.8
			c-0.2-0.3-0.4-0.6-0.7-0.8c-0.3-0.2-0.7-0.3-1-0.2c-0.1,0.1-0.2,0.1-0.3,0.2c-0.1,0-0.3,0-0.4-0.1c-1.2-0.6-2.6-0.5-3.9-0.3
			c-0.5,0-1,0.2-1.5,0.4c-0.5,0.2-0.9,0.6-1,1.1c-0.1,0.4,0,0.8-0.2,1.2c-0.1,0.3-0.3,0.5-0.4,0.8c-0.3,0.7,0.1,1.5,0.2,2.2
			c0.2,0.8,0.1,1.7,0.4,2.5c0.1,0.2,0.1,0.4,0.3,0.3c0.1-0.1,0.3-0.5,0.3-0.6C73.3,236.4,73.6,235.9,73.9,235.5z"/>
		<path id="XMLID_263_" class="st12" d="M66.4,248.7l-0.6,1.7c0,0,1.5,5.4,2.1,6.5c0.7,1.1,1.7,2.6,1.7,2.6c1.1,0.5,2.4,0.7,3.7,0.4
			c2-0.4,7.7-1.4,7.7-1.4c0.3,0,0.6-0.1,0.7-0.3c0.3-0.4,1.6-0.5,1.6-0.5s1.5-2.2-0.3-3.1c0,0-0.2,0.5-1.2,0.2
			c-1-0.3-1.3,0.3-1.3,0.3s-1.6,0.3-2.5,0.2c-0.9-0.1-3.1-0.2-3.3-0.3c-0.1-0.1-0.3-0.1-0.4,0c0,0,0,0,0,0c-0.3-0.1-0.5-0.2-0.7-0.4
			c-0.2-0.2-0.4,0.2-0.4,0.2s-0.3-0.2-0.2-0.4c0.1-0.2-0.3-1.1-0.3-1.1c-0.1-0.3-0.1-0.7-0.1-1c0.1-0.5-0.6-2.1-0.6-2.1
			c0-0.3,0-0.5,0.1-0.8c0.1-0.4-0.9-1.2-0.9-1.2s-1-4.6-3-3.1C66,246.6,66.4,248.7,66.4,248.7z"/>
		<path id="XMLID_262_" class="st42" d="M66.2,248.7l-0.6,1.7c0,0,1.5,5.4,2.1,6.5c0.7,1.1,1.7,2.6,1.7,2.6c1.1,0.5,2.4,0.7,3.7,0.4
			c2-0.4,7.7-1.4,7.7-1.4c0.3,0,0.6-0.1,0.7-0.3c0.3-0.4,1.6-0.5,1.6-0.5s1.5-2.2-0.3-3.1c0,0-0.2,0.5-1.2,0.2
			c-1-0.3-1.3,0.3-1.3,0.3s-1.6,0.3-2.5,0.2c-0.9-0.1-3.1-0.2-3.3-0.3c-0.1-0.1-0.3-0.1-0.4,0c0,0,0,0,0,0c-0.3-0.1-0.5-0.2-0.7-0.4
			c-0.2-0.2-0.4,0.2-0.4,0.2s-0.3-0.2-0.2-0.4s-0.3-1.1-0.3-1.1c-0.1-0.3-0.1-0.7-0.1-1c0.1-0.5-0.6-2.1-0.6-2.1
			c0-0.3,0-0.5,0.1-0.8c0.1-0.4-0.9-1.2-0.9-1.2s-1-4.6-3-3.1C65.9,246.6,66.2,248.7,66.2,248.7z"/>
		<path id="XMLID_260_" class="st12" d="M71.9,254c0,0-2.2,0.5-1.5,0.8C71.1,255.2,71.9,254,71.9,254z"/>
		<g id="XMLID_256_" class="st21">
			<path id="XMLID_259_" class="st22" d="M75.7,235c-0.1-0.3-0.4-0.6-0.7-0.6c-0.5-0.1-0.9,0.3-1.2,0.7c-0.3,0.4-0.6,0.8-0.8,1.3
				c-0.1,0.1-0.2,0.6-0.3,0.6c-0.2,0.1-0.3-0.2-0.3-0.3c-0.4-0.8-0.3-1.7-0.4-2.5c-0.1-0.5-0.2-1-0.3-1.4c-0.1,0.6,0.2,1.2,0.3,1.8
				c0.2,0.8,0.1,1.7,0.4,2.5c0.1,0.2,0.1,0.4,0.3,0.3c0.1-0.1,0.3-0.5,0.3-0.6c0.2-0.4,0.5-0.9,0.8-1.3c0.3-0.4,0.7-0.8,1.2-0.7
				c0.3,0.1,0.6,0.3,0.7,0.6c0.1,0.2,0.1,0.3,0.1,0.5C75.8,235.6,75.8,235.3,75.7,235z"/>
			<path id="XMLID_257_" class="st22" d="M82.8,232.9c-0.1,0.2-0.2,0.4-0.3,0.5c-0.4,0.3-1.1,0-1.6,0.2c-0.1,0-0.2,0.1-0.3,0.1
				c-0.3,0.1-0.6-0.1-0.9-0.3s-0.7-0.3-0.9-0.1c-0.3,0.3-0.1,0.9-0.4,1.2c-0.2,0.2-0.5,0.1-0.8,0.3c-0.2,0.1-0.3,0.5-0.4,0.7
				s-0.2,0.6-0.4,0.7s-0.5-0.1-0.8-0.1c-0.1,0-0.1,0-0.2,0c0,0,0,0,0,0c0,0.1,0,0.2,0,0.3c0,0,0,0.1,0,0.1c0,0,0.1,0,0.2,0
				c0.3,0,0.5,0.2,0.8,0.1c0.2-0.1,0.4-0.4,0.4-0.7s0.1-0.6,0.4-0.7c0.2-0.1,0.6-0.1,0.8-0.3c0.3-0.3,0.1-0.9,0.4-1.2
				c0.2-0.2,0.6-0.1,0.9,0.1c0.3,0.2,0.6,0.4,0.9,0.3c0.1,0,0.2-0.1,0.3-0.1c0.5-0.2,1.2,0.1,1.6-0.2c0.2-0.1,0.3-0.3,0.3-0.5
				c0.1-0.3,0.2-0.6,0.2-0.9c0-0.1,0-0.2,0-0.3C83,232.4,83,232.7,82.8,232.9z"/>
		</g>
		<ellipse id="XMLID_254_" class="st42" cx="37.3" cy="298.1" rx="10.7" ry="2"/>
		<ellipse id="XMLID_253_" class="st31" cx="37.2" cy="297.3" rx="1.2" ry="1.6"/>
		<ellipse id="XMLID_251_" class="st31" cx="37.2" cy="295.3" rx="1.2" ry="1.6"/>
		<ellipse id="XMLID_250_" class="st31" cx="37.2" cy="293.3" rx="1.2" ry="1.6"/>
		<ellipse id="XMLID_248_" class="st31" cx="37.2" cy="291.4" rx="1.2" ry="1.6"/>
		<ellipse id="XMLID_247_" class="st31" cx="37.2" cy="289.4" rx="1.2" ry="1.6"/>
		<ellipse id="XMLID_245_" class="st31" cx="37.2" cy="287.4" rx="1.2" ry="1.6"/>
		<ellipse id="XMLID_244_" class="st31" cx="37.2" cy="285.5" rx="1.2" ry="1.6"/>
		<path id="XMLID_242_" class="st42" d="M41.8,272c0.2-0.2,0.3-0.4,0.5-0.7l-3.3-0.5l3.5,0c0.7-1.5,0.7-3.2,0.1-4.7l-4.7,2.4
			l4.4-3.2c-1.7-2.8-5.3-3.8-8.1-2.1c-2.8,1.6-3.8,5.2-2.2,8c0.1,0.2,0.3,0.5,0.5,0.7c-0.3,0.3-0.5,0.7-0.7,1.1l4.2,2.2l-4.5-1.5
			c-0.6,1.9-0.3,4,1,5.5c-2,2.6-1.6,6.3,1,8.3c2.6,2,6.3,1.6,8.4-1c1.7-2.1,1.7-5.1,0-7.3C43.5,277.1,43.5,274.1,41.8,272L41.8,272z
			"/>
		<path id="XMLID_241_" class="st42" d="M31.2,275.6c0,1.3,0.4,2.6,1.3,3.6c-2,2.6-1.6,6.3,1,8.3c2.6,2,6.3,1.6,8.4-1
			c1.7-2.1,1.7-5.1,0-7.3C42.6,278.3,31.2,275,31.2,275.6z"/>
		<ellipse id="XMLID_224_" class="st51" cx="76.3" cy="176.4" rx="4" ry="3.9"/>
		<ellipse id="XMLID_223_" class="st52" cx="90.6" cy="158.8" rx="6.7" ry="6.6"/>
		<ellipse id="XMLID_221_" class="st51" cx="81.7" cy="190.9" rx="6.7" ry="6.6"/>
		<ellipse id="XMLID_213_" class="st51" cx="302.9" cy="241.1" rx="4.5" ry="4.6"/>
		<ellipse id="XMLID_212_" class="st51" cx="244.6" cy="217.3" rx="4.9" ry="4.8"/>
		<ellipse id="XMLID_211_" class="st51" cx="155.9" cy="214.9" rx="3.8" ry="3.7"/>
		<ellipse id="XMLID_210_" class="st51" cx="27.3" cy="188.9" rx="9.5" ry="9.4"/>
		<ellipse id="XMLID_209_" class="st51" cx="81.3" cy="219.9" rx="5.5" ry="5.4"/>
		<ellipse id="XMLID_208_" class="st53" cx="135.4" cy="255" rx="5.5" ry="5.4"/>
		<ellipse id="XMLID_207_" class="st40" cx="37.3" cy="298.9" rx="31.2" ry="6.2"/>
		<ellipse id="XMLID_82_" class="st51" cx="371" cy="216.8" rx="4.5" ry="4.6"/>
		<ellipse id="XMLID_83_" class="st51" cx="419.8" cy="219.7" rx="7.1" ry="7.2"/>
		<ellipse id="XMLID_84_" class="st51" cx="190.1" cy="234.6" rx="3.8" ry="3.7"/>
		<ellipse id="XMLID_85_" class="st51" cx="231.5" cy="246.6" rx="3.8" ry="3.7"/>
	</g>
</g>
</svg>
