<?xml version="1.0" encoding="utf-8"?>
<!-- Generator: Adobe Illustrator 19.0.0, SVG Export Plug-In . SVG Version: 6.00 Build 0)  -->
<svg version="1.1" id="Layer_1" xmlns="http://www.w3.org/2000/svg" xmlns:xlink="http://www.w3.org/1999/xlink" x="0px" y="0px"
	 viewBox="0 0 450 600" style="enable-background:new 0 0 450 600;" xml:space="preserve">
<style type="text/css">
	.st0{opacity:0.55;fill:#757576;}
	.st1{fill:#FFFFFF;}
	.st2{fill:#EFAD6C;}
	.st3{fill:#A2792C;}
	.st4{fill:#F2B450;}
	.st5{fill:#F68C33;}
	.st6{fill:#9F626B;}
	.st7{fill:#302E41;}
	.st8{fill:#6D5E32;}
	.st9{fill:#C05427;}
	.st10{fill:none;stroke:#545561;stroke-width:3;stroke-miterlimit:10;}
	.st11{fill:#6395CE;}
	.st12{opacity:0.1;fill:#010101;enable-background:new    ;}
	.st13{opacity:0.3;fill:#010101;enable-background:new    ;}
	.st14{fill:#3C6EA1;}
	.st15{opacity:0.5;fill:#DEE3F3;enable-background:new    ;}
	.st16{fill:url(#XMLID_206_);}
	.st17{fill:#3274A5;}
	.st18{fill:#599AC1;}
	.st19{fill:#F7C5A8;}
	.st20{fill:#4A5CA9;}
	.st21{opacity:0.1;}
	.st22{fill:#010101;}
	.st23{fill:#642753;}
	.st24{fill:#545561;}
	.st25{opacity:0.1;fill:none;stroke:#010101;stroke-miterlimit:10;enable-background:new    ;}
	.st26{fill:#6B5E9B;}
	.st27{fill:#FFD139;}
	.st28{fill:#D7D6E3;}
	.st29{fill:#E6E6E5;}
	.st30{fill:#328E4D;}
	.st31{fill:#403E56;}
	.st32{fill:#2D352D;}
	.st33{fill:#3F543F;}
	.st34{opacity:0.2;fill:#010101;enable-background:new    ;}
	.st35{fill:#F9B7B8;}
	.st36{fill:#D0E2C3;}
	.st37{fill:#F16584;}
	.st38{fill:#6466AF;}
	.st39{fill:#F9A924;}
	.st40{fill:#F9BFC0;}
	.st41{fill:url(#XMLID_214_);}
	.st42{fill:#F16262;}
	.st43{fill:#5B3837;}
	.st44{fill:#454154;}
	.st45{fill:#A2626B;}
	.st46{fill:#A91F23;}
	.st47{fill:#D1D2D5;}
	.st48{fill:#640D0D;}
	.st49{fill:url(#XMLID_215_);}
	.st50{fill:#F9BEBD;}
	.st51{opacity:0.67;fill:#DB4B4B;enable-background:new    ;}
	.st52{opacity:0.31;fill:#DB4B4B;enable-background:new    ;}
	.st53{opacity:0.73;fill:#DB4B4B;enable-background:new    ;}
</style>
<title>circles</title>
<g id="XMLID_204_">
	
		<rect id="XMLID_141_" x="0" y="0" transform="matrix(1 1.072272e-003 -1.072272e-003 1 0.4119 -0.241)" class="st0" width="449.9" height="768"/>
	<g id="XMLID_305_">
		<path id="XMLID_315_" class="st1" d="M234.7,713c0,3-1.2,5.3-3.7,7c-2.1,1.4-4.8,2.1-7.9,2.1c-2.4,0-4.5-0.2-6-0.5
			c-3.4-0.7-5.2-1.4-5.2-1.9c0-0.1,0-0.2,0.1-0.4c0.2-0.6,0.6-1.5,1-2.7c0.1-0.6,0.4-1.5,0.7-2.7c0.1-0.4,0.4-0.6,0.7-0.6
			c0,0,0.7,0.3,2.2,0.8c1.5,0.5,2.7,0.8,3.7,0.8c3.2,0,4.8-1.1,4.8-3.2c0-1.7-1.5-2.6-4.5-2.6c-0.4,0-0.9,0-1.6,0
			c-0.7,0-1.1,0-1.3,0c-1,0-1.5,0-1.6,0c-0.7-0.1-1.1-0.4-1.1-0.8c0-2.5,0.1-4.1,0.3-4.7c0.1-0.4,0.4-0.6,0.8-0.6
			c0.6,0,1.4,0.1,2.5,0.2c1.1,0.1,1.9,0.2,2.4,0.2c0.7,0,1.3-0.2,1.7-0.7c0.5-0.5,0.7-1.1,0.7-1.8c0-1.9-1.4-2.9-4.2-2.9
			c-1.2,0-2.8,0.3-4.8,1c-0.1,0-0.2,0-0.2,0c-0.2,0-0.4-0.2-0.5-0.7c0-0.7-0.1-1.5-0.1-2.3c0-0.2-0.1-0.6-0.1-1.2
			c-0.1-0.5-0.1-0.9-0.1-1.1c0-0.9,1.3-1.5,4-2c1.8-0.3,3.6-0.5,5.3-0.5c2.8,0,5.2,0.6,7.3,1.8c2.5,1.5,3.8,3.5,3.8,6.1
			c0,3-1.4,5.2-4.1,6.8c1.6,0.5,2.9,1.4,3.8,2.7C234.3,709.9,234.7,711.4,234.7,713z"/>
		<path id="XMLID_341_" class="st1" d="M269.6,704.1c0,4.8-1.5,8.9-4.6,12.5c-2.7,3.1-6.5,4.8-11.5,5c-0.9,0-3.5,0-7.8,0
			c-0.8,0-2,0-3.6-0.1c-1.6,0-2.8-0.1-3.6-0.1c-0.5,0-0.7-0.2-0.7-0.6c0-1.8,0.1-4.5,0.2-8.1c0.1-3.6,0.2-6.3,0.2-8.1
			c0-1.9-0.1-4.7-0.2-8.4c-0.1-3.7-0.2-6.5-0.2-8.4c0-0.3,0.2-0.5,0.7-0.6c1.2-0.1,3.1-0.2,5.7-0.2c5,0,8.3,0.1,9.7,0.2
			c3.9,0.4,6.9,1.4,9.1,2.9c2.1,1.5,3.7,3.5,4.9,6.2C269,698.9,269.6,701.4,269.6,704.1z M260.3,704.1c0-2.8-0.8-5-2.5-6.7
			c-1.7-1.8-3.9-2.7-6.6-2.7c-2.5,0-3.8,0.3-3.8,1c0,1,0,2.4,0,4.3c0,1.9,0,3.4,0,4.3c0,0.9,0,2.4,0,4.3c0,1.9,0,3.3,0,4.3
			c0,0.7,1.3,1,3.9,1c2.8,0,5-0.9,6.6-2.8C259.5,709.3,260.3,707,260.3,704.1z"/>
		<path id="XMLID_344_" class="st1" d="M317.8,704.1c0,4.8-1.5,8.9-4.6,12.5c-2.7,3.1-6.5,4.8-11.5,5c-0.9,0-3.5,0-7.8,0
			c-0.8,0-2,0-3.6-0.1c-1.6,0-2.8-0.1-3.6-0.1c-0.5,0-0.7-0.2-0.7-0.6c0-1.8,0.1-4.5,0.2-8.1c0.1-3.6,0.2-6.3,0.2-8.1
			c0-1.9-0.1-4.7-0.2-8.4c-0.1-3.7-0.2-6.5-0.2-8.4c0-0.3,0.2-0.5,0.7-0.6c1.2-0.1,3.1-0.2,5.7-0.2c5,0,8.3,0.1,9.7,0.2
			c3.9,0.4,6.9,1.4,9.1,2.9c2.1,1.5,3.7,3.5,4.9,6.2C317.2,698.9,317.8,701.4,317.8,704.1z M308.4,704.1c0-2.8-0.8-5-2.5-6.7
			c-1.7-1.8-3.9-2.7-6.6-2.7c-2.5,0-3.8,0.3-3.8,1c0,1,0,2.4,0,4.3c0,1.9,0,3.4,0,4.3c0,0.9,0,2.4,0,4.3c0,1.9,0,3.3,0,4.3
			c0,0.7,1.3,1,3.9,1c2.8,0,5-0.9,6.6-2.8C307.7,709.3,308.4,707,308.4,704.1z"/>
		<path id="XMLID_347_" class="st1" d="M343.7,708.1c0,1.6-0.5,2.6-1.6,2.8c-0.2,0-1.9,0.2-5.1,0.5c-1.9,0.2-4.8,0.5-8.6,0.8
			c0.2,1.1,0.9,1.9,2.1,2.4c0.9,0.5,2,0.7,3.2,0.7c1.4,0,2.9-0.4,4.4-1.2c0.6-0.4,1.2-0.8,1.9-1.2c0.3,0.2,0.9,1,1.7,2.5
			c0.8,1.5,1.2,2.5,1.2,2.9c0,0.1-0.1,0.3-0.4,0.6c-2,2.1-5.1,3.2-9.3,3.2c-3.9,0-7-1.1-9.4-3.4c-2.4-2.3-3.7-5.4-3.7-9.2
			c0-3.7,1.1-6.8,3.3-9.2c2.2-2.5,5.2-3.7,8.9-3.7c3.1,0,5.8,1.1,8,3.4C342.6,702.3,343.7,705,343.7,708.1z M335.2,706.6
			c0-1-0.4-1.9-1.1-2.7c-0.7-0.8-1.6-1.1-2.6-1.1c-1,0-1.9,0.4-2.5,1.3c-0.6,0.8-0.9,1.7-0.9,2.8c0,0.4,0.2,0.7,0.7,0.7
			c1.2,0,3.1-0.2,5.6-0.6C334.9,707,335.2,706.8,335.2,706.6z"/>
		<path id="XMLID_350_" class="st1" d="M360.7,701.6c0,0.2-0.1,0.4-0.4,0.7c-0.5-0.1-0.9-0.2-1.4-0.2c-1,0-1.8,0.2-2.4,0.6
			c-0.8,0.5-1.2,1.2-1.2,2.1c0,0.6,0.4,1.3,1.2,2.2c1.3,1.3,2,2.2,2.3,2.7c0.8,1.2,1.2,2.6,1.2,4c0,0.8-0.2,1.7-0.5,2.6
			c-0.4,1-0.8,1.8-1.4,2.2c-1.2,1-2.6,1.9-4.2,2.6c-1.7,0.7-3.3,1.1-4.8,1.1c-0.3,0-1.1-0.9-2.2-2.6c-1.1-1.8-1.7-2.8-1.7-3.2
			c0-0.1,0.1-0.2,0.3-0.3c1.1-0.2,2.3-0.4,3.4-0.6c1.4-0.5,2.1-1.2,2.1-2.2c0-0.7-0.4-1.5-1.2-2.5c-1.5-1.6-2.3-2.5-2.3-2.6
			c-0.8-1.2-1.2-2.4-1.2-3.7c0-2.4,1.2-4.5,3.7-6.2c2.2-1.5,4.6-2.3,7.1-2.3c0.3,0,0.9,0.9,1.9,2.6
			C360.2,700.3,360.7,701.3,360.7,701.6z"/>
		<path id="XMLID_352_" class="st1" d="M373.3,710.2c0,1.2,0,3,0.1,5.3c0,2.4,0.1,4.1,0.1,5.3c0,0.3-0.2,0.5-0.6,0.6
			c-0.6,0.1-1.8,0.1-3.7,0.1c-2,0-3.2,0-3.8-0.1c-0.4-0.1-0.6-0.2-0.7-0.3c0-0.1,0-0.3,0-0.7c0-1.1,0-2.8,0.1-5.1
			c0-2.3,0.1-4,0.1-5.1c0-4.6-0.2-8.3-0.5-11c0-0.3,0-0.4,0-0.5c0-0.3,0.2-0.5,0.7-0.5c0.5,0,1.2,0,2.1,0.1c0.9,0.1,1.6,0.1,2.1,0.1
			c0.5,0,1.2,0,2.1-0.1c0.9-0.1,1.7-0.1,2.1-0.1c0.4,0,0.6,0.2,0.6,0.5c0,0.1,0,0.2,0,0.5C373.4,702.3,373.3,706,373.3,710.2z
			 M373.9,692c0,2.8-1.6,4.2-4.8,4.2c-1.4,0-2.5-0.4-3.4-1.1c-1-0.8-1.5-1.8-1.5-3.2c0-1.3,0.5-2.3,1.5-3.1c0.9-0.7,2-1.1,3.3-1.1
			c1.3,0,2.4,0.4,3.3,1.1C373.4,689.8,373.9,690.8,373.9,692z"/>
		<path id="XMLID_355_" class="st1" d="M402.3,715c0,4.6-1,8-2.9,10c-2,2.1-5.4,3.1-10.1,3.1c-1.4,0-3.2-0.2-5.6-0.7
			c-3-0.6-4.5-1.2-4.5-2c0-0.3,0.3-1.9,1-4.8c0.1-0.5,0.3-0.7,0.5-0.7c0.1,0,0.2,0,0.3,0.1c2.5,1.2,4.8,1.9,7,1.9
			c1.2,0,2.3-0.3,3.5-0.9c1.4-0.7,2.1-1.6,2.1-2.6v-1.6c-1.7,1.6-3.8,2.3-6.4,2.3c-3.1,0-5.6-1.1-7.5-3.3c-1.9-2.1-2.9-4.7-2.9-7.8
			c0-3.1,0.9-5.7,2.7-7.7c1.9-2.1,4.4-3.2,7.5-3.2c2.5,0,4.3,0.9,5.6,2.6c0.3,0.4,0.4,0.5,0.5,0.5c0.1,0,0.2-0.3,0.2-0.9
			c0-1.3,0.1-2,0.4-2c0.3,0,1.7,0.1,4.2,0.4c2.6,0.3,3.9,0.4,4,0.5c0.3,0.1,0.4,0.3,0.4,0.6c0,1.1,0,2.8-0.1,5
			c-0.1,2.2-0.1,3.9-0.1,5c0,0.7,0,1.7,0,3C402.3,713.4,402.3,714.4,402.3,715z M393.8,708.3c0-1.2-0.4-2.2-1.2-3.1
			c-0.8-0.9-1.8-1.3-3-1.3c-1.2,0-2.2,0.4-3,1.3c-0.8,0.9-1.2,1.9-1.2,3.1c0,1.2,0.4,2.2,1.2,3.1c0.8,0.9,1.8,1.3,2.9,1.3
			c1.2,0,2.2-0.4,3-1.3C393.4,710.5,393.8,709.5,393.8,708.3z"/>
		<path id="XMLID_358_" class="st1" d="M430.8,720.7c0,0.4-0.2,0.7-0.7,0.8c-0.5,0.1-1.6,0.1-3.6,0.1c-2.1,0-3.3,0-3.8-0.1
			s-0.7-0.4-0.7-1c0-0.8,0-1.9,0.1-3.5c0-1.5,0.1-2.7,0.1-3.5c0-0.6,0-1.5,0-2.7c0-1.2,0-2.1,0-2.7c0-2.2-1-3.3-2.9-3.3
			c-0.6,0-1.4,0.3-2.2,0.8c-0.9,0.6-1.4,1.2-1.4,1.8v13.2c0,0.5-0.3,0.8-0.8,0.9c-0.6,0.1-1.7,0.1-3.5,0.1c-1.9,0-3.1,0-3.7-0.1
			c-0.5-0.1-0.8-0.3-0.8-0.8c0-1.3,0-3.2,0-5.7c0-2.6,0-4.5,0-5.8c0-4.1-0.3-7.2-1-9.5c0-0.1,0-0.3,0-0.4c0-0.3,0.1-0.4,0.4-0.5
			c1-0.1,2.4-0.3,4.1-0.5c2.6-0.5,4-0.8,4.4-0.8c0.2,0,0.3,0.5,0.4,1.6c0.1,1.1,0.2,1.6,0.4,1.6c-0.2,0,0.7-0.6,2.6-1.7
			c1.9-1.1,3.6-1.7,5.1-1.7c2.1,0,3.8,0.5,5.2,1.5c1.5,1.1,2.3,2.7,2.3,4.7v7.8c0,1.1,0,2.6,0,4.7
			C430.8,718,430.8,719.6,430.8,720.7z"/>
	</g>
	<g id="XMLID_232_">
		<path id="XMLID_233_" class="st1" d="M254.9,230.5c0,0.4,0,0.9-0.1,1.7c-0.1,0.7-0.1,1.3-0.1,1.7s0,1,0,1.8c0,0.8,0,1.5,0,1.9
			s-0.3,0.6-0.8,0.6c-0.2,0-1-0.2-2.3-0.5c-1.5-0.3-4.2-0.5-8.3-0.5c-1.3,0-3.1,0.1-5.6,0.2c-2.5,0.1-4.4,0.2-5.6,0.2
			c-0.4,0-0.7-0.2-0.7-0.6c0-0.6-0.2-1.4-0.4-2.5c-0.4-1.7-0.6-2.6-0.6-2.9c0-0.4,0.7-0.6,2.1-0.8c1.6-0.2,2.6-0.5,3.1-0.9
			c1.6-1.4,3.3-3.1,5.1-5.2c2.2-2.7,3.3-4.7,3.3-6c0-1.2-0.4-2.1-1.3-2.9c-0.8-0.8-1.8-1.2-3-1.2c-1.3,0-2.6,0.3-3.9,0.8
			c-0.9,0.3-1.8,0.8-2.7,1.4c-0.8,0.5-1.2,0.8-1.3,0.8c-0.6,0-0.8-0.7-0.8-2c0-1,0-1.7-0.1-2.2c0-0.2-0.2-0.7-0.4-1.3
			c-0.2-0.6-0.3-1-0.3-1.3c0-0.2,0.1-0.4,0.4-0.6c1.4-1,3.2-1.7,5.4-2.3c2-0.5,4-0.7,5.9-0.7c3.1,0,5.7,0.7,7.8,2.1
			c2.5,1.6,3.7,3.9,3.7,6.8c0,3.9-3,8.5-8.9,13.7c4.2-0.2,7.5-0.3,9.9-0.3C254.7,229.6,254.9,229.9,254.9,230.5z"/>
		<path id="XMLID_235_" class="st1" d="M289.5,220.2c0,4.8-1.5,8.9-4.6,12.5c-2.7,3.1-6.5,4.8-11.5,5c-0.9,0-3.5,0-7.8,0
			c-0.8,0-2,0-3.6-0.1c-1.6,0-2.8-0.1-3.6-0.1c-0.5,0-0.7-0.2-0.7-0.6c0-1.8,0.1-4.5,0.2-8.1c0.1-3.6,0.2-6.3,0.2-8.1
			c0-1.9-0.1-4.7-0.2-8.4c-0.1-3.7-0.2-6.5-0.2-8.4c0-0.3,0.2-0.5,0.7-0.6c1.2-0.1,3.1-0.2,5.7-0.2c5,0,8.3,0.1,9.7,0.2
			c3.9,0.4,6.9,1.4,9.1,2.9c2.1,1.5,3.7,3.5,4.9,6.2C288.9,215,289.5,217.5,289.5,220.2z M280.1,220.2c0-2.8-0.8-5-2.5-6.7
			c-1.7-1.8-3.9-2.7-6.6-2.7c-2.5,0-3.8,0.3-3.8,1c0,1,0,2.4,0,4.3c0,1.9,0,3.4,0,4.3c0,0.9,0,2.4,0,4.3c0,1.9,0,3.3,0,4.3
			c0,0.7,1.3,1,3.9,1c2.8,0,5-0.9,6.6-2.8C279.4,225.4,280.1,223.1,280.1,220.2z"/>
		<path id="XMLID_238_" class="st1" d="M331.5,202.8c0-0.4-0.1,0.2-0.2,1.6c-0.2,1.8-0.3,4.1-0.4,6.9c-0.1,3.2-0.2,6.8-0.2,10.9
			c0,6.7,0.2,11.5,0.6,14.4c0,0.3,0,0.5,0,0.6c0,0.2-0.1,0.3-0.4,0.3c-0.6,0.1-2.7,0.1-6.5,0.1c-0.9,0-1.4-0.2-1.5-0.5
			c0-0.6-0.1-1.2-0.1-1.9c0-0.1-0.1-0.3-0.2-0.4c-0.1,0-0.2,0.1-0.4,0.3c-1.8,1.7-4,2.6-6.6,2.6c-3.4,0-6.2-1.2-8.3-3.6
			c-2-2.3-3-5.2-3-8.7c0-3.5,1-6.5,2.9-8.8c2.1-2.4,4.8-3.7,8.3-3.7c2.5,0,4.4,0.8,5.7,2.3c0.2,0.3,0.4,0.4,0.5,0.4
			c0.1,0,0.2-0.2,0.2-0.6c0-1.3,0-3.1-0.1-5.6c-0.1-2.5-0.1-4.4-0.1-5.6c0-0.5,0.1-0.7,0.4-0.8c1,0,2.5-0.1,4.3-0.3
			c3.3-0.4,4.7-0.6,4.3-0.6C331.3,202.2,331.5,202.4,331.5,202.8z M322.2,225.3c0-1.3-0.4-2.4-1.3-3.4c-0.9-1-2-1.5-3.2-1.5
			c-1.3,0-2.4,0.5-3.2,1.5c-0.8,1-1.2,2.1-1.2,3.5c0,1.3,0.4,2.4,1.2,3.3c0.8,1,1.9,1.5,3.2,1.5c1.3,0,2.4-0.5,3.3-1.5
			S322.2,226.6,322.2,225.3z"/>
		<path id="XMLID_243_" class="st1" d="M357.4,224.2c0,1.6-0.5,2.6-1.6,2.8c-0.2,0-1.9,0.2-5.1,0.5c-1.9,0.2-4.8,0.5-8.6,0.8
			c0.2,1.1,0.9,1.9,2.1,2.4c0.9,0.5,2,0.7,3.2,0.7c1.4,0,2.9-0.4,4.4-1.2c0.6-0.4,1.2-0.8,1.9-1.2c0.3,0.2,0.9,1,1.7,2.5
			c0.8,1.5,1.2,2.5,1.2,2.9c0,0.1-0.1,0.3-0.4,0.6c-2,2.1-5.1,3.2-9.3,3.2c-3.9,0-7-1.1-9.4-3.4c-2.4-2.3-3.7-5.4-3.7-9.2
			c0-3.7,1.1-6.8,3.3-9.2c2.2-2.5,5.2-3.7,8.9-3.7c3.1,0,5.8,1.1,8,3.4C356.3,218.4,357.4,221.1,357.4,224.2z M348.9,222.7
			c0-1-0.4-1.9-1.1-2.7c-0.7-0.8-1.6-1.1-2.6-1.1c-1,0-1.9,0.4-2.5,1.3c-0.6,0.8-0.9,1.7-0.9,2.8c0,0.4,0.2,0.7,0.7,0.7
			c1.2,0,3.1-0.2,5.6-0.6C348.6,223,348.9,222.9,348.9,222.7z"/>
		<path id="XMLID_252_" class="st1" d="M374.4,217.7c0,0.2-0.1,0.4-0.4,0.7c-0.5-0.1-0.9-0.2-1.4-0.2c-1,0-1.8,0.2-2.4,0.6
			c-0.8,0.5-1.2,1.2-1.2,2.1c0,0.6,0.4,1.3,1.2,2.2c1.3,1.3,2,2.2,2.3,2.7c0.8,1.2,1.2,2.6,1.2,4c0,0.8-0.2,1.7-0.5,2.6
			c-0.4,1-0.8,1.8-1.4,2.2c-1.2,1-2.6,1.9-4.2,2.6c-1.7,0.7-3.3,1.1-4.8,1.1c-0.3,0-1.1-0.9-2.2-2.6c-1.1-1.8-1.7-2.8-1.7-3.2
			c0-0.1,0.1-0.2,0.3-0.3c1.1-0.2,2.3-0.4,3.4-0.6c1.4-0.5,2.1-1.2,2.1-2.2c0-0.7-0.4-1.5-1.2-2.5c-1.5-1.6-2.3-2.5-2.3-2.6
			c-0.8-1.2-1.2-2.4-1.2-3.7c0-2.4,1.2-4.5,3.7-6.2c2.2-1.5,4.6-2.3,7.1-2.3c0.3,0,0.9,0.9,1.9,2.6
			C373.9,216.4,374.4,217.4,374.4,217.7z"/>
		<path id="XMLID_258_" class="st1" d="M386.9,226.3c0,1.2,0,3,0.1,5.3c0,2.4,0.1,4.1,0.1,5.3c0,0.3-0.2,0.5-0.6,0.6
			c-0.6,0.1-1.8,0.1-3.7,0.1c-2,0-3.2,0-3.8-0.1c-0.4-0.1-0.6-0.2-0.7-0.3c0-0.1,0-0.3,0-0.7c0-1.1,0-2.8,0.1-5.1
			c0-2.3,0.1-4,0.1-5.1c0-4.6-0.2-8.3-0.5-11c0-0.3,0-0.4,0-0.5c0-0.3,0.2-0.5,0.7-0.5c0.5,0,1.2,0,2.1,0.1c0.9,0.1,1.6,0.1,2.1,0.1
			c0.5,0,1.2,0,2.1-0.1c0.9-0.1,1.7-0.1,2.1-0.1c0.4,0,0.6,0.2,0.6,0.5c0,0.1,0,0.2,0,0.5C387.1,218.4,386.9,222.1,386.9,226.3z
			 M387.6,208.1c0,2.8-1.6,4.2-4.8,4.2c-1.4,0-2.5-0.4-3.4-1.1c-1-0.8-1.5-1.8-1.5-3.2c0-1.3,0.5-2.3,1.5-3.1c0.9-0.7,2-1.1,3.3-1.1
			c1.3,0,2.4,0.4,3.3,1.1C387.1,205.8,387.6,206.9,387.6,208.1z"/>
		<path id="XMLID_267_" class="st1" d="M416,231.1c0,4.6-1,8-2.9,10c-2,2.1-5.4,3.1-10.1,3.1c-1.4,0-3.2-0.2-5.6-0.7
			c-3-0.6-4.5-1.2-4.5-2c0-0.3,0.3-1.9,1-4.8c0.1-0.5,0.3-0.7,0.5-0.7c0.1,0,0.2,0,0.3,0.1c2.5,1.2,4.8,1.9,7,1.9
			c1.2,0,2.3-0.3,3.5-0.9c1.4-0.7,2.1-1.6,2.1-2.6v-1.6c-1.7,1.6-3.8,2.3-6.4,2.3c-3.1,0-5.6-1.1-7.5-3.3c-1.9-2.1-2.9-4.7-2.9-7.8
			c0-3.1,0.9-5.7,2.7-7.7c1.9-2.1,4.4-3.2,7.5-3.2c2.5,0,4.3,0.9,5.6,2.6c0.3,0.4,0.4,0.5,0.5,0.5c0.1,0,0.2-0.3,0.2-0.9
			c0-1.3,0.1-2,0.4-2c0.3,0,1.7,0.1,4.2,0.4c2.6,0.3,3.9,0.4,4,0.5c0.3,0.1,0.4,0.3,0.4,0.6c0,1.1,0,2.8-0.1,5
			c-0.1,2.2-0.1,3.9-0.1,5c0,0.7,0,1.7,0,3C416,229.5,416,230.5,416,231.1z M407.5,224.4c0-1.2-0.4-2.2-1.2-3.1
			c-0.8-0.9-1.8-1.3-3-1.3c-1.2,0-2.2,0.4-3,1.3c-0.8,0.9-1.2,1.9-1.2,3.1c0,1.2,0.4,2.2,1.2,3.1c0.8,0.9,1.8,1.3,2.9,1.3
			c1.2,0,2.2-0.4,3-1.3C407.1,226.6,407.5,225.6,407.5,224.4z"/>
		<path id="XMLID_276_" class="st1" d="M444.5,236.8c0,0.4-0.2,0.7-0.7,0.8c-0.5,0.1-1.6,0.1-3.6,0.1c-2.1,0-3.3,0-3.8-0.1
			s-0.7-0.4-0.7-1c0-0.8,0-1.9,0.1-3.5c0-1.5,0.1-2.7,0.1-3.5c0-0.6,0-1.5,0-2.7c0-1.2,0-2.1,0-2.7c0-2.2-1-3.3-2.9-3.3
			c-0.6,0-1.4,0.3-2.2,0.8c-0.9,0.6-1.4,1.2-1.4,1.8v13.2c0,0.5-0.3,0.8-0.8,0.9c-0.6,0.1-1.7,0.1-3.5,0.1c-1.9,0-3.1,0-3.7-0.1
			c-0.5-0.1-0.8-0.3-0.8-0.8c0-1.3,0-3.2,0-5.7c0-2.6,0-4.5,0-5.8c0-4.1-0.3-7.2-1-9.5c0-0.1,0-0.3,0-0.4c0-0.3,0.1-0.4,0.4-0.5
			c1-0.1,2.4-0.3,4.1-0.5c2.6-0.5,4-0.8,4.4-0.8c0.2,0,0.3,0.5,0.4,1.6c0.1,1.1,0.2,1.6,0.4,1.6c-0.2,0,0.7-0.6,2.6-1.7
			c1.9-1.1,3.6-1.7,5.1-1.7c2.1,0,3.8,0.5,5.2,1.5c1.5,1.1,2.3,2.7,2.3,4.7v7.8c0,1.1,0,2.6,0,4.7
			C444.5,234.1,444.5,235.7,444.5,236.8z"/>
	</g>
	<g id="XMLID_168_">
		<path id="XMLID_171_" class="st1" d="M34.6,438.8c0,3.9-1,7.1-3.1,9.6c-2.2,2.6-5.3,3.9-9.2,3.9c-0.7,0-1.6,0-2.9-0.1
			c-1.3-0.1-2.3-0.1-2.9-0.1c-0.7,0-1,0.3-1,0.9c0,0.7,0.1,1.9,0.2,3.3c0.1,1.5,0.2,2.6,0.2,3.3c0,0.4-0.2,0.6-0.5,0.6
			c-1,0-2.5,0-4.5-0.1c-2-0.1-3.5-0.1-4.5-0.1c-0.5,0-0.7-0.2-0.7-0.7c0-1.8,0-4.5,0.1-8.1c0.1-3.6,0.1-6.3,0.1-8.1
			c0-5.1-0.2-10.5-0.7-16.1l0-0.3c0-0.3,0.2-0.5,0.7-0.6c1.3-0.2,4.1-0.2,8.4-0.2c2.6,0,5,0,7.3,0.1c3.9,0.1,7,1.3,9.3,3.6
			C33.4,431.9,34.6,435,34.6,438.8z M24.9,439.2c0-3.8-1.8-5.7-5.5-5.7c-2.6,0-4,0.1-4.1,0.4c-0.1,0.2-0.2,2.1-0.2,5.6
			c0,0.5,0,1.2,0.1,2.2c0,1,0.1,1.7,0.1,2.2c0,0.3,1.5,0.5,4.4,0.5C23.1,444.5,24.9,442.8,24.9,439.2z"/>
		<path id="XMLID_179_" class="st1" d="M54,444.8c0,0.6-0.4,1-1,1c-0.3,0-0.8,0-1.4-0.1c-0.6,0-1-0.1-1.3-0.1
			c-1.4,0-2.3,0.2-2.8,0.6c-0.5,0.4-0.7,1.3-0.7,2.6c0,0.7,0,1.8,0,3.2c0,1.4,0,2.5,0,3.2c0,0.5,0,1.2,0.1,2.1
			c0.1,0.9,0.1,1.6,0.1,2.1c0,0.4-0.3,0.6-0.8,0.7c-0.8,0.1-2,0.1-3.6,0.1c-1.5,0-2.8,0-3.7-0.1c-0.5-0.1-0.8-0.3-0.8-0.8
			c0-1.3,0-3.3,0-5.8c0-2.6,0-4.5,0-5.8c0-3.8-0.4-7-1-9.4c0-0.1,0-0.3,0-0.4c0-0.2,0.1-0.4,0.4-0.5c0.9-0.1,2.2-0.3,3.9-0.5
			c2.6-0.5,3.9-0.8,4-0.8c0.3,0,0.5,0.5,0.6,1.5c0.1,1,0.2,1.5,0.4,1.5c-0.2,0,0.4-0.4,2-1.3c1.6-0.9,3.1-1.3,4.5-1.3
			c0.9,0,1.4,0.2,1.4,0.6c0,0.5,0,1.1-0.1,2c-0.1,0.9-0.2,1.6-0.2,2c0,0.5,0,1.1,0,1.9C54,443.8,54,444.5,54,444.8z"/>
		<path id="XMLID_181_" class="st1" d="M80.3,448c0,3.7-1.1,6.7-3.4,9c-2.3,2.3-5.3,3.5-8.9,3.5c-3.6,0-6.5-1.1-8.8-3.4
			c-2.3-2.3-3.5-5.2-3.5-8.8c0-3.8,1.1-6.8,3.3-9.2c2.2-2.4,5.2-3.5,9-3.5c3.7,0,6.7,1.2,8.9,3.5C79.2,441.3,80.3,444.3,80.3,448z
			 M72.3,448c0-1.3-0.4-2.4-1.2-3.4c-0.8-1-1.8-1.5-3.1-1.5c-1.3,0-2.3,0.5-3.2,1.5c-0.8,0.9-1.2,2.1-1.2,3.4c0,1.3,0.4,2.5,1.2,3.4
			c0.8,1,1.9,1.5,3.2,1.5c1.3,0,2.3-0.5,3.1-1.5C72,450.4,72.3,449.3,72.3,448z"/>
		<path id="XMLID_186_" class="st1" d="M107.6,453.7c0,4.6-1,8-2.9,10c-2,2.1-5.4,3.1-10.1,3.1c-1.4,0-3.2-0.2-5.6-0.7
			c-3-0.6-4.5-1.2-4.5-2c0-0.3,0.3-1.9,1-4.8c0.1-0.5,0.3-0.7,0.5-0.7c0.1,0,0.2,0,0.3,0.1c2.5,1.2,4.8,1.9,7,1.9
			c1.2,0,2.3-0.3,3.5-0.9c1.4-0.7,2.1-1.6,2.1-2.6v-1.6c-1.7,1.6-3.8,2.3-6.4,2.3c-3.1,0-5.6-1.1-7.5-3.3c-1.9-2.1-2.9-4.7-2.9-7.8
			c0-3.1,0.9-5.7,2.7-7.7c1.9-2.1,4.4-3.2,7.5-3.2c2.5,0,4.3,0.9,5.6,2.6c0.3,0.4,0.4,0.5,0.5,0.5c0.1,0,0.2-0.3,0.2-0.9
			c0-1.3,0.1-2,0.4-2c0.3,0,1.7,0.1,4.2,0.4c2.6,0.3,3.9,0.4,4,0.5c0.3,0.1,0.4,0.3,0.4,0.6c0,1.1,0,2.8-0.1,5
			c-0.1,2.2-0.1,3.9-0.1,5c0,0.7,0,1.7,0,3C107.6,452,107.6,453,107.6,453.7z M99.2,446.9c0-1.2-0.4-2.2-1.2-3.1
			c-0.8-0.9-1.8-1.3-3-1.3c-1.2,0-2.2,0.4-3,1.3c-0.8,0.9-1.2,1.9-1.2,3.1c0,1.2,0.4,2.2,1.2,3.1c0.8,0.9,1.8,1.3,2.9,1.3
			c1.2,0,2.2-0.4,3-1.3C98.8,449.1,99.2,448.1,99.2,446.9z"/>
		<path id="XMLID_193_" class="st1" d="M128,444.8c0,0.6-0.4,1-1,1c-0.3,0-0.8,0-1.4-0.1c-0.6,0-1-0.1-1.3-0.1
			c-1.4,0-2.3,0.2-2.8,0.6c-0.5,0.4-0.7,1.3-0.7,2.6c0,0.7,0,1.8,0,3.2c0,1.4,0,2.5,0,3.2c0,0.5,0,1.2,0.1,2.1
			c0.1,0.9,0.1,1.6,0.1,2.1c0,0.4-0.3,0.6-0.8,0.7c-0.8,0.1-2,0.1-3.6,0.1c-1.5,0-2.8,0-3.7-0.1c-0.5-0.1-0.8-0.3-0.8-0.8
			c0-1.3,0-3.3,0-5.8c0-2.6,0-4.5,0-5.8c0-3.8-0.4-7-1-9.4c0-0.1,0-0.3,0-0.4c0-0.2,0.1-0.4,0.4-0.5c0.9-0.1,2.2-0.3,3.9-0.5
			c2.6-0.5,3.9-0.8,4-0.8c0.3,0,0.5,0.5,0.6,1.5c0.1,1,0.2,1.5,0.4,1.5c-0.2,0,0.4-0.4,2-1.3c1.6-0.9,3.1-1.3,4.5-1.3
			c0.9,0,1.4,0.2,1.4,0.6c0,0.5,0,1.1-0.1,2c-0.1,0.9-0.2,1.6-0.2,2c0,0.5,0,1.1,0,1.9C128,443.8,128,444.5,128,444.8z"/>
		<path id="XMLID_195_" class="st1" d="M155.4,447.8c0,1.3,0.1,3.1,0.2,5.6c0.1,2.5,0.2,4.3,0.2,5.6c0,0.7-0.3,1-0.9,1
			c-2,0.1-4.3,0.2-6.9,0.2c-0.3,0-0.5-0.5-0.6-1.4c-0.1-0.9-0.2-1.4-0.4-1.4c-0.1,0.1-0.3,0.2-0.5,0.4c-1.8,1.8-3.8,2.8-5.9,2.8
			c-3.2,0-5.8-1.3-7.9-3.8c-2-2.3-3-5.1-3-8.4c0-3.8,1-6.8,3.1-9.1c2.1-2.4,5-3.6,8.7-3.6c2.6,0,4.6,0.9,6.1,2.7
			c0.1,0.1,0.1,0.1,0.2,0.1c0.1,0,0.3-0.4,0.5-1.2c0.2-0.8,0.4-1.2,0.7-1.2c0.6,0,1.7,0.2,3.4,0.5c1.6,0.3,2.8,0.6,3.5,0.8
			c0.2,0.1,0.4,0.2,0.4,0.4c0,0.1,0,0.2-0.1,0.5C155.7,441.4,155.4,444.5,155.4,447.8z M147.6,447.9c0-1.4-0.4-2.5-1.3-3.4
			c-0.9-0.9-2-1.4-3.4-1.4c-1.4,0-2.5,0.4-3.4,1.3c-0.9,0.9-1.3,2-1.3,3.4c0,1.3,0.5,2.5,1.4,3.4c0.9,0.9,2,1.4,3.3,1.4
			c1.4,0,2.5-0.5,3.4-1.4C147.1,450.5,147.6,449.3,147.6,447.9z"/>
		<path id="XMLID_199_" class="st1" d="M199.3,459.1c0,0.6-0.2,0.9-0.7,1s-1.7,0.1-3.6,0.1c-2,0-3.2,0-3.7-0.1s-0.7-0.5-0.7-1.2
			c0-0.7,0-1.9,0.1-3.4c0-1.5,0.1-2.6,0.1-3.4c0-2.8,0-4.9-0.1-6.1c-0.1-1.9-1-2.9-2.8-2.9c-0.8,0-1.5,0.3-2.3,1
			c-0.8,0.6-1.2,1.4-1.3,2.1c-0.1,0.7-0.1,2.7-0.1,6c0,0.8,0,1.9,0.1,3.5c0,1.6,0.1,2.7,0.1,3.5c0,0.5-0.2,0.8-0.7,0.8h-7.4
			c-0.5,0-0.7-0.3-0.7-1c0-0.8,0-1.9,0.1-3.4c0-1.5,0.1-2.7,0.1-3.5c0-0.6,0-1.5,0-2.7c0-1.2,0-2.1,0-2.8c0-2.3-0.9-3.5-2.7-3.5
			c-0.7,0-1.5,0.3-2.3,0.8c-0.9,0.6-1.4,1.2-1.4,1.9c0,1.5,0,3.7,0,6.6c0,2.9,0,5.2,0,6.6c0,0.4,0,0.7-0.1,0.8s-0.4,0.2-0.8,0.2
			c-0.7,0.1-1.9,0.1-3.5,0.1c-1,0-2.2,0-3.5-0.1c-0.4,0-0.6-0.1-0.7-0.2c-0.1-0.1-0.1-0.3-0.1-0.7c0-1.3,0-3.3,0-5.8
			c0-2.6,0-4.5,0-5.8c0-2.7-0.2-5.7-0.6-9c0-0.2,0-0.3,0-0.4c0-0.3,0.1-0.5,0.3-0.6c0.4-0.1,1-0.3,2-0.4c1.2-0.1,1.9-0.2,2.2-0.2
			c0.2,0,0.8-0.2,1.9-0.5c0.8-0.2,1.4-0.3,1.9-0.3c0.3,0,0.5,0.6,0.5,1.7c0,1.1,0.1,1.7,0.2,1.7c0.2-0.1,0.3-0.2,0.6-0.3
			c1.5-1.1,2.6-1.9,3.5-2.3c1.3-0.6,2.6-0.9,4.1-0.9c1.5,0,2.8,0.3,4,1c1.3,0.7,2.2,1.8,2.6,3.1c0.9-1.2,2.1-2.2,3.6-3
			c1.5-0.8,3-1.2,4.4-1.2c2.1,0,3.9,0.5,5.2,1.5c1.5,1.1,2.3,2.7,2.3,4.8c0,0.9,0,2.2-0.1,3.9c0,1.7-0.1,3-0.1,3.9
			c0,1,0,2.6,0.1,4.6C199.3,456.5,199.3,458.1,199.3,459.1z"/>
		<path id="XMLID_219_" class="st1" d="M242.9,459.1c0,0.6-0.2,0.9-0.7,1s-1.7,0.1-3.6,0.1c-2,0-3.2,0-3.7-0.1s-0.7-0.5-0.7-1.2
			c0-0.7,0-1.9,0.1-3.4c0-1.5,0.1-2.6,0.1-3.4c0-2.8,0-4.9-0.1-6.1c-0.1-1.9-1-2.9-2.8-2.9c-0.8,0-1.5,0.3-2.3,1
			c-0.8,0.6-1.2,1.4-1.3,2.1c-0.1,0.7-0.1,2.7-0.1,6c0,0.8,0,1.9,0.1,3.5c0,1.6,0.1,2.7,0.1,3.5c0,0.5-0.2,0.8-0.7,0.8h-7.4
			c-0.5,0-0.7-0.3-0.7-1c0-0.8,0-1.9,0.1-3.4c0-1.5,0.1-2.7,0.1-3.5c0-0.6,0-1.5,0-2.7c0-1.2,0-2.1,0-2.8c0-2.3-0.9-3.5-2.7-3.5
			c-0.7,0-1.5,0.3-2.3,0.8c-0.9,0.6-1.4,1.2-1.4,1.9c0,1.5,0,3.7,0,6.6c0,2.9,0,5.2,0,6.6c0,0.4,0,0.7-0.1,0.8s-0.4,0.2-0.8,0.2
			c-0.7,0.1-1.9,0.1-3.5,0.1c-1,0-2.2,0-3.5-0.1c-0.4,0-0.6-0.1-0.7-0.2c-0.1-0.1-0.1-0.3-0.1-0.7c0-1.3,0-3.3,0-5.8
			c0-2.6,0-4.5,0-5.8c0-2.7-0.2-5.7-0.6-9c0-0.2,0-0.3,0-0.4c0-0.3,0.1-0.5,0.3-0.6c0.4-0.1,1-0.3,2-0.4c1.2-0.1,1.9-0.2,2.2-0.2
			c0.2,0,0.8-0.2,1.9-0.5c0.8-0.2,1.4-0.3,1.9-0.3c0.3,0,0.5,0.6,0.5,1.7c0,1.1,0.1,1.7,0.2,1.7c0.2-0.1,0.3-0.2,0.6-0.3
			c1.5-1.1,2.6-1.9,3.5-2.3c1.3-0.6,2.6-0.9,4.1-0.9c1.5,0,2.8,0.3,4,1c1.3,0.7,2.2,1.8,2.6,3.1c0.9-1.2,2.1-2.2,3.6-3
			c1.5-0.8,3-1.2,4.4-1.2c2.1,0,3.9,0.5,5.2,1.5c1.5,1.1,2.3,2.7,2.3,4.8c0,0.9,0,2.2-0.1,3.9c0,1.7-0.1,3-0.1,3.9
			c0,1,0,2.6,0.1,4.6C242.9,456.5,242.9,458.1,242.9,459.1z"/>
		<path id="XMLID_222_" class="st1" d="M256.6,448.8c0,1.2,0,3,0.1,5.3c0,2.4,0.1,4.1,0.1,5.3c0,0.3-0.2,0.5-0.6,0.6
			c-0.6,0.1-1.8,0.1-3.7,0.1c-2,0-3.2,0-3.8-0.1c-0.4-0.1-0.6-0.2-0.7-0.3c0-0.1,0-0.3,0-0.7c0-1.1,0-2.8,0.1-5.1
			c0-2.3,0.1-4,0.1-5.1c0-4.6-0.2-8.3-0.5-11c0-0.3,0-0.4,0-0.5c0-0.3,0.2-0.5,0.7-0.5c0.5,0,1.2,0,2.1,0.1c0.9,0.1,1.6,0.1,2.1,0.1
			c0.5,0,1.2,0,2.1-0.1c0.9-0.1,1.7-0.1,2.1-0.1c0.4,0,0.6,0.2,0.6,0.5c0,0.1,0,0.2,0,0.5C256.8,440.9,256.6,444.6,256.6,448.8z
			 M257.2,430.7c0,2.8-1.6,4.2-4.8,4.2c-1.4,0-2.5-0.4-3.4-1.1c-1-0.8-1.5-1.8-1.5-3.2c0-1.3,0.5-2.3,1.5-3.1c0.9-0.7,2-1.1,3.3-1.1
			c1.3,0,2.4,0.4,3.3,1.1C256.7,428.4,257.2,429.4,257.2,430.7z"/>
		<path id="XMLID_227_" class="st1" d="M285.6,459.3c0,0.4-0.2,0.7-0.7,0.8c-0.5,0.1-1.6,0.1-3.6,0.1c-2.1,0-3.3,0-3.8-0.1
			s-0.7-0.4-0.7-1c0-0.8,0-1.9,0.1-3.5c0-1.5,0.1-2.7,0.1-3.5c0-0.6,0-1.5,0-2.7c0-1.2,0-2.1,0-2.7c0-2.2-1-3.3-2.9-3.3
			c-0.6,0-1.4,0.3-2.2,0.8c-0.9,0.6-1.4,1.2-1.4,1.8v13.2c0,0.5-0.3,0.8-0.8,0.9c-0.6,0.1-1.7,0.1-3.5,0.1c-1.9,0-3.1,0-3.7-0.1
			c-0.5-0.1-0.8-0.3-0.8-0.8c0-1.3,0-3.2,0-5.7c0-2.6,0-4.5,0-5.8c0-4.1-0.3-7.2-1-9.5c0-0.1,0-0.3,0-0.4c0-0.3,0.1-0.4,0.4-0.5
			c1-0.1,2.4-0.3,4.1-0.5c2.6-0.5,4-0.8,4.4-0.8c0.2,0,0.3,0.5,0.4,1.6c0.1,1.1,0.2,1.6,0.4,1.6c-0.2,0,0.7-0.6,2.6-1.7
			c1.9-1.1,3.6-1.7,5.1-1.7c2.1,0,3.8,0.5,5.2,1.5c1.5,1.1,2.3,2.7,2.3,4.7v7.8c0,1.1,0,2.6,0,4.7
			C285.6,456.7,285.6,458.2,285.6,459.3z"/>
		<path id="XMLID_229_" class="st1" d="M314,453.7c0,4.6-1,8-2.9,10c-2,2.1-5.4,3.1-10.1,3.1c-1.4,0-3.2-0.2-5.6-0.7
			c-3-0.6-4.5-1.2-4.5-2c0-0.3,0.3-1.9,1-4.8c0.1-0.5,0.3-0.7,0.5-0.7c0.1,0,0.2,0,0.3,0.1c2.5,1.2,4.8,1.9,7,1.9
			c1.2,0,2.3-0.3,3.5-0.9c1.4-0.7,2.1-1.6,2.1-2.6v-1.6c-1.7,1.6-3.8,2.3-6.4,2.3c-3.1,0-5.6-1.1-7.5-3.3c-1.9-2.1-2.9-4.7-2.9-7.8
			c0-3.1,0.9-5.7,2.7-7.7c1.9-2.1,4.4-3.2,7.5-3.2c2.5,0,4.3,0.9,5.6,2.6c0.3,0.4,0.4,0.5,0.5,0.5c0.1,0,0.2-0.3,0.2-0.9
			c0-1.3,0.1-2,0.4-2c0.3,0,1.7,0.1,4.2,0.4c2.6,0.3,3.9,0.4,4,0.5c0.3,0.1,0.4,0.3,0.4,0.6c0,1.1,0,2.8-0.1,5
			c-0.1,2.2-0.1,3.9-0.1,5c0,0.7,0,1.7,0,3C314,452,314,453,314,453.7z M305.5,446.9c0-1.2-0.4-2.2-1.2-3.1c-0.8-0.9-1.8-1.3-3-1.3
			c-1.2,0-2.2,0.4-3,1.3c-0.8,0.9-1.2,1.9-1.2,3.1c0,1.2,0.4,2.2,1.2,3.1c0.8,0.9,1.8,1.3,2.9,1.3c1.2,0,2.2-0.4,3-1.3
			C305.1,449.1,305.5,448.1,305.5,446.9z"/>
	</g>
	<g id="XMLID_87_">
		<path id="XMLID_88_" class="st1" d="M39.3,54.9c0,0.3-0.2,0.5-0.6,0.6c-0.5,0.1-2,0.2-4.5,0.2c-2.3,0-3.8-0.1-4.5-0.2
			c-0.6-0.1-0.9-0.5-1-1.1c-0.6-2.3-1-3.6-1.3-3.8c-0.3-0.1-2.4-0.2-6.5-0.2c-2.8,0-4.2,0.1-4.4,0.2c-0.3,0.3-0.6,1.1-0.9,2.6
			c-0.3,1.4-0.7,2.1-1.1,2.2c-0.6,0.1-2.4,0.2-5.6,0.2C6.2,55.7,5,55.4,5,55c0-0.4,1.8-5.6,5.5-15.6c4-10.8,6.2-16.7,6.5-17.8
			c0.2-0.6,0.4-0.9,0.7-0.9c0.4,0,1.1,0,2,0.1c0.9,0.1,1.6,0.1,2.1,0.1c0.4,0,1.1,0,1.9-0.1c0.9-0.1,1.5-0.1,1.9-0.1
			c0.3,0,0.6,0.3,0.9,0.8c0.8,1.7,3.1,7.6,7,17.6C37.3,49.2,39.3,54.4,39.3,54.9z M22,32.6c-0.3,0.7-0.9,2.3-1.7,4.7
			c-0.9,2.5-1.3,4-1.3,4.5c0,0.3,0.5,0.5,1.5,0.5c0.5,0,1.3,0,2.5,0c1.1,0,1.7-0.1,1.8-0.4c0-0.1,0-0.2,0-0.3c0-0.5-0.4-2-1.1-4.4
			C22.9,34.8,22.3,33.3,22,32.6z"/>
		<path id="XMLID_91_" class="st1" d="M65.9,54.8c0,0.4-0.2,0.7-0.7,0.8c-0.5,0.1-1.6,0.1-3.6,0.1c-2.1,0-3.3,0-3.8-0.1
			s-0.7-0.4-0.7-1c0-0.8,0-1.9,0.1-3.5c0-1.5,0.1-2.7,0.1-3.5c0-0.6,0-1.5,0-2.7c0-1.2,0-2.1,0-2.7c0-2.2-1-3.3-2.9-3.3
			c-0.6,0-1.4,0.3-2.2,0.8c-0.9,0.6-1.4,1.2-1.4,1.8v13.2c0,0.5-0.3,0.8-0.8,0.9c-0.6,0.1-1.7,0.1-3.5,0.1c-1.9,0-3.1,0-3.7-0.1
			c-0.5-0.1-0.8-0.3-0.8-0.8c0-1.3,0-3.2,0-5.7c0-2.6,0-4.5,0-5.8c0-4.1-0.3-7.2-1-9.5c0-0.1,0-0.3,0-0.4c0-0.3,0.1-0.4,0.4-0.5
			c1-0.1,2.4-0.3,4.1-0.5c2.6-0.5,4-0.8,4.4-0.8c0.2,0,0.3,0.5,0.4,1.6c0.1,1.1,0.2,1.6,0.4,1.6c-0.2,0,0.7-0.6,2.6-1.7
			c1.9-1.1,3.6-1.7,5.1-1.7c2.1,0,3.8,0.5,5.2,1.5c1.5,1.1,2.3,2.7,2.3,4.7v7.8c0,1.1,0,2.6,0,4.7C65.9,52.1,65.9,53.7,65.9,54.8z"
			/>
		<path id="XMLID_93_" class="st1" d="M79,44.3c0,1.2,0,3,0.1,5.3c0,2.4,0.1,4.1,0.1,5.3c0,0.3-0.2,0.5-0.6,0.6
			c-0.6,0.1-1.8,0.1-3.7,0.1c-2,0-3.2,0-3.8-0.1c-0.4-0.1-0.6-0.2-0.7-0.3c0-0.1,0-0.3,0-0.7c0-1.1,0-2.8,0.1-5.1
			c0-2.3,0.1-4,0.1-5.1c0-4.6-0.2-8.3-0.5-11c0-0.3,0-0.4,0-0.5c0-0.3,0.2-0.5,0.7-0.5c0.5,0,1.2,0,2.1,0.1c0.9,0.1,1.6,0.1,2.1,0.1
			c0.5,0,1.2,0,2.1-0.1c0.9-0.1,1.7-0.1,2.1-0.1c0.4,0,0.6,0.2,0.6,0.5c0,0.1,0,0.2,0,0.5C79.2,36.4,79,40.1,79,44.3z M79.6,26.1
			c0,2.8-1.6,4.2-4.8,4.2c-1.4,0-2.5-0.4-3.4-1.1c-1-0.8-1.5-1.8-1.5-3.2c0-1.3,0.5-2.3,1.5-3.1c0.9-0.7,2-1.1,3.3-1.1
			c1.3,0,2.4,0.4,3.3,1.1C79.1,23.8,79.6,24.9,79.6,26.1z"/>
		<path id="XMLID_96_" class="st1" d="M122.7,54.6c0,0.6-0.2,0.9-0.7,1s-1.7,0.1-3.6,0.1c-2,0-3.2,0-3.7-0.1s-0.7-0.5-0.7-1.2
			c0-0.7,0-1.9,0.1-3.4c0-1.5,0.1-2.6,0.1-3.4c0-2.8,0-4.9-0.1-6.1c-0.1-1.9-1-2.9-2.8-2.9c-0.8,0-1.5,0.3-2.3,1
			c-0.8,0.6-1.2,1.4-1.3,2.1c-0.1,0.7-0.1,2.7-0.1,6c0,0.8,0,1.9,0.1,3.5c0,1.6,0.1,2.7,0.1,3.5c0,0.5-0.2,0.8-0.7,0.8h-7.4
			c-0.5,0-0.7-0.3-0.7-1c0-0.8,0-1.9,0.1-3.4c0-1.5,0.1-2.7,0.1-3.5c0-0.6,0-1.5,0-2.7c0-1.2,0-2.1,0-2.8c0-2.3-0.9-3.5-2.7-3.5
			c-0.7,0-1.5,0.3-2.3,0.8c-0.9,0.6-1.4,1.2-1.4,1.9c0,1.5,0,3.7,0,6.6c0,2.9,0,5.2,0,6.6c0,0.4,0,0.7-0.1,0.8s-0.4,0.2-0.8,0.2
			c-0.7,0.1-1.9,0.1-3.5,0.1c-1,0-2.2,0-3.5-0.1c-0.4,0-0.6-0.1-0.7-0.2C84,55.2,84,55,84,54.6c0-1.3,0-3.3,0-5.8c0-2.6,0-4.5,0-5.8
			c0-2.7-0.2-5.7-0.6-9c0-0.2,0-0.3,0-0.4c0-0.3,0.1-0.5,0.3-0.6c0.4-0.1,1-0.3,2-0.4c1.2-0.1,1.9-0.2,2.2-0.2
			c0.2,0,0.8-0.2,1.9-0.5c0.8-0.2,1.4-0.3,1.9-0.3c0.3,0,0.5,0.6,0.5,1.7c0,1.1,0.1,1.7,0.2,1.7c0.2-0.1,0.3-0.2,0.6-0.3
			c1.5-1.1,2.6-1.9,3.5-2.3c1.3-0.6,2.6-0.9,4.1-0.9c1.5,0,2.8,0.3,4,1c1.3,0.7,2.2,1.8,2.6,3.1c0.9-1.2,2.1-2.2,3.6-3
			c1.5-0.8,3-1.2,4.4-1.2c2.1,0,3.9,0.5,5.2,1.5c1.5,1.1,2.3,2.7,2.3,4.8c0,0.9,0,2.2-0.1,3.9c0,1.7-0.1,3-0.1,3.9
			c0,1,0,2.6,0.1,4.6C122.7,52,122.7,53.6,122.7,54.6z"/>
		<path id="XMLID_98_" class="st1" d="M151.9,43.3c0,1.3,0.1,3.1,0.2,5.6c0.1,2.5,0.2,4.3,0.2,5.6c0,0.7-0.3,1-0.9,1
			c-2,0.1-4.3,0.2-6.9,0.2c-0.3,0-0.5-0.5-0.6-1.4c-0.1-0.9-0.2-1.4-0.4-1.4c-0.1,0.1-0.3,0.2-0.5,0.4c-1.8,1.8-3.8,2.8-5.9,2.8
			c-3.2,0-5.8-1.3-7.9-3.8c-2-2.3-3-5.1-3-8.4c0-3.8,1-6.8,3.1-9.1c2.1-2.4,5-3.6,8.7-3.6c2.6,0,4.6,0.9,6.1,2.7
			c0.1,0.1,0.1,0.1,0.2,0.1c0.1,0,0.3-0.4,0.5-1.2c0.2-0.8,0.4-1.2,0.7-1.2c0.6,0,1.7,0.2,3.4,0.5c1.6,0.3,2.8,0.6,3.5,0.8
			c0.2,0.1,0.4,0.2,0.4,0.4c0,0.1,0,0.2-0.1,0.5C152.1,36.9,151.9,40,151.9,43.3z M144,43.4c0-1.4-0.4-2.5-1.3-3.4
			c-0.9-0.9-2-1.4-3.4-1.4c-1.4,0-2.5,0.4-3.4,1.3c-0.9,0.9-1.3,2-1.3,3.4c0,1.3,0.5,2.5,1.4,3.4c0.9,0.9,2,1.4,3.3,1.4
			c1.4,0,2.5-0.5,3.4-1.4C143.6,46,144,44.8,144,43.4z"/>
		<path id="XMLID_101_" class="st1" d="M173.1,48.3c0,0.5-0.1,1.2-0.2,2.2c-0.1,1-0.2,1.7-0.2,2.2c0,0.5,0,0.8-0.1,0.9
			c-0.1,0.1-0.4,0.3-0.8,0.6c-2.1,1.2-4.4,1.7-7,1.7c-4.7,0-7.1-1.8-7.1-5.4c0-1.1,0-2.7,0.1-4.8c0.1-2.2,0.1-3.8,0.1-4.8
			c0-0.7-0.4-1.1-1.2-1.1c-0.1,0-0.2,0-0.3,0c-0.1,0-0.3,0-0.3,0c-0.6,0-0.9-0.2-0.9-0.7c0-0.3,0-0.7,0.1-1.2c0-0.5,0.1-0.9,0.1-1.2
			c0-0.3,0-0.9-0.1-1.6c0-0.7-0.1-1.2-0.1-1.6c0-0.3,0.5-0.5,1.6-0.5c0.6,0,0.9-0.2,1-0.5c0.1-0.6,0.1-1.6,0.1-2.9
			c-0.1-2.1-0.1-3.1-0.1-3c0-1.9,0.2-2.8,0.5-2.8c0.4,0,1.1,0.1,1.9,0.3c0.9,0.2,1.6,0.3,1.9,0.4c0.8,0.1,2.1,0.3,3.8,0.5
			c0.4,0,0.6,0.2,0.6,0.4c0,0.7-0.1,1.6-0.2,3c-0.1,1.3-0.2,2.3-0.2,3c0,0.8,0.2,1.2,0.7,1.2c0.6,0,1.4,0,2.6-0.1
			c1.2,0,2-0.1,2.6-0.1c0.4,0,0.5,0.1,0.5,0.4c0,0.4,0,0.9-0.1,1.7c-0.1,0.7-0.1,1.3-0.1,1.7c0,0.4,0,1,0,1.7c0,0.7,0,1.3,0,1.7
			c0,0.3-0.2,0.5-0.7,0.5c-0.3,0-0.9,0-1.6,0c-0.8,0-1.3,0-1.6,0h-1.8c-0.2,0-0.4,0.4-0.4,1.1c0,0.4,0,1,0,1.7c0,0.8,0,1.4,0,1.7
			c0,1.4,0.2,2.3,0.5,2.8c0.4,0.7,1.3,1,2.6,1c0.4,0,1-0.1,1.7-0.3c0.8-0.2,1.3-0.3,1.6-0.3C172.9,47.8,173.1,48,173.1,48.3z"/>
		<path id="XMLID_104_" class="st1" d="M184.7,44.3c0,1.2,0,3,0.1,5.3c0,2.4,0.1,4.1,0.1,5.3c0,0.3-0.2,0.5-0.6,0.6
			c-0.6,0.1-1.8,0.1-3.7,0.1c-2,0-3.2,0-3.8-0.1c-0.4-0.1-0.6-0.2-0.7-0.3c0-0.1,0-0.3,0-0.7c0-1.1,0-2.8,0.1-5.1
			c0-2.3,0.1-4,0.1-5.1c0-4.6-0.2-8.3-0.5-11c0-0.3,0-0.4,0-0.5c0-0.3,0.2-0.5,0.7-0.5c0.5,0,1.2,0,2.1,0.1c0.9,0.1,1.6,0.1,2.1,0.1
			c0.5,0,1.2,0,2.1-0.1c0.9-0.1,1.7-0.1,2.1-0.1c0.4,0,0.6,0.2,0.6,0.5c0,0.1,0,0.2,0,0.5C184.8,36.4,184.7,40.1,184.7,44.3z
			 M185.3,26.1c0,2.8-1.6,4.2-4.8,4.2c-1.4,0-2.5-0.4-3.4-1.1c-1-0.8-1.5-1.8-1.5-3.2c0-1.3,0.5-2.3,1.5-3.1c0.9-0.7,2-1.1,3.3-1.1
			c1.3,0,2.4,0.4,3.3,1.1C184.8,23.8,185.3,24.9,185.3,26.1z"/>
		<path id="XMLID_107_" class="st1" d="M212.9,43.5c0,3.7-1.1,6.7-3.4,9c-2.3,2.3-5.3,3.5-8.9,3.5c-3.6,0-6.5-1.1-8.8-3.4
			c-2.3-2.3-3.5-5.2-3.5-8.8c0-3.8,1.1-6.8,3.3-9.2c2.2-2.4,5.2-3.5,9-3.5c3.7,0,6.7,1.2,8.9,3.5C211.7,36.8,212.9,39.8,212.9,43.5z
			 M204.9,43.5c0-1.3-0.4-2.4-1.2-3.4c-0.8-1-1.8-1.5-3.1-1.5c-1.3,0-2.3,0.5-3.2,1.5c-0.8,0.9-1.2,2.1-1.2,3.4
			c0,1.3,0.4,2.5,1.2,3.4c0.8,1,1.9,1.5,3.2,1.5c1.3,0,2.3-0.5,3.1-1.5C204.5,45.9,204.9,44.8,204.9,43.5z"/>
		<path id="XMLID_166_" class="st1" d="M240.1,54.8c0,0.4-0.2,0.7-0.7,0.8c-0.5,0.1-1.6,0.1-3.6,0.1c-2.1,0-3.3,0-3.8-0.1
			s-0.7-0.4-0.7-1c0-0.8,0-1.9,0.1-3.5c0-1.5,0.1-2.7,0.1-3.5c0-0.6,0-1.5,0-2.7c0-1.2,0-2.1,0-2.7c0-2.2-1-3.3-2.9-3.3
			c-0.6,0-1.4,0.3-2.2,0.8c-0.9,0.6-1.4,1.2-1.4,1.8v13.2c0,0.5-0.3,0.8-0.8,0.9c-0.6,0.1-1.7,0.1-3.5,0.1c-1.9,0-3.1,0-3.7-0.1
			c-0.5-0.1-0.8-0.3-0.8-0.8c0-1.3,0-3.2,0-5.7c0-2.6,0-4.5,0-5.8c0-4.1-0.3-7.2-1-9.5c0-0.1,0-0.3,0-0.4c0-0.3,0.1-0.4,0.4-0.5
			c1-0.1,2.4-0.3,4.1-0.5c2.6-0.5,4-0.8,4.4-0.8c0.2,0,0.3,0.5,0.4,1.6c0.1,1.1,0.2,1.6,0.4,1.6c-0.2,0,0.7-0.6,2.6-1.7
			c1.9-1.1,3.6-1.7,5.1-1.7c2.1,0,3.8,0.5,5.2,1.5c1.5,1.1,2.3,2.7,2.3,4.7v7.8c0,1.1,0,2.6,0,4.7C240.1,52.1,240.1,53.7,240.1,54.8
			z"/>
	</g>
	<g id="XMLID_164_">
		<circle id="XMLID_169_" class="st2" cx="409.8" cy="45.5" r="17"/>
		<ellipse id="XMLID_157_" class="st2" cx="403.4" cy="63.9" rx="5.6" ry="2"/>
		<circle id="XMLID_159_" class="st2" cx="431.7" cy="54.2" r="9.1"/>
		<circle id="XMLID_184_" class="st2" cx="329.6" cy="43.9" r="17"/>
		<circle id="XMLID_158_" class="st2" cx="384.6" cy="38.2" r="9.1"/>
		<rect id="XMLID_201_" x="231.5" y="65.1" class="st3" width="216.5" height="0.4"/>
		<path id="XMLID_200_" class="st4" d="M415.3,151c-3.1,4.1,0.5,11.9,0.5,11.9s8.5,1.3,11.6-2.7c3.1-4.1-0.5-11.9-0.5-11.9
			S418.3,146.9,415.3,151z"/>
		<path id="XMLID_155_" class="st3" d="M303.8,16.7c-7-7.4-22.4-4.5-22.5-4.5l-0.1-0.4c0.2,0,15.8-3,22.9,4.6L303.8,16.7z"/>
		<path id="XMLID_154_" class="st5" d="M305.6,18.7c-1.1-0.7-2.7-1.5-4-1.7l2.2-0.7l1.2-1.9C304.9,15.7,305.2,17.4,305.6,18.7z"/>
		<path id="XMLID_153_" class="st5" d="M374,28.8c-7-7.4-22.4-4.5-22.5-4.5l-0.1-0.4c0.2,0,15.8-3,22.9,4.6L374,28.8z"/>
		<path id="XMLID_152_" class="st3" d="M375.7,30.8c-1.1-0.7-2.7-1.5-4-1.7l2.2-0.7l1.2-1.9C375,27.8,375.3,29.5,375.7,30.8z"/>
		<path id="XMLID_151_" class="st6" d="M375.2,48.4c0,0-4.7,0-5.3,2.9c-0.5,2.9-1.3,34.4-0.8,38.4c0.5,3.9,0.5,3.2,0.5,3.2
			s-1,7.5,1.3,7.8c2.4,0.3,2.4-8.6,2.4-8.6l1.8-32.1V48.4z"/>
		<path id="XMLID_150_" class="st6" d="M395.7,48.4c0,0,4.7,0,5.3,2.9c0.5,2.9,1.3,34.4,0.8,38.4c-0.5,3.9-0.5,3.2-0.5,3.2
			s1,7.5-1.3,7.8c-2.4,0.3-2.4-8.6-2.4-8.6l-1.8-32.1V48.4z"/>
		<path id="XMLID_149_" class="st7" d="M374.4,158.2h-2.1c-2.6,0-4.7,2.1-4.7,4.7c0,0,0,0,0,0v0h12.9v-6h-6V158.2z"/>
		<path id="XMLID_148_" class="st7" d="M394.6,158.2h2.1c2.6,0,4.7,2.1,4.7,4.7c0,0,0,0,0,0v0h-12.9v-6h6V158.2z"/>
		<circle id="XMLID_147_" class="st6" cx="383.3" cy="35.5" r="6.8"/>
		<path id="XMLID_146_" class="st6" d="M381.8,39.2c0,0-0.8,8.7-1.8,9.5s11-0.5,11-0.5s-4.2-6.3-3.4-8.4S381.8,39.2,381.8,39.2z"/>
		<path id="XMLID_145_" class="st4" d="M397.3,48.4c0,0-14.5-6-23.9,0c0,0-2.4,6-0.5,9.5c1.8,3.4,4.7,11.6,1.8,17.1
			c-2.9,5.5,0.3,3.2,0.3,3.2s-3.7,14.7-4.2,26.3c-0.5,11.6,1.6,53.1,3.2,53.3s6.6,0.8,7.1,0c0.5-0.8,4.2-55.7,4.2-55.7
			s1.6,56.2,3.2,56.2s5.8,0,6.6-1.3c0.8-1.3,7.4-52,5-62.5S396,78.6,396,78.6s2.9-1.8,2.1-2.9c-0.8-1.1-4.7-12.4-2.9-14.2
			C397,59.7,397.3,48.4,397.3,48.4z"/>
		<circle id="XMLID_144_" class="st7" cx="387.7" cy="31.4" r="11"/>
		<path id="XMLID_143_" class="st7" d="M394.6,25.9c-3.9-0.9-6.3-4.7-5.6-8.6c0,0.1-0.1,0.2-0.1,0.3c-0.9,4,1.5,8,5.5,8.9
			c4,0.9,8-1.5,8.9-5.5c0-0.1,0.1-0.2,0.1-0.3C402.3,24.5,398.4,26.8,394.6,25.9z"/>
		<circle id="XMLID_142_" class="st7" cx="395" cy="21.9" r="5.4"/>
		<rect id="XMLID_140_" x="330.7" y="162.5" class="st8" width="96.9" height="0.4"/>
		<circle id="XMLID_203_" class="st2" cx="253.5" cy="44.4" r="17"/>
		<circle id="XMLID_170_" class="st2" cx="276.9" cy="32.6" r="9.1"/>
		<circle id="XMLID_185_" class="st2" cx="230.5" cy="32.4" r="9.1"/>
		<circle id="XMLID_188_" class="st2" cx="304" cy="36.5" r="9.1"/>
		<circle id="XMLID_173_" class="st2" cx="355.2" cy="52.9" r="9.1"/>
		<circle id="XMLID_160_" class="st2" cx="413.5" cy="17.7" r="10.7"/>
		<circle id="XMLID_161_" class="st2" cx="333.4" cy="15.9" r="10.9"/>
		<ellipse id="XMLID_174_" class="st2" cx="254.5" cy="17.7" rx="9.9" ry="8.4"/>
		<ellipse id="XMLID_176_" class="st9" cx="408.8" cy="17.1" rx="2.3" ry="4.5"/>
		<ellipse id="XMLID_177_" class="st9" cx="419.4" cy="16.9" rx="2.3" ry="4.5"/>
		<ellipse id="XMLID_190_" class="st9" cx="260" cy="17.1" rx="2.3" ry="4.5"/>
		<ellipse id="XMLID_189_" class="st9" cx="250.1" cy="17.5" rx="2.3" ry="4.5"/>
		<ellipse id="XMLID_198_" class="st9" cx="329.1" cy="15.5" rx="2.3" ry="4.5"/>
		<ellipse id="XMLID_191_" class="st9" cx="338.3" cy="15.2" rx="2.3" ry="4.5"/>
		<ellipse id="XMLID_162_" class="st2" cx="252.7" cy="63.7" rx="5.6" ry="2"/>
		<ellipse id="XMLID_156_" class="st2" cx="328.3" cy="63.4" rx="5.6" ry="2"/>
	</g>
	<g id="XMLID_81_">
		<path id="XMLID_138_" class="st10" d="M292.1,391.7c0,0-12.2,8.9-7.8,14.6c4.5,5.7,16.4,10.5,16.3,16c0,5.5-5.9,19.4-0.4,14.4
			c5.5-4.9,8.6-7.1,8.9-3.7c0.3,3.4-6.1,13.3-3.1,12.8c3-0.5,5.5,0.2,5.4,3.6c-0.1,3.3-5.1,10.5-3,10.5c2.1,0,6.5-3.3,5.9-0.1
			c-0.7,3.1-3.4,11.4-1.3,9.2"/>
		<g id="XMLID_80_">
			<path id="XMLID_137_" class="st11" d="M268.6,334.8H300c1.8,0,3.2,1.4,3.2,3.2v11.2c0,1.8-1.4,3.2-3.2,3.2h-31.4
				c-1.8,0-3.2-1.4-3.2-3.2V338C265.4,336.2,266.8,334.8,268.6,334.8z"/>
			<rect id="XMLID_136_" x="268.4" y="349.6" class="st12" width="31.8" height="0.3"/>
			<rect id="XMLID_135_" x="268.4" y="337.5" class="st13" width="31.8" height="12.1"/>
			<circle id="XMLID_134_" class="st12" cx="275.8" cy="343.8" r="4.4"/>
			<circle id="XMLID_133_" class="st12" cx="292.8" cy="343.8" r="4.4"/>
			<rect id="XMLID_132_" x="281" y="352.3" class="st11" width="6.6" height="3.8"/>
			<rect id="XMLID_131_" x="270.6" y="355.1" class="st11" width="27.4" height="21.9"/>
			<rect id="XMLID_130_" x="270" y="381.4" class="st11" width="28.5" height="2.7"/>
			<polygon id="XMLID_129_" class="st11" points="274.7,390.7 274.7,394 274.7,398.9 274.7,401.7 274.7,403.3 279.6,403.3 
				279.6,401.7 279.6,398.9 279.6,394 279.6,390.7 279.6,386.9 274.7,386.9 			"/>
			<polygon id="XMLID_128_" class="st11" points="289.5,386.9 289.5,390.7 289.5,394 289.5,398.9 289.5,401.7 289.5,403.3 
				294.4,403.3 294.4,401.7 294.4,398.9 294.4,394 294.4,390.7 294.4,386.9 			"/>
			<path id="XMLID_127_" class="st11" d="M266.8,360v5.1c-1.4,0.2-2.6,0.8-3.6,1.8c-1,0.9-1.7,2-2.2,3.2c-0.6,1.6-1,3.2-1.1,4.9
				c-0.2,2.2-0.1,4.4,0.3,6.5h-5.5c-0.2-2.6-0.2-5.3,0.1-7.9c0.3-2.2,0.9-4.3,1.8-6.2c1.6-3.3,3.8-5.1,5.8-6.1
				C263.9,360.5,265.3,360.1,266.8,360z"/>
			<rect id="XMLID_126_" x="274.7" y="386.9" class="st14" width="4.9" height="3.8"/>
			<rect id="XMLID_125_" x="274.7" y="394" class="st14" width="4.9" height="4.9"/>
			<rect id="XMLID_124_" x="274.7" y="401.7" class="st14" width="4.9" height="1.6"/>
			<rect id="XMLID_123_" x="289.5" y="386.9" class="st14" width="4.9" height="3.8"/>
			<rect id="XMLID_122_" x="289.5" y="394" class="st14" width="4.9" height="4.9"/>
			<rect id="XMLID_121_" x="289.5" y="401.7" class="st14" width="4.9" height="1.6"/>
			<path id="XMLID_120_" class="st14" d="M266.8,360v5.1c-1.4,0.2-2.6,0.8-3.6,1.8l-0.7-5.7C263.9,360.5,265.3,360.1,266.8,360z"/>
			<path id="XMLID_119_" class="st14" d="M261,370c-0.6,1.6-1,3.2-1.1,4.9l-5-1.3c0.3-2.2,0.9-4.3,1.8-6.2L261,370z"/>
			<path id="XMLID_118_" class="st11" d="M301.7,360v5.1c1.4,0.2,2.6,0.8,3.6,1.8c1,0.9,1.7,2,2.2,3.2c0.6,1.6,1,3.2,1.1,4.9
				c0.2,2.2,0.1,4.4-0.3,6.5h5.5c0.2-2.6,0.2-5.3-0.1-7.9c-0.3-2.2-0.9-4.3-1.8-6.2c-1.6-3.3-3.8-5.1-5.8-6.1
				C304.7,360.5,303.2,360.1,301.7,360z"/>
			<path id="XMLID_117_" class="st14" d="M301.7,360v5.1c1.4,0.2,2.6,0.8,3.6,1.8l0.7-5.7C304.7,360.5,303.2,360.1,301.7,360z"/>
			<path id="XMLID_116_" class="st14" d="M307.6,370c0.6,1.6,1,3.2,1.1,4.9l5-1.3c-0.3-2.2-0.9-4.3-1.8-6.2L307.6,370z"/>
			<rect id="XMLID_115_" x="281" y="352.3" class="st12" width="6.6" height="0.5"/>
			<path id="XMLID_114_" class="st12" d="M298.5,359v9.2c-0.3-0.4-0.5-0.8-0.5-1.3v-6.6C298,359.8,298.2,359.3,298.5,359z"/>
			<path id="XMLID_113_" class="st12" d="M270.7,359.6v6.9c0,0.4-0.2,0.8-0.5,1.2v-9.2C270.5,358.7,270.6,359.1,270.7,359.6z"/>
			<rect id="XMLID_112_" x="272" y="377" class="st12" width="24.7" height="0.3"/>
			<rect id="XMLID_111_" x="271.4" y="384.1" class="st12" width="12.1" height="0.3"/>
			<rect id="XMLID_110_" x="284.6" y="384.1" class="st12" width="12.1" height="0.3"/>
			<rect id="XMLID_109_" x="272.7" y="318.5" class="st11" width="1.9" height="16.2"/>
			<rect id="XMLID_108_" x="294.4" y="318.5" class="st11" width="1.9" height="16.2"/>
		</g>
		<path id="XMLID_103_" class="st15" d="M281.6,434.5c0.6,1,1.6,1.6,2.6,2.1c2.7,1.7,4.8,4.4,6,7.7c0.9,2.4,1.7,5.5,4,5.7
			c0.6,0,1.1-0.1,1.7,0c2.4,0.3,2.5,4.2,4.1,6.1c1.2,1.4,3.1,1.7,4.9,1.9c2.2,0.2,4.5,0.5,6.5-0.8c0.5-0.3,1.1-0.8,1.6-0.9
			c1.3-0.4,2.6,0.7,3.9,0.3c1.8-0.4,2.6-3.1,2.1-5c-0.6-1.9-2-3.1-3.4-4.3c-3.7-3.2-7.3-6.7-9.2-11.6c-1.9-4.7-2.5-10.8-6.7-12.8
			c-1.8-0.8-4-0.7-5.3-2.3c-0.6-0.7-0.9-1.8-1.5-2.5c-1.7-2.4-5.2-2-7.5,0C281.9,421.3,279.3,430.2,281.6,434.5z"/>
		
			<linearGradient id="XMLID_206_" gradientUnits="userSpaceOnUse" x1="407.2246" y1="70.4332" x2="407.2246" y2="167.1621" gradientTransform="matrix(1 0 0 -1 -37.6617 536.634)">
			<stop  offset="0" style="stop-color:#818181;stop-opacity:0.25"/>
			<stop  offset="0.5351" style="stop-color:#818181;stop-opacity:0.12"/>
			<stop  offset="1" style="stop-color:#818181;stop-opacity:0.1"/>
		</linearGradient>
		<path id="XMLID_175_" class="st16" d="M415.7,430.8c-0.6-3.3-1-6.7-1.1-10.1v0c-0.2-5.7-4.1-10.7-9.5-12.4c-1-0.3-2-0.6-3.2-0.8
			c-10.4-2.2-13.5-0.3-13.9,0c-0.3-0.6-0.6-1.1-0.8-1.7c0-0.1,0-0.1-0.1-0.2c2.1-2.2,3.3-5,3.5-8c1.7-1.8,2.7-3.9,2.7-6.2
			c0-2-0.7-3.8-2.1-5.4v-3.1c0-7.4-6-13.5-13.5-13.5l0,0h-1.1c-7.4,0-13.5,6-13.5,13.5l0,0v3.3c-1.2,1.5-1.8,3.3-1.9,5.1
			c0,2.2,1,4.3,2.6,6c0.2,3.1,1.5,6,3.7,8.3c0.1,0.5,0.1,1.1,0.2,1.6l-18.6,3.9c0,0-7.2,0.3-11.8,9.8c-3.9,8.1-11.7,28.8-14,34.9
			l0,0l0,0c-0.4,1.1-0.7,1.8-0.7,1.8s0.1-0.1,0.2-0.2c-0.1,0.4-0.2,0.6-0.2,0.6s0.1-0.1,0.3-0.3c-0.3,2.6-0.4,7,3,7.6
			c2.8,0.5,10.1,0.7,15.6,0.7v0h0.4c3.7,0,6.4,0,6.4,0v0h59.3v-0.6c0-0.6-0.1-1.1-0.3-1.6c0,0,0.1-0.1,0.1-0.1
			c0.3,0.4,0.5,0.9,0.6,1.4c0,0.1,0,0.1,0,0.2c0,0,0,0,0-0.1c0,0.2,0,0.3,0,0.5c0,0,7.6-19.6,7.5-31.3
			C416,433.3,416,432,415.7,430.8z M368.3,410c-0.1-0.6-0.2-1.1-0.2-1.7l0,0C368.2,408.9,368.3,409.4,368.3,410z M345.3,452.1v4.7
			l-2.9,0.6L345.3,452.1z"/>
		<path id="XMLID_76_" class="st17" d="M377.1,371.4L377.1,371.4c7.4,0,13.5,6,13.5,13.5v5.7l0,0h-27l0,0v-5.7
			C363.6,377.4,369.6,371.4,377.1,371.4z"/>
		<ellipse id="XMLID_75_" class="st18" cx="377.2" cy="392.5" rx="15.4" ry="10.6"/>
		<path id="XMLID_74_" class="st19" d="M367.3,402.7c0,0,3.2,16.8,0,21.3c-3.2,4.5,9.8,6.3,9.8,6.3l13.5-4.9l1.9-12.1
			c0,0-8.2-4.6-6.5-13.9L367.3,402.7z"/>
		<path id="XMLID_73_" class="st19" d="M407.1,459.2c0,0,0.8,3.7-3.8,4.3c-2.7,0.4-5.5,0.4-8.2-0.1l-1-9.2h10.7L407.1,459.2z"/>
		<path id="XMLID_72_" class="st19" d="M325.5,454.5c0,0-2,8.3,2.6,9c4.6,0.8,21.6,0.8,21.6,0.8v-9.8l-7.7,1.6l-7.2-6.9L325.5,454.5
			z"/>
		<path id="XMLID_71_" class="st12" d="M368.3,408.1l-18,3.8c0,0-6.9,0.3-11.3,9.4c-4.4,9.1-14,35.2-14,35.2s8.2-8.3,17.8,0.6
			l6.4-11.6l-1.4,18.4h49.7v-8.7c0,0,10.4,5.6,9.6,8.7c0,0,8.9-22.9,7-33.2c-0.6-3.2-0.9-6.5-1.1-9.7v0c-0.2-5.5-3.9-10.3-9.2-11.9
			c-0.9-0.3-2-0.6-3.1-0.8c-10.6-2.3-13.4,0-13.4,0s-2.1,6.7-2,9.8c0,3.9-5.6,6.5-5.6,6.5s-8.3-2-8.7-3.6
			C370.6,419.4,367.6,410,368.3,408.1z"/>
		<path id="XMLID_70_" class="st20" d="M368.3,407.7l-18,3.8c0,0-6.9,0.3-11.3,9.4c-4.4,9.1-14,35.2-14,35.2s8.2-8.3,17.8,0.6
			l6.4-11.6l-1.4,18.4h49.7v-8.7c0,0,10.4,5.6,9.6,8.7c0,0,8.9-22.9,7-33.2c-0.6-3.2-0.9-6.5-1.1-9.7v0c-0.2-5.5-3.9-10.3-9.2-11.9
			c-0.9-0.3-2-0.6-3.1-0.8c-10.6-2.3-13.4,0-13.4,0s-2.1,6.7-2,9.8c0,3.9-5.6,6.5-5.6,6.5s-8.3-2-8.7-3.6
			C370.6,419,367.6,409.6,368.3,407.7z"/>
		<path id="XMLID_69_" class="st12" d="M386.7,406.9c-0.8-2.1-0.9-4.5-0.5-6.7l-18.7,3.3c0,0,0.3,1.4,0.6,3.5
			c4.9,5.1,13,5.2,18.1,0.3C386.4,407.2,386.6,407.1,386.7,406.9L386.7,406.9z"/>
		<path id="XMLID_68_" class="st19" d="M389.9,397.3c0,7.1-5.7,12.8-12.8,12.8c-7,0-12.6-5.5-12.8-12.5c0-0.1,0-0.2,0-0.3
			c0-4.9,2.8-9.4,7.2-11.5c0.4-0.2,0.8-0.4,1.2-0.5c2.1-0.8,4.4-1,6.6-0.6c0,0,0,0,0,0c5.8,1,10.2,5.9,10.6,11.8
			C389.9,396.7,389.9,397,389.9,397.3z"/>
		<g id="XMLID_163_" class="st21">
			<path id="XMLID_67_" class="st22" d="M372.6,385.6C372.7,385.6,372.7,385.6,372.6,385.6c-0.4,0.1-0.8,0.3-1.2,0.5
				c-4.4,2.2-7.2,6.6-7.2,11.5c0,0.1,0,0.2,0,0.3c0.4,0,0.8-0.1,1.1-0.3c3.1-1.5,5-5.9,5.7-9C371.4,387.5,371.7,386.2,372.6,385.6z"
				/>
			<path id="XMLID_66_" class="st22" d="M382.5,386c-1-0.5-2.1-0.8-3.2-1c0.9,0.2,1.7,0.7,2.3,1.4c0.3,0.4,0.5,0.8,0.7,1.2
				c-3.5-1.5-7.4-1.4-10.8,0.2c0.8,1.8,3.3,2.7,5,3.4c1.8,0.7,3.7,1.3,5.5,1.9c-0.5-0.4-1.1-0.9-1.6-1.3c1.2,0.2,2.5,0.4,3.7,0.6
				c0-0.7,0-1.5-0.3-2.2c0.7,0.6,1.7,0.8,2.4,1.3c1.5,0.9,2.1,2.7,2.8,4.2c0.2,0.4,0.5,0.8,0.8,1.1
				C389.6,392.1,386.7,387.9,382.5,386z"/>
		</g>
		<path id="XMLID_65_" class="st23" d="M372.6,385.3C372.7,385.3,372.7,385.3,372.6,385.3c-0.4,0.1-0.8,0.3-1.2,0.5
			c-4.4,2.2-7.2,6.6-7.2,11.5c0,0.1,0,0.2,0,0.3c0.4,0,0.8-0.1,1.1-0.3c3.1-1.5,5-5.9,5.7-9C371.4,387.2,371.7,386,372.6,385.3z"/>
		<path id="XMLID_64_" class="st23" d="M382.5,385.7c-1-0.5-2.1-0.8-3.2-1c0.9,0.2,1.7,0.7,2.3,1.4c0.3,0.4,0.5,0.8,0.7,1.2
			c-3.5-1.5-7.4-1.4-10.8,0.2c0.8,1.8,3.3,2.7,5,3.4c1.8,0.7,3.7,1.3,5.5,1.9c-0.5-0.4-1.1-0.9-1.6-1.3c1.2,0.2,2.5,0.4,3.7,0.6
			c0-0.7,0-1.5-0.3-2.2c0.7,0.6,1.7,0.8,2.4,1.3c1.5,0.9,2.1,2.7,2.8,4.2c0.2,0.4,0.5,0.8,0.8,1.1
			C389.6,391.8,386.7,387.6,382.5,385.7z"/>
		<path id="XMLID_63_" class="st12" d="M362.8,395.2c0,0,13.2-16.4,28.5,0l-1.3-3.7c0,0-7.2-10.5-12.3-8.2
			c-5.1,2.3-10.1,3.9-10.1,3.9L362.8,395.2z"/>
		<path id="XMLID_62_" class="st17" d="M362.8,394.9c0,0,13.2-16.4,28.5,0l-1.3-3.7c0,0-7.2-10.5-12.3-8.2s-10.1,3.9-10.1,3.9
			L362.8,394.9z"/>
		<path id="XMLID_61_" class="st12" d="M352,430.3c0,0-2.8,7.5,1.1,14.3c4,6.8-3.5,9.6-3.5,9.6"/>
		<path id="XMLID_60_" class="st12" d="M397.8,423.5c0,0,4.9,6.2,1.7,11.8c-3.2,5.6-3,18.9-3,18.9"/>
		<path id="XMLID_59_" class="st24" d="M347.7,459.7h54.5c2.5,0,4.5,2,4.5,4.5l0,0l0,0h-63.5l0,0l0,0
			C343.1,461.8,345.2,459.7,347.7,459.7L347.7,459.7z"/>
		<path id="XMLID_58_" class="st24" d="M355.9,428.6h38.1c5.3,0,9.6,4.3,9.6,9.6v22.5l0,0h-57.3l0,0v-22.5
			C346.3,433,350.6,428.6,355.9,428.6C355.9,428.6,355.9,428.6,355.9,428.6z"/>
		<circle id="XMLID_56_" class="st1" cx="374.9" cy="446.1" r="3.4"/>
		<path id="XMLID_55_" class="st25" d="M363.6,387.5c0,0,13-13,27-0.2"/>
		<rect id="XMLID_54_" x="392.5" y="386.7" class="st26" width="1.3" height="7.4"/>
		<path id="XMLID_53_" class="st27" d="M390.8,391.5L390.8,391.5c2.5,0,4.5,2,4.5,4.5v0v0.3c0,2.5-2,4.5-4.5,4.5l0,0l0,0l0,0V391.5
			L390.8,391.5z"/>
		<path id="XMLID_52_" class="st26" d="M390.9,391L390.9,391c0.6,0,1,0.5,1,1v8.1c0,0.6-0.5,1-1,1l0,0c-0.6,0-1-0.5-1-1V392
			C389.9,391.5,390.4,391,390.9,391z"/>
		<rect id="XMLID_51_" x="360.2" y="386.8" class="st26" width="1.3" height="7.4"/>
		<path id="XMLID_50_" class="st27" d="M363.2,400.9L363.2,400.9c-2.5,0-4.5-2-4.5-4.5l0,0v-0.3c0-2.5,2-4.5,4.5-4.5l0,0l0,0l0,0
			V400.9L363.2,400.9z"/>
		<path id="XMLID_49_" class="st26" d="M363.1,401.3L363.1,401.3c-0.6,0-1-0.5-1-1v-8.1c0-0.6,0.5-1,1-1l0,0c0.6,0,1,0.5,1,1v8.1
			C364.1,400.9,363.6,401.3,363.1,401.3z"/>
		<path id="XMLID_48_" class="st27" d="M392.4,378.8c-1.8-3.7-5.6-8.1-13.9-8.5l0,0l-0.1,0l0,0l0,0l-2.9,0.1l0,0
			c-8.2,0.4-12,4.8-13.8,8.4c-1.2,2.5-1.8,5.2-1.8,7.9l1,0l1,0c0-2.4,0.6-4.8,1.6-7c2.2-4.6,6.3-7,12.2-7.2l0,0l2.6-0.1l0,0
			c5.9,0.2,10,2.7,12.2,7.2c1,2.2,1.6,4.6,1.6,7l1,0l1,0C394.1,384,393.5,381.3,392.4,378.8z"/>
		<rect id="XMLID_47_" x="300.5" y="464.3" class="st28" width="138.1" height="37.1"/>
		<rect id="XMLID_46_" x="300.5" y="466.8" class="st12" width="138.1" height="4.8"/>
		<rect id="XMLID_45_" x="291.2" y="463.8" class="st28" width="156.7" height="4.8"/>
		<path id="XMLID_44_" class="st10" d="M398.5,451.8c0,0,5.9,10.8,20.7,7.9s7.6,27.3,7.6,27.3s-2.4,14.5-0.7,14.4"/>
	</g>
	<g id="XMLID_1_">
		<path id="XMLID_43_" class="st29" d="M248.2,622.1v-10.9h-1.8v10.9c-1.2,0.5-1.8,1.8-1.3,2.9c0.5,1.2,1.9,1.7,3,1.3
			c1.2-0.5,1.8-1.8,1.3-2.9C249.2,622.8,248.8,622.3,248.2,622.1z"/>
		<path id="XMLID_42_" class="st29" d="M252.3,732.4h-12v-141h-4.7v141h-12c-6,0-10.8,4.7-10.8,10.5l0,0l0,0h50.3l0,0
			C263.1,737.1,258.3,732.4,252.3,732.4L252.3,732.4z"/>
		<path id="XMLID_41_" class="st30" d="M212.8,612.3h50.3l-3.1-37.2c-0.2-2.7-2.5-4.7-5.3-4.7h-33.6c-2.8,0-5,2.1-5.3,4.7
			L212.8,612.3z"/>
		<path id="XMLID_40_" class="st31" d="M13.5,700h153.5v-15.2c0-40.9-34.4-74.3-76.8-74.3s-76.8,33.3-76.8,74.3V700z"/>
		<path id="XMLID_39_" class="st32" d="M13.5,700h153.5v-15.2c0-40.9-34.4-74.3-76.8-74.3s-76.8,33.3-76.8,74.3V700z"/>
		<path id="XMLID_38_" class="st30" d="M33.4,705.2h118.1c-0.2-12.5-10.8-22.5-23.7-22.5H57.2C44.2,682.7,33.7,692.7,33.4,705.2z"/>
		<ellipse id="XMLID_37_" class="st33" cx="19.4" cy="679.9" rx="23.7" ry="22.9"/>
		<ellipse id="XMLID_36_" class="st33" cx="163.2" cy="679.9" rx="23.7" ry="22.9"/>
		<path id="XMLID_35_" class="st33" d="M145.4,691.6v8.6H35.9v-8.6H11.3v41.7c0,5.3,4.5,9.6,10,9.6l0,0h138.6c5.5,0,10-4.3,10-9.6
			c0,0,0,0,0,0v-41.7H145.4z"/>
		<ellipse id="XMLID_34_" class="st34" cx="19.4" cy="679.9" rx="4.8" ry="4.7"/>
		<ellipse id="XMLID_33_" class="st34" cx="163.2" cy="679.9" rx="4.8" ry="4.7"/>
		<path id="XMLID_32_" class="st35" d="M99,607.9c0,0,0.5,8.7,3.8,10.5s0,14.2,0,14.2l-15.6,0.5l-0.9-14.7c0,0,1.9-6,0.9-8.7
			C86.2,607,99,607.9,99,607.9z"/>
		<polygon id="XMLID_31_" class="st35" points="116.6,729 110.9,735.4 119.9,743.7 124.6,734.5 		"/>
		<polygon id="XMLID_30_" class="st35" points="76.3,729 82,735.4 73,743.7 68.2,734.5 		"/>
		<path id="XMLID_29_" class="st7" d="M113.5,668.2c0,0,34.1,11,32.2,21.6c-1.9,10.5-16.6,47.7-16.6,47.7s-8.1,0-14.2-8.3l4.3-9.2
			c0,0-1.9-5,1.4-6c3.3-0.9,5.2-17,5.2-17s-24.2-1.8-29.4-10.5l-9.5-22L113.5,668.2z"/>
		<path id="XMLID_28_" class="st7" d="M79.4,668.2c0,0-34.1,11-32.2,21.6s16.6,47.7,16.6,47.7s8.1,0,14.2-8.3l-4.3-9.2
			c0,0,1.9-5-1.4-6s-5.2-17-5.2-17s24.2-1.8,29.4-10.5l9.5-22L79.4,668.2z"/>
		<path id="XMLID_27_" class="st7" d="M118.2,740.2c0,0,4.7-4.1,5.2-0.9s-0.5,16.1-0.5,16.1s4.7,9.6-2.4,9.6s-10.4-7.3-9.5-14.7
			c0.9-7.3-3.3-10.1-3.3-10.1s-5.2-10.1,0-11c5.2-0.9,7.1,1.4,7.1,1.4S113,738.9,118.2,740.2z"/>
		<path id="XMLID_26_" class="st7" d="M74.6,740.2c0,0-4.7-4.1-5.2-0.9s0.5,16.1,0.5,16.1s-4.7,9.6,2.4,9.6c7.1,0,10.4-7.3,9.5-14.7
			c-0.9-7.3,3.3-10.1,3.3-10.1s5.2-10.1,0-11c-5.2-0.9-7.1,1.4-7.1,1.4S79.8,738.9,74.6,740.2z"/>
		<ellipse id="XMLID_25_" class="st35" cx="91.7" cy="602.6" rx="10.9" ry="10.5"/>
		<path id="XMLID_24_" class="st36" d="M93.4,620.8l-6.6-5l-16.1,7.3l-0.5,41.7c0,0-10,4.6-7.1,10.5c0,0,8.5,1.8,12.3,5.5
			s25.1-1.4,34.1-4.1c9-2.8,11.4-6,11.4-6l-9-12.4l5.2-31.6l-16.1-10.5L93.4,620.8z"/>
		<path id="XMLID_23_" class="st7" d="M104.9,595.5c-0.2-0.3-0.5-0.6-0.7-1c-0.3-0.8,0.2-1.7-0.3-2.5c-0.5-0.8-1.8-0.9-2.7-1.4
			c-1.4-0.8-1.6-2.4-2.9-3.2c-0.9-0.6-2.2-0.8-3.4-0.8s-2.4,0.2-3.7,0.3c-1.7,0-3.3-0.3-4.8-0.9l0.9,1.7c-1-0.2-2-0.6-2.8-1.1
			c-0.4,0.5,0.3,1.2-0.1,1.7c-0.2,0.1-0.4,0.2-0.6,0.3c-1.7,0.5-3.4,1.3-4.8,2.3c-0.3,0.2-0.6,0.5-0.8,0.8c-0.2,0.5,0,1.1,0,1.6
			c0,1-0.8,1.8-1.3,2.7s-0.8,2,0,2.8c0.2,0.2,0.4,0.3,0.6,0.5c0.8,0.9-0.6,2.3,0.1,3.3c0.3,0.4,0.9,0.6,1.5,0.9
			c1,0.5,1.9,1.2,2.5,2.1l-0.4-3c0-0.1,0-0.3,0.1-0.4c0.2-0.2,0.6-0.1,0.9-0.3c0.3-0.1,0.3-0.5,0.3-0.8l-0.1-2.1
			c0-1-0.1-1.1,0.7-1.9c0.5-0.5,1.3-0.9,2.1-1.1c1.9-0.6,3.8-0.7,5.8-0.9c2.3-0.2,4.9-1.3,6.6-0.2c1.5,0.9,1.9,2.5,2.6,3.8
			c0.6,1.2,2.2,4.8,3.6,2.9C104.5,600.3,105.8,596.8,104.9,595.5z"/>
		<path id="XMLID_22_" class="st31" d="M93.6,599.6c-0.1,0-0.2,0.1-0.2,0.2v4.4c0,0.1,0.1,0.2,0.2,0.2h7.9c0.1,0,0.2-0.1,0.2-0.2
			v-4.4c0-0.1-0.1-0.2-0.2-0.2H93.6z"/>
		<path id="XMLID_21_" class="st37" d="M94.4,600c-0.2,0-0.3,0.1-0.3,0.3v3.4c0,0.2,0.1,0.3,0.3,0.3h6.1c0.2,0,0.3-0.1,0.3-0.3v-3.4
			c0-0.2-0.1-0.3-0.3-0.3H94.4z"/>
		<rect id="XMLID_20_" x="89.6" y="601" class="st31" width="4.1" height="0.9"/>
		<path id="XMLID_19_" class="st31" d="M82.4,599.6c-0.1,0-0.2,0.1-0.2,0.2v4.4c0,0.1,0.1,0.2,0.2,0.2h7.9c0.1,0,0.2-0.1,0.2-0.2
			v-4.4c0-0.1-0.1-0.2-0.2-0.2H82.4z"/>
		<path id="XMLID_18_" class="st38" d="M83.3,600c-0.2,0-0.3,0.1-0.3,0.3v3.4c0,0.2,0.1,0.3,0.3,0.3h6.1c0.2,0,0.3-0.1,0.3-0.3v-3.4
			c0-0.2-0.1-0.3-0.3-0.3H83.3z"/>
		<path id="XMLID_17_" class="st31" d="M78.1,654.7h27.2c2.3,0,4.1,1.8,4.1,4l0,0l0,0H74l0,0l0,0C74,656.5,75.9,654.7,78.1,654.7z"
			/>
		<path id="XMLID_57_" class="st39" d="M107.3,654.4c-0.2,0-0.3,0-0.5,0.1c-0.1-0.5-0.6-0.7-1.1-0.6c-0.4,0.1-0.7,0.4-0.7,0.8
			c0,0,0,0,0,0c-0.1,0-0.2,0-0.3,0.1c-0.1-0.2-0.2-0.4-0.4-0.5c0.3-0.2,0.5-0.4,0.6-0.7c0.6,0.1,1.2-0.4,1.3-1
			c0.1-0.6-0.4-1.2-1.1-1.2c-0.1,0-0.2,0-0.3,0c-0.2,0-0.3,0-0.5,0.1c-0.1-0.5-0.6-0.7-1.1-0.6c-0.5,0.1-0.8,0.6-0.7,1
			c0,0,0,0,0,0.1c0,0-0.1,0.1-0.1,0.1c-0.2-0.1-0.4-0.2-0.6-0.2c-0.3-0.7-1.1-1.1-1.9-0.9c-0.6,0.2-1,0.7-1,1.3
			c-0.1,0-0.2,0-0.3,0.1c0,0,0-0.1-0.1-0.1c0.2-0.2,0.4-0.5,0.4-0.8c0-0.7-0.6-1.2-1.3-1.1c-0.2,0-0.3,0-0.5,0.1
			c-0.1-0.5-0.6-0.7-1.1-0.6c-0.5,0.1-0.8,0.6-0.7,1c0,0,0,0,0,0.1c-0.4,0.3-0.6,0.7-0.6,1.1c0,0,0,0,0,0c0-0.1,0-0.2,0-0.2
			c0-0.7-0.6-1.2-1.3-1.1c-0.2,0-0.3,0-0.5,0.1c-0.1-0.5-0.6-0.7-1.1-0.6c-0.5,0.1-0.8,0.6-0.7,1c0,0,0,0,0,0.1
			c-0.7,0.4-0.8,1.3-0.4,2c0.1,0.1,0.2,0.3,0.4,0.4c-0.1,0.2-0.1,0.3,0,0.5c-0.1,0.1-0.3,0.2-0.4,0.4c-0.1-0.4-0.6-0.7-1.1-0.6
			c-0.3,0.1-0.6,0.4-0.6,0.7c-0.1-0.1-0.2-0.1-0.4-0.1c0.2-0.2,0.4-0.4,0.5-0.6c0.6,0.1,1.2-0.4,1.3-1c0.1-0.6-0.4-1.2-1.1-1.2
			c-0.1,0-0.2,0-0.3,0c-0.2,0-0.3,0-0.5,0.1c-0.1-0.5-0.6-0.7-1.1-0.6c-0.5,0.1-0.8,0.6-0.7,1c0,0,0,0,0,0.1c0,0,0,0-0.1,0
			c0,0-0.1,0-0.1,0c-0.2,0-0.3,0-0.5,0.1c0,0,0,0,0-0.1c0.1-0.5-0.2-0.9-0.7-1c-0.1,0-0.2,0-0.2,0c-0.3-0.7-1.1-1.1-1.9-0.9
			s-1.2,1.1-0.9,1.8c0.1,0.2,0.2,0.5,0.5,0.6c-0.1,0-0.2,0-0.3,0.1c-0.1-0.5-0.6-0.7-1.1-0.6c-0.1,0-0.2,0.1-0.3,0.2
			c-0.3-0.3-0.7-0.5-1.1-0.5c-0.2,0-0.3,0-0.5,0.1c-0.1-0.5-0.6-0.7-1.1-0.6c-0.5,0.1-0.8,0.6-0.7,1c0,0,0,0,0,0.1
			c-0.4,0.3-0.6,0.7-0.6,1.2c0,0,0,0,0,0c-0.2,0-0.4,0-0.6,0.1c-0.1-0.5-0.6-0.7-1.1-0.6c-0.5,0.1-0.8,0.6-0.7,1c0,0,0,0,0,0.1
			c-0.7,0.4-0.8,1.3-0.4,2c0.3,0.5,1,0.7,1.5,0.6c0.1,0.8,0.9,1.3,1.7,1.1c0.5-0.1,0.9-0.4,1.1-0.8c1.1,0.1,2.1,0.1,3.2-0.1
			c0.3,0.7,1.1,1.1,1.9,0.9c0.4-0.1,0.7-0.4,0.9-0.8c0.2,0,0.4-0.1,0.6-0.1c0.4,0.7,1.3,0.9,2,0.5c0.3-0.2,0.5-0.4,0.6-0.7
			c0.7-0.1,1.3,0.2,1.6,0.9c0.4-0.5,1-0.9,1.7-0.9c0.6,0.2,1.2-0.1,1.6-0.6c-0.2,0.8,0.3,1.5,1.1,1.7c0.7,0.2,1.4-0.2,1.7-0.8
			c0.2,0,0.4-0.1,0.6-0.1c0.4,0.7,1.3,0.9,2,0.5c0.3-0.2,0.5-0.4,0.6-0.7c0.2,0,0.4-0.1,0.6-0.1c0.4,0.7,1.3,0.9,2,0.5
			c0.1,0,0.1-0.1,0.2-0.1c0.1,0.8,0.9,1.3,1.7,1.1c0.4-0.1,0.7-0.3,0.9-0.6c0.6,0.5,1.5,0.4,2-0.3c0.1-0.1,0.1-0.2,0.2-0.3
			c0.6,0.1,1.2-0.4,1.3-1c0.1-0.6-0.4-1.2-1.1-1.2C107.4,654.4,107.3,654.4,107.3,654.4L107.3,654.4z M81.1,653.8
			C81.1,653.9,81.1,653.9,81.1,653.8C81.1,653.9,81.1,653.9,81.1,653.8c-0.1,0-0.1,0-0.2,0c0,0,0,0,0,0
			C81,653.9,81,653.9,81.1,653.8z M93.3,653.4C93.3,653.4,93.3,653.3,93.3,653.4c0.2-0.2,0.4-0.4,0.5-0.6c0.4,0,0.8-0.2,1-0.4
			c0,0.1,0,0.1,0,0.2c0,0.1,0,0.2,0,0.3c-0.3,0.2-0.4,0.4-0.5,0.7C94,653.3,93.7,653.3,93.3,653.4L93.3,653.4z M102.1,653.5
			C102.1,653.5,102.1,653.4,102.1,653.5c0-0.1,0.1-0.1,0.1-0.1c0.1,0.2,0.2,0.4,0.3,0.5c0,0-0.1,0-0.1,0
			C102.4,653.8,102.2,653.6,102.1,653.5z"/>
		<path id="XMLID_12_" class="st31" d="M77,656.1c-1.7,0-3.1,1.3-3.1,3c0,0.1,0,0.1,0,0.2l2,26.4c0.1,1.6,1.4,2.8,3.1,2.8h25.6
			c1.6,0,3-1.2,3.1-2.8l2-26.4c0.1-1.6-1.2-3-2.9-3.1c-0.1,0-0.1,0-0.2,0H77z"/>
		<rect id="XMLID_11_" x="78.4" y="656.1" class="st38" width="1.8" height="32.3"/>
		<rect id="XMLID_10_" x="83.4" y="656.1" class="st38" width="1.8" height="32.3"/>
		<rect id="XMLID_9_" x="88.4" y="656.1" class="st38" width="1.8" height="32.3"/>
		<rect id="XMLID_8_" x="93.4" y="656.1" class="st38" width="1.8" height="32.3"/>
		<rect id="XMLID_7_" x="98.3" y="656.1" class="st38" width="1.8" height="32.3"/>
		<rect id="XMLID_6_" x="103.3" y="656.1" class="st38" width="1.8" height="32.3"/>
		<path id="XMLID_5_" class="st35" d="M103.3,672.1l-5.7,3.2c0,0-13.7,11-4.3,12.8s11.9-7.8,11.9-7.8l3.3-3.7L103.3,672.1z"/>
		<path id="XMLID_4_" class="st35" d="M76.3,669.8L82,673c0,0,13.7,11,4.3,12.8s-11.9-7.8-11.9-7.8l-3.3-3.7L76.3,669.8z"/>
		<path id="XMLID_3_" class="st36" d="M110.9,626.3l6.2,0.5c0,0,4.7,4.1,4.3,9.6c0,0,4.3,11.9,3.3,17c0,0,0.9,8.3-0.5,11.5
			s-13.3,15.6-13.3,15.6s-10.9-8.3-10.4-8.7l14.2-13.8l-7.1-9.2L110.9,626.3z"/>
		<path id="XMLID_2_" class="st36" d="M70.6,623.1l-0.2,0.2c0,0-10.7,4.4-10.2,9.9c0,0-4.3,11.9-3.3,17c0,0-0.9,8.3,0.5,11.5
			c1.4,3.2,13.3,15.6,13.3,15.6s10.9-8.3,10.4-8.7l-14.2-13.8l7.1-9.2L70.6,623.1z"/>
	</g>
	<g id="XMLID_86_">
		<ellipse id="XMLID_339_" class="st40" cx="181.4" cy="298.5" rx="30.8" ry="6.2"/>
		
			<linearGradient id="XMLID_214_" gradientUnits="userSpaceOnUse" x1="876.7201" y1="178.1397" x2="876.7201" y2="255.6446" gradientTransform="matrix(-1 0 0 -1 954.18 483.78)">
			<stop  offset="0" style="stop-color:#818181;stop-opacity:0.25"/>
			<stop  offset="0.54" style="stop-color:#818181;stop-opacity:0.12"/>
			<stop  offset="1" style="stop-color:#818181;stop-opacity:0.1"/>
		</linearGradient>
		<path id="XMLID_335_" class="st41" d="M65.1,249.2c0.1,0.2,0.2,0.5,0.3,0.7v0c0,0,1.5,5.4,2.1,6.5c0.2,0.3,0.4,0.7,0.6,1
			c0,0.3,0,0.5,0,0.8c0.2,1.2,0.5,2.9,0.3,3.2s0.1,1.3-0.3,1.6c-0.4,0.3-0.8,0.9,0.4,1.6c0,0,0.2,0.6,0,0.7c0,0,0,0,0.1,0.1
			c-0.3,1-0.8,2.6-0.5,2.7c0.2,0.1,0.6-0.2,1.1-0.5c0,0.1,0,0.1,0,0.2c0.1,0.5,0.2,1.1,0.4,1.6c0.2,0.5,0.4,1.3,0.3,1.6
			c-0.1,0.3,0.3,0.9,0.2,1.1c-0.1,0.2,0.3,1,0.3,1s0.4,1.5,0.4,2s0.5,3.8,0.5,3.8s-0.5,1.7-0.3,2.2c0.3,0.5,0.4,2.2,0,2.8
			c-0.4,0.6-1,2-0.8,2.4s-0.2,5,0.8,6.9c0.1,0.7,0.2,1.4,0.3,2.1c0,0.5,0.8,1.9,0.8,1.9s-0.5,2.1,0.7,2.4c0.1,0,0.2,0,0.3,0
			c0,0.2,0,0.5-0.1,0.7c-0.2,0.3-0.4,0.6-0.4,1l0,0c0,0.1,0,0.1,0,0.2c0.1,0.2,0.5,2.2,0.5,2.2s0.5,2.3,3.6,1.7c0,0,2-0.1,1.9-0.8
			c-0.1-0.2-0.1-0.5-0.2-0.7c-0.1-0.1-0.1-0.3-0.2-0.4c0-0.2-0.5-0.6-0.5-1s-0.3-1-0.3-1.2c0-0.2-0.5-1.7-0.5-2
			c0-0.2-0.1-0.4-0.2-0.7l0.1-0.1c0,0,0.3-1.5,0-2.1c-0.2-0.6-1.2-1.3-1.2-1.3s0.1-3.8,0-4.3c-0.2-0.5,0.1-2.4,0.1-2.4
			s0.6-2.7,0.5-3.4c0-0.4,0-0.8,0.2-1.1c0,0,0.4-4,0.6-4.5s0.5-5.5,0.5-5.5l0.2,0.5c0.2,0.7,0.5,1.4,0.8,2c0.1,0.2,0.5,0.9,0.8,1.4
			l0.5,0.8c0,0,0.2,0.8,0.1,1.3c-0.2,0.5,1.6,3.1,1.6,3.1c-0.1,0.2-0.2,0.5-0.2,0.7c0,0.3-0.5,1.1-0.5,1.1s-0.2,0.7-0.1,1
			c0.1,0.3-0.2,1.8-0.2,1.8s-0.6,3.3-0.7,3.7c-0.1,0.4,0.1,3.1,0.1,3.1s-1.1,2.7-0.6,3.7c0,0.3,0,0.9-0.1,1.1
			c-0.2,0.3-0.1,1.3-0.1,1.6c0,0,0,0.1,0,0.1s-0.6,0.8,0.2,1.1s3.2,0.5,3.2,0.5s2.4,0.7,3.5,0.9c1.1,0.2,3.5,0.1,3.7-0.6
			c0.1-0.2,0.1-0.4,0.1-0.7c0-0.3-0.2-0.5-0.5-0.7c-0.7-0.3-1.4-0.5-2.2-0.7c0,0-1.1-0.3-1.2-0.7c-0.1-0.5-1.7-1.9-1.7-1.9
			s0-0.1-0.1-0.2h0.1l-0.1-0.1c-0.1-0.3-0.2-0.6-0.4-0.5l0,0c-0.1-0.2,0-0.4,0.2-0.5c0,0,0,0,0,0c0.6-0.3,1-1.4,0.8-2.6
			c-0.2-1.2-0.2-1,0.2-1.6c0.2-0.5,0.3-1.1,0.3-1.6l0.9-3.5c0.1-0.4,0.2-0.9,0.3-1.3c0-0.4,0.1-0.7,0.3-1c0,0,0.4-2.4,0.8-3
			c0.4-0.6-0.3-2.5-0.3-2.5s-0.6-3.1-0.5-4.5c0-1.4-1.5-6.2-1.5-6.2c-0.2-0.3-0.3-0.7-0.2-1.1c0-0.3-0.1-0.8-0.4-1.2l-0.1-0.1
			c0.1-0.1,0.2-0.2,0.3-0.3c0.4-0.3,0.6-0.9,0.6-1.4l-5.8-13.7c0,0,2.7-5.6,2.7-5.6c-0.2-0.9-1.7-3.3-1.7-3.3l0,0c0,0,0-0.1-0.1-0.1
			c-0.3-0.2-1.5-0.8-1.5-0.8c-0.9-1.1-1.8-1.4-2.3-1.3c-0.2,0-0.3,0-0.5,0.1c-0.1,0-0.1,0-0.2,0.1l0,0.2c0-0.5,0-1,0.1-1.5
			c0,0,0-0.1,0-0.1c0.1,0,0.2,0,0.3,0c2.3,0,4.2-1.8,4.2-4.1c0,0,0,0,0,0c0-0.4-0.1-0.8-0.2-1.1l0-0.1l0.1-0.1
			c0.5-0.2,1.2,0.1,1.6-0.2c0.2-0.2,0.3-0.3,0.3-0.5c0.1-0.3,0.2-0.6,0.2-0.9c0-0.1,0-0.1,0-0.2c0,0,0,0,0,0c0,0,0,0,0-0.1
			c0,0,0,0,0-0.1c0,0,0,0,0,0c0-0.2-0.1-0.4-0.2-0.5c-0.3-0.3-0.7-0.4-1.1-0.6c-0.3-0.2-0.5-0.5-0.7-0.8c-0.2-0.3-0.4-0.6-0.7-0.8
			c-0.3-0.2-0.7-0.3-1-0.2c-0.1,0.1-0.2,0.1-0.3,0.2c-0.1,0-0.3,0-0.4-0.1c-1.2-0.6-2.6-0.5-3.9-0.3c-0.5,0-1,0.2-1.5,0.4
			c-0.5,0.2-0.9,0.6-1,1.1c-0.1,0.4,0,0.8-0.2,1.2c-0.1,0.3-0.3,0.5-0.4,0.8c-0.1,0.1-0.1,0.3-0.1,0.4l0,0c0,0,0,0,0,0
			c0,0.6,0.2,1.2,0.3,1.8c0.2,0.8,0.1,1.7,0.4,2.5c0,0.1,0.1,0.2,0.1,0.3c-0.1,0.3-0.3,0.5-0.4,0.8c-0.2-0.1-0.8-0.2-0.8,0.3
			c0,0.4-0.1,0.8-0.3,1.2c0,0-0.1,0-0.1,0.1c-0.1,0-0.1,0.1-0.1,0.2l0,0l-0.1,0.1c0,0-0.1,0-0.1,0c0-0.1-0.2-0.1-0.5,0.4
			c-0.5,0.5-1.1,1-1.7,1.3c0,0-2.5,1.8-2.7,2.6S64.6,248,65.1,249.2z M76.2,240.6C76.2,240.6,76.2,240.6,76.2,240.6L76.2,240.6
			L76.2,240.6z M83.1,298.4c-0.1,0-0.1,0-0.2,0L83.1,298.4z"/>
		<path id="XMLID_334_" class="st42" d="M77.2,305.6c-3,0.6-3.5-1.7-3.5-1.7s-0.4-2-0.5-2.2c0-0.1,0-0.1,0-0.2l0,0
			c0.1-0.3,0.2-0.7,0.4-1c0.2-0.2,0-1.1,0-1.1l3.4-0.9c0.1,0.3,0.3,0.7,0.3,1c0,0.3,0.5,1.8,0.5,2c-0.1,0.2,0.2,0.8,0.3,1.2
			s0.5,0.8,0.5,1c0.1,0.2,0.1,0.3,0.2,0.4c0.1,0.2,0.2,0.5,0.2,0.7C79.2,305.4,77.2,305.6,77.2,305.6z"/>
		<path id="XMLID_333_" class="st12" d="M77.2,305.6c-3,0.6-3.5-1.7-3.5-1.7s-0.4-2-0.5-2.2c0-0.1,0-0.1,0-0.2l0.7,2.1
			c0,0,0.6,1.2,2.8,1c1.3-0.1,1.9-0.3,2.2-0.5c0.1,0.2,0.2,0.5,0.2,0.7C79.2,305.4,77.2,305.6,77.2,305.6z"/>
		<path id="XMLID_332_" class="st12" d="M74.9,302.3c0,0,0.7,0,0.8-0.6L74.9,302.3z"/>
		<path id="XMLID_331_" class="st43" d="M87.8,282.4c-0.4,0.6-0.8,3-0.8,3c-0.2,0.3-0.2,0.7-0.3,1c0,0.5-0.1,0.9-0.3,1.3l-1,3.5
			c0.1,0.5,0,1.1-0.3,1.6c-0.4,0.7-0.3,0.5-0.2,1.6c0.2,1.2-0.2,2.2-0.8,2.6c-0.6,0.3,0.3,1.1,0.3,1.1s-3.9,1-4.7,0.4
			c-0.8-0.6,0.4-3.8,0.4-3.8s-0.2-2.7-0.1-3.1c0.1-0.4,0.7-3.7,0.7-3.7s0.4-1.5,0.2-1.8c-0.1-0.3,0.1-1,0.1-1s0.6-0.8,0.5-1.1
			c0-0.2,0.1-0.5,0.2-0.7c0,0-1.7-2.6-1.6-3.1c0.1-0.5-0.1-1.3-0.1-1.3s-0.2-0.4-0.5-0.8c-0.3-0.5-0.7-1.2-0.8-1.4
			c-0.3-0.7-0.6-1.3-0.8-2l-0.2-0.5c0,0-0.3,5-0.5,5.5c-0.3,0.5-0.6,4.5-0.6,4.5c-0.1,0.4-0.2,0.7-0.2,1.1c0,0.6-0.5,3.4-0.5,3.4
			s-0.3,1.9-0.1,2.4c0.2,0.5,0,4.2,0,4.2s0.9,0.7,1.2,1.3s0,2.1,0,2.1s-2.7,1.4-3.9,1c-1.2-0.4-0.7-2.4-0.7-2.4s-0.8-1.4-0.8-1.9
			c-0.1-0.7-0.2-1.4-0.3-2.1c-1-1.9-0.6-6.5-0.8-6.9c-0.2-0.4,0.4-1.8,0.8-2.4s0.3-2.3,0-2.8c-0.3-0.5,0.3-2.2,0.3-2.2
			s-0.5-3.3-0.5-3.8c0-0.5-0.4-2-0.4-2s-0.4-0.8-0.3-1s-0.3-0.8-0.2-1.1s-0.1-1.1-0.3-1.6c-0.2-0.5-0.3-1-0.4-1.5
			c-0.1-0.6-0.2-1.1-0.2-1.1l2.8-2.2l7-1.8l2.6-0.9l2.6,4c0,0,0.3,0.4,0.5,0.9c0.2,0.4,0.4,0.9,0.3,1.2c0,0.4,0,0.7,0.2,1
			c0,0,1.5,4.8,1.5,6.2s0.5,4.4,0.5,4.4S88.2,281.8,87.8,282.4z"/>
		<path id="XMLID_330_" class="st12" d="M72.2,284.9c0,0,3-1.3,3.9-0.4C76.9,285.4,72.2,284.9,72.2,284.9z"/>
		<path id="XMLID_329_" class="st12" d="M73.9,285.4c0,0-3,1.7-2,2S73.9,285.4,73.9,285.4z"/>
		<path id="XMLID_328_" class="st12" d="M82.9,283.9c0,0-1.3,0.1-0.8,0.3C82.6,284.5,82.9,283.9,82.9,283.9z"/>
		<path id="XMLID_327_" class="st12" d="M84.5,284.3c0,0.1-3.7,1.3-3,1.8C82.2,286.7,84.5,284.3,84.5,284.3z"/>
		<path id="XMLID_326_" class="st12" d="M72.6,294.7c0.6-0.1,3.7-1.5,2.5-0.5C74.4,294.8,73.5,295,72.6,294.7z"/>
		<path id="XMLID_325_" class="st12" d="M74.2,295.8c0,0,0.3,1,1.3,0.9S74.2,295.8,74.2,295.8z"/>
		<path id="XMLID_324_" class="st12" d="M73.3,297.9c0.2-0.1,2.4-1.1,2.5-0.6c0.1,0.5-2.1,1.3-2.3,1
			C73.4,298.2,73.3,298.1,73.3,297.9z"/>
		<path id="XMLID_323_" class="st12" d="M80.5,296.7c0.3,0,2.8-0.8,3.3-0.1L80.5,296.7z"/>
		<path id="XMLID_322_" class="st12" d="M82.8,297.2c0,0,0.4-0.4,0.9-0.2C84.1,297.2,82.8,297.2,82.8,297.2z"/>
		<path id="XMLID_321_" class="st12" d="M77.2,301.4c0.1,0.3,0.3,0.5,0.6,0.6L77.2,301.4z"/>
		<path id="XMLID_320_" class="st44" d="M90.1,303c-0.2,0.7-2.5,0.8-3.7,0.6c-1.1-0.2-3.5-0.9-3.5-0.9s-2.5-0.2-3.2-0.5
			c-0.7-0.3-0.2-1.1-0.2-1.1s0,0,0-0.1c0-0.3-0.1-1.3,0.1-1.6c0.2-0.3,0.1-1.4,0.1-1.4s3.5,0.7,3.6,0.4c0.1-0.3,0.6-0.8,0.9-0.9
			c0.3-0.1,0.4,0.8,0.4,0.8s1.6,1.4,1.7,1.8c0.1,0.5,1.2,0.7,1.2,0.7c0.7,0.2,1.4,0.4,2.1,0.7c0.3,0.1,0.4,0.4,0.5,0.7
			C90.1,302.5,90.1,302.7,90.1,303z"/>
		<path id="XMLID_319_" class="st42" d="M90.1,303c-0.2,0.7-2.5,0.8-3.7,0.6c-1.1-0.2-3.5-0.9-3.5-0.9s-2.5-0.2-3.2-0.5
			c-0.7-0.3-0.2-1.1-0.2-1.1s0,0,0-0.1l3.5,0.8c0,0,1.7,0.7,2.9,0.7c1,0,3.2,0.4,4.2-0.2C90.1,302.5,90.1,302.7,90.1,303z"/>
		<path id="XMLID_318_" class="st12" d="M85.3,300.3c0,0-0.2,1.1-0.8,1.5L85.3,300.3z"/>
		<path id="XMLID_317_" class="st45" d="M96.1,259.2c-1,0.4-3.3,0.4-4.4,0.4c-0.3,0-0.5,0-0.5,0l-0.7-1.4l0.7-1.1
			c0,0,0.6-0.2,1.4-0.3c1.2-0.2,2.8-0.4,3.6,0.1C97.6,257.7,97.4,258.7,96.1,259.2z"/>
		<path id="XMLID_316_" class="st42" d="M80.7,243l0.3-0.3c0,0,1.5,2.4,1.7,3.3c0.2,0.9,0.4,1.9,0.4,1.9s0.4,1.2,0.6,1.7
			c0.2,0.4,0.4,0.8,0.5,1.2c0,0.2-0.1,0.7,0.4,1c0.5,0.3,0.6,1.2,0.6,1.2s1.7,1.7,2.6,1.7c0.9,0,3.5,0.5,3.4,0.9
			c-0.1,0.4,1.1,0.7,1.5,0.8c0.5,0.1-3,1.5-1,3.2c0,0-1.3,0.3-1.4,0.6c-0.1,0.3-1.5-0.2-1.5-0.2s-0.3-0.7-1.3-0.7s-1.5-0.5-1.5-0.6
			c0-0.1-1-0.6-1.6-0.8s-1.3-0.2-1.3-0.4S79.7,243,79.7,243L80.7,243z"/>
		<path id="XMLID_314_" class="st40" d="M115.2,304.3c17,0,30.8,2.8,30.8,6.2c0,3.4-13.8,6.2-30.8,6.2s-30.8-2.8-30.8-6.2"/>
		
			<rect id="XMLID_313_" x="101.8" y="176.1" transform="matrix(-0.9859 -0.1673 0.1673 -0.9859 174.2573 399.7412)" class="st46" width="4.4" height="32.8"/>
		<polygon id="XMLID_312_" class="st47" points="114,306.4 115,313.3 115.8,306.2 		"/>
		<polygon id="XMLID_311_" class="st31" points="83,302.6 83,306.9 84,310.6 84.7,310.6 85.5,306.6 85.9,301.8 		"/>
		<path id="XMLID_310_" class="st47" d="M81.1,285.9l2.1,0.4c0,0-2.3,6.5-0.7,7.8h-2.6C79.8,294.2,78.9,289.2,81.1,285.9z"/>
		<path id="XMLID_309_" class="st43" d="M81.1,285.9l2.1,0.4c0,0-2.3,6.5-0.7,7.8h-2.6C79.8,294.2,78.9,289.2,81.1,285.9z"/>
		<path id="XMLID_308_" class="st47" d="M94.9,208.1L88.3,250c0,0-9.8,44.6-6.1,53.4h4.7l14-85.7L94.9,208.1z"/>
		<path id="XMLID_307_" class="st47" d="M111.6,202.9l5.1,42.1c0,0,3.7,53.6-0.4,62.3h-4l-7.1-95L111.6,202.9z"/>
		<path id="XMLID_306_" class="st46" d="M94.3,192.8c0.7-2.4,2.9-3.9,5.3-3.9c4.1,0.1,10.4,0.8,13.7,4.2c5.1,5.2-3.4,22.9-3.4,22.9
			s-8,14.7-15.3-4C94.5,212,91.5,202,94.3,192.8z"/>
		<path id="XMLID_304_" class="st48" d="M97.1,196.4c0.5-1.7,2.1-2.8,3.8-2.7c2.9,0.1,7.4,0.6,9.7,3c3.6,3.7-2.5,16.3-2.5,16.3
			s-5.7,10.5-10.9-2.8C97.2,210.1,95.1,202.9,97.1,196.4z"/>
		
			<linearGradient id="XMLID_215_" gradientUnits="userSpaceOnUse" x1="1022.5553" y1="193.7599" x2="1045.1251" y2="193.7599" gradientTransform="matrix(-1 0 0 -1 1156.27 483.78)">
			<stop  offset="0" style="stop-color:#818181;stop-opacity:0.25"/>
			<stop  offset="0.54" style="stop-color:#818181;stop-opacity:0.12"/>
			<stop  offset="1" style="stop-color:#818181;stop-opacity:0.1"/>
		</linearGradient>
		<path id="XMLID_301_" class="st49" d="M111.2,303.6c0,0.7,0.1,1.4,0.6,1.9c0.7,0.9,2,0.9,3,1.2c0.8,0.2,1.6,0.6,2.4,0.9l2.3,1.1
			c-0.6,0-1.2,0.2-1.8,0.4c-0.3,0.1-0.6,0.3-0.7,0.6c0,0.3,0.1,0.5,0.4,0.6c0.2,0.1,0.5,0.1,0.8,0.1c1.4,0,2.8,0,4.2-0.2l0.2,0
			c0.7,0.4,1.4,0.7,2.1,1.1c0.3,0.2,0.6,0,0.9-0.2c0.3-0.3,0.6-0.6,0.8-0.9c0,0.1,0.1,0.1,0.1,0.2c0.2,0.4,0.4,1,0.1,1.4
			c-0.3,0.3-0.7,0.3-0.9,0.7c-0.1,0.3,0,0.5,0.2,0.7c0.2,0.1,0.5,0.2,0.8,0.3c0.6,0.1,1.3,0.1,1.9,0c0.3,0,0.7-0.2,0.9-0.4
			c0.2-0.3,0.3-0.7,0.3-1l0.4-5c0-0.2,0-0.5-0.1-0.7c-0.2-0.4-0.7-0.6-1.1-0.7h0c0.4,0,0.8,0,1.2,0c0.4,0,0.7,0,1.1-0.1
			c0.7-0.3,1-0.9,1.3-1.6c0.5-1.1,1.1-2.3,1-3.6l-0.2-0.1c0-1.3-0.6-2.5-0.8-3.8c0.2-0.3,0.3-0.7,0.3-1.2c0-0.5-0.1-0.9-0.3-1.3
			c-0.8-2.4-1.6-4.9-2.7-7.2c-0.7-1.5-1.6-3-2.6-4.4c-0.3-0.3-0.5-0.7-0.8-1c-0.2-0.2-0.7-0.6-0.8-0.9s0.1-0.6,0-0.9
			c0-0.1-0.1-0.2-0.1-0.2c0.6-0.8,0.4-2,0.2-3l-0.3-1.2c-0.1-0.3-0.2-0.7-0.3-1c-0.2-0.3-0.4-0.5-0.6-0.7c-1.3-1.1-2.8-1.9-4.3-2.9
			c-1.5-1-2.9-2.2-4.2-3.4c-0.4-0.4-0.9-0.8-1.5-0.6s-0.8,0.7-0.8,1.3c0,0.7,0.3,1.4,0.8,1.9c0.9,0.9,2.3,0.9,3.5,1.5
			c0.4,0.2,0.7,0.5,1.1,0.8l3.2,2.5c0.2,0.1,0.4,0.4,0.5,0.7c0,0.2,0,0.3-0.1,0.5c-0.1,0.4-0.3,0.8-0.5,1.3l-0.3-0.2
			c-0.5-0.4-1.1-0.7-1.7-1c-0.8-0.3-1.6-0.5-2.5-0.6c-1.9-0.2-3.6,0.1-4.8,1.7c-0.2,0.4-0.5,0.7-0.9,0.9c-0.3,0.1-0.5,0.3-0.7,0.5
			c-0.6,0.7-0.3,1.8,0.3,2.3c0.5,0.4,1.1,0.7,1.7,0.9c0.7,1.6,2.5,2.4,4.2,1.9c0,0.3,0,0.7,0,1c0,0.3,0.1,0.7,0.4,0.9
			c0.1,0.1,0.3,0.2,0.4,0.2c0.6,0.2,1.1,0.5,1.6,0.8c-0.6,0.6-1.1,1.3-1.4,2.1c-0.5,1-0.4,2.3,0.3,3.2l0,0c0,0.2-0.1,0.3-0.2,0.4
			c-0.3,0.3-0.8,0.2-1.1-0.1c-0.2-0.3-0.4-0.6-0.6-0.9c-0.5-0.8-1.4-1.4-2.3-1.6c-0.4-0.1-0.7-0.1-1.1,0c-0.3,0.1-0.6,0.4-0.6,0.8
			c0,0.4,0.3,0.7,0.6,1c0.9,0.9,1.8,1.7,2.8,2.3c0.3,0.2,0.6,0.3,0.9,0.5c-0.5-0.1-1-0.2-1.5-0.3c-0.7-0.2-1.4-0.2-2.2-0.2
			c-0.7,0.1-1.4,0.4-1.8,1.1c-0.3,0.5-0.3,1.2-0.2,1.8c0.2,0.6,0.4,1.1,0.8,1.6c0.5,0.9,1.2,1.7,2,2.5c-0.6,0.2-1.3,0.4-1.9,0.6
			c-0.6,0.2-1.3,0.5-1.6,1.1C111.2,302.7,111.1,303.2,111.2,303.6z M120.7,294.9L120.7,294.9c0.2-0.1,0.3-0.2,0.4-0.3
			c0.4-0.5,0.7-1.1,0.8-1.8c0.1,0,0.3-0.1,0.4-0.1c-0.2,0.2-0.3,0.4-0.3,0.7l1.5,0.7c0.1,0,0.2,0.1,0.3,0.2c0,0.1,0,0.2,0,0.3
			c0,0.3-0.1,0.7-0.1,1c-0.4-0.1-0.9-0.2-1.2-0.3C121.8,295.2,121.2,295,120.7,294.9L120.7,294.9z"/>
		<path id="XMLID_300_" class="st50" d="M120.9,281.2c0.7,0.2,1.5,0.1,2.2-0.3c0.1-0.1,0.3-0.2,0.4-0.2c0.3,0,0.5,0.1,0.7,0.3
			c0.6,0.6,0.7,1.6,0.4,2.4s-1,1.5-1.6,2c-0.5,0.4-1.1,0.9-1.7,1.2c-0.3-0.8-1-1.4-1.8-1.7c-0.7-0.3-1.2-1-1.6-1.6
			c-0.3-0.5-0.6-0.5-0.3-0.9c0.3-0.5,0.7-0.9,1.1-1.3c0.2-0.2,0.4-0.5,0.6-0.8c0.2-0.3,0.1-0.5,0.4-0.3c0.2,0.2,0.3,0.5,0.5,0.7
			C120.3,280.9,120.6,281.1,120.9,281.2z"/>
		<path id="XMLID_299_" class="st50" d="M123.2,276.1c0.1-0.2,0.1-0.3,0.1-0.5c-0.1-0.3-0.3-0.5-0.5-0.6l-3.2-2.5
			c-0.3-0.3-0.7-0.5-1.1-0.7c-1.1-0.6-2.5-0.7-3.4-1.5c-0.5-0.5-0.8-1.2-0.8-1.9c0-0.5,0.3-1.1,0.7-1.2c0.5-0.1,1,0.2,1.4,0.6
			c1.3,1.2,2.6,2.4,4.1,3.4c1.4,0.9,2.9,1.7,4.2,2.8c0.2,0.2,0.4,0.4,0.6,0.7c0.2,0.3,0.3,0.6,0.3,1l0.3,1.2c0.2,1,0.4,2.2-0.3,3
			c-0.2,0.3-0.5,0.4-0.8,0.4c-0.2,0-0.4-0.1-0.6-0.2c-0.5-0.3-1.4-0.5-1.6-1.2C122.3,278,122.9,276.9,123.2,276.1z"/>
		<path id="XMLID_298_" class="st50" d="M118.1,292.3c-0.2-0.3-0.4-0.5-0.5-0.8c-0.5-0.8-1.3-1.4-2.3-1.6c-0.3-0.1-0.7-0.1-1,0
			c-0.3,0.1-0.6,0.4-0.6,0.8c0,0.4,0.3,0.7,0.5,1c0.8,0.9,1.8,1.7,2.8,2.3c1,0.7,2.2,1.1,3.4,1.2c0.1,0,0.2,0,0.4,0
			c0.1-0.1,0.2-0.2,0.3-0.3c0.6-0.8,0.9-1.9,1-2.9c-0.1,0.4-2.1-0.5-2.4-0.4c-0.3,0.2-0.3,0.6-0.6,0.9
			C118.8,292.6,118.4,292.6,118.1,292.3z"/>
		<path id="XMLID_297_" class="st50" d="M133.3,300.4c0,0.1,0,0.3-0.1,0.4c-0.1,0.2-0.5,0.2-0.7,0.2c-0.6-0.1-1.2-0.2-1.8-0.4
			l-5.3-1.5c-0.1,0-0.2-0.1-0.2-0.1c-0.1-0.1-0.1-0.1-0.1-0.2c-0.2-0.8-0.2-1.5-0.1-2.3c0-0.1,0-0.2,0.1-0.3
			c0.1-0.1,0.3-0.2,0.4-0.2c0.8-0.1,1.7-0.1,2.5-0.1c0.5,0,1.1,0,1.6,0c0.7-0.1,1.5-0.5,2.2-0.4c0.6,0.1,0.6,0.5,0.6,1
			C132.6,297.7,133.2,299,133.3,300.4z"/>
		<path id="XMLID_296_" class="st43" d="M116.3,294.1c-0.7-0.2-1.4-0.2-2.1-0.2c-0.7,0.1-1.4,0.4-1.8,1c-0.3,0.5-0.3,1.2-0.2,1.7
			c0.2,0.6,0.4,1.1,0.8,1.6c0.6,1,1.4,2,2.3,2.7c0.5,0.4,0.9,0.7,1.4,1c0.9,0.8,1.5,1.9,2,3c0.5,1,1,2.1,1.3,3.2
			c0,0.1,0,0.2,0.1,0.2c0.1,0,0.2,0,0.2,0l2.5-0.5c0.2,0,0.4-0.2,0.4-0.4c0-0.1,0-0.2-0.1-0.2c-0.6-2.4-1.6-4.6-3-6.6
			c1.4,1.3,3.3,1.8,5.1,1.5c0.4-0.1,0.7-0.2,1-0.4c0.6-0.5,0.5-1.4,0.4-2.1c-0.1-0.7-0.3-1.3-0.5-2c-0.5-1.5-2.5-2-3.9-2.3
			C120.4,295,118.4,294.5,116.3,294.1z"/>
		<path id="XMLID_295_" class="st12" d="M118.2,299.6c0.4,0.1,0.7,0.4,1,0.6c-0.5-0.5-1.8-0.8-2.4-1c-0.8-0.3-1.7-0.6-2.3-1.1
			C115.8,298.5,117,299,118.2,299.6z"/>
		<path id="XMLID_294_" class="st42" d="M126.5,310.4c0.2,0.4,0.4,1,0.1,1.4c-0.2,0.3-0.7,0.3-0.9,0.7c-0.1,0.3,0,0.5,0.2,0.7
			c0.2,0.1,0.5,0.2,0.7,0.3c0.6,0.1,1.3,0.1,1.9,0c0.3,0,0.7-0.2,0.9-0.4c0.2-0.3,0.3-0.7,0.3-1l0.4-4.9c0-0.2,0-0.5,0-0.7
			c-0.2-0.4-0.7-0.6-1.1-0.7c-0.5-0.1-1-0.1-1.5-0.1c-0.3,0-0.7,0.1-0.9,0.3c-0.3,0.3-0.4,0.6-0.4,1c-0.1,0.6-0.4,1.4-0.4,2
			C125.8,309.5,126.2,310,126.5,310.4z"/>
		<path id="XMLID_293_" class="st42" d="M120.8,308.8c-1-0.1-2,0-2.9,0.3c-0.3,0.1-0.6,0.3-0.7,0.6c0,0.3,0.1,0.5,0.4,0.6
			c0.2,0.1,0.5,0.1,0.8,0.1c1.4,0,2.7,0,4.1-0.2c0.4,0,0.7-0.1,1-0.3c0.3-0.2,0.4-0.6,0.3-0.9c-0.2-0.3-0.6-0.4-0.8-0.8
			c-0.2-0.2-0.2-0.5-0.4-0.7c-0.2-0.1-0.4,0-0.6,0c-0.3,0.1-0.9,0.2-1.1,0.4C120.8,308.3,120.8,308.6,120.8,308.8z"/>
		<circle id="XMLID_292_" class="st50" cx="117.1" cy="280.5" r="3.4"/>
		<path id="XMLID_291_" class="st42" d="M125.1,279c-0.5-0.4-1.2-0.5-1.9-0.7c-0.2-0.1-0.5-0.1-0.7,0c-0.1,0.1-0.3,0.2-0.3,0.4
			c-0.2,0.3-0.4,0.7-0.4,1.1c-0.1,0.4,0,0.8,0.3,1.1c0.2,0.2,0.5,0.3,0.7,0.5c0.3,0.3,0.4,0.7,0.3,1.1c-0.1,0.4-0.2,0.8-0.5,1.1
			c-0.5,0.9-1.1,1.7-1.7,2.5c-0.7,0.8-1.4,1.6-1.8,2.6c-0.4,1-0.3,2.2,0.3,3.2c0.6,0.9,1.9,1.4,2.9,1c-0.2,0.2-0.3,0.4-0.3,0.7
			l1.4,0.7c0.1,0,0.2,0.1,0.3,0.2c0,0.1,0,0.2,0,0.3c-0.1,0.6-0.2,1.2-0.2,1.7c0,0.6,0.3,1.2,0.8,1.4c0.5,0.2,1.1,0.1,1.6,0
			c1.2-0.2,2.5-0.4,3.7-0.4c0.6,0,1.3,0,1.8-0.2c0.8-0.3,1.3-1.1,1.3-2c0-0.4-0.1-0.9-0.3-1.3c-0.8-2.4-1.6-4.8-2.7-7.1
			c-0.7-1.5-1.5-3-2.5-4.3c-0.3-0.3-0.5-0.7-0.8-1c-0.2-0.2-0.7-0.6-0.7-0.9c-0.1-0.3,0.1-0.6,0-0.9
			C125.7,279.5,125.4,279.2,125.1,279z"/>
		<path id="XMLID_290_" class="st43" d="M133.4,300.4c-1.5-0.7-3-1.4-4.5-1.9c-1.1-0.4-2.4-0.7-3.5-0.3c-0.3,0.1-0.6,0.3-1,0.5
			c-1.1,0.5-2.3,0.6-3.5,0.7c-2.7,0.3-5.3,0.9-7.8,1.8c-0.6,0.2-1.2,0.5-1.5,1.1c-0.2,0.4-0.2,0.9-0.2,1.3c0,0.7,0.1,1.3,0.6,1.9
			c0.7,0.9,1.9,0.9,3,1.2c0.8,0.2,1.6,0.6,2.4,0.9c2.5,1.2,4.9,2.4,7.4,3.6c0.3,0.2,0.6,0,0.9-0.2c0.7-0.7,1.3-1.5,1.5-2.5
			c0.3-1,0.4-1.9,0.4-2.9c0.9,0,1.7,0,2.7,0c0.3,0,0.7,0,1-0.1c0.6-0.3,1-0.9,1.3-1.6C133,302.8,133.5,301.6,133.4,300.4z"/>
		<path id="XMLID_289_" class="st12" d="M116.2,304c0.7-0.3,1.4-0.3,2.2-0.3c0.5,0,0.9,0,1.4,0.1c0.7,0.2,1.3,0.4,2,0.7
			c1.6,0.7,3.3,1,5,1"/>
		<path id="XMLID_288_" class="st31" d="M112.3,281c0.5,0.5,1.1,0.8,1.8,0.9c0.7,0.2,1.4,0.2,2,0.4c0.8,0.2,1.7,0.6,1.9,1.5
			c0,0.3,0.1,0.7,0,1c0,0.3,0.1,0.7,0.3,0.9c0.1,0.1,0.3,0.2,0.4,0.2c2.8,1.1,4.6,3.7,4.6,6.7c0.9-0.5,1.4-1.4,1.6-2.4
			c0,0.9,0.8,1.8,0.3,2.6c1.9-1.2,2.4-3.8,1.2-5.7c-0.1-0.1-0.1-0.2-0.2-0.3c-0.3-0.4-0.8-0.8-1.1-1.2c-1-1.2-1.5-2.7-1.3-4.3
			c0.1-0.7,0.3-1.3,0.1-2c-0.2-0.9-1-1.5-1.7-2c-0.5-0.4-1.1-0.7-1.7-1c-0.8-0.3-1.6-0.5-2.4-0.6c-1.9-0.2-3.5,0.1-4.7,1.7
			c-0.2,0.4-0.5,0.7-0.9,0.9c-0.3,0.1-0.5,0.3-0.7,0.5C111.5,279.3,111.8,280.4,112.3,281z"/>
		<path id="XMLID_287_" class="st45" d="M77.6,243.2c-0.1,0-7.5-3.1-6.4-3.7c0.6-0.4,1.3-1.9,1.8-3.1c0.4-0.8,0.6-1.5,0.6-1.5
			s5.9-1,3.8,2.6c-0.3,0.6-0.6,1.2-0.7,1.8C76,241.8,77.5,243.2,77.6,243.2z"/>
		<path id="XMLID_286_" class="st12" d="M77.3,237.5c-0.3,0.6-0.6,1.2-0.7,1.8c-1.5-0.1-2.9-1.1-3.5-2.5c-0.1-0.1-0.1-0.3-0.2-0.4
			c0.4-0.8,0.6-1.5,0.6-1.5S79.4,233.9,77.3,237.5z"/>
		<path id="XMLID_285_" class="st45" d="M81,235.1c0,2.3-1.9,4.1-4.1,4.1c-1.6,0-3.1-1-3.8-2.4c-0.2-0.5-0.4-1.1-0.4-1.7
			c0-2.3,1.9-4.1,4.1-4.1c1.8,0,3.4,1.2,3.9,3C80.9,234.3,81,234.7,81,235.1z"/>
		<path id="XMLID_284_" class="st12" d="M85,267c-0.3,0.3-0.5,0.7-0.6,1.1c0,0-2,1.4-1.9,0.5c0.1-0.9-1.1-4.4-1.1-4.4l0.1,4.8
			c0,0-6.5-0.3-7-0.8s-3.2-1.4-3.2-1.4s-0.8,0.7-1.6,1.2c-0.1-0.6-0.2-1.1-0.2-1.1l2.8-2.2l7-1.8l2.6-0.8l2.6,4
			C84.5,266.1,84.7,266.5,85,267z"/>
		<path id="XMLID_283_" class="st43" d="M85.2,266.6c-0.5,0.3-0.7,1.3-0.7,1.3s-2,1.4-1.9,0.5c0.1-0.9-1-4.4-1-4.4l0.1,4.8
			c0,0-6.5-0.3-7-0.8c-0.5-0.5-3.2-1.4-3.2-1.4s-2.4,1.9-2.8,1.8c-0.4-0.2,0.8-3.4,0.8-3.4l1.2-19.2c0,0-0.3-5.7,0.2-5.9
			c0.1,0,0.2-0.1,0.2-0.1c0.3-0.3,0.4-0.9,0.5-1.4c0-0.6,0.8-0.3,0.8-0.3l-0.5,0.6l4.2,2.5l0,0c0.2-0.1,0.3-0.2,0.5-0.2
			c0.4-0.1,0.9-0.3,1.2-0.1c0.2,0.1,0.3,0.2,0.4,0.4c0.2,0.4,0.4,0.7,0.6,1.2l1.5,2.6c0,0,0.8,3.4,0.8,3.5c0,0.1,0.2,3.2,0.5,3.6
			s0.5,2,0.4,2.5s0.2,2.4,0.2,2.4c1.1,0.9,1.7,4,1.7,4s1.8,3.5,1.9,3.9S85.7,266.3,85.2,266.6z"/>
		<path id="XMLID_282_" class="st12" d="M76,241.3c-0.4,0.6-1.6,1.5-1.6,1.5l-3.4-2.9c0.3-0.3,0.4-0.9,0.5-1.4
			c0-0.6,0.8-0.3,0.8-0.3l-0.1,0.1c-0.2,0.2-0.1,0.6,0.1,0.8c0,0,0,0,0,0L76,241.3z"/>
		<path id="XMLID_281_" class="st44" d="M76,241.1c-0.4,0.6-1.6,1.5-1.6,1.5l-3.4-2.9c0.3-0.3,0.4-0.9,0.5-1.4
			c0-0.6,0.8-0.3,0.8-0.3l-0.1,0.1c-0.2,0.2-0.1,0.6,0.1,0.8c0,0,0,0,0,0L76,241.1z"/>
		<path id="XMLID_280_" class="st12" d="M77.6,241.6c-0.4,0.5-1.1,1.1-1,0.8c0-0.3-0.4-1-0.6-1.3c0.4-0.1,0.8-0.1,1.2,0
			C77.3,241.3,77.5,241.4,77.6,241.6z"/>
		<path id="XMLID_278_" class="st44" d="M77.7,241.4c-0.4,0.5-1.1,1.1-1,0.8c0-0.3-0.3-0.8-0.6-1.1c0.4-0.1,0.9-0.3,1.2-0.1
			C77.4,241.1,77.6,241.2,77.7,241.4z"/>
		<path id="XMLID_277_" class="st12" d="M71,239.9c0,0,0-0.4-0.5,0.3c-0.5,0.5-1.1,0.9-1.7,1.3c0,0-2.5,1.8-2.6,2.6
			c-0.1,0.8-0.9,4.3-0.5,5.5c0.4,1.2,3.7,6.8,3.7,6.8s-0.9,1-0.7,2.2c0.2,1.2,0.5,2.8,0.3,3.2c-0.1,0.4,0.1,1.3-0.3,1.6
			c-0.4,0.3-0.8,0.9,0.4,1.6c0,0,0.2,0.6,0,0.7s3,1.5,4.3,0.8c1.3-0.7,3.5-6.7,3.6-8c0-1.3-0.7-5.7-1.1-6.8c-0.4-1-1.6-5.1-2.1-6
			C73.3,244.7,71,239.9,71,239.9z"/>
		<path id="XMLID_275_" class="st42" d="M70.7,239.9c0,0,0-0.4-0.5,0.3c-0.5,0.5-1.1,1-1.7,1.3c0,0-2.5,1.8-2.6,2.6
			c-0.1,0.8-0.9,4.3-0.5,5.5c0.4,1.2,3.7,6.8,3.7,6.8s-0.9,1-0.7,2.2s0.5,2.8,0.3,3.2s0.1,1.3-0.3,1.6c-0.4,0.3-0.8,0.9,0.4,1.6
			c0,0,0.2,0.6,0,0.7c-0.2,0.1,3,1.5,4.3,0.8c1.3-0.7,3.5-6.7,3.6-8c0-1.3-0.7-5.7-1.1-6.8s-1.6-5.1-2.1-6
			C73,244.8,70.7,239.9,70.7,239.9z"/>
		<path id="XMLID_274_" class="st12" d="M70,243.7c0,0,1.9,2.1,1.9,3.6C71.8,247.2,71.9,244.9,70,243.7z"/>
		<path id="XMLID_272_" class="st12" d="M76.5,240.6c0,0,1.3-0.8,2.8,1.2c0,0,1.1,0.7,1.5,0.8c0.3,0.2,0.7,4.3,0.7,4.3
			s0.7,1.8,0.5,2.8s0.6,4.6,0.6,4.6s1.3,6.4,1.3,6.6c0,0.2-1.3-2-1.3-3.1c0-1.1-1.1-4.5-1.2-4.7c-0.2-0.2-1.2-6-1.2-6
			s-0.9-2.5-1.4-3.3c-0.6-0.8-1.3-2.3-1.5-2.6c-0.2-0.2-0.4-0.3-0.7-0.4L76.5,240.6z"/>
		<path id="XMLID_271_" class="st42" d="M76.5,240.6c0,0,1.4-0.8,3,1.2c0,0,1.2,0.7,1.5,0.8c0.3,0.2,0.7,4.3,0.7,4.3
			s0.7,1.8,0.5,2.8c-0.2,1,0.6,4.6,0.6,4.6s1.3,6.4,1.3,6.6c0,0.2-1.3-2-1.3-3.1c0-1.1-1.1-4.5-1.2-4.7c-0.2-0.2-1.2-6-1.2-6
			s-0.9-2.4-1.4-3.3c-0.6-0.8-1.3-2.3-1.5-2.6c-0.3-0.2-0.5-0.3-0.8-0.4L76.5,240.6z"/>
		<path id="XMLID_269_" class="st45" d="M82.7,254.7c0,0,2.7-1.8,4-0.9c1.3,0.9,3.4,2.1,1.3,3c-2.1,0.9-5,0.7-5,0.7L82.7,254.7z"/>
		<path id="XMLID_268_" class="st12" d="M80.8,271.7c-0.4,0.9-0.7,5.2-1,6.5c-0.3-0.5-0.7-1.2-0.8-1.4c-0.3-0.7-0.6-1.3-0.8-2
			c0.3-0.6,1-2.4,1-3c0-0.8,1.3-1.8,1.3-1.8C80.9,270.4,81.1,271.1,80.8,271.7z"/>
		<path id="XMLID_266_" class="st12" d="M80.8,233.9c-0.1,0-0.1,0.1-0.2,0.1c-0.3,0.1-0.6-0.1-0.9-0.3s-0.7-0.3-0.9-0.1
			c-0.3,0.3-0.1,0.9-0.4,1.2c-0.2,0.2-0.5,0.1-0.8,0.3c-0.2,0.1-0.3,0.5-0.4,0.7s-0.2,0.6-0.4,0.7s-0.5-0.1-0.8-0.1
			c-0.1,0-0.1,0-0.2,0c0,0,0-0.1,0-0.1c0-0.3,0-0.7-0.1-1c-0.1-0.3-0.4-0.6-0.7-0.6c-0.5-0.1-0.9,0.3-1.2,0.7
			c-0.3,0.4-0.6,0.8-0.8,1.3c0,0,0,0.1,0,0.1c-0.2-0.5-0.4-1.1-0.4-1.7c0-2.3,1.9-4.1,4.1-4.1C78.7,231,80.3,232.2,80.8,233.9
			L80.8,233.9z"/>
		<path id="XMLID_265_" class="st31" d="M73.9,235.3c0.3-0.4,0.7-0.8,1.2-0.7c0.3,0.1,0.6,0.3,0.7,0.6c0.1,0.3,0.1,0.6,0.1,1
			c0,0,0,0.1,0,0.1c0,0,0.1,0,0.2,0c0.3,0,0.5,0.2,0.8,0.1s0.4-0.4,0.4-0.7c0.1-0.3,0.1-0.6,0.4-0.7s0.6-0.1,0.8-0.3
			c0.3-0.3,0.1-0.9,0.4-1.2c0.2-0.2,0.6-0.1,0.9,0.1c0.3,0.2,0.6,0.4,0.9,0.3c0.1,0,0.2-0.1,0.3-0.1c0.5-0.2,1.2,0.1,1.6-0.2
			c0.1-0.2,0.3-0.3,0.3-0.5c0.1-0.3,0.2-0.6,0.2-0.9c0-0.3,0-0.6-0.2-0.8c-0.3-0.3-0.7-0.4-1.1-0.6c-0.3-0.2-0.5-0.5-0.7-0.8
			c-0.2-0.3-0.4-0.6-0.7-0.8c-0.3-0.2-0.7-0.3-1-0.2c-0.1,0.1-0.2,0.1-0.3,0.2c-0.1,0-0.3,0-0.4-0.1c-1.2-0.6-2.5-0.5-3.8-0.3
			c-0.5,0-1,0.2-1.5,0.4c-0.5,0.2-0.9,0.6-1,1.1c-0.1,0.4,0,0.8-0.1,1.2c-0.1,0.3-0.3,0.5-0.4,0.8c-0.3,0.7,0.1,1.5,0.2,2.2
			c0.2,0.8,0.1,1.7,0.4,2.5c0.1,0.2,0.1,0.4,0.3,0.3c0.1-0.1,0.3-0.5,0.3-0.6C73.4,236.1,73.6,235.7,73.9,235.3z"/>
		<path id="XMLID_263_" class="st12" d="M66.5,248.5l-0.6,1.7c0,0,1.4,5.4,2.1,6.5s1.7,2.6,1.7,2.6c1.1,0.5,2.4,0.7,3.6,0.4
			c1.9-0.4,7.6-1.4,7.6-1.4c0.3,0,0.5-0.1,0.7-0.3c0.3-0.4,1.5-0.5,1.5-0.5s1.5-2.2-0.3-3.1c0,0-0.2,0.5-1.2,0.2
			c-1-0.3-1.3,0.3-1.3,0.3s-1.6,0.3-2.5,0.2c-0.9-0.1-3.1-0.2-3.3-0.3c-0.1-0.1-0.3-0.1-0.4,0c0,0,0,0,0,0c-0.3-0.1-0.5-0.2-0.7-0.4
			c-0.2-0.2-0.4,0.2-0.4,0.2s-0.3-0.2-0.2-0.4s-0.3-1.1-0.3-1.1c-0.1-0.3-0.1-0.7-0.1-1c0.1-0.5-0.6-2.1-0.6-2.1
			c0-0.3,0-0.5,0.1-0.8c0.1-0.4-0.9-1.2-0.9-1.2s-0.9-4.6-3-3.1S66.5,248.5,66.5,248.5z"/>
		<path id="XMLID_262_" class="st42" d="M66.4,248.5l-0.6,1.7c0,0,1.4,5.4,2.1,6.5s1.7,2.6,1.7,2.6c1.1,0.5,2.4,0.7,3.6,0.4
			c1.9-0.4,7.6-1.4,7.6-1.4c0.3,0,0.5-0.1,0.7-0.3c0.3-0.4,1.5-0.5,1.5-0.5s1.5-2.2-0.3-3.1c0,0-0.2,0.5-1.2,0.2s-1.3,0.3-1.3,0.3
			s-1.6,0.3-2.5,0.2c-0.9-0.1-3.1-0.2-3.3-0.3c-0.1-0.1-0.3-0.1-0.4,0c0,0,0,0,0,0c-0.3-0.1-0.5-0.2-0.7-0.4
			c-0.2-0.2-0.4,0.2-0.4,0.2s-0.3-0.2-0.2-0.4s-0.3-1.1-0.3-1.1c-0.1-0.3-0.1-0.7-0.1-1c0.1-0.5-0.6-2.1-0.6-2.1
			c0-0.3,0-0.5,0.1-0.8C72,248.8,71,248,71,248s-0.9-4.6-3-3.1S66.4,248.5,66.4,248.5z"/>
		<path id="XMLID_260_" class="st12" d="M71.9,253.7c0,0-2.2,0.5-1.5,0.8C71.2,254.9,71.9,253.7,71.9,253.7z"/>
		<g id="XMLID_256_" class="st21">
			<path id="XMLID_259_" class="st22" d="M75.8,234.8c-0.1-0.3-0.4-0.6-0.7-0.6c-0.5-0.1-0.9,0.3-1.2,0.7c-0.3,0.4-0.6,0.8-0.8,1.3
				c-0.1,0.1-0.2,0.6-0.3,0.6c-0.2,0.1-0.3-0.2-0.3-0.3c-0.3-0.8-0.3-1.7-0.4-2.5c-0.1-0.5-0.2-1-0.3-1.4c-0.1,0.6,0.2,1.2,0.3,1.8
				c0.2,0.8,0.1,1.7,0.4,2.5c0.1,0.2,0.1,0.4,0.3,0.3c0.1-0.1,0.3-0.5,0.3-0.6c0.2-0.4,0.5-0.9,0.8-1.3c0.3-0.4,0.7-0.8,1.2-0.7
				c0.3,0.1,0.6,0.3,0.7,0.6c0.1,0.2,0.1,0.3,0.1,0.5C75.9,235.4,75.9,235.1,75.8,234.8z"/>
			<path id="XMLID_257_" class="st22" d="M82.8,232.7c-0.1,0.2-0.2,0.4-0.3,0.5c-0.4,0.3-1.1,0-1.6,0.2c-0.1,0-0.2,0.1-0.3,0.1
				c-0.3,0.1-0.6-0.1-0.9-0.3c-0.3-0.2-0.7-0.3-0.9-0.1c-0.3,0.3-0.1,0.9-0.4,1.2c-0.2,0.2-0.5,0.1-0.8,0.3
				c-0.2,0.1-0.3,0.5-0.4,0.7s-0.2,0.6-0.4,0.7s-0.5-0.1-0.8-0.1c-0.1,0-0.1,0-0.2,0c0,0,0,0,0,0c0,0.1,0,0.2,0,0.3c0,0,0,0.1,0,0.1
				c0,0,0.1,0,0.2,0c0.3,0,0.5,0.2,0.8,0.1c0.2-0.1,0.4-0.4,0.4-0.7c0.1-0.3,0.1-0.6,0.4-0.7c0.2-0.1,0.6-0.1,0.8-0.3
				c0.3-0.3,0.1-0.9,0.4-1.2c0.2-0.2,0.6-0.1,0.9,0.1c0.3,0.2,0.6,0.4,0.9,0.3c0.1,0,0.2-0.1,0.3-0.1c0.5-0.2,1.2,0.1,1.6-0.2
				c0.1-0.1,0.3-0.3,0.3-0.5c0.1-0.3,0.2-0.6,0.2-0.9c0-0.1,0-0.2,0-0.3C83,232.1,82.9,232.4,82.8,232.7z"/>
		</g>
		<ellipse id="XMLID_254_" class="st42" cx="37.8" cy="297.9" rx="10.6" ry="2"/>
		<ellipse id="XMLID_253_" class="st31" cx="37.7" cy="297" rx="1.2" ry="1.6"/>
		<ellipse id="XMLID_251_" class="st31" cx="37.7" cy="295.1" rx="1.2" ry="1.6"/>
		<ellipse id="XMLID_250_" class="st31" cx="37.7" cy="293.1" rx="1.2" ry="1.6"/>
		<ellipse id="XMLID_248_" class="st31" cx="37.7" cy="291.1" rx="1.2" ry="1.6"/>
		<ellipse id="XMLID_247_" class="st31" cx="37.7" cy="289.2" rx="1.2" ry="1.6"/>
		<ellipse id="XMLID_245_" class="st31" cx="37.7" cy="287.2" rx="1.2" ry="1.6"/>
		<ellipse id="XMLID_244_" class="st31" cx="37.7" cy="285.2" rx="1.2" ry="1.6"/>
		<path id="XMLID_242_" class="st42" d="M42.3,271.8c0.2-0.2,0.3-0.4,0.5-0.7l-3.2-0.5l3.5,0c0.7-1.5,0.7-3.2,0.1-4.7l-4.7,2.4
			l4.3-3.2c-1.6-2.8-5.2-3.8-8-2.1s-3.8,5.2-2.1,8c0.1,0.2,0.3,0.5,0.5,0.7c-0.3,0.3-0.5,0.7-0.7,1.1l4.2,2.2l-4.5-1.5
			c-0.6,1.9-0.3,4,0.9,5.5c-2,2.6-1.6,6.3,1,8.3c2.6,2,6.3,1.6,8.3-1c1.7-2.1,1.7-5.1,0-7.3C43.9,276.9,43.9,273.9,42.3,271.8
			L42.3,271.8z"/>
		<path id="XMLID_241_" class="st42" d="M31.7,275.4c0,1.3,0.4,2.6,1.3,3.6c-2,2.6-1.6,6.3,1,8.3c2.6,2,6.3,1.6,8.3-1
			c1.7-2.1,1.7-5.1,0-7.3C43,278,31.7,274.7,31.7,275.4z"/>
		<circle id="XMLID_224_" class="st51" cx="76.4" cy="176.2" r="3.9"/>
		<circle id="XMLID_223_" class="st52" cx="90.5" cy="158.6" r="6.6"/>
		<circle id="XMLID_221_" class="st51" cx="81.7" cy="190.6" r="6.6"/>
		<ellipse id="XMLID_213_" class="st51" cx="300.3" cy="240.9" rx="4.5" ry="4.6"/>
		<circle id="XMLID_212_" class="st51" cx="242.7" cy="217" r="4.8"/>
		<circle id="XMLID_211_" class="st51" cx="155.1" cy="214.7" r="3.7"/>
		<circle id="XMLID_210_" class="st51" cx="27.9" cy="188.7" r="9.4"/>
		<circle id="XMLID_209_" class="st51" cx="81.3" cy="219.7" r="5.4"/>
		<circle id="XMLID_208_" class="st53" cx="134.7" cy="254.7" r="5.4"/>
		<ellipse id="XMLID_207_" class="st40" cx="37.8" cy="298.7" rx="30.8" ry="6.2"/>
		<ellipse id="XMLID_82_" class="st51" cx="367.6" cy="216.6" rx="4.5" ry="4.6"/>
		<ellipse id="XMLID_83_" class="st51" cx="415.9" cy="219.5" rx="7" ry="7.2"/>
		<circle id="XMLID_84_" class="st51" cx="188.9" cy="234.4" r="3.7"/>
		<circle id="XMLID_85_" class="st51" cx="229.7" cy="246.3" r="3.7"/>
	</g>
</g>
</svg>
